<svg width="206" height="186" viewBox="0 0 206 186" fill="none" xmlns="http://www.w3.org/2000/svg">
<g opacity="0.3">
<path d="M26.0198 46.8424H5.1037V20.7014H22.8986L26.0198 23.3089V46.8424Z" fill="white" stroke="#2B2B2B" stroke-width="0.5" stroke-linejoin="round"/>
<path d="M22.8989 20.7015V23.3531H26.0203L22.8989 20.7015Z" fill="white" stroke="#2B2B2B" stroke-width="0.5" stroke-linejoin="round"/>
<path d="M16.652 22.8994H1.03748V28.6121H16.652V22.8994Z" fill="#2B2B2B"/>
<path d="M7.41608 30.2462H24.2571" stroke="#2B2B2B" stroke-width="0.5" stroke-miterlimit="10"/>
<path d="M7.41608 33.3777H24.2571" stroke="#2B2B2B" stroke-width="0.5" stroke-miterlimit="10"/>
<path d="M7.41608 36.5049H24.2571" stroke="#2B2B2B" stroke-width="0.5" stroke-miterlimit="10"/>
<path d="M7.41608 39.6366H24.2571" stroke="#2B2B2B" stroke-width="0.5" stroke-miterlimit="10"/>
<path d="M7.41608 42.7638H24.2571" stroke="#2B2B2B" stroke-width="0.5" stroke-miterlimit="10"/>
<path d="M5.80262 27.7973V24.093H5.04645V23.6526H7.01162V24.093H6.25545V27.7973H5.80262Z" fill="white"/>
<path d="M8.348 26.0222L7.65778 27.784H7.21814L8.04905 25.661L7.28848 23.6746H7.76768L8.40076 25.3263L9.04702 23.6746H9.48666L8.7173 25.6742L9.53942 27.7972H9.04702L8.348 26.0222Z" fill="white"/>
<path d="M10.4757 27.7973V24.093H9.71515V23.6526H11.6847V24.093H10.9241V27.7973H10.4757Z" fill="white"/>
</g>
<g opacity="0.3">
<path d="M196.25 104.348H175.334V78.2029H193.124L196.25 80.8104V104.348Z" fill="white" stroke="#2B2B2B" stroke-width="0.5" stroke-linejoin="round"/>
<path d="M193.124 78.2029V80.8544H196.25L193.124 78.2029Z" fill="white" stroke="#2B2B2B" stroke-width="0.5" stroke-linejoin="round"/>
<path d="M186.878 80.4052H171.263V86.1179H186.878V80.4052Z" fill="#2B2B2B"/>
<path d="M177.646 87.752H194.483" stroke="#2B2B2B" stroke-width="0.5" stroke-miterlimit="10"/>
<path d="M177.646 90.8792H194.483" stroke="#2B2B2B" stroke-width="0.5" stroke-miterlimit="10"/>
<path d="M177.646 94.0063H194.483" stroke="#2B2B2B" stroke-width="0.5" stroke-miterlimit="10"/>
<path d="M177.646 97.1381H194.483" stroke="#2B2B2B" stroke-width="0.5" stroke-miterlimit="10"/>
<path d="M177.646 100.265H194.483" stroke="#2B2B2B" stroke-width="0.5" stroke-miterlimit="10"/>
<path d="M176.033 85.303V81.5987H175.272V81.1803H177.242V81.5987H176.486V85.303H176.033Z" fill="white"/>
<path d="M178.578 83.5236L177.888 85.2854H177.448L178.279 83.158L177.501 81.1627H177.976L178.613 82.81L179.255 81.1627H179.695L178.925 83.158L179.748 85.2854H179.26L178.578 83.5236Z" fill="white"/>
<path d="M180.701 85.303V81.5987H179.945V81.1803H181.915V81.5987H181.154V85.303H180.701Z" fill="white"/>
</g>
<g opacity="0.3">
<path d="M127.875 149.006H106.959V122.861H124.754L127.875 125.468V149.006Z" fill="white" stroke="#2B2B2B" stroke-width="0.5" stroke-linejoin="round"/>
<path d="M124.754 122.861V125.517H127.876L124.754 122.861Z" fill="white" stroke="#2B2B2B" stroke-width="0.5" stroke-linejoin="round"/>
<path d="M118.507 125.063H102.893V130.776H118.507V125.063Z" fill="#2B2B2B"/>
<path d="M109.276 132.41H126.113" stroke="#2B2B2B" stroke-width="0.5" stroke-miterlimit="10"/>
<path d="M109.276 135.537H126.113" stroke="#2B2B2B" stroke-width="0.5" stroke-miterlimit="10"/>
<path d="M109.276 138.664H126.113" stroke="#2B2B2B" stroke-width="0.5" stroke-miterlimit="10"/>
<path d="M109.276 141.796H126.113" stroke="#2B2B2B" stroke-width="0.5" stroke-miterlimit="10"/>
<path d="M109.276 144.923H126.113" stroke="#2B2B2B" stroke-width="0.5" stroke-miterlimit="10"/>
<path d="M107.658 129.961V126.257H106.902V125.838H108.871V126.257H108.111V129.961H107.658Z" fill="white"/>
<path d="M110.203 128.181L109.513 129.943H109.073L109.9 127.816L109.126 125.821H109.601L110.234 127.468L110.876 125.821H111.316L110.542 127.816L111.368 129.943H110.885L110.203 128.181Z" fill="white"/>
<path d="M112.353 129.961V126.257H111.592V125.838H113.562V126.257H112.793V129.961H112.353Z" fill="white"/>
</g>
<g opacity="0.3">
<path d="M34.6843 110.272H6.51489V75.0624H30.4818L34.6843 78.5728V110.272Z" fill="white" stroke="#2B2B2B" stroke-width="0.5" stroke-linejoin="round"/>
<path d="M30.4822 75.0624V78.6345H34.6847L30.4822 75.0624Z" fill="white" stroke="#2B2B2B" stroke-width="0.5" stroke-linejoin="round"/>
<path d="M22.0678 78.0267H1.03748V85.7215H22.0678V78.0267Z" fill="#2B2B2B"/>
<path d="M9.63165 87.9193H32.3105" stroke="#2B2B2B" stroke-width="0.5" stroke-miterlimit="10"/>
<path d="M9.63165 92.1344H32.3105" stroke="#2B2B2B" stroke-width="0.5" stroke-miterlimit="10"/>
<path d="M9.63165 96.3452H32.3105" stroke="#2B2B2B" stroke-width="0.5" stroke-miterlimit="10"/>
<path d="M9.63165 100.56H32.3105" stroke="#2B2B2B" stroke-width="0.5" stroke-miterlimit="10"/>
<path d="M9.63165 104.776H32.3105" stroke="#2B2B2B" stroke-width="0.5" stroke-miterlimit="10"/>
<path d="M7.86903 79.0706C8.7483 79.0706 9.1132 79.5859 9.1132 80.4272V81.0923C9.1132 81.9732 8.69994 82.4136 7.82067 82.4136H7.28871V84.6159H6.67322V79.0662L7.86903 79.0706ZM7.82067 81.8851C8.2603 81.8851 8.5021 81.6692 8.5021 81.1407V80.4007C8.5021 79.8942 8.32185 79.6387 7.86903 79.6387H7.28871V81.8851H7.82067Z" fill="white"/>
<path d="M10.9153 79.0706C11.7946 79.0706 12.1726 79.5903 12.1726 80.4492V83.2461C12.1726 84.0961 11.777 84.6203 10.9153 84.6203H9.59637V79.0706H10.9153ZM10.9153 84.0565C11.3549 84.0565 11.5747 83.779 11.5747 83.2725V80.4183C11.5747 79.9074 11.3593 79.6299 10.9109 79.6299H10.2338V84.0565H10.9153Z" fill="white"/>
<path d="M14.6429 81.656V82.2154H13.368V84.6203H12.7525V79.0706H14.9507V79.6299H13.368V81.656H14.6429Z" fill="white"/>
</g>
<g opacity="0.3">
<path d="M23.1143 158.436H9.23175V141.087H21.0394L23.1143 142.818V158.436Z" fill="white" stroke="#2B2B2B" stroke-width="0.5" stroke-linejoin="round"/>
<path d="M21.0394 141.087V142.849H23.1145L21.0394 141.087Z" fill="white" stroke="#2B2B2B" stroke-width="0.5" stroke-linejoin="round"/>
<path d="M16.8938 142.545H6.53247V146.337H16.8938V142.545Z" fill="#2B2B2B"/>
<path d="M10.7703 147.42H21.9448" stroke="#2B2B2B" stroke-width="0.5" stroke-miterlimit="10"/>
<path d="M10.7703 149.499H21.9448" stroke="#2B2B2B" stroke-width="0.5" stroke-miterlimit="10"/>
<path d="M10.7703 151.574H21.9448" stroke="#2B2B2B" stroke-width="0.5" stroke-miterlimit="10"/>
<path d="M10.7703 153.653H21.9448" stroke="#2B2B2B" stroke-width="0.5" stroke-miterlimit="10"/>
<path d="M10.7703 155.727H21.9448" stroke="#2B2B2B" stroke-width="0.5" stroke-miterlimit="10"/>
<path d="M9.89988 143.06C10.3395 143.06 10.5109 143.315 10.5109 143.729V144.055C10.5109 144.496 10.3087 144.716 9.87351 144.716H9.60537V145.795H9.30206V143.06H9.89988ZM9.87351 144.43C10.1021 144.43 10.212 144.324 10.212 144.064V143.699C10.212 143.452 10.1197 143.324 9.89988 143.324H9.60537V144.43H9.87351Z" fill="white"/>
<path d="M11.3988 143.06C11.8384 143.06 12.0186 143.32 12.0186 143.743V145.121C12.0186 145.54 11.8252 145.795 11.3988 145.795H10.7614V143.06H11.3988ZM11.3988 145.518C11.6186 145.518 11.7241 145.381 11.7241 145.13V143.725C11.7241 143.474 11.6186 143.337 11.3944 143.337H11.0691V145.54L11.3988 145.518Z" fill="white"/>
<path d="M13.2363 144.333V144.61H12.6077V145.795H12.3044V143.06H13.3902V143.337H12.6077V144.333H13.2363Z" fill="white"/>
</g>
<g opacity="0.3">
<path d="M199.599 29.6427H185.717V12.2888H197.524L199.599 14.0198V29.6427Z" fill="white" stroke="#2B2B2B" stroke-width="0.5" stroke-linejoin="round"/>
<path d="M197.524 12.2888V14.0506H199.599L197.524 12.2888Z" fill="white" stroke="#2B2B2B" stroke-width="0.5" stroke-linejoin="round"/>
<path d="M193.379 13.7511H183.018V17.5434H193.379V13.7511Z" fill="#2B2B2B"/>
<path d="M187.251 18.627H198.426" stroke="#2B2B2B" stroke-width="0.5" stroke-miterlimit="10"/>
<path d="M187.251 20.7015H198.426" stroke="#2B2B2B" stroke-width="0.5" stroke-miterlimit="10"/>
<path d="M187.251 22.7805H198.426" stroke="#2B2B2B" stroke-width="0.5" stroke-miterlimit="10"/>
<path d="M187.251 24.855H198.426" stroke="#2B2B2B" stroke-width="0.5" stroke-miterlimit="10"/>
<path d="M187.251 26.9338H198.426" stroke="#2B2B2B" stroke-width="0.5" stroke-miterlimit="10"/>
<path d="M186.385 14.2665C186.825 14.2665 186.996 14.5175 186.996 14.936V15.2619C186.996 15.7024 186.794 15.9226 186.359 15.9226H186.09V17.0017H185.787V14.2665H186.385ZM186.359 15.6495C186.587 15.6495 186.697 15.5438 186.697 15.2795V14.936C186.697 14.6849 186.605 14.5616 186.385 14.5616H186.09V15.6671L186.359 15.6495Z" fill="white"/>
<path d="M187.884 14.2665C188.324 14.2665 188.504 14.5219 188.504 14.9448V16.3234C188.504 16.7418 188.31 17.0017 187.884 17.0017H187.247V14.2665H187.884ZM187.884 16.7242C188.104 16.7242 188.209 16.5877 188.209 16.3366V14.936C188.209 14.6849 188.104 14.5484 187.88 14.5484H187.554V16.7506L187.884 16.7242Z" fill="white"/>
<path d="M189.722 15.5394V15.8169H189.093V17.0017H188.79V14.2665H189.875V14.544H189.093V15.5394H189.722Z" fill="white"/>
</g>
<path d="M174.987 5.50586H27.9589V120.645H174.987V5.50586Z" fill="#2B2B2B" stroke="#2B2B2B" stroke-width="0.5" stroke-miterlimit="10"/>
<path d="M180.2 1H32.7285V116.412H180.2V1Z" fill="#75CEA9"/>
<path d="M180.2 1H32.7285V116.412H180.2V1Z" fill="white" stroke="#2B2B2B" stroke-width="0.5" stroke-linecap="round" stroke-linejoin="round"/>
<path d="M67.9538 17.3542H36.7423V37.1747H67.9538V17.3542Z" fill="white" stroke="#2B2B2B" stroke-width="0.5" stroke-linecap="round" stroke-linejoin="round"/>
<path d="M45.314 25.9473H58.5019" stroke="#2B2B2B" stroke-width="0.5" stroke-miterlimit="10"/>
<path d="M42.0172 29.2507H63.7773" stroke="#2B2B2B" stroke-width="0.5" stroke-miterlimit="10"/>
<path d="M67.9538 40.9185H36.7423V60.7389H67.9538V40.9185Z" fill="white" stroke="#2B2B2B" stroke-width="0.5" stroke-linecap="round" stroke-linejoin="round"/>
<path d="M39.9907 45.6226H50.9366" stroke="#2B2B2B" stroke-width="0.5" stroke-miterlimit="10"/>
<path d="M39.9907 48.2477H50.9366" stroke="#2B2B2B" stroke-width="0.5" stroke-miterlimit="10"/>
<path d="M39.9907 50.8727H50.9366" stroke="#2B2B2B" stroke-width="0.5" stroke-miterlimit="10"/>
<path d="M39.9907 53.4978H50.9366" stroke="#2B2B2B" stroke-width="0.5" stroke-miterlimit="10"/>
<path d="M39.9907 56.1228H50.9366" stroke="#2B2B2B" stroke-width="0.5" stroke-miterlimit="10"/>
<path d="M53.5436 45.6226H64.4896" stroke="#2B2B2B" stroke-width="0.5" stroke-miterlimit="10"/>
<path d="M53.5436 48.2477H64.4896" stroke="#2B2B2B" stroke-width="0.5" stroke-miterlimit="10"/>
<path d="M53.5436 50.8727H64.4896" stroke="#2B2B2B" stroke-width="0.5" stroke-miterlimit="10"/>
<path d="M53.5436 53.4978H64.4896" stroke="#2B2B2B" stroke-width="0.5" stroke-miterlimit="10"/>
<path d="M53.5436 56.1228H64.4896" stroke="#2B2B2B" stroke-width="0.5" stroke-miterlimit="10"/>
<path d="M67.9538 64.4828H36.7423V84.3033H67.9538V64.4828Z" fill="white" stroke="#2B2B2B" stroke-width="0.5" stroke-linecap="round" stroke-linejoin="round"/>
<path d="M39.9907 69.1869H50.9366" stroke="#2B2B2B" stroke-width="0.5" stroke-miterlimit="10"/>
<path d="M39.9907 71.812H50.9366" stroke="#2B2B2B" stroke-width="0.5" stroke-miterlimit="10"/>
<path d="M39.9907 74.4371H50.9366" stroke="#2B2B2B" stroke-width="0.5" stroke-miterlimit="10"/>
<path d="M39.9907 77.0621H50.9366" stroke="#2B2B2B" stroke-width="0.5" stroke-miterlimit="10"/>
<path d="M39.9907 79.6873H50.9366" stroke="#2B2B2B" stroke-width="0.5" stroke-miterlimit="10"/>
<path d="M53.5436 69.1869H64.4896" stroke="#2B2B2B" stroke-width="0.5" stroke-miterlimit="10"/>
<path d="M53.5436 71.812H64.4896" stroke="#2B2B2B" stroke-width="0.5" stroke-miterlimit="10"/>
<path d="M53.5436 74.4371H64.4896" stroke="#2B2B2B" stroke-width="0.5" stroke-miterlimit="10"/>
<path d="M53.5436 77.0621H64.4896" stroke="#2B2B2B" stroke-width="0.5" stroke-miterlimit="10"/>
<path d="M53.5436 79.6873H64.4896" stroke="#2B2B2B" stroke-width="0.5" stroke-miterlimit="10"/>
<path d="M67.9538 88.0471H36.7423V107.868H67.9538V88.0471Z" fill="white" stroke="#2B2B2B" stroke-width="0.5" stroke-linecap="round" stroke-linejoin="round"/>
<path d="M39.9907 92.7512H50.9366" stroke="#2B2B2B" stroke-width="0.5" stroke-miterlimit="10"/>
<path d="M39.9907 95.3763H50.9366" stroke="#2B2B2B" stroke-width="0.5" stroke-miterlimit="10"/>
<path d="M39.9907 98.0015H50.9366" stroke="#2B2B2B" stroke-width="0.5" stroke-miterlimit="10"/>
<path d="M39.9907 100.626H50.9366" stroke="#2B2B2B" stroke-width="0.5" stroke-miterlimit="10"/>
<path d="M39.9907 103.252H50.9366" stroke="#2B2B2B" stroke-width="0.5" stroke-miterlimit="10"/>
<path d="M53.5436 92.7512H64.4896" stroke="#2B2B2B" stroke-width="0.5" stroke-miterlimit="10"/>
<path d="M53.5436 95.3763H64.4896" stroke="#2B2B2B" stroke-width="0.5" stroke-miterlimit="10"/>
<path d="M53.5436 98.0015H64.4896" stroke="#2B2B2B" stroke-width="0.5" stroke-miterlimit="10"/>
<path d="M53.5436 100.626H64.4896" stroke="#2B2B2B" stroke-width="0.5" stroke-miterlimit="10"/>
<path d="M53.5436 103.252H64.4896" stroke="#2B2B2B" stroke-width="0.5" stroke-miterlimit="10"/>
<path d="M180.196 1H72.3497V116.412H180.196V1Z" fill="#8A8A8A" stroke="#2B2B2B" stroke-width="0.5" stroke-linecap="round" stroke-linejoin="round"/>
<path d="M173.017 22.8641H75.4266V89.3728H173.017V22.8641Z" fill="white" stroke="#2B2B2B" stroke-width="0.5" stroke-linecap="round" stroke-linejoin="round"/>
<path d="M98.101 49.2651H151.662" stroke="#2B2B2B" stroke-width="0.5" stroke-miterlimit="10"/>
<path d="M90.8214 55.0967H158.941" stroke="#2B2B2B" stroke-width="0.5" stroke-miterlimit="10"/>
<path d="M180.196 1H176.385V116.412H180.196V1Z" fill="#F2F2F2" stroke="#2B2B2B" stroke-width="0.5" stroke-miterlimit="10"/>
<path d="M180.196 36.756H176.385V67.9402H180.196V36.756Z" fill="#8A8A8A"/>
<path d="M180.2 1H32.7285V8.49655H180.2V1Z" fill="#75CEA9" stroke="#2B2B2B" stroke-width="0.5" stroke-linecap="round" stroke-linejoin="round"/>
<path d="M137.239 2.27722H42.4262V6.50559H137.239V2.27722Z" fill="white"/>
<path d="M173.013 11.1481H165.694" stroke="#2B2B2B" stroke-width="0.5" stroke-miterlimit="10"/>
<path d="M173.013 13.4076H165.694" stroke="#2B2B2B" stroke-width="0.5" stroke-miterlimit="10"/>
<path d="M173.013 15.6627H165.694" stroke="#2B2B2B" stroke-width="0.5" stroke-miterlimit="10"/>
<path d="M181.809 163.563L183.59 158.463" stroke="#2B2B2B" stroke-width="0.5" stroke-linecap="round" stroke-linejoin="round"/>
<path d="M181.937 149.79V168.791" stroke="#2B2B2B" stroke-width="0.5" stroke-linecap="round" stroke-linejoin="round"/>
<path d="M179.018 159.647C179.018 159.647 176.38 156.762 173.743 157.243C171.105 157.723 169.901 160.854 169.901 162.779C169.901 164.704 172.538 170.958 172.538 170.958C172.538 170.958 174.459 168.796 178.785 165.673C183.11 162.55 183.343 159.405 179.018 159.647Z" fill="#75CEA9" stroke="#2B2B2B" stroke-width="0.5" stroke-linecap="round" stroke-linejoin="round"/>
<path d="M179.018 159.647C176.754 160.932 174.919 162.858 173.743 165.184" stroke="#2B2B2B" stroke-width="0.5" stroke-linecap="round" stroke-linejoin="round"/>
<path d="M183.326 156.26C183.326 156.26 185.524 153.886 187.683 154.287C189.841 154.688 190.843 157.269 190.839 158.855C190.834 160.44 188.641 165.594 188.641 165.594C187.077 163.97 185.359 162.504 183.511 161.215C179.954 158.63 179.761 156.053 183.326 156.26Z" fill="#75CEA9" stroke="#2B2B2B" stroke-width="0.5" stroke-linecap="round" stroke-linejoin="round"/>
<path d="M183.326 156.26C185.192 157.321 186.702 158.912 187.665 160.832" stroke="#2B2B2B" stroke-width="0.5" stroke-linecap="round" stroke-linejoin="round"/>
<path d="M181.554 153.107L184.865 148.257" stroke="#2B2B2B" stroke-width="0.5" stroke-linecap="round" stroke-linejoin="round"/>
<path d="M181.001 151.702C181.001 151.702 180.948 148.478 179.053 147.328C177.159 146.178 174.719 147.447 173.668 148.649C172.617 149.852 170.82 155.128 170.82 155.128C170.82 155.128 173.185 154.842 177.559 155.283C181.933 155.723 183.796 153.922 181.001 151.702Z" fill="#75CEA9" stroke="#2B2B2B" stroke-width="0.5" stroke-linecap="round" stroke-linejoin="round"/>
<path d="M181 151.702C178.902 151.251 176.718 151.432 174.723 152.221" stroke="#2B2B2B" stroke-width="0.5" stroke-linecap="round" stroke-linejoin="round"/>
<path d="M183.845 147.376C183.845 147.376 183.884 145.002 185.278 144.157C186.671 143.311 188.474 144.245 189.234 145.117C189.995 145.989 191.322 149.896 191.322 149.896C189.67 149.772 188.009 149.81 186.364 150.01C183.155 150.332 181.809 149.01 183.845 147.376Z" fill="#75CEA9" stroke="#2B2B2B" stroke-width="0.5" stroke-linecap="round" stroke-linejoin="round"/>
<path d="M183.845 147.376C185.389 147.045 186.996 147.178 188.465 147.759" stroke="#2B2B2B" stroke-width="0.5" stroke-linecap="round" stroke-linejoin="round"/>
<path d="M190.025 167.162H172.964L174.692 184.956H188.298L190.025 167.162Z" fill="white" stroke="#2B2B2B" stroke-width="0.5" stroke-linecap="round" stroke-linejoin="round"/>
<path d="M185.502 174.914C185.502 175.065 185.547 175.213 185.631 175.339C185.715 175.465 185.834 175.564 185.974 175.622C186.114 175.68 186.268 175.695 186.416 175.665C186.564 175.636 186.701 175.563 186.808 175.455C186.915 175.348 186.987 175.212 187.017 175.063C187.046 174.914 187.031 174.76 186.973 174.62C186.916 174.48 186.817 174.361 186.692 174.276C186.566 174.192 186.418 174.147 186.267 174.147C186.166 174.147 186.066 174.166 185.973 174.204C185.88 174.243 185.796 174.299 185.725 174.37C185.653 174.442 185.597 174.526 185.559 174.62C185.521 174.713 185.501 174.813 185.502 174.914V174.914Z" fill="#2B2B2B" stroke="#2B2B2B" stroke-width="0.5" stroke-linecap="round" stroke-linejoin="round"/>
<path d="M182.689 174.914C182.689 175.065 182.734 175.213 182.818 175.339C182.902 175.465 183.021 175.564 183.161 175.622C183.301 175.68 183.454 175.695 183.603 175.665C183.751 175.636 183.887 175.563 183.994 175.455C184.101 175.348 184.174 175.212 184.204 175.063C184.233 174.914 184.218 174.76 184.16 174.62C184.102 174.48 184.004 174.361 183.878 174.276C183.753 174.192 183.605 174.147 183.454 174.147C183.353 174.147 183.253 174.166 183.16 174.204C183.067 174.243 182.983 174.299 182.911 174.37C182.84 174.442 182.784 174.526 182.746 174.62C182.707 174.713 182.688 174.813 182.689 174.914V174.914Z" fill="#2B2B2B" stroke="#2B2B2B" stroke-width="0.5" stroke-linecap="round" stroke-linejoin="round"/>
<path d="M173.532 172.998H189.458L189.533 172.236H173.457L173.532 172.998Z" fill="#2B2B2B" stroke="#2B2B2B" stroke-width="0.5" stroke-linecap="round" stroke-linejoin="round"/>
<path d="M188.777 180.014L189.098 176.697H173.892L174.213 180.014H188.777Z" fill="#2B2B2B" stroke="#2B2B2B" stroke-width="0.5" stroke-linecap="round" stroke-linejoin="round"/>
<path d="M188.302 174.914C188.302 175.014 188.322 175.114 188.36 175.206C188.399 175.299 188.455 175.383 188.526 175.454C188.598 175.525 188.682 175.581 188.775 175.619C188.867 175.657 188.967 175.676 189.067 175.676H189.199L189.34 174.213C189.253 174.18 189.16 174.162 189.067 174.16C188.866 174.16 188.674 174.239 188.531 174.38C188.388 174.521 188.306 174.713 188.302 174.914V174.914Z" fill="#2B2B2B" stroke="#2B2B2B" stroke-width="0.5" stroke-linecap="round" stroke-linejoin="round"/>
<path d="M179.901 174.914C179.901 175.065 179.946 175.213 180.03 175.339C180.114 175.465 180.234 175.564 180.374 175.622C180.513 175.68 180.667 175.695 180.816 175.665C180.964 175.636 181.1 175.563 181.207 175.455C181.314 175.348 181.387 175.212 181.416 175.063C181.446 174.914 181.431 174.76 181.373 174.62C181.315 174.48 181.217 174.361 181.091 174.276C180.965 174.192 180.818 174.147 180.666 174.147C180.566 174.147 180.466 174.166 180.373 174.204C180.28 174.243 180.195 174.299 180.124 174.37C180.053 174.442 179.997 174.526 179.958 174.62C179.92 174.713 179.901 174.813 179.901 174.914V174.914Z" fill="#2B2B2B" stroke="#2B2B2B" stroke-width="0.5" stroke-linecap="round" stroke-linejoin="round"/>
<path d="M174.301 174.914C174.301 175.065 174.346 175.213 174.43 175.339C174.514 175.465 174.633 175.564 174.773 175.622C174.913 175.68 175.067 175.695 175.215 175.665C175.363 175.636 175.5 175.563 175.607 175.455C175.714 175.348 175.786 175.212 175.816 175.063C175.846 174.914 175.83 174.76 175.772 174.62C175.715 174.48 175.617 174.361 175.491 174.276C175.365 174.192 175.217 174.147 175.066 174.147C174.965 174.147 174.865 174.166 174.772 174.204C174.679 174.243 174.595 174.299 174.524 174.37C174.453 174.442 174.396 174.526 174.358 174.62C174.32 174.713 174.3 174.813 174.301 174.914V174.914Z" fill="#2B2B2B" stroke="#2B2B2B" stroke-width="0.5" stroke-linecap="round" stroke-linejoin="round"/>
<path d="M177.101 174.914C177.101 175.065 177.146 175.213 177.23 175.339C177.314 175.465 177.434 175.564 177.573 175.622C177.713 175.68 177.867 175.695 178.015 175.665C178.164 175.636 178.3 175.563 178.407 175.455C178.514 175.348 178.587 175.212 178.616 175.063C178.646 174.914 178.631 174.76 178.573 174.62C178.515 174.48 178.417 174.361 178.291 174.276C178.165 174.192 178.017 174.147 177.866 174.147C177.766 174.147 177.666 174.166 177.573 174.204C177.48 174.243 177.395 174.299 177.324 174.37C177.253 174.442 177.197 174.526 177.158 174.62C177.12 174.713 177.101 174.813 177.101 174.914V174.914Z" fill="#2B2B2B" stroke="#2B2B2B" stroke-width="0.5" stroke-linecap="round" stroke-linejoin="round"/>
<path d="M65.4344 185C67.5445 182.393 71.3118 177.794 72.6086 176.587C73.8559 175.391 75.0303 174.12 76.1254 172.782C76.1254 172.782 73.8966 177.112 77.6948 180.525C81.4929 183.939 92.7642 181.313 95.2523 179.477C97.7404 177.64 98.0042 172.914 95.7798 165.955C93.5555 158.996 90.4035 146.134 90.5354 141.668C90.6673 137.202 87.7835 124.6 86.4735 121.187C85.1635 117.773 79.7917 115.28 74.2879 114.1C68.7841 112.92 53.9785 119.086 53.9785 119.086L50.9672 120.266C50.9672 120.266 38.6585 127.093 35.3747 129.851C32.0909 132.608 33.669 140.223 32.8866 147.575C32.1041 154.926 32.0997 163.462 32.0997 163.462C32.0997 163.462 24.499 170.157 18.9953 177.768C16.3577 181.432 14.8235 183.665 13.9531 185H65.4344Z" fill="#75CEA9" stroke="#2B2B2B" stroke-width="0.5" stroke-miterlimit="10"/>
<path d="M92.4564 170.778C92.4564 170.778 88.0604 169.743 83.4534 172.839C78.8465 175.935 80.1037 180.573 84.2227 181.604C88.3418 182.635 93.7444 182.635 96.5754 178.252C99.4065 173.87 94.5181 170.518 92.4564 170.778Z" fill="white" stroke="#2B2B2B" stroke-width="0.5" stroke-miterlimit="10"/>
<path d="M93.551 170.738C91.0867 170.346 88.5666 170.924 86.5174 172.35C82.9039 174.764 83.9062 178.389 87.1197 179.195C90.3331 180.001 94.5533 180.001 96.7645 176.579C98.9756 173.156 95.1555 170.54 93.551 170.738Z" fill="white" stroke="#2B2B2B" stroke-width="0.5" stroke-miterlimit="10"/>
<path d="M83.3788 141.377C83.524 138.981 83.6164 137.347 83.6164 137.202" stroke="#2B2B2B" stroke-width="0.5" stroke-miterlimit="10"/>
<path d="M76.1475 172.782C76.1475 172.782 80.8644 168.188 81.6469 162.933C82.1348 159.696 82.7679 150.873 83.1811 144.456" stroke="#2B2B2B" stroke-width="0.5" stroke-miterlimit="10"/>
<path d="M88.9527 150.274C87.7658 154.098 85.5678 159.837 82.1741 163.722" stroke="#2B2B2B" stroke-width="0.5" stroke-miterlimit="10"/>
<path d="M90.0347 146.262C90.0347 146.262 89.8499 147.143 89.4583 148.552" stroke="#2B2B2B" stroke-width="0.5" stroke-miterlimit="10"/>
<path d="M89.6211 161.233C87.3042 163.893 84.5672 166.153 81.5193 167.924" stroke="#2B2B2B" stroke-width="0.5" stroke-miterlimit="10"/>
<path d="M91.8674 158.339C91.3873 159.064 90.8663 159.761 90.3069 160.427" stroke="#2B2B2B" stroke-width="0.5" stroke-miterlimit="10"/>
<path d="M96.4569 169.5C92.0849 168.173 87.406 168.264 83.0887 169.76C75.7518 172.258 76.5387 177.9 77.1937 178.82" stroke="#2B2B2B" stroke-width="0.5" stroke-miterlimit="10"/>
<path d="M76.5694 78.0134C76.5694 78.0134 76.5694 76.4674 74.4461 73.1684C72.3228 69.8694 61.5131 71.2348 57.8469 74.9082C54.1806 78.5816 59.3899 83.224 57.0732 85.9196C54.7565 88.6152 47.0372 87.2718 44.5271 92.108C42.017 96.9442 48.3867 99.261 49.7407 101.001C51.0947 102.741 47.424 103.322 47.8109 105.062C48.1977 106.802 54.1762 106.995 54.1762 106.995C54.1762 106.995 50.3166 108.158 52.2464 109.704C54.9059 111.719 58.1817 112.745 61.5131 112.607C65.3728 112.413 64.4057 104.868 64.0232 99.261C63.6408 93.654 68.6522 87.4656 74.4461 88.0426C80.24 88.6196 86.412 95.2 85.4361 98.1026C84.4601 101.005 86.979 97.5212 92.1927 94.231C97.4063 90.9408 95.0896 84.1754 93.9511 82.8232C92.8125 81.471 88.9353 81.0834 88.1616 78.5684C87.3879 76.0534 85.6515 73.5428 82.3721 73.5428C79.0927 73.5428 79.8488 77.8196 76.5694 78.0134Z" fill="#2B2B2B" stroke="#2B2B2B" stroke-width="0.5" stroke-miterlimit="10"/>
<path d="M60.0406 112.783C60.0406 112.783 57.5525 113.439 56.5238 114.756C55.4952 116.073 51.2487 118.443 50.9893 120.266C50.7299 122.09 52.3081 131.56 55.4424 135.365C58.5767 139.171 60.1593 139.435 60.1593 139.435C60.1593 139.435 61.0781 135.762 61.7331 135.497C62.3881 135.233 68.415 139.021 68.415 139.021C68.415 139.021 69.4612 132.855 70.1206 132.855C70.78 132.855 72.8681 134.955 72.8681 134.955C72.8681 134.955 73.655 129.701 73.1318 125.631C72.6087 121.561 69.2018 116.575 66.7137 114.866C64.2256 113.157 62.2386 111.603 60.0406 112.783Z" fill="white" stroke="#2B2B2B" stroke-width="0.5" stroke-miterlimit="10"/>
<path d="M61.32 107.797L56.4844 119.399C56.4844 119.399 57.7284 124.803 59.3637 128.278C61.5925 133.004 67.1007 135.255 67.1007 135.255C67.0653 132.514 67.6594 129.801 68.8371 127.327C69.9372 125.092 71.2286 122.956 72.6967 120.945C72.6967 120.945 64.0235 112.439 61.32 107.797Z" fill="white" stroke="#2B2B2B" stroke-width="0.5" stroke-miterlimit="10"/>
<path d="M62.5682 112.197C62.5682 112.197 64.7882 124.913 67.9621 128.886L70.9733 123.16L63.0606 110.761L62.5682 112.197Z" fill="#2B2B2B" stroke="#2B2B2B" stroke-width="0.5" stroke-miterlimit="10"/>
<path d="M60.6825 149.94C60.6825 149.94 68.415 129.719 69.4745 128.538C70.5339 127.358 72.8813 125.257 73.932 123.812C74.9826 122.367 77.862 118.694 78.9126 118.694C79.9633 118.694 82.4294 119.61 83.6295 119.874C84.8296 120.139 85.5945 120.531 85.722 122.517C85.8495 124.504 84.1526 124.618 84.1526 124.618L83.4976 123.83C83.4976 123.83 78.7807 130.921 77.3433 131.837C76.4846 132.391 75.5601 132.835 74.5914 133.158L68.3007 156.661L60.6825 149.94Z" fill="white" stroke="#2B2B2B" stroke-width="0.5" stroke-miterlimit="10"/>
<path d="M87.9552 91.3063C87.9552 91.3063 89.7883 92.8391 88.5662 98.0364C87.3441 103.234 87.0408 105.837 87.0408 108.898C87.0408 111.959 86.1264 116.24 83.524 118.993C80.9216 121.746 77.7257 125.723 73.91 125.569C67.8655 125.327 64.9026 117.002 62.9201 113.179C60.9375 109.356 60.4803 104.154 60.4803 102.014C60.4803 99.8731 60.7836 94.8255 63.5311 91.0024C66.2786 87.1792 73.7605 85.6508 76.9652 86.1089C80.1699 86.567 84.1394 87.0251 87.9552 91.3063Z" fill="white" stroke="#2B2B2B" stroke-width="0.5" stroke-miterlimit="10"/>
<path d="M61.8517 105.075C61.8517 105.075 62.4627 102.934 65.2102 101.71C67.9577 100.485 69.6369 98.3449 68.727 96.354C67.817 94.3632 68.2874 92.3899 72.2438 91.3064C76.2001 90.2229 77.2815 94.2134 81.0973 93.6012C84.913 92.9889 85.9812 91.4606 87.9638 92.3767C89.9464 93.2929 89.032 95.9003 89.032 95.9003C89.032 95.9003 91.4762 91.465 86.7461 86.4173C82.016 81.3697 70.5645 79.533 62.6254 85.347C54.6862 91.1611 59.2668 104.771 59.2668 104.771C59.2668 104.771 59.7152 105.379 61.8517 105.075Z" fill="#2B2B2B" stroke="#2B2B2B" stroke-width="0.5" stroke-miterlimit="10"/>
<path d="M80.9347 107.674L80.4775 116.544L77.2684 115.32" stroke="#2B2B2B" stroke-width="0.5" stroke-miterlimit="10"/>
<path d="M78.5037 119.764C78.5037 119.764 75.4529 120.205 74.077 118.082" stroke="#2B2B2B" stroke-width="0.5" stroke-miterlimit="10"/>
<path d="M75.1231 107.581C74.9824 108.462 74.4945 109.105 74.0373 109.03C73.5802 108.955 73.3252 108.185 73.4659 107.308C73.6065 106.432 74.0945 105.784 74.5516 105.859C75.0088 105.934 75.2637 106.705 75.1231 107.581Z" fill="#2B2B2B"/>
<path d="M84.9043 107.828C84.7636 108.709 84.2757 109.352 83.8185 109.277C83.3614 109.202 83.102 108.431 83.2471 107.559C83.3922 106.687 83.8757 106.031 84.3328 106.106C84.79 106.181 85.045 106.951 84.9043 107.828Z" fill="#2B2B2B"/>
<path d="M71.2239 103.586C71.2239 103.586 74.5077 100.719 77.1541 102.948" stroke="#2B2B2B" stroke-width="0.5" stroke-miterlimit="10" stroke-linecap="round"/>
<path d="M82.768 102.948C82.768 102.948 84.9924 101.041 86.9002 102.842" stroke="#2B2B2B" stroke-width="0.5" stroke-miterlimit="10" stroke-linecap="round"/>
<path d="M79.273 105.498C79.273 105.498 74.6132 104.754 67.4038 105.938C67.4038 105.938 66.7708 110.819 70.1601 112.942C73.5494 115.065 76.8332 113.047 77.6772 111.88C79.3829 109.554 79.273 105.498 79.273 105.498Z" stroke="#2B2B2B" stroke-width="0.5" stroke-miterlimit="10"/>
<path d="M89.9683 104.828C89.9683 104.828 86.6362 104.119 81.4841 105.234C81.4841 105.234 81.0445 109.902 83.4535 111.928C85.8625 113.955 88.2275 112.03 88.8341 110.915C90.0298 108.709 89.9683 104.828 89.9683 104.828Z" stroke="#2B2B2B" stroke-width="0.5" stroke-miterlimit="10"/>
<path d="M79.2733 105.498C79.2733 105.498 79.7744 104.124 81.4714 105.234" stroke="#2B2B2B" stroke-width="0.5" stroke-miterlimit="10"/>
<path d="M60.313 103.053L67.4082 105.921" stroke="#2B2B2B" stroke-width="0.5" stroke-miterlimit="10"/>
<path d="M62.4627 105.837C62.4627 105.837 61.3945 99.5693 58.5064 102.626C55.6182 105.683 58.203 108.744 59.5746 110.114C60.9461 111.484 62.6518 110.114 62.6518 110.114" fill="white"/>
<path d="M62.4627 105.837C62.4627 105.837 61.3945 99.5693 58.5064 102.626C55.6182 105.683 58.203 108.744 59.5746 110.114C60.9461 111.484 62.6518 110.114 62.6518 110.114" stroke="#2B2B2B" stroke-width="0.5" stroke-miterlimit="10"/>
<path d="M51.0242 136.739C52.9052 140.236 54.1778 144.028 54.7871 147.953C55.7059 154.256 55.574 155.441 55.574 155.441L60.159 149.931C60.159 149.931 67.6322 155.181 68.8059 156.886C69.9796 158.59 70.1247 159.119 70.1247 159.119C70.1247 159.119 70.1247 169.359 65.7991 175.53C61.4734 181.701 59.3765 181.697 55.1872 181.697C50.9978 181.697 45.6215 177.755 42.7377 171.192C39.854 164.629 37.4933 155.058 36.9702 154.12C36.4471 153.182 34.7415 147.953 34.7415 147.953" fill="#75CEA9"/>
<path d="M51.0242 136.739C52.9052 140.236 54.1778 144.028 54.7871 147.953C55.7059 154.256 55.574 155.441 55.574 155.441L60.159 149.931C60.159 149.931 67.6322 155.181 68.8059 156.886C69.9796 158.59 70.1247 159.119 70.1247 159.119C70.1247 159.119 70.1247 169.359 65.7991 175.53C61.4734 181.701 59.3765 181.697 55.1872 181.697C50.9978 181.697 45.6215 177.755 42.7377 171.192C39.854 164.629 37.4933 155.058 36.9702 154.12C36.4471 153.182 34.7415 147.953 34.7415 147.953" stroke="#2B2B2B" stroke-width="0.5" stroke-miterlimit="10"/>
<path d="M49.3055 163.145C48.8264 163.708 48.4264 164.18 48.1055 164.51" stroke="#2B2B2B" stroke-width="0.5" stroke-miterlimit="10"/>
<path d="M55.5743 155.441C55.5743 155.441 53.1258 158.524 50.9278 161.189" stroke="#2B2B2B" stroke-width="0.5" stroke-miterlimit="10"/>
<path d="M56.2291 154.794C59.0789 155.618 61.8096 156.81 64.3528 158.339C68.8059 160.982 69.1884 163.854 70.5072 162.805C71.826 161.757 72.8634 158.471 71.5534 156.639C70.2434 154.807 66.1815 150.473 63.3022 149.151C60.4228 147.83 59.2403 148.623 58.3215 150.596C57.4028 152.569 55.3103 153.613 56.2291 154.794Z" fill="white" stroke="#2B2B2B" stroke-width="0.5" stroke-miterlimit="10"/>
<path d="M56.0839 165.541C56.1183 166.791 56.3075 168.032 56.6472 169.236" stroke="#2B2B2B" stroke-width="0.5" stroke-miterlimit="10"/>
<path d="M56.2293 154.794C56.2293 154.794 55.9168 159.198 55.9829 163.299" stroke="#2B2B2B" stroke-width="0.5" stroke-miterlimit="10"/>
<path d="M60.6825 157.027C60.6825 157.027 61.6013 162.149 62.6521 164.378" stroke="#2B2B2B" stroke-width="0.5" stroke-miterlimit="10"/>
<path d="M91.74 169.76C91.74 169.76 87.2825 177.64 87.9375 178.569C88.5925 179.499 103.139 178.569 103.139 178.569L103.921 175.42C103.921 175.42 106.937 176.6 109.298 176.6C111.658 176.6 109.821 175.944 109.034 175.156C108.247 174.367 103.662 171.482 103.266 171.218C102.871 170.954 95.2744 168.972 91.74 169.76Z" fill="white" stroke="#2B2B2B" stroke-width="0.5" stroke-miterlimit="10"/>
<path d="M101.231 168.853C101.231 168.853 103.336 168.219 103.899 169.558C104.462 170.897 104.181 176.605 103.969 178.067C103.758 179.529 102.778 179.472 102.356 178.067C101.934 176.662 100.949 169.064 100.949 169.064L101.231 168.853Z" fill="white" stroke="#2B2B2B" stroke-width="0.5" stroke-miterlimit="10"/>
<path d="M96.8083 169.487C96.8083 169.487 99.9691 167.307 100.883 168.43C101.798 169.553 102.642 178.42 102.919 179.054C103.196 179.688 101.723 180.177 101.16 179.543C100.598 178.909 98.9844 175.676 98.4964 174.482C98.0085 173.288 96.8083 169.487 96.8083 169.487Z" fill="white" stroke="#2B2B2B" stroke-width="0.5" stroke-miterlimit="10"/>
<path d="M90.5618 171.879C90.5618 171.879 92.3202 168.642 93.7929 167.73C95.2655 166.818 96.8701 168.501 97.6525 169.769C98.435 171.038 99.0549 174.341 99.4109 175.957C99.767 177.574 100.73 179.402 100.185 179.613C99.6395 179.825 97.4459 177.997 96.8129 177.015C96.1799 176.032 94.6369 172.231 94.6369 172.231" fill="white"/>
<path d="M90.5618 171.879C90.5618 171.879 92.3202 168.642 93.7929 167.73C95.2655 166.818 96.8701 168.501 97.6525 169.769C98.435 171.038 99.0549 174.341 99.4109 175.957C99.767 177.574 100.73 179.402 100.185 179.613C99.6395 179.825 97.4459 177.997 96.8129 177.015C96.1799 176.032 94.6369 172.231 94.6369 172.231" stroke="#2B2B2B" stroke-width="0.5" stroke-miterlimit="10"/>
<path d="M93.45 177.997C93.45 177.997 90.9223 175.535 90.0783 174.759C89.2343 173.984 88.043 173.636 87.2033 174.552C86.3637 175.469 85.9373 176.592 87.2033 177.785C88.4694 178.979 91.4762 180.547 93.45 180.547C95.4238 180.547 95.0633 179.56 94.571 179.001C94.2382 178.623 93.8619 178.286 93.45 177.997V177.997Z" fill="white" stroke="#2B2B2B" stroke-width="0.5" stroke-miterlimit="10"/>
<path d="M68.4327 184.956H160.55V182.318H68.4327V184.956Z" fill="#8A8A8A" stroke="#2B2B2B" stroke-width="0.5" stroke-linecap="round" stroke-linejoin="round"/>
<path d="M68.4329 184.956H100.77V182.318H68.4329V184.956Z" fill="#2B2B2B" stroke="#2B2B2B" stroke-width="0.5" stroke-linecap="round" stroke-linejoin="round"/>
<path d="M98.1625 182.309H157.974L161.429 142.452C161.477 142.014 161.431 141.571 161.294 141.152C161.158 140.733 160.934 140.349 160.637 140.023C160.341 139.698 159.979 139.439 159.575 139.265C159.171 139.091 158.735 139.005 158.295 139.012H105.346C104.412 139.03 103.517 139.39 102.83 140.024C102.144 140.657 101.712 141.521 101.618 142.452L98.1625 182.309Z" fill="#2B2B2B" stroke="#2B2B2B" stroke-width="0.5" stroke-linecap="round" stroke-linejoin="round"/>
<path d="M99.3099 182.309H159.122L162.577 142.452C162.624 142.014 162.578 141.571 162.442 141.152C162.305 140.733 162.081 140.349 161.785 140.023C161.488 139.698 161.126 139.439 160.722 139.265C160.318 139.091 159.882 139.005 159.442 139.012H106.493C105.559 139.03 104.665 139.39 103.978 140.024C103.291 140.657 102.86 141.521 102.765 142.452L99.3099 182.309Z" fill="#8A8A8A" stroke="#2B2B2B" stroke-width="0.5" stroke-linecap="round" stroke-linejoin="round"/>
<path d="M129.616 159.405C129.719 158.388 130.19 157.444 130.941 156.751C131.692 156.059 132.67 155.667 133.691 155.648C134.171 155.64 134.648 155.734 135.089 155.924C135.53 156.114 135.926 156.397 136.25 156.752C136.574 157.107 136.818 157.528 136.967 157.985C137.117 158.443 137.167 158.927 137.115 159.405C137.012 160.422 136.541 161.367 135.79 162.059C135.039 162.751 134.061 163.144 133.04 163.162C132.56 163.171 132.083 163.077 131.642 162.886C131.201 162.696 130.805 162.414 130.481 162.058C130.157 161.703 129.913 161.283 129.764 160.825C129.614 160.368 129.564 159.884 129.616 159.405Z" fill="#2B2B2B" stroke="#2B2B2B" stroke-width="0.5" stroke-linecap="round" stroke-linejoin="round"/>
<path d="M206 184.956H0" stroke="#2B2B2B" stroke-width="0.5" stroke-miterlimit="10"/>
</svg>
