<svg width="175" height="186" viewBox="0 0 175 186" fill="none" xmlns="http://www.w3.org/2000/svg">
<g opacity="0.3">
<path d="M172.889 39.6934H142.997V81.554H172.889V39.6934Z" stroke="#2B2B2B" stroke-width="0.5" stroke-miterlimit="10"/>
<path d="M171.872 41.1154H144.013V80.1282H171.872V41.1154Z" stroke="#2B2B2B" stroke-width="0.5" stroke-miterlimit="10"/>
<path d="M164.55 51.369H151.331V69.8781H164.55V51.369Z" stroke="#2B2B2B" stroke-width="0.5" stroke-miterlimit="10"/>
</g>
<g opacity="0.3">
<path d="M138.927 39.9583H122.79V62.5541H138.927V39.9583Z" stroke="#2B2B2B" stroke-width="0.5" stroke-miterlimit="10"/>
<path d="M138.377 40.7257H123.339V61.7827H138.377V40.7257Z" stroke="#2B2B2B" stroke-width="0.5" stroke-miterlimit="10"/>
<path d="M134.428 46.2617H127.293V56.2545H134.428V46.2617Z" stroke="#2B2B2B" stroke-width="0.5" stroke-miterlimit="10"/>
</g>
<path d="M143.355 166.261V136.076" stroke="#8A8A8A" stroke-width="0.5" stroke-miterlimit="10"/>
<path d="M139.6 166.873V125.183" stroke="#8A8A8A" stroke-width="0.5" stroke-miterlimit="10"/>
<path d="M148.114 167.075V152.435" stroke="#8A8A8A" stroke-width="0.5" stroke-miterlimit="10"/>
<path d="M138.14 129.294C138.14 129.294 137.388 127.914 134.876 124.899C132.364 121.884 121.941 113.718 121.941 113.718C121.941 113.718 127.846 116.858 129.731 118.49C131.616 120.123 134.128 122.133 134.128 122.133C134.128 122.133 127.094 114.474 126.339 113.971C125.583 113.469 133.493 119.998 133.493 119.998C133.493 119.998 130.483 113.971 128.975 111.961C127.468 109.951 124.594 105.178 124.594 105.178C124.594 105.178 132.773 116.087 133.135 116.733C133.497 117.38 135.145 120.127 135.145 120.127L132.255 112.588L135.76 118.744C135.76 118.744 130.736 108.318 130.487 107.816C130.237 107.313 133.992 112.713 133.992 112.713L130.728 102.919L138.264 118.366L137.762 112.339L139.141 118.619L139.53 103.168L140.41 118.49C140.41 118.49 141.789 108.696 142.042 106.686C142.296 104.676 142.432 102.541 142.432 102.541C142.432 102.541 142.179 115.853 142.179 116.231C142.179 116.609 141.929 119.624 141.929 119.624L144.313 112.464C144.815 110.956 145.318 105.806 145.571 105.061C145.824 104.317 144.313 116.617 144.188 117.139C143.967 117.958 143.672 118.756 143.308 119.523C142.919 120.279 146.073 115.004 147.203 112.74L150.447 106.187C150.447 106.187 148.562 112.467 148.06 113.589C147.557 114.711 144.294 120.75 144.294 120.75C144.294 120.75 149.193 114.972 151.327 113.465C153.462 111.957 157.353 109.066 157.353 109.066C157.353 109.066 151.078 115.853 149.82 117.096C148.562 118.338 144.921 122.749 144.921 122.749C144.921 122.749 151.199 118.728 151.577 118.35C151.955 117.972 156.476 115.085 156.476 115.085C156.476 115.085 147.359 122.289 146.93 122.749C143.289 126.644 142.035 128.526 141.279 129.278C141.084 129.502 140.844 129.683 140.574 129.807C140.304 129.931 140.01 129.996 139.713 129.997C139.416 129.999 139.122 129.937 138.85 129.815C138.579 129.694 138.337 129.516 138.14 129.294Z" fill="#75CEA9"/>
<path d="M142.475 140.307C141.793 139.205 141.021 138.163 140.165 137.19C138.389 135.059 131.016 129.286 131.016 129.286C131.016 129.286 135.191 131.506 136.523 132.66C137.855 133.813 139.639 135.239 139.639 135.239C139.639 135.239 134.666 129.82 134.132 129.461C133.598 129.103 139.195 133.727 139.195 133.727C139.195 133.727 137.065 129.461 135.998 128.039C134.93 126.617 132.882 123.243 132.882 123.243C132.882 123.243 138.654 130.973 138.923 131.425L140.344 133.824L138.299 128.491L140.788 132.847C140.788 132.847 137.236 125.472 137.057 125.117C136.878 124.763 139.546 128.581 139.546 128.581L137.236 121.65L142.564 132.578L142.21 128.316L143.187 132.757L143.452 121.829L144.068 132.679C144.068 132.679 145.041 125.748 145.236 124.33C145.431 122.912 145.501 121.397 145.501 121.397C145.501 121.397 145.326 130.813 145.326 131.082C145.326 131.351 145.146 133.482 145.146 133.482L146.837 128.417C147.191 127.35 147.546 123.707 147.725 123.173C147.904 122.639 146.837 131.354 146.747 131.701C146.591 132.282 146.382 132.848 146.124 133.392C145.859 133.926 148.071 130.194 148.878 128.592L151.187 123.972C151.187 123.972 149.855 128.417 149.501 129.216C149.146 130.014 146.837 134.28 146.837 134.28C146.837 134.28 150.299 130.194 151.81 129.126C153.322 128.059 156.071 126.009 156.071 126.009C156.071 126.009 151.631 130.805 150.743 131.693C149.855 132.582 147.281 135.694 147.281 135.694C147.281 135.694 151.721 132.85 151.986 132.578C152.251 132.305 155.452 130.271 155.452 130.271C155.452 130.271 149.002 135.363 148.699 135.691C146.124 138.445 145.236 139.777 144.702 140.311C144.563 140.47 144.392 140.597 144.2 140.683C144.007 140.77 143.799 140.815 143.588 140.815C143.377 140.814 143.168 140.769 142.976 140.681C142.784 140.594 142.613 140.466 142.475 140.307V140.307Z" fill="#75CEA9"/>
<path d="M146.997 152.992C146.316 151.89 145.543 150.847 144.687 149.875C142.911 147.74 135.538 141.967 135.538 141.967C135.538 141.967 139.713 144.187 141.045 145.344C142.377 146.501 144.161 147.919 144.161 147.919C144.161 147.919 139.188 142.5 138.654 142.146C138.12 141.791 143.717 146.408 143.717 146.408C143.717 146.408 141.587 142.146 140.52 140.724C139.452 139.302 137.404 135.924 137.404 135.924C137.404 135.924 143.176 143.654 143.444 144.105C143.713 144.557 144.862 146.505 144.862 146.505L142.821 141.176L145.306 145.535C145.306 145.535 141.754 138.16 141.579 137.806C141.404 137.451 144.068 141.25 144.068 141.25L141.758 134.319L147.09 145.247L146.732 140.981L147.709 145.422L147.962 134.51L148.582 145.352C148.582 145.352 149.559 138.421 149.75 136.999C149.941 135.577 150.015 134.066 150.015 134.066C150.015 134.066 149.84 143.486 149.84 143.751C149.84 144.016 149.661 146.151 149.661 146.151L151.347 141.086C151.701 140.019 152.06 136.376 152.235 135.842C152.41 135.309 151.347 144.024 151.257 144.374C151.102 144.954 150.895 145.519 150.638 146.061C150.369 146.595 152.586 142.863 153.392 141.265L155.701 136.645C155.701 136.645 154.369 141.086 154.011 141.885C153.653 142.683 151.347 146.949 151.347 146.949C151.347 146.949 154.813 142.863 156.321 141.795C157.828 140.728 160.605 138.679 160.605 138.679C160.605 138.679 156.141 143.486 155.257 144.366C154.373 145.247 151.791 148.364 151.791 148.364C151.791 148.364 156.235 145.52 156.5 145.247C156.765 144.974 159.962 142.937 159.962 142.937C159.962 142.937 153.516 148.032 153.213 148.356C150.638 151.11 149.75 152.443 149.217 152.976C149.079 153.135 148.909 153.263 148.718 153.351C148.528 153.439 148.32 153.486 148.11 153.487C147.9 153.489 147.692 153.445 147.5 153.36C147.308 153.274 147.136 153.149 146.997 152.992Z" fill="#75CEA9"/>
<path d="M151.557 184.984C152.28 182.332 152.643 179.595 152.636 176.846C152.636 176.328 152.636 175.814 152.601 175.307C152.544 174.024 152.407 172.745 152.192 171.478C152.114 171.014 152.025 170.558 151.927 170.11C151.846 169.74 151.756 169.374 151.663 169.015C151.255 167.435 150.666 165.907 149.91 164.461H136.878C136.128 165.909 135.546 167.437 135.141 169.015C135.044 169.374 134.958 169.74 134.876 170.11C134.775 170.558 134.689 171.014 134.607 171.478C134.399 172.745 134.269 174.024 134.218 175.307C134.191 175.814 134.183 176.328 134.183 176.846C134.168 179.594 134.524 182.332 135.242 184.984H151.557Z" fill="white" stroke="#2B2B2B" stroke-width="0.5" stroke-miterlimit="10"/>
<path d="M151.643 169.015H135.141C135.043 169.374 134.958 169.74 134.876 170.11H151.908C151.826 169.74 151.736 169.374 151.643 169.015ZM152.173 171.478H134.607C134.399 172.745 134.269 174.024 134.218 175.307H152.597C152.534 174.023 152.393 172.744 152.173 171.478V171.478Z" fill="#2B2B2B" stroke="#2B2B2B" stroke-width="0.5" stroke-miterlimit="10"/>
<path d="M4.86087 4.89574H112.836V117.953H2.64085V7.11247C2.64085 6.52352 2.87475 5.9587 3.29108 5.54225C3.70742 5.1258 4.27209 4.89185 4.86087 4.89185V4.89574Z" fill="#2B2B2B" stroke="#2B2B2B" stroke-width="0.5" stroke-miterlimit="10"/>
<path d="M8.20269 1H115.527C116.095 1 116.64 1.22575 117.042 1.62758C117.443 2.02942 117.669 2.57443 117.669 3.14271V114.61H6.06056V3.14271C6.06056 2.57443 6.28625 2.02942 6.68798 1.62758C7.0897 1.22575 7.63456 1 8.20269 1V1Z" fill="white" stroke="#2B2B2B" stroke-width="0.5" stroke-miterlimit="10"/>
<path d="M8.20269 1H32.8137C33.3819 1 33.9267 1.22575 34.3285 1.62758C34.7302 2.02942 34.9559 2.57443 34.9559 3.14271V114.61H6.06056V3.14271C6.06056 2.57443 6.28625 2.02942 6.68798 1.62758C7.0897 1.22575 7.63456 1 8.20269 1V1Z" fill="#8A8A8A"/>
<path d="M8.20269 1H115.527C116.095 1 116.64 1.22575 117.042 1.62758C117.443 2.02942 117.669 2.57443 117.669 3.14271V13.3303H6.06056V3.14271C6.06056 2.57443 6.28625 2.02942 6.68798 1.62758C7.0897 1.22575 7.63456 1 8.20269 1V1Z" fill="#75CEA9" stroke="#2B2B2B" stroke-width="0.5" stroke-miterlimit="10"/>
<path d="M8.20269 1H115.527C116.095 1 116.64 1.22575 117.042 1.62758C117.443 2.02942 117.669 2.57443 117.669 3.14271V8.95528H6.06056V3.14271C6.06056 2.57443 6.28625 2.02942 6.68798 1.62758C7.0897 1.22575 7.63456 1 8.20269 1V1Z" fill="#2B2B2B" stroke="#2B2B2B" stroke-width="0.5" stroke-miterlimit="10"/>
<path d="M102.667 5.21921C102.667 4.88326 102.567 4.55486 102.38 4.27553C102.194 3.9962 101.929 3.77849 101.618 3.64993C101.308 3.52137 100.966 3.48773 100.637 3.55327C100.308 3.61881 100.005 3.78058 99.7676 4.01813C99.5301 4.25568 99.3683 4.55834 99.3028 4.88784C99.2373 5.21733 99.2709 5.55886 99.3994 5.86923C99.528 6.17961 99.7456 6.44489 100.025 6.63153C100.304 6.81817 100.633 6.91779 100.968 6.91779C101.418 6.91677 101.85 6.73748 102.168 6.41915C102.486 6.10083 102.666 5.66939 102.667 5.21921V5.21921Z" fill="white" stroke="#2B2B2B" stroke-width="0.5" stroke-miterlimit="10"/>
<path d="M109.179 5.21921C109.179 4.88326 109.079 4.55486 108.892 4.27553C108.706 3.9962 108.44 3.77849 108.13 3.64993C107.82 3.52137 107.478 3.48773 107.149 3.55327C106.82 3.61881 106.517 3.78058 106.279 4.01813C106.042 4.25568 105.88 4.55834 105.815 4.88784C105.749 5.21733 105.783 5.55886 105.911 5.86923C106.04 6.17961 106.258 6.44489 106.537 6.63153C106.816 6.81817 107.144 6.91779 107.48 6.91779C107.93 6.91677 108.362 6.73748 108.68 6.41915C108.998 6.10083 109.178 5.66939 109.179 5.21921V5.21921Z" fill="white" stroke="#2B2B2B" stroke-width="0.5" stroke-miterlimit="10"/>
<path d="M115.695 5.21907C115.695 4.88219 115.596 4.55265 115.41 4.27216C115.223 3.99168 114.957 3.77286 114.646 3.64341C114.336 3.51396 113.993 3.47969 113.663 3.54494C113.332 3.61018 113.029 3.77202 112.79 4.00996C112.552 4.2479 112.389 4.55125 112.323 4.8816C112.257 5.21195 112.291 5.55447 112.419 5.86578C112.548 6.17709 112.766 6.44322 113.046 6.63046C113.326 6.8177 113.656 6.91765 113.992 6.91765C114.443 6.91765 114.876 6.73882 115.195 6.42038C115.514 6.10195 115.693 5.66992 115.695 5.21907V5.21907Z" fill="white" stroke="#2B2B2B" stroke-width="0.5" stroke-miterlimit="10"/>
<path d="M43.4386 13.0654V10.4124" stroke="#2B2B2B" stroke-width="0.5" stroke-miterlimit="10"/>
<path d="M59.8745 13.0654V10.4124" stroke="#2B2B2B" stroke-width="0.5" stroke-miterlimit="10"/>
<path d="M76.3143 13.0654V10.4124" stroke="#2B2B2B" stroke-width="0.5" stroke-miterlimit="10"/>
<path d="M92.7501 13.0654V10.4124" stroke="#2B2B2B" stroke-width="0.5" stroke-miterlimit="10"/>
<path d="M109.186 13.0654V10.4124" stroke="#2B2B2B" stroke-width="0.5" stroke-miterlimit="10"/>
<path d="M111.309 23.5958H40.7901V93.6039H111.309V23.5958Z" fill="white" stroke="#2B2B2B" stroke-width="0.5" stroke-miterlimit="10"/>
<path d="M80.2754 41.2206H89.7709" stroke="#2B2B2B" stroke-width="0.5" stroke-miterlimit="10"/>
<path d="M80.2754 48.2019H89.7709" stroke="#2B2B2B" stroke-width="0.5" stroke-miterlimit="10"/>
<path d="M80.2754 55.1793H89.7709" stroke="#2B2B2B" stroke-width="0.5" stroke-miterlimit="10"/>
<path d="M62.0555 70.5443H66.6864" stroke="#2B2B2B" stroke-width="0.5" stroke-miterlimit="10"/>
<path d="M51.2398 70.5443H61.0001" stroke="#2B2B2B" stroke-width="0.5" stroke-miterlimit="10"/>
<path d="M46.6207 70.5443H49.9198" stroke="#2B2B2B" stroke-width="0.5" stroke-miterlimit="10"/>
<path d="M54.5386 72.691H66.6864" stroke="#2B2B2B" stroke-width="0.5" stroke-miterlimit="10"/>
<path d="M46.6207 72.691H53.4833" stroke="#2B2B2B" stroke-width="0.5" stroke-miterlimit="10"/>
<path d="M61.6625 74.8337H66.6867" stroke="#2B2B2B" stroke-width="0.5" stroke-miterlimit="10"/>
<path d="M52.2955 74.8337H60.3421" stroke="#2B2B2B" stroke-width="0.5" stroke-miterlimit="10"/>
<path d="M46.6207 74.8337H51.1075" stroke="#2B2B2B" stroke-width="0.5" stroke-miterlimit="10"/>
<path d="M46.6207 76.9764H66.6866" stroke="#2B2B2B" stroke-width="0.5" stroke-miterlimit="10"/>
<path d="M54.9322 79.1191H66.6866" stroke="#2B2B2B" stroke-width="0.5" stroke-miterlimit="10"/>
<path d="M46.6207 79.1191H53.4833" stroke="#2B2B2B" stroke-width="0.5" stroke-miterlimit="10"/>
<path d="M63.2434 81.2657H66.6866" stroke="#2B2B2B" stroke-width="0.5" stroke-miterlimit="10"/>
<path d="M46.6207 81.2657H62.1881" stroke="#2B2B2B" stroke-width="0.5" stroke-miterlimit="10"/>
<path d="M63.7731 83.4083H66.6866" stroke="#2B2B2B" stroke-width="0.5" stroke-miterlimit="10"/>
<path d="M51.8983 83.4083H62.9828" stroke="#2B2B2B" stroke-width="0.5" stroke-miterlimit="10"/>
<path d="M46.6207 83.4083H51.1075" stroke="#2B2B2B" stroke-width="0.5" stroke-miterlimit="10"/>
<path d="M64.2991 85.5511H66.6867" stroke="#2B2B2B" stroke-width="0.5" stroke-miterlimit="10"/>
<path d="M56.3849 85.5511H62.8502" stroke="#2B2B2B" stroke-width="0.5" stroke-miterlimit="10"/>
<path d="M46.6207 85.5511H55.4619" stroke="#2B2B2B" stroke-width="0.5" stroke-miterlimit="10"/>
<path d="M103.909 39.296H107.395" stroke="#2B2B2B" stroke-width="0.5" stroke-miterlimit="10"/>
<path d="M95.7612 39.296H103.114" stroke="#2B2B2B" stroke-width="0.5" stroke-miterlimit="10"/>
<path d="M92.2829 39.296H94.7679" stroke="#2B2B2B" stroke-width="0.5" stroke-miterlimit="10"/>
<path d="M98.2457 41.8204H107.395" stroke="#2B2B2B" stroke-width="0.5" stroke-miterlimit="10"/>
<path d="M92.2829 41.8204H97.4513" stroke="#2B2B2B" stroke-width="0.5" stroke-miterlimit="10"/>
<path d="M103.609 44.3448H107.395" stroke="#2B2B2B" stroke-width="0.5" stroke-miterlimit="10"/>
<path d="M96.5554 44.3448H102.616" stroke="#2B2B2B" stroke-width="0.5" stroke-miterlimit="10"/>
<path d="M92.2829 44.3448H95.6599" stroke="#2B2B2B" stroke-width="0.5" stroke-miterlimit="10"/>
<path d="M92.2829 46.8695H107.395" stroke="#2B2B2B" stroke-width="0.5" stroke-miterlimit="10"/>
<path d="M98.5418 49.3901H107.395" stroke="#2B2B2B" stroke-width="0.5" stroke-miterlimit="10"/>
<path d="M92.2829 49.3901H97.4513" stroke="#2B2B2B" stroke-width="0.5" stroke-miterlimit="10"/>
<path d="M104.801 51.9146H107.395" stroke="#2B2B2B" stroke-width="0.5" stroke-miterlimit="10"/>
<path d="M92.2829 51.9146H104.006" stroke="#2B2B2B" stroke-width="0.5" stroke-miterlimit="10"/>
<path d="M105.198 54.4391H107.394" stroke="#2B2B2B" stroke-width="0.5" stroke-miterlimit="10"/>
<path d="M96.2557 54.4391H104.602" stroke="#2B2B2B" stroke-width="0.5" stroke-miterlimit="10"/>
<path d="M92.2829 54.4391H95.6599" stroke="#2B2B2B" stroke-width="0.5" stroke-miterlimit="10"/>
<path d="M105.599 56.9635H107.394" stroke="#2B2B2B" stroke-width="0.5" stroke-miterlimit="10"/>
<path d="M99.6364 56.9635H104.505" stroke="#2B2B2B" stroke-width="0.5" stroke-miterlimit="10"/>
<path d="M92.2829 56.9635H98.9391" stroke="#2B2B2B" stroke-width="0.5" stroke-miterlimit="10"/>
<path d="M56.8249 59.5854C54.9629 59.585 53.1314 59.1132 51.5007 58.2141L52.9496 55.5922C54.494 56.4458 56.2771 56.7651 58.0216 56.5003C59.7661 56.2355 61.3743 55.4014 62.5959 54.1279C63.8176 52.8544 64.5842 51.2127 64.7767 49.4583C64.9692 47.7039 64.5767 45.935 63.6602 44.4267L66.2152 42.8684C67.2301 44.5358 67.7829 46.4434 67.817 48.3953C67.8511 50.3471 67.3653 52.2729 66.4093 53.9748C65.4533 55.6767 64.0616 57.0934 62.3773 58.0794C60.6929 59.0654 58.7765 59.5852 56.8249 59.5854V59.5854Z" fill="#75CEA9" stroke="#2B2B2B" stroke-width="0.5" stroke-miterlimit="10"/>
<path d="M51.4969 58.2142C49.5288 57.1258 47.9416 55.4601 46.9491 53.4415C45.9567 51.423 45.6066 49.1487 45.9461 46.925C46.2857 44.7014 47.2985 42.6353 48.8481 41.0051C50.3976 39.3749 52.4096 38.2591 54.6127 37.8079L55.2047 40.7453C53.6017 41.0732 52.1378 41.8846 51.0099 43.0701C49.8821 44.2557 49.1446 45.7586 48.8968 47.3763C48.649 48.9939 48.9027 50.6487 49.6239 52.1177C50.345 53.5867 51.4989 54.7994 52.9301 55.5923L51.4969 58.2142Z" fill="#2B2B2B" stroke="#2B2B2B" stroke-width="0.5" stroke-miterlimit="10"/>
<path d="M63.6563 44.4268C62.9458 43.2513 61.9433 42.2798 60.7462 41.6066C59.5491 40.9335 58.1982 40.5817 56.8249 40.5856C56.2874 40.5856 55.7511 40.6391 55.2242 40.7453L54.6321 37.8078C55.3541 37.6628 56.0886 37.5897 56.8249 37.5897C58.7127 37.583 60.57 38.0658 62.2157 38.991C63.8614 39.9161 65.2393 41.2521 66.2152 42.8685L63.6563 44.4268Z" fill="#8A8A8A" stroke="#2B2B2B" stroke-width="0.5" stroke-miterlimit="10"/>
<path d="M78.3359 39.4753H75.0407V42.7712H78.3359V39.4753Z" fill="#75CEA9" stroke="#2B2B2B" stroke-width="0.5" stroke-miterlimit="10"/>
<path d="M78.3359 46.5538H75.0407V49.8497H78.3359V46.5538Z" fill="#2B2B2B" stroke="#2B2B2B" stroke-width="0.5" stroke-miterlimit="10"/>
<path d="M78.3359 53.6287H75.0407V56.9245H78.3359V53.6287Z" fill="#8A8A8A" stroke="#2B2B2B" stroke-width="0.5" stroke-miterlimit="10"/>
<path d="M78.963 73.0807H74.0906V86.1356H78.963V73.0807Z" fill="#2B2B2B"/>
<path d="M85.3932 67.233H80.5208V86.1356H85.3932V67.233Z" fill="#75CEA9" stroke="#2B2B2B" stroke-width="0.5" stroke-miterlimit="10"/>
<path d="M91.8234 76.0024H86.951V86.1355H91.8234V76.0024Z" fill="#2B2B2B"/>
<path d="M98.2496 69.9601H93.3773V86.1356H98.2496V69.9601Z" fill="#75CEA9" stroke="#2B2B2B" stroke-width="0.5" stroke-miterlimit="10"/>
<path d="M104.68 64.7006H99.8077V86.1354H104.68V64.7006Z" fill="#2B2B2B"/>
<path d="M90.8926 28.637H65.9739V31.0251H90.8926V28.637Z" fill="#2B2B2B"/>
<path d="M31.7778 20.6155H9.24268V44.7462H31.7778V20.6155Z" fill="white" stroke="#2B2B2B" stroke-width="0.5" stroke-miterlimit="10"/>
<path d="M20.5063 36.7793C19.4492 36.7794 18.4094 36.5113 17.484 36.0001L18.3097 34.5041C19.186 34.9858 20.1968 35.165 21.1853 35.0139C22.1738 34.8627 23.0848 34.3898 23.7774 33.6682C24.4699 32.9467 24.9052 32.0168 25.0158 31.0227C25.1265 30.0286 24.9063 29.0258 24.3894 28.1695L25.8422 27.2852C26.4229 28.2316 26.7404 29.3161 26.7617 30.4264C26.783 31.5367 26.5074 32.6326 25.9634 33.6006C25.4193 34.5686 24.6266 35.3737 23.6672 35.9326C22.7078 36.4914 21.6165 36.7837 20.5063 36.7793Z" fill="#75CEA9"/>
<path d="M17.4876 35.9962C16.3636 35.3823 15.456 34.4368 14.8883 33.2885C14.3206 32.1402 14.1203 30.8448 14.3149 29.5787C14.5094 28.3125 15.0892 27.137 15.9754 26.2122C16.8616 25.2873 18.0111 24.6581 19.2676 24.41L19.6025 26.0775C18.6935 26.2645 17.8635 26.7254 17.2241 27.3981C16.5847 28.0709 16.1665 28.9234 16.0257 29.8409C15.8849 30.7584 16.0282 31.6971 16.4365 32.5307C16.8448 33.3644 17.4984 34.053 18.3094 34.5041L17.4876 35.9962Z" fill="#2B2B2B"/>
<path d="M24.3892 28.1696C23.9851 27.4992 23.4135 26.9455 22.7306 26.563C22.0477 26.1805 21.2771 25.9823 20.4945 25.9879C20.1898 25.9884 19.8859 26.0184 19.587 26.0775L19.252 24.4101C19.661 24.3276 20.0772 24.2858 20.4945 24.2854C21.5672 24.2817 22.6225 24.5561 23.5577 25.0819C24.4928 25.6076 25.2758 26.3667 25.8303 27.2852L24.3892 28.1696Z" fill="#8A8A8A"/>
<path d="M24.5763 38.9491H28.0623" stroke="#2B2B2B" stroke-width="0.5" stroke-miterlimit="10"/>
<path d="M16.4285 38.9491H23.7819" stroke="#2B2B2B" stroke-width="0.5" stroke-miterlimit="10"/>
<path d="M12.9505 38.9491H15.4356" stroke="#2B2B2B" stroke-width="0.5" stroke-miterlimit="10"/>
<path d="M18.9131 40.1375H28.0619" stroke="#2B2B2B" stroke-width="0.5" stroke-miterlimit="10"/>
<path d="M12.9505 40.1375H18.1189" stroke="#2B2B2B" stroke-width="0.5" stroke-miterlimit="10"/>
<path d="M24.2802 41.3297H28.0622" stroke="#2B2B2B" stroke-width="0.5" stroke-miterlimit="10"/>
<path d="M17.2231 41.3297H23.2872" stroke="#2B2B2B" stroke-width="0.5" stroke-miterlimit="10"/>
<path d="M12.9505 41.3297H16.3314" stroke="#2B2B2B" stroke-width="0.5" stroke-miterlimit="10"/>
<path d="M31.7778 53.2976H9.24268V77.4284H31.7778V53.2976Z" fill="white" stroke="#2B2B2B" stroke-width="0.5" stroke-miterlimit="10"/>
<path d="M25.0125 55.9545H29.2229" stroke="#2B2B2B" stroke-width="0.5" stroke-miterlimit="10"/>
<path d="M15.1703 55.9545H19.6492" stroke="#2B2B2B" stroke-width="0.5" stroke-miterlimit="10"/>
<path d="M10.9718 55.9545H13.971" stroke="#2B2B2B" stroke-width="0.5" stroke-miterlimit="10"/>
<path d="M18.1732 58.4789H19.5787" stroke="#2B2B2B" stroke-width="0.5" stroke-miterlimit="10"/>
<path d="M10.9718 58.4789H17.2113" stroke="#2B2B2B" stroke-width="0.5" stroke-miterlimit="10"/>
<path d="M16.1324 61.0035H19.5795" stroke="#2B2B2B" stroke-width="0.5" stroke-miterlimit="10"/>
<path d="M10.9718 61.0035H15.0499" stroke="#2B2B2B" stroke-width="0.5" stroke-miterlimit="10"/>
<path d="M10.9718 63.5281H19.5793" stroke="#2B2B2B" stroke-width="0.5" stroke-miterlimit="10"/>
<path d="M18.5316 66.0525H29.2227" stroke="#2B2B2B" stroke-width="0.5" stroke-miterlimit="10"/>
<path d="M10.9718 66.0525H17.2113" stroke="#2B2B2B" stroke-width="0.5" stroke-miterlimit="10"/>
<path d="M26.0913 68.5771H29.2229" stroke="#2B2B2B" stroke-width="0.5" stroke-miterlimit="10"/>
<path d="M10.9718 68.5771H25.1332" stroke="#2B2B2B" stroke-width="0.5" stroke-miterlimit="10"/>
<path d="M26.5745 71.0977H29.2231" stroke="#2B2B2B" stroke-width="0.5" stroke-miterlimit="10"/>
<path d="M15.7701 71.0977H25.8536" stroke="#2B2B2B" stroke-width="0.5" stroke-miterlimit="10"/>
<path d="M10.9718 71.0977H15.0499" stroke="#2B2B2B" stroke-width="0.5" stroke-miterlimit="10"/>
<path d="M27.0532 73.6221H29.2218" stroke="#2B2B2B" stroke-width="0.5" stroke-miterlimit="10"/>
<path d="M19.8519 73.6221H25.733" stroke="#2B2B2B" stroke-width="0.5" stroke-miterlimit="10"/>
<path d="M10.9718 73.6221H19.0106" stroke="#2B2B2B" stroke-width="0.5" stroke-miterlimit="10"/>
<path d="M29.2267 55.9739H20.3934V64.8096H29.2267V55.9739Z" stroke="#2B2B2B" stroke-width="0.5" stroke-miterlimit="10"/>
<path d="M20.3934 64.8057L23.774 61.0463L25.4644 62.1761L27.9103 59.3555L29.0359 59.9204" stroke="#2B2B2B" stroke-width="0.5" stroke-miterlimit="10"/>
<path d="M23.0223 59.7334C23.7494 59.7334 24.3388 59.1439 24.3388 58.4166C24.3388 57.6894 23.7494 57.0999 23.0223 57.0999C22.2952 57.0999 21.7058 57.6894 21.7058 58.4166C21.7058 59.1439 22.2952 59.7334 23.0223 59.7334Z" stroke="#2B2B2B" stroke-width="0.5" stroke-miterlimit="10"/>
<path d="M31.7778 84.3903H9.24268V108.521H31.7778V84.3903Z" fill="white" stroke="#2B2B2B" stroke-width="0.5" stroke-miterlimit="10"/>
<path d="M19.0886 98.2048H27.9414" stroke="#2B2B2B" stroke-width="0.5" stroke-miterlimit="10"/>
<path d="M12.8297 98.2048H17.9941" stroke="#2B2B2B" stroke-width="0.5" stroke-miterlimit="10"/>
<path d="M25.3475 100.729H27.9415" stroke="#2B2B2B" stroke-width="0.5" stroke-miterlimit="10"/>
<path d="M12.8297 100.729H24.5529" stroke="#2B2B2B" stroke-width="0.5" stroke-miterlimit="10"/>
<path d="M25.7448 103.254H27.9406" stroke="#2B2B2B" stroke-width="0.5" stroke-miterlimit="10"/>
<path d="M16.8024 103.254H25.1489" stroke="#2B2B2B" stroke-width="0.5" stroke-miterlimit="10"/>
<path d="M12.8297 103.254H16.2066" stroke="#2B2B2B" stroke-width="0.5" stroke-miterlimit="10"/>
<path d="M26.142 105.778H27.9407" stroke="#2B2B2B" stroke-width="0.5" stroke-miterlimit="10"/>
<path d="M20.1829 105.778H25.0514" stroke="#2B2B2B" stroke-width="0.5" stroke-miterlimit="10"/>
<path d="M12.8297 105.778H19.4858" stroke="#2B2B2B" stroke-width="0.5" stroke-miterlimit="10"/>
<path d="M15.3303 90.8612H12.9427V96.6426H15.3303V90.8612Z" fill="#2B2B2B"/>
<path d="M18.4812 88.2743H16.0935V96.6425H18.4812V88.2743Z" fill="#75CEA9" stroke="#2B2B2B" stroke-width="0.5" stroke-miterlimit="10"/>
<path d="M21.632 92.1584H19.2444V96.6464H21.632V92.1584Z" fill="#2B2B2B"/>
<path d="M24.7787 89.4821H22.3911V96.6426H24.7787V89.4821Z" fill="#75CEA9" stroke="#2B2B2B" stroke-width="0.5" stroke-miterlimit="10"/>
<path d="M27.9298 87.1523H25.5422V96.6426H27.9298V87.1523Z" fill="#2B2B2B"/>
<path d="M91.4571 184.984V139.73C91.4617 139.34 91.3894 138.953 91.2443 138.591C91.0991 138.229 90.884 137.899 90.6113 137.62C90.3385 137.341 90.0135 137.118 89.6547 136.965C89.2959 136.812 88.9105 136.731 88.5204 136.727H38.0987C37.3112 136.736 36.5596 137.058 36.009 137.621C35.4584 138.184 35.1537 138.943 35.1621 139.73V184.984H91.4571Z" fill="#F2F2F2" stroke="#2B2B2B" stroke-width="0.5" stroke-miterlimit="10"/>
<path d="M97.0733 184.984V139.73C97.0816 138.943 96.777 138.184 96.2264 137.621C95.6758 137.058 94.9241 136.736 94.1367 136.727H43.715C43.3249 136.731 42.9394 136.812 42.5807 136.965C42.2219 137.118 41.8968 137.341 41.6241 137.62C41.3513 137.899 41.1363 138.229 40.9911 138.591C40.846 138.953 40.7737 139.34 40.7783 139.73V184.984H97.0733Z" fill="#F2F2F2" stroke="#2B2B2B" stroke-width="0.5" stroke-miterlimit="10"/>
<path d="M125.26 184.984V163.067C125.266 162.461 125.032 161.877 124.608 161.444C124.185 161.011 123.606 160.763 123.001 160.756H94.5144C93.9104 160.766 93.3348 161.014 92.9135 161.447C92.4923 161.88 92.2599 162.462 92.2671 163.067V185L125.26 184.984Z" fill="#F2F2F2" stroke="#2B2B2B" stroke-width="0.5" stroke-miterlimit="10"/>
<path d="M125.26 184.984V163.125C125.284 162.519 125.067 161.928 124.657 161.481C124.247 161.034 123.677 160.768 123.071 160.741H111.55C110.944 160.768 110.374 161.034 109.964 161.481C109.554 161.928 109.337 162.519 109.361 163.125V184.984H125.26Z" fill="#F2F2F2" stroke="#2B2B2B" stroke-width="0.5" stroke-miterlimit="10"/>
<path d="M119.741 184.984C114.678 181.747 102.627 173.905 100.146 171.01C96.9875 167.325 96.3293 166.14 93.8289 166.273C91.3284 166.405 65.7865 169.958 65.7865 169.958C64.7182 171.348 63.9959 172.971 63.6795 174.696C63.3523 176.889 66.0163 182.994 66.9355 184.984H119.741Z" fill="#2B2B2B" stroke="#2B2B2B" stroke-width="0.5" stroke-miterlimit="10"/>
<path d="M75.9325 117.037C76.322 117.061 83.8272 117.816 86.8378 119.145C89.8485 120.473 96.3138 122.172 98.4209 123.095C100.528 124.019 101.708 125.067 101.973 127.833C102.238 130.599 104.738 140.864 105.132 142.574C105.525 144.285 106.183 151.535 105.396 153.767C104.61 155.999 95.27 156.268 95.27 156.268C95.27 156.268 95.1376 159.821 95.6595 161.796C96.1814 163.772 97.5017 166.931 93.1591 167.718C88.8164 168.505 66.4448 173.25 64.8636 172.194C63.2823 171.139 63.9444 162.981 63.9444 161.006C63.9444 159.03 61.9697 154.951 61.9697 154.951C60.0791 155.409 58.2303 156.026 56.4431 156.794C54.2036 157.846 51.3098 157.32 47.6253 156.136C43.9408 154.951 43.6877 151.527 42.6361 149.431C41.5845 147.335 46.1881 144.296 47.1073 142.715C48.0265 141.133 54.3477 126.656 54.6125 125.074C54.8774 123.493 58.4255 123.103 63.181 121.654C63.1654 121.646 73.432 116.905 75.9325 117.037Z" fill="#75CEA9" stroke="#2B2B2B" stroke-width="0.5" stroke-miterlimit="10"/>
<path d="M70.6786 167.714C74.1099 163.951 82.4798 155.197 88.5439 152.357" stroke="#2B2B2B" stroke-width="0.5" stroke-miterlimit="10"/>
<path d="M69.1166 169.463C69.1166 169.463 69.4515 169.074 70.051 168.412" stroke="#2B2B2B" stroke-width="0.5" stroke-miterlimit="10"/>
<path d="M76.3726 159.603C76.723 159.338 77.0734 159.077 77.4199 158.824" stroke="#2B2B2B" stroke-width="0.5" stroke-miterlimit="10"/>
<path d="M69.7827 165.478C69.7827 165.478 72.0884 163.14 74.7953 160.865" stroke="#2B2B2B" stroke-width="0.5" stroke-miterlimit="10"/>
<path d="M57.144 134.826C58.3125 139.224 59.96 145.173 60.5987 146.747C61.6503 149.326 62.3202 153.72 62.3202 153.72" fill="white"/>
<path d="M57.144 134.826C58.3125 139.224 59.96 145.173 60.5987 146.747C61.6503 149.326 62.3202 153.72 62.3202 153.72" stroke="#2B2B2B" stroke-width="0.5" stroke-miterlimit="10"/>
<path d="M55.8277 129.843C55.8277 129.843 56.217 131.304 56.7582 133.38Z" fill="white"/>
<path d="M55.8277 129.843C55.8277 129.843 56.217 131.304 56.7582 133.38" stroke="#2B2B2B" stroke-width="0.5" stroke-miterlimit="10"/>
<path d="M55.1104 139.98C54.5488 139.577 53.9179 139.281 53.2494 139.107" stroke="#2B2B2B" stroke-width="0.5" stroke-miterlimit="10"/>
<path d="M52.1784 142.083C53.6156 142.391 55.3526 143.015 56.303 144.265C57.1929 145.398 58.0223 146.578 58.7878 147.799C58.7878 147.799 58.9787 145.983 57.6428 143.213C57.2714 142.422 56.7988 141.682 56.2368 141.012" stroke="#2B2B2B" stroke-width="0.5" stroke-miterlimit="10"/>
<path d="M49.8142 141.784C49.8142 141.784 50.1841 141.784 50.7564 141.854" stroke="#2B2B2B" stroke-width="0.5" stroke-miterlimit="10"/>
<path d="M47.5202 144.168C47.5202 144.168 50.9592 142.547 54.301 143.883" stroke="#2B2B2B" stroke-width="0.5" stroke-miterlimit="10"/>
<path d="M97.5446 133.548L94.5883 154.484" stroke="#2B2B2B" stroke-width="0.5" stroke-miterlimit="10"/>
<path d="M98.1211 129.461L97.8056 131.713" stroke="#2B2B2B" stroke-width="0.5" stroke-miterlimit="10"/>
<path d="M102.394 142.485C103.004 142.132 103.659 141.864 104.34 141.686" stroke="#2B2B2B" stroke-width="0.5" stroke-miterlimit="10"/>
<path d="M95.1609 152.002C95.1609 152.002 95.4491 149.805 98.3117 146.081C99.2173 144.884 100.312 143.843 101.552 142.999" stroke="#2B2B2B" stroke-width="0.5" stroke-miterlimit="10"/>
<path d="M95.5426 152.193C95.5426 152.193 98.6935 148.083 102.323 147.701" stroke="#2B2B2B" stroke-width="0.5" stroke-miterlimit="10"/>
<path d="M74.3512 115.985C74.3512 115.985 72.1156 116.118 71.5859 117.302C71.0563 118.487 71.0602 128.623 71.0602 128.623C71.0602 128.623 78.6939 125.725 79.7455 125.725C80.7971 125.725 88.9605 128.885 88.9605 128.885C88.9605 128.885 87.905 121.514 86.0628 118.619C84.2206 115.724 81.0619 115.853 80.0103 115.853C78.9587 115.853 74.3512 115.985 74.3512 115.985Z" fill="white" stroke="#2B2B2B" stroke-width="0.5" stroke-miterlimit="10"/>
<path d="M72.3765 115.062L72.9023 117.828C72.9023 117.828 79.6169 130.727 80.4036 129.808C81.1904 128.888 85.1436 118.354 85.1436 118.354L85.4045 114.668C85.4045 114.668 82.2459 116.776 80.4036 116.776C78.5614 116.776 72.9023 113.745 72.9023 113.745L72.3765 115.062Z" fill="white" stroke="#2B2B2B" stroke-width="0.5" stroke-miterlimit="10"/>
<path d="M85.4045 114.668C85.4045 114.668 82.2459 116.776 80.4036 116.776C78.5614 116.776 72.9023 113.745 72.9023 113.745L72.3765 115.062L72.9023 117.828C72.9023 117.828 74.4174 120.738 76.0921 123.695C76.3602 123.595 76.6206 123.475 76.8711 123.337C84.1972 119.227 85.4045 114.668 85.4045 114.668Z" fill="#2B2B2B" stroke="#2B2B2B" stroke-width="0.5" stroke-miterlimit="10"/>
<path d="M69.4363 104.995C69.4363 104.995 67.9211 101.964 66.8617 104.539C65.8023 107.115 70.3438 110.597 70.3438 110.597L69.4363 104.995Z" fill="white" stroke="#2B2B2B" stroke-width="0.5" stroke-miterlimit="10"/>
<path d="M87.2313 104.317C87.2313 104.317 88.6647 101.36 89.4242 104.088C90.1837 106.815 87.0872 110.294 87.0872 110.294L87.2313 104.317Z" fill="white" stroke="#2B2B2B" stroke-width="0.5" stroke-miterlimit="10"/>
<path d="M69.1321 104.239C69.1321 104.239 70.1954 112.269 70.7991 113.632C71.3171 114.801 76.0609 118.888 77.4474 120.068C77.692 120.276 78.0029 120.389 78.3237 120.388C79.2072 120.408 80.091 120.365 80.9683 120.259C81.5759 120.107 85.642 116.363 86.5456 114.236C87.4492 112.109 87.1532 99.8489 87.1532 99.8489C87.1532 99.8489 86.6975 91.8235 85.79 90.7638C84.8825 89.7041 73.5254 89.7002 70.6472 91.2157C67.7689 92.7312 67.7728 95.3063 68.2246 96.8218C68.6764 98.3373 69.1321 104.239 69.1321 104.239Z" fill="white" stroke="#2B2B2B" stroke-width="0.5" stroke-miterlimit="10"/>
<path d="M82.0511 88.1963C77.2294 87.4366 75.391 88.8313 72.618 90.5962C71.9371 90.7146 71.2745 90.9215 70.6472 91.2117C67.7729 92.7272 67.7729 95.3023 68.2247 96.8178C68.6765 98.3333 69.1322 104.22 69.1322 104.22L70.1954 104.372C70.1954 104.372 70.3434 100.889 70.4953 100.437C70.6472 99.9851 72.4661 97.8619 72.618 96.8022C72.7699 95.7425 72.4661 92.7116 72.4661 92.7116C72.4661 92.7116 74.1291 98.0138 80.4893 99.8293C82.0083 100.272 83.581 100.502 85.163 100.515C85.2448 101.384 85.3928 102.206 85.6577 102.404L86.2614 102.86C86.2614 102.86 86.1095 104.98 86.5651 105.431C86.743 105.602 86.9684 105.715 87.2117 105.755C87.2311 103.452 87.2117 101.345 87.1844 100.382C90.0549 99.9734 89.6264 98.9098 89.716 97.6242C89.8484 95.5205 87.8037 89.108 82.0511 88.1963Z" fill="#2B2B2B" stroke="#2B2B2B" stroke-width="0.5" stroke-miterlimit="10"/>
<path d="M76.6879 110.578C77.0811 111.203 77.6762 111.674 78.3744 111.914C79.4299 112.195 80.5555 112.265 81.7473 110.438" stroke="#2B2B2B" stroke-width="0.5" stroke-miterlimit="10"/>
<path d="M75.0016 113.177C75.0016 113.177 76.3375 114.793 79.2197 114.653C82.1018 114.513 83.1534 113.321 83.1534 113.321" stroke="#2B2B2B" stroke-width="0.5" stroke-miterlimit="10"/>
<path d="M73.1049 106.92C73.6635 107.21 74.2752 107.385 74.903 107.433C75.5308 107.481 76.1619 107.402 76.7584 107.2" stroke="#2B2B2B" stroke-width="0.5" stroke-miterlimit="10"/>
<path d="M81.3267 107.2C82.0096 107.474 82.7403 107.609 83.476 107.597C84.2117 107.585 84.9377 107.426 85.6112 107.13" stroke="#2B2B2B" stroke-width="0.5" stroke-miterlimit="10"/>
<path d="M72.6101 104.601C72.6101 104.601 73.7358 102.915 76.7583 103.967" stroke="#2B2B2B" stroke-width="0.5" stroke-miterlimit="10"/>
<path d="M81.3969 104.317C82.0054 103.924 82.7254 103.738 83.4484 103.79C84.1713 103.841 84.8579 104.126 85.4048 104.602" stroke="#2B2B2B" stroke-width="0.5" stroke-miterlimit="10"/>
<path d="M76.6874 108.135C76.6874 108.135 75.352 109.191 74.7213 109.401" stroke="#2B2B2B" stroke-width="0.5" stroke-miterlimit="10"/>
<path d="M81.1864 107.905C81.1864 107.905 82.6626 109.464 83.648 109.803" stroke="#2B2B2B" stroke-width="0.5" stroke-miterlimit="10"/>
<path d="M94.016 153.814C94.016 153.814 95.9244 152.384 98.9818 150.471C102.039 148.558 104.995 149.135 106.619 150.95C108.244 152.766 108.434 157.827 105.95 160.024C103.465 162.221 100.127 161.645 98.0276 161.072C95.9283 160.499 93.3539 158.302 93.1552 157.827C92.9566 157.351 94.016 153.814 94.016 153.814Z" fill="#75CEA9" stroke="#2B2B2B" stroke-width="0.5" stroke-miterlimit="10"/>
<path d="M95.2585 152.766C95.2585 152.766 96.2127 151.617 97.5486 151.523C98.8845 151.43 101.272 152.668 101.833 155.727C102.394 158.785 101.054 161.263 99.4453 162.026C97.8368 162.79 95.2468 162.315 94.6742 161.454C94.2143 160.665 93.8308 159.834 93.5292 158.972L95.2585 152.766Z" fill="white" stroke="#2B2B2B" stroke-width="0.5" stroke-miterlimit="10"/>
<path d="M93.4355 149.517C93.4355 149.517 88.1853 145.231 87.6128 145.029C87.0403 144.826 83.0287 146.081 83.0287 146.081L84.0802 149.996C84.0802 149.996 83.6012 150.386 82.0744 149.042C80.5477 147.697 79.5935 145.89 79.0209 146.463C78.4484 147.035 78.1602 148.181 79.4961 149.614C80.832 151.048 82.647 152.957 83.6012 154.289C84.5554 155.622 87.3246 156.296 87.3246 156.296C87.3246 156.296 87.9945 157.534 90.5728 158.777C93.1512 160.02 97.1589 160.784 97.1589 160.784C97.1589 160.784 99.9281 157.725 98.8765 155.053C98.6197 154.317 98.1215 153.691 97.463 153.275C96.8046 152.859 96.0247 152.678 95.2505 152.762L94.008 152.474L93.4355 149.517Z" fill="white" stroke="#2B2B2B" stroke-width="0.5" stroke-miterlimit="10"/>
<path d="M86.3471 144.183C86.3471 144.183 83.2313 141.647 82.4095 141.764C81.5877 141.881 79.8 142.761 79.0911 143.256C78.3823 143.751 79.0171 144.713 79.8701 144.678C80.5431 144.628 81.2104 144.519 81.8642 144.351L82.3666 144.074L84.6373 147.623" fill="white"/>
<path d="M86.3471 144.183C86.3471 144.183 83.2313 141.647 82.4095 141.764C81.5877 141.881 79.8 142.761 79.0911 143.256C78.3823 143.751 79.0171 144.713 79.8701 144.678C80.5431 144.628 81.2104 144.519 81.8642 144.351L82.3666 144.074L84.6373 147.623" stroke="#2B2B2B" stroke-width="0.5" stroke-miterlimit="10"/>
<path d="M82.3667 144.074L83.5853 143.517" stroke="#2B2B2B" stroke-width="0.5" stroke-miterlimit="10"/>
<path d="M89.9302 143.996C89.9302 143.996 86.8143 141.464 85.9964 141.581C85.1785 141.698 83.3831 142.574 82.6742 143.073C81.9654 143.572 82.6002 144.526 83.4532 144.495C84.1264 144.444 84.7938 144.334 85.4473 144.164L85.9497 143.891L88.2165 147.436" fill="white"/>
<path d="M89.9302 143.996C89.9302 143.996 86.8143 141.464 85.9964 141.581C85.1785 141.698 83.3831 142.574 82.6742 143.073C81.9654 143.572 82.6002 144.526 83.4532 144.495C84.1264 144.444 84.7938 144.334 85.4473 144.164L85.9497 143.891L88.2165 147.436" stroke="#2B2B2B" stroke-width="0.5" stroke-miterlimit="10"/>
<path d="M85.9498 143.891L87.1684 143.33" stroke="#2B2B2B" stroke-width="0.5" stroke-miterlimit="10"/>
<path d="M92.7733 146.556C92.7733 146.556 91.2466 142.832 90.4832 142.547C89.7198 142.263 87.714 142.158 86.8572 142.259C86.0003 142.36 86.0782 143.502 86.8572 143.883C87.4721 144.162 88.1109 144.385 88.7656 144.55H89.3382L89.6225 148.753" fill="white"/>
<path d="M92.7733 146.556C92.7733 146.556 91.2466 142.832 90.4832 142.547C89.7198 142.263 87.714 142.158 86.8572 142.259C86.0003 142.36 86.0782 143.502 86.8572 143.883C87.4721 144.162 88.1109 144.385 88.7656 144.55H89.3382L89.6225 148.753" stroke="#2B2B2B" stroke-width="0.5" stroke-miterlimit="10"/>
<path d="M89.3384 144.55L90.6738 144.647" stroke="#2B2B2B" stroke-width="0.5" stroke-miterlimit="10"/>
<path d="M93.6343 153.241C93.6343 153.241 94.4951 148.66 94.3043 148.177C94.1134 147.693 92.4892 145.598 92.0101 145.598C91.531 145.598 90.5806 146.552 90.9624 147.506C91.0444 147.767 91.1934 148.001 91.3944 148.186C91.5953 148.37 91.8412 148.499 92.1075 148.558V151.231L91.2467 152.38" fill="white"/>
<path d="M93.6343 153.241C93.6343 153.241 94.4951 148.66 94.3043 148.177C94.1134 147.693 92.4892 145.598 92.0101 145.598C91.531 145.598 90.5806 146.552 90.9624 147.506C91.0444 147.767 91.1934 148.001 91.3944 148.186C91.5953 148.37 91.8412 148.499 92.1075 148.558V151.231L91.2467 152.38" stroke="#2B2B2B" stroke-width="0.5" stroke-miterlimit="10"/>
<path d="M84.0959 158.567H66.9823L66.032 138.012H85.0462L84.0959 158.567Z" fill="#2B2B2B" stroke="#2B2B2B" stroke-width="0.5" stroke-miterlimit="10"/>
<path d="M58.1646 149.552C58.1646 149.552 51.4539 144.682 50.7957 144.421C50.1375 144.16 46.453 145.734 44.3459 147.316C42.2389 148.897 42.3713 150.475 43.1775 152.45C43.9837 154.426 47.1229 156.927 48.3108 157.846C49.4987 158.765 55.1539 158.236 55.1539 158.236L58.1646 149.552Z" fill="#75CEA9" stroke="#2B2B2B" stroke-width="0.5" stroke-miterlimit="10"/>
<path d="M59.4808 150.21C59.4808 150.21 58.032 148.107 57.3738 147.974C56.7156 147.842 54.7409 149.291 53.6893 150.608C52.6377 151.924 51.5822 155.477 51.5822 157.32C51.5822 159.163 54.7409 159.689 55.2667 159.689C55.7925 159.689 56.5831 158.111 57.5062 157.585C58.4293 157.059 59.4808 150.21 59.4808 150.21Z" fill="white" stroke="#2B2B2B" stroke-width="0.5" stroke-miterlimit="10"/>
<path d="M79.2197 156.775C79.2197 156.775 81.6033 156.775 82.1758 156.385C82.7484 155.996 84.5633 153.331 84.8516 152.758C85.1398 152.185 83.9908 152.185 83.3248 153.424C82.6588 154.663 80.0766 155.622 79.43 156.003C78.7267 156.312 77.9894 156.537 77.2334 156.673L79.2197 156.775Z" fill="white" stroke="#2B2B2B" stroke-width="0.5" stroke-miterlimit="10"/>
<path d="M58.1646 149.552L67.773 150.6C67.773 150.6 69.3309 146.123 70.0086 145.991C71.4248 145.511 72.7906 144.894 74.0864 144.148C74.6161 143.759 75.5353 143.225 75.0095 144.674C74.4837 146.123 71.586 147.573 71.586 147.573C71.586 147.573 74.2188 149.283 75.0095 149.415C75.8001 149.548 81.3268 148.36 81.3268 148.36C81.3268 148.36 85.4046 146.801 85.8019 147.043C86.1991 147.284 85.1437 148.36 85.1437 148.36C85.1437 148.36 85.9226 147.834 86.1952 148.492C86.4679 149.151 85.537 150.467 85.537 150.467C85.537 150.467 85.9265 150.728 85.6695 151.784C85.4124 152.84 81.8526 155.731 81.0619 156.26C80.2713 156.79 76.0611 156.919 73.2997 156.919C71.2713 156.878 69.2479 156.701 67.2433 156.389C67.2433 156.389 56.1899 158.236 55.6641 158.236C55.1383 158.236 52.5055 152.844 58.1646 149.552Z" fill="white" stroke="#2B2B2B" stroke-width="0.5" stroke-miterlimit="10"/>
<path d="M85.1437 148.367C85.1437 148.367 80.0104 152.318 79.3522 152.318C78.6939 152.318 74.7446 153.37 74.7446 153.37" fill="white"/>
<path d="M85.1437 148.367C85.1437 148.367 80.0104 152.318 79.3522 152.318C78.6939 152.318 74.7446 153.37 74.7446 153.37" stroke="#2B2B2B" stroke-width="0.5" stroke-miterlimit="10"/>
<path d="M85.537 150.475C85.537 150.475 81.4591 154.028 81.0619 154.293C80.6646 154.558 76.8516 155.212 76.8516 155.212" fill="white"/>
<path d="M85.537 150.475C85.537 150.475 81.4591 154.028 81.0619 154.293C80.6646 154.558 76.8516 155.212 76.8516 155.212" stroke="#2B2B2B" stroke-width="0.5" stroke-miterlimit="10"/>
<path d="M121.867 184.984C118.331 179.176 107.515 162.459 100.66 163.113C92.3683 163.892 65.9151 174.696 65.9151 174.696L113.922 184.984H121.867Z" fill="#2B2B2B" stroke="#2B2B2B" stroke-width="0.5" stroke-miterlimit="10"/>
<path d="M63.0292 184.984V163.067C63.0355 162.461 62.8011 161.877 62.3776 161.444C61.954 161.011 61.3759 160.763 60.7703 160.756H43.8475C43.2418 160.763 42.6637 161.011 42.2402 161.444C41.8167 161.877 41.5823 162.461 41.5885 163.067V185L63.0292 184.984Z" fill="#F2F2F2" stroke="#2B2B2B" stroke-width="0.5" stroke-miterlimit="10"/>
<path d="M68.5557 184.984V163.125C68.5693 162.824 68.5235 162.523 68.4208 162.24C68.3182 161.956 68.1607 161.696 67.9575 161.473C67.7542 161.251 67.5091 161.071 67.2362 160.943C66.9633 160.815 66.6679 160.742 66.3668 160.729H54.8461C54.2403 160.756 53.6699 161.022 53.2598 161.469C52.8496 161.916 52.633 162.507 52.6573 163.113V184.973L68.5557 184.984Z" fill="#F2F2F2" stroke="#2B2B2B" stroke-width="0.5" stroke-miterlimit="10"/>
<path d="M10.068 184.984H0" stroke="#2B2B2B" stroke-width="0.5" stroke-miterlimit="10"/>
<path d="M175 184.984H14.4303" stroke="#2B2B2B" stroke-width="0.5" stroke-miterlimit="10"/>
</svg>
