<svg width="209" height="186" viewBox="0 0 209 186" fill="none" xmlns="http://www.w3.org/2000/svg">
<path d="M119.742 85.8795C117.292 86.7804 111.463 86.3126 111.459 86.3126C111.454 86.3126 112.943 82.5618 113.069 82.3366C114.51 79.7378 118.828 75.5495 122.096 76.1948C124.454 76.6583 125.631 79.1184 124.96 81.323C124.29 83.5276 121.827 85.1129 119.742 85.8795Z" fill="#75CEA9"/>
<path d="M44.47 61.3774C47.7979 61.2215 51.4546 65.9946 52.5018 68.7795C52.5884 69.0221 53.5707 72.9549 53.5101 72.9505H53.4365C54.0208 73.6998 54.6396 74.5098 55.293 75.4107C56.4917 77.0782 57.8289 78.9753 59.1445 81.1366C60.5915 83.4495 61.9006 85.846 63.0652 88.3134C64.3852 91.0681 65.4569 93.9352 66.2675 96.8806L66.2934 96.9889C66.3324 96.0144 66.5401 93.29 66.5791 93.0908C67.1416 90.1672 69.9372 84.8614 73.2434 84.4283C75.6278 84.1338 77.5102 86.1002 77.5708 88.4044C77.6314 90.7086 75.7836 92.9999 74.0396 94.3815C72.0749 95.9364 66.7954 97.2358 66.3757 97.3398C67.1275 100.358 67.6768 103.422 68.0201 106.513C68.2321 108.315 68.3879 110.134 68.5178 111.962C68.5827 111.096 68.6433 110.364 68.6649 110.26C69.2231 107.336 72.023 102.03 75.3292 101.597C77.7136 101.303 79.5961 103.274 79.6567 105.578C79.7172 107.882 77.8694 110.169 76.1298 111.551C74.3901 112.932 69.8852 114.149 68.6952 114.452C68.7385 115.154 68.7904 115.851 68.8293 116.553C69.0284 119.919 69.2102 123.28 69.4914 126.567C69.591 127.723 69.7295 128.863 69.8636 130.002C69.9199 129.252 69.9761 128.624 69.9934 128.529C70.5517 125.605 73.3515 120.3 76.6577 119.867C79.0378 119.572 80.9246 121.538 80.9852 123.843C81.0458 126.147 79.1979 128.438 77.454 129.82C75.71 131.201 71.6465 132.302 70.2358 132.665C70.4089 133.826 70.582 134.991 70.8027 136.109C70.9671 136.871 71.0796 137.612 71.2873 138.37C71.4951 139.128 71.6725 139.864 71.8629 140.6C72.2956 142.004 72.7024 143.455 73.1395 144.815C73.4424 145.763 73.7453 146.66 74.0483 147.565C73.9358 146.413 73.767 144.152 73.7713 143.961C73.967 141.35 74.8265 138.831 76.2683 136.646C76.2784 136.354 76.3146 136.064 76.3764 135.78C76.8784 133.527 79.1114 131.968 81.392 132.726C84.5553 133.779 86.2517 139.548 86.2258 142.523C86.2258 142.701 85.9921 144.602 85.8276 145.802C86.0353 145.113 86.2214 144.442 86.4421 143.732C86.8749 142.328 87.3076 140.942 87.8183 139.448L88.6188 137.282C88.8698 136.555 89.2247 135.823 89.5319 135.082C90.2719 133.38 91.1028 131.691 91.9813 130.01C90.7523 129.638 86.4205 128.248 84.7328 126.784C83.0451 125.32 81.3227 123.002 81.4785 120.655C81.6343 118.307 83.6076 116.475 85.9748 116.878C89.2593 117.437 91.8125 122.881 92.2366 125.826C92.2626 126.013 92.3275 128.161 92.3448 129.343C92.8771 128.334 93.405 127.329 93.9806 126.311C95.638 123.418 97.4036 120.547 99.1735 117.671C99.7101 116.804 100.234 115.908 100.762 115.029C100.329 114.899 95.136 113.361 93.2492 111.719C91.5702 110.26 89.8349 107.938 89.995 105.591C90.1551 103.243 92.1198 101.411 94.4869 101.814C97.7714 102.373 100.325 107.817 100.749 110.762C100.783 110.988 100.874 114.08 100.857 114.864C102.021 112.924 103.159 110.966 104.206 109.008C105.634 106.361 106.887 103.624 107.958 100.813C107.755 100.753 102.333 99.1719 100.398 97.4913C98.7191 96.036 96.9882 93.7102 97.1439 91.3626C97.2997 89.0151 99.2731 87.183 101.64 87.5858C104.925 88.1445 107.474 93.5889 107.902 96.5385C107.932 96.768 108.032 100.094 108.006 100.701C108.066 100.536 108.149 100.376 108.209 100.211C109.205 97.3634 109.947 94.4327 110.425 91.4536C110.711 89.8121 110.888 88.2268 111.031 86.6892C109.992 86.4987 105.249 85.5718 103.341 84.2507C101.51 82.986 99.5327 80.868 99.4462 78.5162C99.3596 76.1643 101.104 74.1286 103.497 74.2672C106.824 74.4621 109.958 79.5947 110.702 82.4966C110.745 82.6525 110.979 84.2897 111.135 85.4895C111.187 84.7878 111.256 84.0688 111.295 83.3975C111.442 80.881 111.42 78.5682 111.386 76.5151C111.355 75.35 111.308 74.2975 111.251 73.3144C110.33 72.591 106.647 69.6415 105.578 67.6318C104.509 65.6221 103.761 62.8674 104.752 60.7364C105.743 58.6054 108.244 57.6093 110.304 58.835C113.169 60.5675 113.588 66.5446 112.922 69.4465C112.861 69.6978 111.515 73.5136 111.464 73.4789L111.407 73.4356C111.481 74.3798 111.55 75.3977 111.602 76.5108C111.68 78.5638 111.753 80.881 111.658 83.4105C111.588 86.1386 111.36 88.8603 110.975 91.5619C110.555 94.5897 109.867 97.5742 108.919 100.48C108.909 100.514 108.896 100.547 108.88 100.58C109.451 99.7912 111.13 97.6299 111.277 97.4784C113.355 95.3517 118.634 92.4541 121.603 93.9397C123.767 95.0139 124.243 97.6949 123.009 99.644C121.776 101.593 118.989 102.49 116.773 102.676C114.276 102.888 109.157 101.06 108.75 100.913C107.695 103.849 106.444 106.711 105.007 109.48C104.193 111.096 103.319 112.698 102.41 114.297C102.925 113.63 103.397 113.036 103.471 112.958C105.548 110.827 110.827 107.934 113.796 109.42C115.96 110.489 116.431 113.17 115.207 115.124C113.982 117.077 111.182 117.969 108.967 118.156C106.751 118.342 102.324 116.878 101.177 116.471C100.827 117.082 100.485 117.692 100.13 118.303C98.4422 121.218 96.7415 124.12 95.162 127.017C94.6081 128.035 94.0974 129.062 93.5781 130.088C94.0412 129.495 94.4436 129.001 94.4999 128.928C96.5771 126.801 101.857 123.903 104.83 125.389C106.993 126.463 107.465 129.144 106.236 131.093C105.007 133.042 102.211 133.939 100 134.125C97.8363 134.307 93.7858 132.986 92.4054 132.514C91.912 133.579 91.4144 134.645 90.9816 135.697C90.7004 136.425 90.3801 137.105 90.1421 137.863C89.9041 138.621 89.6401 139.322 89.3935 140.028C88.9607 141.432 88.528 142.874 88.1342 144.251C87.8615 145.209 87.6192 146.127 87.3725 147.049C87.9135 146.023 89.0213 144.044 89.1295 143.892C90.8605 141.471 95.6207 137.828 98.8057 138.824C101.091 139.561 101.978 142.133 101.056 144.247C100.134 146.361 97.5118 147.673 95.3524 148.193C92.9723 148.765 87.8399 147.803 87.1994 147.677C86.797 149.206 86.4205 150.709 86.0873 152.104C86.0137 152.407 85.9531 152.68 85.8839 152.97H83.8024C83.9149 152.537 84.0274 152.078 84.1486 151.619C84.551 150.064 85.0141 148.414 85.5031 146.725C83.9856 146.004 82.5104 145.197 81.0847 144.308C79.2715 146.04 74.7796 147.946 74.1997 148.206C74.706 149.7 75.2124 151.151 75.71 152.511L75.8874 152.988H73.8059C73.3039 151.519 72.802 149.956 72.3 148.34C71.6638 148.431 66.4839 149.163 64.1297 148.483C61.9963 147.864 59.4474 146.478 58.6079 144.277C57.7683 142.077 58.7939 139.591 61.1091 138.967C64.3244 138.101 68.9202 141.969 70.543 144.468C70.6382 144.615 71.4951 146.33 72.0187 147.422C71.8066 146.733 71.5859 146.066 71.3869 145.356C70.9541 143.953 70.5906 142.541 70.1795 141.025C70.0021 140.284 69.829 139.535 69.6516 138.781C69.4741 138.027 69.353 137.226 69.1972 136.438C68.8769 134.61 68.6433 132.743 68.4442 130.859C67.2195 131.223 62.8185 132.457 60.6245 132.159C58.4304 131.86 55.6955 130.89 54.5314 128.841C53.3673 126.792 54.0034 124.18 56.1975 123.21C59.2267 121.863 64.3764 124.995 66.354 127.221C66.4795 127.36 67.7172 129.114 68.3793 130.093C68.2711 128.958 68.1586 127.823 68.085 126.671C67.873 123.349 67.7648 119.975 67.6523 116.609C67.6176 115.579 67.5657 114.552 67.5224 113.526C67.0897 113.66 61.8967 115.258 59.4301 114.916C57.2274 114.63 54.5011 113.647 53.337 111.598C52.1729 109.55 52.8091 106.938 55.0031 105.968C58.0539 104.621 63.182 107.752 65.1596 109.978C65.3111 110.147 67.0897 112.672 67.5138 113.339C67.4099 111.074 67.2888 108.822 67.081 106.604C66.8132 103.609 66.3492 100.634 65.6919 97.6993C65.4929 97.7642 60.0965 99.4317 57.5563 99.1026C55.3536 98.8124 52.6273 97.8335 51.4675 95.7848C50.3078 93.7362 50.9353 91.1244 53.1336 90.1542C56.1629 88.8072 61.3082 91.9387 63.2902 94.165C63.4416 94.3382 65.3587 97.0582 65.6703 97.578C65.6313 97.4091 65.6097 97.2271 65.5664 97.0582C64.8304 94.1322 63.834 91.2781 62.5891 88.53C61.9227 87.0054 61.2 85.5804 60.4644 84.1988C59.4907 84.6319 55.0247 86.464 52.7095 86.4164C50.4852 86.3687 47.668 85.693 46.2876 83.7873C44.9071 81.8815 45.2533 79.2135 47.3262 78.0094C50.2083 76.3332 55.6522 78.8757 57.8635 80.8767C57.9804 80.985 59.0839 82.2237 59.8715 83.1333C59.5296 82.5226 59.1877 81.8859 58.8502 81.3055C57.5866 79.1399 56.2927 77.2038 55.1372 75.5146C54.4708 74.5574 53.839 73.7085 53.2548 72.9159C52.0907 72.8249 47.3954 72.3961 45.3918 71.309C43.3882 70.2218 41.2547 68.3421 40.9042 66.0162C40.5537 63.6903 42.0726 61.4771 44.47 61.3774Z" fill="#75CEA9"/>
<path d="M60.6205 83.6013C60.5686 83.6317 59.7939 79.6556 59.755 79.4C59.5213 76.4288 60.8196 70.5556 63.9011 69.2909C66.1213 68.377 68.4584 69.776 69.0946 71.9849C69.7308 74.1939 68.5839 76.8922 67.2682 78.681C65.7534 80.786 60.6249 83.597 60.6205 83.6013Z" fill="#75CEA9"/>
<path d="M58.7763 145.729C58.7763 145.729 45.6555 145.564 42.5873 140.652H8.31378C8.31378 140.652 11.1007 145.685 15.4281 145.729H58.7763Z" fill="white" stroke="#2B2B2B" stroke-width="0.5" stroke-miterlimit="10"/>
<path d="M41.5922 142.272H13.6714C13.6714 142.272 14.1907 143.407 12.767 144.031C13.6645 144.861 14.7909 145.401 15.9996 145.581H51.5454C51.5454 145.581 47.0189 145.148 44.5652 143.719C44.5652 143.719 41.722 144.135 41.5922 142.272Z" fill="white" stroke="#2B2B2B" stroke-width="0.5" stroke-miterlimit="10"/>
<path d="M53.6001 184.991H132.369V175.237H53.6001V184.991Z" fill="#2B2B2B" stroke="#2B2B2B" stroke-width="0.5" stroke-miterlimit="10"/>
<path d="M10.2523 184.991H89.0209V175.237H10.2523V184.991Z" fill="white" stroke="#2B2B2B" stroke-width="0.5" stroke-miterlimit="10"/>
<path d="M88.475 177.84H69.2394" stroke="#2B2B2B" stroke-width="0.5" stroke-miterlimit="10"/>
<path d="M84.6814 180.01H56.7779" stroke="#2B2B2B" stroke-width="0.5" stroke-miterlimit="10"/>
<path d="M73.571 181.959H78.4486" stroke="#2B2B2B" stroke-width="0.5" stroke-miterlimit="10"/>
<path d="M80.3494 181.959H88.2045" stroke="#2B2B2B" stroke-width="0.5" stroke-miterlimit="10"/>
<path d="M10.7166 181.526H35.3702" stroke="#2B2B2B" stroke-width="0.5" stroke-miterlimit="10"/>
<path d="M12.8824 180.227H16.1327" stroke="#2B2B2B" stroke-width="0.5" stroke-miterlimit="10"/>
<path d="M31.3049 180.01H20.4689" stroke="#2B2B2B" stroke-width="0.5" stroke-miterlimit="10"/>
<path d="M10.7166 177.407H20.199" stroke="#2B2B2B" stroke-width="0.5" stroke-miterlimit="10"/>
<path d="M131.283 179.356H126.406" stroke="#8A8A8A" stroke-width="0.5" stroke-miterlimit="10"/>
<path d="M132.369 181.526H117.197" stroke="#8A8A8A" stroke-width="0.5" stroke-miterlimit="10"/>
<path d="M89.8302 182.826H97.1487" stroke="#8A8A8A" stroke-width="0.5" stroke-miterlimit="10"/>
<path d="M89.0166 179.356H108.797" stroke="#8A8A8A" stroke-width="0.5" stroke-miterlimit="10"/>
<path d="M125.865 176.541H114.488" stroke="#8A8A8A" stroke-width="0.5" stroke-miterlimit="10"/>
<path d="M46.2037 184.775H55.4178V175.237H46.2037V184.775Z" fill="white" stroke="#2B2B2B" stroke-width="0.5" stroke-miterlimit="10"/>
<path d="M52.5877 175.159H131.356V165.405H52.5877V175.159Z" fill="#2B2B2B" stroke="#2B2B2B" stroke-width="0.5" stroke-miterlimit="10"/>
<path d="M9.24002 175.159H88.0085V165.405H9.24002V175.159Z" fill="white" stroke="#2B2B2B" stroke-width="0.5" stroke-miterlimit="10"/>
<path d="M87.463 168.004H68.2274" stroke="#2B2B2B" stroke-width="0.5" stroke-miterlimit="10"/>
<path d="M83.6721 170.17H55.7643" stroke="#2B2B2B" stroke-width="0.5" stroke-miterlimit="10"/>
<path d="M72.564 172.123H77.4416" stroke="#2B2B2B" stroke-width="0.5" stroke-miterlimit="10"/>
<path d="M79.3359 172.123H87.1953" stroke="#2B2B2B" stroke-width="0.5" stroke-miterlimit="10"/>
<path d="M9.70282 171.69H34.3607" stroke="#2B2B2B" stroke-width="0.5" stroke-miterlimit="10"/>
<path d="M11.8704 170.386H15.1207" stroke="#2B2B2B" stroke-width="0.5" stroke-miterlimit="10"/>
<path d="M30.2968 170.17H19.4565" stroke="#2B2B2B" stroke-width="0.5" stroke-miterlimit="10"/>
<path d="M9.70282 167.571H19.1896" stroke="#2B2B2B" stroke-width="0.5" stroke-miterlimit="10"/>
<path d="M130.274 169.52H125.397" stroke="#8A8A8A" stroke-width="0.5" stroke-miterlimit="10"/>
<path d="M131.356 171.69H116.184" stroke="#8A8A8A" stroke-width="0.5" stroke-miterlimit="10"/>
<path d="M88.8227 172.989H96.1368" stroke="#8A8A8A" stroke-width="0.5" stroke-miterlimit="10"/>
<path d="M88.0085 169.52H107.785" stroke="#8A8A8A" stroke-width="0.5" stroke-miterlimit="10"/>
<path d="M124.856 166.705H113.475" stroke="#8A8A8A" stroke-width="0.5" stroke-miterlimit="10"/>
<path d="M45.1955 174.943H54.4095V165.405H45.1955V174.943Z" fill="white" stroke="#2B2B2B" stroke-width="0.5" stroke-miterlimit="10"/>
<path d="M55.7897 165.323H134.558V155.569H55.7897V165.323Z" fill="#2B2B2B" stroke="#2B2B2B" stroke-width="0.5" stroke-miterlimit="10"/>
<path d="M12.4425 165.323H91.2111V155.569H12.4425V165.323Z" fill="white" stroke="#2B2B2B" stroke-width="0.5" stroke-miterlimit="10"/>
<path d="M90.6651 158.168H71.4295" stroke="#2B2B2B" stroke-width="0.5" stroke-miterlimit="10"/>
<path d="M86.8704 160.333H58.9669" stroke="#2B2B2B" stroke-width="0.5" stroke-miterlimit="10"/>
<path d="M75.7617 162.287H80.6392" stroke="#2B2B2B" stroke-width="0.5" stroke-miterlimit="10"/>
<path d="M82.5379 162.287H90.393" stroke="#2B2B2B" stroke-width="0.5" stroke-miterlimit="10"/>
<path d="M12.9048 161.854H37.5584" stroke="#2B2B2B" stroke-width="0.5" stroke-miterlimit="10"/>
<path d="M15.0731 160.55H18.3233" stroke="#2B2B2B" stroke-width="0.5" stroke-miterlimit="10"/>
<path d="M33.4956 160.333H22.6596" stroke="#2B2B2B" stroke-width="0.5" stroke-miterlimit="10"/>
<path d="M12.9048 157.735H22.3872" stroke="#2B2B2B" stroke-width="0.5" stroke-miterlimit="10"/>
<path d="M133.473 159.684H128.595" stroke="#8A8A8A" stroke-width="0.5" stroke-miterlimit="10"/>
<path d="M134.559 161.854H119.387" stroke="#8A8A8A" stroke-width="0.5" stroke-miterlimit="10"/>
<path d="M92.0203 163.153H99.3388" stroke="#8A8A8A" stroke-width="0.5" stroke-miterlimit="10"/>
<path d="M91.2061 159.684H110.987" stroke="#8A8A8A" stroke-width="0.5" stroke-miterlimit="10"/>
<path d="M128.055 156.868H116.678" stroke="#8A8A8A" stroke-width="0.5" stroke-miterlimit="10"/>
<path d="M48.3942 165.106H57.6083V155.569H48.3942V165.106Z" fill="white" stroke="#2B2B2B" stroke-width="0.5" stroke-miterlimit="10"/>
<path d="M53.3447 155.482H132.113V145.728H53.3447V155.482Z" fill="#2B2B2B" stroke="#2B2B2B" stroke-width="0.5" stroke-miterlimit="10"/>
<path d="M9.99692 155.482H88.7654V145.728H9.99692V155.482Z" fill="white" stroke="#2B2B2B" stroke-width="0.5" stroke-miterlimit="10"/>
<path d="M88.2237 148.331H68.9838" stroke="#2B2B2B" stroke-width="0.5" stroke-miterlimit="10"/>
<path d="M84.429 150.497H56.5212" stroke="#2B2B2B" stroke-width="0.5" stroke-miterlimit="10"/>
<path d="M73.3215 152.446H78.199" stroke="#2B2B2B" stroke-width="0.5" stroke-miterlimit="10"/>
<path d="M80.0939 152.446H87.9533" stroke="#2B2B2B" stroke-width="0.5" stroke-miterlimit="10"/>
<path d="M10.4605 152.013H35.1184" stroke="#2B2B2B" stroke-width="0.5" stroke-miterlimit="10"/>
<path d="M12.6274 150.714H15.882" stroke="#2B2B2B" stroke-width="0.5" stroke-miterlimit="10"/>
<path d="M31.0554 150.497H20.2151" stroke="#2B2B2B" stroke-width="0.5" stroke-miterlimit="10"/>
<path d="M10.4605 147.898H19.9473" stroke="#2B2B2B" stroke-width="0.5" stroke-miterlimit="10"/>
<path d="M131.033 149.847H126.155" stroke="#8A8A8A" stroke-width="0.5" stroke-miterlimit="10"/>
<path d="M132.114 152.013H116.942" stroke="#8A8A8A" stroke-width="0.5" stroke-miterlimit="10"/>
<path d="M89.5796 153.317H96.8937" stroke="#8A8A8A" stroke-width="0.5" stroke-miterlimit="10"/>
<path d="M88.7654 149.847H108.542" stroke="#8A8A8A" stroke-width="0.5" stroke-miterlimit="10"/>
<path d="M125.614 147.028H114.233" stroke="#8A8A8A" stroke-width="0.5" stroke-miterlimit="10"/>
<path d="M45.954 155.266H55.1681V145.728H45.954V155.266Z" fill="white" stroke="#2B2B2B" stroke-width="0.5" stroke-miterlimit="10"/>
<path d="M194.811 35.7582H119.409V184.995H194.811V35.7582Z" fill="#2B2B2B" stroke="#2B2B2B" stroke-width="0.5" stroke-miterlimit="10"/>
<path d="M186.657 36.4382V62.2741" stroke="#8A8A8A" stroke-width="0.5" stroke-miterlimit="10"/>
<path d="M191.412 42.896V53.7761" stroke="#8A8A8A" stroke-width="0.5" stroke-miterlimit="10"/>
<path d="M189.037 40.5183V79.2699" stroke="#8A8A8A" stroke-width="0.5" stroke-miterlimit="10"/>
<path d="M193.114 35.7582V86.4121" stroke="#8A8A8A" stroke-width="0.5" stroke-miterlimit="10"/>
<path d="M187.337 184.653V158.138" stroke="#8A8A8A" stroke-width="0.5" stroke-miterlimit="10"/>
<path d="M190.054 184.995V179.213" stroke="#8A8A8A" stroke-width="0.5" stroke-miterlimit="10"/>
<path d="M190.734 177.173V153.72" stroke="#8A8A8A" stroke-width="0.5" stroke-miterlimit="10"/>
<path d="M187.679 154.737V116.324" stroke="#8A8A8A" stroke-width="0.5" stroke-miterlimit="10"/>
<path d="M184.282 35.7582H108.88V184.995H184.282V35.7582Z" fill="#75CEA9" stroke="#2B2B2B" stroke-width="0.5" stroke-miterlimit="10"/>
<path d="M177.829 46.3179C176.355 46.3145 174.938 45.7468 173.87 44.7311C172.801 43.7155 172.161 42.329 172.082 40.8562H121.087C121.009 42.3312 120.369 43.7202 119.298 44.7365C118.227 45.7528 116.807 46.3188 115.331 46.3179C114.99 46.3171 114.65 46.2852 114.314 46.2226V171.491C114.65 171.43 114.99 171.399 115.331 171.396C116.328 171.396 117.308 171.654 118.176 172.146C119.043 172.637 119.769 173.345 120.282 174.201C120.795 175.057 121.078 176.031 121.103 177.028C121.128 178.026 120.894 179.013 120.425 179.893H172.735C172.264 179.013 172.03 178.026 172.054 177.028C172.079 176.03 172.361 175.055 172.874 174.199C173.387 173.343 174.114 172.635 174.982 172.143C175.85 171.652 176.831 171.394 177.829 171.396C178.17 171.399 178.51 171.43 178.845 171.491V46.201C178.511 46.2708 178.17 46.3099 177.829 46.3179V46.3179ZM145.052 132.982C133.139 132.982 123.484 122.483 123.484 109.528C123.484 96.5733 133.139 86.0701 145.052 86.0701C156.966 86.0701 166.62 96.5733 166.62 109.528C166.62 122.483 156.962 132.982 145.052 132.982Z" fill="white" stroke="#2B2B2B" stroke-width="0.5" stroke-miterlimit="10"/>
<path d="M194.673 101.368H109.218V116.666H194.673V101.368Z" fill="white" stroke="#2B2B2B" stroke-width="0.5" stroke-miterlimit="10"/>
<path d="M194.672 101.368H184.446V116.666H194.672V101.368Z" fill="#2B2B2B" stroke="#8A8A8A" stroke-width="0.5" stroke-miterlimit="10"/>
<path d="M26.5417 175.714L24.0231 179.495L19.1028 183.393V185H35.9323L35.3567 179.369V176.849C35.3567 176.849 28.4891 173.877 26.5417 175.714Z" fill="#2B2B2B" stroke="#2B2B2B" stroke-width="0.5" stroke-miterlimit="10"/>
<path d="M35.7808 183.505H19.1028V184.995H35.9323L35.7808 183.505Z" fill="white" stroke="#2B2B2B" stroke-width="0.5" stroke-miterlimit="10"/>
<path d="M54.3317 175.714L57.0147 179.495L62.2639 183.393V185H44.3266L44.9368 179.369V176.849C44.9368 176.849 52.2588 173.877 54.3317 175.714Z" fill="#2B2B2B" stroke="#2B2B2B" stroke-width="0.5" stroke-miterlimit="10"/>
<path d="M44.4867 183.505H62.2639V184.995H44.3266L44.4867 183.505Z" fill="white" stroke="#2B2B2B" stroke-width="0.5" stroke-miterlimit="10"/>
<path d="M19.0335 97.2878C19.0335 97.2878 22.9628 141.674 23.2441 150.103C23.5254 158.532 26.1911 169.91 26.1911 169.91L24.9492 171.876L26.2128 176.229C26.2128 176.229 29.1598 175.527 30.7047 176.09C32.2496 176.654 35.0321 177.355 35.0321 177.355C35.0321 177.355 36.4386 173.561 36.5771 171.876C36.7155 170.191 34.9023 166.116 34.9023 166.116L34.621 115.41H37.1483L43.5962 169.065L43.3149 172.296L44.5785 177.355C44.5785 177.355 52.0174 175.809 52.5757 175.666C53.0021 175.602 53.438 175.651 53.8393 175.809C53.8393 175.809 54.7048 173.981 54.7048 173.418C54.7048 172.855 53.5797 169.628 53.5797 169.628L53.2984 144.485V96.8677L19.0551 96.166L19.0335 97.2878Z" fill="#75CEA9" stroke="#2B2B2B" stroke-width="0.5" stroke-miterlimit="10"/>
<path d="M52.0915 116.891L52.8576 133.683L49.59 133.978V136.061L51.966 136.208" stroke="#2B2B2B" stroke-width="0.5" stroke-linecap="round" stroke-linejoin="round"/>
<path d="M51.5197 104.4L52.0173 115.245" stroke="#2B2B2B" stroke-width="0.5" stroke-linecap="round" stroke-linejoin="round"/>
<path d="M50.0908 146.027C50.199 149.029 50.437 151.632 50.926 151.814C52.1161 152.247 52.4103 152.706 52.4103 152.706" stroke="#2B2B2B" stroke-width="0.5" stroke-linecap="round" stroke-linejoin="round"/>
<path d="M50.0476 136.655C50.0476 136.655 49.9696 140.449 50.0476 144.243" stroke="#2B2B2B" stroke-width="0.5" stroke-linecap="round" stroke-linejoin="round"/>
<path d="M31.1757 113.911L37.1135 114.357" stroke="#2B2B2B" stroke-width="0.5" stroke-linecap="round" stroke-linejoin="round"/>
<path d="M33.1053 99.644L33.2525 107.964L35.9271 109.9" stroke="#2B2B2B" stroke-width="0.5" stroke-linecap="round" stroke-linejoin="round"/>
<path d="M35.9275 102.615L36.3732 112.872" stroke="#2B2B2B" stroke-width="0.5" stroke-linecap="round" stroke-linejoin="round"/>
<path d="M34.0916 150.185L34.2909 160.437" stroke="#2B2B2B" stroke-width="0.5" stroke-linecap="round" stroke-linejoin="round"/>
<path d="M33.3995 114.505L34.0443 147.652" stroke="#2B2B2B" stroke-width="0.5" stroke-linecap="round" stroke-linejoin="round"/>
<path d="M45.4311 103.954C45.4311 103.954 47.5128 108.263 51.3733 106.925" stroke="#2B2B2B" stroke-width="0.5" stroke-linecap="round" stroke-linejoin="round"/>
<path d="M24.6416 103.954C24.6416 103.954 23.1528 107.224 20.7768 107.67" stroke="#2B2B2B" stroke-width="0.5" stroke-linecap="round" stroke-linejoin="round"/>
<path d="M33.4616 47.76L29 49.1114L25.261 97.1015L44.9813 97.4177L46.0199 48.0719L33.4616 47.76Z" fill="white" stroke="#2B2B2B" stroke-width="0.5" stroke-miterlimit="10"/>
<path d="M31.8725 45.8846H30.8253L30.2973 47.2533L30.5093 58.8394L37.0352 54.6294L43.4528 60.7364L44.2967 46.9371C44.2967 46.9371 44.6126 46.3047 43.6648 45.8846C42.7171 45.4645 42.4012 45.3562 42.4012 45.3562L31.8725 45.8846Z" fill="white" stroke="#2B2B2B" stroke-width="0.5" stroke-miterlimit="10"/>
<path d="M31.2451 42.5063L31.5611 47.2707C31.5611 47.2707 34.5903 53.9062 36.6112 54.8547C38.6321 55.8033 43.2452 46.9545 43.2452 46.9545L42.9293 41.6877H31.137L31.2451 42.5063Z" fill="white" stroke="#2B2B2B" stroke-width="0.5" stroke-miterlimit="10"/>
<path d="M31.2455 42.5063C31.2455 42.5063 35.032 50.7356 37.2434 51.0431C39.4547 51.3507 43.0335 43.4548 43.0335 42.7185C43.0335 41.9822 31.2455 42.5063 31.2455 42.5063Z" fill="#2B2B2B" stroke="#2B2B2B" stroke-width="0.5" stroke-miterlimit="10"/>
<path d="M29.2458 35.4551C29.2458 35.4551 27.4197 33.9565 27.1687 36.0355C26.9177 38.1145 29.5791 40.0289 29.5791 40.0289L29.2458 35.4551Z" fill="white" stroke="#2B2B2B" stroke-width="0.5" stroke-miterlimit="10"/>
<path d="M44.0893 35.4551C44.0893 35.4551 45.9198 33.9565 46.1708 36.0355C46.4217 38.1145 43.7604 40.0289 43.7604 40.0289L44.0893 35.4551Z" fill="white" stroke="#2B2B2B" stroke-width="0.5" stroke-miterlimit="10"/>
<path d="M28.9123 35.7018C28.9123 35.7018 29.912 41.5274 30.7428 42.6058C31.5737 43.6843 34.1486 47.4309 36.559 48.0979C38.9694 48.7649 42.7126 44.1045 43.4569 42.5236C44.2013 40.9427 44.4566 33.9564 44.4566 33.9564L44.3744 30.2142C44.3744 30.2142 44.1234 27.4682 43.0415 25.9695C41.9596 24.4709 37.3076 23.4747 34.2351 24.6615C31.1626 25.8483 28.5834 31.2103 28.5834 32.2932C28.5834 33.376 28.9123 35.7018 28.9123 35.7018Z" fill="white" stroke="#2B2B2B" stroke-width="0.5" stroke-miterlimit="10"/>
<path d="M34.4008 29.2139C34.4008 29.2139 31.8043 32.2111 30.6618 32.7915C30.1427 33.0309 29.6422 33.3089 29.1645 33.6231L29.329 37.1184L28.0004 32.354C28.0004 32.354 26.3387 27.2995 26.6806 25.0559C27.0224 22.8123 34.5739 20.6467 37.2352 19.8151C39.8966 18.9835 40.892 20.6467 42.6359 21.9807C44.3799 23.3147 46.2104 24.3109 45.9637 26.5588C45.7489 28.1224 45.3584 29.6567 44.7997 31.1326C44.7997 31.1326 44.3669 37.3696 44.3669 37.6295C44.3669 37.8894 43.6183 31.4748 43.6183 31.4748C43.1938 31.3631 42.8109 31.1305 42.516 30.8053C42.221 30.4801 42.0267 30.0762 41.9565 29.6427C41.7356 28.5452 41.591 27.4337 41.5238 26.3163C41.5238 26.3163 40.4419 28.5642 39.36 29.6427C38.2782 30.7211 35.6211 31.7217 35.2057 31.6394C34.7902 31.5571 35.6384 29.5604 35.6384 29.5604L34.1411 30.9767L34.4008 29.2139Z" fill="#2B2B2B" stroke="#2B2B2B" stroke-width="0.5" stroke-miterlimit="10"/>
<path d="M35.0665 40.8605C35.4782 41.227 35.9575 41.5095 36.4774 41.6921C37.1439 41.8567 38.3081 40.8605 38.6414 40.6093" stroke="#2B2B2B" stroke-width="0.5" stroke-miterlimit="10"/>
<path d="M34.8148 43.1907C34.8148 43.1907 36.7277 44.6849 39.3028 42.9395Z" fill="white"/>
<path d="M34.8148 43.1907C34.8148 43.1907 36.7277 44.6849 39.3028 42.9395" stroke="#2B2B2B" stroke-width="0.5" stroke-miterlimit="10"/>
<path d="M33.5264 37.8632C33.8251 37.8632 34.0673 37.454 34.0673 36.9493C34.0673 36.4446 33.8251 36.0354 33.5264 36.0354C33.2277 36.0354 32.9855 36.4446 32.9855 36.9493C32.9855 37.454 33.2277 37.8632 33.5264 37.8632Z" fill="#2B2B2B"/>
<path d="M39.8438 37.8632C40.1425 37.8632 40.3847 37.454 40.3847 36.9493C40.3847 36.4446 40.1425 36.0354 39.8438 36.0354C39.545 36.0354 39.3029 36.4446 39.3029 36.9493C39.3029 37.454 39.545 37.8632 39.8438 37.8632Z" fill="#2B2B2B"/>
<path d="M38.5541 34.0388C39.09 33.7579 39.7012 33.6547 40.2994 33.7443C40.8977 33.8338 41.452 34.1114 41.8823 34.5369" stroke="#2B2B2B" stroke-width="0.5" stroke-miterlimit="10"/>
<path d="M34.1491 33.9565C33.7257 33.7055 33.2277 33.6114 32.742 33.6905C32.2562 33.7697 31.8138 34.0171 31.4918 34.3896" stroke="#2B2B2B" stroke-width="0.5" stroke-miterlimit="10"/>
<path d="M40.0521 38.5302L41.8826 38.1144" stroke="#2B2B2B" stroke-width="0.5" stroke-miterlimit="10"/>
<path d="M31.6569 38.0322L33.1542 38.5303" stroke="#2B2B2B" stroke-width="0.5" stroke-miterlimit="10"/>
<path d="M30.4014 58.0122L29.4537 103.49L18.6351 102.966L17.9816 101.714C17.9816 101.714 16.5103 101.714 16.2982 100.554C16.0862 99.3929 17.7696 73.9035 17.7696 73.9035L8.50446 73.0589L14.7144 60.9314C14.7144 60.9314 16.6098 52.5029 17.0296 51.8705C17.4493 51.2381 30.6092 46.7076 30.6092 46.7076L30.4014 58.0122Z" fill="#2B2B2B" stroke="#2B2B2B" stroke-width="0.5" stroke-miterlimit="10"/>
<path d="M43.8764 46.4392L42.3315 103.612L56.2227 103.469L56.7853 101.364L58.1874 100.381V95.8847C58.1874 93.6368 55.5217 77.3426 55.5217 77.3426C55.5217 77.3426 62.5408 76.3594 62.6793 74.9561C62.8178 73.5528 59.7323 52.3427 58.0489 50.7964C56.3655 49.2502 43.8764 46.4392 43.8764 46.4392Z" fill="#2B2B2B" stroke="#2B2B2B" stroke-width="0.5" stroke-miterlimit="10"/>
<path d="M47.3602 79.0402L49.2082 84.3677C49.2082 84.3677 50.2772 81.7949 50.117 80.175C49.9569 78.5551 49.9526 78.0657 49.4679 77.9834C48.9831 77.9011 47.4511 77.5806 47.3602 79.0402Z" fill="white" stroke="#2B2B2B" stroke-width="0.5" stroke-miterlimit="10"/>
<path d="M28.8947 65.1977L34.8103 76.9614L41.0505 73.8775L35.784 61.4685L28.8947 65.1977Z" fill="#75CEA9" stroke="#2B2B2B" stroke-width="0.5" stroke-miterlimit="10"/>
<path d="M39.156 73.4054C39.0852 73.2181 39.0909 73.0104 39.1719 72.8272C39.2528 72.644 39.4026 72.5001 39.5888 72.4266C39.6233 72.4224 39.6582 72.4224 39.6927 72.4266L35.7976 63.292C35.7621 63.3773 35.7079 63.4536 35.639 63.5151C35.5701 63.5765 35.4882 63.6217 35.3994 63.6472C35.2663 63.6782 35.127 63.6683 34.9996 63.6188C34.8722 63.5694 34.7627 63.4827 34.6853 63.37L30.5738 65.5832C30.6268 65.6628 30.6663 65.7506 30.6906 65.8431C30.748 66.0089 30.7495 66.1889 30.6947 66.3555C30.64 66.5222 30.5321 66.6663 30.3877 66.7657L34.4949 74.9041C34.5683 74.8225 34.6626 74.7626 34.7675 74.7308C34.9418 74.6977 35.1221 74.728 35.276 74.8161C35.4299 74.9042 35.5473 75.0445 35.6071 75.2116L39.169 73.4531L39.156 73.4054ZM35.6418 71.3005C34.8844 71.5127 34.0664 70.954 33.8111 70.0487C33.5557 69.1435 33.9582 68.2339 34.7113 68.0217C35.4643 67.8095 36.2866 68.3682 36.542 69.2734C36.7973 70.1787 36.3948 71.0839 35.6418 71.3005V71.3005Z" fill="white" stroke="#2B2B2B" stroke-width="0.5" stroke-miterlimit="10"/>
<path d="M31.4263 63.751L34.5857 76.5325L41.3545 74.9126L38.9698 61.646L31.4263 63.751Z" fill="#75CEA9" stroke="#2B2B2B" stroke-width="0.5" stroke-miterlimit="10"/>
<path d="M39.6099 74.0379C39.5952 73.9386 39.6003 73.8374 39.6248 73.7401C39.6492 73.6427 39.6927 73.5512 39.7526 73.4707C39.8125 73.3903 39.8877 73.3224 39.9739 73.2711C40.0601 73.2197 40.1555 73.186 40.2548 73.1716C40.2893 73.1675 40.3242 73.1675 40.3587 73.1716L38.6275 63.4047C38.5733 63.4796 38.5034 63.5417 38.4226 63.5866C38.3419 63.6315 38.2523 63.6581 38.1601 63.6646C38.0225 63.6637 37.8883 63.6221 37.7743 63.5451C37.6603 63.468 37.5717 63.3589 37.5196 63.2314L32.9926 64.5092C33.0283 64.599 33.0488 64.6941 33.0532 64.7907C33.0721 64.9652 33.0332 65.1411 32.9425 65.2913C32.8518 65.4416 32.7143 65.5578 32.5511 65.6223L34.7367 74.471C34.826 74.4086 34.931 74.3726 35.0397 74.3671C35.2165 74.3712 35.3858 74.4393 35.5163 74.5587C35.6468 74.6782 35.7296 74.8409 35.7495 75.0168L39.6143 74.0942L39.6099 74.0379ZM36.6324 71.1966C35.849 71.2399 35.1738 70.5123 35.1262 69.5724C35.0786 68.6325 35.6716 67.8399 36.4549 67.7966C37.2383 67.7533 37.9091 68.4852 37.961 69.4251C38.0129 70.365 37.433 71.1576 36.6324 71.1966Z" fill="white" stroke="#2B2B2B" stroke-width="0.5" stroke-miterlimit="10"/>
<path d="M35.1697 62.7634L34.4426 75.9088L41.3889 76.3505L42.9989 62.9627L35.1697 62.7634Z" fill="#75CEA9" stroke="#2B2B2B" stroke-width="0.5" stroke-miterlimit="10"/>
<path d="M39.978 74.9949C40.01 74.7966 40.1188 74.619 40.2809 74.5006C40.4429 74.3822 40.6452 74.3326 40.8436 74.3625C40.8797 74.371 40.9146 74.3841 40.9474 74.4015L42.1333 64.5436C42.06 64.6004 41.9749 64.64 41.8843 64.6595C41.7936 64.679 41.6998 64.6779 41.6096 64.6562C41.4782 64.6167 41.3618 64.5386 41.2753 64.432C41.1889 64.3254 41.1365 64.1953 41.1249 64.0585L36.4464 63.9415C36.4548 64.0362 36.446 64.1315 36.4205 64.2231C36.3878 64.3957 36.2994 64.5527 36.1688 64.6701C36.0382 64.7875 35.8727 64.8587 35.6977 64.8727L35.1957 73.9684C35.3017 73.9379 35.4142 73.9379 35.5203 73.9684C35.6882 74.0258 35.8298 74.142 35.9189 74.2956C36.0079 74.4492 36.0385 74.6299 36.005 74.8043L39.9737 75.0555C39.9699 75.0352 39.9714 75.0144 39.978 74.9949V74.9949ZM37.9785 71.4129C37.2211 71.2223 36.7883 70.3301 37.0177 69.4162C37.2471 68.5023 38.0478 67.9176 38.8095 68.1168C39.5712 68.3161 39.9953 69.204 39.7703 70.1179C39.5452 71.0318 38.7402 71.6035 37.9785 71.4129Z" fill="white" stroke="#2B2B2B" stroke-width="0.5" stroke-miterlimit="10"/>
<path d="M49.4682 75.6316C48.7031 75.5166 47.9458 75.3545 47.2006 75.1465C46.876 74.9862 44.5262 74.1719 42.6611 73.2017C40.7959 72.2315 39.2597 73.2017 36.6026 73.6868C33.9456 74.1719 33.1969 74.3365 33.1969 74.9862C33.1969 75.6359 34.5774 75.7962 34.5774 75.7962C34.5774 75.7962 33.2791 75.9564 33.9282 76.8487C34.3106 77.3788 34.8494 77.7757 35.4688 77.9834C35.8277 78.5786 36.2944 79.1015 36.845 79.5254C37.6542 80.0928 38.2211 80.5822 38.2211 80.5822C38.7285 81.2148 39.4033 81.692 40.1684 81.9595C41.3022 82.2844 47.7026 80.3353 47.7026 80.3353C47.7026 80.3353 49.6456 80.9027 50.1346 79.8502C50.6236 78.7977 49.4682 75.6316 49.4682 75.6316Z" fill="white" stroke="#2B2B2B" stroke-width="0.5" stroke-linecap="round" stroke-linejoin="round"/>
<path d="M34.5598 75.7962C34.5598 75.7962 39.42 75.6316 40.9607 75.1465" stroke="#2B2B2B" stroke-width="0.5" stroke-linecap="round" stroke-linejoin="round"/>
<path d="M35.4518 77.9836C36.7915 78.1983 38.146 78.3069 39.5028 78.3084C40.3016 78.2925 41.0828 78.0702 41.7706 77.6631" stroke="#2B2B2B" stroke-width="0.5" stroke-linecap="round" stroke-linejoin="round"/>
<path d="M37.4985 80.0148C37.4985 80.0148 40.3333 80.881 42.2592 80.2573" stroke="#2B2B2B" stroke-width="0.5" stroke-linecap="round" stroke-linejoin="round"/>
<path d="M51.8744 61.75L53.4193 73.8298L49.0659 75.0946C49.0659 75.0946 49.7712 78.7458 49.4986 80.435C49.3156 81.738 49.2216 83.052 49.2173 84.3678C49.2173 84.3678 53.9775 82.8215 57.076 82.54C60.1745 82.2584 62.8315 80.8551 63.671 78.6072C64.5106 76.3593 61.8492 68.6453 61.8492 68.6453" fill="#2B2B2B"/>
<path d="M51.8744 61.75L53.4193 73.8298L49.0659 75.0946C49.0659 75.0946 49.7712 78.7458 49.4986 80.435C49.3156 81.738 49.2216 83.052 49.2173 84.3678C49.2173 84.3678 53.9775 82.8215 57.076 82.54C60.1745 82.2584 62.8315 80.8551 63.671 78.6072C64.5106 76.3593 61.8492 68.6453 61.8492 68.6453" stroke="#2B2B2B" stroke-width="0.5" stroke-miterlimit="10"/>
<path d="M51.2984 74.7394L53.4191 73.8299L58.7857 72.3876" stroke="#6B6B6B" stroke-width="0.5" stroke-miterlimit="10"/>
<path d="M53.4195 73.8299L51.7535 59.5627" stroke="#6B6B6B" stroke-width="0.5" stroke-miterlimit="10"/>
<path d="M25.9793 73.5527C25.9793 73.5527 25.0098 69.2561 24.603 68.4418C24.1962 67.6275 22.0063 69.9058 21.8461 70.6334C21.686 71.3611 25.3301 73.635 25.9793 73.5527Z" fill="white" stroke="#2B2B2B" stroke-width="0.5" stroke-miterlimit="10"/>
<path d="M23.8622 64.509L21.7675 66.9692C21.7675 66.9692 22.3517 70.5728 22.8191 70.7157C23.2865 70.8586 26.6277 68.2815 26.6277 68.2815L23.8622 64.509Z" fill="white" stroke="#2B2B2B" stroke-width="0.5" stroke-miterlimit="10"/>
<path d="M27.7537 59.5758C27.7537 59.5758 24.1057 63.1448 23.859 64.5221C23.6124 65.8994 26.2088 68.4982 26.5334 68.7407C26.858 68.9833 29.2078 67.1165 29.2857 66.7917C29.3636 66.4668 27.7494 63.9547 27.7494 63.9547C28.493 64.3193 29.2154 64.7256 29.9131 65.1718C30.1555 65.4143 31.6961 67.6059 32.263 67.4413C32.8299 67.2768 32.5875 66.2243 32.263 65.2541C31.9384 64.2839 28.4548 61.0354 28.4548 61.0354L30.8046 61.6028C30.8046 61.6028 33.5612 64.2795 34.2103 64.2795C34.8594 64.2795 34.5349 63.6299 34.1281 63.0625C33.7213 62.4951 31.7783 60.2255 31.2936 59.6581C30.8089 59.0907 28.9438 58.7659 28.6971 58.7659C28.4505 58.7659 27.7537 59.5758 27.7537 59.5758Z" fill="white" stroke="#2B2B2B" stroke-width="0.5" stroke-linecap="round" stroke-linejoin="round"/>
<path d="M27.7528 63.9546L26.619 62.8198" stroke="#2B2B2B" stroke-width="0.5" stroke-linecap="round" stroke-linejoin="round"/>
<path d="M25.1608 64.197L28.0778 67.766" stroke="#2B2B2B" stroke-width="0.5" stroke-linecap="round" stroke-linejoin="round"/>
<path d="M21.6857 66.5792C21.6857 66.5792 22.2526 68.524 22.5772 69.741C22.9017 70.9581 25.9785 73.5525 25.9785 73.5525C25.9785 73.5525 21.6035 78.174 17.7131 80.201C13.8227 82.228 9.25289 81.2102 7.87676 79.5903C6.50062 77.9704 7.06752 73.2667 8.20132 72.2921C9.33511 71.3176 15.9302 70.0659 17.553 69.1736C19.1758 68.2814 21.6857 66.5792 21.6857 66.5792Z" fill="#2B2B2B" stroke="#2B2B2B" stroke-width="0.5" stroke-miterlimit="10"/>
<path d="M21.6853 66.5792L11.0225 71.794" stroke="#6B6B6B" stroke-width="0.5" stroke-miterlimit="10"/>
<path d="M20.3005 67.2636V62.2827" stroke="#6B6B6B" stroke-width="0.5" stroke-miterlimit="10"/>
<path d="M91.2612 176.818C91.2612 176.818 89.9629 177.186 86.5009 174.618C83.039 172.05 78.9885 168.381 78.9885 168.381C78.9885 168.381 82.987 167.844 84.8349 166.869C86.8688 165.791 89.2489 163.244 89.2489 163.244C89.2489 163.244 97.311 174.25 107.394 173.518C107.219 174.456 106.81 175.335 106.205 176.072C105.599 176.81 104.818 177.382 103.932 177.736C100.79 179.018 91.2612 176.818 91.2612 176.818Z" fill="#75CEA9" stroke="#2B2B2B" stroke-width="0.5" stroke-linejoin="round"/>
<path d="M104.344 174.778C104.344 174.778 95.7841 172.53 91.1581 167.614C90.9352 167.675 90.7016 167.686 90.4741 167.645C90.2467 167.604 90.0311 167.514 89.8431 167.379C89.655 167.245 89.4991 167.07 89.3868 166.868C89.2744 166.666 89.2084 166.442 89.1934 166.211C87.5762 167.731 85.5027 168.673 83.2951 168.892C83.2951 168.892 83.4336 169.875 83.0138 170.157C83.0138 170.157 89.6089 175.917 93.3997 176.619C96.031 177.146 98.7242 177.292 101.397 177.052C102.551 176.93 103.635 176.438 104.487 175.649C104.487 175.649 103.08 175.341 104.344 174.778ZM96.2602 174.462C95.9529 175.22 94.4253 175.328 92.8458 174.67C91.2663 174.012 90.2493 172.898 90.5349 172.145C90.8205 171.391 92.3698 171.279 93.9493 171.937C95.5288 172.595 96.5631 173.708 96.2602 174.462V174.462Z" fill="white" stroke="#2B2B2B" stroke-width="0.5" stroke-miterlimit="10"/>
<path d="M89.964 176.589C89.964 176.589 94.378 178.408 97.8616 178.408C99.9002 178.419 101.933 178.194 103.92 177.736C103.92 177.736 102.73 178.386 100.796 177.143C99.6921 176.433 98.9824 174.852 98.9824 174.852C96.0712 175.846 93.036 176.431 89.964 176.589V176.589Z" fill="#75CEA9" stroke="#2B2B2B" stroke-width="0.5" stroke-linejoin="round"/>
<path d="M139.548 158.09C139.548 158.09 147.585 155.443 152.284 152.303L157.282 160.533C157.282 160.533 145.33 169.849 142.193 167.398L139.548 158.09Z" fill="#75CEA9" stroke="#2B2B2B" stroke-width="0.5" stroke-linejoin="round"/>
<path d="M153.854 160.052C153.865 159.815 153.952 159.587 154.102 159.403C154.253 159.22 154.459 159.09 154.69 159.034L152.47 155.348C152.284 155.411 152.09 155.444 151.894 155.443C151.656 155.456 151.419 155.411 151.203 155.311C150.986 155.212 150.797 155.061 150.652 154.872C146.502 157.778 140.136 159.268 140.136 159.268L141.409 164.271C141.409 164.271 141.214 167.017 144.641 166.328C147.298 165.795 152.297 162.43 154.421 160.961C154.254 160.874 154.114 160.744 154.014 160.584C153.914 160.424 153.859 160.24 153.854 160.052V160.052ZM145.29 163.733C143.789 164.076 142.391 163.565 142.166 162.59C141.941 161.616 142.98 160.541 144.481 160.195C145.983 159.848 147.385 160.364 147.61 161.338C147.835 162.313 146.796 163.387 145.29 163.733Z" fill="white" stroke="#2B2B2B" stroke-width="0.5" stroke-miterlimit="10"/>
<path d="M138.37 154.365L143.858 165.249C143.858 165.249 141.997 166.228 142.192 167.415L136.903 157.02C136.903 157.02 136.215 155.344 138.37 154.365Z" fill="#75CEA9" stroke="#2B2B2B" stroke-width="0.5" stroke-linejoin="round"/>
<path d="M137.371 157.934L141.448 165.938C141.621 165.553 141.929 165.245 142.313 165.072L137.782 157.111L137.371 157.934Z" fill="white" stroke="#2B2B2B" stroke-width="0.5" stroke-miterlimit="10"/>
<path d="M78.8205 97.3356L78.907 118.199L89.7863 118.152L89.8209 96.8635L78.8205 97.3356Z" fill="#75CEA9" stroke="#2B2B2B" stroke-width="0.5" stroke-miterlimit="10"/>
<path d="M87.402 116.15C87.4113 115.994 87.4516 115.842 87.5204 115.702C87.5893 115.562 87.6854 115.437 87.803 115.335C87.9207 115.232 88.0576 115.154 88.2058 115.105C88.3539 115.057 88.5103 115.038 88.6658 115.05C88.7204 115.061 88.774 115.077 88.8259 115.098L88.8042 99.2151C88.708 99.3021 88.5935 99.3663 88.4692 99.4031C88.3448 99.4398 88.2138 99.4481 88.0858 99.4274C87.8951 99.3804 87.7223 99.2788 87.5885 99.1349C87.4547 98.991 87.3659 98.8112 87.3328 98.6174L80.7717 98.899C80.7931 99.0338 80.7931 99.1712 80.7717 99.3061C80.7498 99.5527 80.6465 99.7849 80.4779 99.9661C80.3094 100.147 80.0854 100.267 79.8412 100.307V115.033C80.0003 114.969 80.1739 114.949 80.3432 114.977C80.613 115.055 80.847 115.225 81.005 115.457C81.163 115.69 81.235 115.97 81.2088 116.25L87.4236 116.224C87.402 116.189 87.3977 116.168 87.402 116.15ZM83.8012 110.667C82.5937 110.446 81.7974 109.073 82.0224 107.596C82.2475 106.119 83.4204 105.101 84.6192 105.327C85.818 105.552 86.6273 106.92 86.3979 108.397C86.1686 109.874 84.9957 110.892 83.8012 110.667Z" fill="white" stroke="#2B2B2B" stroke-width="0.5" stroke-miterlimit="10"/>
<path d="M180.547 9.05627L165.375 24.2416L173.294 32.1678L188.864 16.7659L180.547 9.05627Z" fill="#75CEA9" stroke="#2B2B2B" stroke-width="0.5" stroke-miterlimit="10"/>
<path d="M173.025 28.9928C173.146 28.8848 173.287 28.8021 173.44 28.7498C173.593 28.6975 173.756 28.6766 173.917 28.6883C174.079 28.7001 174.236 28.7442 174.38 28.8181C174.524 28.8919 174.652 28.9941 174.756 29.1184C174.789 29.1674 174.816 29.2197 174.838 29.2743L186.414 17.7316C186.28 17.7246 186.15 17.6875 186.032 17.623C185.914 17.5585 185.813 17.4683 185.735 17.3591C185.631 17.1852 185.58 16.9848 185.589 16.7824C185.597 16.58 185.664 16.3845 185.782 16.22L180.814 11.6072C180.729 11.7204 180.629 11.821 180.516 11.906C180.32 12.0694 180.074 12.162 179.819 12.1691C179.564 12.1762 179.314 12.0972 179.109 11.945L168.347 22.5999C168.508 22.6669 168.648 22.778 168.749 22.9204C168.892 23.1741 168.94 23.4698 168.886 23.7557C168.832 24.0416 168.68 24.2994 168.455 24.484L172.977 29.0144L173.025 28.9928ZM174.41 22.3746C173.691 21.3308 174.12 19.7499 175.362 18.8447C176.604 17.9395 178.196 18.0607 178.91 19.1046C179.624 20.1484 179.196 21.7336 177.954 22.6345C176.712 23.5354 175.111 23.4012 174.41 22.353V22.3746Z" fill="white" stroke="#2B2B2B" stroke-width="0.5" stroke-miterlimit="10"/>
<path d="M76.0116 72.7124L97.1209 64.3574L92.7632 53.3301L71.1735 61.7284L76.0116 72.7124Z" fill="#75CEA9" stroke="#2B2B2B" stroke-width="0.5" stroke-miterlimit="10"/>
<path d="M91.6774 56.5438C90.9115 56.7127 90.1888 56.3359 90.0633 55.6776C90.0588 55.6156 90.0588 55.5533 90.0633 55.4913L73.9695 61.8063C74.0966 61.8698 74.2078 61.9611 74.2947 62.0736C74.3816 62.1861 74.4421 62.3168 74.4714 62.456C74.4986 62.6679 74.4636 62.8831 74.3706 63.0754C74.2776 63.2676 74.1307 63.4287 73.9478 63.5388L76.8256 70.1396C76.9613 70.0654 77.1071 70.0115 77.2583 69.9793C77.5167 69.9031 77.7932 69.9158 78.0435 70.0156C78.2938 70.1153 78.5035 70.2963 78.6388 70.5294L93.5642 64.7169C93.4346 64.5846 93.3459 64.4176 93.3089 64.2361C93.2751 63.9294 93.3514 63.6206 93.5243 63.3651C93.6971 63.1096 93.9552 62.9239 94.2523 62.8415L91.7597 56.5395L91.6774 56.5438ZM87.5577 62.3867C87.813 63.6861 86.7355 65.0591 85.1473 65.4185C83.5591 65.778 82.0705 64.9854 81.8151 63.6861C81.5598 62.3867 82.6374 61.018 84.2255 60.6542C85.8137 60.2904 87.3024 61.07 87.5577 62.3867V62.3867Z" fill="white" stroke="#2B2B2B" stroke-width="0.5" stroke-miterlimit="10"/>
<path d="M150.517 8.98666C150.517 8.98666 151.816 9.32882 153.486 13.3179C155.156 17.307 156.758 22.5218 156.758 22.5218C156.758 22.5218 153.045 20.9366 150.959 20.8283C148.657 20.7113 145.311 21.6945 145.311 21.6945C145.311 21.6945 144.013 8.10741 134.973 3.58127C135.602 2.85719 136.405 2.30515 137.306 1.97707C138.206 1.64899 139.176 1.55565 140.123 1.70584C143.455 2.21692 150.517 8.98666 150.517 8.98666Z" fill="#75CEA9" stroke="#2B2B2B" stroke-width="0.5" stroke-linejoin="round"/>
<path d="M138.237 4.04053C138.237 4.04053 144.442 10.3685 145.909 16.9476C146.132 17.0103 146.337 17.1214 146.511 17.2731C146.686 17.4248 146.824 17.6133 146.917 17.8249C147.009 18.0366 147.054 18.2662 147.047 18.4972C147.041 18.7282 146.983 18.9549 146.879 19.1609C149.045 18.6904 151.305 18.9492 153.309 19.8972C153.309 19.8972 153.69 18.979 154.196 18.953C154.196 18.953 151.47 10.6284 148.571 8.08592C146.575 6.28834 144.332 4.78603 141.911 3.62473C140.856 3.14209 139.674 3.0115 138.54 3.25225C138.54 3.25225 139.626 4.20512 138.237 4.04053ZM145.022 8.44974C145.667 7.96031 147.03 8.66197 148.051 10.022C149.073 11.382 149.393 12.8806 148.744 13.3744C148.095 13.8681 146.736 13.1621 145.715 11.8021C144.693 10.4421 144.386 8.9435 145.022 8.44974Z" fill="white" stroke="#2B2B2B" stroke-width="0.5" stroke-miterlimit="10"/>
<path d="M151.518 9.84879C151.518 9.84879 148.653 6.0373 145.658 4.23983C143.917 3.18482 142.06 2.3346 140.123 1.70605C140.123 1.70605 141.478 1.75803 142.503 3.81537C143.088 4.99347 142.893 6.71297 142.893 6.71297C145.899 7.3543 148.801 8.40962 151.518 9.84879Z" fill="#75CEA9" stroke="#2B2B2B" stroke-width="0.5" stroke-linejoin="round"/>
<path d="M37.3375 5.39621C37.3593 5.2077 37.4381 5.03036 37.5634 4.88793C37.6887 4.7455 37.8544 4.64478 38.0385 4.59926L36.8052 1.19058C36.6252 1.25087 36.4367 1.28159 36.2469 1.28153C35.9205 1.28691 35.6007 1.18832 35.3338 1C33.6029 1.90956 30.3529 3.4948 27.1117 4.16614C24.1592 4.69638 21.1481 4.81879 18.1625 4.52996C18.0468 4.65396 17.9045 4.74999 17.7463 4.81078C17.5881 4.87156 17.4182 4.89551 17.2494 4.8808L16.8383 9.52389C16.9421 9.52389 17.0503 9.52389 17.1585 9.52389C18.024 9.52389 18.7034 9.78376 18.7034 10.1043C18.698 10.1557 18.6807 10.2052 18.6529 10.2488C18.6251 10.2924 18.5876 10.3289 18.5433 10.3555C28.57 10.7366 35.5892 7.26731 37.7183 6.05456C37.6053 5.985 37.5113 5.88842 37.4448 5.7735C37.3784 5.65859 37.3415 5.52894 37.3375 5.39621V5.39621ZM27.4146 7.81738C25.8827 8.1249 24.5411 7.86502 24.4156 7.23699C24.2902 6.60896 25.4283 5.85532 26.9602 5.54781C28.4921 5.24029 29.8336 5.50016 29.9591 6.12819C30.0846 6.75622 28.9465 7.50986 27.4146 7.81738Z" fill="white" stroke="#2B2B2B" stroke-width="0.5" stroke-miterlimit="10"/>
<path d="M179.474 168.792L181.56 176.459C181.56 176.459 171.117 184.203 155.331 182.033L156.196 173.747C156.196 173.747 162.385 174.986 168.036 173.825C173.688 172.664 179.474 168.792 179.474 168.792Z" fill="#75CEA9" stroke="#2B2B2B" stroke-width="0.5" stroke-miterlimit="10"/>
<path d="M178.274 176.125C178.295 175.936 178.374 175.758 178.499 175.614C178.624 175.471 178.79 175.37 178.975 175.324L177.742 171.924C177.561 171.981 177.373 172.01 177.184 172.01C176.851 172.019 176.523 171.922 176.249 171.733C174.557 172.639 171.29 174.224 168.053 174.895C165.1 175.425 162.089 175.548 159.103 175.259C158.988 175.383 158.845 175.479 158.687 175.54C158.529 175.601 158.359 175.624 158.19 175.61L157.801 180.253C157.905 180.253 158.013 180.253 158.125 180.253C158.991 180.253 159.666 180.508 159.666 180.829C159.661 180.88 159.643 180.93 159.616 180.973C159.588 181.017 159.55 181.054 159.506 181.08C169.533 181.466 176.552 177.996 178.685 176.779C178.567 176.714 178.468 176.619 178.396 176.505C178.324 176.391 178.282 176.26 178.274 176.125V176.125ZM168.351 178.542C166.819 178.85 165.478 178.59 165.352 177.966C165.227 177.342 166.365 176.58 167.897 176.272C169.429 175.965 170.77 176.229 170.896 176.853C171.021 177.477 169.883 178.239 168.351 178.542Z" fill="white" stroke="#2B2B2B" stroke-width="0.5" stroke-miterlimit="10"/>
<path d="M70.0575 7.83903C70.0575 7.83903 78.0893 5.19264 82.7932 2.05249L87.7914 10.2819C87.7914 10.2819 75.839 19.607 72.7016 17.1555L70.0575 7.83903Z" fill="#75CEA9" stroke="#2B2B2B" stroke-width="0.5" stroke-linejoin="round"/>
<path d="M84.3597 9.80102C84.3708 9.5633 84.4587 9.33561 84.61 9.15209C84.7614 8.96857 84.9682 8.83913 85.1993 8.78317L82.9749 5.09729C82.7912 5.16093 82.5981 5.19314 82.4037 5.19257C82.1659 5.20535 81.9285 5.15997 81.7121 5.06035C81.4957 4.96074 81.3068 4.8099 81.1617 4.62085C77.0117 7.52711 70.646 9.01706 70.646 9.01706L71.9183 14.0196C71.9183 14.0196 71.7235 16.7657 75.1509 16.077C77.8036 15.5442 82.8018 12.1789 84.931 10.7106C84.7632 10.6239 84.6217 10.4938 84.5213 10.3339C84.4208 10.1739 84.365 9.98989 84.3597 9.80102V9.80102ZM75.8 13.4826C74.2984 13.8247 72.8963 13.3137 72.6756 12.3391C72.4549 11.3646 73.4891 10.2904 74.9908 9.94395C76.4924 9.59745 77.8945 10.1129 78.1195 11.0917C78.3446 12.0706 77.3103 13.1361 75.8 13.4826Z" fill="white" stroke="#2B2B2B" stroke-width="0.5" stroke-miterlimit="10"/>
<path d="M68.8806 4.11414L74.3684 14.9986C74.3684 14.9986 72.5074 15.9774 72.7022 17.1642L67.4091 6.76919C67.4091 6.76919 66.7253 5.093 68.8806 4.11414Z" fill="#75CEA9" stroke="#2B2B2B" stroke-width="0.5" stroke-linejoin="round"/>
<path d="M67.8806 7.68292L71.9531 15.6871C72.1266 15.3024 72.4344 14.9944 72.8187 14.8208L68.2917 6.85999L67.8806 7.68292Z" fill="white" stroke="#2B2B2B" stroke-width="0.5" stroke-miterlimit="10"/>
<path d="M137.249 56.115L122.077 71.3003L129.997 79.2222L145.571 63.8203L137.249 56.115Z" fill="#75CEA9" stroke="#2B2B2B" stroke-width="0.5" stroke-miterlimit="10"/>
<path d="M129.733 76.03C129.854 75.922 129.995 75.8393 130.149 75.787C130.302 75.7347 130.464 75.7138 130.626 75.7255C130.787 75.7372 130.945 75.7814 131.089 75.8552C131.233 75.9291 131.361 76.0313 131.464 76.1556C131.496 76.2048 131.522 76.257 131.542 76.3115L143.131 64.7817C142.998 64.7761 142.867 64.7395 142.75 64.6749C142.633 64.6102 142.532 64.5193 142.456 64.4092C142.352 64.2358 142.3 64.0356 142.308 63.8332C142.316 63.6309 142.382 63.4351 142.499 63.2701L137.532 58.666C137.448 58.7789 137.347 58.8782 137.233 58.9605C137.038 59.1252 136.792 59.2191 136.537 59.227C136.282 59.2348 136.032 59.1562 135.826 59.0039L125.064 69.6544C125.226 69.7234 125.365 69.8359 125.467 69.9792C125.609 70.233 125.657 70.5287 125.603 70.8146C125.55 71.1004 125.397 71.3583 125.172 71.5428L129.673 76.069L129.733 76.03ZM131.114 69.4118C130.4 68.3637 130.828 66.7871 132.07 65.8819C133.312 64.9766 134.9 65.0979 135.614 66.1417C136.328 67.1856 135.904 68.7665 134.658 69.6717C133.412 70.5769 131.837 70.4557 131.114 69.4118Z" fill="white" stroke="#2B2B2B" stroke-width="0.5" stroke-miterlimit="10"/>
<path d="M164.984 93.1645L185.717 95.3301L186.842 84.502L165.703 82.1675L164.984 93.1645Z" fill="#75CEA9" stroke="#2B2B2B" stroke-width="0.5" stroke-miterlimit="10"/>
<path d="M184.597 86.6548C184.443 86.6287 184.297 86.5723 184.165 86.4889C184.034 86.4055 183.92 86.2967 183.831 86.1689C183.742 86.0411 183.68 85.8968 183.647 85.7445C183.614 85.5922 183.612 85.4349 183.641 85.2818C183.659 85.228 183.682 85.1758 183.71 85.1259L167.928 83.4324C168.004 83.5378 168.056 83.6591 168.079 83.7873C168.102 83.9156 168.096 84.0474 168.062 84.173C167.996 84.3546 167.88 84.5134 167.726 84.6302C167.573 84.747 167.389 84.8169 167.196 84.8314L166.763 91.4019C166.9 91.3972 167.037 91.4117 167.17 91.4452C167.413 91.4942 167.633 91.6231 167.795 91.8114C167.956 91.9998 168.05 92.2367 168.062 92.4847L182.676 94.0916C182.628 93.9275 182.628 93.7532 182.676 93.5891C182.78 93.3262 182.973 93.1084 183.221 92.9738C183.47 92.8391 183.758 92.7963 184.034 92.8528L184.675 86.6678L184.597 86.6548ZM178.763 89.6867C178.413 90.8648 176.963 91.5101 175.522 91.1247C174.081 90.7392 173.194 89.4658 173.545 88.2877C173.895 87.1096 175.349 86.4642 176.79 86.8497C178.231 87.2352 179.114 88.4826 178.763 89.665V89.6867Z" fill="white" stroke="#2B2B2B" stroke-width="0.5" stroke-miterlimit="10"/>
<path d="M188.604 112.772C188.604 112.772 189.902 113.114 191.573 117.103C193.243 121.092 194.84 126.307 194.84 126.307C194.84 126.307 191.131 124.722 189.041 124.614C186.743 124.497 183.415 125.48 183.415 125.48C183.415 125.48 182.117 111.893 173.077 107.367C173.708 106.648 174.512 106.102 175.412 105.779C176.312 105.457 177.279 105.368 178.222 105.521C181.537 106.002 188.604 112.772 188.604 112.772Z" fill="#75CEA9" stroke="#2B2B2B" stroke-width="0.5" stroke-linejoin="round"/>
<path d="M176.319 107.822C176.319 107.822 182.529 114.136 183.996 120.733C184.218 120.794 184.424 120.905 184.599 121.056C184.774 121.207 184.913 121.395 185.005 121.607C185.098 121.818 185.143 122.048 185.136 122.279C185.129 122.51 185.071 122.736 184.965 122.942C187.129 122.469 189.388 122.725 191.391 123.67C191.391 123.67 191.777 122.751 192.279 122.725C192.279 122.725 189.557 114.401 186.653 111.858C184.661 110.057 182.421 108.552 180.002 107.388C178.947 106.906 177.765 106.775 176.63 107.016C176.63 107.016 177.708 107.99 176.319 107.822ZM183.104 112.231C183.753 111.741 185.112 112.443 186.134 113.803C187.155 115.163 187.475 116.662 186.826 117.155C186.177 117.649 184.818 116.943 183.797 115.583C182.775 114.223 182.468 112.729 183.104 112.235V112.231Z" fill="white" stroke="#2B2B2B" stroke-width="0.5" stroke-miterlimit="10"/>
<path d="M189.599 113.634C189.599 113.634 186.734 109.809 183.744 108.025C182.001 106.975 180.142 106.131 178.205 105.509C178.205 105.509 179.564 105.561 180.585 107.618C181.173 108.796 180.974 110.515 180.974 110.515C183.98 111.151 186.882 112.2 189.599 113.634V113.634Z" fill="#75CEA9" stroke="#2B2B2B" stroke-width="0.5" stroke-linejoin="round"/>
<path d="M178.572 62.7029C178.572 62.7029 171.566 67.4456 167.896 71.7509L160.83 65.1934C160.83 65.1934 169.783 52.9619 173.47 54.4649L178.572 62.7029Z" fill="#75CEA9" stroke="#2B2B2B" stroke-width="0.5" stroke-linejoin="round"/>
<path d="M164.292 64.7299C164.347 64.9608 164.325 65.2032 164.23 65.4205C164.134 65.6378 163.971 65.818 163.764 65.934L166.906 68.8749C167.067 68.7644 167.246 68.681 167.434 68.6281C167.659 68.5505 167.899 68.5289 168.135 68.5651C168.37 68.6013 168.593 68.6943 168.784 68.836C171.986 64.9075 177.703 61.7327 177.703 61.7327L175.107 57.2672C175.107 57.2672 174.544 54.5732 171.433 56.1714C169.026 57.4101 165.132 61.9969 163.492 64.011C163.677 64.0476 163.85 64.1337 163.991 64.2602C164.132 64.3868 164.236 64.5491 164.292 64.7299ZM171.523 58.8481C172.874 58.1031 174.362 58.2158 174.843 59.0907C175.323 59.9656 174.618 61.2866 173.267 62.0272C171.917 62.7679 170.429 62.6596 169.944 61.7804C169.459 60.9011 170.156 59.5888 171.51 58.8481H171.523Z" fill="white" stroke="#2B2B2B" stroke-width="0.5" stroke-miterlimit="10"/>
<path d="M180.737 65.9643L172.488 56.9943C172.488 56.9943 174.012 55.5433 173.501 54.4648L181.43 63.0147C181.43 63.0147 182.529 64.431 180.737 65.9643Z" fill="#75CEA9" stroke="#2B2B2B" stroke-width="0.5" stroke-linejoin="round"/>
<path d="M180.712 62.2567L174.61 55.6732C174.554 56.0916 174.349 56.4759 174.034 56.756L180.526 63.1619L180.712 62.2567Z" fill="white" stroke="#2B2B2B" stroke-width="0.5" stroke-miterlimit="10"/>
<path d="M1 184.995H208" stroke="#2B2B2B" stroke-width="0.5" stroke-linecap="round" stroke-linejoin="round"/>
</svg>
