<svg width="214" height="186" viewBox="0 0 214 186" fill="none" xmlns="http://www.w3.org/2000/svg">
<path d="M12.1069 141.637H207.489" stroke="#2B2B2B" stroke-width="0.5" stroke-miterlimit="10"/>
<path d="M12.1069 104.679H207.489" stroke="#2B2B2B" stroke-width="0.5" stroke-miterlimit="10"/>
<path d="M12.1069 67.7148H207.489" stroke="#2B2B2B" stroke-width="0.5" stroke-miterlimit="10"/>
<path d="M12.1069 30.7512H207.489" stroke="#2B2B2B" stroke-width="0.5" stroke-miterlimit="10"/>
<path d="M56.53 9.76257V141.729" stroke="#2B2B2B" stroke-width="0.5" stroke-miterlimit="10"/>
<path d="M173.968 9.76257V141.729" stroke="#2B2B2B" stroke-width="0.5" stroke-miterlimit="10"/>
<path d="M60.8884 58.6809L59.4388 60.2116" stroke="#2B2B2B" stroke-width="0.5" stroke-miterlimit="10"/>
<path d="M85.654 32.5822L62.6425 56.8355" stroke="#2B2B2B" stroke-width="0.5" stroke-miterlimit="10"/>
<path d="M87.0898 36.53L74.1604 49.8071" stroke="#2B2B2B" stroke-width="0.5" stroke-miterlimit="10"/>
<path d="M178.99 58.6809L177.541 60.2116" stroke="#2B2B2B" stroke-width="0.5" stroke-miterlimit="10"/>
<path d="M203.756 32.5822L180.744 56.8355" stroke="#2B2B2B" stroke-width="0.5" stroke-miterlimit="10"/>
<path d="M205.192 36.53L192.262 49.8071" stroke="#2B2B2B" stroke-width="0.5" stroke-miterlimit="10"/>
<path d="M9.17365 133.325L7.72412 134.856" stroke="#2B2B2B" stroke-width="0.5" stroke-miterlimit="10"/>
<path d="M33.9398 107.222L10.9282 131.48" stroke="#2B2B2B" stroke-width="0.5" stroke-miterlimit="10"/>
<path d="M35.376 111.169L22.4465 124.446" stroke="#2B2B2B" stroke-width="0.5" stroke-miterlimit="10"/>
<path d="M28.2105 27.1038L26.7561 28.6344" stroke="#2B2B2B" stroke-width="0.5" stroke-miterlimit="10"/>
<path d="M52.972 1L29.9604 25.2533" stroke="#2B2B2B" stroke-width="0.5" stroke-miterlimit="10"/>
<path d="M54.4128 4.94775L41.4834 18.2248" stroke="#2B2B2B" stroke-width="0.5" stroke-miterlimit="10"/>
<path d="M135.827 27.1038L134.372 28.6344" stroke="#2B2B2B" stroke-width="0.5" stroke-miterlimit="10"/>
<path d="M160.589 1L137.577 25.2533" stroke="#2B2B2B" stroke-width="0.5" stroke-miterlimit="10"/>
<path d="M162.029 4.94775L149.099 18.2248" stroke="#2B2B2B" stroke-width="0.5" stroke-miterlimit="10"/>
<path d="M102.548 97.0786L101.099 98.6093" stroke="#2B2B2B" stroke-width="0.5" stroke-miterlimit="10"/>
<path d="M127.315 70.9796L104.303 95.2329" stroke="#2B2B2B" stroke-width="0.5" stroke-miterlimit="10"/>
<path d="M128.75 74.9274L115.821 88.2045" stroke="#2B2B2B" stroke-width="0.5" stroke-miterlimit="10"/>
<path d="M89.1686 47.2981H116.286C118.665 47.2981 120.946 48.2422 122.627 49.9228C124.309 51.6033 125.254 53.8826 125.254 56.2593V134.493H80.2006V56.2544C80.2018 53.8786 81.1473 51.6006 82.829 49.9211C84.5107 48.2416 86.791 47.2981 89.1686 47.2981Z" fill="#2B2B2B" stroke="#2B2B2B" stroke-width="0.5" stroke-linecap="round" stroke-linejoin="round"/>
<path d="M130.568 180.272L106.771 173.278V165.494H105.428V136.755H101.201V165.494H99.858V173.069L76.0612 180.272V181.411H76.3811C76.1975 181.746 76.1024 182.123 76.1048 182.505C76.1033 182.907 76.2066 183.303 76.4045 183.653C76.6024 184.003 76.888 184.295 77.2334 184.501C77.5787 184.708 77.9718 184.82 78.374 184.829C78.7762 184.837 79.1737 184.741 79.5272 184.549C79.8808 184.357 80.1783 184.077 80.3905 183.735C80.6027 183.394 80.7223 183.003 80.7374 182.601C80.7526 182.199 80.6628 181.801 80.477 181.444C80.2911 181.088 80.0156 180.786 79.6775 180.568L79.7259 180.519L101.54 177.899V181.038C101.261 181.377 101.084 181.788 101.03 182.223C100.975 182.659 101.046 183.101 101.233 183.498C101.421 183.895 101.717 184.23 102.088 184.465C102.459 184.7 102.89 184.825 103.329 184.825C103.768 184.825 104.198 184.7 104.569 184.465C104.94 184.23 105.237 183.895 105.424 183.498C105.612 183.101 105.683 182.659 105.628 182.223C105.574 181.788 105.397 181.377 105.118 181.038V177.899L126.883 180.515C126.492 180.745 126.177 181.085 125.978 181.493C125.778 181.901 125.703 182.359 125.762 182.809C125.821 183.259 126.011 183.682 126.308 184.025C126.606 184.368 126.997 184.616 127.435 184.739C127.872 184.861 128.336 184.853 128.769 184.714C129.201 184.575 129.583 184.312 129.868 183.958C130.152 183.604 130.326 183.174 130.367 182.722C130.409 182.27 130.317 181.816 130.102 181.416H130.587L130.568 180.272Z" fill="#2B2B2B" stroke="#2B2B2B" stroke-width="0.5" stroke-linecap="round" stroke-linejoin="round"/>
<path d="M123.859 134.444H82.431C80.482 134.444 78.902 136.023 78.902 137.971V141.521C78.902 143.469 80.482 145.048 82.431 145.048H123.859C125.808 145.048 127.388 143.469 127.388 141.521V137.971C127.388 136.023 125.808 134.444 123.859 134.444Z" fill="white" stroke="#2B2B2B" stroke-width="0.5" stroke-linecap="round" stroke-linejoin="round"/>
<path d="M120.388 117.249H86.7113V135.96H120.388V117.249Z" fill="white" stroke="#2B2B2B" stroke-width="0.5" stroke-linecap="round" stroke-linejoin="round"/>
<path d="M100.464 63.3943L95.3059 65.4142C95.3059 65.4142 97.1722 76.9959 99.6687 82.9733C102.165 88.9506 111.259 98.4398 111.259 98.4398C111.259 98.4398 115.971 91.5663 117.615 86.1121C119.258 80.6579 117.542 65.3367 117.542 65.3367C116.366 64.6526 115.072 64.1958 113.727 63.9901C111.385 63.6171 100.464 63.3943 100.464 63.3943Z" fill="white" stroke="#2B2B2B" stroke-width="0.5" stroke-linecap="round" stroke-linejoin="round"/>
<path d="M105.476 71.5415L107.862 76.119L103.906 84.8429L110.261 94.4047L114.149 85.6615L109.437 75.9495L111.905 71.6869L108.39 68.175L105.476 71.5415Z" fill="#2B2B2B" stroke="#2B2B2B" stroke-width="0.5" stroke-linecap="round" stroke-linejoin="round"/>
<path d="M101.215 62.8711L99.5668 63.3216L97.9962 66.0826L101.874 77.0685L108.234 70.4954L115.186 77.5917C115.186 77.5917 116.01 66.5331 116.01 65.264C116.01 63.9949 114.89 63.5444 114.071 63.3264C113.252 63.1084 101.215 62.8711 101.215 62.8711Z" fill="white" stroke="#2B2B2B" stroke-width="0.5" stroke-linecap="round" stroke-linejoin="round"/>
<path d="M99.5668 63.3217C99.5668 63.3217 100.279 73.2565 104.414 81.9997C106.552 86.5045 110.547 92.8355 110.547 92.6126C110.547 92.3898 114.507 80.6579 114.657 76.6956C114.808 72.7333 115.554 64.2904 115.554 64.2904C115.554 64.2904 123.223 67.3421 125.055 68.4029C127.896 70.045 131.483 70.418 131.411 72.3603C131.382 73.0676 131.866 77.6886 132.482 83.3221C132.579 84.2182 137.393 91.9054 137.494 92.8355C138.527 102.218 135.022 106.171 134.848 106.214C134.552 106.287 128.342 106.214 128.342 106.214C128.342 106.214 131.711 121.531 132.22 122.354L132.744 123.173H106.029L104.914 119.811L103.92 123.173H76.4583L80.1231 106.51H76.085C76.085 106.51 75.0379 104.417 76.4583 96.5701C77.8786 88.723 82.6681 69.0714 82.6681 68.4029C82.6681 67.7344 97.9962 64.9637 99.5668 63.3217Z" fill="#75CEA9" stroke="#2B2B2B" stroke-width="0.5" stroke-linecap="round" stroke-linejoin="round"/>
<path d="M105.277 102.145L104.914 119.811" stroke="#2B2B2B" stroke-width="0.5" stroke-linecap="round" stroke-linejoin="round"/>
<path d="M115.569 95.4509C119.985 91.3433 121.929 83.1233 121.929 83.1233L117.964 81.4037L121.779 79.5339L118.482 65.4867C116.616 63.8785 115.52 63.9221 115.574 64.2757C115.574 64.2757 114.827 72.7186 114.677 76.6809C114.527 80.6432 110.556 92.3896 110.556 92.6124C110.556 92.8353 106.16 86.6738 104.424 81.9995C100.381 71.1201 99.6057 64.5615 99.4894 63.3069C99.4881 63.2862 99.4813 63.2661 99.4696 63.2489C99.458 63.2316 99.4419 63.2179 99.4231 63.2089C99.4042 63.2 99.3834 63.1963 99.3627 63.1982C99.3419 63.2001 99.3221 63.2076 99.3052 63.2197C98.7477 63.5491 97.3661 63.8204 96.3966 64.6729C96.1252 66.6105 95.7761 69.4199 95.5337 72.5103C95.0878 78.2648 95.0878 80.803 95.0878 80.803L100.246 82.077L96.5808 84.1695C96.5808 84.1695 100.619 88.2772 103.983 91.3433C107.347 94.4095 109.587 95.5236 109.587 95.5236L105.277 102.145C105.277 102.145 111.158 99.5634 115.569 95.4509Z" fill="#75CEA9" stroke="#2B2B2B" stroke-width="0.5" stroke-linecap="round" stroke-linejoin="round"/>
<path d="M100.463 57.9399V64.3678C100.463 64.3678 102.112 69.7445 107.944 70.1175C114.076 70.5147 115.124 64.5906 115.124 64.5906V58.9087C115.124 58.9087 103.77 61.6746 100.463 57.9399Z" fill="white" stroke="#2B2B2B" stroke-width="0.5" stroke-linecap="round" stroke-linejoin="round"/>
<path d="M116.543 49.2695C116.543 49.2695 116.766 46.3632 118.56 46.3632C120.354 46.3632 120.359 49.7248 119.908 51.0714C119.457 52.418 117.14 53.3868 116.393 52.3405" fill="white"/>
<path d="M116.543 49.2695C116.543 49.2695 116.766 46.3632 118.56 46.3632C120.354 46.3632 120.359 49.7248 119.908 51.0714C119.457 52.418 117.14 53.3868 116.393 52.3405" stroke="#2B2B2B" stroke-width="0.5" stroke-linecap="round" stroke-linejoin="round"/>
<path d="M109.102 34.7234C109.102 34.7234 102.494 34.4812 100.211 36.1766C97.928 37.8719 98.4079 42.4203 98.4079 43.859C98.4079 45.2976 99.4889 57.664 100.211 59.466C100.933 61.2679 106.193 64.0095 110.779 62.9536C115.365 61.8976 116.785 58.6328 117.023 56.952C117.26 55.2712 117.265 42.4203 117.023 39.0684C116.78 35.7164 112.34 35.0818 109.102 34.7234Z" fill="white" stroke="#2B2B2B" stroke-width="0.5" stroke-linecap="round" stroke-linejoin="round"/>
<path d="M117.09 40.381C117.09 39.8482 117.052 39.4123 117.023 39.0441C116.785 35.6825 112.34 35.0818 109.097 34.7234C109.097 34.7234 102.489 34.4812 100.206 36.1766C97.923 37.8719 98.4029 42.4203 98.4029 43.859C98.4029 44.4354 98.5774 46.7653 98.8343 49.4585C98.95 49.5236 99.0792 49.5609 99.2118 49.5674C99.3445 49.5739 99.4768 49.5493 99.5982 49.4957C99.7196 49.4421 99.8269 49.3609 99.9114 49.2585C99.9959 49.1562 100.055 49.0356 100.085 48.9063C100.57 47.5839 99.8475 46.3875 100.449 44.7066C101.05 43.0258 101.287 41.9456 102.732 41.1028C103.637 40.5843 104.605 40.1823 105.611 39.9063C105.611 39.9063 102.611 43.3843 109.218 43.2632C113.508 43.1663 115.927 42.275 117.09 40.381Z" fill="#2B2B2B" stroke="#2B2B2B" stroke-width="0.5" stroke-linecap="round" stroke-linejoin="round"/>
<path d="M110.411 46.5083C110.411 46.5083 111.531 51.8124 110.484 52.321C109.436 52.8296 108.767 52.9943 107.866 51.202" stroke="#2B2B2B" stroke-width="0.5" stroke-linecap="round" stroke-linejoin="round"/>
<path d="M104.579 52.2581C104.579 52.2581 104.351 54.7284 109.364 54.3506" stroke="#2B2B2B" stroke-width="0.5" stroke-linecap="round" stroke-linejoin="round"/>
<path d="M106.15 46.6199C106.15 47.1334 105.932 47.5548 105.665 47.5548C105.399 47.5548 105.181 47.1334 105.181 46.6199C105.181 46.1065 105.399 45.6851 105.665 45.6851C105.932 45.6851 106.15 46.1016 106.15 46.6199Z" fill="#2B2B2B"/>
<path d="M113.664 46.6199C113.664 47.1334 113.446 47.5548 113.179 47.5548C112.912 47.5548 112.694 47.1334 112.694 46.6199C112.694 46.1065 112.912 45.6851 113.179 45.6851C113.446 45.6851 113.664 46.1016 113.664 46.6199Z" fill="#2B2B2B"/>
<path d="M107.294 48.8237H103.232C103.021 48.8229 102.818 48.749 102.656 48.6147C102.494 48.4804 102.384 48.2939 102.345 48.0874L101.811 45.2344H108.54L108.191 48.0341C108.163 48.252 108.057 48.4523 107.892 48.5975C107.727 48.7428 107.514 48.8232 107.294 48.8237V48.8237Z" stroke="#2B2B2B" stroke-width="0.5" stroke-linecap="round" stroke-linejoin="round"/>
<path d="M115.971 48.8237H111.908C111.698 48.8238 111.493 48.7503 111.331 48.6158C111.169 48.4813 111.06 48.2944 111.021 48.0874L110.483 45.2344H117.217L116.858 48.0341C116.83 48.2504 116.725 48.4493 116.562 48.5944C116.399 48.7394 116.189 48.8208 115.971 48.8237V48.8237Z" stroke="#2B2B2B" stroke-width="0.5" stroke-linecap="round" stroke-linejoin="round"/>
<path d="M108.54 45.2344H110.484" stroke="#2B2B2B" stroke-width="0.5" stroke-linecap="round" stroke-linejoin="round"/>
<path d="M101.811 45.2344L98.5973 46.6536" stroke="#2B2B2B" stroke-width="0.5" stroke-linecap="round" stroke-linejoin="round"/>
<path d="M99.3442 49.2695C99.3442 49.2695 99.1212 46.3632 97.3226 46.3632C95.524 46.3632 95.5288 49.7248 95.9797 51.0714C96.4306 52.418 98.743 53.3868 99.4944 52.3405" fill="white"/>
<path d="M99.3442 49.2695C99.3442 49.2695 99.1212 46.3632 97.3226 46.3632C95.524 46.3632 95.5288 49.7248 95.9797 51.0714C96.4306 52.418 98.743 53.3868 99.4944 52.3405" stroke="#2B2B2B" stroke-width="0.5" stroke-linecap="round" stroke-linejoin="round"/>
<path d="M118.711 86.5577C117.699 85.6042 116.467 84.9167 115.123 84.5572C114.689 84.4074 114.223 84.3708 113.771 84.4506C113.17 84.4506 110.188 83.3753 109.442 83.1525C108.695 82.9296 108.244 83.6756 108.472 84.4991C108.7 85.3225 110.295 86.02 110.896 86.1702C111.497 86.3204 111.24 86.3349 111.24 86.3349C111.24 86.3349 112.21 88.7278 111.764 89.6239C111.318 90.52 109.742 92.5302 110.266 93.9592C110.789 95.3881 111.613 96.1244 113.257 96.1244C114.9 96.1244 115.875 96.1971 116.248 96.1244C116.621 96.0517 123.277 99.3359 122.55 99.4134C121.823 99.4909 122.25 92.7627 122.25 92.7627L118.711 86.5577Z" fill="white" stroke="#2B2B2B" stroke-width="0.5" stroke-linecap="round" stroke-linejoin="round"/>
<path d="M103.605 90.5199C103.605 90.5199 107.119 88.8003 108.84 87.0807C110.561 85.3611 111.158 84.9155 111.749 84.7653C112.34 84.6152 114.74 83.9419 115.336 83.4187C115.932 82.8956 116.383 83.8692 115.486 84.6152C114.831 85.1478 114.13 85.6227 113.392 86.0344C113.019 86.2621 112.646 87.3084 112.646 87.3084C112.646 87.3084 116.311 85.7389 117.581 86.1119C118.851 86.4849 120.111 87.6184 120.033 88.2868C119.956 88.9553 119.723 88.6356 118.899 88.5581C118.075 88.4806 116.907 88.127 115.991 88.5C115.074 88.8729 114.052 89.7739 114.052 90.1469C114.052 90.5199 115.099 90.7427 115.923 90.67C116.747 90.5974 117.343 90.3697 118.162 90.5199C118.982 90.67 119.66 91.1157 119.733 91.5661C119.806 92.0166 119.437 92.0118 118.536 92.0893C117.634 92.1668 116.068 92.2394 115.545 92.6124C115.021 92.9854 112.331 94.2545 112.781 94.705C113.232 95.1555 113.499 95.1555 114.396 95.1555C115.293 95.1555 116.252 94.4676 116.776 94.5064C117.479 94.5597 117.857 94.6129 117.857 94.6129C117.857 94.6129 119.103 94.6662 118.991 95.1555C118.817 95.9402 118.4 95.9644 116.592 96.0467C115.176 96.1146 114.798 95.9741 113.528 96.2744C112.439 96.6247 111.307 96.8251 110.164 96.8702C107.992 97.0204 104.104 95.9741 104.104 95.9741L103.605 90.5199Z" fill="white" stroke="#2B2B2B" stroke-width="0.5" stroke-linecap="round" stroke-linejoin="round"/>
<path d="M117.717 85.6422C117.717 85.6422 116.204 84.2327 115.337 84.1891C114.469 84.1455 111.822 86.4609 111.458 87.3279C111.095 88.195 111.943 87.8656 112.646 87.6525C113.349 87.4393 115.244 86.5674 115.894 86.301C116.425 86.0397 117.032 85.9762 117.605 86.1218" fill="white"/>
<path d="M117.717 85.6422C117.717 85.6422 116.204 84.2327 115.337 84.1891C114.469 84.1455 111.822 86.4609 111.458 87.3279C111.095 88.195 111.943 87.8656 112.646 87.6525C113.349 87.4393 115.244 86.5674 115.894 86.301C116.425 86.0397 117.032 85.9762 117.605 86.1218" stroke="#2B2B2B" stroke-width="0.5" stroke-linecap="round" stroke-linejoin="round"/>
<path d="M119.666 88.7229C119.666 88.7229 117.504 87.6427 116.151 88.2385C114.798 88.8343 113.121 90.0259 113.121 90.5635C113.121 91.1012 113.392 90.9995 114.575 90.9414C115.758 90.8832 117.896 90.5393 118.182 90.5248C118.611 90.5739 119.034 90.6598 119.448 90.7815" fill="white"/>
<path d="M119.666 88.7229C119.666 88.7229 117.504 87.6427 116.151 88.2385C114.798 88.8343 113.121 90.0259 113.121 90.5635C113.121 91.1012 113.392 90.9995 114.575 90.9414C115.758 90.8832 117.896 90.5393 118.182 90.5248C118.611 90.5739 119.034 90.6598 119.448 90.7815" stroke="#2B2B2B" stroke-width="0.5" stroke-linecap="round" stroke-linejoin="round"/>
<path d="M89.3239 82.2274L87.4528 92.2397C87.4528 92.2397 103.683 89.0234 104.279 89.4739C104.875 89.9244 105.418 101.806 105.418 101.806C105.418 101.806 84.4618 105.464 81.9944 106.287C79.527 107.11 76.982 107.256 76.0852 106.51C75.1883 105.764 75.1156 103.894 75.7846 100.213C76.4536 96.5314 82.8912 69.8029 82.8912 69.8029" fill="#75CEA9"/>
<path d="M89.3239 82.2274L87.4528 92.2397C87.4528 92.2397 103.683 89.0234 104.279 89.4739C104.875 89.9244 105.418 101.806 105.418 101.806C105.418 101.806 84.4618 105.464 81.9944 106.287C79.527 107.11 76.982 107.256 76.0852 106.51C75.1883 105.764 75.1156 103.894 75.7846 100.213C76.4536 96.5314 82.8912 69.8029 82.8912 69.8029" stroke="#2B2B2B" stroke-width="0.5" stroke-linecap="round" stroke-linejoin="round"/>
<path d="M126.936 81.554L127.61 92.9855L122.225 92.7627L121.706 102.237C121.706 102.237 136.549 105.691 137.373 106.112C138.197 106.534 138.047 105.667 139.017 104.243C139.986 102.819 140.815 99.7621 140.737 98.4301C140.66 97.098 137.596 92.6174 137.524 92.8257" fill="#75CEA9"/>
<path d="M126.936 81.554L127.61 92.9855L122.225 92.7627L121.706 102.237C121.706 102.237 136.549 105.691 137.373 106.112C138.197 106.534 138.047 105.667 139.017 104.243C139.986 102.819 140.815 99.7621 140.737 98.4301C140.66 97.098 137.596 92.6174 137.524 92.8257" stroke="#2B2B2B" stroke-width="0.5" stroke-linecap="round" stroke-linejoin="round"/>
<path d="M127.61 92.9855H132.623" stroke="#2B2B2B" stroke-width="0.5" stroke-linecap="round" stroke-linejoin="round"/>
<path d="M87.4527 92.2396L80.7965 94.555" stroke="#2B2B2B" stroke-width="0.5" stroke-linecap="round" stroke-linejoin="round"/>
<path d="M89.0425 173.254C89.0425 173.254 87.9566 177.918 86.4393 179.551C84.922 181.183 83.5308 182.263 83.618 183.561L83.7247 184.864H99.3436V180.95C99.3436 178.674 98.3741 174.653 98.3741 173.04C98.3741 171.427 88.6111 173.147 88.6111 173.147" fill="#2B2B2B"/>
<path d="M89.0425 173.254C89.0425 173.254 87.9566 177.918 86.4393 179.551C84.922 181.183 83.5308 182.263 83.618 183.561L83.7247 184.864H99.3436V180.95C99.3436 178.674 98.3741 174.653 98.3741 173.04C98.3741 171.427 88.6111 173.147 88.6111 173.147" stroke="#2B2B2B" stroke-width="0.5" stroke-linecap="round" stroke-linejoin="round"/>
<path d="M83.9918 182.253C83.7265 182.633 83.5952 183.089 83.6185 183.552L83.7251 184.855H99.3441V182.253H83.9918Z" fill="#586166" stroke="#2B2B2B" stroke-width="0.5" stroke-linecap="round" stroke-linejoin="round"/>
<path d="M102.601 131.853C102.601 131.853 104.118 122.209 101.515 117.767C98.912 113.325 89.7985 113.214 84.7037 116.246C79.6089 119.278 77.6262 124.253 79.4683 130.647C81.3104 137.041 85.5714 137.167 85.5714 137.167C85.5714 137.167 84.4856 145.944 84.4856 149.412C84.4856 152.88 88.1746 174.45 88.1746 174.45H98.9217C98.9217 174.45 102.383 136.406 102.601 131.853Z" fill="#586166" stroke="#2B2B2B" stroke-width="0.5" stroke-linecap="round" stroke-linejoin="round"/>
<path d="M85.5719 137.167L86.653 128.278" stroke="#2B2B2B" stroke-width="0.5" stroke-linecap="round" stroke-linejoin="round"/>
<path d="M120.615 173.254C120.615 173.254 121.701 177.918 123.218 179.551C124.735 181.183 126.127 182.263 126.039 183.561L125.933 184.864H110.314V180.95C110.314 178.674 111.283 174.653 111.283 173.04C111.283 171.427 121.046 173.147 121.046 173.147" fill="#2B2B2B"/>
<path d="M120.615 173.254C120.615 173.254 121.701 177.918 123.218 179.551C124.735 181.183 126.127 182.263 126.039 183.561L125.933 184.864H110.314V180.95C110.314 178.674 111.283 174.653 111.283 173.04C111.283 171.427 121.046 173.147 121.046 173.147" stroke="#2B2B2B" stroke-width="0.5" stroke-linecap="round" stroke-linejoin="round"/>
<path d="M125.661 182.253C125.928 182.632 126.061 183.089 126.039 183.552L125.933 184.855H110.314V182.253H125.661Z" fill="#586166" stroke="#2B2B2B" stroke-width="0.5" stroke-linecap="round" stroke-linejoin="round"/>
<path d="M107.057 131.853C107.057 131.853 105.54 122.209 108.143 117.767C110.746 113.325 119.859 113.214 124.954 116.246C130.049 119.278 132.075 124.253 130.228 130.647C128.381 137.041 124.087 137.167 124.087 137.167C124.087 137.167 125.172 145.944 125.172 149.412C125.172 152.88 121.483 174.45 121.483 174.45H110.746C110.746 174.45 107.275 136.406 107.057 131.853Z" fill="#586166" stroke="#2B2B2B" stroke-width="0.5" stroke-linecap="round" stroke-linejoin="round"/>
<path d="M124.085 137.167L123 128.278" stroke="#2B2B2B" stroke-width="0.5" stroke-linecap="round" stroke-linejoin="round"/>
<path d="M129.277 17.0188H150.733C151.34 17.0188 151.921 17.2597 152.351 17.6884C152.78 18.1172 153.021 18.6987 153.021 19.3051V29.2545C153.021 29.8608 152.78 30.4424 152.351 30.8711C151.921 31.2999 151.34 31.5408 150.733 31.5408H144.29L145.972 36.094L140.674 31.5408H129.277C128.977 31.5408 128.679 31.4816 128.402 31.3667C128.124 31.2518 127.872 31.0834 127.659 30.8711C127.447 30.6588 127.278 30.4068 127.163 30.1294C127.048 29.852 126.989 29.5547 126.989 29.2545V19.3051C126.989 19.0049 127.048 18.7076 127.163 18.4302C127.278 18.1528 127.447 17.9008 127.659 17.6884C127.872 17.4761 128.124 17.3077 128.402 17.1928C128.679 17.0779 128.977 17.0188 129.277 17.0188V17.0188Z" fill="#2B2B2B" stroke="#2B2B2B" stroke-width="0.5" stroke-linecap="round" stroke-linejoin="round"/>
<path d="M145.376 25.2534C146.064 25.2534 146.622 24.6961 146.622 24.0086C146.622 23.321 146.064 22.7637 145.376 22.7637C144.688 22.7637 144.13 23.321 144.13 24.0086C144.13 24.6961 144.688 25.2534 145.376 25.2534Z" fill="#75CEA9"/>
<path d="M139.409 25.2534C140.097 25.2534 140.655 24.6961 140.655 24.0086C140.655 23.321 140.097 22.7637 139.409 22.7637C138.721 22.7637 138.163 23.321 138.163 24.0086C138.163 24.6961 138.721 25.2534 139.409 25.2534Z" fill="#75CEA9"/>
<path d="M133.446 25.2534C134.134 25.2534 134.692 24.6961 134.692 24.0086C134.692 23.321 134.134 22.7637 133.446 22.7637C132.758 22.7637 132.2 23.321 132.2 24.0086C132.2 24.6961 132.758 25.2534 133.446 25.2534Z" fill="#75CEA9"/>
<path d="M45.9235 97.9746L42.1566 105.923H52.8366L56.6034 98.3621L45.9235 97.9746Z" fill="#2B2B2B" stroke="#2B2B2B" stroke-width="0.5" stroke-linecap="round" stroke-linejoin="round"/>
<path d="M69.3701 97.9746H45.9222L49.6937 105.923H73.1367L69.3701 97.9746Z" fill="white" stroke="#2B2B2B" stroke-width="0.5" stroke-linecap="round" stroke-linejoin="round"/>
<path d="M27.7006 116.871H22.4164V184.825H27.7006V116.871Z" fill="#8A8A8A" stroke="#2B2B2B" stroke-width="0.5" stroke-linecap="round" stroke-linejoin="round"/>
<path d="M196.833 117.045H191.549V185H196.833V117.045Z" fill="#8A8A8A" stroke="#2B2B2B" stroke-width="0.5" stroke-linecap="round" stroke-linejoin="round"/>
<path d="M199.155 105.706H21.2673V171.2H199.155V105.706Z" fill="#8A8A8A" stroke="#2B2B2B" stroke-width="0.5" stroke-linecap="round" stroke-linejoin="round"/>
<path d="M199.155 105.706H21.2673V112.521H199.155V105.706Z" fill="#2B2B2B" stroke="#2B2B2B" stroke-width="0.5" stroke-linecap="round" stroke-linejoin="round"/>
<path d="M203.688 105.706H16.74V109.77H203.688V105.706Z" fill="white" stroke="#2B2B2B" stroke-width="0.5" stroke-linecap="round" stroke-linejoin="round"/>
<path d="M24.1181 165.712C24.1181 165.712 12.1106 140.155 14.7235 139.414C17.3363 138.673 22.8141 142.747 22.8141 142.747C22.8141 142.747 6.74915 99.7671 10.9035 96.4539C15.0579 93.1407 22.8141 110.157 22.8141 110.157C22.8141 110.157 14.5295 83.8598 15.5039 73.8571C16.4783 63.8545 27.0024 73.489 27.0024 73.489C27.0024 73.489 18.5724 37.5619 26.3965 35.7067C34.2205 33.8515 33.9636 76.8216 33.9636 76.8216C33.9636 76.8216 36.5328 46.0823 39.6692 54.5979C42.8056 63.1134 36.2129 91.6391 36.2129 91.6391C36.2129 91.6391 40.5127 82.0094 42.9025 90.8979C45.2924 99.7865 38.1519 135.709 38.1519 135.709C38.1519 135.709 44.2211 129.785 44.7883 137.191C45.3554 144.597 32.2281 167.581 32.2281 167.581L24.8016 168.303L24.1181 165.712Z" fill="#75CEA9"/>
<path opacity="0.6" d="M24.1181 165.712C24.1181 165.712 12.1106 140.155 14.7235 139.414C17.3363 138.673 22.8141 142.747 22.8141 142.747C22.8141 142.747 6.74915 99.7671 10.9035 96.4539C15.0579 93.1407 22.8141 110.157 22.8141 110.157C22.8141 110.157 14.5295 83.8598 15.5039 73.8571C16.4783 63.8545 27.0024 73.489 27.0024 73.489C27.0024 73.489 18.5724 37.5619 26.3965 35.7067C34.2205 33.8515 33.9636 76.8216 33.9636 76.8216C33.9636 76.8216 36.5328 46.0823 39.6692 54.5979C42.8056 63.1134 36.2129 91.6391 36.2129 91.6391C36.2129 91.6391 40.5127 82.0094 42.9025 90.8979C45.2924 99.7865 38.1519 135.709 38.1519 135.709C38.1519 135.709 44.2211 129.785 44.7883 137.191C45.3554 144.597 32.2281 167.581 32.2281 167.581L24.8016 168.303L24.1181 165.712Z" fill="white"/>
<path d="M26.6924 166.821C26.6924 166.821 16.6821 149.044 18.5387 145.711C20.3954 142.379 25.941 150.143 25.941 150.143C25.941 150.143 13.3373 118.658 15.1939 115.703C17.0505 112.749 22.95 125.701 22.95 125.701C22.95 125.701 20.7298 82.3677 24.4334 83.8499C28.137 85.3321 28.5345 106.064 28.5345 106.064C28.5345 106.064 26.3094 56.8017 29.6494 58.2839C32.9894 59.7661 32.6113 114.58 32.6113 114.58C32.6113 114.58 39.2961 93.4699 40.3965 103.119C41.4969 112.768 31.8696 138.673 31.8696 138.673C31.8696 138.673 41.1382 118.304 42.2483 129.043C43.3584 139.782 34.8364 159.783 34.8364 159.783C34.8364 159.783 38.1715 151.635 38.1715 156.082C38.1715 160.529 35.578 166.08 35.578 166.08" stroke="#2B2B2B" stroke-width="0.5" stroke-linecap="round" stroke-linejoin="round"/>
<path d="M40.2125 166.68H19.0237V185H40.2125V166.68Z" fill="#2B2B2B" stroke="#2B2B2B" stroke-width="0.5" stroke-miterlimit="10"/>
<path d="M156.506 42.6961C156.506 42.6961 154.334 46.2758 154.009 47.8985C153.684 49.5212 154.227 50.1751 153.791 51.3667C153.355 52.5583 151.518 52.5631 151.518 53.7547C151.518 54.9463 152.817 56.0314 153.253 56.3559C153.689 56.6804 152.923 58.09 153.684 60.1487C154.446 62.2073 154.77 64.8085 156.069 64.8085C157.414 64.7376 158.754 64.592 160.083 64.3725L160.733 68.33L169.696 67.5162C169.696 67.5162 169.589 63.6411 171.974 61.9893C174.359 60.3376 179.081 51.0422 176.26 44.9728C173.438 38.9034 161.601 37.7118 156.506 42.6961Z" fill="white" stroke="#2B2B2B" stroke-width="0.5" stroke-linecap="round" stroke-linejoin="round"/>
<path d="M153.535 38.2012C153.241 39.1537 153.123 40.1516 153.186 41.1463C153.32 43.0585 153.915 44.9099 154.921 46.5424C156.026 48.3685 158.673 49.531 159.328 51.4783C159.541 52.1274 160.084 53.8615 161.601 54.2974C163.118 54.7334 162.798 54.7285 162.362 57.6542C161.926 60.5799 163.23 63.5057 165.833 64.2661C167.059 64.6218 168.354 64.6695 169.603 64.405C170.852 64.1405 172.017 63.572 172.993 62.75C175.053 61.1225 178.955 54.404 179.067 48.3346C179.256 37.5957 168.664 32.3498 159.109 33.6576C157.836 33.7838 156.628 34.282 155.637 35.0901C154.645 35.8982 153.914 36.9803 153.535 38.2012V38.2012Z" fill="#2B2B2B" stroke="#2B2B2B" stroke-width="0.5" stroke-linecap="round" stroke-linejoin="round"/>
<path d="M165.023 65.5545C163.577 65.5782 162.153 65.9085 160.844 66.5233C159.632 67.1627 155.42 71.1831 154.334 71.8516C153.248 72.52 151.188 72.1761 152.395 72.7186C153.602 73.2612 154.455 73.3677 156.515 72.6121C158.576 71.8564 162.914 70.3354 164.213 70.3354C165.512 70.3354 170.287 70.9845 170.724 71.0959C171.16 71.2073 173.976 72.5007 173.976 72.5007C173.976 72.5007 172.566 69.4684 170.942 67.9523C169.318 66.4361 167.301 65.4431 165.023 65.5545Z" fill="white" stroke="#2B2B2B" stroke-width="0.5" stroke-linecap="round" stroke-linejoin="round"/>
<path d="M161.5 52.0691C161.27 52.1606 161.077 52.3259 160.951 52.539C160.826 52.7521 160.775 53.0009 160.806 53.2461C160.991 54.6759 160.966 56.1248 160.734 57.5475C160.302 59.3882 162.605 59.3882 163.109 56.3704C163.439 54.3747 162.683 51.6476 161.5 52.0691Z" fill="white" stroke="#2B2B2B" stroke-width="0.5" stroke-linecap="round" stroke-linejoin="round"/>
<path d="M143.379 77.054C143.379 77.054 142.08 77.703 141.973 80.8467C141.866 83.9904 136.437 106.103 136.112 109.571C135.787 113.039 137.634 115.311 140.776 116.507C143.917 117.704 149.889 119.646 150.956 119.109C152.022 118.571 154.102 107.401 154.858 102.523C155.614 97.6453 146.505 80.7256 146.074 80.0911C145.643 79.4565 144.14 77.1654 143.379 77.054Z" fill="white" stroke="#2B2B2B" stroke-width="0.5" stroke-linecap="round" stroke-linejoin="round"/>
<path d="M150.433 102.959L144.465 111.848" stroke="#2B2B2B" stroke-width="0.5" stroke-linecap="round" stroke-linejoin="round"/>
<path d="M161.941 142.417L169.474 184.075C169.498 184.205 169.55 184.329 169.625 184.438C169.701 184.547 169.799 184.638 169.913 184.706C170.026 184.775 170.153 184.818 170.285 184.834C170.417 184.849 170.55 184.836 170.677 184.796C170.884 184.728 171.062 184.59 171.179 184.405C171.296 184.221 171.344 184.001 171.317 183.784L165.756 141.516L161.941 142.417Z" fill="white" stroke="#2B2B2B" stroke-width="0.5" stroke-linecap="round" stroke-linejoin="round"/>
<path d="M153.578 133.316C153.578 133.316 150.757 171.355 150.757 172.44C150.757 173.525 147.848 184.903 147.848 184.903H155.638C155.638 184.903 156.395 183.387 156.395 180.243C156.395 177.099 156.724 170.381 156.724 169.732C156.724 169.083 165.402 135.481 165.402 135.481C165.402 135.481 164.965 132.119 160.733 130.152C156.501 128.186 154.228 132.448 153.578 133.316Z" fill="white" stroke="#2B2B2B" stroke-width="0.5" stroke-linecap="round" stroke-linejoin="round"/>
<path d="M156.395 180.243C156.395 177.371 156.666 171.524 156.715 170.032C153.103 168.008 150.863 170.706 150.863 170.706C150.8 171.674 150.762 172.304 150.762 172.43C150.762 173.515 147.853 184.893 147.853 184.893H155.639C155.639 184.893 156.395 183.387 156.395 180.243Z" fill="#2B2B2B" stroke="#2B2B2B" stroke-width="0.5" stroke-linecap="round" stroke-linejoin="round"/>
<path d="M155.639 184.903C155.639 184.903 156.395 183.387 156.395 180.243C156.395 179.076 156.443 177.409 156.497 175.748C155.745 174.871 154.121 173.53 152.386 175.583C151.625 176.479 149.622 182.137 148.667 184.903H155.639Z" fill="#4F4F4F" stroke="#2B2B2B" stroke-width="0.5" stroke-linecap="round" stroke-linejoin="round"/>
<path d="M152.386 175.583L153.035 184.903H154.975L156.608 175.365C156.608 175.365 154.446 172.764 152.386 175.583Z" fill="#2B2B2B" stroke="#2B2B2B" stroke-width="0.5" stroke-linecap="round" stroke-linejoin="round"/>
<path d="M137.741 128.346C137.741 128.346 134.377 132.032 134.052 135.176C133.727 138.319 145.332 171.592 145.332 171.592C145.046 172.99 144.412 174.294 143.49 175.385C141.861 177.443 139.583 180.369 139.258 182.321C138.934 184.273 139.258 184.922 139.258 184.922H146.961C146.961 184.922 149.671 177.986 150.757 176.252C151.843 174.518 151.188 171.156 150.863 169.64C150.539 168.124 147.611 133.117 147.611 133.117C147.611 133.117 145.332 125.725 137.741 128.346Z" fill="white" stroke="#2B2B2B" stroke-width="0.5" stroke-linecap="round" stroke-linejoin="round"/>
<path d="M150.757 176.232C151.698 174.726 151.334 171.999 151.005 170.313C150.599 169.976 150.121 169.738 149.608 169.618C149.094 169.498 148.56 169.499 148.047 169.621C145.769 170.163 145.332 171.558 145.332 171.558C145.046 172.956 144.412 174.261 143.49 175.351C141.861 177.409 139.583 180.335 139.258 182.287C138.933 184.239 139.258 184.888 139.258 184.888H146.961C146.961 184.888 149.671 177.967 150.757 176.232Z" fill="#2B2B2B" stroke="#2B2B2B" stroke-width="0.5" stroke-linecap="round" stroke-linejoin="round"/>
<path d="M143.001 184.903H146.962C146.962 184.903 149.386 178.732 150.559 176.576C149.977 176.043 148.217 174.682 146.525 176.014C144.465 177.642 144.247 181.653 143.709 183.169C143.452 183.881 143.195 184.472 143.001 184.903Z" fill="#4F4F4F" stroke="#2B2B2B" stroke-width="0.5" stroke-linecap="round" stroke-linejoin="round"/>
<path d="M146.525 176.014L146.961 184.903H148.367L150.752 176.232C150.752 176.232 148.585 174.067 146.525 176.014Z" fill="#2B2B2B" stroke="#2B2B2B" stroke-width="0.5" stroke-linecap="round" stroke-linejoin="round"/>
<path d="M146.496 91.7453C148.299 97.8292 149.919 109.237 149.919 110.302C149.919 112.24 144.247 123.444 144.247 123.444C144.247 123.444 137.945 126.694 136.437 128.971C135.737 129.977 135.327 131.155 135.251 132.378C135.175 133.602 135.436 134.822 136.006 135.907C137.092 138.072 138.716 139.051 142.308 139.7C145.9 140.349 179.184 139.7 179.184 139.7C179.184 139.7 182.654 135.471 181.026 128.753C180.269 125.623 179.445 122.906 178.534 119.108C178.534 119.108 182.111 119.215 184.715 117.045C187.318 114.875 187.429 111.518 187.429 109.028C187.429 106.539 185.791 85.7195 185.791 83.6657C185.791 81.6119 185.694 79.0059 183.755 77.4849C181.816 75.9639 177.22 73.6098 173.09 71.4203C169.842 69.7104 167.452 70.0108 164.849 70.0108C162.246 70.0108 159.1 71.9483 159.1 71.9483C159.1 71.9483 144.673 75.7411 143.588 76.3902C142.502 77.0393 142.89 77.698 143.287 80.0909" fill="white"/>
<path d="M146.496 91.7453C148.299 97.8292 149.919 109.237 149.919 110.302C149.919 112.24 144.247 123.444 144.247 123.444C144.247 123.444 137.945 126.694 136.437 128.971C135.737 129.977 135.327 131.155 135.251 132.378C135.175 133.602 135.436 134.822 136.006 135.907C137.092 138.072 138.716 139.051 142.308 139.7C145.9 140.349 179.184 139.7 179.184 139.7C179.184 139.7 182.654 135.471 181.026 128.753C180.269 125.623 179.445 122.906 178.534 119.108C178.534 119.108 182.111 119.215 184.715 117.045C187.318 114.875 187.429 111.518 187.429 109.028C187.429 106.539 185.791 85.7195 185.791 83.6657C185.791 81.6119 185.694 79.0059 183.755 77.4849C181.816 75.9639 177.22 73.6098 173.09 71.4203C169.842 69.7104 167.452 70.0108 164.849 70.0108C162.246 70.0108 159.1 71.9483 159.1 71.9483C159.1 71.9483 144.673 75.7411 143.588 76.3902C142.502 77.0393 142.89 77.698 143.287 80.0909" stroke="#2B2B2B" stroke-width="0.5" stroke-linecap="round" stroke-linejoin="round"/>
<path d="M180.26 83.1233C180.26 83.1233 175.819 108.902 175.819 110.312C175.819 111.722 178.524 119.109 178.524 119.109" stroke="#2B2B2B" stroke-width="0.5" stroke-linecap="round" stroke-linejoin="round"/>
<path d="M149.686 111.392C148.619 114.817 144.247 123.444 144.247 123.444C144.247 123.444 137.945 126.694 136.437 128.971C135.737 129.977 135.327 131.156 135.251 132.379C135.175 133.602 135.436 134.822 136.006 135.907C137.092 138.072 138.716 139.051 142.308 139.7C145.9 140.349 179.184 139.7 179.184 139.7C179.184 139.7 182.654 135.471 181.026 128.753C180.269 125.624 179.445 122.906 178.534 119.109L175.819 111.392H149.686Z" fill="#2B2B2B" stroke="#2B2B2B" stroke-width="0.5" stroke-miterlimit="10"/>
<path d="M140.345 141.977L134.736 183.949C134.718 184.08 134.729 184.214 134.768 184.341C134.807 184.468 134.872 184.585 134.96 184.684C135.048 184.784 135.156 184.864 135.277 184.918C135.398 184.972 135.529 185 135.662 185V185C135.88 185.001 136.091 184.925 136.258 184.786C136.426 184.647 136.539 184.454 136.578 184.239L144.247 142.301L140.345 141.977Z" fill="white" stroke="#2B2B2B" stroke-width="0.5" stroke-linecap="round" stroke-linejoin="round"/>
<path d="M177.453 141.977L183.062 183.949C183.079 184.08 183.068 184.214 183.029 184.341C182.991 184.468 182.925 184.585 182.838 184.684C182.75 184.784 182.642 184.864 182.521 184.918C182.4 184.972 182.269 185 182.136 185V185C181.918 185.001 181.707 184.925 181.539 184.786C181.371 184.647 181.258 184.454 181.22 184.239L173.574 142.301L177.453 141.977Z" fill="white" stroke="#2B2B2B" stroke-width="0.5" stroke-linecap="round" stroke-linejoin="round"/>
<path d="M155.638 141.977L150.029 183.949C150.012 184.08 150.023 184.214 150.062 184.341C150.1 184.468 150.166 184.585 150.253 184.684C150.341 184.784 150.449 184.864 150.57 184.918C150.691 184.972 150.822 185 150.955 185V185C151.173 185 151.384 184.924 151.551 184.785C151.718 184.646 151.832 184.453 151.871 184.239L159.541 142.301L155.638 141.977Z" fill="white" stroke="#2B2B2B" stroke-width="0.5" stroke-linecap="round" stroke-linejoin="round"/>
<path d="M183.512 93.9541H148.479C148.479 93.9541 147.509 102.189 148.047 109.237C148.585 116.284 149.783 125.275 149.565 131.034C149.346 136.793 146.094 139.923 146.094 139.923H138.284C138.099 139.922 137.916 139.958 137.745 140.028C137.574 140.098 137.418 140.202 137.287 140.332C137.156 140.463 137.052 140.618 136.981 140.789C136.91 140.959 136.874 141.142 136.874 141.327V141.327C136.874 141.512 136.91 141.696 136.981 141.867C137.052 142.038 137.156 142.193 137.287 142.324C137.418 142.455 137.573 142.559 137.744 142.63C137.915 142.7 138.099 142.737 138.284 142.737H180.458C183.015 138.616 184.262 133.818 184.036 128.975C183.711 120.741 180.458 111.416 181.539 104.804C182.62 98.1925 183.512 93.9541 183.512 93.9541Z" fill="#75CEA9" stroke="#2B2B2B" stroke-width="0.5" stroke-linecap="round" stroke-linejoin="round"/>
<path d="M174.238 43.6213C174.238 43.6213 172.071 44.4884 171.96 46.5276C171.848 48.5669 171.204 55.6293 168.6 59.64C165.997 63.6508 168.6 70.0447 174.999 71.0183C181.398 71.9919 186.604 62.3478 184.21 52.379C181.815 42.4103 176.41 42.7542 174.238 43.6213Z" fill="#2B2B2B" stroke="#2B2B2B" stroke-width="0.5" stroke-linecap="round" stroke-linejoin="round"/>
<path d="M1 185H213" stroke="#2B2B2B" stroke-width="0.5" stroke-linecap="round" stroke-linejoin="round"/>
</svg>
