<svg width="500" height="393" viewBox="0 0 500 393" fill="none" xmlns="http://www.w3.org/2000/svg">
<path d="M294.516 183.211C293.979 180.438 292.952 177.784 291.482 175.373C290.713 174.21 289.844 173.137 288.565 172.806C287.258 172.48 285.893 172.46 284.576 172.749C283.205 172.975 281.829 173.345 280.402 173.614C279.673 173.764 278.934 173.855 278.19 173.885C277.375 173.936 276.561 173.769 275.831 173.403C275.092 173.01 274.488 172.404 274.097 171.664C273.741 170.974 273.498 170.232 273.375 169.467C273.309 169.11 273.261 168.719 273.201 168.441C273.123 168.155 273.002 167.883 272.843 167.633C272.492 167.067 272.076 166.543 271.603 166.074L271.945 165.198C271.942 165.196 271.939 165.194 271.936 165.192C271.932 165.191 271.928 165.191 271.925 165.191C271.921 165.191 271.917 165.192 271.914 165.194C271.911 165.196 271.908 165.198 271.906 165.201C271.912 165.201 271.948 165.176 271.969 165.167C272.033 165.132 272.094 165.092 272.151 165.045C272.292 164.935 272.426 164.817 272.553 164.691C272.821 164.433 273.083 164.15 273.337 163.859C273.847 163.279 274.339 162.666 274.81 162.051L275.36 162.588C275.273 162.637 275.182 162.678 275.088 162.709L274.896 162.745C274.768 162.769 274.664 162.769 274.547 162.781C274.324 162.792 274.106 162.797 273.892 162.794C273.462 162.79 273.038 162.772 272.615 162.746C271.768 162.698 270.93 162.619 270.088 162.542L270.083 162.541C270.034 162.536 269.987 162.518 269.948 162.488C269.909 162.458 269.879 162.418 269.861 162.372C269.733 162.03 269.586 161.696 269.42 161.37C269.255 161.064 269.059 160.706 268.838 160.62C268.182 160.369 267.42 160.205 266.703 160.004C265.956 159.822 265.22 159.598 264.498 159.331C264.39 159.274 264.295 159.195 264.221 159.097C264.146 159 264.095 158.887 264.069 158.767C264.026 158.555 264.025 158.336 264.067 158.124C264.141 157.736 264.263 157.36 264.431 157.002C265.104 155.64 265.891 154.337 266.782 153.107C267.206 152.518 267.538 151.868 267.768 151.18C267.995 150.531 268.053 149.834 267.934 149.157L267.945 149.189C267.482 147.966 267.156 146.695 266.975 145.4C266.777 144.122 266.655 142.834 266.608 141.543C266.551 140.254 266.548 138.967 266.58 137.681C266.611 136.392 266.671 135.116 266.793 133.819C266.807 133.679 266.867 133.548 266.964 133.446C267.061 133.345 267.189 133.279 267.328 133.259C267.468 133.239 267.609 133.267 267.731 133.338C267.852 133.409 267.946 133.518 267.998 133.649L268.007 133.673C268.761 135.574 269.655 137.416 270.683 139.184C271.694 140.947 272.877 142.607 274.213 144.139C275.491 145.654 277.076 146.88 278.863 147.737C279.733 148.137 280.673 148.366 281.63 148.412C282.588 148.442 283.545 148.314 284.461 148.032L284.023 148.558C284.205 147.525 284.529 146.522 284.986 145.578C285.224 145.085 285.53 144.626 285.893 144.216C286.295 143.766 286.815 143.437 287.393 143.266C287.693 143.196 288.001 143.169 288.308 143.186C288.6 143.216 288.886 143.282 289.162 143.384C289.689 143.57 290.176 143.854 290.597 144.222C291.392 144.951 291.956 145.897 292.218 146.943C292.522 147.898 292.76 148.873 292.931 149.861C293.12 150.86 293.16 151.882 293.049 152.893C293.014 153.42 292.86 153.931 292.599 154.389C292.338 154.848 291.977 155.241 291.543 155.54C290.628 156.007 289.578 156.134 288.579 155.899C288.561 155.897 288.545 155.887 288.534 155.872C288.524 155.858 288.519 155.839 288.522 155.822C288.525 155.805 288.535 155.789 288.548 155.779C288.562 155.768 288.579 155.763 288.596 155.765C289.545 155.901 290.512 155.713 291.341 155.23C291.699 154.943 291.988 154.577 292.184 154.162C292.381 153.746 292.481 153.292 292.476 152.832C292.483 150.911 292.11 149.006 291.377 147.23C291.12 146.365 290.617 145.593 289.93 145.009C289.6 144.739 289.221 144.534 288.814 144.405C288.627 144.342 288.432 144.301 288.235 144.285C288.143 144.279 288.05 144.285 287.96 144.304C287.872 144.325 287.774 144.299 287.694 144.351C287.32 144.518 286.984 144.761 286.707 145.063C286.43 145.365 286.218 145.72 286.083 146.107C285.71 146.949 285.453 147.837 285.32 148.748L285.319 148.752C285.3 148.87 285.25 148.982 285.173 149.074C285.096 149.166 284.995 149.235 284.881 149.273C283.819 149.645 282.697 149.821 281.572 149.793C280.444 149.755 279.333 149.502 278.299 149.048C276.303 148.135 274.537 146.786 273.131 145.101C271.735 143.49 270.517 141.732 269.497 139.86C268.464 138.009 267.572 136.084 266.827 134.101L268.041 133.955C267.908 135.196 267.812 136.467 267.74 137.726C267.67 138.989 267.634 140.254 267.651 141.515C267.671 142.776 267.702 144.039 267.846 145.285C267.959 146.525 268.213 147.749 268.603 148.932L268.612 148.957L268.614 148.965C268.745 149.778 268.654 150.612 268.35 151.378C268.074 152.109 267.69 152.793 267.21 153.409C266.31 154.595 265.516 155.859 264.839 157.185C264.682 157.506 264.565 157.845 264.491 158.195C264.422 158.535 264.462 158.857 264.701 158.971C265.034 159.108 265.376 159.219 265.725 159.303L266.811 159.59C267.544 159.784 268.256 159.937 269.017 160.193C269.131 160.236 269.236 160.302 269.324 160.388C269.403 160.462 269.474 160.544 269.538 160.631C269.656 160.791 269.763 160.96 269.858 161.135C270.044 161.474 270.211 161.823 270.357 162.181L270.131 162.012C270.964 162.062 271.804 162.087 272.637 162.095C273.053 162.1 273.47 162.096 273.88 162.079C274.085 162.072 274.287 162.057 274.484 162.038C274.574 162.023 274.682 162.016 274.759 161.996L274.876 161.969C274.889 161.959 274.882 161.959 274.893 161.965L275.392 162.266C275.411 162.277 275.427 162.292 275.44 162.31C275.453 162.327 275.462 162.347 275.468 162.368C275.473 162.39 275.474 162.412 275.471 162.433C275.467 162.455 275.46 162.476 275.449 162.494L275.443 162.503C274.989 163.163 274.525 163.804 274.024 164.433C273.774 164.748 273.516 165.058 273.231 165.361C273.085 165.519 272.93 165.669 272.767 165.809C272.674 165.891 272.574 165.965 272.468 166.029C272.405 166.069 272.339 166.104 272.271 166.135C272.165 166.17 272.056 166.195 271.945 166.208L272.288 165.332C272.854 165.84 273.357 166.413 273.786 167.041C274.02 167.386 274.198 167.766 274.312 168.167C274.412 168.583 274.452 168.9 274.526 169.242C274.649 169.882 274.862 170.501 275.157 171.081C275.435 171.61 275.866 172.042 276.395 172.32C277.432 172.88 278.829 172.708 280.2 172.481C281.578 172.25 282.965 171.904 284.411 171.693C285.893 171.39 287.428 171.465 288.874 171.913C289.241 172.047 289.593 172.218 289.925 172.424L290.387 172.783C290.545 172.895 290.688 173.028 290.811 173.178L291.197 173.608C291.315 173.754 291.413 173.907 291.522 174.057C291.743 174.352 291.926 174.669 292.116 174.982C292.843 176.238 293.409 177.581 293.803 178.978C294.217 180.353 294.501 181.765 294.651 183.193C294.652 183.202 294.651 183.211 294.648 183.22C294.646 183.228 294.641 183.236 294.636 183.243C294.63 183.25 294.623 183.256 294.615 183.26C294.607 183.264 294.599 183.267 294.59 183.267C294.573 183.268 294.556 183.263 294.542 183.253C294.529 183.242 294.519 183.227 294.516 183.211Z" fill="#2B2B2B"/>
<path d="M289.648 156.485C288.544 158.531 288.225 160.909 288.751 163.174C289.648 166.927 288.17 172.193 288.17 172.193C288.17 172.193 284.427 185.527 295.44 183.202C306.453 180.877 323.83 174.881 326.889 162.766C326.889 162.766 323.534 154.161 321.627 151.386C317.334 145.138 310.124 128.747 306.576 126.3C305.782 125.067 304.748 124.006 303.536 123.181C299.862 120.506 295.328 119.286 290.808 119.756C284.155 120.375 273.441 123.125 267.417 133.887C267.417 133.887 273.248 152.033 284.672 148.653C284.672 148.653 285.572 142.235 289.498 144.164C290.522 144.695 291.307 145.593 291.699 146.678C292.738 149.392 294.386 155.295 289.648 156.485Z" fill="#2B2B2B"/>
<path d="M268.886 148.694C269.136 148.293 269.45 147.936 269.815 147.637C270.175 147.33 270.571 147.07 270.995 146.861C271.427 146.651 271.889 146.51 272.364 146.441C272.843 146.372 273.332 146.432 273.781 146.613C272.914 146.78 272.076 147.069 271.291 147.473C270.501 147.849 269.743 148.294 268.886 148.694Z" fill="#2B2B2B"/>
<path d="M271.945 152.283C272.209 152.274 272.46 152.163 272.644 151.972C272.827 151.782 272.93 151.528 272.93 151.263C272.93 150.999 272.827 150.745 272.644 150.555C272.46 150.364 272.209 150.253 271.945 150.244C271.681 150.253 271.43 150.364 271.246 150.555C271.063 150.745 270.96 150.999 270.96 151.263C270.96 151.528 271.063 151.782 271.246 151.972C271.43 152.163 271.681 152.274 271.945 152.283Z" fill="#2B2B2B"/>
<path d="M326.891 162.669C329.245 162.717 331.588 163.003 333.884 163.523C336.188 164.021 338.453 164.691 340.658 165.526C342.872 166.348 345.033 167.309 347.127 168.404C348.156 168.984 349.21 169.525 350.203 170.167L351.713 171.098L353.175 172.102C357.059 174.808 360.619 177.952 363.784 181.471C366.905 185.005 369.69 188.822 372.102 192.873C376.816 200.981 380.665 209.562 383.586 218.474C383.99 219.575 384.328 220.696 384.66 221.819L385.681 225.184C386.307 227.444 386.89 229.727 387.467 232.008C388.265 236.613 389.079 241.219 389.836 245.835C389.867 246.026 389.837 246.221 389.749 246.394C389.662 246.566 389.521 246.706 389.349 246.794L389.336 246.8C385.025 248.978 380.603 250.929 376.087 252.645C373.824 253.489 371.54 254.275 369.236 255.003C366.923 255.699 364.603 256.372 362.258 256.951C357.572 258.112 352.827 259.019 348.044 259.67C343.268 260.312 338.46 260.69 333.642 260.802L333.616 260.803C333.511 260.806 333.41 260.767 333.334 260.695C331.165 258.636 328.974 256.603 326.825 254.522C326.807 254.505 326.797 254.481 326.796 254.456C326.795 254.431 326.803 254.407 326.82 254.388C326.836 254.37 326.859 254.358 326.884 254.356C326.909 254.354 326.934 254.361 326.953 254.377C329.291 256.243 331.587 258.157 333.905 260.046L333.597 259.938C338.368 259.579 343.104 258.922 347.808 258.138C352.512 257.343 357.165 256.286 361.763 255.045C366.36 253.804 370.895 252.359 375.367 250.71C379.834 249.065 384.235 247.231 388.525 245.156L388.025 246.121C387.326 241.513 386.684 236.894 386.026 232.276C385.546 230.01 385.091 227.738 384.573 225.473L383.707 222.093C383.423 220.964 383.133 219.837 382.776 218.729L381.755 215.39C381.418 214.275 380.97 213.199 380.583 212.101C379.813 209.902 378.913 207.755 377.975 205.624C376.069 201.378 373.802 197.304 371.2 193.446C368.609 189.609 365.715 185.986 362.544 182.612C359.405 179.233 355.948 176.164 352.221 173.448C348.491 170.726 344.47 168.427 340.231 166.596C335.98 164.733 331.488 163.476 326.887 162.863L326.88 162.862C326.856 162.86 326.833 162.847 326.817 162.829C326.801 162.81 326.793 162.785 326.795 162.761C326.796 162.736 326.807 162.713 326.825 162.696C326.843 162.679 326.867 162.669 326.891 162.669L326.891 162.669Z" fill="#2B2B2B"/>
<path d="M385.647 246.785C386.228 247.817 386.701 248.906 387.059 250.035C387.417 251.135 387.708 252.256 387.93 253.391C388.155 254.526 388.31 255.673 388.393 256.827C388.489 258.008 388.461 259.195 388.31 260.37C387.726 259.339 387.252 258.25 386.895 257.121C386.537 256.021 386.246 254.9 386.026 253.764C385.803 252.629 385.65 251.481 385.566 250.327C385.471 249.147 385.498 247.96 385.647 246.785Z" fill="#2B2B2B"/>
<path d="M329.896 195.755C330.606 193.758 331.583 191.865 332.799 190.129C334.002 188.359 335.431 186.753 337.049 185.353C337.874 184.656 338.753 184.026 339.678 183.468C340.615 182.919 341.605 182.467 342.632 182.118C343.663 181.787 344.731 181.581 345.811 181.507C346.878 181.457 347.947 181.557 348.986 181.805C347.951 181.857 346.922 181.994 345.91 182.215C344.927 182.452 343.967 182.775 343.04 183.179C341.21 184.029 339.511 185.134 337.992 186.461C337.211 187.112 336.469 187.808 335.768 188.544C335.045 189.266 334.375 190.041 333.698 190.816C332.371 192.389 331.112 194.036 329.896 195.755Z" fill="#2B2B2B"/>
<path d="M354.755 185.062C355.975 185.903 357.05 186.936 357.941 188.12C358.854 189.297 359.612 190.587 360.197 191.956C360.796 193.33 361.184 194.785 361.348 196.274C361.532 197.752 361.436 199.251 361.065 200.693C360.865 199.275 360.586 197.869 360.232 196.482C359.874 195.131 359.415 193.809 358.859 192.527C358.306 191.235 357.686 189.973 356.999 188.747C356.3 187.513 355.554 186.299 354.755 185.062Z" fill="#2B2B2B"/>
<path d="M275.418 204.863C274.739 207.484 274.011 210.127 273.132 212.706C272.261 215.284 271.318 217.827 270.496 220.406C270.111 221.62 269.739 222.841 269.411 224.07C269.246 223.934 269.082 223.791 268.918 223.656C269.225 222.506 269.561 221.363 269.897 220.22C270.661 217.613 271.418 215.013 272.096 212.399C272.796 209.791 273.318 207.163 273.839 204.506C274.925 199.206 276.096 193.92 277.303 188.641C278.504 183.356 279.768 178.091 281.161 172.841C281.169 172.817 281.186 172.797 281.209 172.785C281.231 172.773 281.258 172.77 281.282 172.777C281.306 172.782 281.327 172.796 281.34 172.816C281.354 172.836 281.358 172.861 281.354 172.884C280.639 178.263 279.761 183.613 278.775 188.941C277.782 194.277 276.725 199.591 275.418 204.863Z" fill="#2B2B2B"/>
<path d="M301.739 240.67C301.2 240.83 300.634 240.881 300.075 240.82C299.66 239.22 299.291 237.608 298.967 235.984C298.546 233.913 298.21 231.834 297.932 229.734C297.689 227.863 297.503 225.977 297.446 224.063C294.944 223.677 292.41 223.543 289.882 223.663C287.038 223.771 284.231 224.338 281.568 225.342C279.343 226.201 277.259 227.385 275.382 228.856C274.946 228.534 274.503 228.192 274.053 227.842C276.075 226.061 278.381 224.632 280.875 223.613C283.707 222.462 286.708 221.781 289.76 221.599C292.3 221.457 294.848 221.589 297.36 221.992C296.982 220.027 296.632 218.063 296.325 216.092C295.939 213.642 295.575 211.184 295.26 208.72C294.982 206.249 294.732 203.784 294.575 201.299C294.403 198.819 294.375 196.332 294.489 193.849C294.489 193.836 294.492 193.824 294.497 193.812C294.503 193.8 294.51 193.79 294.52 193.781C294.529 193.773 294.54 193.766 294.552 193.762C294.564 193.757 294.576 193.755 294.589 193.756C294.613 193.759 294.635 193.769 294.651 193.786C294.668 193.803 294.679 193.825 294.682 193.849C294.846 196.313 295.146 198.763 295.496 201.206C295.832 203.649 296.253 206.077 296.703 208.506C297.118 210.934 297.582 213.356 298.075 215.777L299.603 223.006C299.632 223.135 299.634 223.268 299.611 223.398C299.587 223.528 299.538 223.652 299.466 223.763C299.395 223.874 299.302 223.97 299.193 224.045C299.084 224.119 298.961 224.172 298.832 224.199C298.71 224.225 298.584 224.229 298.46 224.213L298.446 224.206C298.196 224.17 297.946 224.142 297.703 224.099C298.362 225.85 298.932 227.633 299.41 229.442C299.967 231.477 300.453 233.534 300.868 235.599C301.21 237.284 301.501 238.975 301.739 240.67Z" fill="#2B2B2B"/>
<path d="M276.41 258.949C277.346 259.899 278.296 260.856 279.253 261.799L260.439 261.749C250.31 261.67 240.175 261.642 230.046 261.506C219.918 261.406 209.789 261.265 199.661 261.084L184.46 260.756L176.868 260.591L169.268 260.37L176.868 260.149L184.46 259.984L199.661 259.656C209.789 259.484 219.918 259.344 230.046 259.234C240.175 259.098 250.31 259.07 260.439 258.991L276.41 258.949Z" fill="#FDB914"/>
<path d="M412.389 260.37L404.789 260.592L397.197 260.756L381.997 261.077C371.868 261.249 361.739 261.389 351.611 261.499C341.475 261.634 331.347 261.663 321.218 261.742L319.761 261.749C320.704 260.877 321.647 259.963 322.575 259.006C332.254 259.077 341.925 259.113 351.611 259.242C361.74 259.334 371.868 259.475 381.997 259.663L397.197 259.984L404.79 260.149L412.389 260.37Z" fill="#FDB914"/>
<path d="M189.457 176.838C189.052 176.617 188.487 176.459 188.201 176.714C188.077 176.88 187.99 177.07 187.945 177.272C187.9 177.474 187.899 177.683 187.941 177.885C188.047 178.816 188.253 179.732 188.558 180.617C189.122 182.43 189.845 184.209 190.56 185.987C191.311 187.762 192.007 189.569 192.742 191.354L194.871 196.74L199.055 207.521C199.772 209.306 200.471 211.1 201.266 212.838C201.636 213.707 202.074 214.546 202.576 215.346C202.813 215.701 203.182 216.142 203.406 216.024C203.574 215.896 203.694 215.716 203.748 215.512C203.83 215.285 203.894 215.052 203.941 214.816C203.952 215.062 203.944 215.308 203.918 215.553C203.908 215.833 203.8 216.099 203.612 216.306C203.544 216.364 203.464 216.406 203.378 216.428C203.292 216.449 203.202 216.45 203.115 216.43C202.967 216.4 202.826 216.342 202.698 216.261C202.477 216.115 202.271 215.946 202.084 215.758C201.407 215.024 200.8 214.229 200.269 213.384C199.227 211.726 198.271 210.015 197.407 208.258C196.514 206.524 195.737 204.74 194.937 202.968C194.168 201.183 193.441 199.382 192.717 197.581C192.032 195.765 191.344 193.951 190.697 192.122C190.075 190.282 189.425 188.46 188.867 186.593C188.265 184.721 187.794 182.809 187.457 180.871C187.282 179.879 187.23 178.869 187.304 177.864C187.333 177.599 187.393 177.339 187.483 177.089C187.57 176.805 187.762 176.565 188.019 176.418C188.148 176.361 188.288 176.332 188.429 176.335C188.57 176.337 188.709 176.37 188.835 176.432C189.064 176.531 189.274 176.669 189.457 176.838Z" fill="#2B2B2B"/>
<path d="M187.618 177.973C189.899 178.274 192.204 178.364 194.501 178.24C196.795 178.159 199.085 177.978 201.36 177.681C205.914 177.103 210.432 176.265 214.89 175.17C219.371 174.158 223.772 172.824 228.187 171.526L234.752 169.382C236.932 168.637 239.1 167.854 241.298 167.139C239.198 168.097 237.068 168.986 234.95 169.914L228.467 172.371C227.373 172.744 226.277 173.113 225.176 173.467C224.073 173.813 222.985 174.211 221.867 174.512C219.637 175.132 217.418 175.792 215.156 176.296C212.907 176.85 210.628 177.273 208.35 177.696C206.057 178.04 203.766 178.396 201.451 178.562C196.846 178.918 192.133 179.047 187.618 177.973Z" fill="#2B2B2B"/>
<path d="M248.821 187.481C246.602 188.009 244.43 188.723 242.33 189.615C241.275 190.043 240.226 190.485 239.188 190.951C238.163 191.447 237.118 191.895 236.111 192.429C232.043 194.474 228.085 196.73 224.253 199.188C220.376 201.579 216.666 204.23 212.93 206.85L207.434 210.934C205.617 212.319 203.825 213.736 201.981 215.098C203.654 213.537 205.378 212.031 207.077 210.493L212.395 206.139C213.304 205.44 214.217 204.748 215.137 204.063C216.06 203.383 216.961 202.673 217.913 202.032C219.803 200.732 221.681 199.413 223.637 198.21C225.567 196.966 227.569 195.838 229.561 194.697C231.597 193.631 233.624 192.549 235.732 191.629C239.919 189.773 244.263 188.083 248.821 187.481Z" fill="#2B2B2B"/>
<path d="M239.576 166.069L249.434 188.879L258.481 178.669L253.212 166.477L239.576 166.069Z" fill="#FDB914"/>
<path d="M333.701 244.67C329.265 253.084 323.094 260.46 315.594 266.309C311.837 269.31 307.535 271.557 302.926 272.925C300.592 273.605 298.152 273.851 295.729 273.649C295.123 273.574 294.522 273.465 293.928 273.321C293.336 273.161 292.757 272.959 292.194 272.716C291.11 272.2 290.076 271.583 289.107 270.874C287.202 269.474 285.375 267.973 283.634 266.375C281.888 264.794 280.173 263.183 278.487 261.542L268.293 251.816C264.851 248.564 261.664 245.052 258.76 241.311C255.827 237.641 252.854 234.004 249.961 230.303L250.744 230.698C248.651 230.616 246.577 230.262 244.575 229.644C242.598 229.05 240.676 228.284 238.831 227.355C236.97 226.425 235.22 225.291 233.611 223.973C233.175 223.609 232.779 223.199 232.43 222.751C232.043 222.218 231.811 221.589 231.759 220.932C231.73 220.276 231.894 219.626 232.23 219.062C232.534 218.537 232.935 218.074 233.412 217.699L233.323 218.803L232.659 217.996C232.458 217.705 232.268 217.404 232.084 217.1C231.724 216.451 231.493 215.739 231.404 215.002C231.332 214.238 231.475 213.469 231.817 212.782C232.155 212.11 232.654 211.533 233.271 211.103L233.582 212.07C233.046 212.035 232.525 211.881 232.055 211.621C231.585 211.36 231.179 210.999 230.865 210.563C230.558 210.15 230.34 209.678 230.226 209.176C230.112 208.674 230.105 208.154 230.205 207.649C230.374 206.665 230.903 205.779 231.689 205.164C232.067 204.866 232.5 204.646 232.964 204.517C233.427 204.387 233.911 204.35 234.389 204.409L234.404 204.411C234.428 204.414 234.451 204.426 234.466 204.445C234.482 204.465 234.489 204.489 234.487 204.514C234.486 204.538 234.474 204.561 234.456 204.578C234.438 204.594 234.414 204.603 234.389 204.603C233.499 204.581 232.636 204.907 231.984 205.512C231.35 206.092 230.955 206.888 230.877 207.744C230.828 208.148 230.865 208.558 230.983 208.947C231.102 209.336 231.3 209.696 231.565 210.005C231.807 210.303 232.109 210.547 232.451 210.721C232.794 210.895 233.169 210.994 233.553 211.012C233.663 211.004 233.773 211.03 233.867 211.088C233.961 211.146 234.034 211.233 234.076 211.335C234.117 211.437 234.125 211.55 234.098 211.657C234.071 211.764 234.01 211.86 233.925 211.93L233.864 211.98C233.437 212.329 233.099 212.776 232.879 213.282C232.669 213.776 232.601 214.319 232.683 214.849C232.789 215.398 232.997 215.922 233.297 216.393C233.464 216.633 233.638 216.87 233.814 217.105L234.412 217.78C234.479 217.855 234.53 217.943 234.563 218.038C234.596 218.133 234.61 218.234 234.604 218.335C234.598 218.435 234.572 218.534 234.528 218.624C234.484 218.715 234.422 218.796 234.347 218.863L234.343 218.866L234.323 218.884C234.023 219.147 233.773 219.461 233.584 219.813C233.411 220.119 233.332 220.47 233.358 220.821C233.407 221.166 233.546 221.492 233.763 221.765C234.048 222.094 234.365 222.394 234.71 222.66C236.253 223.828 237.921 224.821 239.683 225.622C241.44 226.464 243.265 227.155 245.139 227.688C246.986 228.218 248.887 228.533 250.805 228.628L250.81 228.628C250.96 228.634 251.108 228.672 251.242 228.74C251.377 228.808 251.495 228.905 251.589 229.022C254.505 232.705 257.34 236.451 260.217 240.165C263.008 243.901 266.039 247.452 269.29 250.797L278.996 261.029C280.629 262.714 282.3 264.359 284.031 265.936C285.743 267.525 287.569 268.986 289.496 270.307C290.442 270.961 291.455 271.511 292.519 271.947C293.048 272.138 293.589 272.292 294.139 272.407C294.694 272.507 295.253 272.576 295.815 272.613C298.093 272.666 300.362 272.304 302.511 271.546C304.678 270.793 306.773 269.844 308.768 268.71C310.783 267.585 312.722 266.328 314.571 264.946C321.988 259.392 328.251 252.321 333.534 244.57C333.548 244.549 333.57 244.535 333.594 244.529C333.618 244.524 333.644 244.528 333.665 244.541C333.687 244.554 333.702 244.574 333.709 244.599C333.715 244.623 333.712 244.648 333.701 244.67L333.701 244.67Z" fill="#2B2B2B"/>
<path d="M234.396 204.603L234.382 204.604H234.381L234.355 204.6C233.248 204.472 232.171 204.155 231.17 203.665C230.616 203.396 230.15 202.975 229.828 202.45C229.673 202.153 229.587 201.825 229.577 201.491C229.566 201.156 229.631 200.823 229.766 200.517C230.217 199.363 231.101 198.43 232.229 197.92C232.773 197.665 233.347 197.483 233.938 197.376C234.571 197.231 235.228 197.232 235.86 197.379C237.954 197.965 240.05 198.538 242.135 199.152C244.221 199.763 246.309 200.365 248.382 201.015L247.34 202.185C246.932 201.253 246.558 200.306 246.169 199.366L246.154 199.331C246.073 199.135 246.073 198.914 246.155 198.718C246.236 198.522 246.392 198.366 246.588 198.284C246.712 198.233 246.847 198.214 246.981 198.228C248.53 198.396 250.066 198.673 251.577 199.056C252.356 199.246 253.116 199.505 253.848 199.831C254.043 199.921 254.231 200.024 254.411 200.14L254.689 200.328C254.785 200.408 254.876 200.493 254.962 200.583C255.054 200.664 255.131 200.761 255.189 200.869C255.251 200.964 255.308 201.062 255.359 201.163L255.62 201.696C256.864 204.516 258.02 207.32 259.196 210.14C259.786 211.559 260.378 212.925 260.875 214.444L260.948 214.746C260.961 214.823 260.981 214.898 261.008 214.971C261.064 215.131 261.135 215.286 261.22 215.432C261.399 215.746 261.605 216.044 261.838 216.321C262.313 216.896 262.821 217.443 263.359 217.96C265.565 220.031 267.877 221.986 270.286 223.818C272.68 225.699 275.057 227.552 277.528 229.289C279.989 231.028 282.565 232.583 285.187 234.082L287.161 235.2C287.812 235.561 288.464 235.896 289.134 236.224C290.466 236.883 291.836 237.488 293.228 238.026C294.624 238.554 296.028 239.067 297.45 239.459C298.15 239.653 298.86 239.809 299.578 239.926C300.199 240.05 300.84 240.053 301.462 239.933L301.548 239.906C301.54 239.899 301.468 239.936 301.52 239.914L301.635 239.865L301.866 239.767L302.327 239.57L303.23 239.168C303.825 238.893 304.423 238.63 304.996 238.327C306.152 237.751 307.237 237.044 308.232 236.222C310.161 234.418 311.926 232.449 313.51 230.336C313.525 230.316 313.547 230.304 313.572 230.301C313.596 230.297 313.621 230.303 313.641 230.317C313.661 230.332 313.675 230.353 313.68 230.377C313.685 230.401 313.681 230.426 313.668 230.447C312.977 231.591 312.261 232.718 311.499 233.826C310.747 234.96 309.885 236.017 308.926 236.982C307.935 237.941 306.838 238.783 305.656 239.493C305.074 239.854 304.483 240.195 303.878 240.499C303.576 240.653 303.273 240.812 302.975 240.953L302.526 241.17L302.302 241.279L302.19 241.333C302.106 241.373 302.019 241.407 301.93 241.434L302.015 241.408C301.568 241.566 301.097 241.648 300.622 241.65C300.205 241.658 299.788 241.641 299.374 241.598C298.582 241.508 297.796 241.375 297.019 241.199C295.498 240.853 294.001 240.41 292.536 239.874C291.076 239.346 289.641 238.751 288.231 238.09C287.528 237.76 286.831 237.387 286.151 237.01L284.153 235.871C278.854 232.75 273.886 229.099 269.327 224.973C267.008 222.962 264.797 220.83 262.705 218.585C262.178 218.013 261.685 217.41 261.228 216.781C260.993 216.457 260.781 216.117 260.594 215.763C260.495 215.576 260.414 215.38 260.352 215.178C260.317 215.071 260.292 214.961 260.277 214.849C260.259 214.735 260.241 214.682 260.223 214.595C259.776 213.158 259.253 211.746 258.657 210.364C257.497 207.558 256.193 204.814 254.75 202.143L254.471 201.669C254.431 201.603 254.388 201.539 254.341 201.477C254.308 201.417 254.26 201.366 254.202 201.33C254.148 201.291 254.111 201.247 254.049 201.207L253.843 201.093C253.696 201.014 253.544 200.946 253.388 200.889C252.706 200.648 252.005 200.467 251.291 200.348C249.823 200.102 248.341 199.938 246.854 199.855L247.666 198.717C248.086 199.643 248.522 200.563 248.924 201.498C248.988 201.649 249.009 201.815 248.983 201.976C248.957 202.138 248.885 202.289 248.777 202.412C248.668 202.535 248.527 202.624 248.37 202.67C248.212 202.715 248.045 202.715 247.888 202.669L247.881 202.667C245.795 202.058 243.724 201.4 241.65 200.75C239.575 200.103 237.512 199.417 235.445 198.742C235.019 198.627 234.573 198.608 234.138 198.685C233.654 198.742 233.178 198.861 232.724 199.039C231.818 199.364 231.075 200.029 230.652 200.893C230.545 201.073 230.48 201.275 230.461 201.483C230.441 201.691 230.468 201.901 230.54 202.098C230.751 202.528 231.08 202.889 231.487 203.141C232.397 203.7 233.38 204.127 234.409 204.411L234.382 204.408L234.396 204.409C234.421 204.411 234.443 204.422 234.46 204.44C234.477 204.458 234.486 204.481 234.486 204.506C234.486 204.53 234.477 204.554 234.46 204.572C234.443 204.59 234.421 204.601 234.396 204.603L234.396 204.603Z" fill="#2B2B2B"/>
<path d="M233.845 204.081L237.666 204.665L233.812 204.948L233.845 204.081Z" fill="#2B2B2B"/>
<path d="M233.602 211.109L239.308 212.014L233.531 211.973L233.602 211.109Z" fill="#2B2B2B"/>
<path d="M233.984 217.872L238.163 219.466L233.755 218.709L233.984 217.872Z" fill="#2B2B2B"/>
<path d="M229.798 195.189C230.631 195.09 231.473 195.097 232.304 195.208C233.123 195.3 233.932 195.462 234.723 195.692L234.973 195.765L235.027 195.932C235.262 196.606 235.42 197.305 235.498 198.015C235.022 197.483 234.608 196.898 234.265 196.272L234.568 196.512C233.748 196.439 232.935 196.295 232.139 196.083C231.325 195.884 230.538 195.584 229.798 195.189Z" fill="#2B2B2B"/>
<path d="M243.947 188.745C244.405 189.483 244.82 190.24 245.222 191.003C245.626 191.765 246.007 192.537 246.38 193.312L246.458 193.474L246.372 193.663C246.125 194.207 245.894 194.758 245.633 195.295L245.642 194.904C246.651 197.14 247.578 199.411 248.376 201.738L248.217 201.591C248.979 201.921 249.737 202.263 250.48 202.648C249.656 202.498 248.848 202.304 248.043 202.098L247.949 202.074L247.884 201.951C246.736 199.775 245.717 197.543 244.78 195.276L244.697 195.075L244.789 194.885C245.05 194.348 245.34 193.826 245.615 193.295L245.607 193.646C245.297 192.843 244.996 192.037 244.719 191.221C244.438 190.405 244.172 189.584 243.947 188.745Z" fill="#2B2B2B"/>
<path d="M234.646 196.102C235.498 195.83 236.369 195.62 237.251 195.474C238.125 195.319 239.002 195.197 239.882 195.113C240.763 195.026 241.647 194.981 242.534 194.966C243.428 194.943 244.323 194.984 245.211 195.09C244.359 195.363 243.488 195.573 242.606 195.72C241.732 195.874 240.855 195.997 239.975 196.079C239.094 196.164 238.21 196.211 237.323 196.224C236.429 196.248 235.534 196.207 234.646 196.102Z" fill="#2B2B2B"/>
<path d="M165.725 186.23C159.244 187.118 152.753 187.896 146.254 188.564C139.756 189.256 133.249 189.846 126.741 190.418C120.231 190.957 113.718 191.474 107.197 191.89C100.678 192.331 94.1489 192.661 87.6108 192.878C94.0917 191.988 100.582 191.209 107.082 190.541C113.58 189.85 120.086 189.259 126.594 188.69C133.105 188.153 139.618 187.636 146.139 187.22C152.658 186.779 159.187 186.449 165.725 186.23Z" fill="#FDB914"/>
<path d="M179.863 218.945C176.024 222.543 172.077 226.009 168.091 229.429C164.112 232.856 160.069 236.205 156.014 239.539C151.938 242.848 147.848 246.14 143.695 249.353C139.548 252.575 135.362 255.749 131.068 258.79C134.906 255.19 138.852 251.723 142.838 248.304C146.817 244.877 150.86 241.528 154.917 238.196C158.994 234.889 163.084 231.597 167.238 228.384C171.385 225.162 175.57 221.987 179.863 218.945Z" fill="#FDB914"/>
<path d="M150.021 206.584C147.245 207.655 144.427 208.56 141.595 209.406C138.765 210.262 135.91 211.021 133.05 211.76C130.183 212.467 127.31 213.154 124.413 213.743C121.518 214.342 118.608 214.881 115.656 215.253C118.431 214.181 121.249 213.275 124.081 212.43C126.912 211.573 129.766 210.815 132.626 210.078C135.494 209.372 138.367 208.686 141.265 208.098C144.16 207.499 147.069 206.959 150.021 206.584Z" fill="#FDB914"/>
<path d="M141.806 224.583C138.488 227.074 135.081 229.419 131.641 231.714C128.207 234.018 124.719 236.236 121.221 238.436C117.706 240.61 114.179 242.765 110.599 244.834C107.025 246.912 103.418 248.939 99.7192 250.818C103.035 248.326 106.443 245.979 109.883 243.685C113.317 241.381 116.805 239.164 120.304 236.965C123.82 234.793 127.347 232.638 130.927 230.569C134.502 228.491 138.109 226.464 141.806 224.583Z" fill="#FDB914"/>
<path d="M326.951 200.687C325.952 203.152 324.937 205.608 323.869 208.039C322.812 210.476 321.761 212.915 320.649 215.327C319.546 217.742 318.474 220.172 317.344 222.575C316.229 224.984 315.045 227.362 313.855 229.737L313.708 229.158C315.781 230.772 317.824 232.426 319.916 234.014C322.001 235.612 324.138 237.139 326.271 238.672C328.414 240.19 330.579 241.68 332.742 243.171C334.908 244.658 337.047 246.183 339.189 247.703L338.381 247.763C340.964 245.027 343.38 242.137 345.614 239.11C347.879 236.104 349.975 232.974 351.894 229.736C352.849 228.117 353.746 226.465 354.583 224.78C355.405 223.089 356.143 221.36 356.838 219.612C357.505 217.852 358.077 216.058 358.552 214.236C359.011 212.404 359.352 210.544 359.574 208.668C359.575 208.659 359.578 208.65 359.582 208.642C359.586 208.635 359.592 208.628 359.599 208.622C359.606 208.616 359.614 208.612 359.623 208.61C359.631 208.607 359.64 208.606 359.649 208.607C359.666 208.609 359.681 208.617 359.693 208.63C359.704 208.643 359.71 208.659 359.71 208.676C359.659 210.584 359.465 212.485 359.131 214.363C358.758 216.24 358.281 218.094 357.699 219.916C356.477 223.546 354.923 227.056 353.058 230.401C351.189 233.738 349.088 236.94 346.769 239.982C344.452 243.026 341.944 245.92 339.259 248.647L339.255 248.651C339.151 248.756 339.012 248.82 338.864 248.83C338.716 248.84 338.569 248.796 338.451 248.707C336.361 247.116 334.268 245.529 332.203 243.905C330.134 242.285 328.066 240.664 325.978 239.071C323.879 237.492 321.783 235.908 319.636 234.395C317.497 232.872 315.308 231.415 313.149 229.918C313.063 229.858 313 229.77 312.971 229.669C312.942 229.568 312.949 229.46 312.991 229.363L313.001 229.339C314.055 226.9 315.115 224.465 316.243 222.061C317.357 219.651 318.528 217.268 319.668 214.87C320.8 212.468 321.993 210.094 323.179 207.718C324.354 205.336 325.582 202.979 326.827 200.63C326.836 200.615 326.849 200.603 326.866 200.597C326.883 200.592 326.901 200.593 326.916 200.6C326.932 200.607 326.945 200.621 326.951 200.637C326.957 200.653 326.957 200.671 326.951 200.687L326.951 200.687Z" fill="#2B2B2B"/>
<path d="M289.547 153.641C289.83 153.631 290.098 153.512 290.295 153.308C290.492 153.104 290.602 152.832 290.602 152.549C290.602 152.266 290.492 151.994 290.295 151.79C290.098 151.587 289.83 151.467 289.547 151.458C289.264 151.467 288.996 151.587 288.799 151.79C288.603 151.994 288.493 152.266 288.493 152.549C288.493 152.832 288.603 153.104 288.799 153.308C288.996 153.512 289.264 153.631 289.547 153.641Z" fill="#2B2B2B"/>
</svg>
