<svg width="500" height="393" viewBox="0 0 500 393" fill="none" xmlns="http://www.w3.org/2000/svg">
<path d="M405.537 212.707C405.073 212.1 404.665 211.457 404.258 210.807C396.408 198.464 362.108 204.314 362.108 204.314C358.23 234.071 351.48 230.564 350.23 228.692C348.98 226.821 346.723 208.442 345.23 205.942C340.916 205.564 332.101 205.628 332.101 205.628C323.594 205.828 315.594 213.314 307.723 225.507C299.851 237.692 285.973 248.007 285.973 248.007C285.973 248.007 290.094 248.385 291.594 257.385C292.516 257.671 295.28 256.45 297.294 255.464C299.091 254.585 301.095 254.216 303.087 254.4C306.33 254.7 310.994 255.735 314.723 259.264C315.181 259.691 315.668 260.088 316.18 260.45C316.651 260.185 316.916 260.007 316.916 260.007C324.601 256.821 329.101 245.757 329.101 245.757C328.478 244.366 328.115 242.872 328.03 241.35C327.908 239.834 327.93 238.311 328.094 236.8C328.258 235.321 328.373 233.857 328.416 232.385C328.49 230.902 328.426 229.414 328.223 227.943C328.835 229.34 329.184 230.839 329.251 232.364C329.356 233.878 329.325 235.398 329.158 236.907C328.994 238.378 328.901 239.842 328.866 241.321C328.813 242.804 328.891 244.288 329.101 245.757C329.532 249.705 330.466 253.581 331.88 257.292C333.91 257.965 336.005 258.427 338.13 258.671C339.175 258.79 340.229 258.824 341.28 258.771C342.356 258.711 343.429 258.597 344.494 258.428C343.533 259.004 342.475 259.401 341.373 259.6C340.821 259.706 340.262 259.773 339.701 259.8C339.139 259.807 338.576 259.785 338.016 259.735C336.901 259.614 335.806 259.35 334.758 258.95C333.714 258.561 332.741 258.001 331.88 257.292C332.481 258.944 333.28 260.518 334.258 261.978C339.557 262.283 344.75 263.585 349.566 265.814C350.787 266.378 351.908 267.135 353.037 267.692C354.186 268.266 355.39 268.723 356.63 269.057C359.127 269.736 361.699 270.101 364.287 270.142C365.601 270.185 366.851 270.114 368.208 270.071C369.542 270.056 370.875 270.121 372.201 270.264C374.83 270.535 377.451 270.835 380.051 271.293C381.044 271.464 382.03 271.65 383.016 271.843C382.559 271.222 382.166 270.557 381.844 269.857C381.342 268.802 380.966 267.692 380.723 266.55C380.473 265.408 380.322 264.246 380.273 263.078C380.208 261.9 380.253 260.719 380.408 259.55L380.416 259.514L380.43 259.464C380.821 258.196 381.063 256.888 381.151 255.564C381.262 254.221 381.276 252.873 381.194 251.528C381.101 250.182 380.937 248.842 380.701 247.514C380.444 246.207 380.101 244.842 379.916 243.464C379.541 240.716 379.455 237.937 379.658 235.171C379.73 233.793 379.873 232.414 380.08 231.057C380.27 229.694 380.53 228.343 380.858 227.007C380.52 229.723 380.334 232.456 380.301 235.193C380.262 237.909 380.46 240.624 380.894 243.307C380.987 243.978 381.151 244.635 381.287 245.293L381.73 247.321C381.993 248.692 382.167 250.078 382.251 251.471C382.462 254.264 382.14 257.071 381.301 259.743C381.124 260.841 381.033 261.951 381.03 263.064C381.022 264.196 381.11 265.326 381.294 266.443C381.474 267.563 381.761 268.663 382.151 269.728C382.427 270.477 382.773 271.197 383.187 271.878C384.737 272.193 386.273 272.55 387.794 272.971C390.352 273.64 392.811 274.641 395.108 275.95C392.735 274.833 390.236 274.003 387.666 273.478C386.344 273.171 385.013 272.904 383.673 272.678C383.669 272.674 383.664 272.672 383.658 272.671C382.423 272.457 381.18 272.271 379.93 272.107C377.33 271.771 374.723 271.478 372.116 271.271C370.824 271.15 369.527 271.1 368.23 271.121C366.966 271.164 365.58 271.257 364.266 271.214C361.588 271.159 358.928 270.761 356.351 270.028C355.058 269.65 353.805 269.148 352.608 268.528C352.008 268.235 351.423 267.842 350.873 267.521C350.323 267.185 349.773 266.835 349.194 266.55C346.884 265.337 344.451 264.374 341.937 263.678C339.423 262.925 336.856 262.357 334.259 261.978L328.351 262.543C328.534 262.794 328.667 263.077 328.744 263.378C330.266 268.3 328.073 287.578 328.073 287.578C336.508 293.764 383.201 303.328 383.201 303.328C413.301 308.392 413.58 281.664 413.58 281.664C418.965 233.7 408.38 216.392 405.537 212.707ZM367.873 261.6C367.321 261.706 366.762 261.773 366.201 261.8C365.639 261.807 365.076 261.785 364.515 261.735C363.401 261.614 362.306 261.35 361.258 260.95C360.214 260.561 359.241 260.001 358.38 259.292C360.41 259.965 362.505 260.427 364.63 260.671C365.675 260.79 366.729 260.824 367.78 260.771C368.856 260.711 369.929 260.597 370.994 260.428C370.033 261.004 368.975 261.401 367.873 261.6V261.6Z" fill="#2B2B2B"/>
<path d="M345.167 205.976C344.962 205.666 344.733 205.372 344.483 205.096C344.234 204.825 343.96 204.578 343.666 204.357C343.374 204.141 343.058 203.958 342.725 203.812C342.405 203.668 342.063 203.576 341.714 203.538L341.826 203.516C341.109 203.861 340.351 204.115 339.571 204.27C338.778 204.441 337.962 204.467 337.16 204.349C336.327 204.225 335.542 203.883 334.886 203.355C334.282 202.815 333.753 202.197 333.311 201.519C332.449 200.212 331.682 198.845 331.017 197.427C330.347 196.02 329.744 194.597 329.181 193.135L329.759 193.517C329.093 193.584 328.422 193.482 327.806 193.22C327.448 193.052 327.145 192.784 326.935 192.448C326.742 192.124 326.626 191.759 326.598 191.382C326.565 190.736 326.656 190.09 326.868 189.479C327.055 188.897 327.3 188.335 327.601 187.802C328.166 186.976 328.431 185.981 328.352 184.984C328.307 184.498 328.173 184.025 327.958 183.588L327.569 182.859C327.434 182.6 327.303 182.338 327.181 182.069C326.929 181.531 326.727 180.97 326.58 180.395C326.419 179.834 326.288 179.266 326.189 178.691C326.065 178.121 326.027 177.536 325.955 176.959C325.932 176.375 325.897 175.794 325.928 175.211C325.976 172.869 326.55 170.567 327.606 168.476C327.642 168.405 327.698 168.347 327.767 168.307C327.835 168.267 327.914 168.248 327.993 168.251C328.072 168.254 328.149 168.279 328.214 168.324C328.28 168.369 328.331 168.432 328.362 168.505L328.369 168.521C329.241 170.534 330.353 172.433 331.682 174.178C333.006 175.941 334.596 177.486 336.394 178.759C338.188 180.035 340.237 180.908 342.401 181.316C344.561 181.714 346.78 181.655 348.915 181.142L348.93 181.138C348.981 181.127 349.033 181.13 349.082 181.147C349.13 181.165 349.173 181.195 349.204 181.236C350.066 182.422 350.666 183.778 350.966 185.213C351.284 186.615 351.446 188.048 351.45 189.486C351.458 190.917 351.356 192.346 351.145 193.761C350.894 195.105 350.799 196.473 350.863 197.839C350.928 199.158 351.285 200.447 351.908 201.612C352.53 202.734 353.481 203.639 354.633 204.204C355.807 204.752 357.104 204.983 358.395 204.873C359.717 204.767 361.012 204.433 362.222 203.888C362.338 203.838 362.466 203.819 362.592 203.833C362.718 203.848 362.838 203.896 362.94 203.972C363.042 204.047 363.122 204.149 363.172 204.266C363.223 204.382 363.241 204.51 363.226 204.636L363.225 204.646C362.7 209.198 361.885 213.713 360.783 218.161C360.213 220.406 359.462 222.602 358.54 224.727C358.066 225.813 357.484 226.848 356.803 227.817C356.447 228.316 356.043 228.78 355.597 229.2C355.134 229.655 354.589 230.018 353.991 230.27C353.352 230.545 352.644 230.623 351.96 230.494C351.282 230.355 350.659 230.023 350.166 229.538C349.903 229.288 349.693 228.988 349.549 228.655C349.434 228.368 349.336 228.074 349.256 227.774C349.096 227.203 348.975 226.641 348.855 226.078C348.383 223.829 348.059 221.576 347.699 219.327L346.641 212.588C346.46 211.466 346.27 210.346 346.051 209.233C345.873 208.119 345.577 207.027 345.167 205.976L345.163 205.966C345.155 205.949 345.154 205.93 345.161 205.913C345.167 205.896 345.179 205.881 345.196 205.873C345.212 205.865 345.231 205.863 345.249 205.869C345.266 205.874 345.281 205.886 345.29 205.903C345.788 206.939 346.162 208.029 346.405 209.153C346.689 210.259 346.942 211.371 347.187 212.483C347.682 214.709 348.099 216.947 348.547 219.177C348.987 221.408 349.442 223.639 349.943 225.835C350.073 226.381 350.207 226.929 350.367 227.449C350.44 227.698 350.527 227.942 350.628 228.181C350.717 228.368 350.843 228.536 350.999 228.673C351.323 228.987 351.735 229.195 352.181 229.268C352.626 229.342 353.083 229.278 353.491 229.085C354.391 228.605 355.147 227.894 355.682 227.025C356.282 226.113 356.798 225.147 357.222 224.141C358.087 222.08 358.786 219.953 359.311 217.78C360.373 213.386 361.201 208.94 361.791 204.459L362.794 205.216C361.425 205.809 359.965 206.162 358.477 206.259C356.949 206.363 355.42 206.065 354.043 205.396C352.658 204.698 351.526 203.587 350.803 202.216C350.122 200.878 349.748 199.405 349.707 197.904C349.67 196.457 349.805 195.01 350.109 193.595C350.364 192.236 350.514 190.86 350.559 189.479C350.61 188.102 350.504 186.724 350.243 185.372C350.009 184.038 349.502 182.766 348.754 181.636L349.043 181.73C346.824 182.19 344.536 182.209 342.309 181.787C341.2 181.571 340.12 181.228 339.089 180.765C338.056 180.316 337.068 179.768 336.14 179.129C334.291 177.842 332.637 176.296 331.227 174.539C329.786 172.797 328.562 170.886 327.584 168.848L328.347 168.893C327.451 170.882 327.006 173.044 327.043 175.225C327.048 176.313 327.161 177.398 327.383 178.464C327.487 178.997 327.619 179.525 327.781 180.044C327.924 180.558 328.109 181.058 328.336 181.541C328.448 181.784 328.569 182.026 328.696 182.266C328.823 182.513 328.953 182.723 329.105 183.026C329.39 183.601 329.569 184.223 329.631 184.862C329.728 186.132 329.391 187.397 328.675 188.451C328.147 189.302 327.851 190.277 327.814 191.278C327.811 191.458 327.859 191.636 327.953 191.79C328.046 191.945 328.181 192.07 328.342 192.151C328.77 192.329 329.234 192.4 329.694 192.359L329.702 192.358C329.825 192.353 329.947 192.387 330.05 192.456C330.152 192.524 330.23 192.624 330.272 192.74C330.783 194.167 331.36 195.593 331.975 196.986C332.568 198.384 333.26 199.736 334.047 201.034C334.422 201.664 334.878 202.242 335.403 202.754C335.94 203.215 336.589 203.526 337.285 203.654C338.756 203.887 340.262 203.699 341.631 203.112L341.66 203.1C341.686 203.09 341.714 203.086 341.742 203.09C342.142 203.151 342.528 203.278 342.887 203.465C343.235 203.643 343.562 203.859 343.862 204.109C344.154 204.362 344.421 204.643 344.659 204.947C344.893 205.249 345.104 205.569 345.29 205.903C345.295 205.911 345.298 205.92 345.299 205.929C345.3 205.938 345.299 205.948 345.297 205.957C345.295 205.966 345.29 205.974 345.285 205.982C345.279 205.989 345.272 205.996 345.264 206C345.247 206.009 345.229 206.011 345.211 206.007C345.193 206.002 345.178 205.991 345.167 205.976Z" fill="#2B2B2B"/>
<path d="M328.262 192.769C328.116 193.905 327.964 195.032 327.845 196.161C327.733 197.29 327.625 198.416 327.59 199.542C327.535 200.662 327.581 201.784 327.729 202.895C327.802 203.446 327.95 203.983 328.168 204.494C328.373 205.018 328.715 205.477 329.157 205.825C328.633 205.556 328.201 205.137 327.916 204.622C327.633 204.107 327.423 203.555 327.293 202.981C327.048 201.845 326.954 200.682 327.012 199.521C327.059 198.372 327.191 197.227 327.407 196.097C327.608 194.967 327.894 193.855 328.262 192.769Z" fill="#2B2B2B"/>
<path d="M327.918 168.725C327.771 168.469 327.677 168.185 327.644 167.891C327.61 167.597 327.636 167.3 327.722 167.017L327.839 166.591L328.024 166.197C328.088 166.067 328.146 165.931 328.217 165.804L328.459 165.447C328.781 164.97 329.146 164.524 329.55 164.113C329.959 163.716 330.394 163.35 330.821 162.97C332.623 161.608 334.552 160.423 336.582 159.434C337.595 158.953 338.619 158.493 339.643 158.036C340.678 157.611 341.72 157.201 342.764 156.797C343.81 156.414 344.873 156.083 345.929 155.732C346.464 155.572 346.979 155.389 347.551 155.231C348.105 155.082 348.666 154.963 349.233 154.873C351.483 154.503 353.785 154.597 355.997 155.149C358.201 155.704 360.238 156.783 361.935 158.295C363.609 159.829 364.989 161.657 366.005 163.688C367.027 165.71 367.807 167.846 368.331 170.05L368.341 170.109C368.893 173.134 369.864 176.068 371.225 178.825C371.897 180.201 372.675 181.522 373.552 182.777C374.415 184.034 375.389 185.211 376.463 186.294L378.162 187.868C378.773 188.402 379.347 188.978 379.881 189.59C380.973 190.797 381.875 192.164 382.553 193.643C383.96 196.567 384.312 199.887 383.549 203.041C383.545 203.059 383.533 203.074 383.518 203.083C383.503 203.093 383.484 203.096 383.466 203.093C383.448 203.089 383.433 203.079 383.422 203.064C383.412 203.049 383.407 203.031 383.41 203.013L383.411 203.005C383.612 201.465 383.55 199.903 383.227 198.384C382.935 196.879 382.406 195.43 381.659 194.092C381.292 193.427 380.883 192.785 380.436 192.171C379.977 191.566 379.479 190.991 378.946 190.45C378.425 189.897 377.866 189.379 377.275 188.902L375.46 187.331C373.129 185.079 371.237 182.414 369.879 179.471C369.203 178.014 368.632 176.511 368.168 174.973C367.687 173.434 367.337 171.858 367.122 170.26L367.132 170.319C366.706 168.174 366.068 166.077 365.229 164.058C364.389 162.035 363.157 160.199 361.603 158.656C360.803 157.91 359.914 157.267 358.954 156.742C357.988 156.23 356.955 155.854 355.885 155.626C353.742 155.199 351.531 155.251 349.411 155.78C348.886 155.901 348.368 156.05 347.858 156.226C347.368 156.399 346.848 156.624 346.33 156.82L343.21 157.988C342.186 158.4 341.16 158.806 340.127 159.197L337.09 160.502C335.09 161.399 333.162 162.449 331.323 163.641C330.893 163.968 330.448 164.285 330.032 164.63C329.622 164.978 329.241 165.358 328.891 165.766L328.63 166.073C328.554 166.182 328.491 166.297 328.419 166.409L328.211 166.75L328.067 167.117C327.861 167.602 327.849 168.149 328.034 168.643L328.041 168.658C328.049 168.674 328.05 168.693 328.044 168.709C328.038 168.726 328.027 168.741 328.011 168.749C327.995 168.758 327.977 168.76 327.96 168.756C327.942 168.751 327.927 168.74 327.918 168.725V168.725Z" fill="#2B2B2B"/>
<path d="M329.685 182.526C330.673 181.816 331.751 181.24 332.891 180.814C333.46 180.594 334.046 180.419 334.642 180.288C335.242 180.136 335.866 180.107 336.477 180.203C335.893 180.33 335.321 180.503 334.765 180.722L333.097 181.353C331.98 181.773 330.865 182.205 329.685 182.526Z" fill="#2B2B2B"/>
<path d="M332.81 186.519C333.035 186.511 333.248 186.416 333.404 186.255C333.561 186.093 333.648 185.877 333.648 185.652C333.648 185.427 333.561 185.211 333.404 185.049C333.248 184.887 333.035 184.792 332.81 184.785C332.586 184.792 332.373 184.887 332.216 185.049C332.06 185.211 331.973 185.427 331.973 185.652C331.973 185.877 332.06 186.093 332.216 186.255C332.373 186.416 332.586 186.511 332.81 186.519Z" fill="#2B2B2B"/>
<path d="M331.412 197.024C331.846 197.037 332.281 197.025 332.715 196.988C333.137 196.949 333.554 196.898 333.968 196.819C334.381 196.739 334.793 196.647 335.206 196.533C335.62 196.422 336.036 196.299 336.477 196.188C336.149 196.5 335.773 196.759 335.365 196.956C334.955 197.155 334.52 197.3 334.073 197.387C333.171 197.582 332.229 197.453 331.412 197.024Z" fill="#2B2B2B"/>
<path d="M328.195 285.017C326.047 284.226 323.839 283.61 321.591 283.176C319.379 282.725 317.107 282.653 314.871 282.961L314.048 283.1L313.244 283.319C312.71 283.467 312.186 283.648 311.674 283.859C310.65 284.3 309.669 284.833 308.742 285.452C307.798 286.071 306.902 286.78 305.847 287.392C304.791 287.985 303.654 288.422 302.473 288.688C301.3 288.966 300.095 289.088 298.889 289.049C297.627 289.051 296.383 288.749 295.262 288.169C294.952 287.98 294.676 287.742 294.445 287.462C294.238 287.208 294.11 287.022 293.929 286.814C293.589 286.422 293.195 286.081 292.759 285.8C291.801 285.243 290.79 284.784 289.74 284.43C288.607 284.07 287.521 283.577 286.504 282.962C285.989 282.614 285.536 282.181 285.165 281.682C284.983 281.447 284.819 281.222 284.644 281.015C284.558 280.907 284.467 280.815 284.374 280.71C284.274 280.591 284.158 280.471 284.072 280.351C283.39 279.405 282.764 278.42 282.197 277.4C281.623 276.398 281.051 275.4 280.504 274.383L280.671 274.506L279.2 274.185C278.692 274.099 278.193 273.962 277.712 273.778C276.746 273.375 275.898 272.733 275.247 271.913C274.89 271.503 274.646 271.008 274.536 270.475C274.494 270.195 274.512 269.909 274.589 269.636C274.665 269.363 274.798 269.109 274.98 268.891C275.327 268.481 275.752 268.145 276.23 267.901C276.708 267.656 277.23 267.509 277.765 267.468C278.282 267.438 278.801 267.46 279.315 267.532L280.812 267.639C281.81 267.702 282.81 267.749 283.809 267.78C285.807 267.841 287.807 267.827 289.793 267.703C291.766 267.601 293.725 267.326 295.65 266.883C296.58 266.662 297.482 266.332 298.335 265.899C298.735 265.691 299.107 265.432 299.443 265.131C299.78 264.822 300.086 264.481 300.357 264.112C300.583 263.856 300.724 263.536 300.761 263.196C300.749 263.123 300.737 263.094 300.643 263.013C300.503 262.923 300.349 262.855 300.189 262.811C299.295 262.63 298.376 262.618 297.479 262.774C297.02 262.838 296.566 262.938 296.123 263.072C295.942 263.126 295.767 263.199 295.603 263.291L295.449 263.391C295.381 263.438 295.313 263.476 295.245 263.514C295.113 263.588 294.976 263.655 294.835 263.713C294.311 263.922 293.763 264.064 293.204 264.136C292.935 264.175 292.668 264.201 292.402 264.22C292.093 264.248 291.783 264.236 291.477 264.186C290.831 264.076 290.232 263.774 289.761 263.318C289.312 262.868 288.986 262.31 288.815 261.697C288.516 260.523 288.674 259.279 289.256 258.216C289.546 257.624 290.003 257.13 290.571 256.796C290.761 256.696 290.966 256.63 291.178 256.6C291.303 256.583 291.428 256.582 291.553 256.597C291.617 256.604 291.681 256.616 291.745 256.632L291.825 256.653L291.835 256.652C291.98 256.666 292.128 256.657 292.27 256.624C293.189 256.413 294.085 256.111 294.945 255.724C295.397 255.532 295.847 255.332 296.295 255.122L296.967 254.804C297.208 254.689 297.452 254.58 297.701 254.479C298.697 254.08 299.743 253.822 300.81 253.714C301.865 253.618 302.927 253.655 303.973 253.823C304.995 253.963 306.007 254.168 307.003 254.437C309.01 254.966 310.917 255.815 312.652 256.952C313.513 257.529 314.318 258.184 315.059 258.909C315.774 259.567 316.538 260.168 317.345 260.709C320.789 262.717 324.764 263.623 328.738 263.307L328.744 263.306C328.762 263.305 328.781 263.311 328.795 263.323C328.809 263.335 328.818 263.352 328.819 263.37C328.821 263.389 328.816 263.407 328.804 263.422C328.793 263.436 328.776 263.445 328.758 263.448C324.695 264.072 320.54 263.363 316.914 261.427C316.027 260.891 315.184 260.286 314.392 259.617C312.199 257.669 309.55 256.307 306.69 255.656C305.741 255.427 304.778 255.259 303.807 255.153C302.865 255.026 301.91 255.017 300.965 255.128C300.033 255.238 299.121 255.476 298.254 255.834C298.039 255.925 297.826 256.023 297.616 256.126L296.93 256.462C296.472 256.682 296.008 256.896 295.539 257.104C294.575 257.557 293.563 257.902 292.522 258.133C292.173 258.206 291.813 258.207 291.463 258.134L291.38 258.115C291.353 258.108 291.375 258.115 291.37 258.113L291.377 258.114C291.381 258.115 291.382 258.114 291.376 258.114C291.339 258.122 291.304 258.135 291.272 258.153C290.981 258.35 290.749 258.62 290.599 258.937C290.203 259.653 290.088 260.491 290.277 261.287C290.375 261.647 290.559 261.977 290.813 262.25C291.065 262.5 291.387 262.669 291.737 262.733C291.927 262.767 292.12 262.776 292.312 262.758C292.547 262.745 292.78 262.726 293.008 262.697C293.447 262.648 293.877 262.545 294.29 262.39C294.382 262.355 294.472 262.313 294.559 262.266C294.6 262.245 294.64 262.222 294.679 262.196L294.842 262.094C295.113 261.937 295.403 261.814 295.705 261.729C296.224 261.579 296.755 261.47 297.292 261.403C298.38 261.232 299.491 261.274 300.563 261.527C300.886 261.621 301.19 261.77 301.461 261.969C301.63 262.1 301.771 262.263 301.875 262.45C301.98 262.636 302.045 262.842 302.068 263.054C302.097 263.421 302.025 263.788 301.861 264.117C301.737 264.388 301.581 264.643 301.398 264.877C301.067 265.313 300.692 265.713 300.277 266.07C299.856 266.429 299.392 266.735 298.895 266.978C297.944 267.431 296.943 267.77 295.913 267.987C293.912 268.399 291.875 268.613 289.832 268.627C287.807 268.67 285.788 268.601 283.776 268.472C282.77 268.407 281.766 268.324 280.764 268.224L279.262 268.063C278.782 267.988 278.296 267.961 277.81 267.98C277.341 268.01 276.883 268.132 276.461 268.339C276.039 268.546 275.663 268.833 275.352 269.186C275.208 269.352 275.1 269.547 275.037 269.757C274.974 269.968 274.957 270.19 274.987 270.407C275.079 270.863 275.286 271.288 275.588 271.641C276.187 272.405 276.978 272.998 277.879 273.36C278.337 273.529 278.811 273.654 279.294 273.73L280.772 274.018C280.805 274.025 280.837 274.039 280.865 274.058C280.894 274.078 280.917 274.104 280.934 274.133L280.939 274.142C282.045 276.136 283.287 278.051 284.657 279.875C284.743 279.986 284.835 280.067 284.923 280.165C285.026 280.271 285.141 280.38 285.239 280.492C285.445 280.715 285.63 280.948 285.81 281.159C286.143 281.572 286.545 281.925 286.997 282.203C287.976 282.733 289.013 283.148 290.088 283.437C291.235 283.768 292.342 284.222 293.39 284.793C293.929 285.124 294.419 285.529 294.845 285.997C295.048 286.217 295.258 286.498 295.42 286.683C295.563 286.84 295.729 286.975 295.913 287.084C296.852 287.543 297.887 287.778 298.933 287.768C300.029 287.802 301.125 287.7 302.195 287.463C303.263 287.235 304.292 286.853 305.25 286.33C306.189 285.795 307.131 285.111 308.12 284.487C309.121 283.852 310.179 283.31 311.28 282.867C311.839 282.663 312.41 282.491 312.99 282.355L313.86 282.157L314.743 282.044C317.081 281.806 319.443 281.982 321.72 282.565C323.964 283.133 326.15 283.91 328.249 284.885C328.266 284.892 328.279 284.906 328.286 284.923C328.293 284.94 328.294 284.959 328.287 284.976C328.281 284.993 328.268 285.007 328.251 285.015C328.235 285.023 328.216 285.024 328.198 285.018L328.195 285.017Z" fill="#2B2B2B"/>
<path d="M280.719 274.262C282.11 274.142 283.501 274.087 284.892 274.04C286.283 273.987 287.674 273.98 289.065 273.973L291.151 273.988C291.868 273.988 292.582 274.086 293.272 274.281C294.593 274.75 295.881 275.307 297.128 275.949C296.456 275.757 295.798 275.53 295.133 275.321C294.492 275.074 293.834 274.871 293.166 274.712C292.503 274.576 291.827 274.516 291.151 274.535L289.065 274.55C287.674 274.543 286.283 274.536 284.892 274.483C283.501 274.437 282.11 274.381 280.719 274.262Z" fill="#2B2B2B"/>
<path d="M281.426 275.505C282.361 276.226 283.255 276.996 284.143 277.772C284.602 278.145 285.01 278.585 285.457 278.896C285.908 279.221 286.413 279.462 286.949 279.608C287.466 279.763 288.063 279.787 288.652 279.897C289.239 279.993 289.821 280.12 290.395 280.277C291.569 280.524 292.661 281.067 293.565 281.856C293.079 281.533 292.545 281.288 291.984 281.129C291.431 280.952 290.866 280.812 290.294 280.711C289.721 280.611 289.149 280.508 288.57 280.438C287.973 280.381 287.38 280.29 286.793 280.165C286.193 279.994 285.63 279.712 285.133 279.336C284.675 278.948 284.241 278.532 283.835 278.091C283.014 277.25 282.2 276.402 281.426 275.505Z" fill="#2B2B2B"/>
<path d="M268.281 257.013C267.821 256.079 267.258 255.199 266.603 254.39L266.713 254.461C265.617 254.289 264.596 253.799 263.776 253.052C263.348 252.62 263.085 252.052 263.031 251.446C263.005 251.146 263.018 250.843 263.071 250.546C263.144 250.263 263.233 249.984 263.337 249.711C263.837 248.646 264.717 247.806 265.805 247.357C266.35 247.099 266.942 246.957 267.545 246.941C268.194 246.937 268.828 247.136 269.358 247.511L268.418 247.811C268.562 247.422 268.758 247.054 269.002 246.719C269.234 246.39 269.504 246.091 269.809 245.829C270.423 245.304 271.153 244.93 271.939 244.739C272.697 244.557 273.483 244.517 274.256 244.619L274.809 244.69C275.024 244.722 275.236 244.774 275.441 244.847C275.822 244.977 276.188 245.149 276.531 245.361C277.825 246.198 278.86 247.379 279.52 248.772C280.167 250.091 280.638 251.489 280.921 252.931L279.574 253.013C279.69 252.096 279.966 251.206 280.389 250.384C280.811 249.537 281.439 248.81 282.216 248.27C283.01 247.75 283.933 247.464 284.882 247.443C285.108 247.434 285.335 247.441 285.561 247.464L285.898 247.485C286.031 247.491 286.162 247.512 286.289 247.549C286.745 247.684 287.175 247.894 287.563 248.17C288.954 249.263 289.982 250.751 290.513 252.439C291.074 254.036 291.437 255.697 291.595 257.382C291.224 255.757 290.692 254.173 290.008 252.653C289.384 251.17 288.357 249.893 287.043 248.966C286.733 248.775 286.396 248.632 286.044 248.54C285.968 248.522 285.891 248.514 285.813 248.519L285.522 248.516C284.592 248.469 283.672 248.732 282.906 249.264C282.333 249.741 281.863 250.329 281.524 250.993C281.184 251.657 280.984 252.383 280.933 253.127L280.933 253.131C280.915 253.293 280.841 253.442 280.724 253.554C280.607 253.665 280.454 253.732 280.292 253.741C280.13 253.75 279.971 253.702 279.841 253.605C279.712 253.507 279.621 253.367 279.585 253.209C279.312 251.895 278.87 250.623 278.27 249.423C277.709 248.269 276.857 247.282 275.797 246.56C275.544 246.399 275.274 246.267 274.992 246.167C274.867 246.12 274.738 246.086 274.606 246.065L274.114 245.996C273.494 245.906 272.862 245.927 272.249 246.056C271.661 246.179 271.11 246.438 270.641 246.813C270.182 247.186 269.818 247.662 269.579 248.202L269.55 248.27C269.488 248.414 269.372 248.528 269.227 248.587C269.081 248.645 268.918 248.644 268.774 248.582C268.726 248.561 268.68 248.534 268.639 248.502C268.287 248.263 267.878 248.123 267.455 248.096C267.031 248.07 266.607 248.157 266.229 248.35C265.347 248.661 264.608 249.282 264.149 250.097C263.91 250.479 263.795 250.924 263.817 251.374C263.84 251.823 264 252.255 264.275 252.611C264.951 253.339 265.823 253.859 266.786 254.107L266.81 254.114C266.846 254.125 266.876 254.148 266.897 254.179C267.485 255.056 267.951 256.009 268.281 257.013Z" fill="#2B2B2B"/>
<path d="M263.462 256.527C263.079 255.739 262.399 255.134 261.572 254.845C260.768 254.615 259.908 254.68 259.147 255.028C258.781 255.141 258.452 255.35 258.195 255.634C257.938 255.918 257.763 256.267 257.687 256.642C257.652 257.428 257.867 258.205 258.299 258.863C258.734 259.589 259.252 260.262 259.842 260.869C259.986 261.027 260.136 261.17 260.285 261.317L260.77 261.74C261.115 262.039 261.449 262.343 261.78 262.65C263.105 263.876 264.343 265.164 265.578 266.47C265.671 266.568 265.732 266.692 265.754 266.825L265.761 266.87C265.842 267.286 265.978 267.689 266.164 268.069C266.555 268.885 267.111 269.611 267.797 270.202C268.146 270.517 268.494 270.728 268.96 271.086C269.814 271.756 270.534 272.58 271.083 273.516C271.636 274.435 272.046 275.434 272.298 276.477L272.266 276.375C272.591 277.276 273.203 278.046 274.006 278.568C274.865 279.069 275.839 279.337 276.833 279.345C277.876 279.368 278.917 279.26 279.933 279.024C280.972 278.798 281.991 278.488 282.981 278.098C282.051 278.644 281.069 279.095 280.05 279.443C279.014 279.806 277.934 280.027 276.839 280.1C275.688 280.182 274.536 279.953 273.504 279.436C272.983 279.146 272.514 278.77 272.119 278.324C271.736 277.874 271.418 277.373 271.172 276.836L271.159 276.803L271.139 276.734C270.875 275.84 270.485 274.987 269.98 274.203C269.48 273.428 268.852 272.744 268.121 272.181C267.793 271.93 267.284 271.614 266.886 271.26C266.466 270.908 266.085 270.512 265.748 270.081C265.404 269.648 265.111 269.176 264.875 268.676C264.625 268.154 264.452 267.598 264.362 267.026L264.544 267.426C263.348 266.125 262.114 264.843 260.876 263.59C260.564 263.28 260.249 262.972 259.931 262.677L259.425 262.202C259.261 262.031 259.096 261.86 258.945 261.683C258.327 260.976 257.797 260.198 257.364 259.365C256.859 258.491 256.669 257.47 256.823 256.473C256.879 256.21 256.978 255.959 257.116 255.729C257.263 255.512 257.43 255.309 257.615 255.122L258.236 254.695L258.902 254.421C259.813 254.099 260.812 254.128 261.703 254.502C262.12 254.7 262.491 254.983 262.794 255.331C263.096 255.68 263.324 256.087 263.462 256.527Z" fill="#2B2B2B"/>
<path d="M265.061 266.948C264.843 266.158 264.858 265.321 265.105 264.539C265.223 264.13 265.433 263.755 265.718 263.439C265.858 263.278 266.031 263.148 266.225 263.058C266.418 262.968 266.629 262.919 266.843 262.916C266.525 263.115 266.262 263.389 266.076 263.714C265.895 264.029 265.754 264.364 265.656 264.713C265.427 265.42 265.288 266.168 265.061 266.948Z" fill="#2B2B2B"/>
<path d="M266.749 254.286C267.24 254.165 267.641 254.081 268.066 253.997C268.511 253.897 268.965 253.838 269.421 253.821C269.111 254.213 268.668 254.478 268.176 254.564C267.932 254.622 267.679 254.627 267.432 254.578C267.186 254.53 266.953 254.431 266.749 254.286Z" fill="#2B2B2B"/>
<path d="M269.356 248.005C269.348 248.625 269.43 249.244 269.599 249.841C269.748 250.437 270.066 250.977 270.514 251.397C270.751 251.597 271.027 251.747 271.323 251.836C271.62 251.926 271.932 251.954 272.24 251.919C272.561 251.893 272.879 251.84 273.191 251.762L274.109 251.43L273.219 251.847C272.906 251.957 272.585 252.04 272.258 252.097C271.92 252.164 271.571 252.161 271.234 252.09C270.897 252.018 270.577 251.878 270.295 251.68C269.743 251.252 269.325 250.674 269.092 250.015C268.844 249.373 268.693 248.697 268.642 248.011C268.638 247.964 268.643 247.916 268.657 247.871C268.671 247.826 268.694 247.784 268.725 247.747C268.756 247.711 268.793 247.681 268.835 247.66C268.877 247.638 268.924 247.625 268.971 247.622C269.018 247.618 269.066 247.624 269.111 247.638C269.156 247.653 269.197 247.677 269.233 247.708C269.269 247.739 269.298 247.777 269.319 247.819C269.34 247.862 269.353 247.908 269.356 247.955C269.356 247.966 269.357 247.977 269.357 247.988L269.356 248.005Z" fill="#2B2B2B"/>
<path d="M272.234 252.04C272.73 252.795 273.168 253.587 273.544 254.408C273.966 255.234 274.254 256.122 274.398 257.039C274.439 257.209 274.52 257.367 274.635 257.499C274.75 257.632 274.895 257.734 275.059 257.798C275.432 257.986 275.833 258.114 276.246 258.178C276.668 258.255 277.101 258.259 277.524 258.189C277.961 258.152 278.367 257.948 278.657 257.619C278.548 257.826 278.397 258.008 278.213 258.154C278.03 258.299 277.818 258.405 277.592 258.464C277.14 258.598 276.669 258.651 276.199 258.62C275.72 258.599 275.248 258.486 274.811 258.286C274.556 258.186 274.332 258.023 274.158 257.811C273.985 257.599 273.869 257.346 273.822 257.077C273.678 256.221 273.448 255.383 273.134 254.574L272.234 252.04Z" fill="#2B2B2B"/>
<path d="M280.956 252.955C281.114 254.071 281.468 255.149 282.002 256.141C282.135 256.378 282.287 256.605 282.456 256.819C282.671 257.076 282.86 257.352 283.023 257.645C283.187 257.941 283.318 258.255 283.414 258.579C283.512 258.921 283.558 259.205 283.626 259.488C283.661 259.74 283.73 259.986 283.831 260.22C283.971 260.43 284.147 260.613 284.351 260.762C284.553 260.919 284.784 261.036 285.031 261.103C285.278 261.171 285.536 261.19 285.789 261.157C286.325 261.046 286.806 260.756 287.153 260.334C287.545 259.9 287.878 259.417 288.144 258.897L288.129 258.943C288.308 258.102 288.426 257.25 288.485 256.393C288.562 255.532 288.505 254.664 288.314 253.821C288.567 254.656 288.688 255.525 288.673 256.398C288.677 257.272 288.619 258.146 288.5 259.013C288.498 259.026 288.494 259.039 288.489 259.051L288.485 259.059C288.24 259.635 287.921 260.177 287.535 260.67C287.139 261.214 286.568 261.607 285.918 261.784C285.576 261.855 285.222 261.858 284.879 261.792C284.536 261.726 284.209 261.593 283.918 261.399C283.617 261.213 283.354 260.973 283.14 260.692C283.023 260.536 282.938 260.359 282.889 260.17L282.755 259.724C282.634 259.176 282.424 258.652 282.134 258.173C281.985 257.947 281.816 257.736 281.628 257.542C281.403 257.297 281.197 257.035 281.013 256.759C280.313 255.666 279.816 254.456 279.546 253.187C279.525 253.095 279.522 253.001 279.538 252.908C279.553 252.815 279.587 252.727 279.637 252.647C279.687 252.568 279.752 252.499 279.828 252.444C279.905 252.39 279.991 252.351 280.083 252.33C280.174 252.309 280.269 252.306 280.362 252.321C280.454 252.337 280.543 252.371 280.623 252.42C280.702 252.47 280.771 252.535 280.826 252.612C280.88 252.688 280.919 252.775 280.94 252.866C280.944 252.883 280.947 252.9 280.95 252.918L280.956 252.955Z" fill="#2B2B2B"/>
<path d="M279.638 265.471C279.666 265.471 279.688 265.478 279.716 265.478L279.781 265.521L279.638 265.471Z" fill="#2B2B2B"/>
<path d="M294.13 264.507C281.858 262.642 270.294 257.885 267.423 256.65C266.925 256.432 266.393 256.304 265.851 256.271C263.237 256.135 262.337 256.985 262.094 257.864C261.985 258.288 262.016 258.736 262.182 259.142C262.348 259.547 262.64 259.888 263.016 260.114L275.78 268.142L275.787 268.135C276.43 267.362 277.175 266.68 278.001 266.107C277.7 266.741 277.328 267.34 276.894 267.893C278.082 267.566 279.337 267.571 280.523 267.907C295.301 269.307 299.016 266.221 299.016 266.221C297.43 264.743 294.13 264.507 294.13 264.507ZM283.351 263.285L286.351 265.471L279.473 264.442L273.28 260.293L283.351 263.285ZM287.209 266.992C284.651 266.757 282.101 266.464 279.551 266.178C279.501 266.169 279.453 266.152 279.408 266.128C277.051 264.707 274.701 263.271 272.373 261.8L268.88 259.578C267.737 258.814 266.573 258.078 265.437 257.292C266.658 257.935 267.858 258.614 269.066 259.271L272.658 261.321C275.03 262.671 277.373 264.071 279.715 265.478C282.23 265.785 284.758 266.1 287.273 266.457C289.808 266.814 292.351 267.185 294.88 267.628C292.316 267.471 289.759 267.235 287.209 266.992H287.209Z" fill="#FDB914"/>
<path d="M279.78 265.521L279.637 265.471C279.666 265.471 279.687 265.478 279.716 265.478L279.78 265.521Z" fill="#F2F2F2"/>
<path d="M192.765 163.056C192.765 163.056 190.931 161.956 189.219 163.912C189.219 163.912 186.162 159.569 173.201 163.33C173.201 163.33 174.913 166.602 176.136 166.602C177.359 166.602 173.813 172.227 170.511 171.983C170.511 171.983 164.887 180.175 169.166 188.123C173.384 195.956 176.415 198.445 180.598 193.363C180.727 193.206 180.87 193.061 181.026 192.931C182.229 191.938 187.556 187.813 189.444 190.889C189.846 191.572 189.961 192.387 189.764 193.155C188.902 196.764 184.873 210.057 173.201 204.752C173.201 204.752 159.6 199.652 162.808 187.568C163.151 186.34 163.649 185.159 164.289 184.055C164.906 182.928 165.286 181.686 165.406 180.406C165.527 179.126 165.384 177.836 164.988 176.613C164.496 174.87 163.387 173.365 161.867 172.379C160.394 171.46 158.452 171.049 156.981 173.619C156.372 174.688 156.051 175.897 156.049 177.127C156.046 178.253 156.256 179.634 157.184 180.297L156.049 182.498C155.432 181.243 154.643 180.079 153.705 179.042C152.134 177.451 151.124 175.39 150.83 173.174C150.415 169.657 150.915 164.407 155.105 158.288C155.105 158.288 160.729 147.039 171.245 147.283C181.761 147.528 190.809 150.34 192.765 163.056Z" fill="#2B2B2B"/>
<path d="M175.158 177.729C176.984 177.312 178.861 177.157 180.731 177.27C181.673 177.317 182.608 177.459 183.522 177.693C184.454 177.893 185.321 178.327 186.04 178.952C185.209 178.566 184.322 178.316 183.412 178.212C182.513 178.083 181.606 177.989 180.691 177.948C178.863 177.835 177.025 177.826 175.158 177.729Z" fill="#2B2B2B"/>
<path d="M192.766 177.555C192.097 177.758 191.478 178.099 190.949 178.556C190.698 178.763 190.494 179.02 190.349 179.312C190.204 179.603 190.123 179.922 190.11 180.246C190.159 180.913 190.334 181.564 190.625 182.166L191.424 184.132C192.021 185.462 192.367 186.89 192.447 188.346C192.446 188.729 192.375 189.109 192.239 189.468C192.093 189.831 191.854 190.149 191.545 190.39C190.92 190.784 190.181 190.96 189.444 190.889C190.135 190.83 190.792 190.567 191.332 190.134C191.554 189.897 191.721 189.615 191.822 189.307C191.923 188.999 191.956 188.672 191.917 188.35C191.864 187.669 191.726 186.998 191.505 186.351C191.3 185.689 191.054 185.034 190.793 184.38C190.541 183.722 190.269 183.067 190.025 182.393C189.908 182.052 189.789 181.713 189.697 181.354C189.583 180.983 189.544 180.593 189.583 180.207C189.624 179.823 189.749 179.452 189.95 179.122C190.15 178.792 190.421 178.51 190.743 178.296C191.349 177.892 192.042 177.637 192.766 177.555Z" fill="#2B2B2B"/>
<path d="M192.765 163.057C192.994 164.427 193.165 165.805 193.276 167.19C193.404 168.573 193.482 169.961 193.512 171.352C193.534 172.743 193.513 174.137 193.405 175.531C193.341 176.953 193.023 178.352 192.467 179.662C192.459 179.678 192.448 179.693 192.436 179.706C192.007 180.168 191.604 180.654 191.23 181.162C191.044 181.416 190.878 181.684 190.735 181.964C190.576 182.237 190.512 182.556 190.554 182.869C190.456 182.554 190.473 182.214 190.604 181.911C190.716 181.605 190.853 181.308 191.013 181.024C191.332 180.458 191.701 179.921 192.116 179.421L192.085 179.465C192.322 178.84 192.48 178.187 192.555 177.522C192.661 176.852 192.704 176.167 192.754 175.484C192.835 174.115 192.849 172.737 192.857 171.358C192.857 168.598 192.797 165.834 192.765 163.057Z" fill="#2B2B2B"/>
<path d="M185.429 187.022C185.3 187.288 185.196 187.564 185.117 187.849C185.038 188.112 185.02 188.39 185.066 188.66C185.104 188.929 185.222 189.18 185.403 189.381C185.595 189.603 185.809 189.806 186.04 189.986C185.892 189.942 185.747 189.89 185.604 189.83C185.466 189.754 185.335 189.664 185.215 189.562C184.962 189.343 184.792 189.045 184.732 188.717C184.689 188.392 184.738 188.061 184.872 187.762C184.998 187.476 185.188 187.222 185.429 187.022Z" fill="#2B2B2B"/>
<path d="M157.184 180.297C157.607 180.828 157.945 181.422 158.184 182.058C158.313 182.382 158.406 182.719 158.462 183.064C158.492 183.244 158.504 183.427 158.497 183.61L158.494 183.751L158.502 183.827C158.499 183.877 158.51 183.927 158.534 183.971C158.639 184.194 158.824 184.37 159.052 184.464C159.324 184.602 159.61 184.711 159.906 184.787C160.534 184.956 161.18 185.05 161.83 185.066C161.188 185.318 160.492 185.401 159.808 185.308C159.451 185.271 159.102 185.182 158.772 185.042C158.577 184.967 158.4 184.854 158.249 184.709C158.099 184.565 157.979 184.392 157.895 184.201C157.851 184.094 157.83 183.978 157.832 183.862L157.83 183.691L157.835 183.584C157.842 183.436 157.839 183.287 157.825 183.14C157.798 182.827 157.749 182.516 157.679 182.209C157.54 181.581 157.357 180.949 157.184 180.297Z" fill="#2B2B2B"/>
<path d="M156.049 182.498C155.776 183.487 155.391 184.442 154.902 185.344C154.423 186.259 153.845 187.118 153.178 187.907C152.511 188.711 151.72 189.402 150.834 189.956C149.947 190.507 148.931 190.816 147.887 190.853C148.842 190.566 149.74 190.113 150.539 189.516C151.321 188.915 152.033 188.227 152.661 187.467C153.307 186.708 153.904 185.908 154.448 185.073C154.997 184.234 155.541 183.384 156.049 182.498Z" fill="#2B2B2B"/>
<path d="M165.009 211.11C165.781 210.771 166.512 210.344 167.186 209.836C167.854 209.337 168.489 208.793 169.084 208.209C169.698 207.642 170.249 207.008 170.821 206.387L171.653 205.426C171.925 205.098 172.195 204.767 172.493 204.451C172.323 204.847 172.125 205.23 171.927 205.616C171.704 205.984 171.484 206.358 171.238 206.714C170.742 207.428 170.179 208.092 169.555 208.698C168.928 209.309 168.229 209.84 167.472 210.28C166.723 210.735 165.881 211.018 165.009 211.11Z" fill="#2B2B2B"/>
<path d="M152.776 187.687C152.168 186.785 151.415 185.989 150.549 185.332C150.368 185.173 150.15 185.063 149.914 185.013C149.679 184.963 149.434 184.975 149.205 185.047C148.799 185.323 148.508 185.737 148.386 186.211C148.219 186.718 148.099 187.238 148.026 187.767C147.99 188.029 147.958 188.303 147.934 188.556C147.936 188.796 147.957 189.079 147.981 189.342C148.086 190.42 148.286 191.487 148.578 192.53C149.116 194.653 149.952 196.689 151.061 198.577C152.185 200.465 153.529 202.212 155.065 203.782C155.836 204.561 156.636 205.311 157.449 206.043C158.293 206.739 159.099 207.487 159.978 208.126C160.402 208.468 160.869 208.746 161.311 209.059C161.78 209.329 162.23 209.635 162.718 209.863C163.661 210.376 164.664 210.769 165.704 211.034C167.781 211.585 169.988 211.353 171.905 210.383C173.832 209.354 175.451 207.831 176.595 205.971C176.599 205.963 176.606 205.957 176.615 205.954C176.623 205.951 176.633 205.952 176.641 205.956C176.648 205.961 176.654 205.968 176.656 205.976C176.659 205.985 176.659 205.994 176.655 206.002C175.66 208.022 174.096 209.708 172.156 210.851C171.162 211.415 170.069 211.781 168.937 211.93C167.8 212.065 166.649 211.991 165.539 211.714C164.437 211.453 163.376 211.04 162.386 210.489C161.881 210.238 161.422 209.913 160.943 209.623C160.493 209.291 160.017 208.993 159.59 208.634C158.695 207.962 157.912 207.177 157.084 206.439C156.662 206.08 156.304 205.651 155.916 205.256C155.543 204.846 155.138 204.467 154.791 204.034C153.344 202.36 152.029 200.576 150.86 198.698C149.669 196.82 148.72 194.799 148.037 192.683C147.703 191.613 147.485 190.509 147.387 189.392C147.368 189.106 147.351 188.839 147.357 188.529C147.39 188.234 147.429 187.961 147.475 187.679C147.565 187.117 147.706 186.565 147.898 186.03C147.984 185.734 148.128 185.459 148.322 185.219C148.516 184.98 148.755 184.782 149.026 184.636C149.331 184.516 149.669 184.509 149.978 184.616C150.26 184.713 150.522 184.857 150.755 185.042C151.61 185.77 152.316 186.656 152.834 187.651C152.837 187.655 152.838 187.66 152.839 187.664C152.839 187.668 152.839 187.673 152.838 187.677C152.837 187.681 152.835 187.685 152.832 187.689C152.829 187.692 152.826 187.695 152.822 187.698C152.814 187.702 152.805 187.703 152.797 187.701C152.789 187.699 152.781 187.694 152.776 187.687Z" fill="#2B2B2B"/>
<path d="M154.842 184.807C153.75 184.135 152.533 183.693 151.264 183.509C150.014 183.281 148.723 183.512 147.63 184.16C147.115 184.518 146.682 184.982 146.359 185.52L145.25 187.114C144.515 188.196 143.693 189.217 142.792 190.165C142.77 190.186 142.745 190.202 142.718 190.212C142.69 190.223 142.661 190.227 142.631 190.226L142.615 190.225C138.045 189.954 133.46 189.846 128.887 189.876C126.6 189.895 124.315 189.987 122.044 190.166C119.79 190.29 117.558 190.678 115.394 191.32L115.356 191.33L115.303 191.341C114.106 191.648 112.965 192.145 111.924 192.812C111.383 193.14 110.862 193.501 110.364 193.892L109.611 194.472C109.367 194.676 109.138 194.898 108.901 195.11C107.013 196.835 105.336 198.778 103.904 200.897C101.03 205.172 98.681 209.776 96.9077 214.612C96.4694 215.826 95.9894 217.023 95.585 218.249L94.4276 221.946C94.0359 223.163 93.6856 224.453 93.2294 225.686C92.7859 226.93 92.2668 228.134 91.77 229.329L90.2403 232.92L89.4437 234.71C89.1722 235.329 88.8696 235.934 88.5371 236.522C88.4695 236.632 88.3929 236.736 88.3079 236.833C88.3564 236.835 88.3606 236.723 88.3633 236.768C88.3555 236.838 88.3585 236.909 88.372 236.977C88.4229 237.23 88.5101 237.474 88.6308 237.702C88.8977 238.212 89.2541 238.669 89.6829 239.053C90.5588 239.84 91.6541 240.341 92.8223 240.488L92.3631 241.603C91.6426 241.04 90.9606 240.43 90.3218 239.776C89.9717 239.423 89.6664 239.029 89.4129 238.601C89.3365 238.462 89.2758 238.315 89.2321 238.163C89.209 238.062 89.1934 237.96 89.1854 237.858C89.1854 237.723 89.2083 237.589 89.2533 237.462C89.3045 237.326 89.3868 237.203 89.4937 237.104C89.5434 237.058 89.5955 237.014 89.6501 236.974C89.6974 236.947 89.7435 236.925 89.7915 236.902C89.9523 236.828 90.1239 236.78 90.2998 236.76C90.8023 236.725 91.3074 236.76 91.7999 236.867C92.2601 236.95 92.7006 237.062 93.1395 237.177L94.4476 237.593L95.713 238.1C99.0181 239.592 101.949 241.571 105.001 243.314C108.033 245.084 111.168 246.67 114.39 248.064C117.623 249.441 120.927 250.644 124.289 251.668L124.293 251.669C124.385 251.697 124.465 251.756 124.519 251.836C124.573 251.916 124.598 252.012 124.59 252.108C124.299 255.393 124.181 258.69 124.236 261.987C124.259 263.626 124.399 265.262 124.656 266.881C124.777 267.671 125.004 268.442 125.331 269.172C125.482 269.5 125.709 269.789 125.994 270.013C126.066 270.045 126.137 270.079 126.207 270.116C126.281 270.139 126.361 270.138 126.437 270.155C126.607 270.175 126.841 270.163 127.04 270.169L146.911 270.223C153.534 270.255 160.157 270.22 166.781 270.212L186.652 270.145L186.422 270.246C187.775 268.821 189.256 267.523 190.846 266.368C192.433 265.197 194.157 264.223 195.979 263.469C197.82 262.694 199.799 262.297 201.797 262.301C202.811 262.319 203.818 262.465 204.796 262.736L207.549 263.658C208.469 263.957 209.391 264.248 210.316 264.517C211.205 264.817 212.125 265.015 213.058 265.11C214.095 265.226 215.097 265.551 216.004 266.065C216.482 266.321 216.913 266.654 217.281 267.051C217.486 267.271 217.645 267.53 217.749 267.813C217.852 268.095 217.897 268.396 217.882 268.696C217.908 269.209 217.89 269.722 217.83 270.231C217.767 270.822 217.517 271.378 217.117 271.818C216.686 272.243 216.118 272.502 215.514 272.549C214.983 272.606 214.447 272.589 213.92 272.499C213.418 272.42 212.922 272.307 212.436 272.161L211.046 271.741C210.602 271.614 210.151 271.515 209.694 271.446C209.316 271.368 208.925 271.372 208.549 271.457L208.686 270.511C210.524 271.799 212.683 272.552 214.923 272.687C216.055 272.748 217.19 272.683 218.308 272.493C219.462 272.336 220.607 272.142 221.77 271.948C222.356 271.855 222.938 271.753 223.582 271.712C223.934 271.683 224.29 271.704 224.637 271.774C225.056 271.864 225.434 272.087 225.715 272.41C225.957 272.698 226.143 273.029 226.262 273.385C226.603 274.343 226.654 275.379 226.408 276.366C226.235 277.02 225.927 277.632 225.504 278.16C225.081 278.689 224.552 279.124 223.952 279.436C222.825 280.014 221.6 280.373 220.34 280.495L220.89 280.081C220.596 280.752 220.231 281.39 219.801 281.984C219.374 282.584 218.877 283.13 218.32 283.612C217.735 284.101 217.07 284.486 216.354 284.749C215.617 284.998 214.837 285.096 214.062 285.04L214.649 284.799C213.455 286.189 212.284 287.554 210.94 288.869C210.768 289.033 210.587 289.197 210.385 289.36C210.177 289.518 209.96 289.663 209.734 289.794C209.309 290.033 208.868 290.242 208.414 290.418C207.528 290.762 206.613 291.024 205.68 291.201C203.831 291.546 201.944 291.633 200.071 291.459C199.604 291.427 199.143 291.351 198.679 291.299L197.303 291.057L196.014 290.847L194.702 290.71C191.129 290.526 187.547 290.642 183.994 291.055C180.416 291.418 176.849 291.958 173.299 292.587C171.537 292.9 169.793 293.314 168.015 293.705C166.246 294.098 164.47 294.481 162.69 294.841C159.127 295.552 155.549 296.2 151.95 296.716C144.753 297.784 137.491 298.358 130.215 298.435C129.306 298.438 128.397 298.472 127.488 298.451L124.76 298.389C122.941 298.376 121.126 298.247 119.311 298.139C117.493 298.062 115.685 297.852 113.875 297.675C112.966 297.574 112.075 297.519 111.148 297.375C110.23 297.233 109.321 297.037 108.426 296.787C104.811 295.812 101.532 293.866 98.9447 291.161C96.3535 288.44 94.7149 284.952 94.2751 281.22C93.4786 273.988 93.1588 266.746 92.9774 259.5C92.8193 252.254 92.7994 245.009 92.918 237.765C92.9182 237.746 92.9259 237.728 92.9394 237.715C92.9529 237.702 92.9712 237.694 92.9901 237.695C93.0091 237.695 93.0271 237.702 93.0404 237.716C93.0537 237.729 93.061 237.748 93.0608 237.767C93.0912 245.008 93.258 252.246 93.5612 259.481C93.8815 266.707 94.2768 273.947 95.1752 281.103C95.6364 284.621 97.2284 287.894 99.7112 290.429C102.185 292.965 105.305 294.777 108.733 295.671C109.585 295.901 110.449 296.08 111.322 296.207C112.186 296.335 113.105 296.387 113.996 296.477C115.792 296.637 117.584 296.83 119.387 296.891C121.187 296.982 122.986 297.095 124.789 297.092L127.493 297.13C128.394 297.144 129.295 297.102 130.196 297.091L132.899 297.036L135.6 296.896C137.401 296.825 139.198 296.667 140.995 296.522C142.794 296.405 144.583 296.166 146.377 295.991C148.166 295.768 149.956 295.548 151.739 295.28C155.309 294.763 158.859 294.113 162.397 293.4C164.165 293.039 165.929 292.656 167.693 292.26C169.452 291.869 171.231 291.444 173.035 291.12C176.615 290.479 180.212 289.928 183.84 289.553C187.483 289.121 191.158 289.013 194.821 289.23L196.209 289.382L197.599 289.616L198.897 289.85C199.332 289.9 199.765 289.975 200.201 290.007C201.939 290.177 203.692 290.105 205.41 289.794C206.257 289.638 207.088 289.405 207.893 289.098C208.284 288.948 208.664 288.772 209.03 288.569C209.196 288.474 209.357 288.369 209.511 288.255C209.662 288.134 209.816 287.996 209.974 287.848C211.226 286.637 212.427 285.258 213.596 283.906C213.664 283.827 213.749 283.765 213.845 283.723C213.94 283.681 214.044 283.66 214.148 283.664L214.183 283.665C214.765 283.708 215.35 283.636 215.904 283.454C216.465 283.249 216.987 282.949 217.447 282.568C217.919 282.162 218.341 281.7 218.705 281.194C219.074 280.689 219.39 280.146 219.648 279.576L219.649 279.572C219.698 279.462 219.773 279.367 219.87 279.295C219.966 279.223 220.079 279.177 220.198 279.161C221.279 279.063 222.332 278.765 223.304 278.281C223.751 278.059 224.146 277.744 224.463 277.358C224.779 276.973 225.011 276.524 225.141 276.042C225.27 275.556 225.297 275.049 225.221 274.552C225.173 274.092 225.012 273.652 224.752 273.269C224.65 273.141 224.505 273.055 224.343 273.027C224.114 272.983 223.88 272.97 223.648 272.989C223.119 273.016 222.541 273.107 221.968 273.192C220.814 273.372 219.642 273.558 218.469 273.706C217.268 273.894 216.051 273.949 214.838 273.871C212.364 273.698 209.989 272.833 207.983 271.375L207.973 271.367C207.894 271.309 207.833 271.23 207.796 271.139C207.758 271.049 207.747 270.95 207.762 270.853C207.777 270.756 207.819 270.666 207.882 270.591C207.945 270.516 208.028 270.46 208.121 270.429C208.684 270.261 209.281 270.237 209.856 270.36C210.358 270.441 210.855 270.555 211.342 270.699L212.735 271.136C213.176 271.274 213.626 271.382 214.082 271.459C214.961 271.609 215.917 271.593 216.387 271.103C216.882 270.619 216.913 269.664 216.89 268.71C216.894 268.601 216.89 268.492 216.877 268.384C216.876 268.305 216.859 268.227 216.826 268.156C216.762 267.984 216.666 267.826 216.543 267.691C216.251 267.374 215.909 267.108 215.53 266.902C214.748 266.45 213.884 266.156 212.988 266.038C211.99 265.93 211.008 265.71 210.059 265.381C209.123 265.098 208.198 264.795 207.275 264.485L204.517 263.529C203.624 263.278 202.704 263.137 201.778 263.111C199.885 263.09 198.008 263.447 196.256 264.163C192.717 265.661 189.525 267.873 186.88 270.662L186.87 270.672C186.842 270.701 186.808 270.724 186.77 270.74C186.732 270.755 186.692 270.763 186.651 270.763L166.782 270.696C160.159 270.688 153.536 270.652 146.914 270.685L127.045 270.739C126.831 270.736 126.648 270.752 126.408 270.733C126.279 270.722 126.152 270.701 126.027 270.671L125.679 270.509C125.3 270.233 124.995 269.868 124.792 269.446C124.428 268.668 124.171 267.845 124.028 266.998C123.742 265.349 123.576 263.682 123.53 262.009C123.427 258.683 123.5 255.354 123.749 252.036L124.05 252.477C120.641 251.489 117.289 250.319 114.006 248.972C110.727 247.605 107.534 246.042 104.443 244.292C101.338 242.586 98.3829 240.604 95.234 239.206L94.04 238.733L92.8233 238.351C92.4081 238.244 91.9919 238.141 91.583 238.069C91.2115 237.989 90.8311 237.959 90.4517 237.978C90.401 237.991 90.3124 238.002 90.3246 238.009L90.3164 238.007C90.329 238.004 90.3404 237.997 90.3491 237.987C90.3551 237.968 90.3967 237.939 90.404 237.897C90.4255 237.727 90.4032 237.886 90.4976 238.015C90.7017 238.344 90.9432 238.647 91.2172 238.92C91.8157 239.526 92.4535 240.092 93.1265 240.614L93.1324 240.618C93.2397 240.703 93.3165 240.82 93.3508 240.952C93.3851 241.084 93.375 241.224 93.3223 241.35C93.2695 241.476 93.1768 241.581 93.0585 241.65C92.9402 241.718 92.8028 241.746 92.6673 241.728C91.2403 241.554 89.9009 240.946 88.8291 239.988C88.2868 239.505 87.8359 238.928 87.4978 238.285C87.3135 237.939 87.1828 237.567 87.1099 237.182C87.0624 236.931 87.069 236.674 87.1293 236.426C87.1787 236.242 87.2707 236.072 87.3979 235.931C87.412 235.891 87.4026 235.927 87.4486 235.844C87.7291 235.36 88.0134 234.747 88.2818 234.174L89.078 232.41L90.6192 228.844C91.125 227.645 91.6404 226.466 92.0744 225.267C92.5259 224.065 92.8617 222.848 93.2709 221.596L94.4601 217.867C94.8756 216.63 95.368 215.418 95.8182 214.192C97.6497 209.28 100.066 204.606 103.016 200.272C103.768 199.191 104.574 198.15 105.431 197.152C106.304 196.161 107.239 195.225 108.23 194.352C108.479 194.134 108.72 193.908 108.977 193.698L109.773 193.101C110.302 192.697 110.854 192.325 111.428 191.987C112.584 191.264 113.853 190.74 115.183 190.437L115.093 190.458C117.337 189.817 119.649 189.443 121.98 189.343C124.283 189.192 126.585 189.13 128.884 189.14C133.483 189.15 138.07 189.383 142.651 189.748L142.474 189.807C143.37 188.9 144.192 187.921 144.931 186.881L146.07 185.319C146.428 184.754 146.901 184.271 147.459 183.901C148.022 183.538 148.664 183.314 149.331 183.246C149.985 183.169 150.646 183.182 151.296 183.285C152.588 183.5 153.822 183.978 154.922 184.689C154.938 184.699 154.949 184.715 154.953 184.733C154.957 184.752 154.954 184.771 154.944 184.787C154.934 184.803 154.918 184.814 154.9 184.819C154.882 184.823 154.863 184.82 154.847 184.81L154.842 184.807Z" fill="#2B2B2B"/>
<path d="M121.298 196.927C122.189 197.179 122.997 197.662 123.641 198.327C124.305 198.981 124.835 199.758 125.204 200.614C125.573 201.465 125.781 202.378 125.817 203.305C125.834 203.761 125.811 204.218 125.747 204.67C125.669 205.119 125.55 205.559 125.392 205.986C125.234 205.544 125.162 205.118 125.046 204.701C124.921 204.287 124.846 203.875 124.707 203.481C124.486 202.698 124.214 201.93 123.894 201.183C123.573 200.439 123.198 199.72 122.771 199.032C122.324 198.3 121.832 197.597 121.298 196.927Z" fill="#2B2B2B"/>
<path d="M124.414 214.045C124.689 217.216 124.823 220.386 124.908 223.555C125.002 226.725 125.012 229.894 125.006 233.063C124.973 236.232 124.922 239.401 124.788 242.569C124.663 245.737 124.487 248.905 124.169 252.072C123.892 248.901 123.757 245.731 123.673 242.562C123.58 239.392 123.57 236.223 123.578 233.054C123.612 229.885 123.663 226.716 123.798 223.548C123.923 220.38 124.098 217.212 124.414 214.045Z" fill="#2B2B2B"/>
<path d="M189.806 193.097C192.422 194.734 194.99 196.439 197.51 198.212C198.771 199.097 200.022 199.998 201.263 200.915L203.109 202.326C203.433 202.568 203.738 202.835 204.021 203.124L204.46 203.582L204.829 204.05C205.786 205.284 206.659 206.581 207.442 207.932C208.231 209.264 208.999 210.604 209.746 211.953C211.222 214.662 212.741 217.342 214.305 219.991C215.087 221.317 215.884 222.634 216.696 223.942L217.911 225.903C218.271 226.545 218.699 227.146 219.187 227.695C219.705 228.203 220.321 228.706 220.857 229.338C221.492 230 221.875 230.863 221.937 231.778C221.889 232.716 221.481 233.6 220.797 234.243C220.505 234.539 220.197 234.819 219.876 235.082C219.589 235.314 219.309 235.557 219.036 235.808C218.486 236.313 217.981 236.844 217.466 237.414C216.943 237.993 216.4 238.554 215.85 239.109C214.74 240.218 213.56 241.256 212.319 242.217C211.054 243.197 209.677 244.023 208.216 244.677C207.45 245.001 206.645 245.223 205.822 245.339C204.957 245.468 204.074 245.391 203.244 245.115C203.112 245.075 202.999 244.988 202.927 244.87L202.923 244.862C202.387 243.974 201.8 243.088 201.206 242.221C200.613 241.35 199.991 240.501 199.342 239.672C198.69 238.849 197.994 238.063 197.255 237.317C196.545 236.549 195.674 235.947 194.705 235.553L194.7 235.551C194.683 235.545 194.669 235.533 194.661 235.517C194.652 235.501 194.65 235.482 194.655 235.465C194.66 235.448 194.671 235.433 194.686 235.423C194.702 235.414 194.72 235.41 194.738 235.414C195.796 235.687 196.775 236.207 197.594 236.932C198.434 237.611 199.22 238.353 199.947 239.151C201.409 240.734 202.752 242.422 203.965 244.202L203.644 243.948C205.004 244.226 206.419 244.02 207.643 243.367C208.981 242.729 210.237 241.936 211.388 241.002C212.58 240.077 213.72 239.086 214.802 238.035C215.349 237.511 215.891 236.98 216.415 236.431C216.946 235.872 217.519 235.302 218.117 234.782C218.418 234.521 218.726 234.266 219.044 234.024C219.333 233.783 219.607 233.577 219.848 233.332C220.316 232.929 220.621 232.37 220.708 231.758C220.671 231.124 220.418 230.522 219.991 230.051C219.553 229.488 219.001 228.978 218.465 228.365C218.323 228.205 218.191 228.038 218.068 227.863L217.759 227.339L217.202 226.316L216.112 224.277C215.394 222.914 214.66 221.562 213.91 220.218C212.408 217.534 210.823 214.894 209.107 212.34C207.406 209.79 205.68 207.209 203.837 204.853L203.489 204.418L203.126 204.046C202.876 203.78 202.606 203.534 202.317 203.311L200.522 201.884L196.896 199.037C194.474 197.141 192.082 195.2 189.722 193.213C189.708 193.201 189.699 193.185 189.697 193.167C189.695 193.149 189.699 193.131 189.71 193.116C189.721 193.101 189.736 193.091 189.754 193.088C189.772 193.084 189.791 193.088 189.806 193.097L189.806 193.097Z" fill="#2B2B2B"/>
<path d="M199.368 216.164C198.118 220.863 196.937 225.574 195.951 230.303C195.444 232.647 195.089 235.021 194.89 237.411C194.823 238.561 194.816 239.83 194.715 241.059C194.617 242.314 194.407 243.556 194.088 244.773C193.337 247.179 192.135 249.419 190.544 251.373C189.809 252.354 189.031 253.301 188.302 254.253C187.951 254.726 187.595 255.195 187.28 255.701C186.943 256.189 186.637 256.703 186.334 257.218C185.137 259.308 184.068 261.469 183.131 263.688C182.142 265.898 181.29 268.169 180.457 270.454C181.517 265.677 183.164 261.05 185.359 256.676C185.926 255.571 186.575 254.509 187.301 253.501C188.021 252.505 188.759 251.555 189.454 250.572C190.917 248.733 192.022 246.637 192.713 244.39C193.019 243.26 193.224 242.104 193.326 240.937C193.44 239.746 193.436 238.584 193.545 237.311C193.801 234.863 194.243 232.439 194.868 230.059C196.067 225.335 197.57 220.694 199.368 216.164Z" fill="#2B2B2B"/>
<path d="M220.269 233.853C221.841 235.074 223.33 236.374 224.843 237.585C225.225 237.88 225.606 238.17 225.98 238.424L226.603 238.795C226.832 238.94 227.05 239.092 227.257 239.252C228.059 239.898 228.797 240.62 229.461 241.408C230.779 242.968 231.815 244.745 232.523 246.66C233.265 248.557 233.474 250.621 233.129 252.628C232.921 250.7 232.37 248.824 231.503 247.09C230.658 245.38 229.606 243.78 228.37 242.327C227.775 241.597 227.116 240.922 226.402 240.309C226.229 240.156 226.051 240.015 225.872 239.883L225.253 239.454C224.846 239.138 224.46 238.796 224.098 238.43C222.683 237.026 221.401 235.494 220.269 233.853Z" fill="#2B2B2B"/>
<path d="M204.499 244.745C205.903 246.629 206.863 248.807 207.306 251.115C207.356 251.409 207.398 251.706 207.438 252.004C207.465 252.292 207.468 252.633 207.505 252.881C207.56 253.386 207.68 253.881 207.863 254.355C208.261 255.368 208.772 256.332 209.385 257.231C209.993 258.162 210.661 259.051 211.386 259.893C211.736 260.328 212.123 260.731 212.495 261.148C212.898 261.531 213.266 261.959 213.682 262.331C215.266 263.94 217.164 265.206 219.258 266.052C218.092 265.934 216.957 265.603 215.91 265.077C214.863 264.543 213.873 263.906 212.954 263.175C211.104 261.717 209.496 259.975 208.191 258.013C207.527 257.009 206.989 255.928 206.587 254.794C206.393 254.187 206.282 253.556 206.257 252.919C206.238 252.597 206.246 252.364 206.246 252.081L206.206 251.263C205.949 249.02 205.375 246.825 204.499 244.745Z" fill="#2B2B2B"/>
<path d="M220.269 263.077C220.412 262.156 220.731 261.272 221.209 260.473C221.677 259.665 222.247 258.919 222.903 258.255C223.567 257.602 224.304 257.027 225.099 256.542C225.494 256.302 225.902 256.083 226.322 255.888C226.75 255.712 227.177 255.541 227.614 255.398C226.855 255.924 226.108 256.43 225.399 256.979C224.692 257.522 224.019 258.108 223.383 258.734C222.757 259.365 222.179 260.042 221.653 260.758C221.116 261.484 220.653 262.26 220.269 263.077Z" fill="#2B2B2B"/>
<path d="M222.847 264.707C224.434 262.17 226.173 259.731 228.053 257.403C228.994 256.236 229.971 255.096 230.985 253.984C232.017 252.877 233.11 251.829 234.258 250.844C235.429 249.816 236.746 248.969 238.167 248.329C238.935 248.006 239.762 247.847 240.596 247.864C241.45 247.886 242.284 248.125 243.02 248.558C244.392 249.442 245.441 250.744 246.013 252.272C246.311 252.999 246.526 253.757 246.654 254.533C246.813 255.335 246.797 256.162 246.607 256.957L246.378 256.456C247.985 257.276 249.533 258.164 251.067 259.088C252.599 260.013 254.11 260.972 255.567 262.015C257.055 263.029 258.434 264.195 259.681 265.494C260.312 266.164 260.847 266.918 261.272 267.734C261.738 268.604 261.848 269.621 261.58 270.571L261.588 270.545C261.385 271.331 260.95 272.038 260.34 272.573C260.008 272.839 259.622 273.029 259.209 273.13C258.796 273.231 258.366 273.24 257.949 273.156C257.175 272.999 256.439 272.692 255.783 272.253C255.153 271.84 254.557 271.377 254.003 270.868L254.96 270.454C254.933 271.434 254.723 272.399 254.341 273.302C253.967 274.213 253.408 275.036 252.698 275.719C251.986 276.391 251.153 276.922 250.243 277.281C249.857 277.448 249.482 277.637 249.118 277.846C248.951 277.942 248.79 278.048 248.637 278.165C248.58 278.209 248.526 278.258 248.476 278.311C248.438 278.344 248.448 278.383 248.482 278.255L248.24 277.572C248.685 277.958 249.053 278.425 249.325 278.948C249.614 279.485 249.766 280.086 249.766 280.696C249.766 281.307 249.615 281.907 249.325 282.444C249.061 282.955 248.715 283.418 248.299 283.814C247.463 284.6 246.402 285.105 245.265 285.257C244.736 285.321 244.204 285.346 243.673 285.331C243.1 285.331 242.532 285.24 241.988 285.064L242.493 285.065C240.829 285.58 239.12 285.933 237.388 286.117C235.661 286.294 233.919 286.284 232.193 286.089C231.295 286.004 230.413 285.796 229.572 285.47C229.104 285.289 228.681 285.01 228.331 284.651C227.981 284.291 227.713 283.861 227.544 283.388C227.297 282.442 227.411 281.438 227.864 280.572C228.066 280.152 228.327 279.764 228.641 279.42C228.974 279.003 229.454 278.728 229.982 278.65L229.923 278.657C230.172 278.62 230.423 278.598 230.675 278.594C230.922 278.588 231.17 278.597 231.417 278.621C231.92 278.662 232.413 278.793 232.87 279.009L232.502 279.439C232.275 279.036 232.098 278.607 231.974 278.162C231.846 277.718 231.789 277.257 231.804 276.796C231.821 276.33 231.952 275.876 232.187 275.473C232.426 275.085 232.75 274.756 233.135 274.513C233.151 274.502 233.171 274.498 233.189 274.502C233.208 274.506 233.224 274.517 233.235 274.533C233.244 274.548 233.248 274.566 233.245 274.584C233.242 274.601 233.233 274.617 233.219 274.629C232.884 274.888 232.613 275.221 232.427 275.602C232.251 275.976 232.168 276.387 232.185 276.8C232.204 277.215 232.289 277.625 232.436 278.014C232.578 278.402 232.766 278.773 232.996 279.117C233.031 279.168 233.049 279.23 233.046 279.292C233.044 279.354 233.022 279.414 232.984 279.462C232.946 279.511 232.893 279.547 232.833 279.564C232.773 279.58 232.709 279.578 232.651 279.556L232.628 279.547C232.224 279.399 231.799 279.318 231.369 279.306C231.149 279.298 230.93 279.303 230.712 279.32C230.497 279.337 230.284 279.367 230.073 279.41L230.045 279.415L230.014 279.418C229.714 279.521 229.455 279.716 229.273 279.976C229.036 280.271 228.842 280.599 228.698 280.949C228.393 281.609 228.342 282.358 228.553 283.053C228.687 283.371 228.887 283.656 229.14 283.889C229.393 284.122 229.693 284.298 230.021 284.404C230.765 284.655 231.54 284.805 232.324 284.849C233.958 284.974 235.6 284.924 237.222 284.699C238.842 284.499 240.44 284.144 241.992 283.64C242.15 283.587 242.321 283.585 242.48 283.636L242.498 283.642C243.337 283.826 244.203 283.861 245.054 283.745C245.876 283.639 246.644 283.278 247.25 282.713C247.846 282.195 248.219 281.469 248.293 280.683C248.296 280.307 248.208 279.936 248.037 279.602C247.861 279.25 247.624 278.932 247.338 278.661L247.287 278.615C247.201 278.535 247.137 278.434 247.104 278.322C247.07 278.21 247.067 278.091 247.095 277.978C247.151 277.741 247.272 277.525 247.444 277.353C247.549 277.244 247.663 277.144 247.785 277.053C247.99 276.902 248.206 276.764 248.43 276.641C248.847 276.411 249.278 276.205 249.719 276.025C250.488 275.744 251.195 275.317 251.801 274.767C252.397 274.214 252.878 273.548 253.215 272.808C253.558 272.067 253.765 271.269 253.824 270.454L253.826 270.412C253.833 270.304 253.87 270.201 253.934 270.114C253.997 270.027 254.084 269.96 254.185 269.921C254.285 269.882 254.395 269.872 254.5 269.893C254.606 269.915 254.703 269.966 254.781 270.041C255.274 270.525 255.805 270.97 256.367 271.373C256.893 271.77 257.49 272.061 258.127 272.232C258.416 272.31 258.719 272.323 259.013 272.27C259.308 272.216 259.587 272.098 259.83 271.923C260.33 271.52 260.699 270.977 260.89 270.364L260.898 270.337C261.149 269.56 261.088 268.715 260.728 267.982C260.37 267.194 259.888 266.47 259.3 265.836C258.101 264.539 256.765 263.376 255.315 262.368C252.392 260.354 249.279 258.632 246.02 257.225C245.933 257.186 245.861 257.118 245.818 257.032C245.775 256.946 245.763 256.848 245.785 256.754L245.792 256.724C245.899 256.055 245.868 255.37 245.698 254.713C245.544 254.023 245.313 253.353 245.009 252.714C244.465 251.454 243.551 250.387 242.39 249.655C241.816 249.344 241.178 249.169 240.526 249.144C239.874 249.119 239.225 249.244 238.629 249.51C237.323 250.087 236.107 250.849 235.018 251.773C233.875 252.696 232.784 253.682 231.75 254.725C230.696 255.76 229.677 256.836 228.686 257.94C226.718 260.161 224.802 262.441 222.965 264.788C222.959 264.796 222.952 264.802 222.944 264.807C222.936 264.812 222.927 264.815 222.918 264.816C222.909 264.817 222.899 264.817 222.89 264.815C222.881 264.812 222.872 264.808 222.865 264.803C222.851 264.792 222.841 264.776 222.838 264.758C222.835 264.741 222.838 264.723 222.847 264.707Z" fill="#2B2B2B"/>
<path d="M237.191 253.825C237.199 255.147 237.367 256.463 237.692 257.745C237.861 258.351 238.13 258.925 238.487 259.443C238.824 259.93 239.332 260.272 239.91 260.403C240.506 260.546 241.128 260.539 241.721 260.383C242.336 260.24 242.919 259.983 243.44 259.626C244.522 258.874 245.457 257.93 246.199 256.841C245.674 258.109 244.836 259.223 243.764 260.08C243.212 260.54 242.563 260.87 241.866 261.046C241.169 261.221 240.442 261.239 239.737 261.096C239.001 260.916 238.359 260.467 237.939 259.837C237.556 259.239 237.289 258.574 237.153 257.877C236.909 256.536 236.922 255.161 237.191 253.825Z" fill="#2B2B2B"/>
<path d="M247.708 266.46C249.065 266.508 250.386 266.916 251.536 267.64C252.116 267.991 252.653 268.407 253.137 268.881C253.621 269.349 254.043 269.878 254.392 270.454C253.884 270.014 253.395 269.577 252.875 269.181C252.364 268.78 251.829 268.411 251.272 268.076C250.718 267.737 250.143 267.433 249.551 267.167C248.952 266.893 248.336 266.656 247.708 266.46Z" fill="#2B2B2B"/>
<path d="M232.749 279.278C233.064 279.596 233.427 279.863 233.825 280.069C234.212 280.294 234.604 280.505 235.001 280.71C235.795 281.118 236.601 281.51 237.412 281.894C239.027 282.678 240.663 283.427 242.243 284.353C240.467 283.939 238.743 283.33 237.102 282.537C236.276 282.144 235.479 281.693 234.717 281.187C233.917 280.719 233.241 280.064 232.749 279.278Z" fill="#2B2B2B"/>
<path d="M245.343 269.557C245.622 269.71 245.867 269.92 246.06 270.174C246.171 270.308 246.251 270.466 246.295 270.635C246.338 270.805 246.344 270.982 246.311 271.153C246.21 271.494 245.998 271.792 245.708 271.998C245.447 272.199 245.161 272.365 244.857 272.493C244.718 272.552 244.583 272.621 244.454 272.698C244.331 272.759 244.213 272.827 244.1 272.903L243.792 273.174C243.699 273.274 243.613 273.382 243.536 273.495C243.21 273.949 243.015 274.483 242.972 275.039C242.891 275.589 242.973 276.15 243.21 276.652C243.446 277.155 243.825 277.577 244.3 277.864C244.417 277.944 244.546 278.003 244.683 278.039C244.818 278.083 244.949 278.143 245.089 278.18C245.378 278.236 245.671 278.271 245.965 278.286C246.267 278.294 246.57 278.283 246.871 278.254C247.172 278.201 247.477 278.157 247.788 278.117C247.501 278.23 247.207 278.339 246.908 278.44C246.603 278.525 246.292 278.59 245.978 278.636C245.654 278.663 245.329 278.665 245.005 278.641C244.842 278.612 244.68 278.575 244.521 278.528C244.356 278.497 244.196 278.441 244.048 278.361C243.417 278.075 242.906 277.577 242.603 276.954C242.311 276.336 242.193 275.649 242.262 274.968C242.331 274.287 242.585 273.639 242.996 273.092C243.1 272.955 243.215 272.827 243.339 272.708L243.746 272.389C244.033 272.223 244.335 272.086 244.648 271.979C245.194 271.854 245.67 271.523 245.977 271.055C246.023 270.927 246.04 270.791 246.027 270.655C246.013 270.52 245.97 270.39 245.9 270.273C245.754 270.006 245.566 269.764 245.343 269.557Z" fill="#2B2B2B"/>
<path d="M239.555 255.863C239.638 256.238 239.753 256.606 239.898 256.962C240.018 257.301 240.232 257.598 240.515 257.82C240.656 257.92 240.817 257.988 240.987 258.021C241.157 258.053 241.332 258.048 241.5 258.006C241.684 257.972 241.866 257.926 242.043 257.866C242.222 257.798 242.398 257.719 242.588 257.656C242.439 257.784 242.275 257.895 242.115 258.017C241.936 258.112 241.75 258.194 241.558 258.261C241.352 258.33 241.133 258.352 240.918 258.323C240.703 258.295 240.497 258.216 240.317 258.095C239.988 257.827 239.755 257.459 239.653 257.048C239.544 256.663 239.511 256.26 239.555 255.863Z" fill="#2B2B2B"/>
<path d="M240.208 255.398C240.591 255.29 240.988 255.237 241.386 255.24C241.792 255.242 242.195 255.307 242.581 255.431C242.984 255.563 243.335 255.817 243.586 256.158C243.802 256.513 243.877 256.936 243.794 257.343C243.748 256.97 243.604 256.615 243.377 256.315C243.132 256.047 242.817 255.851 242.468 255.75C241.734 255.529 240.974 255.41 240.208 255.398Z" fill="#2B2B2B"/>
<path d="M245.669 276.894C245.81 276.604 246.026 276.356 246.294 276.176C246.436 276.077 246.597 276.008 246.767 275.973C246.937 275.938 247.112 275.937 247.283 275.971C247.608 276.076 247.893 276.277 248.099 276.549C248.184 276.687 248.273 276.82 248.346 276.96C248.4 277.11 248.464 277.253 248.506 277.404C248.297 277.166 248.112 276.929 247.904 276.722C247.71 276.524 247.469 276.38 247.204 276.301C246.939 276.239 246.661 276.275 246.42 276.403C246.15 276.534 245.898 276.699 245.669 276.894Z" fill="#2B2B2B"/>
<path d="M233.129 278.476C233.148 277.917 233.29 277.369 233.547 276.871C233.615 276.732 233.71 276.608 233.828 276.506C233.945 276.405 234.082 276.329 234.231 276.283C234.387 276.253 234.548 276.258 234.702 276.299C234.856 276.34 234.998 276.415 235.119 276.519C235.354 276.696 235.554 276.917 235.708 277.168C235.866 277.434 235.919 277.749 235.857 278.052C235.773 278.326 235.63 278.577 235.438 278.789C235.246 279.001 235.01 279.168 234.746 279.278C235.172 278.969 235.475 278.519 235.6 278.007C235.622 277.769 235.567 277.53 235.442 277.325C235.302 277.118 235.124 276.937 234.919 276.793C234.839 276.713 234.741 276.653 234.634 276.617C234.527 276.581 234.413 276.569 234.301 276.583C234.078 276.657 233.888 276.809 233.767 277.01C233.486 277.466 233.271 277.96 233.129 278.476Z" fill="#2B2B2B"/>
<path d="M224.416 274.338C224.382 274.897 224.225 275.441 223.956 275.932C223.885 276.069 223.786 276.191 223.666 276.289C223.545 276.387 223.406 276.46 223.257 276.502C223.1 276.528 222.939 276.518 222.786 276.474C222.634 276.429 222.493 276.35 222.375 276.243C222.144 276.059 221.95 275.834 221.803 275.579C221.653 275.309 221.608 274.992 221.677 274.691C221.769 274.42 221.918 274.172 222.116 273.966C222.313 273.759 222.554 273.598 222.82 273.495C222.386 273.792 222.072 274.235 221.933 274.743C221.905 274.98 221.954 275.221 222.073 275.429C222.208 275.64 222.381 275.825 222.582 275.974C222.66 276.056 222.756 276.119 222.862 276.158C222.969 276.197 223.082 276.211 223.195 276.2C223.42 276.132 223.613 275.985 223.74 275.787C224.032 275.339 224.26 274.851 224.416 274.338Z" fill="#2B2B2B"/>
<path d="M229.529 283.578C229.675 283.192 229.88 282.832 230.137 282.509C230.268 282.338 230.426 282.189 230.603 282.067C230.705 281.991 230.824 281.941 230.95 281.921C231.075 281.902 231.204 281.913 231.324 281.955C231.537 282.075 231.697 282.272 231.773 282.504C231.849 282.703 231.898 282.912 231.917 283.124C231.967 283.534 231.949 283.949 231.863 284.353C231.819 283.955 231.751 283.56 231.66 283.171C231.616 282.985 231.559 282.803 231.489 282.626C231.407 282.47 231.31 282.301 231.187 282.265C230.955 282.138 230.594 282.425 230.33 282.685C230.048 282.969 229.781 283.267 229.529 283.578Z" fill="#2B2B2B"/>
<path d="M220.266 264.75L217.381 267.928C217.381 267.928 217.402 271.993 215.345 272.164C215.345 272.164 214.302 273.107 215.045 273.3C215.709 273.464 218.102 272.871 219.138 272.992C219.138 272.992 224.045 272.021 224.881 272.55C225.132 272.72 225.343 272.943 225.5 273.203C225.657 273.464 225.755 273.755 225.788 274.057L226.188 274.014L241.666 274.935L248.381 264.749L220.266 264.75ZM240.209 271.878L218.488 271.514L221.323 266.95H243.088L240.209 271.878Z" fill="#FDB914"/>
<path d="M202.466 272.166C203.303 271.556 204.25 271.112 205.254 270.86C206.275 270.597 207.333 270.506 208.384 270.589C208.478 270.597 208.566 270.641 208.627 270.713C208.688 270.785 208.719 270.878 208.712 270.973C208.705 271.067 208.661 271.155 208.589 271.217C208.518 271.278 208.424 271.309 208.33 271.303C208.315 271.302 208.301 271.3 208.286 271.297C207.311 271.104 206.31 271.075 205.325 271.21C204.319 271.342 203.349 271.667 202.466 272.166Z" fill="#2B2B2B"/>
<path d="M208.335 279.544C210.345 279.582 212.354 279.651 214.364 279.843C214.862 279.887 215.382 279.968 215.862 280.024C216.347 280.077 216.836 280.086 217.323 280.053C218.287 279.988 219.234 279.76 220.123 279.381L220.146 279.371C220.233 279.333 220.332 279.33 220.42 279.365C220.508 279.399 220.58 279.467 220.618 279.554C220.656 279.641 220.658 279.739 220.624 279.827C220.59 279.916 220.522 279.987 220.435 280.025L220.415 280.033C219.431 280.392 218.392 280.58 217.344 280.589C216.827 280.593 216.31 280.552 215.8 280.466C215.287 280.375 214.819 280.272 214.318 280.197C212.341 279.89 210.338 279.7 208.335 279.544Z" fill="#2B2B2B"/>
<path d="M209.883 285.087C210.565 284.842 211.253 284.613 211.949 284.401C212.653 284.179 213.37 284.003 214.097 283.875C214.191 283.86 214.287 283.883 214.364 283.939C214.441 283.994 214.493 284.078 214.508 284.172C214.523 284.266 214.501 284.362 214.445 284.439C214.389 284.516 214.305 284.568 214.211 284.583C214.192 284.586 214.173 284.588 214.154 284.588H214.147C213.437 284.596 212.727 284.65 212.024 284.751C211.31 284.843 210.595 284.957 209.883 285.087Z" fill="#2B2B2B"/>
<path d="M212.574 267.039C212.939 267.418 213.369 267.729 213.843 267.959C214.324 268.181 214.828 268.348 215.345 268.457C215.072 268.521 214.789 268.535 214.51 268.5C214.228 268.462 213.953 268.383 213.694 268.264C213.44 268.132 213.208 267.961 213.008 267.757C212.808 267.556 212.659 267.309 212.574 267.039Z" fill="#2B2B2B"/>
<path d="M223.476 279.67C223.287 279.67 223.105 279.596 222.97 279.463C222.836 279.329 222.76 279.148 222.759 278.959C222.758 278.769 222.832 278.587 222.966 278.453C223.099 278.318 223.28 278.242 223.47 278.241L232.518 278.156C232.612 278.153 232.706 278.169 232.794 278.204C232.882 278.238 232.962 278.29 233.029 278.356C233.096 278.422 233.15 278.501 233.186 278.588C233.222 278.675 233.24 278.769 233.239 278.863C233.24 278.957 233.222 279.05 233.187 279.137C233.152 279.224 233.1 279.304 233.035 279.37C232.969 279.437 232.891 279.491 232.804 279.528C232.718 279.564 232.625 279.584 232.531 279.584L223.483 279.67H223.476Z" fill="#FDB914"/>
<path d="M248.34 279.438C248.15 279.438 247.969 279.363 247.835 279.229C247.701 279.095 247.625 278.914 247.625 278.724C247.625 278.535 247.7 278.353 247.834 278.219C247.968 278.085 248.149 278.01 248.339 278.009L273.28 277.977H273.281C273.471 277.976 273.652 278.052 273.786 278.185C273.921 278.319 273.996 278.501 273.996 278.69C273.996 278.88 273.921 279.062 273.787 279.196C273.653 279.33 273.472 279.405 273.282 279.405L248.341 279.438H248.34Z" fill="#FDB914"/>
<path d="M413.92 279.218C413.731 279.218 413.549 279.143 413.415 279.009C413.281 278.875 413.206 278.693 413.206 278.504C413.205 278.314 413.281 278.132 413.415 277.998C413.548 277.864 413.73 277.789 413.92 277.789L436.845 277.761H436.845C437.035 277.761 437.217 277.836 437.351 277.97C437.485 278.104 437.56 278.286 437.56 278.475C437.56 278.664 437.485 278.846 437.351 278.98C437.217 279.114 437.036 279.19 436.846 279.19L413.921 279.218H413.92Z" fill="#FDB914"/>
<path d="M283.352 278.849H281.656C281.611 278.849 281.567 278.832 281.535 278.8C281.503 278.768 281.484 278.725 281.483 278.68C281.483 278.658 281.487 278.636 281.496 278.615C281.504 278.595 281.516 278.576 281.532 278.56C281.547 278.544 281.566 278.532 281.586 278.523C281.606 278.515 281.628 278.51 281.65 278.51H283.352C283.374 278.51 283.396 278.514 283.417 278.523C283.438 278.531 283.456 278.544 283.472 278.56C283.488 278.575 283.501 278.594 283.509 278.615C283.518 278.635 283.522 278.657 283.522 278.68C283.522 278.702 283.518 278.724 283.509 278.745C283.501 278.766 283.488 278.784 283.472 278.8C283.456 278.816 283.438 278.828 283.417 278.837C283.396 278.845 283.374 278.849 283.352 278.849Z" fill="#2B2B2B"/>
<path d="M63.1546 281.164C62.9652 281.165 62.7831 281.091 62.6486 280.958C62.514 280.824 62.4379 280.643 62.437 280.453C62.4361 280.264 62.5106 280.082 62.6439 279.947C62.7772 279.813 62.9586 279.737 63.148 279.736L94.5961 279.444C94.784 279.447 94.9634 279.522 95.0975 279.654C95.2316 279.785 95.3102 279.963 95.317 280.151C95.3179 280.245 95.3003 280.338 95.2653 280.425C95.2302 280.512 95.1783 280.591 95.1126 280.658C95.0469 280.725 94.9686 280.778 94.8823 280.815C94.7959 280.852 94.7032 280.871 94.6094 280.872L63.1612 281.164H63.1546Z" fill="#FDB914"/>
<path d="M181.761 182.294C182.025 182.285 182.275 182.174 182.459 181.984C182.642 181.794 182.745 181.54 182.745 181.275C182.745 181.011 182.642 180.757 182.459 180.567C182.275 180.377 182.025 180.266 181.761 180.256C181.497 180.266 181.246 180.377 181.063 180.567C180.879 180.757 180.776 181.011 180.776 181.275C180.776 181.54 180.879 181.794 181.063 181.984C181.246 182.174 181.497 182.285 181.761 182.294Z" fill="#2B2B2B"/>
<path d="M233.27 162.53L224.928 162.841C222.191 162.924 219.485 162.99 216.794 163.04C214.107 163.078 211.43 163.12 208.763 163.09C206.095 163.07 203.427 162.951 200.733 162.877L201.13 162.48C201.087 164.019 201.017 165.559 200.996 167.098C200.958 168.637 200.957 170.176 200.948 171.716C200.946 174.795 201.01 177.873 201.097 180.952L200.733 180.588L207.39 180.403C207.458 180.401 207.525 180.412 207.588 180.437C207.652 180.461 207.71 180.498 207.759 180.545L207.778 180.564L210.321 183.009H209.447L211.905 180.48C211.964 180.419 212.035 180.37 212.113 180.336C212.191 180.303 212.275 180.285 212.361 180.284L212.377 180.284C215.868 180.255 219.358 180.184 222.849 180.19C224.594 180.181 226.339 180.189 228.084 180.212L233.32 180.278L232.646 180.952C232.694 177.952 232.78 174.951 232.904 171.888L233.27 162.53ZM233.37 162.429L233.736 171.544C233.86 174.638 233.946 177.795 233.994 180.952C233.997 181.128 233.93 181.298 233.807 181.425C233.684 181.551 233.516 181.624 233.34 181.626H233.339L233.32 181.626L228.084 181.693C226.339 181.714 224.594 181.721 222.849 181.714C219.358 181.721 215.868 181.649 212.377 181.62L212.85 181.425L210.321 183.883L210.306 183.897C210.249 183.953 210.181 183.997 210.107 184.026C210.033 184.055 209.954 184.07 209.875 184.069C209.795 184.068 209.717 184.051 209.643 184.019C209.57 183.988 209.504 183.942 209.449 183.885L209.446 183.883L207.001 181.341L207.39 181.501L200.733 181.317L200.713 181.316C200.619 181.313 200.53 181.274 200.465 181.205C200.4 181.137 200.366 181.046 200.368 180.952V180.952C200.455 177.873 200.52 174.795 200.518 171.716C200.509 170.177 200.507 168.637 200.469 167.098C200.449 165.559 200.379 164.019 200.336 162.48C200.335 162.429 200.343 162.379 200.361 162.331C200.379 162.284 200.407 162.241 200.441 162.204C200.476 162.167 200.518 162.138 200.564 162.117C200.61 162.096 200.66 162.085 200.711 162.084H200.711L200.733 162.083C203.47 162.009 206.233 161.889 208.996 161.869C211.761 161.839 214.514 161.882 217.259 161.919C219.999 161.969 222.724 162.036 225.419 162.119L233.37 162.429Z" fill="#FDB914"/>
<path d="M329.105 128.36L316.828 128.573L304.654 128.726L280.476 128.896L268.448 128.854L256.426 128.702C248.404 128.578 240.341 128.52 232.283 128.54L232.513 128.31L232.556 137.546L232.662 146.782L232.283 146.403C239.385 146.306 246.487 146.215 253.59 146.165L274.897 146.048C281.999 145.993 289.102 146.056 296.204 146.055C303.306 146.046 310.409 146.139 317.511 146.196L317.521 146.196C317.673 146.197 317.819 146.259 317.926 146.368L320.397 148.884h219.613L322.134 146.418L322.144 146.409C322.19 146.363 322.246 146.327 322.307 146.302C322.368 146.278 322.433 146.266 322.499 146.267L329.156 146.364L328.737 146.782C328.786 143.751 328.826 140.72 328.909 137.648L329.105 128.36ZM329.206 128.259L329.402 137.444C329.486 140.53 329.525 143.656 329.574 146.782C329.576 146.891 329.534 146.997 329.458 147.075C329.382 147.154 329.278 147.199 329.168 147.2h229.168L329.155 147.201L322.499 147.297L322.863 147.147L320.397 149.668C320.295 149.772 320.156 149.831 320.011 149.833C319.866 149.834 319.725 149.778 319.621 149.677L319.62 149.676L319.613 149.668L317.097 147.197L317.511 147.368C310.409 147.425 303.306 147.518 296.204 147.51C289.102 147.508 281.999 147.571 274.897 147.516L253.59 147.399C246.487 147.35 239.385 147.258 232.283 147.161H232.273C232.224 147.161 232.175 147.15 232.13 147.131C232.085 147.112 232.044 147.083 232.01 147.048C231.975 147.013 231.948 146.971 231.93 146.926C231.912 146.88 231.903 146.831 231.903 146.782L232.01 137.546L232.052 128.31C232.052 128.249 232.077 128.19 232.12 128.147C232.163 128.104 232.222 128.08 232.283 128.079C240.369 128.1 248.452 128.041 256.576 127.918L268.772 127.766L280.962 127.723L305.22 127.893L317.265 128.047L329.206 128.259Z" fill="#FDB914"/>
<path d="M261.841 88.9409C256.603 89.09 251.455 89.1938 246.335 89.2831C241.205 89.3896 236.136 89.4372 231.07 89.4763C226.004 89.5161 220.973 89.4843 215.931 89.3715C210.886 89.2852 205.818 89.1445 200.733 89.1192L200.962 88.8905C200.96 90.4298 200.938 91.9692 200.955 93.5085L200.983 98.1266C200.987 101.205 201.062 104.284 201.107 107.363L200.733 106.989L207.39 106.864C207.452 106.863 207.515 106.874 207.573 106.897C207.631 106.92 207.684 106.954 207.729 106.997L207.743 107.01L210.276 109.464H209.491L211.954 106.939C212.007 106.884 212.071 106.84 212.141 106.81C212.211 106.78 212.287 106.764 212.363 106.764L212.378 106.763L224.756 106.656C228.882 106.623 233.008 106.593 237.135 106.599C245.387 106.595 253.639 106.716 261.892 106.826L261.355 107.363L261.574 98.258L261.841 88.9409ZM261.942 88.84L262.209 97.9951L262.428 107.363C262.432 107.502 262.379 107.636 262.283 107.737C262.187 107.838 262.055 107.896 261.916 107.899L261.911 107.899L261.891 107.9C253.639 108.009 245.387 108.13 237.134 108.126C233.008 108.133 228.882 108.103 224.756 108.07L212.377 107.962L212.801 107.787L210.276 110.249L210.265 110.26C210.161 110.361 210.022 110.417 209.877 110.415C209.732 110.413 209.594 110.354 209.493 110.25L209.491 110.249L207.037 107.715L207.39 107.861L200.733 107.737L200.721 107.736C200.672 107.736 200.625 107.725 200.58 107.706C200.536 107.687 200.496 107.659 200.462 107.625C200.429 107.59 200.402 107.549 200.384 107.504C200.367 107.459 200.358 107.411 200.359 107.363C200.404 104.284 200.479 101.205 200.483 98.1266L200.511 93.5085C200.528 91.9692 200.506 90.4299 200.504 88.8905C200.504 88.8299 200.528 88.7717 200.571 88.7287C200.614 88.6858 200.672 88.6617 200.733 88.6616C205.841 88.6363 210.966 88.4956 216.114 88.4094C221.265 88.2964 226.427 88.2649 231.555 88.3044C236.681 88.3437 241.806 88.3913 246.869 88.4978C251.942 88.5869 256.987 88.6909 261.942 88.84V88.84Z" fill="#FDB914"/>
</svg>
