<svg width="358" height="519" viewBox="0 0 358 519" fill="none" xmlns="http://www.w3.org/2000/svg">
    <path d="M245.457 177.195C245.457 177.195 226.8 159.837 219.674 164.747C219.674 164.747 210.346 185.822 206.053 187.451C204.277 192.619 201.714 197.54 198.151 197.371C197.759 199.107 197.798 200.912 198.264 202.629C199.028 205.775 191.745 219.548 186.89 218.2C182.034 216.852 175.1 204.55 177.123 197.619C177.25 197.149 177.351 196.673 177.426 196.192C177.168 195.686 168.615 179.497 167.749 171.049C166.861 162.466 163.152 166.185 163.152 166.185C163.152 166.185 168.075 170.521 160.399 173.936C152.711 177.363 133.638 180.037 141.236 172.937C141.236 172.937 140.123 169.611 136.403 172.644C136.403 172.644 133.717 176.183 140.191 188.215C140.191 188.215 150.216 239.769 148.429 252.678C148.429 252.678 145.608 285.493 148.789 288.617C150.306 290.111 169.84 295.672 189.16 295.11C201.442 294.818 213.627 292.864 225.384 289.302L224.226 244.106C223.976 234.484 225.745 224.917 229.419 216.02L245.457 177.195ZM182.978 274.641C179.051 273.832 175.384 272.069 172.301 269.507C169.24 266.919 166.843 263.638 165.31 259.935C163.771 256.328 163.034 252.43 163.152 248.51C163.896 252.228 165.156 255.824 166.895 259.194C168.585 262.483 170.911 265.404 173.74 267.788C175.129 268.987 176.662 270.01 178.303 270.833C179.101 271.304 179.966 271.63 180.798 272.024C181.675 272.316 182.529 272.709 183.428 272.945C187.077 274.003 190.831 274.663 194.622 274.911C190.759 275.556 186.808 275.465 182.978 274.641Z" fill="black"/>
    <path d="M208.907 176.543L208.851 176.565C209.233 169.51 205.647 154.287 205.647 154.287C205.647 154.287 186.53 155.22 183.933 154.546C183.933 154.546 178.235 154.433 178.786 171.622C178.786 171.622 172.807 165.903 174.166 173.082C174.414 174.386 174.672 175.52 174.942 176.498C163.534 169.195 177.291 139.042 177.347 141.671C177.438 142.488 177.812 143.247 178.404 143.817C180.764 146.468 184.439 143.57 187.732 142.424C188.395 142.188 189.036 141.986 189.665 141.806C192.136 141.11 194.733 140.986 197.259 141.443C199.785 141.901 202.174 142.928 204.243 144.446C206.313 145.964 208.009 147.934 209.202 150.206C210.396 152.478 211.056 154.992 211.132 157.556C211.367 163.962 210.616 170.365 208.907 176.543Z" fill="black"/>
    <path d="M186.35 193.818C184.57 192.845 182.997 191.536 181.717 189.963C181.073 189.171 180.526 188.305 180.088 187.383C179.659 186.456 179.417 185.454 179.377 184.434C179.686 185.369 180.093 186.27 180.589 187.122C181.098 187.954 181.663 188.751 182.279 189.507C183.553 191.021 184.912 192.46 186.35 193.818V193.818Z" fill="black"/>
    <path d="M191.914 196.034C192.41 196.209 192.929 196.309 193.454 196.328C193.971 196.379 194.487 196.45 195.009 196.516C195.527 196.604 196.05 196.688 196.574 196.822C197.119 196.945 197.648 197.129 198.152 197.371C197.085 197.719 195.949 197.807 194.841 197.626C194.283 197.545 193.738 197.392 193.22 197.17C192.937 197.079 192.675 196.931 192.45 196.736C192.226 196.541 192.043 196.302 191.914 196.034V196.034Z" fill="black"/>
    <path d="M208.924 176.569C208.916 177.089 208.876 177.608 208.804 178.122C208.718 178.648 208.593 179.134 208.485 179.642L207.792 182.657C207.321 184.673 206.746 186.663 206.069 188.62C205.414 190.612 204.537 192.525 203.454 194.322C202.89 195.254 202.175 196.086 201.338 196.784C200.441 197.545 199.301 197.958 198.125 197.948L198.705 197.539C198.444 198.804 198.422 200.106 198.641 201.379C198.696 201.703 198.756 202.025 198.833 202.344C198.879 202.545 198.912 202.748 198.932 202.953C198.942 203.154 198.939 203.355 198.922 203.555C198.848 204.287 198.697 205.008 198.47 205.708C197.574 208.378 196.299 210.907 194.684 213.215C193.898 214.391 192.994 215.484 191.986 216.477C190.974 217.568 189.668 218.346 188.226 218.717C187.829 218.794 187.421 218.791 187.026 218.708C186.653 218.615 186.292 218.482 185.948 218.31C185.303 217.976 184.706 217.558 184.17 217.068C183.122 216.127 182.196 215.06 181.412 213.891C179.824 211.605 178.565 209.108 177.674 206.472C177.226 205.155 176.901 203.8 176.706 202.423C176.473 201.038 176.487 199.623 176.747 198.243C177.314 195.558 177.738 192.844 178.016 190.113C178.337 187.384 178.635 184.652 178.91 181.917L179.434 182.416C178.952 182.508 178.455 182.479 177.987 182.333C177.525 182.173 177.107 181.91 176.764 181.563C176.154 180.913 175.67 180.156 175.337 179.329C174.697 177.77 174.208 176.154 173.876 174.502C173.649 173.682 173.48 172.847 173.37 172.003C173.314 171.544 173.309 171.081 173.357 170.622C173.373 170.324 173.453 170.033 173.591 169.768C173.729 169.503 173.921 169.27 174.156 169.086C174.42 168.928 174.716 168.832 175.022 168.806C175.328 168.78 175.636 168.823 175.923 168.933C176.366 169.083 176.791 169.283 177.187 169.531C177.93 169.993 178.626 170.525 179.267 171.12L178.093 171.644C178.067 170.049 178.011 168.455 178.09 166.852C178.135 165.242 178.285 163.636 178.539 162.045C178.775 160.41 179.24 158.817 179.921 157.312C180.107 156.932 180.327 156.561 180.543 156.191C180.788 155.822 181.064 155.475 181.368 155.153C181.681 154.811 182.044 154.516 182.444 154.281C182.653 154.152 182.875 154.046 183.107 153.964C183.377 153.863 183.661 153.807 183.949 153.797L183.987 153.799L184.123 153.82L184.685 153.91L185.334 153.96C185.761 154.001 186.219 153.999 186.66 154.021C187.553 154.045 188.451 154.055 189.354 154.052L194.77 153.987C198.385 153.935 202.006 153.836 205.62 153.712L205.637 153.711C205.77 153.706 205.9 153.748 206.004 153.83C206.109 153.911 206.182 154.026 206.21 154.155C207.021 157.847 207.659 161.558 208.204 165.29C208.48 167.155 208.689 169.029 208.832 170.912C209.004 172.793 209.035 174.684 208.924 176.569C208.923 176.578 208.921 176.588 208.917 176.596C208.912 176.605 208.906 176.612 208.899 176.618C208.892 176.625 208.884 176.629 208.874 176.632C208.865 176.635 208.856 176.636 208.846 176.636C208.828 176.634 208.811 176.625 208.798 176.612C208.786 176.598 208.779 176.58 208.779 176.561C208.782 174.687 208.643 172.815 208.366 170.961C208.116 169.104 207.799 167.256 207.464 165.411C206.795 161.723 205.951 158.058 205.087 154.42L205.677 154.863C202.054 155.076 198.431 155.257 194.808 155.404C192.994 155.483 191.179 155.506 189.358 155.522C188.449 155.53 187.535 155.525 186.619 155.505C186.156 155.485 185.706 155.49 185.231 155.448L184.526 155.397L183.746 155.271L183.92 155.295C183.666 155.342 183.425 155.438 183.208 155.577C182.928 155.745 182.676 155.954 182.459 156.199C182.223 156.453 182.008 156.726 181.816 157.016C181.64 157.329 181.456 157.64 181.296 157.968C180.693 159.354 180.269 160.811 180.034 162.304C179.77 163.829 179.606 165.371 179.542 166.918C179.444 168.471 179.478 170.036 179.481 171.6V171.614C179.482 171.75 179.442 171.883 179.367 171.997C179.293 172.111 179.187 172.201 179.062 172.255C178.937 172.309 178.799 172.326 178.664 172.302C178.53 172.279 178.406 172.217 178.307 172.124C177.744 171.588 177.132 171.107 176.478 170.686C176.178 170.492 175.856 170.332 175.519 170.21C175.21 170.109 174.953 170.116 174.901 170.177C174.815 170.203 174.692 170.469 174.651 170.796C174.606 171.157 174.601 171.522 174.635 171.884C174.717 172.679 174.854 173.468 175.045 174.244C175.316 175.838 175.738 177.403 176.305 178.917C176.868 180.362 177.833 181.813 179.285 181.522C179.354 181.508 179.425 181.511 179.493 181.53C179.561 181.549 179.623 181.584 179.674 181.632C179.725 181.68 179.765 181.739 179.789 181.805C179.813 181.871 179.82 181.942 179.812 182.011L179.81 182.02C179.453 184.752 179.071 187.478 178.666 190.2C178.236 192.917 177.863 195.655 177.226 198.342C176.807 201.033 177.122 203.786 178.137 206.314C179.03 208.891 180.319 211.313 181.957 213.495C182.749 214.583 183.673 215.569 184.707 216.43C185.203 216.85 185.751 217.205 186.338 217.484C186.614 217.608 186.902 217.705 187.198 217.771C187.48 217.82 187.768 217.81 188.046 217.743C189.264 217.357 190.349 216.637 191.177 215.665C192.095 214.691 192.929 213.641 193.669 212.526C195.168 210.29 196.372 207.87 197.251 205.325C197.458 204.719 197.601 204.092 197.679 203.456C197.693 203.314 197.698 203.171 197.694 203.028C197.683 202.891 197.662 202.754 197.632 202.62C197.553 202.269 197.492 201.915 197.438 201.559C197.209 200.111 197.264 198.631 197.599 197.204C197.629 197.082 197.701 196.974 197.802 196.899C197.903 196.824 198.027 196.787 198.153 196.793L198.179 196.794C199.083 196.806 199.96 196.492 200.651 195.911C201.401 195.291 202.054 194.563 202.589 193.75C203.693 192.053 204.604 190.238 205.305 188.339C206.041 186.432 206.675 184.482 207.276 182.517L208.136 179.554C208.268 179.061 208.429 178.557 208.549 178.074C208.657 177.575 208.734 177.069 208.779 176.561C208.781 176.542 208.79 176.525 208.804 176.512C208.819 176.5 208.837 176.494 208.856 176.495C208.875 176.496 208.892 176.505 208.905 176.519C208.918 176.532 208.925 176.551 208.924 176.569L208.924 176.569Z" fill="black"/>
    <path d="M208.277 166.339C207.609 166.005 206.988 165.68 206.369 165.398C205.786 165.114 205.167 164.911 204.53 164.793C203.94 164.687 203.332 164.748 202.775 164.969C202.157 165.26 201.586 165.641 201.081 166.101C201.263 165.34 201.71 164.668 202.342 164.207C203.033 163.729 203.884 163.542 204.712 163.686C205.485 163.829 206.21 164.161 206.823 164.652C207.426 165.101 207.922 165.677 208.277 166.339V166.339Z" fill="black"/>
    <path d="M191.242 164.987C189.823 164.262 188.235 163.936 186.646 164.043C185.888 164.127 185.151 164.348 184.472 164.696C184.103 164.838 183.786 165.09 183.417 165.276C183.069 165.494 182.74 165.748 182.352 165.963C182.555 165.579 182.789 165.211 183.051 164.864C183.336 164.525 183.658 164.218 184.011 163.951C184.737 163.385 185.607 163.031 186.522 162.927C187.437 162.827 188.362 162.976 189.2 163.357C190.013 163.71 190.717 164.273 191.242 164.987V164.987Z" fill="black"/>
    <path d="M201.313 176.625C201.224 177.189 200.981 177.718 200.612 178.153C200.242 178.588 199.76 178.913 199.218 179.092C198.676 179.285 198.096 179.341 197.527 179.255C196.975 179.181 196.452 178.961 196.013 178.617C196.569 178.505 197.058 178.469 197.525 178.378C197.972 178.304 198.411 178.19 198.837 178.036C199.263 177.889 199.672 177.698 200.059 177.467C200.491 177.208 200.91 176.927 201.313 176.625V176.625Z" fill="black"/>
    <path d="M203.422 172.321C203.859 172.306 204.273 172.122 204.577 171.807C204.88 171.493 205.05 171.073 205.05 170.636C205.05 170.199 204.88 169.779 204.577 169.464C204.273 169.15 203.859 168.966 203.422 168.951C202.985 168.966 202.571 169.15 202.267 169.464C201.964 169.779 201.794 170.199 201.794 170.636C201.794 171.073 201.964 171.493 202.267 171.807C202.571 172.122 202.985 172.306 203.422 172.321V172.321Z" fill="black"/>
    <path d="M188.591 172.142C189.028 172.127 189.442 171.942 189.746 171.628C190.049 171.314 190.219 170.894 190.219 170.457C190.219 170.02 190.049 169.6 189.746 169.285C189.442 168.971 189.028 168.787 188.591 168.771C188.154 168.787 187.74 168.971 187.436 169.285C187.133 169.6 186.963 170.02 186.963 170.457C186.963 170.894 187.133 171.314 187.436 171.628C187.74 171.942 188.154 172.127 188.591 172.142V172.142Z" fill="black"/>
    <path d="M193.972 182.584C193.755 183.224 193.787 183.922 194.064 184.539C194.313 185.109 194.699 185.61 195.187 185.996C195.663 186.392 196.231 186.662 196.839 186.781C197.166 186.845 197.503 186.845 197.83 186.779C198.156 186.713 198.467 186.583 198.743 186.397C198.577 186.773 198.305 187.092 197.96 187.316C197.616 187.539 197.213 187.658 196.802 187.657C195.958 187.686 195.131 187.405 194.479 186.868C193.823 186.341 193.377 185.597 193.221 184.77C193.129 184.372 193.151 183.956 193.284 183.57C193.416 183.183 193.655 182.842 193.972 182.584V182.584Z" fill="black"/>
    <path d="M163.089 166.216L156.622 153.491L150.083 140.813C147.885 136.598 145.648 132.404 143.299 128.28C142.139 126.212 140.962 124.153 139.711 122.149C139.085 121.149 138.441 120.16 137.759 119.211C137.145 118.281 136.402 117.442 135.553 116.719L135.533 116.705C135.472 116.661 135.42 116.606 135.38 116.541C135.341 116.477 135.314 116.406 135.302 116.332C135.289 116.257 135.292 116.181 135.309 116.108C135.326 116.034 135.358 115.965 135.402 115.904C135.45 115.837 135.512 115.781 135.583 115.74C135.885 115.522 136.122 115.225 136.268 114.882C136.434 114.483 136.527 114.058 136.544 113.626C136.557 112.693 136.409 111.765 136.108 110.882C135.797 109.966 135.413 109.076 134.96 108.221C134.521 107.35 133.995 106.521 133.481 105.685L133.468 105.663C133.446 105.626 133.43 105.585 133.423 105.543L132.553 100.403L132.342 99.1148L132.239 98.4678L132.192 98.1436C132.175 98.0584 132.151 97.9749 132.12 97.894C131.986 97.5303 131.77 97.2025 131.488 96.9363C131.206 96.6701 130.867 96.4726 130.496 96.3594C129.785 96.2376 129.139 96.9702 129.092 97.7374C129.072 98.5528 129.095 99.4582 129.101 100.314C129.114 101.18 129.12 102.049 129.17 102.91C129.22 103.157 129.206 103.413 129.13 103.653C129.054 103.894 128.919 104.111 128.736 104.285C128.344 104.588 127.853 104.736 127.358 104.7C126.443 104.632 125.563 104.323 124.807 103.803C124.429 103.565 124.077 103.261 123.748 103.024C123.405 102.78 123.041 102.556 122.669 102.342C121.158 101.507 119.598 100.763 117.997 100.115L115.587 99.145C114.814 98.8098 114.016 98.5362 113.2 98.3268C112.854 98.2325 112.488 98.2394 112.146 98.347C111.804 98.4545 111.5 98.658 111.271 98.9332C111.018 99.6508 111.049 100.438 111.357 101.133C111.382 101.211 111.384 101.295 111.363 101.374C111.342 101.453 111.298 101.525 111.238 101.58C111.177 101.635 111.102 101.672 111.021 101.686C110.94 101.699 110.857 101.69 110.782 101.658L110.775 101.655L108.689 100.77C108.069 100.441 107.391 100.24 106.693 100.177C106.072 100.127 105.455 100.314 104.965 100.7C104.613 101.025 104.672 101.626 104.941 102.251C104.98 102.343 104.993 102.445 104.977 102.543C104.962 102.642 104.919 102.735 104.853 102.811C104.788 102.886 104.702 102.942 104.606 102.971C104.51 103 104.408 103.002 104.311 102.976L104.292 102.971C103.507 102.757 102.71 102.59 101.905 102.47C101.162 102.328 100.399 102.322 99.6535 102.451C99.3561 102.543 99.0849 102.704 98.8623 102.922C98.6398 103.139 98.4724 103.407 98.374 103.702C98.2373 104.21 98.587 104.773 99.1334 105.258C99.2531 105.364 99.3296 105.511 99.3484 105.67C99.3673 105.828 99.3271 105.989 99.2356 106.12L99.2262 106.133C99.0325 106.373 98.8906 106.65 98.8093 106.948C98.728 107.245 98.7091 107.556 98.7537 107.861C98.8654 108.246 99.5278 108.538 100.268 108.623C100.703 108.658 101.136 108.72 101.564 108.807C101.999 108.911 102.427 109.042 102.845 109.2C103.653 109.508 104.44 109.87 105.2 110.283C106.687 111.098 108.124 112 109.504 112.985C110.884 113.959 112.215 114.969 113.528 116.053L113.447 115.993C115.753 117.459 118.056 118.941 120.383 120.368C121.544 121.077 122.717 121.798 123.883 122.427L124.309 122.644L124.948 122.926C125.072 123.037 125.177 123.168 125.258 123.314L125.404 123.57L125.652 124.052C125.964 124.686 126.247 125.314 126.527 125.946C128.743 130.99 130.675 136.119 132.568 141.27C134.458 146.42 136.241 151.611 137.831 156.864C138.626 159.49 139.393 162.127 140.024 164.801C140.737 167.46 141.168 170.186 141.309 172.934C141.309 172.944 141.307 172.953 141.304 172.962C141.3 172.971 141.295 172.979 141.288 172.986C141.282 172.993 141.274 172.998 141.265 173.002C141.256 173.006 141.247 173.008 141.237 173.008C141.218 173.007 141.2 172.999 141.187 172.986C141.173 172.973 141.165 172.955 141.164 172.936C140.897 170.218 140.345 167.537 139.516 164.935C138.749 162.312 137.924 159.707 137.042 157.118C135.269 151.944 133.363 146.815 131.398 141.711C129.411 136.617 127.358 131.536 125.178 126.545C124.901 125.926 124.618 125.306 124.323 124.713L124.099 124.282L123.99 124.093C123.979 124.056 123.866 123.939 123.996 124.07C124.059 124.107 123.989 124.093 124.225 124.191C124.292 124.211 124.361 124.221 124.431 124.22L124.38 124.216C124.313 124.21 124.245 124.2 124.179 124.185C124.107 124.167 124.038 124.145 123.969 124.118C123.844 124.073 123.777 124.036 123.678 123.994L123.187 123.748C121.939 123.08 120.774 122.37 119.594 121.656C117.249 120.221 114.924 118.77 112.619 117.275L112.546 117.222L112.538 117.215C110.046 115.08 107.363 113.176 104.524 111.529C103.825 111.138 103.1 110.794 102.355 110.5C101.995 110.359 101.627 110.241 101.252 110.147C100.865 110.066 100.473 110.007 100.078 109.972C99.5925 109.912 99.1197 109.775 98.6776 109.565C98.1364 109.319 97.7131 108.871 97.4986 108.317C97.3262 107.781 97.3324 107.203 97.5162 106.671C97.665 106.203 97.8859 105.76 98.1711 105.36L98.2637 106.235C97.8879 105.9 97.5758 105.5 97.3425 105.055C97.0875 104.542 97.0223 103.956 97.1582 103.4C97.3065 102.88 97.5991 102.414 98.002 102.054C98.3779 101.695 98.8375 101.436 99.339 101.301C100.247 101.141 101.178 101.158 102.08 101.351C102.93 101.498 103.77 101.695 104.597 101.941L103.948 102.661C103.775 102.247 103.681 101.805 103.671 101.356C103.67 101.099 103.72 100.844 103.819 100.607C103.918 100.369 104.064 100.154 104.248 99.9747C104.593 99.6889 104.992 99.4743 105.42 99.3434C105.849 99.2126 106.299 99.1681 106.745 99.2125C107.555 99.2984 108.34 99.5438 109.055 99.9347L111.12 100.869L110.538 101.391C110.355 100.935 110.265 100.446 110.273 99.9541C110.281 99.4621 110.387 98.9768 110.586 98.5266C110.73 98.2993 110.918 98.1032 111.139 97.9501C111.36 97.797 111.61 97.69 111.873 97.6355C112.349 97.5264 112.841 97.5164 113.321 97.6061C114.183 97.8425 115.025 98.1509 115.836 98.5282L118.235 99.5655C119.822 100.287 121.405 101.02 122.928 101.898C123.307 102.121 123.682 102.355 124.044 102.618C124.416 102.893 124.719 103.163 125.075 103.392C125.753 103.87 126.545 104.16 127.372 104.234C127.751 104.269 128.131 104.165 128.44 103.941C128.572 103.813 128.669 103.653 128.72 103.476C128.77 103.299 128.773 103.111 128.728 102.933L128.644 100.322C128.628 99.4421 128.591 98.6102 128.605 97.6905C128.643 97.1981 128.843 96.7322 129.174 96.3661C129.348 96.1745 129.564 96.027 129.806 95.9359C130.048 95.8448 130.308 95.8127 130.565 95.8422C131.053 95.9266 131.5 96.1682 131.839 96.5301C132.176 96.8605 132.447 97.2534 132.635 97.687C132.684 97.8079 132.721 97.9334 132.745 98.0616L132.795 98.3809L132.905 99.0189L133.144 100.297L134.173 105.401L134.114 105.259C134.666 106.097 135.231 106.928 135.714 107.816C136.218 108.701 136.65 109.625 137.005 110.579C137.374 111.567 137.569 112.612 137.58 113.667C137.605 114.26 137.484 114.85 137.228 115.385C136.971 115.921 136.587 116.385 136.109 116.736L136.139 115.758C137.152 116.52 138.029 117.448 138.734 118.501C139.449 119.478 140.114 120.478 140.76 121.488C142.045 123.51 143.261 125.565 144.432 127.644C146.744 131.818 148.937 136.048 151.088 140.297C153.255 144.538 155.283 148.847 157.325 153.147C159.359 157.452 161.324 161.787 163.22 166.154C163.228 166.172 163.229 166.191 163.222 166.209C163.215 166.227 163.202 166.241 163.185 166.249C163.168 166.257 163.148 166.258 163.13 166.252C163.112 166.246 163.098 166.233 163.089 166.216L163.089 166.216Z" fill="black"/>
    <path d="M128.889 121.698C127.647 122.833 126.115 123.602 124.463 123.922C124.383 123.937 124.301 123.936 124.221 123.92C124.142 123.903 124.066 123.871 123.999 123.825C123.932 123.779 123.874 123.721 123.83 123.653C123.785 123.585 123.754 123.508 123.739 123.428C123.724 123.348 123.725 123.266 123.742 123.187C123.758 123.107 123.791 123.032 123.837 122.964C123.882 122.897 123.941 122.84 124.009 122.795C124.077 122.751 124.154 122.72 124.234 122.705C124.287 122.696 124.341 122.693 124.395 122.696C125.956 122.782 127.511 122.437 128.889 121.698Z" fill="black"/>
    <path d="M127.757 107.121C128.147 108.305 128.428 109.462 128.824 110.574C129.006 111.13 129.229 111.671 129.489 112.195C129.753 112.729 130.089 113.225 130.488 113.669C129.894 113.426 129.381 113.019 129.01 112.496C128.634 111.983 128.34 111.414 128.14 110.81C127.726 109.627 127.595 108.364 127.757 107.121V107.121Z" fill="black"/>
    <path d="M119.859 105.238L110.512 101.598C110.423 101.563 110.351 101.494 110.312 101.406C110.273 101.318 110.271 101.218 110.306 101.128C110.341 101.039 110.41 100.967 110.498 100.928C110.586 100.889 110.686 100.887 110.775 100.922L110.8 100.933L119.859 105.238Z" fill="black"/>
    <path d="M115.341 107.03L104.308 102.886C104.263 102.869 104.222 102.844 104.187 102.811C104.152 102.779 104.124 102.74 104.104 102.696C104.084 102.653 104.073 102.606 104.072 102.558C104.07 102.511 104.078 102.463 104.094 102.418C104.111 102.374 104.137 102.333 104.169 102.298C104.202 102.263 104.241 102.235 104.285 102.216C104.328 102.196 104.375 102.185 104.423 102.184C104.471 102.182 104.518 102.19 104.563 102.207L104.584 102.216L115.341 107.03Z" fill="black"/>
    <path d="M110.467 108.768C108.538 108.116 106.59 107.523 104.627 107.001C103.644 106.748 102.657 106.508 101.666 106.321C100.712 106.108 99.7319 106.034 98.7566 106.104L98.7161 106.11C98.6689 106.116 98.6209 106.113 98.5749 106.101C98.5288 106.089 98.4856 106.068 98.4477 106.039C98.4098 106.01 98.378 105.974 98.354 105.933C98.33 105.892 98.3144 105.846 98.308 105.799C98.3016 105.752 98.3045 105.704 98.3166 105.658C98.3288 105.612 98.3499 105.569 98.3787 105.531C98.4075 105.493 98.4436 105.461 98.4847 105.437C98.5258 105.413 98.5713 105.398 98.6185 105.391L98.6414 105.389C99.7025 105.361 100.762 105.497 101.782 105.79C102.779 106.04 103.757 106.34 104.729 106.654C106.668 107.294 108.581 107.999 110.467 108.768Z" fill="black"/>
    <path d="M240.33 172.888L244.481 157.461L246.524 149.745C246.85 148.458 247.179 147.167 247.462 145.88C247.727 144.592 247.925 143.291 248.053 141.982C248.647 136.706 249.136 131.399 249.69 126.101C249.962 123.45 250.261 120.8 250.586 118.15C250.75 116.825 250.936 115.499 251.143 114.173C251.27 113.509 251.38 112.848 251.527 112.18L251.775 111.172C251.891 110.804 252.027 110.443 252.183 110.09C252.219 109.997 252.289 109.92 252.379 109.875L252.464 109.833C253.653 109.221 254.784 108.501 255.842 107.682C256.921 106.867 257.936 105.969 258.877 104.998C260.766 103.056 262.364 100.852 263.623 98.4541L263.631 98.4387C263.656 98.3925 263.687 98.3502 263.724 98.3134L270.613 91.5212C270.825 91.27 270.962 90.9644 271.009 90.6391C271.071 90.2814 271.08 89.9164 271.036 89.556C271.014 89.2539 270.874 88.9725 270.647 88.7724C270.392 88.6061 270.084 88.5419 269.785 88.5927C269.454 88.648 269.147 88.7964 268.898 89.0206L268.043 89.8572C267.458 90.4235 266.865 90.9811 266.256 91.5242C265.063 92.6718 263.719 93.6515 262.262 94.4362C262.048 94.5299 261.821 94.5902 261.589 94.6147C261.44 94.6341 261.288 94.6126 261.15 94.5526C261.012 94.4925 260.893 94.3962 260.805 94.2738C260.698 94.0547 260.638 93.8157 260.629 93.5721C260.619 93.3284 260.66 93.0854 260.75 92.8586C261.04 92.0694 261.452 91.3306 261.971 90.6687C262.961 89.3694 264.048 88.1459 265.221 87.0085C266.428 85.973 267.381 84.6728 268.003 83.209C268.28 82.4879 268.187 81.6695 267.477 81.3969C267.133 81.2612 266.759 81.218 266.393 81.2717C266.027 81.3254 265.682 81.474 265.391 81.7027C264.052 82.5725 262.848 83.6352 261.819 84.8563C261.288 85.4591 260.77 86.0746 260.278 86.7123C259.767 87.3344 259.346 88.0168 258.757 88.6388C258.466 88.9451 258.143 89.2205 257.795 89.4608C257.618 89.5877 257.431 89.6996 257.236 89.7952C257.111 89.8737 256.97 89.9204 256.823 89.9313C256.676 89.9422 256.529 89.9169 256.395 89.8577C256.309 89.8022 256.239 89.7251 256.192 89.6342C256.164 89.5601 256.142 89.4836 256.127 89.4057C256.114 89.2817 256.116 89.1565 256.133 89.0329C256.16 88.8153 256.208 88.6007 256.276 88.392C256.398 87.9935 256.544 87.6025 256.712 87.2211C257.044 86.4627 257.442 85.7346 257.899 85.0447L259.278 83.0433C260.18 81.7236 260.97 80.3313 261.641 78.8806C261.972 78.2059 262.166 77.4725 262.213 76.7226C262.21 76.5739 262.177 76.4273 262.114 76.2924C262.051 76.1576 261.961 76.0375 261.848 75.9401C261.75 75.8407 261.629 75.7674 261.495 75.7267C261.362 75.6861 261.22 75.6795 261.083 75.7075C260.397 75.9176 259.79 76.3278 259.339 76.8856C258.816 77.4639 258.355 78.0949 257.963 78.7685C257.547 79.4467 257.213 80.1349 256.85 80.8826C256.48 81.6242 256.077 82.3379 255.656 83.0414C254.821 84.4672 253.876 85.825 252.828 87.102C252.689 87.2628 252.542 87.4224 252.381 87.579C252.297 87.6618 252.21 87.7403 252.118 87.8141C252.057 87.871 251.989 87.9195 251.915 87.9581C251.858 87.9892 251.798 88.0166 251.737 88.0401C251.631 88.0657 251.522 88.0718 251.414 88.0582C251.223 88.0255 251.052 87.921 250.935 87.7661C250.871 87.6806 250.82 87.5855 250.785 87.4844C250.738 87.3509 250.704 87.2131 250.684 87.073C250.654 86.8483 250.637 86.6221 250.635 86.3955C250.634 85.5605 250.682 84.7261 250.778 83.8966C251.031 82.2748 251.371 80.6678 251.798 79.0828C251.968 78.343 252.048 77.5855 252.037 76.8266C252.045 76.1048 251.919 75.3878 251.666 74.7116C251.544 74.4253 251.346 74.2281 251.317 74.2506C251.299 74.2708 251.303 74.2443 251.274 74.2517C251.242 74.2728 251.206 74.2859 251.168 74.2898C251.053 74.362 250.945 74.4455 250.847 74.5391C250.348 75.0868 249.926 75.6991 249.591 76.3595C248.838 77.7312 248.256 79.1901 247.859 80.7035C247.657 81.4635 247.49 82.2342 247.349 83.017C247.194 83.814 247.12 84.562 246.9 85.4687C246.478 87.1002 245.857 88.6741 245.053 90.1553C244.612 91.0316 243.902 91.7442 243.027 92.1893C242.74 92.3041 242.43 92.3527 242.121 92.3314C241.965 92.3236 241.809 92.3035 241.656 92.2714L241.255 92.0991C240.801 91.873 240.399 91.5552 240.073 91.1657C238.825 89.6934 238.554 87.9367 237.763 86.8289C237.6 86.5763 237.382 86.3633 237.126 86.2051C236.87 86.0469 236.583 85.9475 236.283 85.9142C235.951 85.8726 235.615 85.8765 235.283 85.9257L234.77 86.0165C234.642 86.0725 234.474 86.11 234.373 86.1649C234.157 86.3075 234.207 86.2694 234.188 86.4227C234.237 86.7082 234.344 86.9805 234.503 87.2227C234.867 87.8508 235.362 88.4918 235.833 89.1773C236.084 89.5303 236.314 89.8982 236.52 90.279C236.744 90.6905 236.912 91.1299 237.02 91.5857C237.217 92.4389 237.317 93.248 237.426 94.064L237.99 98.8833C238.099 99.6741 238.213 100.464 238.375 101.223C238.449 101.59 238.546 101.952 238.665 102.308C238.739 102.567 238.857 102.812 239.013 103.033L239.181 103.293C239.229 103.368 239.261 103.454 239.274 103.543C239.286 103.632 239.28 103.723 239.254 103.81C237.743 108.875 236.145 113.914 234.595 118.967L229.91 134.116L225.225 149.265L220.427 164.38C220.421 164.398 220.408 164.413 220.392 164.422C220.375 164.431 220.355 164.433 220.337 164.427C220.319 164.422 220.303 164.41 220.294 164.393C220.285 164.376 220.283 164.357 220.288 164.338L224.588 149.074L229.002 133.844L233.416 118.614C234.899 113.541 236.333 108.453 237.855 103.391L238.096 104.169C237.876 103.963 237.694 103.72 237.56 103.45C237.444 103.24 237.351 103.018 237.282 102.789C237.142 102.377 237.028 101.957 236.94 101.531C236.762 100.706 236.643 99.8925 236.528 99.0796L235.948 94.2512C235.842 93.463 235.736 92.6634 235.565 91.9385C235.369 91.2456 235.039 90.5977 234.595 90.0309C234.149 89.3822 233.643 88.7432 233.19 87.9716C232.91 87.5312 232.733 87.0323 232.676 86.5133C232.65 86.3426 232.663 86.1684 232.713 86.0031C232.741 85.8194 232.812 85.6448 232.92 85.4933C233.102 85.2114 233.354 84.982 233.652 84.8282C233.89 84.7158 234.136 84.6212 234.387 84.5451L235.069 84.4187C235.539 84.3482 236.016 84.3426 236.488 84.402C236.994 84.4651 237.482 84.6351 237.917 84.9008C238.353 85.1664 238.727 85.5217 239.015 85.9429C240.062 87.5134 240.313 89.1549 241.218 90.1684C241.408 90.4045 241.645 90.5996 241.913 90.7416C241.965 90.7651 242.016 90.792 242.065 90.8222C242.114 90.8332 242.156 90.8201 242.2 90.8302C242.286 90.8744 242.382 90.7989 242.48 90.7943C243.039 90.4652 243.49 89.9813 243.78 89.4012C244.528 88.036 245.11 86.5856 245.511 85.0814C245.681 84.4157 245.792 83.5499 245.95 82.7585C246.102 81.9489 246.284 81.1373 246.505 80.3337C246.944 78.7146 247.581 77.1556 248.4 75.6915C248.806 74.9097 249.321 74.1896 249.93 73.553C250.126 73.3698 250.345 73.2123 250.581 73.0842C250.735 73.0247 250.892 72.9737 251.052 72.9315C251.238 72.9098 251.427 72.9152 251.612 72.9474C251.903 73.0398 252.17 73.1987 252.389 73.4113C252.609 73.624 252.777 73.8848 252.879 74.1731C253.201 75.0147 253.359 75.9101 253.345 76.8111C253.348 77.6729 253.244 78.5318 253.036 79.3682C252.594 80.9033 252.234 82.4607 251.957 84.0339C251.854 84.8116 251.795 85.5947 251.781 86.3792C251.78 86.5574 251.789 86.7355 251.808 86.9127C251.816 86.973 251.829 87.0327 251.845 87.0912C251.853 87.1282 251.85 87.094 251.83 87.0794C251.768 87.0106 251.685 86.9641 251.593 86.9472C251.536 86.935 251.476 86.9399 251.421 86.9612C251.406 86.9607 251.391 86.9645 251.377 86.9722C251.329 87.0111 251.395 86.9601 251.419 86.9387C251.486 86.8867 251.55 86.8309 251.611 86.7717C251.743 86.649 251.872 86.5128 252.001 86.3691C253.027 85.1567 253.958 83.8661 254.783 82.5089C255.205 81.8301 255.611 81.1397 255.976 80.4381C256.332 79.7349 256.719 78.9707 257.163 78.2757C257.6 77.5563 258.11 76.8841 258.686 76.27C259.276 75.5736 260.071 75.0806 260.957 74.8607C261.221 74.8188 261.491 74.8396 261.746 74.9217C262 75.0037 262.231 75.1445 262.421 75.3328C262.606 75.5052 262.755 75.7123 262.86 75.9422C262.968 76.1791 263.025 76.4359 263.027 76.6962C262.975 77.5665 262.744 78.4167 262.347 79.1932C261.632 80.6714 260.795 82.0874 259.844 83.4264C258.85 84.6834 257.983 86.0356 257.256 87.4634C257.091 87.8199 256.946 88.1858 256.824 88.5592C256.763 88.7346 256.719 88.9153 256.691 89.0989C256.672 89.1957 256.671 89.2952 256.69 89.3921C256.801 89.389 256.909 89.3591 257.006 89.3049C257.174 89.2231 257.336 89.1274 257.489 89.0188C257.809 88.8011 258.107 88.5508 258.376 88.272C258.909 87.721 259.354 87.0213 259.874 86.3948C260.376 85.7536 260.905 85.1329 261.449 84.5246C262.519 83.2721 263.77 82.1854 265.159 81.2999C265.527 81.073 265.93 80.9085 266.351 80.8131C266.799 80.7276 267.263 80.7908 267.672 80.993C267.889 81.0856 268.082 81.2284 268.234 81.4098C268.385 81.5911 268.492 81.8059 268.544 82.0363C268.619 82.4766 268.576 82.9289 268.419 83.3471C267.789 84.8843 266.81 86.2544 265.561 87.3496C264.417 88.4784 263.359 89.6908 262.396 90.9769C261.919 91.5955 261.54 92.2838 261.273 93.0178C261.154 93.3192 261.151 93.6543 261.265 93.9577C261.324 94.1176 261.706 94.0622 262.042 93.9114C263.426 93.1333 264.694 92.1649 265.808 91.0345C266.396 90.4857 266.971 89.921 267.537 89.3477L268.399 88.4664C268.75 88.1381 269.188 87.9172 269.66 87.8301C270.166 87.7352 270.689 87.8413 271.118 88.1258C271.525 88.4443 271.789 88.9108 271.853 89.4234C271.92 89.8662 271.921 90.3166 271.855 90.7596C271.795 91.2422 271.602 91.6986 271.298 92.0781L264.501 99.0844L264.602 98.9438C263.974 100.209 263.254 101.425 262.447 102.584C261.637 103.742 260.736 104.833 259.752 105.846C258.775 106.868 257.722 107.813 256.6 108.673C255.477 109.555 254.273 110.33 253.005 110.988L253.286 110.732C253.203 111.003 253.088 111.219 253.01 111.523L252.788 112.456C252.653 113.089 252.548 113.743 252.43 114.387C252.218 115.69 252.02 116.998 251.846 118.315C251.495 120.946 251.175 123.584 250.885 126.23C250.274 131.517 249.779 136.816 249.083 142.112C248.923 143.45 248.692 144.778 248.392 146.092C248.076 147.401 247.72 148.683 247.365 149.969L245.157 157.652C243.628 162.755 242.053 167.843 240.468 172.928C240.463 172.946 240.45 172.962 240.433 172.971C240.417 172.98 240.397 172.982 240.379 172.976C240.361 172.971 240.345 172.959 240.336 172.942C240.327 172.925 240.324 172.906 240.329 172.888L240.33 172.888Z" fill="black"/>
    <path d="M257.859 96.5348C256.901 95.4289 255.878 94.3811 254.796 93.397C254.267 92.9218 253.688 92.5071 253.067 92.1606C252.432 91.8143 251.74 91.5845 251.023 91.4818C251.781 91.3054 252.575 91.3623 253.3 91.6449C254.024 91.9244 254.691 92.3325 255.269 92.8496C256.419 93.8495 257.308 95.1144 257.859 96.5348V96.5348Z" fill="black"/>
    <path d="M248.481 93.5142C248.671 94.6828 248.672 95.874 248.487 97.0433C248.4 97.6301 248.264 98.2086 248.079 98.7723C247.91 99.3538 247.613 99.8902 247.21 100.342C247.355 99.7825 247.462 99.2137 247.529 98.6395L247.771 96.9363C247.924 95.7798 248.162 94.6361 248.481 93.5142V93.5142Z" fill="black"/>
    <path d="M242.958 105.261C242.104 105.36 241.24 105.33 240.395 105.17C239.442 105.014 238.566 104.55 237.901 103.85L237.873 103.818C237.808 103.747 237.757 103.663 237.725 103.571C237.692 103.48 237.678 103.383 237.683 103.287C237.687 103.19 237.711 103.095 237.753 103.008C237.794 102.92 237.853 102.842 237.924 102.777C237.996 102.712 238.08 102.662 238.172 102.629C238.263 102.597 238.36 102.582 238.457 102.587C238.553 102.592 238.648 102.616 238.736 102.658C238.823 102.7 238.902 102.758 238.967 102.83C239.019 102.889 239.062 102.955 239.094 103.027C239.434 103.668 239.975 104.181 240.633 104.486C241.365 104.86 242.148 105.121 242.958 105.261V105.261Z" fill="black"/>
    <path d="M147.606 289.822C147.63 296.776 147.632 303.729 147.545 310.68C147.471 317.631 147.423 324.583 147.265 331.533L146.851 352.382C146.684 359.331 146.45 366.278 146.151 373.224L145.877 372.64C148.898 374.972 152.155 376.983 155.594 378.639C159.03 380.341 162.681 381.569 166.447 382.289C170.213 383.015 174.088 382.961 177.833 382.131C181.558 381.259 185.032 379.536 187.98 377.098C188.021 377.064 188.068 377.039 188.119 377.024C188.17 377.009 188.223 377.005 188.275 377.011L188.296 377.014C192.402 377.5 196.535 377.734 200.67 377.714C204.794 377.708 208.913 377.422 212.998 376.858C217.05 376.326 221.02 375.293 224.817 373.782C228.564 372.361 231.866 369.971 234.385 366.856L234.184 367.575L231.906 348.019L229.745 328.449L227.568 308.881C226.823 302.36 226.093 295.837 225.287 289.32C225.284 289.294 225.291 289.268 225.306 289.247C225.322 289.226 225.345 289.212 225.371 289.207C225.397 289.203 225.424 289.209 225.445 289.224C225.467 289.239 225.481 289.262 225.486 289.288C226.747 295.737 227.803 302.224 228.796 308.717C229.822 315.207 230.694 321.717 231.577 328.226C232.475 334.732 233.268 341.252 234.055 347.771C234.813 354.295 235.523 360.824 236.184 367.359L236.185 367.375C236.21 367.627 236.137 367.879 235.982 368.079C233.213 371.435 229.601 373.995 225.515 375.494C221.555 376.998 217.418 377.986 213.205 378.433C209.04 378.907 204.844 379.067 200.654 378.913C196.476 378.794 192.308 378.428 188.173 377.817L188.488 377.732C185.405 380.173 181.812 381.892 177.976 382.762C174.143 383.566 170.191 383.631 166.333 382.954C162.486 382.288 158.736 381.151 155.167 379.567C151.575 378.002 148.16 376.06 144.979 373.773C144.893 373.712 144.824 373.63 144.776 373.537C144.729 373.443 144.704 373.339 144.704 373.234L144.705 373.188C144.762 366.237 144.875 359.286 145.043 352.337L145.667 331.493C145.856 324.544 146.155 317.599 146.426 310.652C146.685 303.705 147.034 296.761 147.404 289.817C147.405 289.791 147.417 289.766 147.436 289.748C147.456 289.73 147.481 289.721 147.507 289.721C147.534 289.722 147.559 289.733 147.577 289.752C147.595 289.77 147.606 289.795 147.606 289.822L147.606 289.822Z" fill="black"/>
    <path d="M196.52 311.222C198.131 310.681 199.714 310.098 201.29 309.522C202.86 308.93 204.42 308.322 205.928 307.613C207.449 306.942 208.917 306.157 210.319 305.265C211.737 304.379 213.019 303.293 214.126 302.039C213.308 303.56 212.164 304.881 210.776 305.907C209.408 306.952 207.922 307.833 206.348 308.53C204.792 309.239 203.182 309.82 201.532 310.268C199.893 310.734 198.215 311.053 196.52 311.222Z" fill="black"/>
    <path d="M188.234 377.415C188.559 371.689 189.125 365.98 189.777 360.282C190.426 354.583 191.267 348.907 192.186 343.243C193.174 337.591 194.245 331.947 195.65 326.377C196.948 320.78 198.741 315.309 201.007 310.028L199.62 314.095L198.439 318.221C197.705 320.985 196.984 323.752 196.406 326.555C195.783 329.346 195.225 332.151 194.661 334.956C194.156 337.772 193.624 340.583 193.18 343.41C192.181 349.046 191.356 354.712 190.543 360.381C190.128 363.215 189.736 366.052 189.368 368.893L188.234 377.415Z" fill="black"/>
    <path d="M198.243 378.253L199.047 363.135C199.295 358.098 199.573 353.062 199.701 348.024C199.909 342.988 199.985 337.952 199.927 332.915C199.9 330.398 199.821 327.881 199.61 325.375C199.496 322.86 199.036 320.372 198.243 317.982C199.226 320.323 199.852 322.797 200.102 325.323C200.415 327.838 200.582 330.365 200.704 332.892C200.928 337.949 200.839 343.007 200.709 348.058C200.496 353.107 200.232 358.152 199.818 363.186C199.404 368.219 198.918 373.247 198.243 378.253Z" fill="black"/>
    <path d="M146.327 325.293C149.58 324.896 152.852 324.668 156.129 324.611C156.228 324.609 156.327 324.626 156.419 324.662C156.512 324.697 156.596 324.751 156.668 324.819C156.74 324.887 156.797 324.969 156.837 325.06C156.878 325.15 156.899 325.248 156.902 325.347L156.902 325.351L156.903 325.384C156.934 327.042 156.973 328.7 156.9 330.357C156.831 332.015 156.692 333.673 156.585 335.331C156.345 338.642 156.344 341.966 156.58 345.278C156.667 346.935 156.804 348.593 156.874 350.251C156.945 351.909 156.976 353.567 157.017 355.225C157.131 358.54 157.114 361.856 157.005 365.171L157.002 365.245C156.996 365.442 156.919 365.63 156.786 365.774C156.653 365.919 156.472 366.011 156.277 366.034C155.298 366.156 154.312 366.213 153.326 366.206C152.342 366.207 151.358 366.128 150.387 365.969C149.396 365.82 148.434 365.522 147.532 365.085C147.07 364.875 146.655 364.574 146.312 364.2C145.97 363.826 145.706 363.386 145.538 362.907C145.535 362.895 145.534 362.883 145.536 362.871C145.537 362.859 145.541 362.848 145.547 362.838C145.553 362.827 145.561 362.818 145.571 362.811C145.58 362.804 145.591 362.798 145.603 362.795C145.622 362.79 145.643 362.792 145.661 362.799C145.68 362.807 145.695 362.821 145.706 362.838C146.189 363.607 146.952 364.16 147.833 364.382C148.701 364.642 149.6 364.781 150.506 364.795C151.426 364.806 152.345 364.771 153.261 364.69C154.173 364.598 155.112 364.481 155.982 364.309L155.254 365.172C155.145 361.856 155.128 358.54 155.242 355.225C155.282 353.567 155.314 351.909 155.385 350.251C155.455 348.593 155.592 346.935 155.679 345.278C155.915 341.966 155.914 338.642 155.673 335.331C155.566 333.673 155.428 332.015 155.359 330.357C155.286 328.7 155.325 327.042 155.356 325.384L156.129 326.157C152.852 326.1 149.58 325.872 146.327 325.474C146.305 325.471 146.284 325.461 146.27 325.444C146.255 325.427 146.247 325.406 146.247 325.384C146.247 325.362 146.255 325.34 146.27 325.324C146.284 325.307 146.305 325.296 146.327 325.293L146.327 325.293Z" fill="#FDB914"/>
    <path d="M146.191 332.529C147.882 332.449 149.576 332.558 151.243 332.856C152.916 333.111 154.555 333.555 156.128 334.179C154.438 334.262 152.743 334.152 151.077 333.852C149.404 333.595 147.765 333.151 146.191 332.529V332.529Z" fill="#FDB914"/>
    <path d="M149.522 375.29C148.332 376.594 147.206 377.952 146.135 379.342C145.127 380.809 144.021 382.207 142.826 383.526C142.194 384.169 141.523 384.762 140.834 385.338C140.117 385.912 139.376 386.407 138.641 386.905L134.238 389.831C128.409 393.714 122.921 398.085 117.833 402.897C115.295 405.299 112.883 407.832 110.56 410.443C108.26 413.091 106.099 415.789 103.927 418.607C101.729 421.401 99.377 424.071 96.8831 426.605C94.408 429.172 91.6074 431.322 88.9736 433.688C90.0265 432.262 91.217 430.935 92.3716 429.602C93.5173 428.255 94.7291 426.977 95.8953 425.675C98.2463 423.077 100.434 420.34 102.533 417.54C106.62 411.718 111.29 406.329 116.471 401.455C119.058 399.009 121.785 396.716 124.638 394.586C127.474 392.446 130.42 390.455 133.464 388.622C134.973 387.695 136.518 386.825 138.032 385.936C138.789 385.492 139.535 385.038 140.236 384.563C140.939 384.056 141.628 383.522 142.274 382.95C143.533 381.734 144.708 380.436 145.794 379.064C146.964 377.736 148.208 376.476 149.522 375.29V375.29Z" fill="black"/>
    <path d="M98.5381 454.492C100.256 452.775 102.024 451.109 103.812 449.466C105.602 447.826 107.384 446.171 109.228 444.589C112.909 441.417 116.644 438.303 120.488 435.311C124.342 432.309 128.362 429.526 132.529 426.975C134.64 425.685 136.839 424.543 139.109 423.559C139.678 423.305 140.288 423.114 140.881 422.898C141.457 422.691 141.996 422.521 142.55 422.306C143.647 421.878 144.737 421.412 145.805 420.885C154.346 416.458 162.184 410.793 169.066 404.072C172.545 400.742 175.695 397.085 178.473 393.15C181.358 389.263 183.345 384.784 184.291 380.038C183.888 384.911 181.748 389.488 179.209 393.632C176.57 397.754 173.507 401.589 170.07 405.074C166.676 408.598 163.011 411.852 159.11 414.806C155.223 417.814 151.058 420.444 146.67 422.659C145.565 423.212 144.426 423.708 143.267 424.168C142.692 424.395 142.074 424.595 141.51 424.802C140.966 425.007 140.416 425.181 139.878 425.425C137.69 426.356 135.569 427.439 133.531 428.665C129.411 431.116 125.411 433.831 121.507 436.678C117.569 439.48 113.716 442.416 109.913 445.417C106.086 448.391 102.309 451.433 98.5381 454.492Z" fill="black"/>
    <path d="M152.47 394.861C151.474 396.511 150.432 398.051 149.598 399.679C149.166 400.468 148.832 401.307 148.601 402.177C148.354 403.056 148.363 403.988 148.628 404.863C148.305 404.476 148.066 404.027 147.927 403.543C147.789 403.059 147.753 402.551 147.823 402.053C147.927 401.059 148.225 400.096 148.701 399.218C149.598 397.491 150.89 395.998 152.47 394.861V394.861Z" fill="black"/>
    <path d="M99.4705 455.502C98.5294 454.751 97.3469 454.368 96.1437 454.424C93.6036 454.491 88.0402 453.907 86.0621 447.964C85.6386 446.538 85.5089 445.042 85.6808 443.564C85.8527 442.087 86.3228 440.66 87.0624 439.37C88.5123 436.707 90.0521 432.741 87.9728 430.427C84.6235 426.742 77.7226 433.708 77.7226 433.708C77.7226 433.708 73.0134 437.022 69.0797 436.685C67.4704 436.529 65.847 436.752 64.34 437.338C62.833 437.923 61.4845 438.854 60.403 440.055C57.5145 443.279 55.986 448.346 62.6171 455.232C62.6171 455.232 67.6298 459.738 70.3272 476.488C73.0246 493.238 79.7682 513.876 91.4906 507.775C91.9438 507.436 92.3153 507 92.5779 506.498C92.8404 505.997 92.9874 505.443 93.008 504.877C92.9175 504.341 92.6943 503.836 92.3586 503.408C92.0229 502.981 91.5854 502.644 91.0861 502.428C90.5994 502.194 90.0734 502.053 89.535 502.012C88.976 501.98 88.4151 502.003 87.8604 502.08C86.6334 502.129 85.4093 501.927 84.2639 501.484C82.0148 500.499 80.1151 498.858 78.8129 496.777C77.5333 494.764 76.5421 492.582 75.8682 490.295L75.8457 490.25V490.216C74.9578 486.048 74.0137 481.88 72.9347 477.769C72.3952 475.713 71.822 473.657 71.1702 471.646C70.6031 469.653 69.7715 467.745 68.6976 465.972C67.566 464.086 66.6606 462.072 66.0002 459.973C65.3034 457.929 64.7189 455.85 64.2244 453.75C63.7353 451.646 63.3973 449.509 63.2129 447.357C62.925 445.211 63.117 443.028 63.7748 440.965C63.3478 443.055 63.3478 445.211 63.7748 447.301C64.1339 449.394 64.599 451.468 65.1685 453.514C65.753 455.558 66.416 457.569 67.1915 459.535C67.9225 461.49 68.8449 463.368 69.9452 465.141C70.2037 465.523 70.5521 466.096 70.833 466.568C71.0803 467.073 71.3388 467.568 71.5524 468.073C71.9907 469.084 72.3616 470.107 72.71 471.14C73.3956 473.196 73.9913 475.263 74.5532 477.342C75.6209 481.51 76.5762 485.678 77.363 489.913C77.965 492.061 78.8334 494.125 79.948 496.058C81.0289 497.993 82.6706 499.556 84.6572 500.541C85.6583 500.987 86.7416 501.221 87.8379 501.226C88.4377 501.184 89.0403 501.203 89.6363 501.282C90.2515 501.38 90.8427 501.593 91.3783 501.911C91.9277 502.199 92.3957 502.621 92.7394 503.137C93.0831 503.654 93.2914 504.248 93.3452 504.866C93.282 505.461 93.0816 506.034 92.7598 506.538C92.4381 507.043 92.0037 507.467 91.4907 507.775C91.4907 507.775 95.9864 507.686 95.9751 496.642C95.9639 490.126 96.11 480.262 96.2224 473.286C95.1996 472.848 94.2668 472.342 93.3452 471.848L90.6252 470.376C89.7533 469.911 88.8523 469.502 87.9278 469.152C87.0005 468.76 85.9706 468.681 84.9944 468.927C85.3887 468.489 85.89 468.16 86.4495 467.973C87.0089 467.786 87.6073 467.747 88.1863 467.86C89.317 467.991 90.412 468.338 91.4119 468.882C92.384 469.399 93.2866 470.037 94.0981 470.781C94.9377 471.495 95.6552 472.341 96.2224 473.286C96.3123 468.444 96.3797 464.984 96.3797 464.984C95.5255 464.231 94.8174 463.478 94.0307 462.816C93.2794 462.152 92.475 461.551 91.6255 461.018C89.8756 459.932 87.9688 459.121 85.9721 458.614C87.0516 458.241 88.2101 458.155 89.3327 458.367C90.469 458.553 91.5552 458.97 92.5246 459.591C93.4994 460.198 94.3437 460.992 95.0085 461.928C95.6764 462.838 96.1438 463.88 96.3797 464.984C96.3797 464.984 103.831 459.154 99.4705 455.502ZM76.9471 458.547C74.9578 459.007 71.2376 456.098 72.3615 452.087C73.6653 447.425 72.9797 444.436 74.969 443.976C76.9583 443.515 79.0152 446.414 79.5546 450.435C80.1053 454.457 78.9365 458.086 76.9471 458.547V458.547ZM88.0627 476.331C89.2286 476.395 90.3671 476.709 91.4007 477.252C92.4172 477.77 93.3433 478.449 94.1431 479.263C94.9581 480.037 95.6179 480.96 96.0875 481.981C94.1543 480.847 92.4572 479.667 90.6364 478.757C89.7452 478.301 88.8165 477.921 87.8604 477.623C86.8449 477.372 85.8043 477.236 84.7584 477.218C85.7355 476.574 86.8944 476.263 88.0627 476.331V476.331Z" fill="black"/>
    <path d="M200.916 377.69C199.927 379.153 199.01 380.66 198.152 382.19C197.368 383.788 196.477 385.331 195.486 386.81C194.953 387.538 194.376 388.222 193.777 388.891C193.151 389.563 192.49 390.16 191.835 390.759L187.903 394.293C182.698 398.979 177.902 404.099 173.566 409.598C171.403 412.343 169.384 415.198 167.465 418.118C165.572 421.072 163.826 424.055 162.086 427.157C160.316 430.24 158.376 433.223 156.276 436.091C154.199 438.989 151.74 441.523 149.478 444.245C150.313 442.682 151.298 441.197 152.247 439.711C153.185 438.211 154.199 436.772 155.164 435.314C157.113 432.403 158.881 429.378 160.551 426.303C163.751 419.951 167.59 413.942 172.009 408.368C174.214 405.574 176.58 402.909 179.093 400.389C181.589 397.86 184.215 395.464 186.961 393.209C188.32 392.073 189.722 390.988 191.092 389.889C191.776 389.34 192.448 388.783 193.073 388.211C193.695 387.607 194.3 386.979 194.856 386.319C195.925 384.934 196.9 383.479 197.775 381.965C198.739 380.481 199.788 379.054 200.916 377.69V377.69Z" fill="black"/>
    <path d="M161.958 463.444C168.203 455.219 174.95 447.388 182.163 439.997C185.775 436.261 189.646 432.785 193.748 429.595C194.795 428.809 195.866 428.048 196.987 427.341C198.08 426.629 199.374 426.009 200.416 425.448C202.604 424.199 204.682 422.767 206.628 421.167C210.576 417.942 214.247 414.392 217.603 410.555C220.988 406.729 224.055 402.635 226.775 398.312C229.511 394 231.656 389.34 233.153 384.458C234.746 379.563 234.876 374.31 233.525 369.342C235.406 374.19 235.177 379.647 233.968 384.673C232.662 389.718 230.637 394.548 227.954 399.016C222.678 408.011 215.879 416.021 207.86 422.69C205.833 424.373 203.666 425.881 201.383 427.197C200.157 427.855 199.133 428.368 198.055 429.047C196.992 429.706 195.957 430.43 194.939 431.183C190.895 434.307 187.038 437.664 183.388 441.24C179.683 444.788 176.059 448.429 172.514 452.163C168.959 455.883 165.441 459.643 161.958 463.444Z" fill="black"/>
    <path d="M206.671 396.628C205.925 398.404 205.117 400.079 204.528 401.811C204.216 402.654 204.006 403.533 203.904 404.426C203.787 405.333 203.931 406.253 204.32 407.08C203.944 406.745 203.643 406.335 203.436 405.876C203.228 405.417 203.119 404.92 203.116 404.417C203.075 403.419 203.23 402.422 203.574 401.484C204.211 399.645 205.272 397.982 206.671 396.628V396.628Z" fill="black"/>
    <path d="M165.535 505.518C164.94 501.484 164.209 496.137 163.524 491.003C161.444 490.149 159.59 489.228 157.668 488.599C156.72 488.277 155.746 488.037 154.757 487.88C153.714 487.772 152.661 487.787 151.621 487.925C152.497 487.152 153.594 486.676 154.757 486.565C155.92 486.474 157.09 486.619 158.196 486.992C159.277 487.356 160.291 487.895 161.197 488.587C162.117 489.239 162.907 490.059 163.524 491.003C163.119 487.947 162.725 484.959 162.4 482.375C161.363 482.094 160.342 481.756 159.342 481.364L156.443 480.308C155.509 479.975 154.556 479.701 153.588 479.488C152.611 479.231 151.576 479.302 150.643 479.69C150.976 479.203 151.427 478.808 151.953 478.543C152.48 478.277 153.066 478.15 153.655 478.173C154.793 478.143 155.926 478.33 156.994 478.724C158.034 479.09 159.024 479.589 159.938 480.206C160.865 480.799 161.695 481.53 162.4 482.375C161.77 477.578 161.343 474.14 161.343 474.14C160.399 473.522 159.579 472.871 158.702 472.331C157.862 471.787 156.983 471.306 156.072 470.893C154.179 470.08 152.175 469.557 150.126 469.343C151.135 468.81 152.269 468.558 153.408 468.613C154.559 468.638 155.694 468.89 156.747 469.354C157.8 469.819 158.751 470.487 159.545 471.32C160.337 472.122 160.95 473.083 161.343 474.14C161.343 474.14 167.873 467.287 163.029 464.31C161.989 463.699 160.761 463.492 159.578 463.726C157.072 464.153 151.498 464.389 148.665 458.794C148.041 457.444 147.697 455.981 147.654 454.494C147.612 453.007 147.872 451.527 148.418 450.144C149.463 447.301 150.407 443.145 148.013 441.167C144.17 437.999 138.348 445.897 138.348 445.897C138.348 445.897 134.167 449.863 130.222 450.099C128.608 450.177 127.036 450.633 125.63 451.429C124.225 452.225 123.026 453.339 122.129 454.682C119.747 458.299 118.971 463.524 126.524 469.388C126.524 469.388 132.132 473.118 137.235 489.295C142.338 505.484 152.003 524.919 162.714 517.179C163.114 516.78 163.419 516.296 163.606 515.763C163.792 515.23 163.857 514.662 163.793 514.101C163.628 513.584 163.336 513.116 162.943 512.741C162.55 512.366 162.07 512.096 161.545 511.955C161.03 511.791 160.489 511.726 159.949 511.764C159.39 511.815 158.836 511.92 158.297 512.078C157.088 512.303 155.845 512.28 154.644 512.011C152.28 511.36 150.165 510.014 148.575 508.146C147.016 506.337 145.718 504.318 144.72 502.147L144.698 502.113L144.687 502.08C143.203 498.092 141.663 494.103 140 490.183C139.168 488.228 138.303 486.284 137.37 484.386C136.514 482.498 135.415 480.73 134.099 479.128C132.706 477.427 131.517 475.568 130.559 473.59C129.576 471.665 128.691 469.693 127.906 467.68C127.112 465.674 126.466 463.613 125.973 461.513C125.38 459.428 125.253 457.237 125.602 455.098C125.482 457.227 125.792 459.359 126.513 461.366C127.177 463.385 127.942 465.368 128.806 467.309C129.671 469.242 130.626 471.141 131.683 472.983C132.687 474.806 133.869 476.526 135.212 478.117C135.527 478.465 135.954 478.982 136.302 479.409C136.606 479.87 136.943 480.33 137.235 480.802C137.808 481.735 138.325 482.69 138.82 483.656C139.797 485.588 140.685 487.554 141.54 489.531C143.203 493.497 144.754 497.496 146.148 501.563C147.053 503.601 148.208 505.518 149.587 507.27C150.944 509.024 152.795 510.331 154.903 511.022C155.96 511.312 157.065 511.385 158.151 511.236C158.738 511.107 159.337 511.039 159.938 511.034C160.558 511.04 161.172 511.162 161.748 511.393C162.334 511.6 162.86 511.951 163.274 512.414C163.689 512.878 163.979 513.439 164.119 514.044C164.147 514.64 164.034 515.234 163.79 515.779C163.546 516.323 163.177 516.803 162.714 517.179C162.714 517.179 167.143 516.437 165.535 505.518ZM141.18 470.59C139.281 471.32 135.178 468.995 135.706 464.86C136.325 460.052 135.212 457.199 137.111 456.457C139.011 455.716 141.472 458.277 142.596 462.176C143.709 466.085 143.079 469.849 141.18 470.59Z" fill="black"/>
    <path d="M73.658 137.68C74.2766 143.009 75.1959 148.299 76.4114 153.525C77.589 158.708 79.2243 163.776 81.2982 168.671C82.3131 171.106 83.5119 173.461 84.8841 175.715C86.2233 177.979 87.7659 180.117 89.4926 182.102C91.2381 184.08 93.1844 185.871 95.2999 187.446C97.485 188.988 99.8214 190.303 102.273 191.372C99.6226 190.722 97.0739 189.713 94.6981 188.371C92.3337 186.955 90.1545 185.252 88.2105 183.299C84.3909 179.316 81.3473 174.657 79.2354 169.56C77.1114 164.527 75.5887 159.261 74.6989 153.872C73.7481 148.531 73.399 143.099 73.658 137.68V137.68Z" fill="#FDB914"/>
    <path d="M67.3828 173.732C69.0895 178.598 71.1156 183.345 73.448 187.944C74.6343 190.215 75.8573 192.46 77.231 194.608C78.5611 196.774 80.0344 198.849 81.6409 200.819C84.7541 204.807 88.5394 208.223 92.8266 210.912C95.0039 212.207 97.3122 213.269 99.713 214.079C102.165 214.859 104.686 215.402 107.242 215.703C104.623 215.862 101.994 215.674 99.4244 215.144C96.8345 214.562 94.329 213.654 91.968 212.441C89.6212 211.185 87.4161 209.681 85.3909 207.955C83.3958 206.207 81.5555 204.29 79.8904 202.226C76.6254 198.09 73.9272 193.537 71.8672 188.688C69.7607 183.907 68.2545 178.883 67.3828 173.732V173.732Z" fill="black"/>
    <path d="M22.9544 398.536C21.3309 403.65 19.9976 408.851 18.961 414.115C17.9072 419.324 17.3179 424.617 17.2 429.931C17.1257 432.568 17.2522 435.208 17.5784 437.826C17.8702 440.44 18.3992 443.022 19.159 445.541C19.9391 448.06 20.9787 450.491 22.2613 452.796C23.621 455.098 25.2119 457.256 27.0091 459.236C24.8585 457.557 22.9486 455.59 21.3328 453.392C19.7578 451.132 18.4698 448.684 17.4986 446.106C15.6503 440.908 14.7873 435.41 14.9538 429.896C15.0828 424.435 15.8558 419.009 17.2567 413.729C18.5823 408.468 20.4935 403.372 22.9544 398.536V398.536Z" fill="black"/>
    <path d="M2.43274 428.84C1.99172 433.977 1.89047 439.138 2.12967 444.288C2.27935 446.846 2.47281 449.395 2.84413 451.917C3.16805 454.437 3.65978 456.934 4.31605 459.389C5.51784 464.304 7.56767 468.971 10.3735 473.181C11.8273 475.256 13.4965 477.17 15.3533 478.894C17.2694 480.611 19.3453 482.141 21.5527 483.463C19.0991 482.534 16.7791 481.284 14.6531 479.747C12.53 478.154 10.618 476.298 8.96285 474.223C7.33806 472.116 5.9446 469.84 4.80647 467.435C3.70449 465.023 2.81302 462.52 2.14201 459.955C0.862233 454.844 0.270512 449.586 0.382519 444.319C0.424383 439.094 1.11303 433.895 2.43274 428.84V428.84Z" fill="#FDB914"/>
    <path d="M288.474 258.738C288.702 264.158 288.321 269.587 287.339 274.923C286.417 280.307 284.864 285.564 282.71 290.584C280.568 295.669 277.498 300.31 273.655 304.27C271.699 306.212 269.51 307.903 267.137 309.304C264.754 310.632 262.199 311.627 259.545 312.26C262.003 311.206 264.347 309.905 266.541 308.376C268.666 306.813 270.623 305.033 272.38 303.066C274.118 301.091 275.673 298.962 277.025 296.706C278.411 294.46 279.623 292.112 280.653 289.683C282.755 284.801 284.42 279.742 285.628 274.566C286.874 269.348 287.825 264.063 288.474 258.738V258.738Z" fill="black"/>
    <path d="M294.536 294.826C293.635 299.972 292.099 304.987 289.965 309.756C287.876 314.593 285.151 319.13 281.862 323.246C280.185 325.301 278.333 327.206 276.328 328.943C274.293 330.657 272.079 332.148 269.725 333.39C267.357 334.589 264.846 335.482 262.252 336.049C259.68 336.564 257.05 336.737 254.432 336.563C256.989 336.277 259.513 335.748 261.97 334.982C264.376 334.186 266.69 333.138 268.875 331.856C273.178 329.192 276.983 325.799 280.12 321.828C281.738 319.868 283.223 317.802 284.566 315.643C285.952 313.504 287.188 311.266 288.388 309.002C290.747 304.417 292.801 299.681 294.536 294.826V294.826Z" fill="black"/>
    <path d="M74.2471 46.3266C74.2572 46.0825 74.2175 45.8389 74.1303 45.6107C74.0431 45.3825 73.9103 45.1744 73.7401 44.9991L66.9174 38.5861C66.3944 38.1467 65.728 38.3616 65.3891 39.0606C65.2234 39.4123 65.1607 39.8038 65.2081 40.1897C65.2556 40.5755 65.4114 40.9401 65.6575 41.2412L71.0587 46.3266L65.6575 51.4123C65.3309 51.7774 65.1504 52.25 65.1504 52.7398C65.1504 53.2295 65.3309 53.7021 65.6575 54.0672L71.0587 59.1529L65.6575 64.2384C65.3309 64.6035 65.1504 65.0761 65.1504 65.5659C65.1504 66.0557 65.3309 66.5283 65.6575 66.8935L72.4801 73.3065C73.0032 73.7939 73.7059 73.5951 74.0516 72.8672C74.2253 72.5086 74.2884 72.1065 74.2329 71.712C74.1775 71.3175 74.0059 70.9484 73.7401 70.6515L68.3388 65.5659L73.7401 60.4804C74.0666 60.1153 74.2471 59.6427 74.2471 59.1529C74.2471 58.6631 74.0666 58.1905 73.7401 57.8254L68.3388 52.7397L73.7401 47.6542C73.9104 47.479 74.0431 47.2709 74.1303 47.0426C74.2175 46.8144 74.2572 46.5707 74.2471 46.3266L74.2471 46.3266Z" fill="black"/>
    <path d="M33.592 324.199C33.5739 324.663 33.718 325.119 33.9997 325.488L38.3412 330.427L33.9997 335.365C33.7926 335.675 33.6636 336.031 33.6238 336.402C33.584 336.773 33.6345 337.147 33.7711 337.495C34.0417 338.186 34.5919 338.394 35.0124 337.943L40.4965 331.716C40.7618 331.338 40.9042 330.888 40.9042 330.427C40.9042 329.965 40.7618 329.515 40.4965 329.138L36.1549 324.199L40.4965 319.261C40.7618 318.884 40.9042 318.433 40.9042 317.972C40.9042 317.511 40.7618 317.061 40.4965 316.683L36.1549 311.745L40.4965 306.807C40.7036 306.496 40.8325 306.141 40.8723 305.77C40.9121 305.399 40.8616 305.024 40.7251 304.677C40.4545 303.986 39.9043 303.777 39.4838 304.228L33.9997 310.456C33.7343 310.833 33.592 311.283 33.592 311.745C33.592 312.206 33.7343 312.656 33.9997 313.034L38.3412 317.972L33.9997 322.91C33.7149 323.278 33.5704 323.735 33.592 324.199V324.199Z" fill="#FDB914"/>
    <path d="M7.74039 137.623C7.7223 138.087 7.86646 138.542 8.14809 138.912L12.4897 143.85L8.14809 148.788C7.941 149.098 7.81204 149.454 7.77224 149.825C7.73244 150.196 7.78297 150.571 7.91952 150.918C8.19009 151.609 8.74032 151.818 9.1608 151.366L14.645 145.139C14.9103 144.761 15.0527 144.311 15.0527 143.85C15.0527 143.389 14.9103 142.938 14.645 142.561L10.3034 137.623L14.645 132.685C14.9103 132.307 15.0527 131.857 15.0527 131.395C15.0527 130.934 14.9103 130.484 14.645 130.106L10.3034 125.168L14.645 120.23C14.8521 119.92 14.981 119.564 15.0208 119.193C15.0606 118.822 15.0101 118.447 14.8735 118.1C14.6029 117.409 14.0527 117.2 13.6322 117.652L8.14809 123.879C7.88276 124.257 7.74039 124.707 7.74039 125.168C7.74039 125.63 7.88276 126.08 8.14809 126.457L12.4897 131.395L8.14809 136.334C7.86335 136.701 7.71882 137.158 7.74039 137.623V137.623Z" fill="#FDB914"/>
    <path d="M319.81 383.244C319.793 383.733 319.967 384.209 320.294 384.572L325.449 389.657L320.294 394.743C320.051 395.048 319.897 395.414 319.85 395.801C319.802 396.188 319.862 396.581 320.023 396.936C320.344 397.648 320.997 397.863 321.497 397.398L328.008 390.985C328.32 390.613 328.492 390.143 328.492 389.657C328.492 389.172 328.32 388.702 328.008 388.33L322.853 383.244L328.008 378.159C328.32 377.787 328.492 377.317 328.492 376.831C328.492 376.346 328.32 375.876 328.008 375.504L322.853 370.418L328.008 365.333C328.251 365.027 328.405 364.661 328.452 364.274C328.5 363.887 328.44 363.494 328.279 363.139C327.958 362.427 327.305 362.213 326.805 362.677L320.294 369.091C319.982 369.462 319.81 369.932 319.81 370.418C319.81 370.904 319.982 371.374 320.294 371.746L325.449 376.831L320.294 381.917C320.13 382.095 320.003 382.305 319.92 382.532C319.837 382.76 319.8 383.002 319.81 383.244V383.244Z" fill="#FDB914"/>
    <path d="M337.709 182.854L333.659 186.51C332.661 187.563 332.104 188.959 332.104 190.41C332.104 191.861 332.661 193.257 333.659 194.311L334.826 195.375C335.156 195.726 335.339 196.189 335.339 196.671C335.339 197.152 335.156 197.616 334.826 197.967L333.659 199.031C332.661 200.085 332.104 201.48 332.104 202.932C332.104 204.383 332.661 205.779 333.659 206.832L334.826 207.896C335.156 208.247 335.339 208.711 335.339 209.192C335.339 209.674 335.156 210.137 334.826 210.488L333.659 211.553C332.661 212.606 332.104 214.002 332.104 215.453C332.104 216.904 332.661 218.3 333.659 219.353L334.826 220.417C335.156 220.768 335.339 221.232 335.339 221.713C335.339 222.195 335.156 222.659 334.826 223.009L330.767 226.678C330.51 226.965 330.345 227.323 330.294 227.704C330.242 228.086 330.306 228.474 330.478 228.819C330.527 228.973 330.614 229.112 330.73 229.224C330.846 229.336 330.988 229.418 331.143 229.463C331.298 229.507 331.462 229.513 331.62 229.48C331.778 229.446 331.925 229.374 332.049 229.27L336.098 225.614C337.097 224.561 337.653 223.165 337.653 221.714C337.653 220.262 337.097 218.867 336.098 217.813L334.932 216.749C334.762 216.58 334.63 216.377 334.543 216.154C334.456 215.931 334.417 215.692 334.428 215.453C334.416 215.213 334.456 214.973 334.545 214.75C334.633 214.526 334.768 214.324 334.941 214.157L336.107 213.093C337.1 212.036 337.653 210.642 337.653 209.192C337.653 207.743 337.1 206.348 336.107 205.292L334.941 204.228C334.611 203.877 334.428 203.413 334.428 202.932C334.428 202.45 334.611 201.987 334.941 201.636L336.107 200.571C337.1 199.515 337.653 198.12 337.653 196.671C337.653 195.222 337.1 193.827 336.107 192.771L334.941 191.706C334.611 191.355 334.428 190.892 334.428 190.41C334.428 189.929 334.611 189.465 334.941 189.114L338.991 185.446C339.259 185.161 339.434 184.802 339.493 184.415C339.551 184.029 339.49 183.633 339.317 183.283C339.267 183.124 339.178 182.981 339.058 182.867C338.938 182.752 338.791 182.669 338.631 182.627C338.47 182.584 338.302 182.582 338.141 182.622C337.979 182.662 337.831 182.741 337.709 182.854V182.854Z" fill="#FDB914"/>
    <path d="M289.984 45.2053L285.706 41.4472C285.359 41.0924 285.164 40.616 285.164 40.1197C285.164 39.6235 285.359 39.147 285.706 38.7923L286.935 37.702C287.985 36.6371 288.574 35.2019 288.574 33.7066C288.574 32.2113 287.985 30.7761 286.935 29.7113L285.706 28.6211C285.359 28.2664 285.164 27.7899 285.164 27.2936C285.164 26.7974 285.359 26.3209 285.706 25.9661L286.935 24.8758C287.985 23.811 288.574 22.3758 288.574 20.8805C288.574 19.3852 287.985 17.95 286.935 16.8852L285.706 15.795C285.359 15.4402 285.164 14.9637 285.164 14.4674C285.164 13.9712 285.359 13.4947 285.706 13.1399L286.935 12.0498C287.985 10.9849 288.574 9.54969 288.574 8.0544C288.574 6.55911 287.985 5.12389 286.935 4.05905L282.667 0.313806C282.536 0.207053 282.382 0.13324 282.217 0.0986015C282.052 0.0639626 281.881 0.069511 281.719 0.114784C281.556 0.160056 281.407 0.243724 281.284 0.358718C281.161 0.473711 281.067 0.616655 281.011 0.775484C280.83 1.12817 280.763 1.52779 280.817 1.92014C280.872 2.31249 281.046 2.67857 281.315 2.96873L285.594 6.72689C285.941 7.08164 286.135 7.55816 286.135 8.0544C286.135 8.55064 285.941 9.02715 285.594 9.38191L284.364 10.472C283.314 11.5368 282.725 12.9721 282.725 14.4674C282.725 15.9628 283.314 17.398 284.364 18.4628L285.594 19.553C285.941 19.9078 286.135 20.3843 286.135 20.8805C286.135 21.3767 285.941 21.8532 285.594 22.208L284.364 23.2983C283.314 24.3631 282.725 25.7983 282.725 27.2936C282.725 28.789 283.314 30.2242 284.364 31.289L285.594 32.3791C285.941 32.7339 286.135 33.2104 286.135 33.7067C286.135 34.2029 285.941 34.6795 285.594 35.0342L284.364 36.1244C283.314 37.1892 282.725 38.6244 282.725 40.1197C282.725 41.6151 283.314 43.0503 284.364 44.1151L288.633 47.8604C288.762 47.9732 288.917 48.0526 289.084 48.0919C289.251 48.1312 289.425 48.1291 289.592 48.0858C289.758 48.0425 289.911 47.9593 290.037 47.8435C290.164 47.7277 290.26 47.5827 290.318 47.4211C290.504 47.0639 290.571 46.657 290.511 46.2589C290.451 45.8608 290.267 45.4919 289.984 45.2053H289.984Z" fill="black"/>
    <path d="M209.828 22.4084C209.915 23.6931 209.613 24.9743 208.961 26.0852C208.31 27.1961 207.339 28.0855 206.176 28.6378C205.012 29.19 203.709 29.3795 202.436 29.1817C201.163 28.9839 199.979 28.4079 199.038 27.5286C198.097 26.6492 197.442 25.5073 197.159 24.2511C196.876 22.9949 196.977 21.6827 197.45 20.4849C197.923 19.2871 198.745 18.2592 199.81 17.5348C200.875 16.8104 202.134 16.4231 203.422 16.423C205.065 16.371 206.661 16.9716 207.862 18.0934C209.062 19.2152 209.769 20.7667 209.828 22.4084V22.4084Z" fill="#FDB914"/>
    <path d="M284.337 426.422C284.424 427.711 284.122 428.996 283.468 430.111C282.815 431.225 281.841 432.117 280.674 432.671C279.506 433.225 278.199 433.415 276.922 433.217C275.645 433.019 274.457 432.441 273.513 431.559C272.569 430.676 271.912 429.531 271.628 428.271C271.344 427.01 271.446 425.694 271.92 424.492C272.395 423.291 273.22 422.26 274.288 421.533C275.357 420.806 276.619 420.418 277.911 420.418C279.559 420.365 281.161 420.968 282.365 422.093C283.569 423.219 284.279 424.775 284.337 426.422V426.422Z" fill="black"/>
    <path d="M357.272 121.698C357.342 122.731 357.099 123.76 356.575 124.653C356.052 125.546 355.272 126.26 354.337 126.704C353.402 127.148 352.355 127.3 351.332 127.141C350.309 126.982 349.357 126.519 348.601 125.813C347.845 125.106 347.319 124.188 347.091 123.179C346.863 122.17 346.945 121.115 347.325 120.152C347.705 119.19 348.366 118.364 349.222 117.782C350.078 117.2 351.089 116.888 352.124 116.888C353.444 116.846 354.728 117.328 355.692 118.23C356.657 119.131 357.225 120.379 357.272 121.698V121.698Z" fill="#FDB914"/>
    <path d="M123.86 336.206C123.929 337.238 123.687 338.268 123.163 339.161C122.64 340.053 121.86 340.768 120.925 341.212C119.99 341.656 118.942 341.808 117.919 341.649C116.897 341.49 115.945 341.027 115.189 340.321C114.433 339.614 113.906 338.696 113.679 337.687C113.451 336.677 113.533 335.623 113.913 334.66C114.293 333.698 114.954 332.872 115.81 332.29C116.666 331.707 117.677 331.396 118.712 331.396C120.032 331.354 121.315 331.836 122.28 332.738C123.245 333.639 123.813 334.886 123.86 336.206V336.206Z" fill="black"/>
    <path d="M179.376 117.039C183.715 117.039 183.723 110.298 179.376 110.298C175.037 110.298 175.03 117.039 179.376 117.039Z" fill="#FDB914"/>
    <path d="M57.9368 232.881C62.2759 232.881 62.2831 226.141 57.9368 226.141C53.5976 226.141 53.5904 232.881 57.9368 232.881Z" fill="black"/>
    <path d="M319.811 319.064C324.15 319.064 324.157 312.324 319.811 312.324C315.472 312.324 315.464 319.064 319.811 319.064Z" fill="black"/>
    <path d="M266.62 209.437C270.96 209.437 270.967 202.696 266.62 202.696C262.281 202.696 262.274 209.437 266.62 209.437Z" fill="black"/>
</svg>
