<svg width="520" height="429" viewBox="0 0 520 429" fill="none" xmlns="http://www.w3.org/2000/svg">
    <path d="M218.463 107.998C218.656 108.349 218.85 108.713 219.068 109.065C219.165 109.246 219.286 109.428 219.371 109.598C219.432 109.755 219.492 109.937 219.541 110.107C219.759 110.822 219.952 111.598 220.134 112.35L221.248 116.921C221.599 118.448 221.939 119.976 222.253 121.503C222.447 122.522 222.641 123.528 222.762 124.595L185.315 88.1271C188.664 80.9378 190.866 73.2675 191.843 65.3955C197.656 68.1596 205.092 71.5906 215.132 75.7611C231.809 82.6837 236.29 118.521 236.29 118.521C236.29 118.521 228.6 120.218 224.264 118.957C224.193 118.077 224.068 117.203 223.888 116.339C223.56 114.694 223.048 113.092 222.362 111.562C222.015 110.778 221.598 110.027 221.115 109.319C220.994 109.137 220.849 108.955 220.691 108.761L220.364 108.264C220.134 107.937 219.928 107.598 219.722 107.258C218.027 104.53 216.416 101.706 214.829 98.8929L210.046 90.4185C211.354 93.3887 212.698 96.3429 214.079 99.2808C215.483 102.203 216.888 105.124 218.463 107.998ZM233.88 118.181C234.351 118.165 234.796 117.966 235.123 117.626C235.45 117.287 235.633 116.834 235.633 116.363C235.633 115.891 235.45 115.438 235.123 115.099C234.796 114.76 234.351 114.561 233.88 114.544C233.409 114.561 232.964 114.76 232.637 115.099C232.31 115.438 232.127 115.891 232.127 116.363C232.127 116.834 232.31 117.287 232.637 117.626C232.964 117.966 233.409 118.165 233.88 118.181ZM227.921 118.181C228.392 118.165 228.838 117.966 229.165 117.626C229.492 117.287 229.674 116.834 229.674 116.363C229.674 115.891 229.492 115.438 229.165 115.099C228.838 114.76 228.392 114.561 227.921 114.544C227.451 114.561 227.005 114.76 226.678 115.099C226.351 115.438 226.168 115.891 226.168 116.363C226.168 116.834 226.351 117.287 226.678 117.626C227.005 117.966 227.451 118.165 227.921 118.181Z" fill="#2B2B2B"/>
    <path d="M222.863 126.253C220.846 127.134 218.704 127.696 216.514 127.917C215.464 128.007 214.407 127.967 213.367 127.799C212.29 127.667 211.241 127.331 210.051 127.067C210.838 128.002 211.848 128.723 212.987 129.166C214.146 129.645 215.404 129.839 216.653 129.729C217.895 129.635 219.101 129.273 220.189 128.669C221.267 128.099 222.187 127.269 222.863 126.253Z" fill="#2B2B2B"/>
    <path d="M329.92 184.219C330.113 182.557 330.21 180.885 330.211 179.212L329.92 184.219Z" fill="#2B2B2B"/>
    <path d="M329.835 185.698L329.92 184.219C329.614 187.534 328.625 190.75 327.013 193.663C330.077 189.165 329.835 185.698 329.835 185.698Z" fill="#2B2B2B"/>
    <path d="M326.904 193.832C326.517 194.402 326.069 194.984 325.572 195.578C326.073 195.042 326.519 194.457 326.904 193.832Z" fill="#2B2B2B"/>
    <path d="M71.5083 216.031L519.614 212.988V205.653C482.325 206.247 445.035 206.696 407.745 206.999C370.456 207.411 333.166 207.545 295.876 207.763C258.587 208.029 221.285 208.042 183.995 208.114L128.054 208.175L72.5498 208.054L71.5083 216.031Z" fill="#2B2B2B"/>
    <path d="M0.125305 164.117V171.646L71.508 216.03L71.6406 207.896L53.789 197.033L35.8898 186.085L0.125305 164.117Z" fill="#2B2B2B"/>
    <path d="M239.401 184.444L236.979 184.488" stroke="#FDB914" stroke-width="1.93554" stroke-miterlimit="10"/>
    <path d="M231.997 184.578L174.7 185.612" stroke="#FDB914" stroke-width="1.93554" stroke-miterlimit="10" stroke-dasharray="3.98 3.98"/>
    <path d="M172.209 185.657L169.788 185.701" stroke="#FDB914" stroke-width="1.93554" stroke-miterlimit="10"/>
    <path d="M236.752 180.106L234.33 180.15" stroke="#FDB914" stroke-width="1.93554" stroke-miterlimit="10"/>
    <path d="M229.348 180.24L172.051 181.274" stroke="#FDB914" stroke-width="1.93554" stroke-miterlimit="10" stroke-dasharray="3.98 3.98"/>
    <path d="M169.56 181.319L167.138 181.363" stroke="#FDB914" stroke-width="1.93554" stroke-miterlimit="10"/>
    <path d="M233.554 175.822L231.132 175.866" stroke="#FDB914" stroke-width="1.93554" stroke-miterlimit="10"/>
    <path d="M226.15 175.956L168.854 176.99" stroke="#FDB914" stroke-width="1.93554" stroke-miterlimit="10" stroke-dasharray="3.98 3.98"/>
    <path d="M166.361 177.035L163.94 177.079" stroke="#FDB914" stroke-width="1.93554" stroke-miterlimit="10"/>
    <path d="M439.874 171.082C439.251 188.668 438.839 206.254 438.314 223.84L437.144 276.597C436.93 285.39 436.684 294.183 436.404 302.976C436.155 311.769 436.142 320.562 436.365 329.354L436.823 342.544C437.054 346.94 437.209 351.337 437.521 355.733C438.063 364.526 438.756 373.319 439.874 382.112C439.886 382.207 439.932 382.294 440.004 382.357C440.075 382.421 440.168 382.456 440.263 382.456C440.359 382.456 440.451 382.421 440.523 382.357C440.595 382.294 440.641 382.207 440.653 382.112C441.771 373.319 442.463 364.526 443.005 355.733C443.318 351.337 443.473 346.94 443.704 342.544L444.162 329.354C444.388 320.562 444.375 311.769 444.123 302.976C443.834 294.183 443.587 285.39 443.382 276.597L442.213 223.84C441.688 206.254 441.276 188.668 440.653 171.082C440.65 170.981 440.607 170.886 440.534 170.815C440.461 170.745 440.364 170.706 440.263 170.706C440.162 170.706 440.065 170.745 439.993 170.815C439.92 170.886 439.877 170.981 439.874 171.082H439.874Z" fill="#2B2B2B"/>
    <path d="M509.632 215.895C509.01 233.481 508.598 251.067 508.073 268.653L506.903 321.41C506.689 330.203 506.442 338.996 506.162 347.789C505.914 356.582 505.901 365.374 506.123 374.167L506.581 387.357C506.813 391.753 506.968 396.15 507.28 400.546C507.822 409.339 508.515 418.132 509.632 426.925C509.644 427.02 509.69 427.107 509.762 427.171C509.834 427.234 509.926 427.269 510.022 427.269C510.118 427.269 510.21 427.234 510.282 427.171C510.354 427.107 510.4 427.02 510.412 426.925C511.529 418.132 512.222 409.339 512.764 400.546C513.076 396.15 513.231 391.753 513.463 387.357L513.921 374.167C514.147 365.374 514.134 356.582 513.882 347.789C513.593 338.996 513.346 330.203 513.141 321.41L511.971 268.653C511.447 251.067 511.035 233.481 510.412 215.895C510.408 215.794 510.366 215.698 510.293 215.628C510.22 215.558 510.123 215.519 510.022 215.519C509.921 215.519 509.824 215.558 509.751 215.628C509.679 215.698 509.636 215.794 509.632 215.895H509.632Z" fill="#2B2B2B"/>
    <path d="M9.20644 171.082C8.58378 188.668 8.17194 206.254 7.64704 223.84L6.47748 276.597C6.26331 285.39 6.01631 294.183 5.73658 302.976C5.4882 311.769 5.47516 320.562 5.69748 329.354L6.15554 342.544C6.38713 346.94 6.54203 351.337 6.85427 355.733C7.39627 364.526 8.08921 373.319 9.20652 382.112C9.21856 382.207 9.26475 382.294 9.33652 382.357C9.40828 382.421 9.50064 382.456 9.59629 382.456C9.69194 382.456 9.7843 382.421 9.85606 382.357C9.92783 382.294 9.9741 382.207 9.98614 382.112C11.1038 373.319 11.7964 364.526 12.3387 355.733C12.6509 351.337 12.8055 346.94 13.0371 342.544L13.4952 329.354C13.721 320.562 13.7079 311.769 13.4561 302.976C13.167 294.183 12.9202 285.39 12.7155 276.597L11.5459 223.84C11.0207 206.254 10.6092 188.668 9.98622 171.082C9.98251 170.981 9.93976 170.886 9.86706 170.815C9.79436 170.745 9.69734 170.706 9.59637 170.706C9.49539 170.706 9.39837 170.745 9.32567 170.815C9.25297 170.886 9.21022 170.981 9.20652 171.082H9.20644Z" fill="#2B2B2B"/>
    <path d="M78.9662 215.895C78.3435 233.481 77.9317 251.067 77.4068 268.653L76.2373 321.41C76.0231 330.203 75.7761 338.996 75.4964 347.789C75.248 356.582 75.2349 365.375 75.4573 374.168L75.9153 387.357C76.1469 391.753 76.3018 396.15 76.614 400.546C77.1561 409.339 77.849 418.132 78.9663 426.925C78.9783 427.02 79.0246 427.107 79.0964 427.171C79.1681 427.234 79.2605 427.269 79.3561 427.269C79.4518 427.269 79.5441 427.234 79.6159 427.171C79.6877 427.107 79.7339 427.02 79.7459 426.925C80.8635 418.132 81.5561 409.339 82.0985 400.546C82.4107 396.15 82.5652 391.753 82.7969 387.357L83.2549 374.168C83.4807 365.375 83.4677 356.582 83.2158 347.789C82.9268 338.996 82.68 330.203 82.4752 321.41L81.3057 268.653C80.7805 251.067 80.369 233.481 79.746 215.895C79.7422 215.794 79.6994 215.699 79.6268 215.629C79.5541 215.559 79.4571 215.52 79.3561 215.52C79.2552 215.52 79.1582 215.559 79.0855 215.629C79.0128 215.699 78.9702 215.794 78.9664 215.895H78.9662Z" fill="#2B2B2B"/>
    <path d="M176.907 55.948C178.95 55.8823 180.899 55.0754 182.392 53.6778C183.91 52.3714 185.251 50.8711 186.379 49.2153C187.517 47.5943 188.539 45.8951 189.438 44.1303C190.354 42.3724 191.166 40.563 191.873 38.7111L189.94 39.225C190.271 39.5085 190.658 39.7198 191.075 39.8453C191.493 39.9709 191.932 40.0081 192.365 39.9544C193.089 39.8426 193.775 39.5524 194.36 39.1097C195.377 38.3555 196.18 37.349 196.689 36.1895C197.222 35.0667 197.465 33.8281 197.397 32.587C197.326 31.3334 196.892 30.1276 196.149 29.116C195.429 28.1682 194.506 27.3936 193.449 26.849C192.899 26.554 192.3 26.3651 191.681 26.2922C191.005 26.2149 190.324 26.3796 189.758 26.7569C188.85 27.5306 188.223 28.5835 187.974 29.7513C187.691 30.8103 187.518 31.8957 187.458 32.9903L187.79 32.5939C186.412 32.8791 184.977 32.6803 183.728 32.0309C182.452 31.3716 181.301 30.4936 180.328 29.4369C178.378 27.2643 176.717 24.8479 175.388 22.2481C174.009 19.6639 172.762 17.004 171.604 14.3039C170.445 11.613 169.375 8.83999 168.471 6.09159C168.378 5.81167 168.2 5.56789 167.962 5.39476C167.724 5.22164 167.437 5.12795 167.143 5.12696C166.848 5.12597 166.561 5.21773 166.322 5.38925C166.082 5.56077 165.903 5.80335 165.809 6.08264L165.79 6.14059C164.518 9.98906 163.114 13.8539 161.574 17.6012C160.769 19.4603 159.929 21.296 158.984 23.0472C158.15 24.7289 156.986 26.2249 155.562 27.4457L155.432 27.5397C155.32 27.6206 155.228 27.7244 155.159 27.844C155.091 27.9637 155.05 28.0965 155.037 28.2336C154.802 30.8522 154.739 33.4473 154.758 36.0616C154.772 37.3713 154.857 38.6793 155.013 39.9798C155.121 41.3009 155.447 42.595 155.978 43.8092C155.993 43.8398 156.019 43.8638 156.051 43.8764C156.083 43.889 156.118 43.8893 156.15 43.8773C156.182 43.8652 156.208 43.8417 156.224 43.8113C156.239 43.7809 156.243 43.7458 156.234 43.7128L156.231 43.7018C155.944 42.4676 155.83 41.1993 155.894 39.9336C155.927 38.6593 156.036 37.3867 156.141 36.1138C156.371 33.5721 156.757 31.0215 157.172 28.5211L156.648 29.3085C158.523 28.0316 160.078 26.338 161.192 24.3599C162.302 22.5523 163.296 20.6754 164.166 18.7407C165.895 14.9206 167.339 10.9777 168.486 6.9443L165.805 6.99329C166.865 9.86154 168.042 12.6049 169.333 15.3355C170.616 18.0701 172.095 20.7082 173.759 23.2289C175.405 25.7876 177.35 28.1398 179.555 30.2352C180.685 31.2867 181.968 32.16 183.361 32.825C184.795 33.5143 186.412 33.7243 187.974 33.4238C188.062 33.4057 188.142 33.3594 188.202 33.2919C188.261 33.2245 188.298 33.1395 188.305 33.0498L188.307 33.0272C188.372 32.0083 188.566 31.0018 188.884 30.0317C189.115 29.1224 189.649 28.3192 190.397 27.7549C191.754 27.0629 193.751 28.7082 194.628 30.1352C195.048 30.9073 195.262 31.7747 195.25 32.6536C195.238 33.5326 195 34.3937 194.559 35.1538C194.171 35.9199 193.616 36.5886 192.935 37.1101C192.674 37.3093 192.371 37.4442 192.048 37.5039C191.956 37.5221 191.862 37.5205 191.77 37.499C191.679 37.4775 191.594 37.4368 191.52 37.3795L191.413 37.3051C191.151 37.122 190.827 37.0507 190.512 37.1068C190.197 37.163 189.917 37.3421 189.734 37.6047C189.673 37.6941 189.623 37.7912 189.586 37.8935C188.968 39.6472 188.202 41.4214 187.434 43.1529C186.643 44.8822 185.784 46.579 184.835 48.2149C183.904 49.8497 182.805 51.3825 181.556 52.7883C180.369 54.2472 178.727 55.2636 176.893 55.6736C176.875 55.6764 176.858 55.6828 176.842 55.6922C176.827 55.7017 176.813 55.7141 176.803 55.7288C176.792 55.7435 176.784 55.7601 176.78 55.7778C176.776 55.7954 176.775 55.8137 176.778 55.8316C176.783 55.8628 176.799 55.8913 176.822 55.9124C176.846 55.9335 176.876 55.9461 176.907 55.948Z" fill="#2B2B2B"/>
    <path d="M183.678 51.2163C183.56 52.1823 183.46 53.1483 183.371 54.1143C183.251 55.1188 183.259 56.1345 183.393 57.1371C183.704 59.2144 184.592 61.1623 185.956 62.7582C186.646 63.5647 187.446 64.2703 188.333 64.8544C188.771 65.1438 189.225 65.4077 189.694 65.6449L190.992 66.2931C192.729 67.1434 194.461 68.0081 196.23 68.7907C199.754 70.388 203.414 71.6837 207.04 73.037C208.862 73.6948 210.669 74.3816 212.458 75.1126C214.259 75.7391 215.98 76.5746 217.586 77.6019C220.604 79.8819 223.064 82.82 224.779 86.1933C226.602 89.5119 228.15 92.9748 229.407 96.547C231.84 103.774 233.779 111.16 235.21 118.651L236.052 117.456C233.946 117.999 231.807 118.407 229.649 118.677C228.571 118.815 227.485 118.884 226.398 118.883C225.313 118.898 224.233 118.733 223.203 118.394C223.186 118.387 223.168 118.384 223.15 118.384C223.132 118.385 223.114 118.388 223.097 118.396C223.081 118.403 223.065 118.413 223.053 118.426C223.04 118.439 223.03 118.455 223.024 118.471C223.013 118.501 223.012 118.534 223.021 118.564C223.031 118.594 223.051 118.62 223.077 118.638C224.071 119.223 225.169 119.607 226.31 119.769C227.434 119.973 228.574 120.079 229.717 120.086C230.853 120.11 231.989 120.074 233.122 119.979C234.257 119.888 235.369 119.775 236.52 119.576C236.775 119.533 237.003 119.395 237.161 119.19C237.319 118.985 237.394 118.729 237.371 118.471L237.363 118.381C236.995 114.482 236.361 110.612 235.466 106.798C234.592 102.974 233.417 99.2251 231.95 95.5869C230.538 91.8986 228.715 88.381 226.517 85.1007C224.293 81.8026 221.428 78.9869 218.093 76.8215C216.393 75.853 214.622 75.0136 212.797 74.3101C211.027 73.5426 209.29 72.6992 207.573 71.8148C204.123 70.0777 200.74 68.2081 197.254 66.5684C195.518 65.7331 193.751 64.9631 191.999 64.1613L190.682 63.5673C190.276 63.3946 189.881 63.1984 189.499 62.9795C188.744 62.5417 188.048 62.0099 187.427 61.3967C186.152 60.1384 185.219 58.575 184.716 56.8546C184.46 55.9615 184.307 55.0422 184.259 54.1144C184.17 53.1484 184.07 52.1824 183.952 51.2163C183.948 51.1828 183.932 51.1519 183.907 51.1295C183.882 51.1071 183.849 51.0947 183.815 51.0947C183.781 51.0947 183.749 51.1071 183.724 51.1295C183.698 51.1519 183.682 51.1828 183.678 51.2163L183.678 51.2163Z" fill="#2B2B2B"/>
    <path d="M222.863 126.253C222.089 128.956 221.677 131.749 221.636 134.561C221.489 137.364 221.467 140.17 221.571 142.979C221.655 145.787 221.838 148.592 222.165 151.395C222.437 154.245 222.963 157.065 223.736 159.821L224.948 158.216L207.787 157.258L190.619 156.445L173.449 155.705C167.727 155.432 162.002 155.275 156.283 154.771C159.084 155.408 161.93 155.865 164.773 156.269C167.617 156.7 170.468 157.048 173.323 157.364C179.031 157.995 184.749 158.5 190.472 158.922C196.192 159.375 201.921 159.673 207.648 159.996C213.379 160.256 219.106 160.523 224.845 160.66L224.864 160.661C225.024 160.664 225.184 160.636 225.334 160.578C225.484 160.52 225.621 160.433 225.738 160.322C225.854 160.211 225.948 160.078 226.013 159.931C226.078 159.784 226.113 159.625 226.117 159.464C226.12 159.325 226.099 159.187 226.057 159.054C225.267 156.452 224.665 153.796 224.255 151.107C223.808 148.384 223.483 145.629 223.188 142.871C222.924 140.11 222.68 137.341 222.549 134.565C222.353 131.791 222.458 129.004 222.863 126.253Z" fill="#2B2B2B"/>
    <path d="M153.329 160C158.221 160.831 179.924 160.384 191.151 160.09C191.151 160.09 167.138 139.964 167.063 132.413C167.063 132.413 158.693 153.976 156.283 154.771L153.329 160Z" fill="#2B2B2B"/>
    <path d="M235.037 118.759C235.287 120.909 235.663 123.023 236.079 125.124C236.487 127.229 236.965 129.313 237.467 131.39C237.971 133.466 238.516 135.53 239.099 137.583C239.645 139.648 240.316 141.675 240.922 143.722L240.934 143.763C240.963 143.858 241.004 143.948 241.057 144.031C242.504 146.286 243.979 148.522 245.526 150.716C247.089 152.901 248.683 155.066 250.442 157.132C249.449 154.606 248.29 152.179 247.101 149.771C245.895 147.372 244.617 145.016 243.311 142.678L243.446 142.987C242.861 140.934 242.341 138.863 241.695 136.828C241.092 134.78 240.445 132.745 239.755 130.723C239.065 128.701 238.352 126.686 237.568 124.691C236.794 122.693 235.978 120.708 235.037 118.759Z" fill="#2B2B2B"/>
    <path d="M223.871 153.246C223.496 154.003 223.287 154.831 223.257 155.675C223.227 156.52 223.377 157.36 223.696 158.142C223.794 158.43 223.952 158.695 224.159 158.918C224.366 159.141 224.618 159.318 224.897 159.438C224.784 158.93 224.73 158.411 224.738 157.891C224.731 157.385 224.692 156.882 224.651 156.372C224.572 155.293 224.308 154.235 223.871 153.246Z" fill="#2B2B2B"/>
    <path d="M196.415 160C193.287 158.754 190.311 157.156 187.544 155.236C184.819 153.352 182.255 151.245 179.879 148.935C178.705 147.766 177.519 146.606 176.451 145.327C175.279 144.138 174.309 142.778 173.215 141.504C172.652 140.877 172.197 140.172 171.684 139.503L170.148 137.482C169.158 136.107 168.222 134.687 167.138 133.324C167.676 134.959 168.305 136.571 168.986 138.165C169.789 139.689 170.508 141.284 171.462 142.735C173.297 145.71 175.483 148.454 177.971 150.908C180.498 153.348 183.353 155.423 186.453 157.072C189.519 158.768 192.92 159.767 196.415 160Z" fill="#2B2B2B"/>
    <path d="M210.183 72.9291C208.868 65.2213 207.259 57.5978 205.621 49.993L203.154 38.6112C202.734 36.7211 202.303 34.8365 201.993 32.9568C201.85 32.0294 201.79 31.1554 201.674 30.0773C201.54 29.0841 201.351 28.0992 201.108 27.1271C200.145 23.3058 198.836 19.5802 197.198 15.9965C196.377 14.2026 195.431 12.4683 194.368 10.8061C193.317 9.10869 192.086 7.52951 190.697 6.09582C187.869 3.03201 184.012 1.11907 179.864 0.722788C178.823 0.643533 177.777 0.648721 176.737 0.73829C175.709 0.856198 174.69 1.04726 173.689 1.31002C171.711 1.83452 169.794 2.56781 167.971 3.49755L168.916 3.37228C166.765 2.93316 164.552 2.89855 162.389 3.2702C160.182 3.63451 158.099 4.5368 156.323 5.8975C155.439 6.58833 154.637 7.37848 153.934 8.25242C153.617 8.70621 153.334 9.18208 153.036 9.64763C152.721 10.0967 152.46 10.5815 152.258 11.0919C151.792 12.0646 151.432 13.0845 151.183 14.1341C150.899 15.1525 150.701 16.1931 150.593 17.2449C150.516 18.2856 150.343 19.325 150.354 20.3603L150.441 23.4563C150.541 25.4836 150.757 27.4097 150.801 29.4029C150.871 31.376 150.839 33.3514 150.703 35.321C150.714 37.2724 150.176 39.1875 149.149 40.8468L149.136 40.8641C149.116 40.8907 149.106 40.924 149.108 40.9575C149.111 40.9911 149.126 41.0225 149.15 41.0458C149.174 41.0691 149.206 41.0826 149.24 41.0838C149.273 41.0849 149.306 41.0737 149.332 41.0521C150.088 40.3283 150.654 39.4292 150.981 38.4343C151.312 37.4656 151.578 36.4758 151.777 35.4716C152.149 33.4747 152.384 31.4545 152.48 29.4253C152.613 27.4182 152.611 25.346 152.621 23.3771L152.732 20.4735C152.793 19.5114 152.987 18.5728 153.103 17.6249C153.242 16.6922 153.462 15.7734 153.76 14.879C154.016 13.994 154.353 13.1345 154.767 12.3114C154.938 11.8935 155.163 11.5 155.437 11.1414C155.69 10.773 155.924 10.3903 156.183 10.0303C156.756 9.36565 157.399 8.76577 158.102 8.24145C159.508 7.15236 161.163 6.4312 162.917 6.14313C164.695 5.79711 166.52 5.76522 168.309 6.04892L168.394 6.06339C168.688 6.1139 168.991 6.06469 169.254 5.92359C172.429 4.05511 176.044 3.06424 179.727 3.05225C183.431 3.19782 186.963 4.65245 189.697 7.15789C192.541 9.73628 194.833 12.8669 196.431 16.3595C198.105 19.8423 199.252 23.5553 199.834 27.3762C199.98 28.3137 200.075 29.2586 200.116 30.2066C200.133 31.071 200.114 32.149 200.182 33.1581C200.348 35.1467 200.573 37.1061 200.895 39.0412C201.507 42.9202 202.399 46.7281 203.321 50.5227C205.189 58.1069 207.328 65.6153 209.918 72.9985C209.929 73.0311 209.953 73.0582 209.983 73.0745C210.014 73.0907 210.049 73.0949 210.083 73.0861C210.116 73.0774 210.145 73.0564 210.164 73.0273C210.182 72.9982 210.189 72.9631 210.184 72.929L210.183 72.9291Z" fill="#2B2B2B"/>
    <path d="M258.962 161.959C258.567 161.061 258.028 160.232 257.366 159.507C256.69 158.758 255.908 158.112 255.045 157.591C253.279 156.561 251.295 155.966 249.254 155.856L249.355 155.864C247.96 155.711 246.551 155.731 245.16 155.923C243.784 156.11 242.438 156.468 241.15 156.988C239.862 157.513 238.666 158.241 237.607 159.143C236.562 160.024 235.71 161.11 235.103 162.335C236.152 161.594 237.263 160.946 238.425 160.399C239.535 159.886 240.695 159.488 241.887 159.211C244.23 158.651 246.639 158.421 249.046 158.526L249.147 158.534C250.869 158.534 252.58 158.804 254.219 159.333C255.056 159.614 255.865 159.974 256.636 160.406C257.445 160.871 258.222 161.39 258.962 161.959Z" fill="#2B2B2B"/>
    <path d="M235.038 171.645C243.245 191.386 255.963 183.598 255.963 183.598C255.963 183.598 250.254 180.154 249.273 163.638C249.273 163.638 246.794 160.006 243.594 163.638C240.92 166.492 238.062 169.167 235.038 171.645Z" fill="white"/>
    <path d="M234.919 171.616C235.201 172.63 235.553 173.804 235.979 175.01C236.452 176.139 236.991 177.15 237.536 178.219C237.842 178.728 238.195 179.212 238.536 179.704C238.861 180.21 239.226 180.69 239.628 181.139L240.888 182.457C241.342 182.871 241.82 183.259 242.319 183.617C244.335 185.091 246.784 185.852 249.28 185.779C251.685 185.699 254.039 185.061 256.155 183.914C256.208 183.887 256.252 183.846 256.285 183.796C256.318 183.746 256.338 183.689 256.343 183.629C256.347 183.57 256.337 183.51 256.313 183.456C256.288 183.401 256.25 183.354 256.202 183.318L256.153 183.281C254.847 182.149 253.861 180.694 253.293 179.061C252.654 177.43 252.169 175.743 251.846 174.021C251.639 173.173 251.526 172.296 251.346 171.442C251.223 170.571 251.086 169.705 250.982 168.832C250.904 167.954 250.804 167.08 250.743 166.201C250.709 165.318 250.628 164.441 250.563 163.561L250.557 163.486C250.542 163.276 250.467 163.075 250.339 162.907C249.749 162.054 248.913 161.4 247.944 161.032C247.424 160.839 246.87 160.755 246.317 160.787C245.764 160.819 245.223 160.965 244.729 161.217C243.912 161.666 243.198 162.282 242.633 163.024C242.157 163.597 241.673 164.174 241.174 164.745C240.172 165.883 239.138 167.011 238.095 168.139L236.53 169.842C235.99 170.439 235.517 170.907 234.919 171.616ZM235.154 171.675C235.819 171.316 236.459 170.913 237.071 170.469C237.717 170.035 238.353 169.587 238.972 169.117C240.219 168.186 241.432 167.208 242.597 166.157C243.187 165.639 243.758 165.094 244.31 164.52C244.721 164.065 245.216 163.694 245.767 163.426C245.963 163.33 246.178 163.279 246.396 163.277C246.614 163.275 246.83 163.321 247.028 163.413C247.488 163.637 247.891 163.964 248.204 164.368L247.981 163.715C248.06 164.627 248.123 165.541 248.233 166.45C248.35 167.359 248.506 168.266 248.641 169.172C248.803 170.077 248.998 170.978 249.182 171.878C249.426 172.77 249.622 173.668 249.932 174.543C250.51 176.305 251.272 178.001 252.207 179.603C253.101 181.26 254.312 182.726 255.77 183.916L255.769 183.282C254.795 183.814 253.74 184.181 252.647 184.368C252.101 184.457 251.548 184.497 250.994 184.486C250.448 184.497 249.902 184.453 249.365 184.357C247.27 183.97 245.291 183.11 243.578 181.842C241.824 180.548 240.264 179.007 238.949 177.268C238.337 176.35 237.623 175.427 237.021 174.527L235.154 171.675Z" fill="#2B2B2B"/>
    <path d="M242.184 143.355C241.504 142.943 240.757 142.656 239.977 142.506C239.215 142.343 238.437 142.261 237.657 142.263C236.081 142.241 234.526 142.617 233.133 143.355C233.894 143.491 234.664 143.57 235.436 143.592C236.185 143.628 236.924 143.633 237.663 143.636C239.174 143.642 240.685 143.548 242.184 143.355Z" fill="#2B2B2B"/>
    <path d="M302.778 214.506C303.988 214.81 305.127 215.346 306.132 216.085C307.157 216.803 308.117 217.608 309.003 218.492C310.784 220.266 312.425 222.175 313.91 224.204C316.869 228.289 319.605 232.531 322.107 236.912C327.183 245.646 331.61 254.749 335.977 263.869C340.311 273.008 344.404 282.266 348.347 291.587C352.299 300.901 356.229 310.241 359.911 319.655L360.121 318.509C356.709 322.374 353.082 326.119 349.35 329.713C345.626 333.32 341.707 336.719 337.61 339.895C333.599 343.141 329.123 345.765 324.332 347.678C321.987 348.618 319.434 348.909 316.939 348.521C315.727 348.258 314.591 347.722 313.618 346.954C312.644 346.185 311.858 345.205 311.319 344.087L311.315 344.079C311.285 344.02 311.241 343.969 311.188 343.931C311.134 343.893 311.072 343.868 311.007 343.858C308.627 343.538 306.213 343.569 303.841 343.949C301.465 344.302 299.166 345.062 297.047 346.195C295.986 346.763 294.979 347.427 294.039 348.18C293.117 348.954 292.269 349.814 291.507 350.747C290.732 351.668 290.043 352.657 289.449 353.704C288.832 354.734 288.412 355.865 287.886 356.943L288.263 356.631C283.118 357.106 277.929 356.607 272.968 355.16C267.986 353.765 263.208 351.723 258.756 349.087L255.482 347.012C254.38 346.339 253.397 345.485 252.349 344.731C250.281 343.181 248.298 341.519 246.41 339.754C245.411 338.932 244.553 337.956 243.641 337.04L240.935 334.26C239.241 332.303 237.606 330.292 235.939 328.314L236.177 329.173L241.637 288.281L244.324 267.83L246.903 247.364C246.93 247.151 246.907 246.934 246.838 246.73C246.769 246.526 246.654 246.341 246.503 246.188C246.351 246.036 246.167 245.919 245.964 245.848C245.761 245.777 245.545 245.753 245.331 245.778L245.313 245.781C235.571 246.92 225.774 247.528 215.966 247.602C206.157 247.766 196.35 247.175 186.631 245.837C176.977 244.39 167.301 242.165 158.629 237.657C154.271 235.463 150.348 232.495 147.05 228.897C143.78 225.228 141.483 220.796 140.369 216.007C140.361 215.972 140.339 215.941 140.309 215.922C140.279 215.903 140.242 215.896 140.207 215.904C140.172 215.911 140.141 215.932 140.121 215.962C140.101 215.992 140.094 216.028 140.1 216.064C141.046 220.985 143.21 225.589 146.394 229.456C149.621 233.302 153.549 236.498 157.969 238.876C162.352 241.271 166.977 243.194 171.765 244.613C176.529 246.058 181.387 247.175 186.304 247.955C196.12 249.477 206.038 250.241 215.97 250.243C220.93 250.288 225.889 250.147 230.839 249.864C235.797 249.58 240.718 249.194 245.687 248.588L244.097 247.005L241.445 267.461L238.9 287.931L233.897 328.881L233.89 328.939C233.873 329.082 233.886 329.228 233.928 329.365C233.97 329.503 234.041 329.631 234.135 329.74C235.873 331.738 237.577 333.764 239.342 335.734L242.159 338.537C243.072 339.496 244.035 340.406 245.044 341.265C247.024 343.026 249.099 344.678 251.258 346.215C252.352 346.962 253.378 347.806 254.527 348.472L257.937 350.515C262.567 353.102 267.51 355.082 272.645 356.406C277.793 357.766 283.145 358.175 288.439 357.614C288.512 357.605 288.583 357.578 288.643 357.534C288.704 357.491 288.752 357.434 288.785 357.367L288.817 357.301C289.316 356.267 289.71 355.172 290.292 354.183C290.85 353.18 291.5 352.231 292.233 351.348C292.95 350.454 293.749 349.63 294.62 348.885C295.51 348.163 296.463 347.523 297.469 346.974C299.494 345.871 301.693 345.126 303.97 344.769C306.247 344.415 308.564 344.403 310.845 344.735L310.533 344.506L311.621 346.222C312.096 346.713 312.527 347.253 313.047 347.698C314.114 348.579 315.378 349.188 316.731 349.474C319.401 349.93 322.145 349.655 324.673 348.68C329.605 346.798 334.245 344.224 338.455 341.036C342.686 337.937 346.741 334.605 350.601 331.054C354.471 327.515 358.202 323.861 361.793 320C361.931 319.852 362.024 319.669 362.063 319.471C362.102 319.272 362.084 319.067 362.012 318.878L362.003 318.855C358.374 309.363 354.599 299.95 350.579 290.629C346.53 281.322 342.331 272.079 337.886 262.949C333.447 253.817 328.648 244.849 323.356 236.163C320.727 231.801 317.821 227.612 314.656 223.622C313.066 221.622 311.324 219.747 309.445 218.017C308.502 217.146 307.478 216.367 306.387 215.69C305.307 214.979 304.098 214.485 302.829 214.236C302.794 214.23 302.757 214.239 302.728 214.259C302.699 214.28 302.679 214.311 302.672 214.346C302.665 214.382 302.673 214.418 302.693 214.448C302.713 214.478 302.743 214.499 302.778 214.506L302.778 214.506Z" fill="#2B2B2B"/>
    <path d="M110.523 79.835C108.51 79.1626 106.399 78.8316 104.277 78.8557C102.108 78.8471 99.9575 79.2503 97.9386 80.044C95.8934 80.9094 94.0708 82.2279 92.6082 83.9002C91.1693 85.5828 90.0412 87.5085 89.2768 89.587C87.8385 93.6838 87.1509 98.0068 87.2469 102.348C87.3334 106.593 87.6822 110.829 88.2911 115.031C89.384 123.367 90.7029 131.682 92.4814 139.908C94.1415 148.164 96.4972 156.263 99.5231 164.121C98.4611 160.057 97.5533 155.969 96.7997 151.854C95.9928 147.75 95.2806 143.629 94.5856 139.508C93.2465 131.255 92.0553 122.98 91.0122 114.683C90.3853 110.589 89.9934 106.464 89.8383 102.326C89.6466 98.2668 90.1358 94.2045 91.2856 90.3076C91.8265 88.3951 92.7432 86.6099 93.9817 85.0564C95.2203 83.5028 96.7561 82.2122 98.499 81.26C102.247 79.493 106.467 78.9929 110.523 79.835Z" fill="#2B2B2B"/>
    <path d="M244.368 255.602C235.65 257.386 226.947 259.034 218.217 260.481L205.108 262.533C200.739 263.236 196.349 263.816 191.937 264.276C187.522 264.674 183.087 264.8 178.657 264.652C174.238 264.471 169.835 263.992 165.48 263.218C161.158 262.467 156.898 261.392 152.736 260.002C148.61 258.67 144.665 256.831 140.992 254.526L140.941 254.497L140.763 254.41C139.077 253.539 137.496 252.477 136.051 251.246C134.541 249.976 133.108 248.618 131.76 247.178C129.072 244.218 126.677 241.004 124.608 237.581C122.497 234.135 120.598 230.563 118.922 226.884L116.549 221.262C115.838 219.353 115.143 217.434 114.393 215.523L114.39 215.517C114.378 215.485 114.353 215.458 114.322 215.443C114.291 215.428 114.255 215.426 114.222 215.436C114.189 215.446 114.161 215.468 114.144 215.498C114.126 215.528 114.121 215.564 114.129 215.597C114.578 217.597 115.083 219.589 115.572 221.59C116.149 223.564 116.786 225.524 117.438 227.482C118.811 231.393 120.501 235.187 122.488 238.824C124.474 242.512 126.869 245.964 129.629 249.114C130.348 249.883 131.062 250.661 131.81 251.408C132.604 252.11 133.345 252.866 134.195 253.515C135.857 254.948 137.712 256.14 139.706 257.058L139.477 256.942C147.376 261.462 156.179 264.169 165.25 264.869C174.149 265.574 183.082 265.758 192.003 265.419C196.463 265.333 200.921 265.106 205.378 264.74C209.827 264.336 214.246 263.66 218.63 262.827C227.414 261.229 236.049 258.901 244.446 255.866C244.481 255.853 244.508 255.827 244.524 255.794C244.539 255.761 244.54 255.723 244.528 255.689C244.515 255.658 244.493 255.632 244.463 255.616C244.434 255.601 244.4 255.596 244.368 255.602Z" fill="#2B2B2B"/>
    <path d="M237.659 160C230.578 159.431 223.497 159.134 216.416 158.932C209.335 158.713 202.254 158.654 195.173 158.627C188.092 158.651 181.011 158.709 173.93 158.928C166.849 159.129 159.768 159.428 152.687 160C159.768 160.572 166.849 160.871 173.93 161.072C181.011 161.291 188.092 161.349 195.173 161.373C202.254 161.346 209.335 161.287 216.416 161.068C223.497 160.866 230.578 160.568 237.659 160Z" fill="#2B2B2B"/>
    <path d="M122.883 164.118L126.444 164.057C129.232 166.471 132.687 167.98 136.351 168.386C138.751 168.592 141.167 168.279 143.436 167.47C145.705 166.66 147.774 165.373 149.503 163.694L235.103 162.336C233.131 164.815 231.95 167.832 231.712 170.992C231.712 170.992 233.129 176.545 244.114 163.003C244.114 163.003 248.486 161.269 249.407 163.912C250.315 166.567 249.504 187.529 262.934 184.789C262.934 184.789 265.187 169.852 258.962 161.96L270.047 161.783V163.448C270.047 164.451 270.244 165.443 270.627 166.37C271.011 167.296 271.573 168.138 272.281 168.847C272.989 169.556 273.83 170.118 274.755 170.502C275.68 170.885 276.672 171.083 277.674 171.083H330.676L330.211 179.212C330.211 178.678 330.187 178.375 330.187 178.375H308.484L325.572 195.579H352.168C354.509 195.577 356.756 194.652 358.422 193.005C360.088 191.358 361.039 189.121 361.07 186.777L361.264 171.083H413.733C414.735 171.083 415.726 170.885 416.652 170.502C417.577 170.118 418.418 169.556 419.126 168.847C419.834 168.138 420.396 167.296 420.779 166.37C421.163 165.444 421.36 164.451 421.36 163.448V159.438H442.128L519.614 205.653C482.325 205.326 445.035 205.148 407.745 205.12C370.443 204.987 333.154 205.12 295.864 205.168C258.574 205.181 221.285 205.435 183.983 205.629L128.054 205.981L72.3197 206.502L54.4441 195.942L36.3504 185.322L0.126282 164.118L122.883 164.118ZM164.291 190.184L250.593 189.565L245.495 184.207L235.394 172.471H150.666L164.291 190.184Z" fill="#2B2B2B"/>
    <path d="M330.671 170.895C325.325 170.71 319.979 170.583 314.633 170.459C309.287 170.332 303.941 170.186 298.595 170.123L282.557 169.876L278.548 169.815C278.223 169.807 277.858 169.811 277.566 169.793C277.288 169.783 277.011 169.754 276.736 169.706C276.19 169.617 275.657 169.456 275.153 169.227C274.152 168.767 273.288 168.054 272.646 167.159C272.004 166.264 271.605 165.217 271.489 164.12L271.652 132.162C271.703 121.459 271.671 110.756 271.556 100.052L271.055 67.9429L270.791 51.8881C270.724 50.9699 270.841 50.0476 271.133 49.1747C271.426 48.3018 271.888 47.4957 272.494 46.8031C273.1 46.1105 273.838 45.5452 274.663 45.1399C275.489 44.7346 276.387 44.4973 277.305 44.4419C278.577 44.3887 279.96 44.4033 281.282 44.3935C302.666 44.2869 324.051 44.4873 345.435 44.7995C366.819 45.1489 388.203 45.3872 409.587 45.5144L413.596 45.5375C414.643 45.5296 415.673 45.7941 416.586 46.3051C417.481 46.8153 418.226 47.552 418.747 48.4413C419.268 49.3306 419.546 50.3414 419.554 51.3723L419.465 67.4094L419.421 99.5189L419.608 131.628L419.924 163.685C419.893 164.786 419.574 165.859 418.999 166.798C418.424 167.737 417.612 168.509 416.646 169.036C415.646 169.575 414.523 169.845 413.387 169.82L409.378 169.887L393.34 170.157C382.648 170.347 371.956 170.593 361.264 170.895C361.216 170.896 361.171 170.916 361.138 170.95C361.105 170.984 361.087 171.029 361.087 171.077C361.087 171.124 361.105 171.17 361.138 171.204C361.171 171.238 361.216 171.257 361.264 171.259C371.956 171.561 382.648 171.807 393.34 171.997L409.378 172.266L413.387 172.334C414.937 172.401 416.479 172.074 417.869 171.384C419.285 170.667 420.484 169.586 421.344 168.251C422.204 166.917 422.694 165.377 422.763 163.79L423.109 131.628L423.296 99.5188L423.252 67.4093L423.155 51.3372C423.127 49.6789 422.662 48.0573 421.809 46.6355C420.957 45.2136 419.745 44.0415 418.296 43.2368C416.855 42.4507 415.237 42.049 413.596 42.0701L409.587 42.0932C388.203 42.1994 366.819 42.4377 345.435 42.8081C324.051 43.1203 302.666 43.3207 281.282 43.2141C279.932 43.2223 278.641 43.1785 277.241 43.2061C275.786 43.2641 274.372 43.7094 273.146 44.4962C271.914 45.2866 270.912 46.3878 270.241 47.689C269.906 48.34 269.655 49.0315 269.496 49.7464C269.362 50.4523 269.296 51.1694 269.297 51.888L269.033 67.9428L268.532 100.052C268.423 110.755 268.391 121.459 268.435 132.162L268.501 148.217L268.566 156.244L268.601 160.258L268.618 162.265L268.627 163.268C268.63 163.597 268.659 164.041 268.689 164.419C268.872 165.996 269.469 167.496 270.419 168.767C271.369 170.038 272.638 171.034 274.098 171.655C274.821 171.957 275.582 172.162 276.359 172.264C276.745 172.318 277.134 172.346 277.524 172.348C277.9 172.356 278.204 172.341 278.548 172.339L282.557 172.277L298.595 172.031C303.941 171.968 309.287 171.822 314.633 171.695C319.979 171.571 325.325 171.444 330.671 171.259C330.718 171.257 330.763 171.237 330.796 171.203C330.828 171.169 330.847 171.124 330.847 171.077C330.847 171.03 330.828 170.984 330.796 170.95C330.763 170.917 330.718 170.897 330.671 170.895V170.895Z" fill="#2B2B2B"/>
    <path d="M332.595 104.921C332.558 108.871 333.887 112.712 336.356 115.793C337.684 117.363 339.353 118.61 341.235 119.437C343.117 120.264 345.163 120.649 347.217 120.564C351.259 120.3 355.041 118.481 357.774 115.489C360.527 112.627 362.183 108.885 362.453 104.921C362.593 102.877 362.302 100.827 361.599 98.9032C360.896 96.9793 359.797 95.2251 358.372 93.7542C356.933 92.2499 355.212 91.0433 353.308 90.2029C351.391 89.3633 349.319 88.9383 347.227 88.9556C345.135 88.9729 343.07 89.4322 341.168 90.3035C339.295 91.1621 337.643 92.436 336.336 94.0286C333.86 97.1127 332.537 100.965 332.595 104.921ZM332.869 104.921C332.884 103.042 333.333 101.192 334.181 99.5158C335.022 97.8901 336.19 96.4569 337.613 95.3071C340.325 93.0929 343.718 91.8844 347.217 91.8861C350.68 91.8998 354.011 93.2192 356.546 95.5816C359.11 98.0478 360.678 101.372 360.951 104.921C361.071 106.746 360.804 108.576 360.168 110.291C359.512 112.02 358.479 113.58 357.145 114.859C355.807 116.072 354.238 117 352.531 117.587C350.825 118.175 349.017 118.41 347.217 118.277C343.694 118.1 340.32 116.795 337.593 114.555C336.169 113.402 335 111.964 334.16 110.335C333.314 108.656 332.871 106.802 332.869 104.921Z" fill="#FDB914"/>
    <path d="M281.028 159.996C285.222 160.479 289.415 160.723 293.607 160.883C297.799 161.059 301.991 161.092 306.182 161.098C310.373 161.059 314.564 160.989 318.755 160.778C322.946 160.582 327.136 160.3 331.325 159.777C327.132 159.291 322.939 159.045 318.747 158.886C314.555 158.711 310.363 158.678 306.171 158.675C301.98 158.717 297.789 158.787 293.598 158.999C289.408 159.195 285.218 159.476 281.028 159.996Z" fill="#FDB914"/>
    <path d="M361.409 159.644C365.491 160.128 369.572 160.374 373.654 160.535C377.735 160.711 381.815 160.745 385.896 160.752C389.976 160.714 394.056 160.645 398.136 160.435C402.216 160.24 406.295 159.96 410.373 159.438C406.29 158.95 402.209 158.704 398.128 158.543C394.047 158.368 389.966 158.333 385.886 158.329C381.805 158.37 377.725 158.439 373.646 158.65C369.566 158.845 365.487 159.125 361.409 159.644Z" fill="#FDB914"/>
    <path d="M310.926 344.296C309.376 337.334 307.502 330.464 305.498 323.635C303.507 316.801 301.316 310.029 299.018 303.29C296.666 296.57 294.225 289.875 291.441 283.305C290.062 280.015 288.596 276.758 286.996 273.56C286.166 271.973 285.342 270.384 284.396 268.857C283.539 267.273 282.398 265.86 281.029 264.69C281.638 265.331 282.151 266.057 282.551 266.845C282.979 267.616 283.368 268.406 283.725 269.217C284.456 270.823 285.125 272.462 285.766 274.111C287.062 277.405 288.246 280.747 289.444 284.082L292.951 294.125L296.425 304.187C298.768 310.888 301.064 317.608 303.469 324.295C305.854 330.99 308.29 337.67 310.926 344.296Z" fill="#2B2B2B"/>
    <path d="M288.351 357.123C289.163 351.209 289.704 345.284 290.15 339.355C290.613 333.427 290.916 327.492 291.188 321.556C291.408 315.617 291.594 309.677 291.621 303.731C291.664 297.786 291.61 291.836 291.284 285.875C290.469 291.789 289.926 297.714 289.481 303.643C289.018 309.571 288.715 315.506 288.447 321.442C288.23 327.381 288.044 333.321 288.018 339.267C287.975 345.213 288.028 351.162 288.351 357.123Z" fill="#2B2B2B"/>
    <path d="M172.819 34.4399C172.285 34.4217 171.779 34.1966 171.408 33.8121C171.037 33.4276 170.83 32.9138 170.83 32.3791C170.83 31.8445 171.037 31.3307 171.408 30.9462C171.779 30.5617 172.285 30.3366 172.819 30.3184C173.353 30.3366 173.859 30.5617 174.23 30.9462C174.601 31.3307 174.809 31.8445 174.809 32.3791C174.809 32.9138 174.601 33.4276 174.23 33.8121C173.859 34.1966 173.353 34.4217 172.819 34.4399Z" fill="#2B2B2B"/>
    <path d="M160.592 34.4399C160.058 34.4217 159.552 34.1966 159.181 33.8121C158.809 33.4276 158.602 32.9138 158.602 32.3791C158.602 31.8445 158.809 31.3307 159.181 30.9462C159.552 30.5617 160.058 30.3366 160.592 30.3184C161.125 30.3366 161.631 30.5617 162.002 30.9462C162.374 31.3307 162.581 31.8445 162.581 32.3791C162.581 32.9138 162.374 33.4276 162.002 33.8121C161.631 34.1966 161.125 34.4217 160.592 34.4399Z" fill="#2B2B2B"/>
    <path d="M157.009 27.6801C157.642 27.7818 158.28 27.8498 158.92 27.8837C159.5 27.932 160.041 27.9328 160.585 27.945C161.128 27.9523 161.67 27.9336 162.249 27.9028C162.895 27.8814 163.539 27.8069 164.173 27.6801C163.789 27.0836 163.238 26.6142 162.588 26.3309C161.963 26.0396 161.282 25.8874 160.592 25.8848C159.902 25.8822 159.22 26.0291 158.592 26.3156C157.932 26.5892 157.377 27.0674 157.009 27.6801Z" fill="#2B2B2B"/>
    <path d="M171.214 27.6802C171.749 27.8402 172.296 27.9527 172.851 28.0165C173.313 28.0784 173.778 28.1095 174.244 28.1095C174.706 28.1088 175.168 28.0781 175.627 28.0176C176.183 27.9582 176.732 27.8452 177.267 27.6802C176.97 27.134 176.504 26.699 175.94 26.4404C175.412 26.1733 174.828 26.0391 174.237 26.0494C173.649 26.0451 173.069 26.1804 172.544 26.4443C171.977 26.6987 171.51 27.1331 171.214 27.6802Z" fill="#2B2B2B"/>
    <path d="M162.568 36.8301C162.567 37.1582 162.635 37.4827 162.766 37.7834C162.897 38.0841 163.089 38.3545 163.329 38.5775C163.807 39.0443 164.406 39.3671 165.059 39.5092C165.684 39.6418 166.332 39.6371 166.956 39.4954C167.565 39.3562 168.135 39.0789 168.62 38.6848C168.049 38.5608 167.47 38.4742 166.887 38.4255C166.352 38.3292 165.835 38.3046 165.36 38.1697C164.33 37.9679 163.369 37.5068 162.568 36.8301Z" fill="#2B2B2B"/>
    <path d="M170.406 45.179C170.278 44.877 170.089 44.6048 169.851 44.3794C169.613 44.154 169.331 43.9802 169.023 43.8689C168.4 43.6264 167.723 43.5639 167.067 43.6884C166.439 43.8115 165.845 44.0692 165.326 44.4439C164.82 44.8106 164.404 45.2887 164.111 45.8416C164.686 45.7319 165.252 45.585 165.807 45.4017C166.337 45.281 166.822 45.1013 167.313 45.0392C168.339 44.822 169.404 44.8701 170.406 45.179Z" fill="#2B2B2B"/>
    <path d="M200.63 264.153V363.956C200.63 363.956 179.88 372.179 167.138 363.956V264.153" fill="#2B2B2B"/>
    <path d="M136.458 364.462C136.507 364.973 136.659 365.469 136.906 365.918C137.153 366.368 137.49 366.763 137.894 367.078C138.678 367.739 139.54 368.301 140.46 368.751C142.299 369.653 144.217 370.385 146.189 370.936C150.126 372.063 154.135 372.924 158.187 373.515C166.294 374.739 174.475 375.416 182.673 375.54C190.893 375.727 199.116 375.338 207.282 374.378C211.395 373.88 215.468 373.088 219.47 372.011C221.515 371.455 223.504 370.711 225.413 369.79C226.427 369.302 227.376 368.69 228.239 367.968C228.811 367.58 229.28 367.058 229.605 366.447C229.929 365.835 230.098 365.154 230.099 364.462C230.099 363.77 229.929 363.088 229.605 362.477C229.281 361.865 228.813 361.343 228.24 360.955C227.377 360.232 226.428 359.62 225.414 359.132C223.505 358.211 221.516 357.468 219.47 356.912C215.47 355.83 211.397 355.038 207.283 354.541C199.117 353.578 190.894 353.189 182.673 353.378C174.475 353.503 166.294 354.181 158.187 355.408C154.134 355.998 150.126 356.86 146.189 357.988C144.217 358.54 142.299 359.271 140.461 360.173C139.54 360.623 138.678 361.185 137.894 361.847C137.489 362.162 137.153 362.556 136.906 363.006C136.659 363.456 136.507 363.951 136.458 364.462ZM136.458 364.462C136.51 363.953 136.666 363.46 136.915 363.013C137.165 362.566 137.503 362.175 137.909 361.864C138.696 361.21 139.559 360.656 140.481 360.214C142.323 359.328 144.242 358.612 146.215 358.077C150.161 357.014 154.177 356.235 158.234 355.745C166.344 354.793 174.51 354.409 182.673 354.597C190.814 354.722 198.938 355.396 206.989 356.612C210.984 357.195 214.936 358.044 218.819 359.154C220.718 359.684 222.565 360.387 224.337 361.255C225.166 361.659 225.942 362.163 226.649 362.756C226.96 362.919 227.22 363.165 227.401 363.466C227.583 363.767 227.679 364.111 227.679 364.463C227.679 364.814 227.583 365.159 227.402 365.46C227.221 365.761 226.961 366.007 226.651 366.171C225.944 366.763 225.167 367.267 224.338 367.671C222.566 368.539 220.719 369.243 218.819 369.773C214.938 370.886 210.986 371.737 206.99 372.318C198.939 373.537 190.815 374.21 182.673 374.334C174.51 374.521 166.344 374.136 158.234 373.181C154.177 372.691 150.16 371.912 146.215 370.848C144.242 370.312 142.323 369.597 140.481 368.71C139.559 368.268 138.696 367.714 137.909 367.061C137.503 366.749 137.165 366.358 136.915 365.912C136.666 365.465 136.51 364.971 136.458 364.462Z" fill="#2B2B2B"/>
    <path d="M123.609 63.9532L140.238 60.498V68.1237C140.234 77.9656 141.876 87.7388 145.094 97.0383L148.942 108.147L136.055 131.719C136.055 131.719 109.173 133.785 106.739 133.579C106.739 133.579 101.858 67.0084 123.609 63.9532ZM138.918 117.115C139.087 115.2 139.22 113.284 139.232 111.356C139.287 109.428 139.153 107.5 138.833 105.598C138.712 107.513 138.469 109.404 138.288 111.308L137.707 116.994C137.367 120.801 137.028 124.607 136.98 128.463C137.926 124.738 138.574 120.943 138.918 117.115ZM132.923 128.281C133.394 128.265 133.841 128.067 134.169 127.727C134.497 127.388 134.68 126.934 134.68 126.462C134.68 125.99 134.497 125.536 134.169 125.197C133.841 124.858 133.394 124.659 132.923 124.644C132.451 124.659 132.004 124.857 131.676 125.197C131.348 125.536 131.164 125.99 131.164 126.462C131.164 126.935 131.348 127.388 131.676 127.728C132.004 128.067 132.451 128.265 132.923 128.281V128.281ZM125.378 129.287C125.848 129.27 126.294 129.071 126.621 128.732C126.948 128.393 127.131 127.94 127.131 127.468C127.131 126.997 126.948 126.544 126.621 126.205C126.294 125.866 125.848 125.667 125.378 125.65C124.907 125.667 124.461 125.866 124.134 126.205C123.807 126.544 123.624 126.997 123.624 127.468C123.624 127.94 123.807 128.393 124.134 128.732C124.461 129.071 124.907 129.27 125.378 129.287V129.287ZM118.305 129.675C118.776 129.659 119.223 129.461 119.551 129.122C119.879 128.782 120.062 128.329 120.062 127.856C120.062 127.384 119.879 126.931 119.551 126.591C119.223 126.252 118.776 126.054 118.305 126.038C117.833 126.053 117.386 126.252 117.058 126.591C116.73 126.931 116.547 127.384 116.547 127.856C116.547 128.329 116.73 128.782 117.058 129.122C117.386 129.461 117.833 129.659 118.305 129.675V129.675ZM111.208 130.281C111.679 130.266 112.126 130.067 112.454 129.728C112.782 129.388 112.965 128.935 112.965 128.463C112.965 127.99 112.782 127.537 112.454 127.197C112.126 126.858 111.679 126.66 111.208 126.644C110.736 126.66 110.289 126.858 109.961 127.197C109.633 127.537 109.45 127.99 109.45 128.463C109.45 128.935 109.633 129.388 109.961 129.728C110.289 130.067 110.736 130.266 111.208 130.281Z" fill="#2B2B2B"/>
    <path d="M151.11 56.3086C149.218 56.7853 147.365 57.4026 145.564 58.1554C143.773 58.8858 142.027 59.6216 140.234 60.5031C142.223 60.4847 144.188 60.0689 146.014 59.2801C147.859 58.5641 149.578 57.5612 151.11 56.3086Z" fill="#2B2B2B"/>
    <path d="M185.313 88.1227C183.925 85.6397 182.339 83.2724 180.571 81.0436C178.847 78.7811 176.941 76.6626 174.874 74.709C176.26 77.1935 177.846 79.561 179.616 81.7882C181.343 84.049 183.248 86.1674 185.313 88.1227Z" fill="#2B2B2B"/>
    <path d="M355.304 319.744C354.833 319.727 354.386 319.529 354.059 319.189C353.732 318.85 353.549 318.397 353.549 317.925C353.549 317.453 353.732 317 354.059 316.661C354.386 316.321 354.833 316.123 355.304 316.106C355.775 316.123 356.221 316.321 356.548 316.661C356.876 317 357.059 317.453 357.059 317.925C357.059 318.397 356.876 318.85 356.548 319.189C356.221 319.529 355.775 319.727 355.304 319.744Z" fill="#FDB914"/>
    <path d="M349.417 326.072C348.946 326.055 348.5 325.857 348.172 325.517C347.845 325.178 347.662 324.725 347.662 324.253C347.662 323.781 347.845 323.328 348.172 322.989C348.5 322.65 348.946 322.451 349.417 322.435C349.888 322.451 350.334 322.65 350.661 322.989C350.989 323.328 351.172 323.781 351.172 324.253C351.172 324.725 350.989 325.178 350.661 325.517C350.334 325.857 349.888 326.055 349.417 326.072Z" fill="#FDB914"/>
    <path d="M342.659 332.401C342.188 332.385 341.742 332.186 341.414 331.847C341.087 331.507 340.904 331.054 340.904 330.582C340.904 330.111 341.087 329.657 341.414 329.318C341.742 328.979 342.188 328.78 342.659 328.764C343.13 328.78 343.576 328.979 343.904 329.318C344.231 329.657 344.414 330.111 344.414 330.582C344.414 331.054 344.231 331.507 343.904 331.847C343.576 332.186 343.13 332.385 342.659 332.401Z" fill="#FDB914"/>
    <path d="M335.247 338.51C334.776 338.494 334.33 338.295 334.003 337.956C333.675 337.616 333.492 337.163 333.492 336.692C333.492 336.22 333.675 335.767 334.003 335.427C334.33 335.088 334.776 334.889 335.247 334.873C335.718 334.889 336.164 335.088 336.492 335.427C336.819 335.767 337.002 336.22 337.002 336.692C337.002 337.163 336.819 337.616 336.492 337.956C336.164 338.295 335.718 338.494 335.247 338.51Z" fill="#FDB914"/>
    <path d="M326.745 343.966C326.274 343.95 325.828 343.751 325.5 343.412C325.173 343.073 324.99 342.619 324.99 342.148C324.99 341.676 325.173 341.223 325.5 340.883C325.828 340.544 326.274 340.345 326.745 340.329C327.216 340.345 327.662 340.544 327.99 340.883C328.317 341.223 328.5 341.676 328.5 342.148C328.5 342.619 328.317 343.073 327.99 343.412C327.662 343.751 327.216 343.95 326.745 343.966Z" fill="#FDB914"/>
    <path d="M317.372 345.494C316.901 345.477 316.455 345.279 316.127 344.939C315.8 344.6 315.617 344.147 315.617 343.675C315.617 343.203 315.8 342.75 316.127 342.411C316.455 342.071 316.901 341.873 317.372 341.856C317.843 341.873 318.289 342.071 318.617 342.411C318.944 342.75 319.127 343.203 319.127 343.675C319.127 344.147 318.944 344.6 318.617 344.939C318.289 345.279 317.843 345.477 317.372 345.494Z" fill="#FDB914"/>
    <path d="M307.78 341.347C307.309 341.331 306.863 341.132 306.536 340.793C306.208 340.454 306.025 340 306.025 339.529C306.025 339.057 306.208 338.603 306.536 338.264C306.863 337.925 307.309 337.726 307.78 337.71C308.251 337.726 308.697 337.925 309.025 338.264C309.352 338.603 309.535 339.057 309.535 339.529C309.535 340 309.352 340.454 309.025 340.793C308.697 341.132 308.251 341.331 307.78 341.347Z" fill="#FDB914"/>
    <path d="M299.496 343.312C299.025 343.296 298.579 343.097 298.251 342.758C297.924 342.418 297.741 341.965 297.741 341.493C297.741 341.022 297.924 340.568 298.251 340.229C298.579 339.89 299.025 339.691 299.496 339.675C299.967 339.691 300.413 339.89 300.741 340.229C301.068 340.568 301.251 341.022 301.251 341.493C301.251 341.965 301.068 342.418 300.741 342.758C300.413 343.097 299.967 343.296 299.496 343.312Z" fill="#FDB914"/>
    <path d="M292.084 347.457C291.613 347.441 291.167 347.242 290.839 346.903C290.512 346.564 290.329 346.111 290.329 345.639C290.329 345.167 290.512 344.714 290.839 344.375C291.167 344.035 291.613 343.837 292.084 343.82C292.555 343.837 293.001 344.035 293.328 344.375C293.656 344.714 293.839 345.167 293.839 345.639C293.839 346.111 293.656 346.564 293.328 346.903C293.001 347.242 292.555 347.441 292.084 347.457Z" fill="#FDB914"/>
    <path d="M285.108 355.096C284.637 355.08 284.191 354.881 283.864 354.542C283.536 354.202 283.353 353.749 283.353 353.277C283.353 352.806 283.536 352.353 283.864 352.013C284.191 351.674 284.637 351.475 285.108 351.459C285.579 351.475 286.025 351.674 286.353 352.013C286.68 352.353 286.863 352.806 286.863 353.277C286.863 353.749 286.68 354.202 286.353 354.542C286.025 354.881 285.579 355.08 285.108 355.096Z" fill="#FDB914"/>
    <path d="M276.17 353.786C275.699 353.77 275.253 353.571 274.925 353.232C274.598 352.893 274.415 352.44 274.415 351.968C274.415 351.496 274.598 351.043 274.925 350.704C275.253 350.364 275.699 350.166 276.17 350.149C276.641 350.166 277.087 350.364 277.414 350.704C277.742 351.043 277.925 351.496 277.925 351.968C277.925 352.44 277.742 352.893 277.414 353.232C277.087 353.571 276.641 353.77 276.17 353.786Z" fill="#FDB914"/>
    <path d="M267.232 351.386C266.761 351.37 266.315 351.171 265.988 350.832C265.66 350.493 265.477 350.039 265.477 349.568C265.477 349.096 265.66 348.643 265.988 348.303C266.315 347.964 266.761 347.765 267.232 347.749C267.703 347.765 268.149 347.964 268.477 348.303C268.804 348.643 268.987 349.096 268.987 349.568C268.987 350.039 268.804 350.493 268.477 350.832C268.149 351.171 267.703 351.37 267.232 351.386Z" fill="#FDB914"/>
    <path d="M260.038 348.113C259.567 348.096 259.121 347.898 258.793 347.558C258.466 347.219 258.283 346.766 258.283 346.294C258.283 345.822 258.466 345.369 258.793 345.03C259.121 344.691 259.567 344.492 260.038 344.476C260.509 344.492 260.955 344.691 261.283 345.03C261.61 345.369 261.793 345.822 261.793 346.294C261.793 346.766 261.61 347.219 261.283 347.558C260.955 347.898 260.509 348.096 260.038 348.113Z" fill="#FDB914"/>
    <path d="M252.19 342.657C251.72 342.64 251.273 342.442 250.946 342.102C250.619 341.763 250.436 341.31 250.436 340.838C250.436 340.366 250.619 339.913 250.946 339.574C251.273 339.235 251.72 339.036 252.19 339.02C252.661 339.036 253.108 339.235 253.435 339.574C253.762 339.913 253.945 340.366 253.945 340.838C253.945 341.31 253.762 341.763 253.435 342.102C253.108 342.442 252.661 342.64 252.19 342.657Z" fill="#FDB914"/>
    <path d="M245.432 336.11C244.962 336.093 244.515 335.895 244.188 335.555C243.86 335.216 243.678 334.763 243.678 334.291C243.678 333.819 243.86 333.366 244.188 333.027C244.515 332.688 244.962 332.489 245.432 332.473C245.903 332.489 246.35 332.688 246.677 333.027C247.004 333.366 247.188 333.819 247.188 334.291C247.188 334.763 247.004 335.216 246.677 335.555C246.35 335.895 245.903 336.093 245.432 336.11Z" fill="#FDB914"/>
    <path d="M239.982 329.564C239.511 329.548 239.065 329.349 238.738 329.01C238.41 328.67 238.227 328.217 238.227 327.745C238.227 327.274 238.41 326.82 238.738 326.481C239.065 326.142 239.511 325.943 239.982 325.927C240.453 325.943 240.9 326.142 241.227 326.481C241.554 326.82 241.737 327.274 241.737 327.745C241.737 328.217 241.554 328.67 241.227 329.01C240.9 329.349 240.453 329.548 239.982 329.564Z" fill="#FDB914"/>
    <path d="M110.663 133.358C111.366 136.716 112.236 140.037 113.271 143.308C114.286 146.606 115.556 149.82 117.072 152.92C118.581 156.07 120.469 159.023 122.696 161.712C124.963 164.495 127.849 166.709 131.123 168.178C134.501 169.65 138.261 169.999 141.852 169.174C145.425 168.323 148.666 166.43 151.165 163.734L152.102 162.738L152.905 161.705C153.435 161.014 153.992 160.34 154.476 159.619L155.97 157.484L157.367 155.291C159.177 152.346 160.821 149.302 162.29 146.173C165.235 139.949 167.685 133.503 169.62 126.895C171.572 120.314 173.103 113.616 174.204 106.84C175.286 100.062 175.916 93.22 176.091 86.3585C176.2 82.9131 176.097 79.4643 175.782 76.0316C175.587 74.3122 175.386 72.5888 175.022 70.8786C174.702 69.105 174.169 67.3768 173.434 65.7319L173.509 65.8955C173.09 64.7194 172.572 63.581 171.962 62.4924C171.359 61.4042 170.662 60.3708 169.88 59.4041C169.087 58.4206 168.19 57.526 167.205 56.736C166.195 55.9361 165.088 55.2693 163.909 54.7517L164.201 54.926C163.211 54.0509 162.295 53.0958 161.462 52.0703C160.644 51.08 159.956 49.9885 159.415 48.8226C159.171 48.2857 158.999 47.7193 158.901 47.1378C158.847 46.405 158.754 45.6756 158.624 44.9525L158.407 44.282C158.298 44.0335 158.168 43.7949 158.018 43.5691C157.821 43.2809 157.567 43.0363 157.272 42.8506C156.976 42.6649 156.646 42.5421 156.301 42.4896C155.649 42.4114 154.99 42.5667 154.442 42.9278C154.183 43.0913 153.95 43.2937 153.752 43.528C153.433 43.8853 153.248 44.3427 153.229 44.8216L155.827 44.749C155.791 44.2309 155.69 43.7195 155.525 43.2271C155.347 42.6616 155.048 42.1417 154.649 41.7038C154.142 41.172 153.451 40.8532 152.718 40.8119C152.111 40.7883 151.507 40.9026 150.95 41.146L152.789 42.1289C152.715 41.7479 152.609 41.374 152.471 41.0114C152.312 40.5724 152.077 40.1651 151.776 39.8086C151.538 39.5312 151.236 39.3161 150.896 39.1822C150.484 39.0204 150.029 39 149.604 39.1243C149.065 39.2968 148.585 39.6176 148.22 40.0502L149.995 39.824C149.546 39.525 149.047 39.3089 148.521 39.1862C148.172 39.1082 147.811 39.0978 147.458 39.1557C147.004 39.2307 146.583 39.4432 146.253 39.7646C145.782 40.2655 145.499 40.9134 145.45 41.5991C145.427 41.8451 145.417 42.0922 145.419 42.3393L145.442 42.9142C145.519 44.4225 145.676 45.9257 145.914 47.4172C146.275 50.5625 147.376 53.5773 149.127 56.2142C149.684 56.9499 150.122 57.3818 150.616 57.9594L152.062 59.596L154.953 62.869L160.771 69.3835L160.437 68.1883C158.49 79.8822 155.181 91.3075 150.579 102.231C148.27 107.684 145.615 113.025 142.874 118.317L138.727 126.246L134.457 134.197C134.443 134.223 134.44 134.253 134.447 134.281C134.455 134.31 134.473 134.334 134.499 134.349C134.524 134.364 134.554 134.369 134.582 134.363C134.611 134.357 134.636 134.339 134.652 134.315L134.732 134.197C136.315 131.828 137.917 129.187 139.459 126.664C141.006 124.108 142.558 121.552 144.038 118.954C147.006 113.763 149.906 108.522 152.471 103.073C154.984 97.6015 157.142 91.9731 158.931 86.2231C159.828 83.3486 160.642 80.4496 161.373 77.526C162.075 74.597 162.701 71.6515 163.251 68.6895C163.29 68.4816 163.282 68.2676 163.227 68.0634C163.171 67.8592 163.07 67.6702 162.932 67.5106L162.917 67.4939L157.148 60.9133L154.245 57.6388L152.794 56.0015C152.338 55.4744 151.753 54.8631 151.441 54.4267C149.997 52.1631 149.069 49.6092 148.721 46.9462C148.48 45.5609 148.314 44.1638 148.222 42.7608L148.193 42.2436C148.183 42.1016 148.206 42.0113 148.202 41.8919C148.214 41.6999 148.304 41.5689 148.179 41.7317C148.11 41.7962 148.025 41.841 147.933 41.8616C147.868 41.8616 147.905 41.8621 147.954 41.8662C148.138 41.9138 148.315 41.9876 148.478 42.0852L148.52 42.1119C148.792 42.2836 149.116 42.3525 149.434 42.3061C149.751 42.2597 150.042 42.1011 150.254 41.859C150.351 41.748 150.515 41.6476 150.331 41.7354C150.195 41.7611 150.056 41.7508 149.926 41.7056C149.869 41.6838 149.816 41.6518 149.771 41.6112C149.856 41.7254 149.924 41.8514 149.972 41.9852C150.053 42.1906 150.117 42.4019 150.165 42.6172C150.207 42.8072 150.289 42.9861 150.405 43.142C150.521 43.298 150.669 43.4274 150.839 43.5218C151.009 43.6161 151.197 43.6732 151.391 43.6893C151.585 43.7054 151.78 43.6801 151.963 43.6151L152.004 43.6002C152.179 43.5189 152.367 43.4717 152.56 43.4611C152.663 43.4703 152.658 43.4555 152.751 43.5325C152.887 43.6914 152.988 43.8765 153.05 44.0763C153.141 44.3414 153.202 44.6161 153.231 44.895L155.829 44.8223C155.816 45.203 155.708 45.1938 155.745 45.1868C155.772 45.1547 155.804 45.1269 155.839 45.1043C155.932 45.0387 156.01 45.0408 155.96 45.0389C155.906 45.0416 155.865 44.9635 155.942 45.0577C155.973 45.1007 156.01 45.1884 156.054 45.2591L156.163 45.582C156.297 46.1098 156.289 46.6066 156.425 47.5418C156.566 48.3354 156.811 49.107 157.152 49.8372C157.808 51.1941 158.642 52.4573 159.631 53.5933C160.585 54.71 161.63 55.7445 162.757 56.6859C162.833 56.7498 162.918 56.8028 163.009 56.8432L163.05 56.8605C164.052 57.274 164.998 57.813 165.865 58.4648C166.747 59.1368 167.553 59.9025 168.27 60.7484C168.998 61.6105 169.658 62.5268 170.246 63.4894C170.833 64.4483 171.339 65.4539 171.761 66.496C171.782 66.5508 171.809 66.6091 171.836 66.6601C172.532 68.1226 173.06 69.6593 173.41 71.241C173.801 72.8772 174.108 74.5324 174.329 76.2002C174.751 79.5669 174.964 82.9564 174.969 86.3494C174.953 93.1661 174.423 99.9718 173.382 106.708C172.276 113.435 170.605 120.055 168.386 126.5C166.207 132.938 163.533 139.198 160.388 145.222C158.827 148.229 157.14 151.157 155.327 154.005L153.947 156.122L152.493 158.179C152.021 158.876 151.484 159.518 150.972 160.18L150.197 161.168L149.377 162.035C147.226 164.414 144.417 166.098 141.307 166.875C138.192 167.622 134.922 167.373 131.955 166.165C128.951 164.866 126.269 162.921 124.101 160.467C121.869 157.967 119.95 155.203 118.389 152.236C116.799 149.242 115.395 146.153 114.183 142.987C112.964 139.811 111.919 136.562 110.929 133.29C110.924 133.273 110.916 133.257 110.904 133.243C110.893 133.229 110.879 133.217 110.863 133.208C110.848 133.2 110.83 133.194 110.812 133.192C110.794 133.191 110.776 133.192 110.759 133.197C110.726 133.207 110.698 133.229 110.68 133.259C110.663 133.289 110.657 133.324 110.663 133.358Z" fill="#2B2B2B"/>
    <path d="M350.412 329.872C351.97 336.18 354.866 342.078 358.903 347.167C360.981 349.748 363.508 351.933 366.362 353.615C367.809 354.493 369.164 355.115 370.548 355.941L374.663 358.33C380.124 361.579 385.626 364.813 391.069 368.145C396.537 371.439 401.877 374.944 407.099 378.61L406.94 378.368C407.204 380.159 406.954 381.989 406.218 383.643C405.457 385.25 404.158 386.539 402.547 387.286C402.154 387.489 401.744 387.659 401.322 387.793L400.028 388.141C399.14 388.298 398.244 388.407 397.345 388.466C396.43 388.443 395.524 388.489 394.612 388.414L391.876 388.123L392.176 388.214C386.743 385.347 381.265 382.577 375.74 379.904C370.214 377.218 364.677 374.569 358.925 372.282C357.492 371.705 356.022 371.178 354.531 370.675L353.367 370.341C352.959 370.206 352.539 370.11 352.112 370.055L351.411 369.961L351.063 369.92L350.813 369.91C350.473 369.912 350.134 369.891 349.797 369.846C346.911 369.428 344.141 368.421 341.66 366.887C339.117 365.365 336.852 363.421 334.963 361.136C333.091 358.794 331.651 356.137 330.709 353.29L330.695 353.247L330.683 353.219C330.129 352.157 329.595 351.072 329.094 349.979C328.569 348.904 328.141 347.784 327.816 346.632L327.814 346.622C327.807 346.592 327.789 346.565 327.763 346.548C327.737 346.531 327.706 346.525 327.675 346.53C327.645 346.536 327.618 346.552 327.599 346.577C327.581 346.602 327.573 346.633 327.577 346.664C327.769 347.875 328.089 349.063 328.532 350.207C328.941 351.354 329.379 352.485 329.848 353.614L329.821 353.544C331.342 359.764 335.2 365.157 340.594 368.6C341.928 369.478 343.343 370.229 344.818 370.842C346.313 371.489 347.882 371.946 349.49 372.205C349.911 372.276 350.335 372.319 350.762 372.333L351.086 372.35L351.306 372.393L351.741 372.471C352.074 372.521 352.401 372.604 352.717 372.719L353.757 373.037C355.16 373.54 356.567 374.072 357.968 374.665C360.77 375.824 363.575 377.033 366.358 378.292C369.148 379.537 371.942 380.78 374.719 382.066L391.348 389.863L391.421 389.897C391.492 389.93 391.57 389.95 391.649 389.954L394.545 390.111C395.511 390.134 396.49 390.031 397.458 389.995C398.431 389.876 399.397 389.701 400.351 389.472L401.763 389.008C402.229 388.833 402.68 388.618 403.112 388.368C404.898 387.424 406.3 385.885 407.075 384.018C407.816 382.18 408.031 380.171 407.696 378.218C407.688 378.17 407.671 378.125 407.646 378.084C407.62 378.043 407.586 378.008 407.546 377.981L407.537 377.975C402.236 374.406 396.979 370.774 391.767 367.078C386.519 363.427 381.283 359.744 375.768 356.467C373.068 354.786 370.11 353.303 367.37 351.809C364.677 350.303 362.26 348.348 360.222 346.029C358.137 343.679 356.304 341.117 354.752 338.385C353.149 335.643 351.775 332.773 350.645 329.805L350.642 329.797C350.631 329.769 350.609 329.745 350.581 329.732C350.553 329.718 350.521 329.716 350.492 329.726C350.462 329.735 350.438 329.755 350.423 329.783C350.408 329.81 350.404 329.842 350.412 329.872L350.412 329.872Z" fill="#2B2B2B"/>
    <path d="M407.318 378.293C407.318 378.293 416.576 392.763 397.036 398.898C397.036 398.898 385.534 401.95 367.024 383.379C367.024 383.379 358.571 375.299 356.297 375.596L359.059 383.098L349.124 386.524L337.068 380.955L331.058 355.76C332.867 359.779 335.643 363.287 339.137 365.97C342.632 368.653 346.735 370.428 351.082 371.135C366.411 373.947 378.368 383.292 391.763 389.039C391.763 389.039 409.058 392.079 407.318 378.293Z" fill="#2B2B2B"/>
    <path d="M395.011 369.979C395.011 369.979 383.352 370.83 381.395 383.936L370.273 378.663C370.273 378.663 372.324 362.595 386.539 364.441C386.539 364.441 391.286 363.626 395.011 369.979Z" fill="#2B2B2B"/>
    <path d="M274.436 345.025C272.7 351.286 272.325 357.846 273.334 364.265C273.88 367.534 275.009 370.677 276.666 373.546C277.537 374.998 278.373 376.232 279.177 377.63L281.579 381.74C284.741 387.257 287.945 392.78 291.049 398.36C294.185 403.924 297.139 409.592 299.848 415.373L299.828 415.067C299.183 416.758 298.077 418.234 296.636 419.327C295.188 420.365 293.419 420.853 291.644 420.704C289.853 420.539 288.114 420.01 286.533 419.15C284.916 418.292 283.379 417.289 281.94 416.155L282.157 416.383C277.718 409.471 273.105 402.686 268.376 395.962C265.994 392.611 263.565 389.293 260.969 386.07C259.665 384.415 258.265 382.84 256.776 381.351C256.335 380.92 255.848 380.539 255.324 380.216C254.931 379.999 254.552 379.755 254.192 379.486C253.436 378.904 252.733 378.255 252.092 377.549C249.466 374.588 247.56 371.06 246.523 367.239C245.435 363.367 245.203 359.303 245.844 355.332C247.11 347.206 248.112 339.074 249.108 330.928C249.112 330.896 249.103 330.865 249.084 330.839C249.064 330.814 249.036 330.797 249.004 330.793C248.973 330.789 248.941 330.797 248.915 330.816C248.89 330.835 248.873 330.864 248.868 330.895C247.597 338.994 246.414 347.123 244.944 355.17C243.98 359.274 243.946 363.542 244.843 367.662C245.769 371.841 247.677 375.74 250.407 379.035C251.112 379.874 251.891 380.65 252.733 381.351C253.18 381.714 253.653 382.044 254.147 382.337C254.483 382.571 254.796 382.835 255.083 383.126C256.464 384.565 257.761 386.082 258.967 387.67C261.476 390.862 263.899 394.156 266.327 397.444C271.183 404.024 275.892 410.733 280.624 417.414L280.65 417.451C280.702 417.524 280.767 417.589 280.841 417.641C282.421 418.771 284.107 419.743 285.876 420.543C287.674 421.38 289.619 421.851 291.6 421.93C293.627 421.993 295.611 421.337 297.202 420.078C298.749 418.835 299.925 417.19 300.6 415.323C300.618 415.273 300.625 415.22 300.621 415.168C300.618 415.115 300.604 415.064 300.58 415.017C297.678 409.318 294.902 403.566 292.176 397.776C289.399 392.015 286.649 386.23 283.456 380.661C281.925 377.871 280.088 375.118 278.382 372.503C276.792 369.852 275.661 366.953 275.034 363.926C274.354 360.856 274.016 357.72 274.028 354.575C273.981 351.398 274.196 348.223 274.672 345.082L274.673 345.075C274.678 345.044 274.67 345.013 274.653 344.988C274.635 344.962 274.608 344.944 274.578 344.938C274.548 344.932 274.516 344.937 274.49 344.954C274.464 344.97 274.444 344.995 274.436 345.025L274.436 345.025Z" fill="#2B2B2B"/>
    <path d="M300.213 415.195C300.213 415.195 301.169 432.352 281.141 428.08C281.141 428.08 269.625 425.077 262.626 399.797C262.626 399.797 259.232 388.6 257.107 387.74L255.828 395.632L245.493 393.727L237.73 382.945L244.868 358.046C244.47 362.436 245.165 366.857 246.891 370.913C248.616 374.969 251.318 378.534 254.756 381.289C266.724 391.281 272.548 405.303 281.39 416.899C281.39 416.899 294.959 428.057 300.213 415.195Z" fill="#2B2B2B"/>
    <path d="M293.579 401.898C293.579 401.898 283.008 396.902 274.868 407.353L267.773 397.287C267.773 397.287 277.449 384.304 288.922 392.907C288.922 392.907 293.456 394.533 293.579 401.898Z" fill="#2B2B2B"/>
    <path d="M326.886 193.612C326.854 193.647 326.824 193.685 326.797 193.726L326.79 193.735L326.779 193.748L325.34 195.384C325.303 195.426 325.278 195.478 325.269 195.533C325.26 195.588 325.267 195.645 325.288 195.697C325.31 195.749 325.345 195.793 325.391 195.826C325.437 195.858 325.491 195.877 325.547 195.88L325.572 195.882C332.402 196.287 339.233 196.533 346.063 196.663L351.186 196.752C352.109 196.793 353.034 196.746 353.948 196.61C355.389 196.365 356.759 195.806 357.959 194.973C359.16 194.139 360.163 193.051 360.896 191.786C361.857 190.113 362.318 188.2 362.225 186.273C362.125 179.434 361.869 172.593 361.804 165.754C361.774 158.916 361.918 152.08 362.239 145.246C362.31 144.352 362.294 143.454 362.191 142.563C362.073 141.64 361.82 140.74 361.44 139.89C360.681 138.156 359.438 136.677 357.859 135.633C356.259 134.574 354.388 133.996 352.47 133.967L347.347 133.871L342.224 133.805C339.277 133.771 336.431 134.883 334.286 136.907C332.141 138.932 330.865 141.71 330.726 144.658C329.927 158.309 329.43 171.978 329.235 185.663L329.235 185.709L329.236 185.74C329.276 186.403 329.239 187.068 329.127 187.722C329.016 188.407 328.854 189.082 328.645 189.743C328.201 191.082 327.616 192.37 326.9 193.586C326.891 193.601 326.884 193.618 326.881 193.636C326.879 193.654 326.879 193.672 326.884 193.69C326.888 193.707 326.895 193.724 326.906 193.738C326.917 193.753 326.93 193.765 326.946 193.775C326.975 193.792 327.009 193.798 327.043 193.792C327.076 193.786 327.106 193.767 327.127 193.74C327.568 193.167 327.979 192.572 328.358 191.956C328.734 191.33 329.069 190.681 329.362 190.013C329.654 189.336 329.897 188.638 330.089 187.926C330.295 187.186 330.411 186.424 330.435 185.656L330.435 185.732C331.815 172.115 332.886 158.48 333.647 144.825C333.714 143.35 334.138 141.914 334.882 140.639C335.638 139.368 336.707 138.312 337.987 137.574C339.277 136.83 340.736 136.428 342.224 136.407L347.347 136.341L352.47 136.245C354.001 136.191 355.517 136.571 356.842 137.342C358.167 138.112 359.248 139.242 359.961 140.6C360.33 141.289 360.592 142.031 360.738 142.8C360.877 143.602 360.937 144.416 360.918 145.23C361.078 152.07 361.057 158.907 360.855 165.743C360.622 172.578 360.196 179.41 359.927 186.245C359.946 187.756 359.552 189.243 358.789 190.546C358.026 191.818 356.926 192.852 355.61 193.534C354.955 193.876 354.254 194.119 353.528 194.254C352.754 194.38 351.97 194.431 351.186 194.405L346.063 194.494C339.233 194.624 332.403 194.871 325.572 195.275L325.805 195.773L327.03 193.918L327.012 193.94C327.059 193.866 327.102 193.789 327.141 193.714C327.155 193.686 327.159 193.653 327.152 193.622C327.144 193.591 327.125 193.564 327.099 193.546C327.073 193.528 327.041 193.52 327.009 193.524C326.978 193.528 326.948 193.543 326.927 193.566L326.886 193.612Z" fill="#2B2B2B"/>
    <path d="M293.625 226.621C293.073 227.502 292.65 228.458 292.369 229.46C292.092 230.412 291.901 231.386 291.796 232.371C291.688 233.357 291.67 234.35 291.741 235.338C291.804 236.377 292.018 237.401 292.375 238.378C292.93 237.498 293.354 236.542 293.635 235.54C293.912 234.588 294.102 233.614 294.204 232.628C294.309 231.642 294.327 230.65 294.257 229.661C294.192 228.623 293.98 227.599 293.625 226.621Z" fill="white"/>
</svg>
