<svg width="374" height="533" viewBox="0 0 374 533" fill="none" xmlns="http://www.w3.org/2000/svg">
    <path d="M276.861 247.872L314.089 263.468C312.161 263.998 310.261 264.599 308.347 265.157L302.676 266.989C298.889 268.205 295.132 269.536 291.389 270.866C287.647 272.226 283.904 273.585 280.204 275.059C276.561 276.49 272.904 277.949 269.318 279.538C267.318 266.688 264.318 252.966 260.39 249.775L276.861 247.872Z" fill="#2B2B2B"/>
    <path d="M314.09 263.468V289.969C307.204 293.174 291.775 298.239 272.304 304.049C272.304 304.049 271.29 292.23 269.318 279.566C273.104 278.507 276.861 277.319 280.575 276.089C284.361 274.873 288.119 273.542 291.861 272.211C295.604 270.852 299.347 269.492 303.047 268.019L308.589 265.815C310.418 265.028 312.275 264.298 314.09 263.468Z" fill="#2B2B2B"/>
    <path d="M46.9321 277.477C48.346 277.048 49.7321 276.576 51.1034 276.018L49.2033 283.573C47.3552 281.748 45.3942 280.042 43.332 278.464C44.5318 278.164 45.7462 277.849 46.9321 277.477Z" fill="#2B2B2B"/>
    <path d="M173.375 306.41C153.504 303.205 99.1468 285.49 89.361 278.035C82.161 272.54 73.918 263.54 72.8466 242.076C71.2757 251.849 69.6616 261.623 68.0042 271.396L67.9471 271.739C69.1626 271.052 70.4715 270.546 71.8325 270.237C73.3619 269.846 74.9467 269.72 76.5185 269.865C75.1786 270.699 73.7042 271.295 72.161 271.625C70.7707 271.975 69.335 272.11 67.9038 272.025L64.0038 294.705C67.5613 297.123 71.0896 299.556 74.5751 302.06L80.0613 305.981L85.5042 309.973C89.1328 312.635 92.7755 315.267 96.3469 318.015C99.9183 320.748 103.532 323.409 107.075 326.2L107.09 326.214C107.168 326.286 107.223 326.381 107.247 326.486C109.989 325.699 112.762 324.969 115.518 324.211L124.332 321.95C130.218 320.462 136.118 319.088 142.004 317.657C147.932 316.326 153.833 314.938 159.761 313.679C165.69 312.406 171.618 311.161 177.59 310.073C171.761 311.733 165.875 313.25 160.004 314.738C154.133 316.24 148.218 317.6 142.333 319.045C136.418 320.361 130.518 321.749 124.59 323.023L115.69 324.897C112.875 325.441 110.075 326.014 107.261 326.529C107.261 326.543 107.29 326.557 107.29 326.572C107.804 332.338 108.289 338.105 108.633 343.886C107.732 338.248 106.975 332.596 106.247 326.929C102.632 324.368 99.1042 321.706 95.5328 319.102C91.8895 316.469 88.3181 313.722 84.7327 311.018L79.347 306.939L74.0324 302.79C70.6465 300.171 67.3038 297.481 63.9898 294.762L62.8466 301.43C62.8178 301.592 62.7265 301.735 62.5927 301.829C62.4588 301.922 62.2933 301.959 62.1323 301.931C62.0975 301.928 62.0636 301.919 62.0325 301.903L46.547 296.508C46.391 296.449 46.2615 296.335 46.1827 296.188C46.1038 296.041 46.0809 295.87 46.1181 295.707L49.1468 283.773C46.5011 282.324 43.9615 280.689 41.547 278.879C39.6469 280.253 37.7754 281.641 35.8613 283C33.7756 284.446 31.7179 285.934 29.6036 287.365C31.547 285.719 33.5183 284.116 35.4895 282.5C37.3185 280.997 39.1753 279.538 41.0322 278.064C41.0462 277.958 41.0803 277.856 41.1327 277.763C40.0327 273.528 39.061 269.264 38.0467 265C36.9753 260.592 35.9896 256.157 35.0326 251.721C34.0324 247.285 33.0753 242.849 32.1895 238.385C31.261 233.935 30.4037 229.484 29.6036 225.006C30.8327 229.384 32.0039 233.777 33.0893 238.184C34.2325 242.577 35.2893 246.999 36.3182 251.42C37.375 255.842 38.4039 260.263 39.3469 264.699C40.2754 268.906 41.2185 273.113 42.075 277.334C43.6041 276.976 45.1324 276.647 46.6753 276.375C48.1611 276.118 49.6469 275.917 51.1613 275.789L52.8326 269.221L59.6322 242.735L59.6469 242.692V242.677C60.5005 240.363 61.1737 237.985 61.6607 235.566C62.2188 233.212 62.2042 230.758 61.6181 228.411C61.2596 227.296 60.6084 226.298 59.7327 225.521C59.2724 225.134 58.7855 224.78 58.2756 224.462L57.4755 223.933L57.0612 223.589C57.004 223.575 56.9614 223.532 56.8038 223.475C54.4067 222.928 51.9707 222.569 49.5179 222.401C39.5751 221.5 29.5898 220.971 19.6184 220.427C24.6037 220.498 29.6037 220.641 34.6037 220.827C39.6037 221.013 44.5898 221.214 49.5898 221.6C50.8328 221.7 52.0898 221.815 53.3328 221.958C54.6171 222.058 55.8892 222.278 57.1323 222.616C57.3391 222.682 57.5327 222.784 57.7043 222.917L58.0182 223.174L58.7896 223.661C59.3456 223.992 59.8757 224.365 60.3752 224.777C61.3996 225.654 62.1694 226.79 62.6038 228.068C63.2875 230.58 63.3609 233.22 62.818 235.766C62.3551 238.25 61.6861 240.691 60.8181 243.064L54.1607 269.55L47.5613 295.449L61.7612 300.486L67.2041 271.253C69.047 261.494 70.9278 251.74 72.8466 241.991C72.5295 232.599 73.1904 223.199 74.8185 213.945L48.6613 211.198C46.0258 210.955 43.5302 209.901 41.5184 208.178C39.3776 207.865 37.2553 207.435 35.161 206.89C34.6184 206.762 34.0756 206.619 33.5323 206.447C33.2609 206.361 32.9896 206.275 32.7043 206.175C32.6723 206.161 32.6385 206.151 32.6039 206.146H32.5613C32.4645 206.157 32.3688 206.176 32.2753 206.204C31.2669 206.52 30.291 206.932 29.361 207.434C27.3897 208.393 25.4471 209.452 23.4758 210.453C21.5185 211.498 19.518 212.485 17.4895 213.43C20.9731 210.616 24.7413 208.174 28.7325 206.146C29.7744 205.617 30.8654 205.19 31.9901 204.873C32.1735 204.837 32.3598 204.817 32.5467 204.816C32.7719 204.828 32.9936 204.877 33.2038 204.959C33.4326 205.073 33.69 205.159 33.9328 205.259L35.4897 205.832C37.4756 206.533 39.4615 207.277 41.4328 208.092C39.3611 206.118 37.8753 202.927 38.7472 197.718L40.0754 162.389L34.7182 161.287C34.7182 161.287 30.7757 162.174 38.561 139.652L51.0038 103.808C51.0038 103.808 2.13242 109.846 0.361405 111.62C-1.41035 113.395 10.6327 232.961 27.2901 290.083C27.2901 290.083 103.089 344.372 107.69 346.146C109.932 346.991 151.947 336.903 197.847 324.783C197.847 324.783 193.232 309.615 173.375 306.41ZM13.1752 138.464C12.0179 131.424 10.904 124.384 9.93233 117.315C11.4753 124.284 12.8753 131.281 14.2466 138.278C15.6187 145.275 16.8756 152.301 18.1898 159.312C19.3896 166.338 20.6612 173.364 21.8038 180.404L23.5037 190.964C24.0185 194.499 24.5751 198.019 25.0467 201.553C24.2612 198.076 23.561 194.584 22.8041 191.093L20.7184 180.59C19.3469 173.593 18.104 166.567 16.7898 159.556C15.5894 152.53 14.3184 145.519 13.1752 138.464Z" fill="#2B2B2B"/>
    <path d="M145.246 55.5574C142.646 55.5574 139.331 56.974 136.031 57.6895C132.731 58.4049 125.175 56.974 124.46 54.8562C123.746 52.7242 119.289 35.1526 118.56 35.9826C117.846 36.8124 116.432 38.2863 116.432 38.2863C116.432 38.2863 116.189 59.6927 116.66 61.9965C117.146 64.3146 125.874 75.9049 138.86 74.7173C151.846 73.5296 153.746 58.1617 153.746 58.1617C153.746 58.1617 147.832 55.5574 145.246 55.5574ZM147.389 61.9106C146.435 62.499 145.32 62.7695 144.203 62.6833C143.118 62.6003 142.067 62.2673 141.132 61.7103C140.222 61.1824 139.445 60.4532 138.86 59.5782C140.556 60.4577 142.394 61.0294 144.289 61.2667C145.176 61.3334 146.067 61.2115 146.903 60.909C147.809 60.557 148.676 60.111 149.489 59.5782C149.034 60.5463 148.303 61.3578 147.389 61.9106Z" fill="#2B2B2B"/>
    <path d="M116.431 38.2928C116.431 38.2928 128.238 27.1758 127.293 13.4569C127.293 13.4569 130.363 10.6185 135.322 15.3492C135.322 15.3492 139.573 16.5318 144.532 11.3281C149.491 6.1244 152.089 13.6934 152.089 13.6934C152.089 13.6934 154.686 21.7355 155.395 19.6067C156.103 17.4779 157.284 7.30703 146.657 3.99558C138.394 1.52997 129.756 0.56863 121.154 1.1572C118.32 1.63026 112.416 6.3609 112.416 12.9838C112.416 19.6067 109.583 27.8853 109.819 30.4872C110.055 33.0891 116.431 38.2928 116.431 38.2928Z" fill="#2B2B2B"/>
    <path d="M127.058 35.4544C129.348 34.5779 131.807 34.2328 134.249 34.4451C135.478 34.5508 136.688 34.8151 137.849 35.2315C139.003 35.6568 140.069 36.2939 140.99 37.1101C139.901 36.638 138.775 36.2556 137.624 35.9667C136.485 35.7052 135.33 35.5247 134.166 35.4266C131.799 35.2646 129.423 35.2739 127.058 35.4544Z" fill="#2B2B2B"/>
    <path d="M147.13 35.9839C148.077 34.9446 149.243 34.1296 150.544 33.5981C151.834 32.9867 153.287 32.8082 154.687 33.089C153.409 33.4968 152.153 33.9699 150.924 34.5063C149.693 35.0129 148.48 35.564 147.13 35.9839Z" fill="#2B2B2B"/>
    <path d="M136.031 40.4805C136.414 40.4673 136.777 40.3058 137.043 40.03C137.309 39.7542 137.457 39.3857 137.457 39.0022C137.457 38.6188 137.309 38.2503 137.043 37.9745C136.777 37.6987 136.414 37.5372 136.031 37.5239C135.649 37.5372 135.286 37.6987 135.02 37.9745C134.754 38.2503 134.605 38.6188 134.605 39.0022C134.605 39.3857 134.754 39.7542 135.02 40.03C135.286 40.3058 135.649 40.4673 136.031 40.4805Z" fill="#2B2B2B"/>
    <path d="M151.145 39.5343C151.527 39.5211 151.89 39.3595 152.156 39.0837C152.422 38.8079 152.57 38.4394 152.57 38.056C152.57 37.6725 152.422 37.304 152.156 37.0282C151.89 36.7524 151.527 36.5909 151.145 36.5776C150.762 36.5909 150.399 36.7524 150.133 37.0282C149.867 37.304 149.719 37.6725 149.719 38.056C149.719 38.4394 149.867 38.8079 150.133 39.0837C150.399 39.3595 150.762 39.5211 151.145 39.5343Z" fill="#2B2B2B"/>
    <path d="M109.818 30.4873C109.302 30.7021 108.841 31.0305 108.468 31.448C108.096 31.8655 107.822 32.3616 107.666 32.8995C107.368 33.9623 107.37 35.087 107.672 36.1488C108.359 38.3208 109.17 40.4517 110.099 42.5313C110.93 44.7055 111.585 46.9429 112.059 49.2221C112.25 50.2919 112.778 51.2723 113.566 52.0198C113.987 52.3866 114.481 52.6599 115.016 52.8216C115.55 52.9833 116.113 53.0297 116.667 52.9578C116.093 53.1255 115.49 53.162 114.901 53.0647C114.312 52.9674 113.752 52.7387 113.263 52.3955C112.299 51.6253 111.615 50.5594 111.315 49.3618C110.738 47.1581 110.025 44.9926 109.179 42.8777C108.786 41.8029 108.384 40.7299 107.955 39.6664C107.484 38.5848 107.14 37.4517 106.932 36.2902C106.693 35.1007 106.792 33.868 107.217 32.7318C107.443 32.1787 107.796 31.687 108.249 31.2969C108.701 30.9068 109.239 30.6294 109.818 30.4873Z" fill="#2B2B2B"/>
    <path d="M148.311 46.5713C148.875 48.0677 148.858 49.7216 148.262 51.2058C147.935 52.0003 147.326 52.6454 146.552 53.017C145.791 53.3217 144.944 53.3289 144.179 53.0374C144.889 52.9465 145.572 52.7092 146.186 52.3407C146.711 51.9472 147.118 51.4171 147.363 50.808C147.855 49.4412 148.174 48.0178 148.311 46.5713Z" fill="#2B2B2B"/>
    <path d="M155.395 19.6064C155.195 22.8544 155.188 26.1114 155.376 29.3601C155.474 30.9711 155.659 32.5756 155.931 34.1665C156.218 35.7273 156.672 37.3262 156.945 38.9567C157.5 42.2312 157.464 45.5788 156.84 48.8407C156.161 52.0544 155.122 55.181 153.742 58.1612C154.759 55.0742 155.545 51.9159 156.094 48.7123C156.589 45.5302 156.549 42.2875 155.976 39.1186C155.739 37.5251 155.325 35.9703 155.05 34.3176C154.782 32.6893 154.639 31.0426 154.623 29.3923C154.561 26.1129 154.82 22.8353 155.395 19.6064Z" fill="#2B2B2B"/>
    <path d="M116.667 61.9985C116.471 63.891 115.767 65.6949 114.629 67.2185C114.05 67.9925 113.339 68.6586 112.529 69.1866C111.71 69.6945 110.768 69.9714 109.805 69.9881C110.623 69.617 111.387 69.1382 112.078 68.5642C112.729 67.9777 113.32 67.3285 113.844 66.6259C114.377 65.9119 114.869 65.1672 115.315 64.3956C115.764 63.6145 116.226 62.8258 116.667 61.9985Z" fill="#2B2B2B"/>
    <path d="M115.741 64.5263C108.564 65.9862 101.542 68.1222 94.7664 70.9057C91.2541 72.1829 87.5816 72.9648 83.8543 73.229C80.2324 73.4407 76.6252 73.8559 73.0497 74.4726C72.2432 74.6487 71.4691 74.9504 70.7559 75.3667C69.9363 75.8754 69.0722 76.3084 68.1743 76.6603C66.5409 77.2678 65.0362 78.1776 63.7385 79.3422C61.2616 81.9234 59.2255 84.8952 57.7117 88.1385C56.8534 89.7382 56.1684 91.4337 55.4144 93.0945C54.7325 94.7887 54.0472 96.4855 53.4075 98.2006C52.8042 99.9298 52.1642 101.648 51.5894 103.389L49.9502 108.643L49.9464 108.656L49.9394 108.676C46.5238 117.235 43.4201 125.913 40.6282 134.71C39.2454 139.105 37.9388 143.525 36.8231 147.979C36.2728 150.207 35.7538 152.442 35.3652 154.68C35.1677 155.785 35.0319 156.9 34.9586 158.019C34.9266 158.55 34.935 159.082 34.9837 159.611C34.9951 159.982 35.1063 160.342 35.3056 160.655L34.8996 160.447C43.0138 162.044 51.1339 163.637 59.2648 165.141L71.4516 167.418L77.5502 168.449C79.5297 168.794 81.5252 169.039 83.5292 169.183L84.1218 169.189C84.1232 169.157 84.1075 169.193 84.1434 169.17C84.1836 169.129 84.2289 169.094 84.278 169.064C84.5489 168.749 84.7747 168.398 84.9491 168.02C85.3646 167.133 85.7082 166.214 85.9765 165.271C86.5248 163.309 86.9635 161.318 87.2907 159.307C87.9788 155.262 88.3454 151.151 88.63 147.038C88.8884 142.922 88.9724 138.795 88.8818 134.659C88.8218 130.526 88.5766 126.392 88.1142 122.276C88.1117 122.25 88.1191 122.225 88.1348 122.205C88.1505 122.185 88.1733 122.172 88.1983 122.169C88.2234 122.165 88.249 122.171 88.2696 122.186C88.2902 122.201 88.3044 122.223 88.3091 122.248C89.0011 126.339 89.4786 130.472 89.7701 134.621C90.0244 138.772 90.0996 142.931 89.9958 147.1C89.8937 151.273 89.5518 155.438 88.9718 159.572C88.6822 161.66 88.276 163.73 87.7553 165.773C87.4807 166.831 87.1199 167.864 86.6766 168.863C86.4261 169.432 86.0914 169.96 85.684 170.429C85.5385 170.563 85.3802 170.695 85.2211 170.818C85.0078 170.947 84.7784 171.048 84.5389 171.117C84.2038 171.15 83.9031 171.149 83.5823 171.159C81.458 171.034 79.3421 170.792 77.2444 170.434L71.099 169.427C67.017 168.703 62.9377 167.979 58.8749 167.176C50.7523 165.552 42.644 163.871 34.5498 162.133L34.4821 162.118C34.3519 162.09 34.2336 162.022 34.1435 161.924C33.6223 161.33 33.3279 160.57 33.3123 159.779C33.2678 159.158 33.2711 158.535 33.3221 157.915C33.4258 156.734 33.5956 155.561 33.8307 154.399C34.2799 152.1 34.8613 149.851 35.5055 147.625C36.79 143.171 38.2566 138.788 39.7678 134.424C41.3049 130.069 42.8517 125.721 44.4435 121.389L49.2643 108.41L49.2535 108.443C51.0932 101.287 53.4834 94.2856 56.4026 87.5001C57.8684 84.0099 59.9656 80.8211 62.5884 78.0943C64.0169 76.7818 65.6762 75.7462 67.482 75.0402C68.2903 74.7141 69.0734 74.3286 69.8251 73.887C70.702 73.3808 71.6539 73.0179 72.6449 72.812C76.3084 72.223 80.0028 71.8466 83.7097 71.6847C85.523 71.5251 87.3285 71.3314 89.1021 71.0058C90.8788 70.7318 92.6272 70.2978 94.326 69.709C101.224 67.0984 108.399 65.2939 115.71 64.3315C115.736 64.3279 115.762 64.3346 115.783 64.3503C115.804 64.366 115.817 64.3893 115.821 64.4152C115.824 64.4404 115.817 64.4657 115.802 64.4862C115.787 64.5067 115.766 64.521 115.741 64.5263Z" fill="#2B2B2B"/>
    <path d="M138.908 85.0313C138.747 85.892 138.706 86.7711 138.787 87.6431C138.839 88.5257 138.896 89.407 138.98 90.2879L139.519 95.5679C139.907 99.0861 140.368 102.597 140.798 106.111L141.481 111.377C141.912 113.229 141.629 115.176 140.689 116.828C140.38 117.221 139.997 117.548 139.561 117.792C139.125 118.036 138.645 118.192 138.149 118.25C137.653 118.308 137.151 118.267 136.67 118.13C136.19 117.993 135.742 117.762 135.35 117.451C134.959 117.144 134.634 116.76 134.396 116.322C134.158 115.884 134.012 115.402 133.968 114.906L133.683 112.267C133.287 108.749 132.867 105.234 132.331 101.737C132.076 99.9913 131.728 98.26 131.29 96.5507C131.182 96.1343 131.034 95.7295 130.848 95.3421C130.811 95.2559 130.755 95.1796 130.683 95.119C130.612 95.0584 130.527 95.0152 130.436 94.9928L129.829 94.7297C129.019 94.3794 128.198 94.0503 127.374 93.7309C124.082 92.4458 120.765 91.217 117.418 90.0907C115.758 89.5645 114.034 88.8129 112.439 89.3393C111.698 89.696 111.082 90.2699 110.674 90.9849C110.266 91.6999 110.084 92.5223 110.153 93.3431C110.152 93.436 110.113 93.5246 110.047 93.5892C109.98 93.6539 109.89 93.6894 109.798 93.688C109.737 93.6865 109.678 93.6695 109.625 93.6385C109.573 93.6075 109.529 93.5635 109.499 93.5109C108.572 91.8957 107.528 90.3499 106.378 88.8858C105.265 87.4172 103.963 86.1026 102.506 84.9764C101.793 84.4393 100.997 84.0237 100.149 83.7462C99.2185 83.4517 98.3235 83.0541 97.4807 82.561C95.7622 81.577 94.3098 80.1873 93.2498 78.5128C93.2354 78.4897 93.2241 78.4648 93.2163 78.4387L93.2072 78.4081C92.9422 77.4233 93.0706 76.3738 93.565 75.4822C94.0211 74.659 94.6186 73.923 95.3302 73.308C96.6963 72.1377 98.2018 71.1413 99.8123 70.3415C102.969 68.7377 106.275 67.4456 109.682 66.4833C109.768 66.4583 109.86 66.4601 109.946 66.4886C110.031 66.517 110.106 66.5707 110.161 66.6427C110.215 66.7146 110.247 66.8013 110.251 66.8915C110.255 66.9816 110.232 67.0709 110.184 67.1476L110.172 67.1686C109.626 68.0903 109.273 69.1133 109.133 70.1758C109.053 70.7166 109.009 71.2621 109.001 71.8088C109.049 72.3548 109.045 72.9083 109.142 73.451C109.509 75.6543 110.333 77.7562 111.559 79.622C112.159 80.5718 112.807 81.4894 113.503 82.3709C114.263 83.2009 114.977 84.0772 115.77 84.8797C116.59 85.6554 117.368 86.4804 118.225 87.2194L120.83 89.4032C120.835 89.407 120.839 89.4119 120.843 89.4174C120.846 89.4229 120.848 89.4291 120.849 89.4355C120.85 89.4419 120.85 89.4484 120.848 89.4547C120.847 89.461 120.844 89.4669 120.84 89.4721C120.832 89.4822 120.82 89.4888 120.807 89.4907C120.795 89.4925 120.781 89.4895 120.771 89.4821L118.066 87.4076C117.173 86.7029 116.355 85.9082 115.493 85.1608C114.651 84.3928 113.914 83.5139 113.122 82.6899C112.391 81.8072 111.707 80.8862 111.073 79.9309C109.754 78.0182 108.85 75.8506 108.417 73.567C108.301 72.9952 108.289 72.4044 108.228 71.8222C108.221 71.2335 108.255 70.645 108.328 70.0608C108.457 68.8611 108.836 67.7019 109.439 66.6576L109.929 67.3426C106.61 68.3702 103.383 69.6732 100.28 71.238C98.7502 72.0041 97.3202 72.9563 96.0226 74.073C95.3774 74.5164 94.8659 75.1287 94.5441 75.8431C94.2223 76.5576 94.1024 77.3468 94.1975 78.1248L94.1549 78.0206C95.1145 79.5427 96.4243 80.8123 97.9747 81.7228C98.7517 82.1882 99.578 82.5654 100.438 82.8474C101.378 83.1651 102.259 83.6349 103.046 84.2381C104.564 85.4228 105.905 86.8186 107.028 88.3831C108.171 89.905 109.201 91.5081 110.111 93.1798L109.458 93.3476C109.482 92.4051 109.716 91.4799 110.141 90.639C110.351 90.2035 110.647 89.8152 111.011 89.4974C111.375 89.1796 111.8 88.9389 112.259 88.7898C114.169 88.2369 115.941 89.1041 117.575 89.6332C120.915 90.8158 124.215 92.0977 127.492 93.4361L129.949 94.4435L130.563 94.7009C130.685 94.7387 130.798 94.8007 130.896 94.8833C130.994 94.9658 131.074 95.0671 131.131 95.1813C131.335 95.5888 131.498 96.0158 131.617 96.4558C132.109 98.1754 132.415 99.9235 132.743 101.667C133.385 105.157 133.909 108.665 134.403 112.176L134.764 114.811C134.802 115.199 134.919 115.575 135.107 115.916C135.296 116.257 135.552 116.556 135.861 116.794C136.473 117.275 137.249 117.493 138.021 117.402C138.793 117.31 139.498 116.917 139.981 116.306C140.409 115.616 140.67 114.835 140.744 114.026C140.832 113.178 140.801 112.322 140.654 111.483L140.029 106.203C139.612 102.683 139.28 99.1533 138.982 95.62C138.829 93.8536 138.706 92.084 138.637 90.3103C138.594 89.4244 138.577 88.536 138.565 87.6485C138.522 86.7527 138.609 85.8553 138.822 84.9842C138.826 84.9722 138.835 84.9622 138.846 84.9564C138.857 84.9506 138.87 84.9494 138.882 84.9532C138.894 84.957 138.904 84.9653 138.91 84.9765C138.916 84.9876 138.917 85.0007 138.914 85.0128L138.908 85.0313Z" fill="#2B2B2B"/>
    <path d="M143.335 73.6156C144.027 74.5965 144.638 75.6327 145.161 76.7137C145.423 77.2573 145.612 77.8363 145.842 78.4001C146.03 78.9846 146.168 79.5839 146.256 80.1917C146.474 81.4373 146.371 82.7183 145.958 83.9131C145.493 85.1371 144.609 86.156 143.465 86.7881C143.42 86.8121 143.371 86.827 143.321 86.8321C143.27 86.8372 143.219 86.8323 143.171 86.8177C143.122 86.8031 143.077 86.7791 143.038 86.747C142.999 86.7149 142.966 86.6754 142.942 86.6307C142.919 86.5875 142.904 86.5402 142.899 86.4914L142.897 86.4778C142.738 84.7608 142.373 83.0691 141.81 81.4395C141.528 80.635 141.084 79.8973 140.504 79.2726C140.221 78.9898 139.857 78.8028 139.462 78.7379C139.269 78.7621 139.083 78.8248 138.914 78.9222C138.746 79.0196 138.598 79.1498 138.481 79.3052C137.503 80.7183 136.795 82.3012 136.394 83.9733C135.896 85.6296 135.478 87.3236 135.115 89.0075L135.122 88.8466L135.567 91.9189C135.586 92.051 135.553 92.1853 135.475 92.2936C135.397 92.4018 135.28 92.4755 135.149 92.4991C135.018 92.5226 134.883 92.4942 134.772 92.4198C134.662 92.3454 134.584 92.2308 134.556 92.1003L134.554 92.0889C134.283 90.643 134.126 89.178 134.084 87.7073C134.006 86.2491 134.042 84.794 134.109 83.3439C134.232 80.447 134.532 77.5603 135.009 74.7002C135.011 74.6872 135.018 74.6757 135.029 74.668C135.039 74.6604 135.052 74.6573 135.065 74.6594C135.077 74.6616 135.088 74.668 135.095 74.6773C135.103 74.6867 135.107 74.6985 135.107 74.7105C135.012 77.6007 134.965 80.4838 134.966 83.3601C134.927 86.2124 135.126 89.063 135.561 91.8822L134.548 92.0522L134.191 88.9683L134.189 88.9524C134.184 88.9037 134.187 88.8544 134.198 88.8068C134.607 87.0916 135.118 85.4023 135.727 83.7476C136.285 82.0547 137.129 80.4699 138.221 79.062C138.374 78.8743 138.563 78.72 138.778 78.6085C138.993 78.497 139.228 78.4307 139.469 78.4136C139.939 78.4899 140.373 78.7138 140.708 79.0531C141.343 79.6899 141.839 80.4518 142.166 81.2905C142.871 82.9199 143.382 84.6269 143.689 86.3762L143.122 86.0662C144.044 85.4835 144.753 84.618 145.144 83.5987C145.543 82.543 145.666 81.4029 145.501 80.2862C145.472 79.7154 145.293 79.1566 145.208 78.5841C145.029 78.0311 144.892 77.4609 144.678 76.9146C144.443 76.3776 144.261 75.814 144.012 75.2777L143.251 73.6668C143.248 73.6611 143.246 73.6548 143.245 73.6483C143.245 73.6419 143.245 73.6353 143.247 73.6291C143.249 73.6229 143.252 73.6171 143.256 73.6121C143.26 73.6071 143.266 73.6029 143.271 73.5999C143.282 73.5946 143.294 73.5934 143.306 73.5962C143.318 73.5991 143.328 73.6059 143.335 73.6156Z" fill="#2B2B2B"/>
    <path d="M136.208 97.13C136.59 97.1167 136.953 96.9551 137.219 96.6793C137.485 96.4036 137.634 96.0351 137.634 95.6517C137.634 95.2682 137.485 94.8998 137.219 94.624C136.953 94.3482 136.59 94.1866 136.208 94.1733C135.825 94.1866 135.463 94.3482 135.197 94.624C134.931 94.8998 134.782 95.2682 134.782 95.6517C134.782 96.0351 134.931 96.4036 135.197 96.6793C135.463 96.9551 135.825 97.1167 136.208 97.13Z" fill="#FDB914"/>
    <path d="M137.271 105.291C137.654 105.277 138.016 105.116 138.282 104.84C138.548 104.564 138.697 104.196 138.697 103.812C138.697 103.429 138.548 103.06 138.282 102.785C138.016 102.509 137.654 102.347 137.271 102.334C136.889 102.347 136.526 102.509 136.26 102.785C135.994 103.06 135.846 103.429 135.846 103.812C135.846 104.196 135.994 104.564 136.26 104.84C136.526 105.116 136.889 105.277 137.271 105.291Z" fill="#FDB914"/>
    <path d="M138.157 113.096C138.54 113.083 138.902 112.921 139.168 112.645C139.434 112.369 139.583 112.001 139.583 111.617C139.583 111.234 139.434 110.866 139.168 110.59C138.902 110.314 138.54 110.152 138.157 110.139C137.775 110.152 137.412 110.314 137.146 110.59C136.88 110.866 136.731 111.234 136.731 111.617C136.731 112.001 136.88 112.369 137.146 112.645C137.412 112.921 137.775 113.083 138.157 113.096Z" fill="#FDB914"/>
    <path d="M147.568 70.8418C153.469 70.9889 159.361 71.3809 165.238 71.9862C168.179 72.2715 171.107 72.6844 174.028 73.1821C176.999 73.5969 179.905 74.3893 182.677 75.5401C183.04 75.7205 183.38 75.9435 183.691 76.2044C183.977 76.4637 184.248 76.7396 184.502 77.0307C184.99 77.5591 185.521 78.0647 186.048 78.5857C187.14 79.6223 188.125 80.7658 188.988 81.9991C190.64 84.5084 191.867 87.2736 192.619 90.1833C194.101 95.9237 195.02 101.795 195.363 107.715C194.648 101.863 193.488 96.0753 191.894 90.4008C191.088 87.6014 189.861 84.9416 188.254 82.513C187.411 81.3353 186.452 80.2455 185.392 79.26C184.865 78.7496 184.321 78.2426 183.802 77.6926C183.372 77.1575 182.833 76.7208 182.221 76.412C179.546 75.2829 176.74 74.4939 173.87 74.0632C170.983 73.5267 168.066 73.1372 165.15 72.7357C159.31 71.976 153.442 71.3945 147.568 70.8418Z" fill="#2B2B2B"/>
    <path d="M66.6045 83.3452C69.3238 82.7686 72.1567 83.0965 74.673 84.2792C77.196 85.4924 79.3509 87.3567 80.9163 89.6804C81.6983 90.8232 82.3796 92.0319 82.9524 93.293C83.4949 94.5567 83.9694 95.8485 84.374 97.1631C84.6701 98.5033 85.036 99.8246 85.2698 101.169C85.4239 102.528 85.6102 103.878 85.7322 105.231C85.3891 103.909 85.1097 102.584 84.7982 101.269C84.4714 99.9586 84.0288 98.681 83.6529 97.392C83.1496 96.1489 82.7049 94.8807 82.1413 93.6726C81.5637 92.4748 80.885 91.3287 80.1125 90.2467C78.6632 88.0261 76.6788 86.207 74.3424 84.9572C71.9642 83.7061 69.2835 83.1476 66.6045 83.3452Z" fill="#2B2B2B"/>
    <path d="M101.554 145.678C102.232 147.487 102.947 149.277 103.778 151.014C104.564 152.771 105.427 154.49 106.341 156.178C108.151 159.56 110.219 162.796 112.527 165.857C114.803 168.937 117.391 171.772 120.25 174.317L122.434 176.183C123.182 176.78 123.99 177.298 124.763 177.864L125.929 178.713C126.332 178.972 126.754 179.201 127.167 179.447L129.655 180.921C126.085 179.397 122.752 177.367 119.759 174.893C116.775 172.393 114.086 169.561 111.743 166.45C109.433 163.326 107.401 160.005 105.672 156.524C103.939 153.057 102.559 149.423 101.554 145.678Z" fill="#2B2B2B"/>
    <path d="M40.0767 162.389C40.0339 168.284 39.9041 174.175 39.8081 180.067C39.7286 185.961 39.5295 191.849 39.3952 197.74L39.3914 197.79L39.383 197.845C39.0236 200.199 39.3236 202.607 40.2497 204.8C41.2325 206.92 42.9964 208.576 45.1716 209.422C45.7306 209.603 46.2779 209.813 46.8429 209.978L48.5958 210.318C49.8092 210.497 51.0616 210.629 52.2994 210.764C54.783 211.029 57.2716 211.264 59.7653 211.471C69.7349 212.31 79.7367 212.741 89.7332 212.965C99.7254 213.195 109.723 212.864 119.678 211.973C129.57 211.017 139.618 209.498 148.605 205.187C148.693 205.145 148.793 205.137 148.886 205.164C148.98 205.191 149.06 205.252 149.112 205.334C149.82 206.44 150.801 207.343 151.96 207.957C153.143 208.582 154.449 208.937 155.785 208.997C157.14 209.049 158.495 208.906 159.809 208.572C160.461 208.38 161.114 208.18 161.763 207.965L163.66 207.177L161.805 208.071C161.167 208.323 160.52 208.561 159.87 208.792C158.543 209.208 157.16 209.418 155.77 209.415C154.343 209.434 152.932 209.107 151.658 208.461C150.384 207.816 149.285 206.871 148.454 205.708L148.961 205.855C144.47 208.199 139.69 209.94 134.744 211.032C129.83 212.163 124.855 213.01 119.844 213.569C109.832 214.594 99.7692 215.024 89.7069 214.859C79.6522 214.795 69.6159 214.156 59.6082 213.261C57.1058 213.035 54.6054 212.777 52.1072 212.489C50.8547 212.341 49.6138 212.201 48.3498 212.004L46.4145 211.611C45.7794 211.423 45.1537 211.181 44.5252 210.964C41.9894 209.922 39.9615 207.927 38.8751 205.406C37.8863 202.925 37.6159 200.215 38.0949 197.587L38.0827 197.69C38.3941 191.806 38.6411 185.919 39.0076 180.037C39.3572 174.154 39.6735 168.27 40.0767 162.389Z" fill="#2B2B2B"/>
    <path d="M76.5259 169.31C76.6894 172.55 76.7818 175.789 76.8942 179.029L76.6723 178.691C88.0526 182.778 99.9998 185.061 112.083 185.458C118.089 185.641 124.098 185.169 130.003 184.052L134.4 183.099C135.852 182.73 137.261 182.208 138.695 181.77L140.844 181.097C141.545 180.831 142.225 180.513 142.917 180.223L147.061 178.445L146.71 178.977C146.872 177.993 147.258 177.06 147.837 176.248C148.375 175.462 149.045 174.775 149.818 174.219C151.327 173.147 153.063 172.437 154.89 172.143C155.777 171.988 156.673 171.879 157.572 171.817C158.469 171.818 159.363 171.74 160.254 171.806C161.143 171.879 162.036 171.879 162.916 172.015L165.549 172.407L162.897 172.258C162.016 172.213 161.132 172.254 160.253 172.247C159.373 172.242 158.501 172.38 157.629 172.438C156.767 172.557 155.911 172.721 155.066 172.929C153.407 173.324 151.848 174.059 150.487 175.088C149.192 176.06 148.312 177.487 148.022 179.081L148.017 179.125C148.002 179.229 147.964 179.327 147.903 179.412C147.843 179.497 147.763 179.566 147.671 179.614C142.227 182.511 136.403 184.624 130.371 185.893C124.337 187.116 118.179 187.618 112.027 187.386C105.896 187.162 99.7995 186.367 93.8155 185.013C90.8353 184.315 87.8787 183.525 84.9682 182.59C82.0413 181.696 79.1728 180.62 76.3797 179.368L76.3625 179.36C76.2995 179.332 76.2464 179.285 76.2099 179.226C76.1734 179.167 76.1551 179.099 76.1574 179.029C76.2702 175.789 76.3623 172.55 76.5259 169.31Z" fill="#2B2B2B"/>
    <path d="M47.9492 186.493C49.4913 184.365 51.4581 182.581 53.7249 181.254C55.9934 179.908 58.4493 178.909 61.0118 178.287C62.3007 178.026 63.6044 177.843 64.9156 177.741C66.2211 177.613 67.5349 177.592 68.8438 177.678C70.1528 177.707 71.4425 177.972 72.7351 178.111C74.0102 178.386 75.2759 178.696 76.5262 179.029C75.2277 178.914 73.9551 178.701 72.6723 178.59C71.3843 178.55 70.1067 178.372 68.8246 178.436C66.2712 178.424 63.7243 178.696 61.2308 179.247C58.7462 179.813 56.3479 180.708 54.0992 181.909C51.8183 183.099 49.7421 184.647 47.9492 186.493Z" fill="#2B2B2B"/>
    <path d="M147.366 179.029C147.759 179.887 148.223 180.71 148.754 181.49C149.256 182.252 149.901 182.909 150.654 183.424C150.841 183.535 151.036 183.631 151.238 183.709C151.513 183.812 151.761 183.975 151.965 184.186C152.146 184.423 152.267 184.701 152.314 184.996C152.362 185.291 152.335 185.593 152.238 185.875C151.915 186.838 151.392 187.722 150.703 188.468L150.698 188.473L150.669 188.501C149.935 189.195 149.381 190.058 149.057 191.016C148.908 191.468 148.861 191.948 148.921 192.42C148.98 192.893 149.144 193.346 149.401 193.746C149.878 194.524 150.926 195.281 151.327 196.474C151.451 196.782 151.507 197.114 151.49 197.445C151.473 197.777 151.384 198.101 151.229 198.395C150.892 198.938 150.384 199.354 149.786 199.579L149.918 199.488C149.143 200.308 148.551 201.283 148.18 202.348C148 202.88 147.945 203.446 148.019 204.003C148.143 204.565 148.406 205.087 148.783 205.521C148.321 205.136 147.976 204.629 147.788 204.057C147.639 203.461 147.629 202.839 147.76 202.239C147.885 201.643 148.101 201.07 148.398 200.538C148.683 200 149.019 199.491 149.401 199.018C149.424 198.989 149.453 198.966 149.486 198.95L149.534 198.927C149.949 198.733 150.293 198.412 150.515 198.01C150.603 197.815 150.649 197.604 150.649 197.39C150.65 197.176 150.605 196.965 150.518 196.77C150.198 195.848 149.333 195.277 148.614 194.253C148.267 193.741 148.04 193.157 147.951 192.545C147.881 191.932 147.947 191.312 148.144 190.727C148.54 189.617 149.207 188.623 150.085 187.836L150.052 187.869C150.66 187.226 151.141 186.473 151.471 185.651C151.547 185.491 151.583 185.315 151.576 185.137C151.568 184.96 151.516 184.788 151.425 184.635C151.305 184.499 151.157 184.39 150.992 184.315C150.76 184.206 150.536 184.078 150.325 183.932C149.536 183.335 148.895 182.564 148.451 181.679C147.992 180.839 147.628 179.95 147.366 179.029Z" fill="#2B2B2B"/>
    <path d="M164.959 180.025C164.929 180.626 164.9 181.217 164.87 181.809C163.68 181.799 162.479 181.75 161.289 181.621C159.887 181.508 158.498 181.273 157.137 180.922C158.498 180.57 159.887 180.336 161.289 180.222C162.509 180.094 163.739 180.045 164.959 180.025Z" fill="#2B2B2B"/>
    <path d="M164.644 186.658C164.605 187.259 164.585 187.85 164.555 188.432C163.463 188.412 162.381 188.363 161.289 188.245C159.887 188.131 158.498 187.897 157.137 187.545C158.498 187.193 159.887 186.959 161.289 186.845C162.41 186.727 163.522 186.677 164.644 186.658Z" fill="#2B2B2B"/>
    <path d="M164.349 193.044C164.329 193.645 164.3 194.236 164.28 194.818C163.286 194.788 162.283 194.739 161.289 194.631C159.887 194.517 158.498 194.283 157.137 193.931C158.498 193.579 159.887 193.345 161.289 193.231C162.312 193.123 163.335 193.074 164.349 193.044Z" fill="#2B2B2B"/>
    <path d="M161.289 200.859C162.214 200.761 163.139 200.712 164.054 200.682C164.024 201.283 164.005 201.865 163.985 202.427C163.089 202.407 162.184 202.358 161.289 202.259C159.887 202.145 158.498 201.911 157.137 201.559C158.498 201.207 159.887 200.973 161.289 200.859Z" fill="#2B2B2B"/>
    <path d="M130.96 215.529C130.96 215.529 113.233 197.979 106.614 209.36C99.9959 220.74 104.546 229.089 109.463 234.722C115.454 241.584 115.755 243.64 117.532 245.672C119.31 247.705 139.375 272.276 164.384 270.896C178.973 270.091 178.725 262.303 175.985 255.954C173.993 251.457 170.793 247.603 166.742 244.821C158.753 239.229 140.9 226.277 130.96 215.529Z" fill="#2B2B2B"/>
    <path d="M124.913 210.514C128.725 210.694 132.527 210.951 136.329 211.2L147.729 211.975C151.526 212.276 155.326 212.497 159.125 212.699C161.024 212.817 162.925 212.886 164.825 212.917C165.772 212.915 166.729 212.984 167.673 212.915L169.096 212.847L170.505 212.625C166.754 213.387 162.922 213.667 159.1 213.457C155.28 213.411 151.47 213.182 147.663 212.957C143.859 212.658 140.057 212.359 136.265 211.952C132.473 211.546 128.685 211.099 124.913 210.514Z" fill="#2B2B2B"/>
    <path d="M162.852 242.556C162.744 242.556 162.639 242.52 162.553 242.454C162.467 242.389 162.405 242.297 162.377 242.192C162.348 242.088 162.355 241.977 162.395 241.877C162.436 241.777 162.508 241.693 162.601 241.638C163.371 241.184 181.54 230.498 188.338 232.72C188.462 232.761 188.564 232.849 188.622 232.966C188.681 233.082 188.691 233.217 188.65 233.341C188.61 233.464 188.522 233.567 188.406 233.626C188.29 233.685 188.155 233.696 188.032 233.656C181.657 231.564 163.286 242.377 163.101 242.487C163.026 242.532 162.939 242.556 162.852 242.556Z" fill="#2B2B2B"/>
    <path d="M271.48 170.1L271.49 170.1L271.525 170.107L314.383 186.016L314.421 186.032C318.681 188.027 322.735 190.439 326.522 193.232C330.348 196.029 333.718 199.402 336.512 203.233C337.95 205.165 339.079 207.308 339.86 209.588C340.613 211.833 341.203 214.13 341.624 216.461C342.58 221.198 342.25 226.106 340.669 230.673C339.782 232.945 338.479 235.032 336.827 236.825C335.163 238.591 333.219 240.07 331.075 241.203C328.945 242.329 326.674 243.164 324.323 243.687C323.153 243.934 321.97 244.11 320.779 244.214L317.301 244.594C308.027 245.587 298.756 246.597 289.473 247.501C270.909 249.321 252.34 251.104 233.73 252.476C229.078 252.823 224.424 253.149 219.764 253.415C215.094 253.65 210.46 253.976 205.713 253.766C203.275 253.566 200.958 252.621 199.073 251.06C197.222 249.564 195.593 247.809 194.238 245.851C191.561 241.97 189.406 237.754 187.829 233.31C187.807 233.251 187.801 233.188 187.81 233.126C187.82 233.065 187.844 233.006 187.882 232.957C187.92 232.907 187.969 232.868 188.026 232.842C188.083 232.817 188.146 232.806 188.208 232.811L188.221 232.813C190.213 233.069 192.231 233.063 194.222 232.794C195.158 232.614 196.15 232.238 196.421 231.442C196.589 230.521 196.407 229.57 195.912 228.776C194.933 227.006 193.788 225.334 192.493 223.783C191.226 222.187 189.913 220.62 188.613 219.041C187.311 217.463 186.018 215.875 184.766 214.252C183.579 212.621 182.145 211.186 180.515 209.999C179.751 209.389 178.854 208.969 177.897 208.773C176.94 208.577 175.951 208.611 175.009 208.871C173.178 209.611 171.684 211.001 170.814 212.777L170.803 212.796C170.771 212.855 170.723 212.903 170.664 212.934C170.605 212.966 170.537 212.979 170.471 212.973C170.404 212.966 170.341 212.94 170.289 212.898C170.237 212.855 170.199 212.799 170.179 212.735C169.536 210.75 169.2 208.678 169.182 206.591C169.177 205.527 169.345 204.47 169.679 203.46C170.025 202.41 170.683 201.491 171.564 200.826L171.514 200.869C172.32 200.162 173.246 199.604 174.248 199.223C175.2 198.825 176.173 198.477 177.161 198.18C179.126 197.579 181.114 197.09 183.109 196.647C187.102 195.77 191.123 195.068 195.152 194.428C203.211 193.161 211.304 192.159 219.404 191.248C235.608 189.429 251.842 187.982 268.105 186.784L267.398 187.457C268.423 180.969 269.752 174.708 271.008 168.351L274.916 149.369L282.77 111.411L283.134 112.403C282.255 111.915 281.303 111.571 280.316 111.386C279.241 111.139 278.138 110.936 277.022 110.773C274.794 110.435 272.53 110.204 270.265 110.002C265.731 109.603 261.17 109.367 256.609 109.16C247.483 108.754 238.338 108.566 229.193 108.458C210.903 108.246 192.598 108.406 174.306 108.66L174.968 108.369C174.358 109.135 173.886 110.001 173.575 110.93C173.201 111.917 172.886 112.949 172.604 113.993C172.042 116.086 171.602 118.233 171.205 120.387C170.422 124.701 169.826 129.064 169.3 133.435C168.26 142.182 167.504 150.972 166.852 159.769C166.208 168.569 165.668 177.377 165.231 186.193C164.745 194.995 164.423 203.825 164.093 212.638L164.092 212.647C164.088 212.76 164.04 212.867 163.957 212.944C163.875 213.022 163.765 213.064 163.652 213.061L126.15 212.085C126.124 212.084 126.1 212.073 126.082 212.054C126.064 212.036 126.054 212.011 126.055 211.985C126.055 211.959 126.066 211.934 126.084 211.916C126.103 211.898 126.128 211.888 126.154 211.888L163.667 212.193L163.227 212.616C163.451 203.781 163.705 194.963 164.103 186.132C164.458 177.316 164.915 168.497 165.473 159.673C166.042 150.857 166.714 142.044 167.675 133.248C168.162 128.85 168.719 124.457 169.471 120.077C169.853 117.888 170.278 115.702 170.84 113.526C171.123 112.438 171.441 111.353 171.839 110.272C172.223 109.101 172.822 108.012 173.605 107.061C173.683 106.973 173.779 106.901 173.885 106.851C173.992 106.802 174.108 106.774 174.226 106.771L174.267 106.77C183.426 106.533 192.581 106.449 201.739 106.381C210.897 106.323 220.055 106.333 229.215 106.411C238.375 106.505 247.537 106.678 256.701 107.071C261.283 107.276 265.865 107.548 270.448 107.966C272.74 108.18 275.031 108.423 277.327 108.781C278.474 108.954 279.623 109.169 280.778 109.439C282.043 109.68 283.252 110.152 284.346 110.832C284.494 110.931 284.609 111.073 284.677 111.239C284.744 111.404 284.76 111.586 284.723 111.761L284.71 111.825L276.698 149.739L272.673 168.692C271.365 174.996 269.962 181.369 268.911 187.632L268.904 187.673C268.875 187.842 268.791 187.996 268.664 188.111C268.537 188.226 268.375 188.295 268.204 188.306C251.959 189.354 235.717 190.65 219.52 192.32C211.425 193.177 203.337 194.126 195.292 195.338C191.271 195.95 187.259 196.624 183.288 197.47C181.304 197.897 179.33 198.369 177.395 198.948C176.431 199.231 175.481 199.563 174.551 199.944C173.644 200.283 172.801 200.776 172.061 201.401L172.047 201.414L172.01 201.445C171.249 202.016 170.68 202.806 170.379 203.71C170.066 204.642 169.907 205.618 169.907 206.601C169.914 208.608 170.225 210.602 170.831 212.514L170.196 212.473C171.155 210.541 172.799 209.036 174.806 208.254C175.841 207.969 176.929 207.933 177.981 208.149C179.032 208.364 180.018 208.826 180.859 209.495C182.528 210.732 184.006 212.21 185.244 213.88C186.497 215.489 187.793 217.065 189.101 218.635C190.408 220.206 191.729 221.767 193.012 223.368C194.346 224.951 195.525 226.658 196.533 228.467C197.127 229.427 197.326 230.58 197.087 231.684C196.869 232.247 196.45 232.709 195.911 232.981C195.423 233.23 194.902 233.406 194.363 233.505C192.304 233.799 190.214 233.818 188.149 233.563L188.541 233.066C190.103 237.431 192.257 241.561 194.943 245.338C196.269 247.208 197.856 248.879 199.654 250.301C201.402 251.722 203.545 252.57 205.791 252.727C210.364 252.874 215.054 252.498 219.687 252.206C224.333 251.886 228.978 251.506 233.62 251.105C252.188 249.456 270.748 247.674 289.298 245.758L317.125 242.93C319.428 242.65 321.813 242.542 323.974 242.084C326.183 241.604 328.318 240.829 330.322 239.782C334.367 237.751 337.535 234.313 339.232 230.112C340.732 225.807 341.055 221.179 340.168 216.708C339.774 214.439 339.222 212.201 338.517 210.009C337.803 207.857 336.759 205.828 335.424 203.996C332.746 200.242 329.505 196.926 325.814 194.166C322.118 191.376 318.156 188.958 313.985 186.948L314.022 186.964L271.455 170.291L271.49 170.298L271.48 170.298C271.454 170.298 271.429 170.287 271.41 170.269C271.392 170.25 271.382 170.225 271.382 170.199C271.382 170.173 271.392 170.148 271.41 170.129C271.429 170.111 271.454 170.1 271.48 170.1L271.48 170.1Z" fill="#2B2B2B"/>
    <path d="M174.287 107.715C167.084 115.875 163.66 212.627 163.66 212.627H170.508C170.508 212.627 167.645 204.132 171.788 201.136C179.315 193.369 268.155 187.545 268.155 187.545C268.351 185.84 269.68 179.059 271.49 170.199C276.075 147.64 283.74 111.618 283.74 111.618C275.948 105.586 174.287 107.715 174.287 107.715ZM224.586 152.065C215.976 152.065 209 149.995 209 147.453C209 144.91 215.976 142.84 224.586 142.84C233.195 142.84 240.171 144.91 240.171 147.453C240.171 149.995 233.195 152.065 224.586 152.065V152.065Z" fill="#FDB914"/>
    <path d="M75.0134 213.443C73.8728 220.238 73.2753 227.114 73.2266 234.004C73.1193 240.873 73.7756 247.732 75.1836 254.455C76.6889 261.089 79.2994 267.642 83.8893 272.61C86.2317 275.045 88.9484 277.089 91.9362 278.663L94.1673 279.907C94.9157 280.313 95.7019 280.658 96.4674 281.037C98.0031 281.788 99.5439 282.529 101.132 283.18C107.419 285.908 113.881 288.265 120.403 290.433C126.92 292.618 133.5 294.624 140.102 296.559C153.297 300.478 166.62 303.893 179.98 307.307C183.401 308.219 186.605 309.806 189.404 311.977C192.203 314.147 194.54 316.857 196.278 319.945C197.136 321.483 197.847 323.1 198.401 324.772C198.907 326.448 199.289 328.158 199.543 329.89L201.237 340.099C203.569 353.698 205.825 367.311 208.249 380.894L222.808 462.391L222.125 461.8C232.289 461.948 242.478 461.813 252.622 461.269C257.694 460.998 262.76 460.616 267.772 459.955C270.266 459.635 272.741 459.186 275.189 458.611C276.388 458.328 277.567 457.968 278.72 457.534C279.785 457.164 280.766 456.585 281.605 455.831L281.356 456.517C280.632 439.065 279.765 421.61 278.862 404.162C277.948 386.714 276.818 369.279 275.677 351.846C274.483 334.418 273.114 316.998 271.232 299.635C270.289 290.954 269.183 282.291 267.795 273.676C267.088 269.372 266.305 265.076 265.253 260.847C264.745 258.73 264.11 256.646 263.351 254.606C262.973 253.59 262.508 252.609 261.962 251.673C261.733 251.195 261.411 250.766 261.016 250.412C260.621 250.058 260.161 249.785 259.66 249.61L259.652 249.608C259.627 249.603 259.605 249.588 259.59 249.567C259.576 249.545 259.57 249.518 259.575 249.493C259.58 249.467 259.595 249.445 259.617 249.43C259.638 249.416 259.665 249.41 259.69 249.415C260.227 249.583 260.724 249.857 261.153 250.22C261.583 250.583 261.935 251.028 262.191 251.529C262.768 252.468 263.263 253.454 263.671 254.478C264.481 256.516 265.168 258.601 265.728 260.722C266.882 264.949 267.763 269.24 268.569 273.541C270.16 282.148 271.304 290.824 272.374 299.503C274.469 316.868 276.048 334.286 277.453 351.715C278.886 369.142 279.916 386.597 280.903 404.051C281.889 421.507 282.685 438.972 283.291 456.447L283.292 456.478C283.296 456.598 283.276 456.718 283.233 456.831C283.19 456.943 283.125 457.046 283.041 457.133C282.001 458.111 280.765 458.857 279.415 459.322C278.182 459.781 276.919 460.16 275.637 460.456C273.121 461.034 270.576 461.482 268.014 461.797C262.919 462.441 257.815 462.798 252.711 463.043C242.499 463.479 232.298 463.491 222.088 463.226C221.923 463.222 221.765 463.161 221.641 463.053C221.516 462.946 221.433 462.798 221.405 462.636L207.607 381.006C205.305 367.402 202.835 353.826 200.44 340.238L198.59 330.056C198.319 328.378 197.924 326.722 197.408 325.102C196.853 323.506 196.148 321.967 195.302 320.505C193.606 317.589 191.345 315.043 188.653 313.015C185.96 310.987 182.89 309.518 179.622 308.696C166.224 305.547 152.855 302.086 139.61 298.245C132.98 296.342 126.405 294.237 119.867 292.02C113.329 289.805 106.846 287.399 100.508 284.604C98.9105 283.939 97.3508 283.178 95.7956 282.407C95.0199 282.017 94.2286 281.664 93.4658 281.244L91.1901 279.959C88.0814 278.295 85.2697 276.126 82.8695 273.54C78.1206 268.24 75.5627 261.454 74.1237 254.689C72.7725 247.878 72.2388 240.929 72.534 233.991C72.7481 227.079 73.5127 220.195 74.8205 213.404C74.8255 213.378 74.8405 213.356 74.8621 213.341C74.8838 213.326 74.9103 213.321 74.9359 213.326C74.9613 213.332 74.9835 213.347 74.9979 213.369C75.0123 213.391 75.0178 213.417 75.0134 213.443Z" fill="#2B2B2B"/>
    <path d="M238.046 475.109C238.046 475.109 229.545 474.222 229.545 478.302C229.545 482.382 230.253 512.185 233.796 513.072C237.338 513.959 341.124 549.794 368.753 520.701C368.753 520.701 387.881 510.057 351.751 497.639C315.62 485.221 292.95 472.803 292.95 472.803C292.95 472.803 258.591 473.867 257.882 477.415C257.174 480.963 262.487 493.736 262.487 493.736C262.487 493.736 239.817 499.058 238.046 475.109Z" fill="#2B2B2B"/>
    <path d="M238.047 475.603C238.006 475.602 237.965 475.597 237.925 475.587C237.798 475.555 237.69 475.473 237.624 475.36C237.557 475.248 237.538 475.113 237.571 474.986C238.038 472.936 238.097 470.814 237.745 468.74C237.393 466.667 236.636 464.684 235.518 462.903C235.481 462.85 235.455 462.791 235.441 462.727C235.427 462.664 235.426 462.599 235.437 462.535C235.449 462.471 235.472 462.411 235.507 462.356C235.542 462.302 235.587 462.254 235.64 462.217C235.693 462.18 235.752 462.154 235.816 462.14C235.879 462.126 235.944 462.125 236.007 462.136C236.071 462.147 236.132 462.171 236.186 462.206C236.241 462.241 236.288 462.286 236.325 462.339C237.538 464.229 238.358 466.346 238.736 468.561C239.114 470.777 239.042 473.046 238.523 475.232C238.496 475.338 238.435 475.432 238.348 475.499C238.262 475.566 238.156 475.603 238.047 475.603Z" fill="#2B2B2B"/>
    <path d="M288.699 473.296L288.682 473.294C277.974 472.936 267.505 461.748 267.065 461.273C267.021 461.225 266.987 461.17 266.964 461.109C266.942 461.048 266.932 460.984 266.934 460.919C266.936 460.854 266.951 460.791 266.978 460.732C267.005 460.673 267.044 460.62 267.091 460.576C267.138 460.532 267.194 460.498 267.254 460.475C267.315 460.453 267.379 460.442 267.444 460.445C267.509 460.447 267.572 460.462 267.631 460.489C267.689 460.516 267.742 460.554 267.786 460.602C267.892 460.716 278.42 471.965 288.715 472.31C288.844 472.315 288.966 472.37 289.055 472.464C289.144 472.557 289.193 472.682 289.19 472.811C289.188 472.94 289.136 473.064 289.044 473.154C288.952 473.245 288.828 473.296 288.699 473.296V473.296Z" fill="#2B2B2B"/>
    <path d="M41.7322 208.207C41.6602 208.193 41.5889 208.193 41.5176 208.178L41.4316 208.092C41.5341 208.124 41.6345 208.162 41.7322 208.207Z" fill="white"/>
    <path d="M72.8457 241.991V242.077C72.889 241.819 72.9317 241.576 72.975 241.318C72.9317 241.547 72.889 241.762 72.8457 241.991Z" fill="white"/>
    <path d="M269.318 279.538V279.566C269.261 279.58 269.217 279.595 269.16 279.609C269.217 279.58 269.261 279.566 269.318 279.538Z" fill="white"/>
    <path d="M27.4337 290.076L29.1159 319.709L30.6505 349.348C31.174 359.227 31.867 369.1 32.0379 378.992C32.1136 383.939 32.1889 388.885 32.1369 393.837L32.055 401.264C31.9688 403.741 31.9378 406.217 31.8025 408.697C31.8004 408.734 31.7847 408.769 31.7583 408.795C31.7319 408.821 31.6968 408.836 31.6599 408.837C31.623 408.838 31.5869 408.826 31.5587 408.802C31.5304 408.778 31.5122 408.744 31.5074 408.708C31.19 406.245 30.9773 403.778 30.7091 401.313L30.0809 393.913C29.6649 388.979 29.3764 384.04 29.088 379.101C28.5306 369.224 28.4954 359.326 28.2907 349.435L27.6409 319.764L27.1387 290.087C27.1381 290.048 27.1527 290.011 27.1792 289.983C27.2058 289.955 27.2423 289.938 27.2809 289.937C27.3195 289.935 27.3571 289.949 27.3856 289.975C27.4142 290.001 27.4315 290.037 27.4337 290.076V290.076Z" fill="#2B2B2B"/>
    <path d="M107.841 346.138L108.668 376.316L109.347 406.495C109.585 416.555 109.993 426.613 109.878 436.675C109.811 441.707 109.744 446.738 109.549 451.77L109.253 459.319C109.095 461.835 108.993 464.351 108.786 466.868C108.783 466.905 108.766 466.94 108.739 466.965C108.712 466.99 108.676 467.004 108.639 467.005C108.602 467.005 108.566 466.991 108.539 466.967C108.511 466.942 108.494 466.908 108.49 466.871C108.245 464.357 108.103 461.843 107.906 459.329L107.491 451.786C107.218 446.758 107.072 441.728 106.926 436.699C106.654 426.639 106.905 416.576 106.985 406.514L107.192 376.328L107.546 346.141C107.547 346.102 107.562 346.065 107.589 346.038C107.617 346.01 107.654 345.995 107.692 345.995C107.731 345.994 107.768 346.009 107.796 346.036C107.824 346.063 107.84 346.1 107.841 346.138L107.841 346.138Z" fill="#2B2B2B"/>
    <path d="M31.6554 408.87C38.5677 408.87 44.1711 407.811 44.1711 406.504C44.1711 405.198 38.5677 404.139 31.6554 404.139C24.7431 404.139 19.1396 405.198 19.1396 406.504C19.1396 407.811 24.7431 408.87 31.6554 408.87Z" fill="#2B2B2B"/>
    <path d="M108.166 467.352C115.078 467.352 120.682 466.293 120.682 464.987C120.682 463.681 115.078 462.622 108.166 462.622C101.254 462.622 95.6504 463.681 95.6504 464.987C95.6504 466.293 101.254 467.352 108.166 467.352Z" fill="#2B2B2B"/>
    <path d="M191.402 326.62L192.502 340.465L193.455 354.315C193.754 358.933 194.307 363.541 194.261 368.171C194.295 372.823 194.022 377.471 193.444 382.087C193.44 382.122 193.423 382.154 193.396 382.178C193.37 382.201 193.337 382.215 193.301 382.216C193.266 382.218 193.232 382.207 193.204 382.185C193.176 382.163 193.157 382.132 193.149 382.098C192.234 377.537 191.62 372.922 191.311 368.28C190.924 363.666 191.138 359.03 191.095 354.403L191.027 340.52L191.107 326.631C191.107 326.593 191.122 326.556 191.148 326.529C191.175 326.501 191.211 326.485 191.249 326.484C191.287 326.483 191.324 326.496 191.352 326.521C191.381 326.547 191.399 326.582 191.402 326.62Z" fill="#2B2B2B"/>
    <path d="M301.365 294.915L302.189 324.74L302.865 354.567C303.102 364.509 303.51 374.45 303.394 384.395C303.326 389.368 303.259 394.34 303.063 399.314L302.767 406.774C302.609 409.262 302.506 411.748 302.299 414.236C302.296 414.273 302.279 414.307 302.252 414.333C302.225 414.358 302.189 414.372 302.152 414.372C302.115 414.373 302.08 414.359 302.052 414.334C302.025 414.309 302.007 414.275 302.004 414.238C301.758 411.754 301.616 409.269 301.42 406.785L301.006 399.33C300.733 394.36 300.587 389.389 300.442 384.418C300.171 374.477 300.422 364.53 300.504 354.586L300.713 324.752L301.07 294.917C301.07 294.878 301.086 294.841 301.113 294.814C301.141 294.786 301.178 294.771 301.216 294.771C301.255 294.77 301.292 294.785 301.32 294.812C301.348 294.839 301.364 294.876 301.365 294.914V294.915Z" fill="#2B2B2B"/>
    <path d="M193.297 382.26C200.209 382.26 205.813 381.201 205.813 379.895C205.813 378.588 200.209 377.529 193.297 377.529C186.385 377.529 180.781 378.588 180.781 379.895C180.781 381.201 186.385 382.26 193.297 382.26Z" fill="#2B2B2B"/>
    <path d="M301.679 414.719C308.591 414.719 314.195 413.66 314.195 412.354C314.195 411.048 308.591 409.989 301.679 409.989C294.767 409.989 289.163 411.048 289.163 412.354C289.163 413.66 294.767 414.719 301.679 414.719Z" fill="#2B2B2B"/>
    <path d="M170.506 213.117H163.661C163.531 213.117 163.406 213.064 163.314 212.972C163.222 212.88 163.171 212.754 163.171 212.624C163.171 212.494 163.222 212.369 163.314 212.276C163.406 212.184 163.531 212.132 163.661 212.131H170.506C170.636 212.132 170.76 212.184 170.852 212.276C170.944 212.369 170.995 212.494 170.995 212.624C170.995 212.754 170.944 212.88 170.852 212.972C170.76 213.064 170.636 213.117 170.506 213.117Z" fill="#2B2B2B"/>
</svg>
