<svg width="429" height="748" viewBox="0 0 429 748" fill="none" xmlns="http://www.w3.org/2000/svg">
    <path d="M165.596 103.121L160.416 148.127C159.174 147.276 158.171 146.119 157.506 144.767C156.176 142.419 155.24 139.867 154.737 137.215C150.455 116.418 142.968 120.303 142.968 120.303C135.276 124.303 146.224 150.307 146.224 150.307C149.378 160.18 147.122 163.295 144.686 164.18C143.838 164.457 142.93 164.488 142.065 164.27C141.201 164.053 140.416 163.595 139.801 162.949C136.297 159.289 132.322 156.112 127.981 153.499C126.743 152.761 125.343 152.339 123.904 152.269C123.346 152.176 122.775 152.205 122.23 152.354C121.684 152.503 121.178 152.768 120.744 153.131C120.311 153.494 119.961 153.946 119.718 154.456C119.476 154.967 119.347 155.524 119.34 156.09C119.256 157.115 119.382 158.146 119.71 159.12C120.039 160.095 120.563 160.992 121.25 161.757L138.506 181.849C140.775 187.927 148.237 196.877 154.801 196.838L154.198 202.07L153.698 223.277L146.968 296.787C110.045 300.018 112.353 291.505 112.353 291.505L109.237 173.079C114.442 129.689 137.66 106.609 137.66 106.609C137.66 106.609 153.865 110.622 165.596 103.121Z" fill="#FDB914"/>
    <path d="M148.292 84.8572C150.534 84.2593 152.615 83.1737 154.388 81.6779C155.282 80.9521 156.118 80.1591 156.89 79.3057C157.645 78.4381 158.341 77.5209 158.973 76.5605C161.428 72.6481 163.067 68.2801 163.793 63.7185C164.03 62.5886 164.193 61.4444 164.282 60.2932C164.392 59.1432 164.578 58.0008 164.625 56.8459C164.628 54.5311 164.816 52.2188 164.669 49.9054C164.516 47.5938 164.513 45.2708 164.241 42.9663L163.42 36.0496L163.798 36.452C159.992 35.3393 156.37 33.6743 153.048 31.5101C144.727 26.1296 138.36 18.2117 134.89 8.92922C134.18 7.09585 133.728 5.17297 133.135 3.29646L133.569 3.53517C130.659 4.87681 128.047 6.78786 125.887 9.15556C123.7 11.5086 121.835 14.1422 120.341 16.9871C118.853 19.8374 117.642 22.8241 116.724 25.906C116.262 27.446 115.93 29.0255 115.526 30.5822L114.698 35.3445L114.64 34.9686C115.557 37.8049 115.825 40.8108 115.425 43.7647C115.274 45.2093 115.052 46.64 114.758 48.0569C114.473 49.4297 114.263 50.8173 114.131 52.2132C113.567 57.826 113.852 63.4917 114.975 69.0197C115.563 71.7652 116.509 74.4213 117.79 76.9196C119.089 79.4015 120.894 81.583 123.089 83.3226C127.777 86.5636 133.528 87.8854 139.16 87.0165L139.176 87.1437C136.34 87.5842 133.453 87.5952 130.613 87.1765C127.736 86.7411 125.006 85.6172 122.656 83.9003C120.33 82.141 118.399 79.9124 116.989 77.359C115.608 74.8105 114.569 72.091 113.898 69.2708C112.593 63.6405 112.228 57.8328 112.82 52.0835C112.952 50.6416 113.163 49.2081 113.452 47.7894C113.731 46.413 113.941 45.0286 114.082 43.6363C114.43 40.9221 114.219 38.1651 113.46 35.5359L113.376 35.3016L113.402 35.1593L114.293 30.3155C114.72 28.7284 115.076 27.1224 115.563 25.553C116.523 22.401 117.808 19.3579 119.4 16.4731C120.996 13.585 122.969 10.9221 125.268 8.55459C127.561 6.15398 130.308 4.23319 133.35 2.9039L133.673 2.77197L133.785 3.14281C134.343 5.00092 134.76 6.91015 135.435 8.7314C136.084 10.5642 136.853 12.3519 137.739 14.0828C139.451 17.5846 141.684 20.8066 144.361 23.6387C149.686 29.336 156.491 33.44 164.014 35.4917L164.349 35.5772L164.392 35.8946L165.329 42.8571C165.622 45.1808 165.651 47.5344 165.822 49.873C165.944 52.2156 165.731 54.5693 165.7 56.9151C165.639 58.0876 165.438 59.2528 165.314 60.4215C165.21 61.5939 165.03 62.7584 164.777 63.9078L163.998 67.3562C163.655 68.484 163.225 69.5883 162.843 70.7029C161.995 72.9094 160.889 75.0075 159.546 76.953C158.872 77.9235 158.131 78.8454 157.328 79.7119C156.498 80.5511 155.605 81.3254 154.656 82.0279C152.785 83.469 150.619 84.4785 148.312 84.984L148.292 84.8572Z" fill="#2B2B2B"/>
    <path d="M138.331 65.4672C138.352 67.2219 137.736 68.9246 136.597 70.2592C135.99 70.9474 135.234 71.4887 134.387 71.8422C133.54 72.1958 132.624 72.3523 131.708 72.3001C129.916 72.1544 128.237 71.3689 126.977 70.0871C125.692 68.8721 124.896 67.2288 124.739 65.4672C124.67 64.5486 124.806 63.626 125.137 62.7664C125.469 61.9068 125.987 61.1317 126.655 60.4975C128.006 59.1788 129.821 58.4446 131.708 58.4537C132.635 58.4522 133.552 58.6479 134.397 59.0279C135.243 59.408 135.998 59.9636 136.613 60.6579C137.75 61.9993 138.361 63.7087 138.331 65.4672ZM138.177 65.4672C138.157 64.6587 137.942 63.8671 137.55 63.1597C137.158 62.4524 136.601 61.8503 135.926 61.4049C134.687 60.5474 133.214 60.0913 131.708 60.0986C130.222 60.1005 128.783 60.6189 127.637 61.5652C126.472 62.5501 125.736 63.9493 125.584 65.4672C125.513 66.2627 125.633 67.0635 125.934 67.8031C126.236 68.5426 126.709 69.1995 127.316 69.719C128.553 70.7107 130.13 71.1766 131.708 71.0164C133.226 70.9194 134.69 70.4114 135.942 69.5468C136.615 69.0975 137.171 68.4918 137.56 67.7814C137.949 67.0711 138.161 66.2771 138.177 65.4672Z" fill="#2B2B2B"/>
    <path d="M123.946 42.27C123.285 43.3589 122.675 44.4283 122.127 45.4859C121.58 46.4728 121.226 47.555 121.084 48.6746C121.032 49.1783 121.102 49.6872 121.29 50.1574C121.478 50.6276 121.778 51.045 122.163 51.3735C122.582 51.7704 123.041 52.1225 123.533 52.4241C124.048 52.7452 124.614 52.9786 125.162 53.3376C124.519 53.3046 123.879 53.2331 123.245 53.1233C122.594 52.9561 121.974 52.6824 121.411 52.3133C120.793 51.9257 120.289 51.3805 119.951 50.7335C119.638 50.0532 119.499 49.3056 119.547 48.5583C119.71 47.1992 120.252 45.9134 121.112 44.8484C121.886 43.8187 122.848 42.944 123.946 42.27V42.27Z" fill="#2B2B2B"/>
    <path d="M119.664 41.3444C120.264 41.3237 120.832 41.0709 121.249 40.6393C121.666 40.2077 121.898 39.6311 121.898 39.0311C121.898 38.4311 121.666 37.8545 121.249 37.4229C120.832 36.9913 120.264 36.7385 119.664 36.7178C119.064 36.7385 118.496 36.9913 118.08 37.4229C117.663 37.8545 117.43 38.4311 117.43 39.0311C117.43 39.6311 117.663 40.2077 118.08 40.6393C118.496 41.0709 119.064 41.3237 119.664 41.3444V41.3444Z" fill="#2B2B2B"/>
    <path d="M146.21 41.8844C146.809 41.8636 147.377 41.6108 147.794 41.1792C148.211 40.7477 148.444 40.1711 148.444 39.5711C148.444 38.9711 148.211 38.3946 147.794 37.963C147.377 37.5315 146.809 37.2786 146.21 37.2578C145.61 37.2786 145.042 37.5315 144.625 37.963C144.209 38.3946 143.976 38.9711 143.976 39.5711C143.976 40.1711 144.209 40.7477 144.625 41.1792C145.042 41.6108 145.61 41.8636 146.21 41.8844Z" fill="#2B2B2B"/>
    <path d="M115.184 29.2715C117.083 28.2846 119.223 27.8543 121.356 28.0301C122.433 28.1176 123.491 28.3656 124.495 28.7661C125.499 29.1807 126.387 29.8315 127.086 30.663C126.12 30.3618 125.139 30.113 124.146 29.9178C123.176 29.7678 122.218 29.6353 121.24 29.5669C119.278 29.4157 117.307 29.4212 115.184 29.2715Z" fill="#2B2B2B"/>
    <path d="M136.79 30.6629C138.9 29.4073 141.281 28.679 143.732 28.5399C146.183 28.3039 148.653 28.7052 150.903 29.7049C148.452 29.8518 146.17 29.8705 143.847 30.0769C141.525 30.2293 139.231 30.5024 136.79 30.6629Z" fill="#2B2B2B"/>
    <path d="M106.823 32.9642C114.766 33.4622 122.739 33.1135 130.7 33.3445C138.66 33.5682 146.588 34.5109 154.516 35.2851L155.035 35.3357L154.994 35.8068C154.762 39.0064 153.956 42.1381 152.613 45.0517C151.921 46.5436 150.876 47.8444 149.568 48.8415C148.247 49.9078 146.597 50.4826 144.899 50.4678C143.223 50.5298 141.552 50.2404 139.993 49.6183C138.404 48.9572 137.004 47.9088 135.923 46.5686C133.865 43.8451 132.747 40.5263 132.738 37.1122L133.826 38.335L125.04 37.6583L126.463 36.6195C125.929 38.9907 125.14 41.297 124.109 43.498C123.093 45.8231 121.569 47.8908 119.648 49.5488C118.574 50.4375 117.274 51.0107 115.893 51.2048C114.519 51.3682 113.127 51.144 111.874 50.5576C109.667 49.4112 107.752 47.7742 106.277 45.7721L106.233 45.718C105.663 44.7535 105.206 43.727 104.87 42.6586C104.534 41.6247 104.287 40.5639 104.132 39.4878C103.986 38.4218 103.909 37.3477 103.899 36.272C103.904 35.2034 103.968 34.1359 104.092 33.0745L104.106 32.9302L104.251 32.9321L106.823 32.9642ZM106.816 33.2205L104.251 33.2528L104.41 33.1107C104.083 36.2391 104.595 39.3981 105.893 42.2633C106.293 43.1828 106.801 44.0513 107.407 44.8505L107.363 44.7969C108.874 46.3822 110.696 47.6398 112.714 48.4915C113.6 48.8382 114.565 48.9309 115.501 48.7591C116.437 48.5872 117.306 48.1577 118.011 47.5187C119.563 46.057 120.795 44.2893 121.629 42.3273C122.561 40.3046 123.308 38.2016 123.861 36.0442L124.171 34.8851L125.285 35.005L134.046 35.9478L135.124 36.0638L135.134 37.1711C135.067 40.0791 135.886 42.9387 137.481 45.3709C138.306 46.5377 139.398 47.4914 140.664 48.1531C141.98 48.806 143.42 49.1675 144.888 49.2129C146.375 49.2484 147.838 48.834 149.086 48.0239C150.333 47.2138 151.307 46.0458 151.88 44.6728C153.243 41.9044 153.961 38.8629 153.98 35.7771L154.458 36.2985C146.497 36.1729 138.536 36.2157 130.607 35.5396C122.678 34.8707 114.763 33.6222 106.816 33.2205V33.2205Z" fill="#FDB914"/>
    <path d="M154.486 35.792L163.906 35.9719" stroke="#FDB914" stroke-width="0.81402" stroke-miterlimit="10"/>
    <path d="M132.047 87.3313C133.216 90.4752 134.266 93.6543 135.292 96.8404L136.778 101.635C137.292 103.228 137.704 104.851 138.172 106.457L137.789 106.09C140.815 106.873 143.908 107.365 147.027 107.558C150.156 107.771 153.301 107.51 156.352 106.784C159.365 106.074 162.216 104.803 164.758 103.037C167.162 101.165 169.079 98.7405 170.347 95.9697L171.405 96.7566C170.849 97.0653 170.213 97.1976 169.58 97.1358C168.947 97.074 168.348 96.8212 167.862 96.4107C167.005 95.8068 166.245 95.0769 165.606 94.2457C164.384 92.6575 163.34 90.9402 162.492 89.1245C161.613 87.3558 160.836 85.5378 160.166 83.6796C159.428 81.8535 158.906 79.9497 158.292 78.0869C158.286 78.0708 158.288 78.0532 158.295 78.038C158.303 78.0228 158.316 78.0113 158.332 78.006C158.348 78.0016 158.365 78.0029 158.379 78.0098C158.394 78.0167 158.406 78.0286 158.412 78.0434C159.212 79.8372 159.98 81.6395 160.818 83.4051C161.631 85.1816 162.514 86.924 163.444 88.6238C164.352 90.3149 165.411 91.921 166.607 93.4228C167.169 94.1443 167.837 94.7776 168.586 95.302C168.92 95.5336 169.293 95.7018 169.688 95.7982C169.969 95.861 170.262 95.8357 170.529 95.7257L170.604 95.6734C170.725 95.5891 170.871 95.5473 171.018 95.5546C171.166 95.5619 171.307 95.6179 171.419 95.7138C171.531 95.8096 171.609 95.94 171.639 96.0846C171.67 96.2291 171.651 96.3797 171.587 96.5127C170.19 99.4761 168.067 102.039 165.416 103.963C162.697 105.692 159.655 106.852 156.476 107.371C153.35 107.903 150.179 108.124 147.01 108.031C143.829 108.016 140.656 107.713 137.53 107.127C137.442 107.109 137.361 107.067 137.294 107.007C137.228 106.946 137.18 106.869 137.154 106.783L137.147 106.759C136.669 105.156 136.136 103.569 135.704 101.952L134.353 97.1173C133.488 93.8837 132.647 90.6431 131.924 87.3675C131.921 87.3516 131.923 87.3349 131.932 87.3209C131.94 87.3069 131.953 87.2965 131.969 87.2919C131.985 87.2873 132.001 87.2888 132.016 87.2961C132.03 87.3034 132.042 87.316 132.047 87.3313H132.047Z" fill="#2B2B2B"/>
    <path d="M135.659 99.8208C129.137 104.15 122.847 108.819 116.815 113.808C113.806 116.283 110.968 118.959 108.321 121.817C107.015 123.218 105.865 124.756 104.891 126.405C104.427 127.186 104.083 128.033 103.871 128.917C103.776 129.675 103.761 130.786 103.717 131.755C103.205 139.619 102.434 147.39 101.829 155.203C101.198 163.007 100.633 170.814 100.135 178.624C99.0937 194.237 98.3945 209.875 98.3798 225.505C98.2158 241.111 99.1497 256.709 101.174 272.185L101.202 272.374L101.184 272.483C100.09 278.023 97.5133 283.162 93.7294 287.354C91.9232 289.44 89.9349 291.361 87.7884 293.094C86.6832 293.909 85.6093 294.771 84.4683 295.53C83.3168 296.26 82.1673 297.055 81.0134 297.727C71.8036 303.269 62.511 308.673 53.2626 314.15L52.9671 312.548C57.6002 313.532 62.1326 314.943 66.5065 316.76C70.9077 318.525 75.0592 320.858 78.8553 323.7C82.7034 326.539 85.7941 330.281 87.8551 334.596C88.8037 336.779 89.407 339.097 89.6433 341.467C89.8229 343.826 89.6888 346.198 89.2446 348.522L89.236 348.574L89.2092 348.605C88.9081 348.964 88.5349 349.255 88.1139 349.459C87.693 349.664 87.2337 349.777 86.7659 349.793C85.8553 349.783 84.9669 349.51 84.2074 349.007C82.7573 347.99 81.5033 346.719 80.5058 345.255C81.5492 346.666 82.8386 347.877 84.3119 348.831C85.0451 349.278 85.8914 349.506 86.75 349.486C87.1628 349.456 87.5649 349.341 87.9312 349.148C88.2975 348.956 88.6202 348.69 88.8789 348.367L88.8437 348.449C89.2127 346.162 89.2774 343.835 89.036 341.531C88.7413 339.247 88.0936 337.022 87.1162 334.937C85.0052 330.83 81.9164 327.306 78.1221 324.675C74.3556 321.992 70.2643 319.798 65.946 318.144C61.6458 316.445 57.1987 315.146 52.6608 314.261L50.4385 313.836L52.3653 312.659C61.5355 307.053 70.6615 301.374 79.8704 295.833C81.0346 295.145 82.0893 294.399 83.2046 293.686C84.2952 292.951 85.3146 292.119 86.3685 291.337C88.3952 289.68 90.2709 287.846 91.9737 285.858C93.6618 283.879 95.1231 281.718 96.3303 279.415C97.527 277.175 98.3584 274.759 98.7933 272.258L98.8024 272.555C96.6053 256.969 95.6437 241.234 95.9267 225.497C96.0328 209.792 96.826 194.113 97.9603 178.471C99.0991 162.837 100.918 147.223 102.332 131.678C102.401 130.692 102.4 129.841 102.561 128.655C102.817 127.635 103.228 126.659 103.779 125.763C104.849 124.066 106.101 122.492 107.513 121.069C110.278 118.262 113.231 115.645 116.351 113.238C122.548 108.431 128.993 103.952 135.659 99.8208Z" fill="#2B2B2B"/>
    <path d="M54.89 321.252C53.5168 320.152 52.2975 318.873 51.265 317.448C50.6523 316.683 50.3374 315.722 50.3786 314.742C50.4074 314.453 50.5177 314.178 50.6966 313.949L50.9637 313.595L51.2977 313.364C51.7301 313.087 52.2071 312.887 52.7076 312.772L52.9184 314.037C52.1667 314.149 51.4779 314.363 51.32 314.938C51.2309 315.702 51.4064 316.473 51.8172 317.123C52.6531 318.63 53.6865 320.019 54.89 321.252Z" fill="#2B2B2B"/>
    <path d="M89.0449 348.486C91.4105 346.768 93.874 345.189 96.4229 343.758C98.9385 342.296 101.52 340.969 104.114 339.668C106.73 338.411 109.359 337.182 112.055 336.087C114.747 334.948 117.504 333.967 120.312 333.152C117.948 334.872 115.485 336.453 112.936 337.884C110.42 339.345 107.838 340.672 105.243 341.969C102.626 343.224 99.9961 344.453 97.3004 345.547C94.6079 346.686 91.8514 347.667 89.0449 348.486Z" fill="#2B2B2B"/>
    <path d="M99.9883 272.37C100.369 275.025 100.539 277.692 100.756 280.362C100.914 283.032 100.998 285.708 101.008 288.388C101.014 291.069 100.916 293.756 100.716 296.449C100.552 299.222 100.054 301.965 99.2323 304.618L99.1902 304.738L99.0837 304.9C98.6016 305.567 98.3999 306.396 98.5218 307.21C98.68 307.581 98.9202 307.912 99.2244 308.178C99.5286 308.444 99.8889 308.637 100.278 308.744C102.417 309.409 104.649 309.721 106.888 309.669C109.26 309.752 111.632 309.889 114.004 310.04C116.376 310.238 118.749 310.362 121.121 310.635C118.749 310.908 116.376 311.032 114.004 311.23C111.632 311.381 109.26 311.517 106.888 311.601C104.385 311.862 101.855 311.642 99.4347 310.954C98.7412 310.73 98.0927 310.385 97.519 309.936C96.8597 309.412 96.377 308.698 96.1361 307.891C95.9173 307.107 95.9105 306.279 96.1162 305.492C96.2958 304.765 96.596 304.073 97.0043 303.445L96.8561 303.727C97.5791 301.276 98.0507 298.757 98.2635 296.21C98.558 293.6 98.7557 290.962 98.947 288.318L99.4497 280.362L99.9883 272.37Z" fill="#2B2B2B"/>
    <path d="M121.313 297.523L120.819 343.243L120.175 388.96L119.45 434.675L118.542 480.385L118.539 480.239L122.142 529.466L125.513 578.71C127.767 611.538 129.708 644.389 131.805 677.228L131.674 676.8C131.849 676.991 132.045 677.162 132.258 677.311C132.544 677.516 132.846 677.697 133.161 677.853C133.828 678.189 134.523 678.466 135.238 678.68C136.722 679.125 138.24 679.445 139.777 679.637C142.915 680.016 146.076 680.157 149.235 680.06C155.609 679.85 161.963 679.219 168.253 678.169C180.875 676.053 193.382 673.301 205.726 669.923L205.684 669.936C208.364 668.682 210.601 666.647 212.102 664.097C213.654 661.517 214.681 658.656 215.127 655.679C215.577 652.679 215.68 649.636 215.434 646.612C215.312 645.095 215.131 643.585 214.899 642.076C214.61 640.576 214.381 639.009 214.222 637.49C212.753 625.261 211.401 613.02 210.166 600.767C208.944 588.512 207.745 576.251 206.889 563.953C206.463 557.803 206.104 551.646 205.943 545.468C205.872 542.378 205.834 539.284 205.943 536.174C205.995 534.618 206.08 533.06 206.252 531.487C206.375 529.829 206.739 528.197 207.334 526.643L207.938 525.205L209.122 526.305L260.783 574.325L312.369 622.424L312.609 622.647L312.796 623.034C315.444 628.913 320.148 633.621 326.025 636.273C331.842 638.653 338.646 637.463 344.298 634.46C350.031 631.094 355.144 626.768 359.413 621.67C363.846 616.57 367.845 611.108 371.37 605.343C373.15 602.467 374.84 599.533 376.381 596.537C377.937 593.638 379.229 590.603 380.239 587.471C380.331 587.149 380.401 586.821 380.45 586.49L380.467 586.317C380.484 586.262 380.464 586.115 380.499 586.468C380.573 586.754 380.519 586.548 380.461 586.461C380.072 585.808 379.645 585.179 379.181 584.577C378.189 583.258 377.116 581.941 376.032 580.636C373.856 578.024 371.607 575.444 369.344 572.877C360.267 562.62 350.942 552.539 341.601 542.483C322.864 522.414 304.051 502.407 285.161 482.463L228.383 422.745L227.814 422.146L228.131 421.397C231.6 413.195 234.796 404.827 237.766 396.406C240.736 387.979 243.429 379.454 245.784 370.841C248.216 362.252 249.968 353.484 251.022 344.619C251.533 340.197 251.576 335.732 251.15 331.3C250.629 326.953 249.414 322.392 246.172 319.305L246.43 319.02C249.86 322.144 251.202 326.807 251.833 331.213C252.367 335.693 252.427 340.217 252.011 344.709C251.152 353.663 249.588 362.535 247.333 371.242C245.184 379.967 242.551 388.558 239.718 397.075C236.862 405.591 233.797 414.014 230.418 422.364L230.166 421.017C249.449 440.589 268.604 460.285 287.63 480.103C306.715 499.868 325.726 519.705 344.468 539.809C353.843 549.86 363.194 559.928 372.344 570.224C374.628 572.804 376.898 575.397 379.123 578.057C380.235 579.391 381.336 580.733 382.411 582.157C382.997 582.914 383.533 583.709 384.014 584.537C384.225 584.904 384.379 585.301 384.47 585.714C384.525 585.973 384.537 586.24 384.505 586.504L384.465 586.973C384.395 587.491 384.29 588.005 384.15 588.509C383.077 591.925 381.688 595.233 380.001 598.392C378.404 601.506 376.683 604.54 374.839 607.496C371.163 613.436 366.998 619.059 362.387 624.306C357.783 629.734 352.275 634.325 346.107 637.876C342.854 639.595 339.318 640.714 335.668 641.179C331.932 641.636 328.141 641.15 324.641 639.766C321.209 638.346 318.122 636.205 315.591 633.487C313.067 630.835 310.991 627.79 309.444 624.471L309.87 625.081L258.688 576.553L207.581 527.945L209.368 527.607C208.869 528.934 208.555 530.325 208.436 531.739C208.256 533.224 208.154 534.74 208.086 536.26C207.946 539.3 207.944 542.365 207.978 545.429C208.063 551.56 208.345 557.7 208.696 563.837C209.422 576.11 210.38 588.375 211.57 600.629C212.747 612.878 214.043 625.116 215.459 637.343C215.614 638.887 215.824 640.365 216.109 641.89C216.338 643.425 216.516 644.972 216.634 646.524C216.874 649.643 216.753 652.778 216.273 655.869C215.8 658.996 214.73 662.004 213.122 664.727C211.494 667.531 209.04 669.763 206.096 671.12L206.086 671.124L206.053 671.133C193.683 674.597 181.146 677.435 168.489 679.635C162.135 680.72 155.723 681.428 149.286 681.756C146.037 681.905 142.781 681.808 139.547 681.465C137.9 681.283 136.271 680.965 134.676 680.512C133.853 680.277 133.051 679.97 132.281 679.596C131.876 679.4 131.486 679.173 131.117 678.917C130.66 678.622 130.265 678.242 129.954 677.796L129.843 677.639L129.822 677.367C127.304 644.557 124.629 611.759 122.268 578.938L118.716 529.707L115.396 480.46L115.391 480.382L115.392 480.313L116.562 434.609L117.913 388.908L119.347 343.21L120.929 297.515L121.313 297.523Z" fill="#2B2B2B"/>
    <path d="M160.472 148.012C160.74 148.149 161.045 148.197 161.342 148.15C161.64 148.102 161.914 147.961 162.126 147.746C162.553 147.284 162.879 146.739 163.086 146.145C163.534 144.941 163.722 143.656 163.638 142.375L163.409 134.426L163.1 118.529C162.858 115.632 163.689 112.748 165.435 110.425C165.935 109.766 166.582 109.234 167.325 108.87C167.759 108.67 168.231 108.567 168.709 108.568C169.188 108.57 169.66 108.675 170.093 108.878C171.442 109.635 172.549 110.761 173.284 112.123C174.721 114.582 175.485 117.376 175.499 120.224L175.807 128.166L176.094 136.109C176.16 137.399 176.137 138.831 176.218 140.008C176.317 141.186 176.689 142.325 177.304 143.333C177.879 144.292 178.971 145.292 179.429 145.081C179.609 145.024 179.77 144.918 179.892 144.774C179.983 144.684 180.065 144.586 180.139 144.482C180.224 144.356 180.173 144.44 180.246 144.251C180.426 143.65 180.575 143.04 180.691 142.423C181.195 139.853 181.618 137.239 181.94 134.624C182.294 131.997 182.609 129.365 182.912 126.733L183.375 122.784C183.449 121.422 183.725 120.078 184.192 118.796C184.717 117.491 185.581 116.351 186.696 115.493C187.28 115.039 187.979 114.757 188.715 114.68C189.466 114.628 190.213 114.815 190.851 115.215C192.008 116.013 192.949 117.088 193.587 118.341C194.226 119.594 194.542 120.987 194.507 122.393V122.409L194.506 122.427C194.27 125.723 194.124 129.025 193.929 132.324L193.654 137.274L193.515 139.749C193.465 140.515 193.509 141.284 193.647 142.039C193.779 142.776 194.022 143.489 194.368 144.153C194.652 144.764 195.084 145.295 195.625 145.697C196.226 146.274 197.355 144.899 197.984 143.513C199.274 140.629 200.492 137.408 202.067 134.453C202.838 132.912 203.753 131.447 204.801 130.079C205.924 128.534 207.498 127.375 209.306 126.761C210.278 126.511 211.293 126.468 212.283 126.635C212.989 126.728 213.634 127.085 214.087 127.635C214.474 128.138 214.716 128.737 214.787 129.367C214.89 131.201 214.629 133.038 214.021 134.771C211.985 141.265 208.988 147.194 206.509 153.224C204.376 159.385 202.808 165.728 201.824 172.174C200.719 178.972 197.602 185.284 192.874 190.291C190.527 192.811 187.713 194.849 184.588 196.293C182.992 196.988 181.293 197.413 179.558 197.551C177.884 197.743 176.198 197.818 174.513 197.777C171.189 197.63 167.877 197.275 164.597 196.714C162.98 196.478 161.345 196.374 159.711 196.404C158.896 196.419 158.085 196.504 157.284 196.658C156.472 196.863 155.638 196.967 154.8 196.967V196.71C155.615 196.66 156.42 196.508 157.198 196.258C158.01 196.049 158.838 195.91 159.674 195.842C161.341 195.709 163.016 195.712 164.683 195.85C168.001 196.085 171.263 196.474 174.514 196.396C176.134 196.367 177.75 196.226 179.35 195.973C180.912 195.788 182.431 195.342 183.843 194.651C186.675 193.192 189.214 191.226 191.336 188.85C195.61 184.051 198.375 178.098 199.284 171.735C200.26 165.102 201.842 158.572 204.012 152.228C206.472 146.005 209.611 140.153 211.601 134.036C212.112 132.653 212.367 131.188 212.355 129.714C212.346 129.519 212.288 129.33 212.186 129.163C212.135 129.079 212.129 129.089 211.868 129.02C211.227 128.902 210.568 128.916 209.932 129.062C208.594 129.53 207.429 130.394 206.593 131.54C205.598 132.772 204.718 134.092 203.965 135.485C202.339 138.321 201.129 141.266 199.623 144.365C199.213 145.191 198.677 145.949 198.034 146.61C197.629 147.009 197.133 147.303 196.588 147.464C196.276 147.538 195.952 147.547 195.636 147.492C195.32 147.436 195.018 147.318 194.749 147.143C193.95 146.565 193.321 145.783 192.928 144.879C192.534 144.062 192.267 143.191 192.134 142.294C192.002 141.417 191.979 140.527 192.063 139.644L192.282 137.175L192.724 132.237C193.007 128.944 193.338 125.655 193.58 122.36L193.579 122.393C193.627 121.138 193.364 119.892 192.814 118.763C192.263 117.635 191.442 116.661 190.423 115.927C189.929 115.607 189.345 115.454 188.757 115.49C188.17 115.525 187.609 115.747 187.156 116.124C186.155 116.888 185.391 117.921 184.952 119.101C184.535 120.32 184.3 121.595 184.255 122.883L183.857 126.836C183.585 129.471 183.326 132.108 183.106 134.748C182.891 137.405 182.578 140.043 182.173 142.693C182.072 143.383 181.934 144.067 181.757 144.742C181.692 144.979 181.59 145.204 181.453 145.409C181.342 145.579 181.217 145.74 181.079 145.89C180.769 146.254 180.366 146.526 179.913 146.678C179.455 146.79 178.976 146.787 178.519 146.669C178.063 146.551 177.642 146.322 177.296 146.001C176.713 145.525 176.202 144.967 175.779 144.344C174.954 143.115 174.428 141.711 174.242 140.243C174.096 138.78 174.043 137.559 173.972 136.205L173.584 128.265L173.217 120.324C173.262 117.842 172.646 115.394 171.432 113.23C170.923 112.238 170.164 111.396 169.23 110.787C169.067 110.697 168.884 110.648 168.697 110.643C168.51 110.638 168.325 110.677 168.157 110.758C167.707 110.983 167.315 111.308 167.01 111.708C165.526 113.658 164.806 116.085 164.987 118.529L164.677 134.426L164.449 142.375C164.453 143.751 164.167 145.113 163.609 146.371C163.331 147.014 162.918 147.591 162.398 148.061C162.119 148.299 161.773 148.445 161.407 148.478C161.042 148.51 160.675 148.428 160.359 148.242L160.472 148.012Z" fill="#2B2B2B"/>
    <path d="M158.352 166.617C160.778 167.851 162.973 169.497 164.838 171.48C166.808 173.402 168.233 175.812 168.967 178.464C167.455 176.293 165.763 174.252 163.91 172.364C162.099 170.445 160.194 168.617 158.352 166.617Z" fill="#2B2B2B"/>
    <path d="M162.967 156.615C164.814 157.18 166.666 157.643 168.51 158.084C170.349 158.512 172.208 158.846 174.08 159.084C175.942 159.303 177.819 159.378 179.692 159.309C181.584 159.178 183.455 158.842 185.274 158.308C183.595 159.322 181.736 160 179.798 160.304C177.851 160.565 175.879 160.583 173.927 160.356C170.055 159.879 166.323 158.605 162.967 156.615V156.615Z" fill="#2B2B2B"/>
    <path d="M152.852 198.055C152.852 198.055 219.428 264.014 265.582 246.473" stroke="#2B2B2B" stroke-width="0.67679" stroke-miterlimit="10"/>
    <path d="M199.479 176.632C204.767 178.407 210.21 179.684 215.736 180.447C218.46 180.797 221.205 180.96 223.951 180.935C225.315 180.892 226.674 180.849 228.021 180.678C228.668 180.606 229.426 180.56 230.174 180.515C230.915 180.44 231.66 180.424 232.404 180.466C235.322 180.645 238.203 181.219 240.967 182.171C243.669 183.128 246.29 184.299 248.805 185.675C253.777 188.401 258.381 191.751 262.505 195.643C257.832 192.584 252.953 189.851 247.905 187.462C243.029 185.016 237.735 183.511 232.302 183.027C231.645 182.978 230.985 182.983 230.329 183.044C229.677 183.073 229.033 183.093 228.284 183.168C226.845 183.316 225.398 183.38 223.952 183.357C221.083 183.288 218.226 182.972 215.411 182.414C209.838 181.303 204.467 179.353 199.479 176.632V176.632Z" fill="#2B2B2B"/>
    <path d="M199.479 245.088C202.082 248.37 204.969 251.417 208.108 254.192C214.334 259.758 221.353 264.367 228.935 267.867C232.747 269.607 236.662 271.111 240.659 272.37C238.611 271.911 236.535 271.495 234.514 270.89C232.51 270.231 230.481 269.62 228.542 268.772C220.668 265.575 213.497 260.864 207.435 254.908C204.38 251.983 201.706 248.684 199.479 245.088Z" fill="#2B2B2B"/>
    <path d="M207.951 165.232C209.039 167.676 209.905 170.212 210.537 172.811C211.224 175.397 211.674 178.039 211.88 180.706C210.79 178.264 209.924 175.727 209.295 173.127C208.61 170.541 208.161 167.899 207.951 165.232V165.232Z" fill="#2B2B2B"/>
    <path d="M204.197 114.456C206.304 112.609 208.551 110.927 210.918 109.427C213.289 107.916 215.762 106.571 218.319 105.4C220.906 104.238 223.63 103.41 226.427 102.938C227.841 102.73 229.275 102.699 230.696 102.845C232.114 103.008 233.473 103.507 234.659 104.301C232.081 103.32 229.259 103.183 226.598 103.909C223.922 104.512 221.319 105.405 218.835 106.572C216.303 107.68 213.828 108.914 211.42 110.271C208.987 111.602 206.596 113.018 204.197 114.456Z" fill="#2B2B2B"/>
    <path d="M166.464 209.912C166.607 214.585 166.586 219.254 166.652 223.925L166.571 237.928C166.514 247.264 166.256 256.594 165.997 265.924C165.676 275.251 165.351 284.579 164.827 293.9L164.033 307.882C163.674 312.54 163.404 317.2 162.967 321.855C162.823 317.182 162.844 312.514 162.776 307.843L162.856 293.839C162.915 284.503 163.173 275.173 163.435 265.844C163.759 256.516 164.083 247.188 164.609 237.867L165.403 223.885C165.76 219.228 166.03 214.567 166.464 209.912Z" fill="#2B2B2B"/>
    <path d="M152.007 306.821C157.392 306.146 162.788 305.634 168.178 305.035L184.369 303.517C195.163 302.508 205.971 301.699 216.78 300.892C227.593 300.146 238.406 299.404 249.233 298.861L265.475 298.055C270.895 297.88 276.31 297.617 281.736 297.519C276.351 298.197 270.955 298.709 265.565 299.309L249.374 300.828C238.58 301.835 227.772 302.644 216.963 303.448C206.15 304.191 195.337 304.934 184.509 305.475L168.268 306.282C162.847 306.459 157.433 306.722 152.007 306.821Z" fill="#2B2B2B"/>
    <path d="M159.89 246.088C160.388 246.071 160.861 245.861 161.207 245.502C161.554 245.143 161.747 244.664 161.747 244.165C161.747 243.666 161.554 243.187 161.207 242.828C160.861 242.469 160.388 242.259 159.89 242.242C159.391 242.259 158.919 242.469 158.572 242.828C158.226 243.187 158.032 243.666 158.032 244.165C158.032 244.664 158.226 245.143 158.572 245.502C158.919 245.861 159.391 246.071 159.89 246.088Z" fill="#FDB914"/>
    <path d="M156.198 280.708C156.696 280.691 157.168 280.481 157.515 280.122C157.862 279.763 158.055 279.284 158.055 278.785C158.055 278.286 157.862 277.806 157.515 277.448C157.168 277.089 156.696 276.879 156.198 276.861C155.699 276.879 155.227 277.089 154.88 277.448C154.534 277.806 154.34 278.286 154.34 278.785C154.34 279.284 154.534 279.763 154.88 280.122C155.227 280.481 155.699 280.691 156.198 280.708Z" fill="#FDB914"/>
    <path d="M152.967 307.942C153.466 307.925 153.938 307.715 154.285 307.356C154.631 306.997 154.825 306.518 154.825 306.019C154.825 305.52 154.631 305.041 154.285 304.682C153.938 304.323 153.466 304.113 152.967 304.096C152.469 304.113 151.996 304.323 151.65 304.682C151.303 305.041 151.109 305.52 151.109 306.019C151.109 306.518 151.303 306.997 151.65 307.356C151.996 307.715 152.469 307.925 152.967 307.942V307.942Z" fill="#FDB914"/>
    <path d="M161.736 215.161C162.235 215.144 162.707 214.934 163.054 214.575C163.4 214.216 163.594 213.737 163.594 213.238C163.594 212.739 163.4 212.26 163.054 211.901C162.707 211.542 162.235 211.332 161.736 211.314C161.238 211.332 160.766 211.542 160.419 211.901C160.073 212.26 159.879 212.739 159.879 213.238C159.879 213.737 160.073 214.216 160.419 214.575C160.766 214.934 161.238 215.144 161.736 215.161V215.161Z" fill="#FDB914"/>
    <path d="M158.045 322.351C159.297 325.149 160.636 327.83 162.093 330.411C163.512 332.971 165.183 335.383 167.081 337.611C168.955 339.785 171.172 341.636 173.644 343.093C176.273 344.442 179.115 345.33 182.045 345.716C178.946 346.334 175.734 346.051 172.79 344.903C169.853 343.63 167.241 341.712 165.146 339.291C161.144 334.479 158.671 328.579 158.045 322.351L158.045 322.351Z" fill="#2B2B2B"/>
    <path d="M187.428 321.855C184.842 335.652 182.867 349.549 181.032 363.454C179.238 377.365 177.588 391.295 176.297 405.259C173.646 433.176 171.618 461.163 170.891 489.197C170.773 492.699 170.573 496.2 170.508 499.705L170.331 510.218C170.257 517.227 169.998 524.237 170.075 531.247L170.253 552.278C170.262 555.784 170.314 559.289 170.464 562.792L170.779 573.303C171.412 601.351 173.677 629.321 176.043 657.295L173.63 636.378C172.843 629.401 171.991 622.428 171.514 615.423L169.914 594.416C169.608 590.917 169.455 587.409 169.299 583.901L168.808 573.378C167.407 545.314 167.542 517.193 168.332 489.111C169.274 461.029 171.279 433.011 174.345 405.056C175.877 391.094 177.739 377.169 179.797 363.277C182.046 349.414 184.434 335.571 187.428 321.855Z" fill="#2B2B2B"/>
    <path d="M208.352 527.125C208.706 522.654 209.262 518.21 209.738 513.753L211.509 500.434C212.725 491.557 214.234 482.725 215.828 473.908C217.471 465.1 219.272 456.314 221.429 447.607C222.497 443.251 223.674 438.92 224.879 434.601L226.937 428.189C227.659 426.064 228.475 423.97 229.274 421.88L227.59 428.379L226.096 434.915C225.142 439.282 224.185 443.643 223.354 448.035C221.658 456.808 219.931 465.575 218.348 474.375L213.446 500.752L210.973 513.946L208.352 527.125Z" fill="#2B2B2B"/>
    <path d="M218.979 489.234C225.097 494.589 231.103 500.063 237.168 505.474L255.174 521.909C267.159 532.885 278.987 544.029 290.902 555.081C302.674 566.284 314.522 577.406 326.223 588.685L343.74 605.641C349.514 611.361 355.349 617.017 361.071 622.794C354.951 617.441 348.945 611.966 342.879 606.557L324.872 590.123C312.891 579.142 301.057 568.004 289.148 556.947C277.38 545.739 265.526 534.623 253.829 523.34L236.312 506.385C230.536 500.666 224.701 495.01 218.979 489.234Z" fill="#2B2B2B"/>
    <path d="M65.1714 317.137C59.9985 319.424 54.9538 321.991 50.0599 324.827C45.1647 327.648 40.3988 330.677 35.6899 333.787C31.034 336.979 26.4769 340.306 22.0185 343.769C17.5351 347.197 13.1341 350.738 8.81551 354.392L8.88691 354.318C8.23891 355.043 7.64723 355.816 7.11705 356.631C6.87864 356.989 6.69039 357.379 6.55752 357.789C6.49753 357.957 6.55005 358.059 6.495 357.969C6.47479 357.961 6.47391 357.933 6.47508 357.963C6.53819 357.964 6.60071 357.975 6.66054 357.995L8.31269 358.535L6.94944 359.219C5.42964 359.959 4.073 360.995 2.95917 362.267C2.40361 362.864 2.00269 363.588 1.79146 364.376C1.58023 365.163 1.5651 365.991 1.74741 366.786C1.83023 367.168 1.98154 367.533 2.19401 367.862C2.42538 368.171 2.71418 368.432 3.04455 368.632C3.76201 369.004 4.57378 369.154 5.37677 369.064C7.07723 368.827 8.70496 368.22 10.145 367.285L11.658 366.412L10.691 367.881C9.43715 369.709 8.43471 371.697 7.71061 373.793C7.34981 374.776 7.24382 375.835 7.40254 376.871C7.51244 377.321 7.75501 377.727 8.09877 378.038C8.44252 378.349 8.87164 378.549 9.33047 378.612L9.67817 378.847C9.87765 378.938 10.095 378.985 10.3145 378.982C10.6505 378.977 10.9842 378.925 11.3063 378.829C12.0128 378.594 12.6925 378.285 13.3339 377.907C14.6605 377.099 15.9123 376.174 17.0744 375.144C19.5022 373.018 22.0809 371.072 24.7902 369.32C30.1616 365.775 35.7164 362.602 41.4058 359.61L46.4128 356.977L42.9307 361.505C41.1248 363.762 39.6074 366.235 38.4135 368.868C37.8711 369.942 37.6555 371.151 37.7935 372.347C37.8395 372.523 37.9271 372.685 38.0489 372.82C38.1707 372.955 38.3232 373.06 38.4936 373.123C39.0256 373.321 39.5877 373.424 40.1551 373.43L41.2121 373.971C41.1113 373.839 40.9872 373.726 40.8457 373.638L40.7377 373.578C40.6681 373.544 40.5954 373.518 40.5206 373.499C40.4766 373.485 40.4313 373.476 40.3854 373.472L40.2983 373.465C40.2556 373.474 40.342 373.454 40.3581 373.454C40.4726 373.43 40.5857 373.4 40.6971 373.364C40.9531 373.288 41.2402 373.175 41.5212 373.067C42.093 372.831 42.6743 372.57 43.2541 372.288C44.4136 371.727 45.5748 371.115 46.7317 370.499C49.0293 369.271 51.3513 367.887 53.6239 366.594C58.1618 363.936 62.5216 360.984 66.6755 357.758C70.8385 354.538 74.7231 350.973 78.2884 347.101C81.889 343.235 84.8403 338.811 87.0282 334.002L87.2681 334.092C85.4853 339.167 82.8003 343.878 79.3424 347.997C75.9459 352.161 72.1475 355.981 68.0024 359.4C63.8791 362.843 59.5183 365.992 54.9523 368.822C52.6277 370.192 50.4055 371.564 48.0361 372.878C46.8596 373.53 45.6794 374.176 44.4419 374.761C43.8273 375.059 43.1961 375.343 42.5389 375.611C42.2003 375.741 41.8684 375.871 41.4877 375.985C41.2825 376.049 41.0741 376.102 40.8632 376.144C40.7201 376.172 40.5754 376.19 40.4299 376.198C40.318 376.206 40.2057 376.204 40.0943 376.192C40.0073 376.182 39.921 376.167 39.8357 376.148C39.7411 376.122 39.649 376.089 39.5604 376.047L39.4235 375.975C39.2732 375.882 39.1407 375.763 39.0322 375.624L40.0885 376.165C39.1489 376.152 38.2202 375.962 37.3513 375.604C36.8281 375.372 36.3622 375.028 35.9864 374.596C35.6106 374.165 35.334 373.656 35.1762 373.106C34.8554 371.309 35.1355 369.456 35.9731 367.835C36.6215 366.395 37.3869 365.01 38.2614 363.696C39.1109 362.395 40.0267 361.139 41.0053 359.932L42.5302 361.828C36.8875 364.694 31.2763 367.723 25.873 371.014C23.1672 372.641 20.5651 374.434 18.082 376.383C16.8022 377.408 15.4356 378.319 13.9977 379.107C13.2464 379.508 12.4537 379.827 11.6335 380.057C11.1853 380.17 10.7232 380.219 10.2612 380.201C9.97055 380.204 9.68277 380.144 9.41707 380.026C9.15137 379.909 8.91389 379.735 8.72047 379.518L9.06756 379.753C8.42741 379.58 7.83451 379.265 7.33303 378.831C6.84243 378.364 6.51458 377.752 6.39774 377.085C6.25477 375.876 6.40057 374.651 6.82312 373.509C7.60652 371.339 8.68016 369.286 10.0148 367.405L10.5607 368.001C8.99849 368.959 7.25648 369.588 5.4421 369.847C4.47747 369.961 3.50073 369.784 2.63775 369.338C2.20584 369.085 1.82778 368.75 1.52502 368.351C1.25034 367.941 1.04779 367.486 0.926115 367.008C0.682406 366.079 0.667296 365.106 0.882065 364.17C1.09683 363.235 1.53509 362.365 2.1593 361.637C3.30984 360.175 4.74235 358.96 6.37169 358.064L6.66057 359.288C6.4718 359.274 6.27903 359.25 6.0908 359.218C5.84392 359.138 5.62317 358.993 5.45181 358.798C5.31984 358.616 5.22996 358.406 5.18863 358.185C5.14731 357.964 5.15556 357.736 5.21283 357.519C5.34779 356.948 5.56794 356.401 5.86586 355.895C6.39588 354.975 6.9975 354.098 7.66514 353.271L7.68878 353.242L7.73708 353.198C9.83931 351.281 11.9091 349.321 14.0438 347.435C16.221 345.599 18.3458 343.693 20.6188 341.972C25.0629 338.397 29.7985 335.205 34.5468 332.056C39.329 328.951 44.2737 326.104 49.3598 323.528C54.4131 320.891 59.6735 318.673 65.0886 316.895L65.1714 317.137Z" fill="#2B2B2B"/>
    <path d="M34.583 348.308C30.4119 351.373 26.3014 354.515 22.2517 357.734C20.2359 359.353 18.2361 360.99 16.2875 362.678C14.3327 364.312 12.5164 366.104 10.8573 368.037L9.84766 367.247C11.636 365.317 13.5842 363.542 15.6714 361.94C17.7037 360.321 19.776 358.763 21.862 357.225C26.0458 354.167 30.2861 351.195 34.583 348.308Z" fill="#2B2B2B"/>
    <path d="M6.31348 358.101L26.7377 345.743L7.00678 359.181L6.31348 358.101Z" fill="#2B2B2B"/>
    <path d="M144.659 680.949C144.659 680.949 154.813 682.221 114.198 703.916C73.5831 725.611 60.6602 727.919 60.6602 740.383C60.6602 740.383 74.9677 760.693 175.121 733.459H178.146V737.151L206.044 735.305C206.044 735.305 207.89 698.839 200.044 688.222C200.044 688.222 196.816 675.31 200.045 672.072" fill="#2B2B2B"/>
    <path d="M350.758 632.583C350.758 632.583 358.466 632.445 355.01 678.366C351.554 724.287 346.576 736.436 357.096 743.116C357.096 743.116 381.909 741.921 412.6 642.761L414.222 640.206L417.339 642.185L428.863 621.068C428.863 621.068 391.371 596.507 378.204 597.441" fill="#2B2B2B"/>
    <path d="M163.981 65.4672C163.981 65.4672 184.971 37.4113 164.354 39.0309" stroke="#2B2B2B" stroke-width="0.81402" stroke-miterlimit="10"/>
    <path d="M162.033 71.6584C174.892 65.4674 179.841 54.2584 180.581 41.7869C181.284 31.4368 178.125 21.1935 171.716 13.0367C167.441 7.24972 161.302 3.11362 154.333 1.32535C147.365 -0.462919 139.993 0.205968 133.46 3.2193C135.132 10.9075 138.841 18.0045 144.197 23.7668C149.554 29.5291 156.361 33.7447 163.906 35.9718L164.353 39.0311C164.353 39.0311 178.421 35.7755 170.967 53.3378C168.88 57.5154 166.547 61.5657 163.981 65.4674L162.033 71.6584Z" fill="#2B2B2B"/>
    <path d="M170.958 96.1501C180.654 95.0245 190.376 94.1446 200.125 93.5105C209.889 92.8061 219.688 92.7561 229.459 93.3608C231.931 93.5408 234.384 93.9299 236.791 94.524C237.396 94.7049 238.002 94.8888 238.601 95.1137C239.193 95.3753 239.81 95.639 240.325 95.9131C241.395 96.4653 242.488 96.9903 243.59 97.5031C245.928 98.4379 248.1 99.7403 250.027 101.361C251.845 103.126 253.321 105.213 254.378 107.516C256.474 111.969 258.248 116.566 259.686 121.272C261.184 125.931 262.592 130.612 263.91 135.315C269.331 154.093 273.785 173.137 277.255 192.372C278.092 197.186 278.825 202.021 279.367 206.883C280.003 211.747 280.229 216.655 280.045 221.557C279.953 222.798 279.745 224.027 279.422 225.228C279.076 226.413 278.63 227.565 278.088 228.674C277.098 230.911 276.037 233.119 274.87 235.273C273.719 237.441 272.413 239.523 270.962 241.502C269.544 243.538 267.776 245.307 265.741 246.728L265.854 246.346C273.991 263.688 282.166 281.003 289.575 298.699C290.469 300.938 291.375 303.127 292.071 305.525L292.269 306.504C292.347 306.905 292.27 307.322 292.054 307.669C291.881 307.982 291.656 308.263 291.389 308.501C291.16 308.734 290.911 308.945 290.644 309.133C289.639 309.857 288.564 310.479 287.435 310.99C283.011 312.937 278.414 314.466 273.705 315.557C264.358 317.797 254.878 319.435 245.323 320.462C226.243 322.509 207.061 323.458 187.873 323.304C178.286 323.266 168.697 323.021 159.126 322.657L155.596 322.609C154.3 322.682 153 322.556 151.742 322.235C150.469 321.804 149.315 321.079 148.375 320.118C147.435 319.158 146.734 317.989 146.33 316.707C145.546 314.319 145.211 311.807 145.342 309.298C145.42 306.858 145.678 304.427 146.113 302.024L147.031 303.038C146.862 303.001 146.702 302.931 146.559 302.834C146.353 302.687 146.205 302.472 146.14 302.227C146.098 302.065 146.087 301.896 146.107 301.73L146.129 301.309L146.177 300.477L146.282 298.825L146.506 295.529L146.975 288.941L147.947 275.771L149.965 249.437L152.097 223.113C152.911 214.345 153.585 205.569 154.711 196.824C154.714 196.8 154.727 196.778 154.746 196.763C154.765 196.748 154.789 196.742 154.813 196.745C154.838 196.75 154.859 196.764 154.874 196.784C154.888 196.804 154.895 196.829 154.892 196.853C153.963 205.594 153.481 214.395 152.863 223.172L151.071 249.517L149.365 275.868L148.55 289.046L148.159 295.634L147.975 298.927L147.889 300.57L147.852 301.387L147.836 301.79C147.817 301.813 147.869 302.073 147.792 301.705C147.755 301.613 147.698 301.53 147.626 301.461C147.555 301.392 147.469 301.339 147.375 301.305C147.224 301.248 147.057 301.249 146.905 301.307L147.823 302.321C147.431 304.636 147.21 306.977 147.162 309.324C147.054 311.61 147.359 313.896 148.063 316.073C148.37 317.086 148.912 318.01 149.645 318.772C150.378 319.534 151.282 320.111 152.282 320.455C153.347 320.719 154.448 320.816 155.543 320.742L159.193 320.784C168.759 321.128 178.315 321.352 187.879 321.372C206.997 321.563 226.111 320.699 245.134 318.784C254.63 317.823 264.059 316.289 273.37 314.19C278.007 313.172 282.538 311.724 286.906 309.864C287.964 309.4 288.974 308.833 289.922 308.17C290.354 307.89 290.726 307.527 291.016 307.101C291.249 306.883 291.02 306.304 290.937 305.782C290.322 303.577 289.431 301.315 288.572 299.102C285.029 290.226 281.122 281.478 277.224 272.736C273.31 264 269.339 255.288 265.311 246.601C265.28 246.535 265.275 246.459 265.296 246.389C265.316 246.319 265.362 246.258 265.423 246.219C267.411 244.857 269.136 243.147 270.516 241.172C271.939 239.206 273.218 237.139 274.343 234.989C275.487 232.846 276.528 230.646 277.5 228.416C278.024 227.329 278.454 226.2 278.785 225.04C279.087 223.883 279.279 222.701 279.361 221.509C279.527 216.651 279.251 211.789 278.536 206.982C277.925 202.153 277.122 197.346 276.216 192.559C274.406 182.984 272.24 173.475 269.879 164.018C267.543 154.554 265.029 145.136 262.338 135.763C260.992 131.078 259.654 126.392 258.178 121.757C256.79 117.12 255.073 112.588 253.04 108.195C252.073 106.044 250.716 104.091 249.038 102.434C247.227 100.905 245.185 99.6729 242.986 98.7859C241.88 98.2632 240.776 97.7256 239.682 97.1531C239.121 96.8512 238.612 96.6419 238.091 96.4031C237.552 96.198 236.988 96.0232 236.427 95.851C234.1 95.2536 231.728 94.8475 229.335 94.6369C219.63 93.9026 209.886 93.8176 200.17 94.3825C190.429 94.7764 180.698 95.4264 170.977 96.3324C170.953 96.3347 170.929 96.3275 170.911 96.3123C170.892 96.2971 170.88 96.2751 170.877 96.2511C170.875 96.2271 170.882 96.203 170.897 96.1841C170.912 96.1652 170.934 96.153 170.958 96.1501L170.958 96.1501Z" fill="#2B2B2B"/>
</svg>
