<svg width="974" height="829" viewBox="0 0 974 829" fill="none" xmlns="http://www.w3.org/2000/svg">
<path d="M589.854 473.185C590.874 474.917 592.074 476.535 593.435 478.013C594.741 479.537 596.174 480.936 597.581 482.363C600.483 485.122 603.464 487.806 606.598 490.302C612.851 495.328 619.476 499.872 626.418 503.895C633.353 507.972 640.682 511.34 648.295 513.945C652.115 515.244 656.025 516.262 659.994 516.99C662.005 517.231 664.008 517.624 666.026 517.735C668.046 517.793 670.069 517.886 672.09 517.912C680.146 517.64 688.15 516.507 695.965 514.533C703.765 512.646 711.444 510.289 718.959 507.473C726.481 504.71 733.866 501.605 741.215 498.469C743.053 497.695 744.895 496.905 746.747 496.23C747.653 495.912 748.629 495.58 749.599 495.18C750.048 494.918 750.518 494.689 750.946 494.397C751.367 494.093 751.77 493.765 752.151 493.413C753.61 491.954 754.706 490.173 755.35 488.213C756.005 486.282 756.367 484.264 756.424 482.226L756.419 482.285C761.234 455.913 767.416 429.808 774.941 404.076C778.603 391.187 782.693 378.424 786.896 365.706C791.106 352.989 795.595 340.37 800.361 327.849C802.766 321.599 805.175 315.351 807.701 309.152C808.924 306.042 810.357 303.02 811.415 299.728C812.463 296.466 813.148 293.099 813.457 289.686C813.631 287.958 813.68 286.219 813.604 284.483C813.412 282.603 812.636 280.832 811.384 279.416C810.132 278.001 808.467 277.013 806.624 276.592C804.951 276.173 803.246 275.892 801.527 275.752C798.052 275.52 794.566 275.997 791.283 277.155L781.72 280.29L743.47 292.831C741.833 293.3 740.236 293.898 738.693 294.618C737.15 295.395 735.735 296.404 734.498 297.61C731.998 300.019 730.366 303.186 729.857 306.619L727.019 326.534C727.016 326.558 727.022 326.583 727.037 326.603C727.052 326.623 727.074 326.636 727.099 326.64C727.123 326.643 727.148 326.637 727.168 326.623C727.188 326.609 727.202 326.587 727.206 326.562L730.547 306.733C731.122 303.491 732.729 300.521 735.128 298.265C736.312 297.141 737.662 296.206 739.13 295.492C740.637 294.815 742.195 294.258 743.789 293.826L782.206 281.804L791.81 278.799C794.888 277.754 798.146 277.35 801.386 277.61C803.009 277.769 804.619 278.048 806.201 278.443C807.653 278.779 808.962 279.56 809.947 280.677C810.931 281.794 811.541 283.192 811.69 284.673C811.746 286.286 811.693 287.902 811.53 289.509C811.226 292.779 810.562 296.005 809.55 299.13C808.553 302.226 807.105 305.279 805.866 308.403C803.323 314.617 800.873 320.867 798.517 327.152C789.093 352.292 780.837 377.821 773.749 403.741C770.209 416.682 766.906 429.688 763.977 442.778C760.886 455.832 758.347 469.005 755.767 482.167L755.763 482.201L755.762 482.226C755.775 486.166 754.304 489.967 751.641 492.873C751.286 493.195 750.912 493.496 750.521 493.775C750.126 494.044 749.685 494.241 749.271 494.479C748.389 494.822 747.465 495.124 746.48 495.448C744.565 496.11 742.718 496.866 740.861 497.611C733.452 500.623 726.041 503.589 718.508 506.217C710.992 508.861 703.344 511.112 695.594 512.963C687.878 514.839 679.993 515.941 672.058 516.254C670.083 516.24 668.11 516.161 666.134 516.12C664.164 516.024 662.225 515.651 660.267 515.433C656.368 514.743 652.524 513.769 648.767 512.519C641.236 509.968 633.96 506.718 627.035 502.812C620.082 498.916 613.425 494.516 607.117 489.646C603.932 487.247 600.897 484.658 597.934 481.991C596.498 480.611 595.033 479.255 593.696 477.779C592.31 476.352 591.079 474.784 590.023 473.099L590.017 473.089C590.004 473.068 589.983 473.052 589.959 473.046C589.935 473.04 589.909 473.043 589.887 473.056C589.866 473.069 589.85 473.09 589.844 473.114C589.838 473.138 589.842 473.164 589.854 473.186L589.854 473.185Z" fill="#2B2B2B"/>
<path d="M805.838 285.24L791.329 290.328L776.857 295.511L762.402 300.743L747.972 306.042C747.85 306.087 747.74 306.161 747.654 306.258C747.567 306.356 747.506 306.473 747.475 306.6L747.472 306.614C744.587 318.947 741.814 331.306 739.153 343.691C736.469 356.07 733.895 368.474 731.105 380.829C725.612 405.56 719.612 430.175 713.815 454.836C712.432 460.923 709.905 466.692 706.37 471.837C702.841 476.957 698.224 481.236 692.85 484.368C687.459 487.432 681.38 489.085 675.179 489.173C672.048 489.153 668.92 488.97 665.808 488.625C662.674 488.288 659.542 487.938 656.439 487.423C650.225 486.475 644.112 484.951 638.181 482.872C632.263 480.706 626.516 478.102 620.986 475.082C615.409 472.118 609.964 468.885 604.569 465.57C599.147 462.296 593.776 458.931 588.399 455.576C588.378 455.563 588.353 455.558 588.328 455.563C588.304 455.569 588.283 455.583 588.269 455.604C588.256 455.625 588.251 455.65 588.256 455.675C588.261 455.699 588.275 455.721 588.296 455.734C598.807 462.814 609.268 469.992 620.347 476.247C625.879 479.422 631.653 482.156 637.616 484.423C643.615 486.644 649.817 488.277 656.133 489.3C659.283 489.833 662.45 490.198 665.617 490.548C668.804 490.911 672.007 491.107 675.215 491.136C681.754 491.084 688.169 489.342 693.835 486.079C699.367 482.696 704.136 478.205 707.843 472.888C711.551 467.572 714.115 461.546 715.374 455.189C720.796 430.443 726.015 405.651 731.741 380.974C734.561 368.625 737.596 356.325 740.521 344.001C743.457 331.679 746.294 319.334 749.031 306.967L748.53 307.538L762.911 302.107L777.266 296.607L791.603 291.06L805.904 285.418C805.927 285.408 805.946 285.391 805.956 285.368C805.966 285.345 805.967 285.32 805.958 285.296C805.95 285.273 805.932 285.254 805.91 285.244C805.887 285.233 805.861 285.232 805.838 285.24L805.838 285.24Z" fill="#2B2B2B"/>
<path d="M638.259 212.206C642.233 209.795 643.235 202.53 640.171 197.668C636.307 191.536 631.988 202.664 631.988 202.664C624.942 213.111 610.622 185.177 610.622 185.177C610.622 185.177 621.987 170.87 647.899 180.408C673.811 189.946 656.082 222.422 656.082 222.422C656.082 222.422 683.13 235.139 674.039 268.978C674.039 268.978 649.868 263.358 651.309 223.053C651.309 223.053 641.194 219.072 638.259 212.206" fill="#2B2B2B"/>
<path d="M635.426 212.926C636.871 213.283 638.398 213.064 639.685 212.316C639.739 212.284 639.785 212.241 639.822 212.19C639.859 212.14 639.886 212.082 639.901 212.022C639.916 211.961 639.919 211.898 639.909 211.836C639.899 211.774 639.878 211.714 639.845 211.661C639.813 211.607 639.77 211.561 639.719 211.524C639.669 211.487 639.611 211.46 639.55 211.445C639.489 211.43 639.426 211.428 639.364 211.437C639.302 211.447 639.243 211.468 639.189 211.501C639.155 211.523 639.123 211.548 639.094 211.577C638.09 212.48 636.777 212.963 635.426 212.926Z" fill="#2B2B2B"/>
<path d="M611.36 186.638C609.816 189.106 608.609 191.768 607.769 194.555C606.87 197.379 606.531 200.351 606.771 203.304L606.952 202.768C606.088 203.675 605.245 204.603 604.413 205.542L601.918 208.408C601.7 208.698 601.543 209.029 601.457 209.381C601.371 209.733 601.357 210.099 601.418 210.457C601.478 210.815 601.611 211.156 601.808 211.461C602.005 211.765 602.262 212.026 602.564 212.228C603.076 212.62 603.624 212.964 604.2 213.254C604.497 213.44 604.832 213.557 605.18 213.596C605.528 213.636 605.881 213.597 606.212 213.483L605.882 213.284C605.92 217.371 606.349 221.444 607.165 225.449C607.592 227.539 608.48 229.508 609.763 231.212C610.514 232.144 611.574 232.778 612.752 232.998C613.344 233.066 613.944 233.042 614.529 232.926L615.987 232.676C617.887 232.335 619.831 232.336 621.73 232.677C623.597 233.064 625.325 233.949 626.73 235.236C629.469 238.14 631.582 241.574 632.94 245.326C632.947 245.344 632.962 245.359 632.98 245.367C632.998 245.376 633.019 245.376 633.038 245.369C633.055 245.362 633.069 245.349 633.077 245.332C633.086 245.315 633.088 245.297 633.083 245.279C632.593 243.293 631.918 241.358 631.067 239.499C630.233 237.58 629.067 235.822 627.623 234.306C626.115 232.744 624.186 231.65 622.07 231.157C619.983 230.715 617.828 230.695 615.732 231.096L614.204 231.406C613.796 231.5 613.376 231.533 612.959 231.504C612.124 231.36 611.367 230.924 610.824 230.273C609.631 228.755 608.76 227.01 608.264 225.144C607.1 221.291 606.451 217.301 606.336 213.277C606.334 213.216 606.307 213.159 606.263 213.117C606.218 213.076 606.158 213.054 606.097 213.056C606.066 213.058 606.035 213.065 606.006 213.079C605.738 213.151 605.458 213.165 605.184 213.121C604.91 213.076 604.649 212.973 604.418 212.818C603.883 212.526 603.381 212.177 602.921 211.777C602.706 211.62 602.526 211.42 602.392 211.189C602.259 210.959 602.175 210.703 602.145 210.439C602.116 210.174 602.142 209.906 602.221 209.652C602.3 209.398 602.432 209.163 602.606 208.962L605.283 206.368C606.179 205.491 607.065 204.603 607.929 203.695C607.993 203.628 608.043 203.547 608.074 203.459C608.106 203.371 608.119 203.278 608.112 203.184L608.11 203.158C607.99 201.774 607.994 200.381 608.121 198.996C608.266 197.595 608.498 196.205 608.813 194.832C609.475 192.054 610.371 189.337 611.492 186.711C611.496 186.702 611.499 186.692 611.499 186.682C611.5 186.672 611.498 186.662 611.495 186.653C611.492 186.644 611.486 186.635 611.48 186.628C611.473 186.62 611.465 186.614 611.456 186.61C611.439 186.603 611.421 186.602 611.403 186.607C611.386 186.612 611.37 186.623 611.36 186.638Z" fill="#2B2B2B"/>
<path d="M615.453 197.781C614.598 196.92 613.453 196.405 612.241 196.338C611.044 196.223 609.84 196.489 608.804 197.1C610 197.191 611.076 197.183 612.159 197.281C613.266 197.378 614.367 197.545 615.453 197.781Z" fill="#2B2B2B"/>
<path d="M612.555 203.629C612.186 203.616 611.837 203.461 611.581 203.196C611.325 202.932 611.182 202.578 611.182 202.21C611.182 201.842 611.325 201.488 611.581 201.223C611.837 200.958 612.186 200.803 612.555 200.79C612.923 200.803 613.272 200.958 613.528 201.223C613.784 201.488 613.927 201.842 613.927 202.21C613.927 202.578 613.784 202.932 613.528 203.196C613.272 203.461 612.923 203.616 612.555 203.629Z" fill="#2B2B2B"/>
<path d="M630.966 219.924C629.641 221.532 628.435 223.159 627.147 224.72C625.881 226.307 624.478 227.78 622.953 229.121C624.9 228.307 626.599 226.996 627.878 225.32C629.212 223.713 630.256 221.887 630.966 219.924Z" fill="#2B2B2B"/>
<path d="M728.211 320.39C727.27 316.025 726.127 311.786 724.894 307.529C723.645 303.288 722.34 299.056 720.83 294.894C717.895 286.519 714.386 278.356 710.329 270.463C708.261 266.515 705.975 262.685 703.482 258.99C701.007 255.247 698.205 251.73 695.109 248.481C692.011 245.15 688.435 242.296 684.5 240.014C680.484 237.698 675.987 236.341 671.36 236.049L671.348 236.048C671.269 236.044 671.19 236.048 671.112 236.059C666.636 236.711 662.201 237.481 657.773 238.353C653.346 239.216 648.931 240.15 644.542 241.233C640.094 242.221 635.75 243.625 631.565 245.425C629.492 246.453 627.611 247.54 625.569 248.512L619.481 251.422C617.427 252.393 615.438 253.498 613.528 254.728C611.565 255.959 609.867 257.568 608.533 259.461C605.914 263.04 602.837 266.366 599.893 269.741C593.937 276.464 587.865 283.087 581.678 289.609C581.574 289.719 581.508 289.86 581.49 290.011C581.471 290.161 581.502 290.313 581.577 290.445L581.583 290.456C583.877 294.493 586.352 298.383 588.953 302.213C591.558 306.036 594.323 309.757 597.291 313.332C600.265 316.933 603.528 320.285 607.047 323.356C610.608 326.581 614.792 329.043 619.341 330.593L618.734 330.233C622.022 333.573 625.385 336.779 628.931 339.854C630.707 341.385 632.525 342.878 634.47 344.269C635.455 344.986 636.484 345.642 637.549 346.235C638.778 347.003 640.188 347.434 641.636 347.487L640.044 345.637C639.29 348.941 638.507 352.251 637.686 355.537L636.418 360.444C636.204 361.258 635.978 362.066 635.742 362.856C635.536 363.588 635.288 364.309 635 365.013L634.965 365.089C634.881 365.278 634.835 365.482 634.829 365.689C634.823 365.896 634.859 366.102 634.933 366.296C635.007 366.489 635.118 366.666 635.261 366.816C635.403 366.967 635.574 367.088 635.764 367.172C635.921 367.241 636.088 367.285 636.259 367.302C646.819 368.293 657.362 368.969 667.948 369.338C678.553 369.77 689.175 369.527 699.749 368.609C702.399 368.333 705.049 367.999 707.688 367.492C710.369 367.034 712.994 366.288 715.516 365.269C716.838 364.729 718.074 363.996 719.181 363.094C719.767 362.592 720.268 361.998 720.662 361.336C721.041 360.668 721.249 360.085 721.55 359.456C722.614 356.993 723.485 354.449 724.154 351.85C725.469 346.71 726.423 341.483 727.008 336.209C727.624 330.947 728.031 325.711 728.211 320.39ZM727.911 320.419C727.127 330.893 725.337 341.268 722.564 351.4C721.839 353.887 720.921 356.313 719.818 358.657C719.534 359.208 719.26 359.86 718.97 360.327C718.671 360.787 718.299 361.197 717.87 361.539C716.9 362.268 715.829 362.852 714.691 363.272C709.781 364.882 704.68 365.836 699.52 366.108C689.044 366.765 678.54 366.829 668.057 366.299C657.554 365.889 647.029 365.168 636.583 364.144L637.842 366.433C638.22 365.57 638.538 364.683 638.795 363.777C639.049 362.937 639.285 362.107 639.508 361.275C639.967 359.615 640.361 357.95 640.762 356.287C641.554 352.959 642.302 349.635 643.026 346.293C643.068 346.097 643.072 345.894 643.036 345.696C643 345.499 642.925 345.31 642.817 345.141C642.708 344.972 642.567 344.827 642.402 344.712C642.236 344.598 642.05 344.517 641.854 344.475C641.716 344.446 641.574 344.435 641.433 344.443C640.563 344.335 639.726 344.042 638.978 343.583C638.013 343.058 637.08 342.476 636.185 341.839C634.346 340.555 632.562 339.126 630.814 337.652C627.326 334.695 623.942 331.54 620.695 328.313L620.685 328.302C620.518 328.138 620.313 328.018 620.088 327.953C615.882 326.561 611.994 324.347 608.652 321.44C605.18 318.517 601.946 315.322 598.98 311.886C595.967 308.465 593.129 304.873 590.441 301.168C587.756 297.466 585.189 293.647 582.838 289.741L582.743 290.586C588.716 283.861 594.711 277.162 600.638 270.396C603.58 266.982 606.54 263.629 609.315 260.014C611.835 256.403 615.985 254.371 619.971 252.436C624.008 250.549 628.193 248.696 632.182 246.72C636.319 245.102 640.598 243.872 644.963 243.046C653.709 241.157 662.614 239.886 671.467 238.581L671.219 238.591C675.445 238.903 679.54 240.188 683.186 242.344C686.878 244.532 690.259 247.204 693.239 250.291C696.274 253.401 699.027 256.774 701.466 260.371C703.955 263.965 706.242 267.695 708.316 271.543C712.52 279.258 716.216 287.239 719.382 295.434C722.601 303.613 725.473 311.989 727.911 320.419L727.911 320.419Z" fill="#2B2B2B"/>
<path d="M619.714 329.273C620.791 326.823 621.803 324.354 622.826 321.891C623.853 319.429 624.821 316.945 625.886 314.504C626.875 312.031 627.937 309.588 629.039 307.171C629.573 305.953 630.155 304.76 630.784 303.591C631.077 302.997 631.407 302.422 631.772 301.868C631.945 301.586 632.133 301.314 632.335 301.051L633.011 300.317C631.055 302.171 629.483 304.391 628.385 306.851C627.135 309.226 626.074 311.686 625.012 314.14C624.016 316.623 623.032 319.109 622.148 321.632C621.265 324.154 620.423 326.692 619.714 329.273Z" fill="#2B2B2B"/>
<path d="M634.716 376.417C634.806 376.417 634.894 376.391 634.97 376.343C635.046 376.295 635.106 376.226 635.145 376.145L639.831 366.206C639.858 366.15 639.873 366.089 639.877 366.027C639.88 365.964 639.871 365.902 639.85 365.843C639.829 365.784 639.796 365.73 639.754 365.684C639.712 365.638 639.662 365.601 639.605 365.574C639.549 365.548 639.488 365.532 639.425 365.53C639.363 365.527 639.301 365.536 639.242 365.557C639.183 365.579 639.129 365.611 639.083 365.653C639.037 365.695 639 365.746 638.974 365.803L634.287 375.741C634.254 375.814 634.239 375.893 634.244 375.973C634.249 376.052 634.274 376.129 634.316 376.197C634.359 376.264 634.418 376.319 634.488 376.358C634.558 376.396 634.636 376.417 634.716 376.417Z" fill="#2B2B2B"/>
<path d="M719.773 361.294L714.052 382.33C717.045 371.779 719.167 363.632 719.773 361.294Z" fill="#2B2B2B"/>
<path d="M517.773 493.474C520.971 499.096 519.492 510.657 520.156 514.591C521.058 520.153 523.175 525.448 526.357 530.101C527.216 523.483 528.227 516.882 529.268 510.28C530.309 503.693 531.486 497.121 532.572 490.535C533.794 483.978 534.94 477.391 536.222 470.85L538.168 461.022C538.878 457.751 539.526 454.48 540.281 451.225C539.858 454.541 539.36 457.842 538.893 461.158L537.369 471.046C536.328 477.647 535.166 484.219 534.065 490.791C532.843 497.363 531.697 503.934 530.415 510.491C529.132 517.032 527.835 523.589 526.357 530.101C533.507 540.576 545.546 547.193 558.972 552.242C569.032 556.003 579.393 558.907 589.943 560.924C597.667 493.127 585.613 445.437 585.613 445.437C585.613 445.437 586.986 443.734 591.753 443.734C596.535 443.734 609.826 451.572 609.826 451.572C660.288 482.23 675.977 465.197 687.909 452.25C695.739 443.749 707.128 406.821 714.008 382.523C667.634 399.556 641.883 375.937 637.055 375.937C635.532 375.937 628.064 375.153 617.655 374.158C616.429 375.409 615.475 376.9 614.852 378.536C614.229 380.173 613.951 381.92 614.035 383.669C609.72 389.789 604.485 379.569 606.763 375.937C607.274 375.105 607.67 374.207 607.94 373.269C605.873 373.088 603.731 372.892 601.543 372.711C597.908 377.685 593.699 385.041 589.943 388.658C583.35 395.019 582.204 384.799 582.204 384.799C574.027 390.708 574.027 380.263 574.027 380.263C566.756 384.574 569.26 374.158 569.26 374.158C568.761 373.724 568.393 373.161 568.196 372.53C567.999 371.899 567.981 371.226 568.144 370.586C558.857 370.125 549.551 370.256 540.281 370.978C511.98 373.842 485.037 456.335 485.037 456.335C484.011 470.985 506.187 473.035 517.773 493.474Z" fill="#2B2B2B"/>
<path d="M679.658 516.588C678.603 523.163 677.952 529.77 677.266 536.374C676.628 542.982 676.325 549.616 675.913 556.241L674.654 576.115L673.49 595.996C673.488 596.021 673.496 596.046 673.513 596.064C673.529 596.083 673.552 596.095 673.577 596.096C673.602 596.098 673.626 596.091 673.645 596.075C673.664 596.059 673.676 596.036 673.679 596.011L675.598 576.188L677.424 556.358C678.04 549.749 678.764 543.148 679.155 536.521C679.496 529.89 679.874 523.262 679.847 516.603C679.847 516.579 679.838 516.556 679.822 516.538C679.805 516.521 679.783 516.51 679.759 516.508C679.735 516.506 679.712 516.513 679.693 516.528C679.674 516.543 679.662 516.564 679.658 516.588H679.658Z" fill="#2B2B2B"/>
<path d="M658.942 516.062C658.276 522.714 658.016 529.373 657.72 536.031C657.473 542.691 657.561 549.356 657.541 556.02L657.455 576.01L657.465 596.002C657.465 596.027 657.474 596.051 657.492 596.069C657.509 596.087 657.533 596.097 657.558 596.097C657.583 596.098 657.607 596.088 657.625 596.071C657.643 596.054 657.653 596.03 657.654 596.006L658.402 576.028L659.055 556.048C659.281 549.388 659.615 542.73 659.614 536.066C659.565 529.401 659.551 522.738 659.131 516.066C659.13 516.042 659.119 516.02 659.102 516.003C659.085 515.987 659.062 515.978 659.038 515.977C659.014 515.977 658.991 515.985 658.974 516.001C658.956 516.017 658.944 516.039 658.942 516.062Z" fill="#2B2B2B"/>
<path d="M665.809 611.949C640.012 611.949 619.099 603.485 619.099 593.043C619.099 582.602 640.012 574.137 665.809 574.137C691.606 574.137 712.519 582.602 712.519 593.043C712.519 603.485 691.606 611.949 665.809 611.949Z" fill="#2B2B2B"/>
<path d="M641.535 345.965C642.524 346.667 643.673 347.114 644.877 347.264C645.496 347.351 646.126 347.327 646.737 347.195C647.064 347.15 647.371 347.009 647.618 346.79C647.865 346.571 648.042 346.284 648.126 345.965C647.925 346.146 647.689 346.284 647.433 346.37C647.176 346.456 646.905 346.488 646.635 346.464C646.087 346.45 645.54 346.404 644.997 346.326C643.85 346.145 642.694 346.024 641.535 345.965Z" fill="#2B2B2B"/>
<path d="M620.739 330.275C615.753 333.504 610.782 336.758 605.753 339.886C604.492 340.659 603.227 341.431 601.943 342.142C601.307 342.515 600.654 342.83 600.018 343.166C599.715 343.292 599.358 343.478 599.102 343.558C598.987 343.584 598.875 343.618 598.765 343.658C598.513 343.705 598.257 343.764 598.007 343.834C596.59 344.43 595.219 345.13 593.906 345.928C592.611 346.684 591.336 347.465 590.08 348.272C585.011 351.449 580.213 355.039 575.734 359.004C573.436 360.988 571.408 363.265 569.703 365.777L569.127 366.802L568.665 367.806C568.32 368.496 568.024 369.209 567.78 369.94C567.538 370.732 567.504 371.574 567.681 372.383C567.882 373.198 568.335 373.928 568.977 374.469L568.852 374.067C568.661 375.03 568.541 376.005 568.493 376.986C568.419 377.991 568.539 379 568.848 379.959C568.928 380.215 569.054 380.455 569.219 380.667L569.467 380.997L569.813 381.247C570.041 381.414 570.307 381.521 570.587 381.557C570.849 381.621 571.122 381.63 571.388 381.581C571.896 381.523 572.394 381.392 572.866 381.194L574.179 380.512L573.731 380.257C573.765 381.367 573.937 382.468 574.243 383.535C574.518 384.659 575.168 385.657 576.086 386.363C576.591 386.666 577.159 386.85 577.746 386.901C578.333 386.951 578.924 386.866 579.474 386.653C580 386.456 580.514 386.23 581.014 385.974L582.419 385.088L581.856 384.839C582.002 386.624 582.598 388.344 583.587 389.837C583.876 390.24 584.251 390.572 584.686 390.81C585.121 391.048 585.603 391.185 586.098 391.211L586.846 391.153C587.079 391.096 587.299 391.005 587.526 390.929C587.963 390.77 588.377 390.556 588.76 390.293C590.196 389.265 591.484 388.043 592.585 386.662C593.696 385.331 594.735 383.956 595.727 382.554C597.713 379.755 599.575 376.887 601.556 374.146C602.509 372.779 603.551 371.476 604.674 370.245C605.185 369.678 605.775 369.187 606.426 368.788C606.658 368.636 606.926 368.549 607.202 368.533C607.397 368.536 607.583 368.614 607.722 368.751L607.434 368.215C607.63 370.031 607.419 371.868 606.817 373.592C606.663 374.015 606.48 374.426 606.269 374.823C606.164 375.02 606.052 375.213 605.933 375.401C605.795 375.667 605.654 375.976 605.527 376.267C605.192 377.379 605.126 378.554 605.334 379.696C605.687 381.899 606.756 383.924 608.376 385.459C608.856 385.906 609.437 386.231 610.07 386.403C610.703 386.576 611.369 386.592 612.01 386.45C613.179 386.054 614.178 385.273 614.846 384.236C614.973 384.085 615.038 383.892 615.029 383.695L615.024 383.58C614.928 381.324 615.455 379.084 616.548 377.107C616.827 376.623 617.143 376.16 617.491 375.723C617.853 375.265 618.198 374.941 618.676 374.415C619.569 373.451 620.31 372.357 620.873 371.17C621.911 368.843 622.527 366.35 622.694 363.808C622.887 361.332 622.866 358.843 622.63 356.37L622.588 356.645C623.344 355.206 624.468 353.993 625.845 353.129C627.264 352.194 628.819 351.484 630.454 351.021C632.103 350.52 633.794 350.17 635.506 349.978C636.369 349.912 637.232 349.823 638.099 349.776L640.707 349.712C640.732 349.713 640.757 349.704 640.775 349.687C640.794 349.67 640.804 349.646 640.805 349.621C640.805 349.596 640.795 349.573 640.779 349.555C640.762 349.537 640.74 349.525 640.715 349.523L638.093 349.398C637.217 349.391 636.34 349.433 635.461 349.448C633.697 349.543 631.945 349.8 630.227 350.216C628.479 350.627 626.806 351.307 625.269 352.234C624.487 352.707 623.761 353.265 623.103 353.898C622.396 354.547 621.815 355.32 621.387 356.178C621.355 356.244 621.34 356.316 621.342 356.388L621.344 356.453C621.464 358.856 621.405 361.263 621.17 363.657C620.959 365.998 620.335 368.284 619.328 370.408C618.816 371.42 618.153 372.348 617.361 373.16C617.013 373.533 616.456 374.042 616.051 374.536C615.622 375.041 615.237 375.582 614.901 376.154C613.579 378.46 612.934 381.092 613.04 383.747L613.218 383.091C612.683 383.721 612.103 384.402 611.497 384.491C611.171 384.55 610.835 384.528 610.519 384.427C610.203 384.327 609.916 384.151 609.684 383.915C608.431 382.685 607.603 381.089 607.32 379.357C607.171 378.55 607.199 377.719 607.4 376.923L607.611 376.441C607.753 376.208 607.886 375.971 608.01 375.73C608.256 375.25 608.468 374.753 608.646 374.244C609.331 372.212 609.543 370.05 609.266 367.924C609.241 367.727 609.148 367.545 609.002 367.41L608.977 367.387C608.485 366.938 607.841 366.692 607.174 366.699C606.593 366.723 606.029 366.897 605.536 367.205C604.731 367.702 604.004 368.316 603.378 369.026C602.216 370.333 601.142 371.715 600.163 373.164C598.216 376.008 596.432 378.917 594.538 381.735C593.589 383.141 592.637 384.543 591.606 385.871C590.627 387.201 589.472 388.392 588.171 389.41C587.861 389.646 587.521 389.839 587.16 389.984C586.985 390.047 586.811 390.132 586.635 390.184L586.107 390.24C585.749 390.229 585.399 390.138 585.082 389.972C584.766 389.806 584.491 389.571 584.278 389.284C583.342 387.94 582.754 386.386 582.565 384.76C582.549 384.664 582.496 384.578 582.417 384.521C582.338 384.464 582.24 384.441 582.144 384.456C582.093 384.465 582.045 384.483 582.002 384.511L580.677 385.372C580.218 385.612 579.747 385.827 579.265 386.016C578.811 386.205 578.32 386.288 577.829 386.257C577.339 386.226 576.861 386.083 576.435 385.839C575.628 385.22 575.054 384.346 574.806 383.36C574.494 382.355 574.332 381.31 574.325 380.258C574.324 380.207 574.311 380.158 574.286 380.114C574.261 380.07 574.225 380.033 574.182 380.007C574.139 379.981 574.09 379.965 574.04 379.963C573.99 379.961 573.939 379.971 573.894 379.993L573.876 380.002L572.629 380.624C572.215 380.789 571.781 380.897 571.337 380.943C570.932 381.004 570.519 380.912 570.178 380.685C569.837 380.459 569.592 380.113 569.492 379.716C569.234 378.843 569.145 377.93 569.229 377.023C569.287 376.091 569.43 375.166 569.657 374.26C569.674 374.188 569.672 374.112 569.65 374.041C569.628 373.971 569.587 373.907 569.532 373.857C569.052 373.402 568.72 372.813 568.581 372.167C568.441 371.52 568.5 370.847 568.75 370.235C569.007 369.569 569.31 368.922 569.656 368.298L570.167 367.302L570.723 366.409C572.459 364.077 574.49 361.981 576.766 360.172C581.29 356.386 586.027 352.861 590.952 349.613C593.344 347.961 595.856 346.492 598.469 345.217C598.578 345.191 598.685 345.154 598.787 345.107C598.997 345.061 599.288 345.003 599.53 344.933C599.975 344.781 600.275 344.604 600.653 344.439C601.327 344.078 601.991 343.704 602.623 343.305C603.908 342.526 605.149 341.701 606.388 340.874C611.336 337.557 616.132 334.048 620.849 330.429C620.868 330.414 620.881 330.392 620.885 330.368C620.889 330.344 620.883 330.319 620.869 330.299C620.854 330.279 620.833 330.265 620.809 330.261C620.785 330.256 620.76 330.261 620.739 330.275L620.739 330.275Z" fill="#2B2B2B"/>
<path d="M599.485 364.133C596.184 367.198 593.054 370.442 590.109 373.85C587.139 377.249 584.369 380.819 581.814 384.54C581.745 384.644 581.72 384.77 581.744 384.892C581.768 385.014 581.838 385.122 581.941 385.192C582.043 385.263 582.169 385.29 582.292 385.268C582.414 385.246 582.523 385.177 582.595 385.076L582.607 385.058C585.015 381.274 587.641 377.633 590.472 374.154C593.29 370.651 596.299 367.306 599.485 364.133Z" fill="#2B2B2B"/>
<path d="M589.939 362.089C584.213 367.771 578.778 373.738 573.654 379.968C573.576 380.065 573.539 380.189 573.553 380.313C573.566 380.438 573.628 380.551 573.725 380.63C573.822 380.709 573.946 380.746 574.07 380.734C574.194 380.722 574.309 380.661 574.389 380.565L574.402 380.547C579.267 374.138 584.453 367.977 589.939 362.089Z" fill="#2B2B2B"/>
<path d="M583.119 360.613C580.686 362.742 578.272 364.895 575.878 367.072L572.319 370.377C571.148 371.503 569.98 372.611 568.884 373.869C568.801 373.964 568.76 374.087 568.768 374.212C568.777 374.338 568.835 374.454 568.93 374.537C569.025 374.619 569.148 374.661 569.274 374.652C569.399 374.643 569.516 374.585 569.598 374.491L569.612 374.474L569.625 374.458C570.595 373.228 571.717 372.047 572.821 370.879L576.205 367.414C578.486 365.125 580.791 362.858 583.119 360.613Z" fill="#2B2B2B"/>
<path d="M611.228 325.019C610.008 326.535 608.65 327.936 607.173 329.203C605.72 330.519 604.248 331.814 602.756 333.088L593.727 340.649C587.695 345.674 581.529 350.551 575.435 355.493L575.35 355.569L575.331 355.589C572.673 358.362 569.655 360.766 566.358 362.738C563.06 364.661 559.479 366.053 555.747 366.864C548.237 368.5 540.407 367.842 533.277 364.973C529.785 363.548 526.256 361.51 522.659 359.883C519.085 358.156 515.424 356.611 511.748 355.117C508.048 353.674 504.303 352.351 500.501 351.199C496.694 349.987 492.779 349.143 488.811 348.68C488.763 348.676 488.715 348.681 488.669 348.695L488.652 348.701C485.18 349.854 481.552 350.467 477.894 350.518C474.264 350.592 470.668 349.802 467.404 348.213C465.788 347.346 464.235 346.367 462.757 345.284C460.95 344.41 458.917 344.113 456.935 344.434C455.049 344.634 453.184 345.003 451.364 345.538C450.968 345.673 450.561 345.774 450.148 345.839C449.792 345.882 449.431 345.859 449.083 345.772C448.42 345.585 447.841 345.175 447.445 344.612L447.066 344.258C447.137 344.293 447.203 344.338 447.261 344.393C447.405 344.524 447.501 344.699 447.534 344.891C447.559 345.034 447.55 345.18 447.508 345.319C447.466 345.458 447.391 345.584 447.29 345.689L447.425 344.58C447.189 344.114 447.097 343.589 447.159 343.071C447.188 342.781 447.244 342.494 447.325 342.213C447.403 341.938 447.505 341.67 447.629 341.412C447.688 341.295 447.723 341.167 447.732 341.035C447.74 340.904 447.722 340.772 447.679 340.648L447.657 340.587C447.4 339.409 447.478 338.182 447.883 337.045C448.258 335.756 448.75 334.503 449.351 333.302C449.419 333.164 449.458 333.014 449.467 332.86C449.475 332.707 449.453 332.553 449.401 332.408L449.376 332.337C449.195 331.865 449.113 331.361 449.134 330.856C449.189 330.315 449.329 329.786 449.551 329.289C449.796 328.751 450.102 328.242 450.461 327.772C450.817 327.296 451.216 326.853 451.653 326.449C451.843 326.279 451.975 326.055 452.033 325.808C452.091 325.56 452.071 325.301 451.977 325.065L451.947 324.993C451.559 324.065 451.538 323.024 451.89 322.081C452.375 321.175 453.188 320.488 454.163 320.16C456.531 319.417 459.043 319.256 461.487 319.689C466.744 320.421 471.923 321.638 476.955 323.323L476.967 323.327C477.136 323.38 477.312 323.404 477.489 323.397C482.184 323.2 486.933 325.274 491.832 326.803C494.308 327.574 496.647 328.439 499.374 329.012C501.989 329.558 504.557 329.835 507.136 330.132C517.434 331.091 527.693 331.422 537.963 331.543L541.813 331.58L543.737 331.591L544.7 331.595C545.035 331.596 545.425 331.584 545.785 331.552C547.996 331.345 550.073 330.399 551.679 328.867C552.219 328.333 552.586 327.918 553.049 327.437L563.547 316.216C570.541 308.731 577.483 301.195 584.374 293.609C584.4 293.58 584.414 293.542 584.413 293.503C584.412 293.464 584.396 293.427 584.367 293.399C584.339 293.372 584.301 293.357 584.262 293.357C584.223 293.357 584.185 293.372 584.157 293.4C576.785 300.52 569.474 307.698 562.222 314.935L551.34 325.785C550.904 326.218 550.403 326.744 550.022 327.099C548.795 328.214 547.228 328.883 545.574 328.999C545.064 329.038 544.437 328.997 543.781 328.983L541.863 328.926L538.029 328.797C527.815 328.374 517.574 327.975 507.473 326.92C504.964 326.636 502.429 326.362 500.025 325.861C497.73 325.397 495.236 324.507 492.824 323.755C490.391 322.976 487.966 322.164 485.424 321.458C482.814 320.665 480.091 320.303 477.364 320.387L477.897 320.461C475.248 319.637 472.626 318.935 469.945 318.322C467.255 317.688 464.529 317.217 461.783 316.912C460.371 316.761 458.95 316.709 457.531 316.757C456.014 316.807 454.519 317.131 453.118 317.712C451.53 318.331 450.242 319.538 449.525 321.083C449.2 321.889 449.063 322.758 449.122 323.625C449.169 324.466 449.371 325.29 449.717 326.058L450.011 324.603C449.454 325.134 448.949 325.717 448.504 326.344C448.05 326.97 447.669 327.645 447.367 328.356C447.051 329.114 446.863 329.919 446.811 330.739C446.788 331.6 446.951 332.456 447.288 333.249L447.313 332.284C446.675 333.64 446.173 335.056 445.814 336.511C445.622 337.263 445.503 338.031 445.46 338.806C445.389 339.671 445.514 340.54 445.825 341.35L445.853 340.526C445.51 341.289 445.308 342.107 445.255 342.942C445.191 343.839 445.398 344.735 445.849 345.514L445.983 344.406C445.88 344.512 445.803 344.642 445.76 344.784C445.716 344.925 445.707 345.076 445.732 345.222C445.767 345.42 445.867 345.601 446.017 345.736C446.085 345.8 446.162 345.853 446.245 345.893L445.867 345.54C446.178 346.052 446.613 346.479 447.132 346.78C447.612 347.083 448.135 347.31 448.684 347.455C449.24 347.575 449.812 347.591 450.374 347.504C450.872 347.411 451.361 347.276 451.836 347.101C453.549 346.539 455.309 346.132 457.094 345.885C458.775 345.551 460.516 345.726 462.096 346.389C463.635 347.44 465.244 348.386 466.91 349.222C470.341 350.846 474.11 351.631 477.904 351.514C481.652 351.395 485.364 350.747 488.93 349.588L488.772 349.609C492.656 350.082 496.478 350.966 500.175 352.246C503.916 353.451 507.57 354.919 511.174 356.489C514.758 358.109 518.318 359.781 521.795 361.623C525.334 363.384 528.588 365.458 532.349 367.172C539.888 370.493 548.296 371.308 556.334 369.496C560.328 368.589 564.155 367.059 567.673 364.962C571.143 362.837 574.297 360.236 577.043 357.234L576.939 357.33C582.99 352.292 588.893 347.094 594.781 341.872C597.73 339.268 600.624 336.599 603.462 333.866C604.888 332.508 606.292 331.126 607.674 329.718C608.35 328.996 609.046 328.302 609.686 327.543L610.645 326.409C610.945 326.008 611.214 325.574 611.494 325.162C611.516 325.129 611.524 325.089 611.517 325.051C611.509 325.012 611.487 324.978 611.455 324.956C611.423 324.933 611.383 324.924 611.344 324.931C611.305 324.938 611.271 324.959 611.248 324.991L611.228 325.019Z" fill="#2B2B2B"/>
<path d="M470.153 325.753C466.989 324.742 463.736 324.039 460.438 323.652C458.773 323.449 457.092 323.419 455.422 323.56C453.681 323.643 451.995 324.193 450.541 325.153C450.439 325.227 450.372 325.339 450.353 325.463C450.333 325.587 450.364 325.714 450.439 325.815C450.513 325.916 450.624 325.984 450.748 326.003C450.873 326.022 450.999 325.991 451.101 325.917L451.124 325.898C452.414 324.974 453.926 324.41 455.507 324.265C457.128 324.05 458.767 324.003 460.398 324.124C463.695 324.353 466.961 324.898 470.153 325.753Z" fill="#2B2B2B"/>
<path d="M465.834 331.308C462.868 330.664 459.852 330.281 456.819 330.161C455.285 330.11 453.751 330.204 452.235 330.441C450.616 330.618 449.107 331.344 447.961 332.5C447.877 332.594 447.835 332.717 447.842 332.843C447.85 332.968 447.907 333.085 448.001 333.168C448.048 333.21 448.102 333.241 448.161 333.262C448.22 333.282 448.282 333.29 448.344 333.287C448.47 333.279 448.587 333.222 448.67 333.128L448.688 333.107L448.704 333.086C449.675 332.042 450.969 331.355 452.379 331.136C453.839 330.83 455.326 330.662 456.818 330.635C459.837 330.597 462.854 330.822 465.834 331.308Z" fill="#2B2B2B"/>
<path d="M464.243 337.335C461.167 336.779 458.031 336.626 454.915 336.881C453.334 336.996 451.777 337.336 450.292 337.892C448.741 338.44 447.376 339.413 446.352 340.699C446.314 340.749 446.287 340.806 446.271 340.866C446.255 340.927 446.252 340.989 446.261 341.051C446.269 341.113 446.29 341.172 446.322 341.226C446.354 341.28 446.396 341.327 446.446 341.364C446.496 341.402 446.552 341.429 446.613 341.444C446.674 341.46 446.736 341.463 446.798 341.454C446.86 341.445 446.919 341.424 446.973 341.392C447.027 341.36 447.073 341.317 447.111 341.267L447.123 341.249L447.131 341.238C448.002 340.039 449.191 339.107 450.564 338.548C451.969 337.94 453.453 337.537 454.972 337.351C458.048 336.943 461.165 336.937 464.243 337.335Z" fill="#2B2B2B"/>
<path d="M513.185 185.807V277.102L386.353 288.343V185.807H513.185ZM400.332 274.717L500.229 266.541V198.07L400.332 197.048V274.717Z" fill="#2B2B2B"/>
<path d="M492.695 205.454C492.562 208.248 492.445 210.93 492.384 213.568C492.317 216.21 492.275 218.807 492.376 221.431L492.728 221.078C490.474 221.154 488.22 221.266 485.966 221.276C483.712 221.299 481.458 221.247 479.204 221.172L479.463 221.431C479.562 218.762 479.633 216.094 479.658 213.426C479.709 210.757 479.712 208.089 479.686 205.42L479.204 205.902C481.398 205.912 483.601 205.803 485.83 205.748L492.695 205.454ZM492.762 205.387L486.102 205.092C483.823 205.038 481.519 204.929 479.204 204.938C479.077 204.94 478.955 204.991 478.865 205.081C478.774 205.171 478.723 205.293 478.722 205.42C478.696 208.089 478.699 210.757 478.75 213.425C478.775 216.094 478.846 218.762 478.945 221.431L478.945 221.449C478.947 221.481 478.954 221.514 478.968 221.544C478.981 221.574 479.001 221.6 479.025 221.623C479.049 221.645 479.077 221.663 479.108 221.674C479.139 221.686 479.171 221.691 479.204 221.69C481.458 221.615 483.712 221.563 485.966 221.585C488.22 221.595 490.474 221.708 492.728 221.783C492.773 221.785 492.817 221.777 492.859 221.762C492.901 221.746 492.94 221.722 492.972 221.692C493.005 221.661 493.031 221.624 493.05 221.584C493.068 221.543 493.078 221.499 493.08 221.454L493.081 221.431C493.181 218.717 493.14 215.978 493.072 213.283C493.011 210.584 492.894 207.93 492.762 205.387H492.762Z" fill="#2B2B2B"/>
<path d="M427.829 204.042C427.595 209.478 427.437 214.771 427.298 220.023C427.136 225.287 427.064 230.459 427.004 235.628C426.944 240.794 427.025 245.901 427.194 251.036C427.336 256.172 427.548 261.348 427.563 266.546L427.906 266.203C424.826 266.246 421.746 266.166 418.666 266.153C415.586 266.131 412.506 266.013 409.426 265.947L410.025 266.546C410.196 261.331 410.321 256.116 410.4 250.901L410.577 235.255C410.616 230.04 410.602 224.825 410.536 219.61L410.247 203.964L409.426 204.784L418.465 204.449L427.829 204.042ZM427.983 203.887L418.867 203.48L409.426 203.144C409.323 203.141 409.219 203.158 409.122 203.194C409.024 203.23 408.935 203.285 408.859 203.356C408.783 203.427 408.721 203.512 408.678 203.607C408.635 203.701 408.611 203.803 408.607 203.907L408.607 203.916L408.606 203.964L408.317 219.61C408.255 224.825 408.241 230.04 408.276 235.255L408.452 250.901C408.538 256.116 408.663 261.331 408.827 266.546L408.828 266.578C408.833 266.733 408.899 266.878 409.011 266.984C409.123 267.09 409.272 267.148 409.426 267.145C412.506 267.079 415.586 266.961 418.666 266.939C421.746 266.926 424.826 266.846 427.906 266.889C427.95 266.89 427.994 266.881 428.036 266.865C428.077 266.849 428.115 266.824 428.147 266.793C428.178 266.762 428.204 266.725 428.221 266.685C428.239 266.644 428.248 266.6 428.249 266.555L428.249 266.546C428.264 261.314 428.475 256.059 428.618 250.765C428.787 245.469 428.868 240.147 428.808 234.882C428.748 229.62 428.676 224.362 428.514 219.196C428.375 214.018 428.217 208.881 427.983 203.887Z" fill="#2B2B2B"/>
<path d="M441.268 292.41V283.476L455.245 282.237V291.008C463.735 291.237 470.058 293.564 470.392 296.996C470.81 301.303 461.642 305.716 449.913 306.854C438.185 307.991 428.338 305.421 427.92 301.114C427.592 297.732 433.176 294.285 441.268 292.41Z" fill="#2B2B2B"/>
<path d="M572.048 306.097C565.11 301.679 558.093 297.396 551.052 293.152C550.969 293.103 550.873 293.085 550.778 293.099C544.263 294.1 537.772 295.247 531.284 296.41C524.798 297.59 518.29 298.632 511.771 299.611L492.218 302.558C485.707 303.586 479.189 304.563 472.688 305.654C472.56 305.675 472.445 305.746 472.369 305.852C472.293 305.957 472.262 306.089 472.283 306.217C472.304 306.342 472.372 306.454 472.473 306.53C477.299 310.151 482.16 313.727 487.054 317.257L494.371 322.586L501.734 327.853C501.744 327.86 501.756 327.863 501.768 327.861C501.781 327.859 501.792 327.852 501.799 327.842C501.806 327.833 501.81 327.82 501.808 327.808C501.806 327.796 501.8 327.785 501.79 327.777L494.655 322.205L487.474 316.696C482.695 313.013 477.89 309.362 473.061 305.745L472.845 306.622C479.358 305.606 485.852 304.477 492.354 303.399L511.839 300.027C518.333 298.899 524.838 297.835 531.364 296.909C537.889 295.966 544.41 295.007 550.908 293.901L550.635 293.849C557.714 298.029 564.817 302.171 571.999 306.178C572.01 306.184 572.023 306.186 572.035 306.183C572.046 306.179 572.057 306.172 572.063 306.161C572.069 306.151 572.071 306.138 572.068 306.126C572.065 306.114 572.058 306.104 572.048 306.097V306.097Z" fill="#2B2B2B"/>
<path d="M563.639 314.795C559.649 315.815 555.69 316.934 551.736 318.068L539.907 321.582L528.142 325.306C524.232 326.585 520.327 327.878 516.452 329.273C520.442 328.254 524.401 327.135 528.356 326.001L540.184 322.486L551.949 318.761C555.859 317.482 559.764 316.188 563.639 314.795Z" fill="#2B2B2B"/>
<path d="M429.398 297.815C427.006 297.49 424.586 297.42 422.178 297.605C419.704 297.724 417.28 298.346 415.056 299.434C413.893 300.038 412.891 300.91 412.132 301.978C411.376 303.093 410.958 304.402 410.927 305.748C410.903 307.04 411.097 308.327 411.5 309.554C411.858 310.818 412.47 311.995 413.3 313.013C414.13 314.032 415.148 314.881 416.298 315.517C417.379 316.14 418.512 316.667 419.686 317.091C422.021 317.96 424.483 318.439 426.974 318.508C429.431 318.559 431.882 318.241 434.244 317.563C436.511 316.864 438.924 316.791 441.229 317.35C440.151 316.765 438.951 316.444 437.725 316.412C436.502 316.332 435.275 316.375 434.061 316.539C431.753 316.955 429.401 317.074 427.062 316.893C424.76 316.706 422.497 316.19 420.341 315.36C419.27 314.945 418.23 314.451 417.232 313.882C416.269 313.374 415.414 312.685 414.715 311.851C414.014 311.017 413.478 310.059 413.135 309.026C412.757 307.987 412.556 306.892 412.54 305.786C412.518 304.725 412.799 303.679 413.348 302.771C413.945 301.853 414.747 301.088 415.693 300.536C417.729 299.402 419.959 298.656 422.268 298.337C424.626 297.961 427.011 297.787 429.398 297.815Z" fill="#FDB914"/>
<path d="M439.155 323.766C439.155 323.766 439.562 337.061 446.637 345.047C446.353 344.401 446.215 343.701 446.233 342.996C446.251 342.291 446.425 341.599 446.741 340.969C445.605 338.244 448.332 332.793 448.332 332.793C446.741 329.159 450.833 325.526 450.833 325.526C450.833 325.526 448.332 320.302 454.924 318.486C454.924 318.486 436.91 310.083 439.155 323.766Z" fill="#2B2B2B"/>
<path d="M400.486 423.213C400.55 423.214 400.614 423.204 400.675 423.184L522.584 382.907C522.66 382.882 522.729 382.843 522.789 382.791C522.849 382.739 522.899 382.676 522.934 382.605C522.97 382.535 522.991 382.458 522.997 382.379C523.003 382.3 522.993 382.22 522.968 382.145C522.943 382.07 522.904 382 522.852 381.94C522.8 381.88 522.737 381.831 522.667 381.796C522.596 381.76 522.519 381.739 522.44 381.733C522.361 381.727 522.281 381.737 522.206 381.762L400.552 421.955L243.913 332.443V325.263L534.419 272.327L581.993 290.66C582.142 290.717 582.308 290.712 582.454 290.648C582.6 290.583 582.714 290.463 582.771 290.314C582.829 290.165 582.825 290 582.761 289.854C582.696 289.708 582.577 289.593 582.428 289.535L534.695 271.14C534.591 271.103 534.479 271.093 534.37 271.11L243.202 324.166C243.063 324.191 242.938 324.265 242.847 324.373C242.757 324.481 242.707 324.618 242.707 324.759V332.793C242.707 332.899 242.735 333.003 242.788 333.095C242.841 333.187 242.918 333.263 243.01 333.315L400.186 423.134C400.277 423.186 400.381 423.213 400.486 423.213Z" fill="#2B2B2B"/>
<path d="M400.827 415.59C400.875 415.59 400.924 415.582 400.97 415.568L530.53 374.614C530.589 374.595 530.644 374.565 530.691 374.525C530.739 374.485 530.778 374.436 530.806 374.381C530.864 374.27 530.875 374.14 530.837 374.021C530.8 373.901 530.716 373.802 530.604 373.744C530.493 373.686 530.363 373.675 530.244 373.713L400.882 414.604L243.546 324.348C243.492 324.318 243.432 324.298 243.371 324.29C243.309 324.282 243.246 324.286 243.186 324.302C243.126 324.319 243.07 324.346 243.021 324.384C242.971 324.422 242.93 324.47 242.899 324.524C242.868 324.578 242.848 324.637 242.84 324.699C242.832 324.76 242.837 324.823 242.853 324.883C242.869 324.943 242.897 324.999 242.935 325.048C242.973 325.098 243.021 325.139 243.074 325.17L400.591 415.528C400.663 415.569 400.744 415.59 400.827 415.59Z" fill="#2B2B2B"/>
<path d="M400.487 423.084C400.608 423.084 400.725 423.037 400.813 422.953C400.901 422.869 400.953 422.755 400.959 422.633L401.3 415.14C401.303 415.077 401.293 415.015 401.272 414.957C401.251 414.898 401.219 414.845 401.177 414.799C401.135 414.753 401.084 414.715 401.028 414.689C400.972 414.663 400.911 414.648 400.848 414.645C400.724 414.644 400.604 414.689 400.512 414.773C400.421 414.856 400.364 414.972 400.354 415.095L400.013 422.589C400.01 422.651 400.02 422.713 400.041 422.772C400.062 422.83 400.094 422.884 400.136 422.93C400.178 422.976 400.229 423.013 400.285 423.039C400.341 423.066 400.402 423.081 400.465 423.084H400.487Z" fill="#2B2B2B"/>
<path d="M400.443 420.409L399.496 478.275L398.785 536.14C398.53 555.428 398.002 574.717 398.312 594.005C398.482 603.65 398.654 613.294 399.029 622.938L399.599 637.404C399.884 642.226 400.079 647.049 400.443 651.871C400.447 651.93 400.474 651.986 400.518 652.027C400.562 652.068 400.62 652.09 400.679 652.09C400.739 652.09 400.797 652.068 400.841 652.027C400.885 651.986 400.912 651.93 400.916 651.871C401.28 647.049 401.475 642.226 401.76 637.404L402.33 622.938C402.706 613.294 402.876 603.65 403.047 594.005C403.357 574.717 402.83 555.428 402.574 536.14L401.863 478.275L400.916 420.409C400.915 420.347 400.89 420.288 400.846 420.244C400.801 420.201 400.742 420.176 400.679 420.176C400.617 420.176 400.558 420.201 400.513 420.244C400.469 420.288 400.444 420.347 400.443 420.409Z" fill="#2B2B2B"/>
<path d="M255.348 340.969L254.4 398.834L253.69 456.7C253.434 475.988 252.906 495.277 253.216 514.565C253.387 524.209 253.558 533.854 253.934 543.498L254.504 557.964C254.788 562.786 254.984 567.609 255.347 572.431C255.352 572.49 255.379 572.546 255.423 572.587C255.467 572.627 255.524 572.65 255.584 572.65C255.644 572.65 255.702 572.627 255.746 572.587C255.79 572.546 255.816 572.49 255.821 572.431C256.184 567.609 256.38 562.786 256.665 557.964L257.235 543.498C257.61 533.854 257.781 524.209 257.952 514.565C258.262 495.277 257.734 475.988 257.478 456.7L256.768 398.834L255.821 340.969C255.82 340.907 255.795 340.847 255.75 340.804C255.706 340.76 255.646 340.736 255.584 340.736C255.522 340.736 255.462 340.76 255.418 340.804C255.374 340.847 255.348 340.907 255.347 340.969H255.348Z" fill="#2B2B2B"/>
<path d="M496.633 499.94C496.633 499.94 485.801 500.842 448.592 526.367C442.505 530.623 435.056 532.476 427.682 531.569C425.717 531.352 423.793 530.858 421.966 530.104C421.966 530.104 393.667 537.412 418.897 542.181C418.897 542.181 455.038 543.203 481.972 523.445L481.631 534.346H495.269C495.269 534.346 501.406 506.072 496.633 499.94Z" fill="#FDB914"/>
<path d="M485.057 458.415C482.965 461.935 480.98 465.512 478.938 469.059L472.994 479.796C470.99 483.359 469.107 486.999 467.163 490.585C465.242 494.127 462.945 497.452 460.312 500.503C459.018 502.044 457.644 503.516 456.196 504.915C454.753 506.304 453.192 507.619 451.649 508.961C448.567 511.64 445.406 514.222 442.278 516.844C439.132 519.442 435.931 521.974 432.619 524.347C430.977 525.555 429.296 526.707 427.553 527.756L426.231 528.519L424.865 529.192C423.951 529.641 422.973 529.948 421.966 530.104C424.022 529.886 426.009 529.236 427.795 528.196C429.629 527.259 431.405 526.214 433.141 525.114C436.589 522.877 439.909 520.458 443.183 517.985C446.471 515.529 449.615 512.893 452.766 510.273C454.328 508.952 455.917 507.653 457.443 506.226C462.021 501.97 465.824 496.952 468.681 491.394C470.56 487.75 472.473 484.144 474.278 480.47L479.755 469.488C481.521 465.796 483.342 462.133 485.057 458.415Z" fill="#2B2B2B"/>
<path d="M510.087 483.437C507.351 485.734 504.852 488.298 502.626 491.091C500.335 493.832 498.327 496.796 496.633 499.94C499.372 497.646 501.872 495.082 504.094 492.286C506.382 489.543 508.389 486.579 510.087 483.437Z" fill="#2B2B2B"/>
<path d="M574.405 582.837C574.405 582.837 563.55 582.289 523.271 602.638C516.67 606.046 509.041 606.892 501.853 605.012C499.935 604.535 498.094 603.79 496.383 602.799C496.383 602.799 467.363 606.278 491.733 614.361C491.733 614.361 527.415 620.181 556.743 604.182L554.952 614.94L568.469 616.755C568.469 616.755 578.319 589.549 574.405 582.837Z" fill="#FDB914"/>
<path d="M551.553 549.205C550.658 552.535 549.882 555.89 549.044 559.232L547.884 564.265C547.562 565.91 547.049 567.513 546.355 569.039C545.656 570.535 544.765 571.933 543.704 573.199C542.613 574.466 541.423 575.702 540.206 576.874C537.773 579.235 535.137 581.377 532.327 583.275C526.621 587.053 520.802 590.754 514.937 594.311C512 596.087 509.024 597.802 505.971 599.355C504.463 600.167 502.914 600.9 501.33 601.551C499.773 602.272 498.096 602.695 496.384 602.799C498.124 602.901 499.866 602.636 501.498 602.023C503.152 601.498 504.777 600.888 506.368 600.194C509.538 598.793 512.615 597.209 515.661 595.574C521.751 592.283 527.591 588.63 533.392 584.839C536.281 582.859 538.982 580.619 541.461 578.147C542.692 576.897 543.862 575.621 544.983 574.248C546.109 572.847 547.02 571.285 547.686 569.616C548.337 567.97 548.796 566.254 549.051 564.502L549.948 559.416C550.481 556.011 551.076 552.62 551.553 549.205Z" fill="#2B2B2B"/>
<path d="M575.324 557.523C574.502 561.684 574.032 565.906 573.919 570.145C573.72 574.382 573.883 578.628 574.405 582.836C575.231 578.676 575.701 574.454 575.811 570.214C576.005 565.978 575.842 561.732 575.324 557.523Z" fill="#2B2B2B"/>
<path d="M606.691 220.665C608.622 220.854 610.568 220.522 612.327 219.704C613.245 219.299 614.049 218.675 614.67 217.888C615.288 217.097 615.569 216.094 615.453 215.098C615.192 215.953 614.737 216.736 614.124 217.387C613.511 218.038 612.756 218.539 611.918 218.851C610.225 219.59 608.477 220.197 606.691 220.665Z" fill="#2B2B2B"/>
<path d="M423.547 211.651C422.96 211.631 422.404 211.384 421.997 210.962C421.589 210.54 421.361 209.977 421.361 209.39C421.361 208.804 421.589 208.24 421.997 207.819C422.404 207.397 422.96 207.15 423.547 207.129C424.133 207.15 424.689 207.397 425.097 207.819C425.505 208.24 425.732 208.804 425.732 209.39C425.732 209.977 425.505 210.54 425.097 210.962C424.689 211.384 424.133 211.631 423.547 211.651Z" fill="#2B2B2B"/>
<path d="M423.184 224.131C422.598 224.111 422.042 223.864 421.634 223.442C421.226 223.02 420.999 222.457 420.999 221.871C420.999 221.284 421.226 220.721 421.634 220.299C422.042 219.877 422.598 219.63 423.184 219.61C423.771 219.63 424.327 219.877 424.735 220.299C425.142 220.721 425.37 221.284 425.37 221.871C425.37 222.457 425.142 223.02 424.735 223.442C424.327 223.864 423.771 224.111 423.184 224.131Z" fill="#2B2B2B"/>
<path d="M423.003 237.516C422.417 237.496 421.861 237.249 421.453 236.827C421.045 236.405 420.818 235.842 420.818 235.255C420.818 234.669 421.045 234.105 421.453 233.683C421.861 233.262 422.417 233.015 423.003 232.994C423.59 233.015 424.146 233.262 424.553 233.683C424.961 234.105 425.189 234.669 425.189 235.255C425.189 235.842 424.961 236.405 424.553 236.827C424.146 237.249 423.59 237.496 423.003 237.516Z" fill="#2B2B2B"/>
<path d="M423.003 252.348C422.417 252.327 421.861 252.08 421.453 251.658C421.045 251.237 420.818 250.673 420.818 250.087C420.818 249.5 421.045 248.937 421.453 248.515C421.861 248.093 422.417 247.846 423.003 247.826C423.59 247.846 424.146 248.093 424.553 248.515C424.961 248.937 425.189 249.5 425.189 250.087C425.189 250.673 424.961 251.237 424.553 251.658C424.146 252.08 423.59 252.327 423.003 252.348Z" fill="#2B2B2B"/>
<path d="M422.642 264.285C422.055 264.265 421.499 264.018 421.091 263.596C420.684 263.174 420.456 262.611 420.456 262.024C420.456 261.438 420.684 260.874 421.091 260.453C421.499 260.031 422.055 259.784 422.642 259.763C423.228 259.784 423.784 260.031 424.192 260.453C424.599 260.874 424.827 261.438 424.827 262.024C424.827 262.611 424.599 263.174 424.192 263.596C423.784 264.018 423.228 264.265 422.642 264.285Z" fill="#2B2B2B"/>
<path d="M486.023 214.348C485.695 214.347 485.374 214.253 485.097 214.077C484.82 213.902 484.599 213.652 484.457 213.356C484.227 212.84 484.07 212.295 483.991 211.736C483.919 211.437 483.91 211.126 483.965 210.823C484.02 210.521 484.136 210.233 484.308 209.978C484.517 209.739 484.787 209.562 485.089 209.465C485.391 209.368 485.713 209.354 486.023 209.424C486.574 209.536 487.072 209.83 487.435 210.26C487.739 210.692 487.901 211.209 487.898 211.737C487.911 212.29 487.8 212.839 487.574 213.343C487.436 213.64 487.218 213.891 486.943 214.069C486.669 214.247 486.35 214.344 486.023 214.348ZM486.023 214.482C486.793 214.53 487.559 214.342 488.219 213.944C488.566 213.69 488.848 213.358 489.04 212.974C489.233 212.59 489.332 212.166 489.328 211.737C489.334 211.302 489.251 210.87 489.085 210.469C488.918 210.067 488.67 209.704 488.358 209.402C488.052 209.107 487.682 208.89 487.276 208.766C486.87 208.642 486.44 208.617 486.023 208.691C485.261 208.809 484.552 209.154 483.99 209.682C483.386 210.213 482.991 210.941 482.875 211.736C482.827 212.154 482.891 212.578 483.061 212.963C483.231 213.349 483.5 213.682 483.841 213.929C484.496 214.329 485.256 214.522 486.023 214.482Z" fill="#FDB914"/>
<path d="M481.686 221.478C483.086 221.712 484.498 221.869 485.915 221.949C486.676 221.982 487.443 222.021 488.22 222.001C488.997 221.983 489.774 221.882 490.527 221.811L490.604 221.804C490.648 221.8 490.691 221.787 490.73 221.766C490.77 221.746 490.804 221.717 490.833 221.683C490.861 221.649 490.882 221.61 490.895 221.568C490.908 221.525 490.913 221.481 490.909 221.437L490.908 221.431C490.8 220.615 490.741 219.793 490.729 218.97C490.782 218.111 490.66 217.25 490.37 216.439C490.029 215.566 489.435 214.814 488.664 214.279C487.893 213.745 486.98 213.452 486.041 213.438C485.103 213.425 484.182 213.691 483.395 214.202C482.609 214.714 481.993 215.448 481.626 216.312C481.272 217.168 481.168 218.107 481.326 219.02C481.418 219.921 481.569 220.76 481.686 221.478ZM481.78 221.384L482.14 218.921C482.179 218.193 482.378 217.484 482.724 216.843C483.078 216.242 483.573 215.737 484.167 215.372C484.76 215.007 485.434 214.793 486.13 214.748C486.86 214.729 487.582 214.901 488.226 215.246C488.869 215.591 489.412 216.097 489.8 216.715C490.207 217.393 490.391 218.182 490.326 218.97C490.314 219.793 490.254 220.615 490.147 221.431L490.527 221.051C489.815 220.98 489.126 220.878 488.438 220.86C487.749 220.84 487.05 220.88 486.345 220.913C484.928 220.999 483.449 221.17 481.78 221.384Z" fill="#FDB914"/>
<path d="M473.307 205.454C473.175 208.248 473.058 210.93 472.997 213.568C472.929 216.21 472.888 218.807 472.988 221.431L473.341 221.078C471.087 221.154 468.833 221.266 466.579 221.276C464.325 221.299 462.071 221.247 459.817 221.172L460.076 221.431C460.174 218.762 460.245 216.094 460.27 213.426C460.322 210.757 460.325 208.089 460.299 205.42L459.817 205.902C462.01 205.912 464.214 205.803 466.443 205.748L473.307 205.454ZM473.374 205.387L466.715 205.092C464.436 205.038 462.131 204.929 459.817 204.938C459.689 204.94 459.567 204.991 459.477 205.081C459.387 205.171 459.336 205.293 459.335 205.42C459.308 208.089 459.311 210.757 459.363 213.425C459.388 216.094 459.459 218.762 459.557 221.431L459.558 221.449C459.559 221.481 459.567 221.514 459.58 221.544C459.594 221.574 459.613 221.6 459.637 221.623C459.661 221.645 459.69 221.663 459.72 221.674C459.751 221.686 459.784 221.691 459.817 221.69C462.071 221.615 464.325 221.563 466.579 221.585C468.833 221.595 471.087 221.708 473.341 221.783C473.385 221.785 473.43 221.777 473.472 221.762C473.514 221.746 473.552 221.722 473.585 221.691C473.617 221.661 473.644 221.624 473.662 221.584C473.681 221.543 473.691 221.499 473.693 221.454L473.693 221.431C473.794 218.717 473.752 215.978 473.685 213.283C473.624 210.584 473.507 207.93 473.374 205.387Z" fill="#2B2B2B"/>
<path d="M466.635 214.348C466.307 214.347 465.987 214.253 465.71 214.077C465.433 213.902 465.211 213.652 465.07 213.356C464.839 212.84 464.682 212.295 464.603 211.736C464.532 211.437 464.523 211.126 464.578 210.823C464.632 210.521 464.749 210.233 464.92 209.978C465.13 209.739 465.4 209.562 465.702 209.465C466.003 209.368 466.326 209.354 466.635 209.424C467.187 209.536 467.684 209.83 468.047 210.26C468.351 210.692 468.513 211.209 468.51 211.737C468.523 212.29 468.413 212.839 468.186 213.343C468.049 213.64 467.83 213.891 467.556 214.069C467.281 214.247 466.962 214.344 466.635 214.348ZM466.635 214.482C467.405 214.53 468.171 214.342 468.832 213.944C469.179 213.69 469.46 213.358 469.653 212.974C469.846 212.59 469.944 212.166 469.94 211.737C469.947 211.302 469.864 210.87 469.697 210.469C469.53 210.067 469.283 209.704 468.97 209.402C468.665 209.107 468.294 208.89 467.888 208.766C467.482 208.642 467.053 208.617 466.635 208.691C465.873 208.809 465.164 209.154 464.602 209.682C463.999 210.213 463.604 210.941 463.488 211.736C463.439 212.154 463.504 212.578 463.673 212.963C463.843 213.349 464.113 213.682 464.454 213.929C465.108 214.329 465.869 214.522 466.635 214.482Z" fill="#FDB914"/>
<path d="M462.299 221.478C463.699 221.712 465.111 221.869 466.528 221.949C467.288 221.982 468.055 222.021 468.832 222.001C469.609 221.983 470.386 221.882 471.14 221.811L471.217 221.804C471.261 221.8 471.304 221.787 471.343 221.766C471.382 221.746 471.417 221.717 471.445 221.683C471.473 221.649 471.494 221.61 471.507 221.568C471.52 221.525 471.525 221.481 471.521 221.437L471.52 221.431C471.413 220.615 471.353 219.793 471.342 218.97C471.394 218.111 471.272 217.25 470.983 216.439C470.641 215.566 470.047 214.814 469.276 214.279C468.505 213.745 467.592 213.452 466.654 213.438C465.715 213.425 464.794 213.691 464.008 214.202C463.221 214.714 462.606 215.448 462.239 216.312C461.885 217.168 461.781 218.107 461.939 219.02C462.03 219.921 462.181 220.76 462.299 221.478ZM462.392 221.384L462.753 218.921C462.792 218.193 462.991 217.484 463.337 216.843C463.69 216.242 464.185 215.737 464.779 215.372C465.373 215.007 466.047 214.793 466.743 214.748C467.473 214.729 468.195 214.901 468.838 215.246C469.482 215.591 470.024 216.097 470.413 216.715C470.82 217.393 471.003 218.182 470.938 218.97C470.926 219.793 470.867 220.615 470.759 221.431L471.14 221.051C470.427 220.98 469.739 220.878 469.05 220.86C468.361 220.84 467.663 220.88 466.957 220.913C465.54 220.999 464.061 221.17 462.392 221.384Z" fill="#FDB914"/>
<path d="M453.559 205.454C453.427 208.248 453.309 210.93 453.249 213.568C453.181 216.21 453.14 218.807 453.24 221.431L453.593 221.078C451.338 221.154 449.084 221.266 446.83 221.276C444.577 221.299 442.323 221.247 440.069 221.172L440.328 221.431C440.426 218.762 440.497 216.094 440.522 213.426C440.574 210.757 440.577 208.089 440.55 205.42L440.069 205.902C442.262 205.912 444.465 205.803 446.695 205.748L453.559 205.454ZM453.626 205.387L446.967 205.092C444.688 205.038 442.383 204.929 440.069 204.938C439.941 204.94 439.819 204.991 439.729 205.081C439.639 205.171 439.587 205.293 439.586 205.42C439.56 208.089 439.563 210.757 439.615 213.425C439.64 216.094 439.711 218.762 439.809 221.431L439.81 221.449C439.811 221.481 439.818 221.514 439.832 221.544C439.846 221.574 439.865 221.6 439.889 221.623C439.913 221.645 439.941 221.663 439.972 221.674C440.003 221.686 440.036 221.691 440.069 221.69C442.323 221.615 444.577 221.563 446.83 221.585C449.084 221.595 451.338 221.708 453.593 221.783C453.637 221.785 453.682 221.777 453.724 221.762C453.766 221.746 453.804 221.722 453.837 221.692C453.869 221.661 453.896 221.624 453.914 221.584C453.933 221.543 453.943 221.499 453.944 221.454L453.945 221.431C454.046 218.717 454.004 215.978 453.937 213.283C453.876 210.584 453.759 207.93 453.626 205.387Z" fill="#2B2B2B"/>
<path d="M446.887 214.348C446.559 214.347 446.239 214.253 445.962 214.077C445.685 213.902 445.463 213.652 445.322 213.356C445.091 212.841 444.934 212.295 444.855 211.736C444.784 211.437 444.775 211.126 444.829 210.823C444.884 210.521 445.001 210.233 445.172 209.978C445.382 209.739 445.651 209.562 445.953 209.465C446.255 209.368 446.578 209.354 446.887 209.424C447.439 209.536 447.936 209.83 448.299 210.26C448.603 210.692 448.765 211.209 448.762 211.737C448.775 212.29 448.665 212.839 448.438 213.343C448.301 213.639 448.082 213.891 447.808 214.069C447.533 214.247 447.214 214.344 446.887 214.348ZM446.887 214.482C447.657 214.53 448.423 214.342 449.084 213.944C449.431 213.69 449.712 213.358 449.905 212.974C450.098 212.59 450.196 212.166 450.192 211.737C450.199 211.302 450.116 210.87 449.949 210.469C449.782 210.067 449.535 209.704 449.222 209.402C448.917 209.107 448.546 208.89 448.14 208.766C447.734 208.642 447.305 208.617 446.887 208.691C446.125 208.809 445.416 209.154 444.854 209.682C444.251 210.213 443.856 210.941 443.739 211.736C443.691 212.155 443.755 212.578 443.925 212.963C444.095 213.349 444.364 213.682 444.706 213.929C445.36 214.329 446.121 214.522 446.887 214.482Z" fill="#FDB914"/>
<path d="M442.55 221.478C443.95 221.712 445.362 221.869 446.78 221.949C447.54 221.982 448.307 222.021 449.084 222.001C449.861 221.983 450.638 221.882 451.391 221.811L451.468 221.804C451.512 221.8 451.555 221.787 451.594 221.766C451.634 221.746 451.668 221.717 451.697 221.683C451.725 221.649 451.746 221.61 451.759 221.568C451.772 221.525 451.777 221.481 451.773 221.437L451.772 221.431C451.664 220.615 451.605 219.793 451.593 218.97C451.646 218.111 451.524 217.25 451.234 216.439C450.893 215.566 450.299 214.814 449.528 214.279C448.757 213.745 447.844 213.452 446.905 213.438C445.967 213.424 445.046 213.69 444.259 214.202C443.473 214.714 442.857 215.448 442.491 216.312C442.136 217.168 442.032 218.107 442.19 219.02C442.282 219.921 442.433 220.76 442.55 221.478ZM442.644 221.384L443.004 218.921C443.043 218.193 443.243 217.484 443.588 216.842C443.942 216.242 444.437 215.737 445.031 215.372C445.625 215.007 446.299 214.793 446.994 214.748C447.724 214.729 448.447 214.901 449.09 215.246C449.734 215.591 450.276 216.097 450.665 216.715C451.071 217.393 451.255 218.182 451.19 218.97C451.178 219.793 451.118 220.615 451.011 221.431L451.391 221.051C450.679 220.98 449.99 220.878 449.302 220.86C448.613 220.84 447.915 220.88 447.209 220.913C445.792 220.999 444.313 221.17 442.644 221.384Z" fill="#FDB914"/>
<path d="M462.312 225.336C462.179 228.13 462.063 230.812 462.002 233.45C461.934 236.092 461.892 238.689 461.993 241.313L462.345 240.96C460.091 241.036 457.838 241.148 455.584 241.158C453.33 241.181 451.076 241.129 448.822 241.054L449.081 241.313C449.179 238.644 449.25 235.976 449.275 233.308C449.327 230.639 449.33 227.971 449.303 225.302L448.822 225.784C451.015 225.793 453.218 225.685 455.447 225.631L462.312 225.336ZM462.379 225.269L455.72 224.974C453.441 224.92 451.136 224.811 448.822 224.82C448.694 224.822 448.572 224.873 448.482 224.963C448.392 225.053 448.341 225.175 448.339 225.302C448.313 227.971 448.316 230.639 448.368 233.307C448.393 235.976 448.464 238.644 448.562 241.313L448.563 241.331C448.564 241.364 448.572 241.396 448.585 241.426C448.599 241.456 448.618 241.483 448.642 241.505C448.666 241.527 448.694 241.545 448.725 241.556C448.756 241.568 448.789 241.573 448.822 241.572C451.076 241.497 453.33 241.445 455.584 241.467C457.838 241.477 460.091 241.59 462.345 241.665C462.436 241.668 462.524 241.635 462.59 241.574C462.656 241.512 462.694 241.427 462.697 241.336L462.698 241.313C462.799 238.599 462.757 235.86 462.689 233.165C462.629 230.466 462.512 227.812 462.379 225.269Z" fill="#2B2B2B"/>
<path d="M455.64 234.23C455.312 234.229 454.991 234.135 454.714 233.959C454.437 233.784 454.216 233.534 454.074 233.238C453.844 232.722 453.687 232.177 453.608 231.618C453.536 231.319 453.528 231.008 453.582 230.705C453.637 230.403 453.753 230.115 453.925 229.86C454.134 229.621 454.404 229.444 454.706 229.347C455.008 229.25 455.331 229.236 455.64 229.306C456.191 229.418 456.689 229.712 457.052 230.142C457.356 230.574 457.518 231.091 457.515 231.619C457.528 232.172 457.417 232.721 457.191 233.225C457.053 233.521 456.835 233.773 456.56 233.951C456.286 234.129 455.967 234.226 455.64 234.23ZM455.64 234.364C456.41 234.412 457.176 234.224 457.836 233.826C458.183 233.572 458.465 233.24 458.657 232.856C458.85 232.472 458.948 232.048 458.944 231.619C458.951 231.184 458.868 230.752 458.702 230.351C458.535 229.949 458.287 229.586 457.975 229.283C457.669 228.989 457.299 228.771 456.893 228.648C456.487 228.524 456.057 228.499 455.64 228.573C454.878 228.691 454.169 229.036 453.607 229.564C453.003 230.095 452.608 230.823 452.492 231.618C452.444 232.036 452.508 232.46 452.678 232.845C452.848 233.231 453.117 233.564 453.458 233.811C454.113 234.211 454.873 234.404 455.64 234.364V234.364Z" fill="#FDB914"/>
<path d="M451.303 241.36C452.703 241.594 454.115 241.751 455.532 241.831C456.292 241.864 457.06 241.903 457.837 241.883C458.613 241.865 459.391 241.764 460.144 241.693L460.221 241.686C460.265 241.682 460.308 241.669 460.347 241.648C460.386 241.628 460.421 241.599 460.449 241.565C460.478 241.531 460.499 241.492 460.512 241.45C460.525 241.407 460.529 241.363 460.525 241.319L460.525 241.313C460.417 240.497 460.357 239.675 460.346 238.852C460.399 237.993 460.277 237.132 459.987 236.321C459.646 235.448 459.051 234.696 458.28 234.161C457.509 233.627 456.596 233.334 455.658 233.32C454.72 233.307 453.798 233.573 453.012 234.084C452.226 234.596 451.61 235.33 451.243 236.194C450.889 237.05 450.785 237.989 450.943 238.902C451.034 239.803 451.186 240.642 451.303 241.36ZM451.397 241.266L451.757 238.803C451.796 238.075 451.995 237.366 452.341 236.724C452.694 236.124 453.19 235.619 453.783 235.254C454.377 234.889 455.051 234.675 455.747 234.63C456.477 234.611 457.199 234.783 457.843 235.128C458.486 235.473 459.029 235.979 459.417 236.597C459.824 237.275 460.008 238.064 459.942 238.852C459.931 239.675 459.871 240.497 459.764 241.313L460.144 240.932C459.432 240.862 458.743 240.76 458.054 240.742C457.366 240.722 456.667 240.762 455.962 240.795C454.544 240.88 453.065 241.052 451.397 241.266Z" fill="#FDB914"/>
<path d="M483.399 225.336C483.267 228.13 483.15 230.812 483.089 233.45C483.021 236.092 482.979 238.689 483.08 241.313L483.432 240.96C481.178 241.036 478.925 241.148 476.671 241.158C474.417 241.181 472.163 241.129 469.909 241.054L470.168 241.313C470.266 238.644 470.337 235.976 470.362 233.308C470.414 230.639 470.417 227.971 470.391 225.302L469.909 225.784C472.102 225.793 474.306 225.685 476.535 225.631L483.399 225.336ZM483.466 225.269L476.807 224.974C474.528 224.92 472.223 224.811 469.909 224.82C469.781 224.822 469.659 224.873 469.569 224.963C469.479 225.053 469.428 225.175 469.426 225.302C469.4 227.971 469.403 230.639 469.455 233.307C469.48 235.976 469.551 238.644 469.649 241.313L469.65 241.331C469.651 241.364 469.659 241.396 469.672 241.426C469.686 241.456 469.705 241.483 469.729 241.505C469.753 241.527 469.781 241.545 469.812 241.556C469.843 241.568 469.876 241.573 469.909 241.572C472.163 241.497 474.417 241.445 476.671 241.467C478.925 241.477 481.178 241.59 483.432 241.665C483.477 241.667 483.522 241.659 483.564 241.644C483.606 241.628 483.644 241.604 483.677 241.574C483.709 241.543 483.736 241.506 483.754 241.466C483.773 241.425 483.783 241.381 483.784 241.336L483.785 241.313C483.886 238.599 483.844 235.86 483.776 233.165C483.716 230.466 483.599 227.812 483.466 225.269Z" fill="#2B2B2B"/>
<path d="M492.695 246.047C492.562 248.841 492.445 251.523 492.384 254.161C492.317 256.803 492.275 259.401 492.376 262.024L492.728 261.672C490.474 261.747 488.22 261.86 485.966 261.87C483.712 261.892 481.458 261.84 479.204 261.765L479.463 262.024C479.562 259.356 479.633 256.687 479.658 254.019C479.709 251.351 479.712 248.682 479.686 246.014L479.204 246.495C481.398 246.505 483.601 246.396 485.83 246.342L492.695 246.047ZM492.762 245.98L486.102 245.685C483.823 245.631 481.519 245.522 479.204 245.532C479.077 245.533 478.955 245.584 478.865 245.675C478.774 245.765 478.723 245.886 478.722 246.014C478.696 248.682 478.699 251.351 478.75 254.019C478.775 256.687 478.846 259.356 478.945 262.024L478.945 262.042C478.947 262.075 478.954 262.107 478.968 262.137C478.981 262.167 479.001 262.194 479.025 262.216C479.049 262.239 479.077 262.256 479.108 262.268C479.139 262.279 479.171 262.284 479.204 262.283C481.458 262.208 483.712 262.156 485.966 262.179C488.22 262.189 490.474 262.301 492.728 262.377C492.773 262.378 492.817 262.371 492.859 262.355C492.901 262.339 492.94 262.316 492.972 262.285C493.005 262.254 493.031 262.218 493.05 262.177C493.068 262.136 493.078 262.092 493.08 262.048L493.081 262.024C493.181 259.31 493.14 256.572 493.072 253.877C493.011 251.178 492.894 248.523 492.762 245.98L492.762 245.98Z" fill="#2B2B2B"/>
<path d="M486.023 254.942C485.695 254.94 485.374 254.846 485.097 254.671C484.82 254.495 484.599 254.245 484.457 253.95C484.227 253.434 484.07 252.889 483.991 252.329C483.919 252.03 483.91 251.72 483.965 251.417C484.02 251.114 484.136 250.826 484.308 250.571C484.517 250.333 484.787 250.156 485.089 250.058C485.391 249.961 485.713 249.947 486.023 250.018C486.574 250.129 487.072 250.424 487.435 250.853C487.739 251.286 487.901 251.802 487.898 252.331C487.911 252.884 487.8 253.432 487.574 253.937C487.436 254.233 487.218 254.485 486.943 254.663C486.669 254.84 486.35 254.937 486.023 254.942ZM486.023 255.076C486.793 255.124 487.559 254.936 488.219 254.537C488.566 254.284 488.848 253.952 489.04 253.568C489.233 253.184 489.332 252.76 489.328 252.33C489.334 251.896 489.251 251.464 489.085 251.062C488.918 250.661 488.67 250.298 488.358 249.995C488.052 249.701 487.682 249.483 487.276 249.36C486.87 249.236 486.44 249.21 486.023 249.285C485.261 249.403 484.552 249.748 483.99 250.275C483.386 250.807 482.991 251.535 482.875 252.33C482.827 252.748 482.891 253.171 483.061 253.557C483.231 253.942 483.5 254.275 483.841 254.522C484.496 254.922 485.256 255.115 486.023 255.076Z" fill="#FDB914"/>
<path d="M481.686 262.071C483.086 262.305 484.498 262.463 485.915 262.542C486.676 262.575 487.443 262.615 488.22 262.595C488.997 262.577 489.774 262.475 490.527 262.404L490.604 262.397C490.648 262.393 490.691 262.38 490.73 262.36C490.77 262.339 490.804 262.311 490.833 262.277C490.861 262.243 490.882 262.203 490.895 262.161C490.908 262.119 490.913 262.074 490.909 262.03L490.908 262.024C490.8 261.208 490.741 260.386 490.729 259.563C490.782 258.704 490.66 257.843 490.37 257.032C490.029 256.159 489.435 255.407 488.664 254.873C487.893 254.338 486.98 254.045 486.041 254.032C485.103 254.018 484.182 254.284 483.395 254.796C482.609 255.308 481.993 256.042 481.626 256.905C481.272 257.761 481.168 258.7 481.326 259.613C481.418 260.514 481.569 261.353 481.686 262.071ZM481.78 261.977L482.14 259.514C482.179 258.787 482.379 258.077 482.724 257.436C483.078 256.836 483.573 256.331 484.167 255.966C484.76 255.6 485.434 255.386 486.13 255.341C486.86 255.323 487.582 255.494 488.226 255.839C488.869 256.184 489.412 256.69 489.8 257.308C490.207 257.986 490.391 258.775 490.326 259.563C490.314 260.386 490.254 261.208 490.147 262.024L490.527 261.644C489.815 261.573 489.126 261.472 488.438 261.454C487.749 261.434 487.05 261.473 486.345 261.506C484.928 261.592 483.449 261.763 481.78 261.977Z" fill="#FDB914"/>
<path d="M473.307 246.047C473.175 248.841 473.058 251.523 472.997 254.161C472.929 256.803 472.888 259.401 472.988 262.024L473.341 261.672C471.087 261.747 468.833 261.86 466.579 261.87C464.325 261.892 462.071 261.84 459.817 261.765L460.076 262.024C460.174 259.356 460.245 256.687 460.27 254.019C460.322 251.351 460.325 248.682 460.299 246.014L459.817 246.495C462.01 246.505 464.214 246.396 466.443 246.342L473.307 246.047ZM473.374 245.98L466.715 245.685C464.436 245.631 462.131 245.522 459.817 245.532C459.689 245.533 459.567 245.584 459.477 245.675C459.387 245.765 459.336 245.886 459.335 246.014C459.308 248.682 459.311 251.351 459.363 254.019C459.388 256.687 459.459 259.356 459.557 262.024L459.558 262.042C459.559 262.075 459.567 262.107 459.58 262.137C459.594 262.167 459.613 262.194 459.637 262.216C459.661 262.239 459.69 262.256 459.72 262.268C459.751 262.279 459.784 262.284 459.817 262.283C462.071 262.208 464.325 262.156 466.579 262.179C468.833 262.189 471.087 262.301 473.341 262.377C473.385 262.378 473.43 262.371 473.472 262.355C473.514 262.339 473.552 262.316 473.585 262.285C473.617 262.254 473.644 262.218 473.662 262.177C473.681 262.136 473.691 262.092 473.693 262.048L473.693 262.024C473.794 259.31 473.752 256.572 473.685 253.877C473.624 251.178 473.507 248.523 473.374 245.98V245.98Z" fill="#2B2B2B"/>
<path d="M453.723 246.047C453.59 248.841 453.473 251.523 453.412 254.161C453.345 256.803 453.303 259.401 453.404 262.024L453.756 261.672C451.502 261.747 449.248 261.86 446.994 261.87C444.74 261.892 442.486 261.84 440.232 261.765L440.491 262.024C440.59 259.356 440.661 256.687 440.686 254.019C440.737 251.351 440.741 248.682 440.714 246.014L440.232 246.495C442.426 246.505 444.629 246.396 446.858 246.342L453.723 246.047ZM453.79 245.98L447.13 245.685C444.851 245.631 442.547 245.522 440.232 245.532C440.105 245.533 439.983 245.584 439.893 245.674C439.802 245.765 439.751 245.886 439.75 246.014C439.724 248.682 439.727 251.351 439.779 254.019C439.803 256.687 439.874 259.356 439.973 262.024L439.974 262.042C439.975 262.075 439.982 262.107 439.996 262.137C440.009 262.167 440.029 262.194 440.053 262.216C440.077 262.239 440.105 262.256 440.136 262.268C440.167 262.279 440.199 262.284 440.232 262.283C442.486 262.208 444.74 262.156 446.994 262.179C449.248 262.189 451.502 262.301 453.756 262.377C453.801 262.378 453.845 262.371 453.887 262.355C453.929 262.339 453.968 262.316 454 262.285C454.033 262.254 454.059 262.218 454.078 262.177C454.096 262.136 454.107 262.092 454.108 262.048L454.109 262.024C454.209 259.31 454.168 256.572 454.1 253.877C454.039 251.178 453.922 248.523 453.79 245.98V245.98Z" fill="#2B2B2B"/>
<path d="M447.051 254.942C446.723 254.94 446.402 254.846 446.125 254.671C445.848 254.495 445.627 254.245 445.485 253.95C445.255 253.434 445.097 252.889 445.019 252.329C444.947 252.03 444.938 251.72 444.993 251.417C445.048 251.114 445.164 250.826 445.336 250.571C445.545 250.333 445.815 250.156 446.117 250.058C446.419 249.961 446.742 249.947 447.051 250.018C447.602 250.129 448.1 250.424 448.463 250.853C448.767 251.286 448.929 251.802 448.926 252.331C448.939 252.884 448.828 253.432 448.602 253.937C448.464 254.233 448.246 254.485 447.971 254.663C447.697 254.84 447.378 254.937 447.051 254.942ZM447.051 255.076C447.821 255.124 448.587 254.936 449.248 254.537C449.594 254.284 449.876 253.952 450.069 253.568C450.261 253.184 450.36 252.76 450.355 252.33C450.362 251.896 450.279 251.464 450.113 251.063C449.946 250.661 449.699 250.298 449.386 249.995C449.08 249.701 448.71 249.483 448.304 249.36C447.898 249.236 447.469 249.21 447.051 249.285C446.289 249.402 445.58 249.748 445.018 250.275C444.414 250.807 444.019 251.535 443.903 252.33C443.855 252.748 443.919 253.171 444.089 253.557C444.259 253.942 444.528 254.275 444.869 254.522C445.524 254.922 446.284 255.115 447.051 255.076Z" fill="#FDB914"/>
<path d="M442.714 262.071C444.114 262.305 445.526 262.463 446.943 262.542C447.703 262.575 448.471 262.615 449.248 262.595C450.025 262.577 450.801 262.475 451.555 262.404L451.632 262.397C451.676 262.393 451.719 262.38 451.758 262.36C451.797 262.339 451.832 262.311 451.86 262.277C451.889 262.243 451.91 262.203 451.923 262.161C451.936 262.119 451.941 262.074 451.936 262.03L451.936 262.024C451.828 261.208 451.768 260.386 451.757 259.563C451.81 258.704 451.688 257.843 451.398 257.032C451.056 256.159 450.462 255.407 449.691 254.873C448.92 254.338 448.007 254.045 447.069 254.032C446.13 254.018 445.209 254.284 444.423 254.796C443.637 255.308 443.021 256.042 442.654 256.905C442.3 257.761 442.196 258.7 442.354 259.613C442.445 260.514 442.597 261.353 442.714 262.071ZM442.808 261.977L443.168 259.514C443.207 258.787 443.406 258.077 443.752 257.436C444.105 256.835 444.601 256.331 445.194 255.966C445.788 255.6 446.462 255.386 447.158 255.341C447.888 255.323 448.61 255.494 449.254 255.839C449.897 256.184 450.44 256.69 450.828 257.308C451.235 257.986 451.419 258.775 451.353 259.563C451.342 260.386 451.282 261.208 451.175 262.024L451.555 261.644C450.843 261.573 450.154 261.472 449.465 261.454C448.777 261.434 448.078 261.473 447.373 261.506C445.955 261.592 444.476 261.763 442.808 261.977Z" fill="#FDB914"/>
<path d="M550.223 299.574L550.484 301.058L548.998 301.319L548.738 299.835L550.223 299.574Z" fill="#FDB914"/>
<path d="M495.751 310.623L498.709 310.106L498.45 308.622L495.492 309.139L495.751 310.623ZM501.668 309.589L504.627 309.073L504.367 307.589L501.409 308.106L501.668 309.589ZM507.585 308.556L510.543 308.039L510.284 306.556L507.326 307.072L507.585 308.556ZM513.502 307.523L516.46 307.005L516.199 305.521L513.241 306.039L513.502 307.523ZM519.418 306.488L522.376 305.971L522.117 304.488L519.158 305.004L519.418 306.488ZM525.334 305.455L528.292 304.938L528.033 303.454L525.075 303.971L525.334 305.455ZM531.251 304.421L534.21 303.905L533.95 302.421L530.992 302.938L531.251 304.421ZM537.168 303.386L540.126 302.87L539.867 301.386L536.908 301.903L537.168 303.386ZM543.084 302.353L546.042 301.837L545.783 300.353L542.825 300.869L543.084 302.353Z" fill="#FDB914"/>
<path d="M492.529 309.654L492.79 311.138L491.304 311.398L491.044 309.914L492.529 309.654Z" fill="#FDB914"/>
<path d="M555.087 304.749L555.403 306.224L553.927 306.539L553.612 305.064L555.087 304.749Z" fill="#FDB914"/>
<path d="M502.185 317.552L505.06 316.94L504.744 315.465L501.87 316.078L502.185 317.552ZM507.933 316.329L510.808 315.717L510.494 314.242L507.619 314.854L507.933 316.329ZM513.682 315.105L516.557 314.494L516.243 313.019L513.368 313.63L513.682 315.105ZM519.432 313.881L522.306 313.269L521.991 311.794L519.117 312.406L519.432 313.881ZM525.181 312.657L528.055 312.046L527.741 310.571L524.867 311.182L525.181 312.657ZM530.929 311.434L533.804 310.821L533.49 309.346L530.615 309.959L530.929 311.434ZM536.679 310.21L539.553 309.598L539.238 308.123L536.364 308.735L536.679 310.21ZM542.428 308.986L545.303 308.373L544.987 306.898L542.113 307.511L542.428 308.986ZM548.177 307.763L551.052 307.15L550.736 305.675L547.862 306.288L548.177 307.763Z" fill="#FDB914"/>
<path d="M498.995 316.688L499.311 318.163L497.835 318.478L497.52 317.003L498.995 316.688Z" fill="#FDB914"/>
<path d="M550.44 313.437C547.863 313.584 545.311 314.014 542.828 314.719C540.328 315.36 537.907 316.278 535.61 317.455C538.187 317.311 540.74 316.881 543.222 316.173C545.722 315.528 548.142 314.611 550.44 313.437Z" fill="#FDB914"/>
</svg>
