<svg width="876" height="689" viewBox="0 0 876 689" fill="none" xmlns="http://www.w3.org/2000/svg">
<path d="M363.463 219.998C363.656 220.349 363.85 220.713 364.068 221.065C364.165 221.247 364.286 221.428 364.371 221.598C364.432 221.756 364.492 221.938 364.541 222.107C364.759 222.823 364.952 223.599 365.134 224.35L366.248 228.921C366.599 230.448 366.939 231.976 367.253 233.503C367.447 234.522 367.641 235.528 367.762 236.595L330.315 200.127C333.664 192.938 335.866 185.268 336.843 177.396C342.656 180.16 350.092 183.591 360.132 187.761C376.809 194.684 381.29 230.521 381.29 230.521C381.29 230.521 373.6 232.218 369.264 230.958C369.193 230.078 369.068 229.203 368.888 228.339C368.56 226.694 368.048 225.092 367.362 223.562C367.015 222.778 366.598 222.028 366.115 221.319C365.994 221.138 365.849 220.956 365.691 220.762L365.364 220.265C365.134 219.937 364.928 219.598 364.722 219.258C363.027 216.531 361.416 213.706 359.829 210.893L355.046 202.419C356.354 205.389 357.698 208.343 359.079 211.281C360.483 214.203 361.888 217.125 363.463 219.998ZM378.88 230.182C379.351 230.165 379.796 229.966 380.123 229.627C380.45 229.287 380.633 228.834 380.633 228.363C380.633 227.892 380.45 227.439 380.123 227.099C379.796 226.76 379.351 226.561 378.88 226.545C378.409 226.561 377.964 226.76 377.637 227.099C377.31 227.439 377.127 227.892 377.127 228.363C377.127 228.834 377.31 229.287 377.637 229.627C377.964 229.966 378.409 230.165 378.88 230.182ZM372.921 230.182C373.392 230.165 373.838 229.966 374.165 229.627C374.492 229.287 374.674 228.834 374.674 228.363C374.674 227.892 374.492 227.439 374.165 227.099C373.838 226.76 373.392 226.561 372.921 226.545C372.451 226.561 372.005 226.76 371.678 227.099C371.351 227.439 371.168 227.892 371.168 228.363C371.168 228.834 371.351 229.287 371.678 229.627C372.005 229.966 372.451 230.165 372.921 230.182Z" fill="#2B2B2B"/>
<path d="M367.863 238.253C365.846 239.134 363.704 239.696 361.514 239.917C360.464 240.007 359.407 239.967 358.367 239.799C357.29 239.667 356.241 239.331 355.05 239.067C355.838 240.002 356.848 240.723 357.987 241.166C359.146 241.645 360.404 241.839 361.653 241.729C362.894 241.635 364.1 241.273 365.189 240.669C366.267 240.099 367.187 239.269 367.863 238.253Z" fill="#2B2B2B"/>
<path d="M474.92 296.219C475.113 294.557 475.21 292.885 475.211 291.212L474.92 296.219Z" fill="#2B2B2B"/>
<path d="M474.835 297.698L474.92 296.219C474.615 299.534 473.625 302.75 472.013 305.663C475.078 301.165 474.835 297.698 474.835 297.698Z" fill="#2B2B2B"/>
<path d="M471.904 305.833C471.517 306.402 471.069 306.984 470.572 307.578C471.073 307.042 471.519 306.457 471.904 305.833Z" fill="#2B2B2B"/>
<path d="M216.508 328.031L664.614 324.988V317.653C627.325 318.247 590.035 318.696 552.745 318.999C515.456 319.411 478.166 319.544 440.876 319.763C403.587 320.029 366.285 320.041 328.995 320.114L273.054 320.175L217.55 320.053L216.508 328.031Z" fill="#2B2B2B"/>
<path d="M145.126 276.117V283.646L216.508 328.03L216.641 319.896L198.789 309.033L180.89 298.085L145.126 276.117Z" fill="#2B2B2B"/>
<path d="M384.401 296.445L381.979 296.488" stroke="#FDB914" stroke-width="1.93554" stroke-miterlimit="10"/>
<path d="M376.997 296.578L319.7 297.612" stroke="#FDB914" stroke-width="1.93554" stroke-miterlimit="10" stroke-dasharray="3.98 3.98"/>
<path d="M317.209 297.657L314.787 297.701" stroke="#FDB914" stroke-width="1.93554" stroke-miterlimit="10"/>
<path d="M381.751 292.107L379.33 292.15" stroke="#FDB914" stroke-width="1.93554" stroke-miterlimit="10"/>
<path d="M374.347 292.24L317.051 293.274" stroke="#FDB914" stroke-width="1.93554" stroke-miterlimit="10" stroke-dasharray="3.98 3.98"/>
<path d="M314.559 293.319L312.137 293.363" stroke="#FDB914" stroke-width="1.93554" stroke-miterlimit="10"/>
<path d="M378.554 287.822L376.132 287.866" stroke="#FDB914" stroke-width="1.93554" stroke-miterlimit="10"/>
<path d="M371.15 287.956L313.853 288.99" stroke="#FDB914" stroke-width="1.93554" stroke-miterlimit="10" stroke-dasharray="3.98 3.98"/>
<path d="M311.362 289.035L308.94 289.079" stroke="#FDB914" stroke-width="1.93554" stroke-miterlimit="10"/>
<path d="M584.873 283.082C584.25 300.668 583.839 318.254 583.314 335.84L582.144 388.597C581.93 397.39 581.683 406.183 581.403 414.976C581.155 423.769 581.142 432.562 581.364 441.355L581.822 454.544C582.054 458.94 582.209 463.337 582.521 467.733C583.063 476.526 583.756 485.319 584.873 494.112C584.885 494.207 584.931 494.294 585.003 494.358C585.075 494.421 585.167 494.456 585.263 494.456C585.359 494.456 585.451 494.421 585.523 494.358C585.594 494.294 585.641 494.207 585.653 494.112C586.77 485.319 587.463 476.526 588.005 467.733C588.317 463.337 588.472 458.94 588.704 454.544L589.162 441.355C589.387 432.562 589.374 423.769 589.123 414.976C588.834 406.183 588.587 397.39 588.382 388.597L587.212 335.84C586.687 318.254 586.275 300.668 585.653 283.082C585.649 282.981 585.606 282.886 585.534 282.816C585.461 282.745 585.364 282.706 585.263 282.706C585.162 282.706 585.065 282.745 584.992 282.816C584.919 282.886 584.877 282.981 584.873 283.082H584.873Z" fill="#2B2B2B"/>
<path d="M654.632 327.895C654.009 345.481 653.598 363.067 653.073 380.653L651.903 433.41C651.689 442.203 651.442 450.996 651.162 459.789C650.914 468.582 650.901 477.374 651.123 486.167L651.581 499.357C651.813 503.753 651.968 508.15 652.28 512.546C652.822 521.339 653.515 530.132 654.632 538.925C654.644 539.02 654.69 539.107 654.762 539.171C654.834 539.234 654.926 539.269 655.022 539.269C655.118 539.269 655.21 539.234 655.282 539.171C655.354 539.107 655.4 539.02 655.412 538.925C656.529 530.132 657.222 521.339 657.764 512.546C658.076 508.15 658.231 503.753 658.463 499.357L658.921 486.167C659.147 477.374 659.134 468.582 658.882 459.789C658.593 450.996 658.346 442.203 658.141 433.41L656.971 380.653C656.446 363.067 656.035 345.481 655.412 327.895C655.408 327.794 655.366 327.698 655.293 327.628C655.22 327.558 655.123 327.518 655.022 327.518C654.921 327.518 654.824 327.558 654.751 327.628C654.678 327.698 654.636 327.794 654.632 327.895H654.632Z" fill="#2B2B2B"/>
<path d="M154.207 283.082C153.584 300.668 153.172 318.254 152.647 335.84L151.478 388.597C151.264 397.39 151.017 406.183 150.737 414.976C150.489 423.769 150.476 432.562 150.698 441.355L151.156 454.544C151.387 458.94 151.542 463.337 151.855 467.733C152.397 476.526 153.09 485.319 154.207 494.112C154.219 494.207 154.265 494.294 154.337 494.358C154.409 494.421 154.501 494.456 154.597 494.456C154.692 494.456 154.785 494.421 154.856 494.358C154.928 494.294 154.974 494.207 154.987 494.112C156.104 485.319 156.797 476.526 157.339 467.733C157.651 463.337 157.806 458.94 158.037 454.544L158.496 441.355C158.721 432.562 158.708 423.769 158.456 414.976C158.167 406.183 157.921 397.39 157.716 388.597L156.546 335.84C156.021 318.254 155.61 300.668 154.987 283.082C154.983 282.981 154.94 282.886 154.867 282.816C154.795 282.745 154.698 282.706 154.597 282.706C154.496 282.706 154.399 282.745 154.326 282.816C154.253 282.886 154.211 282.981 154.207 283.082H154.207Z" fill="#2B2B2B"/>
<path d="M223.966 327.895C223.343 345.481 222.931 363.067 222.407 380.652L221.237 433.41C221.023 442.203 220.776 450.996 220.496 459.789C220.248 468.581 220.235 477.374 220.457 486.167L220.915 499.357C221.147 503.753 221.302 508.15 221.614 512.546C222.156 521.339 222.849 530.132 223.966 538.925C223.978 539.02 224.024 539.107 224.096 539.17C224.168 539.234 224.26 539.269 224.356 539.269C224.452 539.269 224.544 539.234 224.616 539.17C224.687 539.107 224.734 539.02 224.746 538.925C225.863 530.132 226.556 521.339 227.098 512.546C227.41 508.15 227.565 503.753 227.797 499.357L228.255 486.167C228.48 477.374 228.467 468.582 228.216 459.789C227.927 450.996 227.68 442.203 227.475 433.41L226.305 380.652C225.78 363.067 225.369 345.481 224.746 327.895C224.742 327.794 224.699 327.699 224.627 327.629C224.554 327.558 224.457 327.519 224.356 327.519C224.255 327.519 224.158 327.558 224.085 327.629C224.013 327.699 223.97 327.794 223.966 327.895H223.966Z" fill="#2B2B2B"/>
<path d="M321.907 167.948C323.95 167.883 325.899 167.076 327.391 165.678C328.91 164.372 330.25 162.871 331.379 161.216C332.516 159.595 333.539 157.895 334.438 156.131C335.353 154.373 336.166 152.563 336.872 150.711L334.939 151.225C335.271 151.509 335.658 151.72 336.075 151.846C336.493 151.971 336.932 152.008 337.364 151.955C338.089 151.843 338.775 151.553 339.359 151.11C340.376 150.356 341.179 149.349 341.689 148.19C342.222 147.067 342.465 145.828 342.397 144.587C342.326 143.334 341.892 142.128 341.149 141.116C340.429 140.169 339.506 139.394 338.448 138.849C337.899 138.554 337.299 138.365 336.68 138.293C336.005 138.215 335.324 138.38 334.758 138.757C333.85 139.531 333.222 140.584 332.974 141.752C332.691 142.811 332.518 143.896 332.458 144.991L332.79 144.594C331.411 144.88 329.977 144.681 328.728 144.031C327.452 143.372 326.301 142.494 325.328 141.437C323.378 139.265 321.717 136.848 320.387 134.248C319.009 131.664 317.762 129.004 316.604 126.304C315.445 123.613 314.375 120.84 313.47 118.092C313.378 117.812 313.2 117.568 312.962 117.395C312.724 117.222 312.437 117.128 312.143 117.127C311.848 117.126 311.561 117.218 311.321 117.39C311.082 117.561 310.903 117.804 310.808 118.083L310.79 118.141C309.518 121.989 308.113 125.854 306.573 129.602C305.769 131.461 304.928 133.296 303.983 135.048C303.15 136.729 301.986 138.225 300.561 139.446L300.431 139.54C300.32 139.621 300.227 139.725 300.159 139.844C300.091 139.964 300.049 140.097 300.037 140.234C299.802 142.853 299.739 145.448 299.758 148.062C299.772 149.372 299.857 150.68 300.013 151.98C300.121 153.301 300.447 154.595 300.978 155.81C300.993 155.84 301.019 155.864 301.051 155.877C301.082 155.889 301.118 155.89 301.149 155.878C301.181 155.866 301.208 155.842 301.223 155.812C301.239 155.781 301.243 155.746 301.234 155.713L301.231 155.702C300.943 154.468 300.83 153.2 300.894 151.934C300.927 150.66 301.036 149.387 301.14 148.114C301.37 145.572 301.756 143.022 302.172 140.521L301.647 141.309C303.523 140.032 305.078 138.338 306.192 136.36C307.302 134.553 308.295 132.676 309.166 130.741C310.894 126.921 312.338 122.978 313.485 118.945L310.805 118.994C311.865 121.862 313.042 124.605 314.333 127.336C315.616 130.07 317.095 132.709 318.759 135.229C320.404 137.788 322.35 140.14 324.554 142.236C325.685 143.287 326.968 144.16 328.361 144.825C329.795 145.515 331.412 145.725 332.974 145.424C333.062 145.406 333.142 145.36 333.202 145.292C333.261 145.225 333.297 145.14 333.305 145.05L333.306 145.028C333.372 144.009 333.566 143.002 333.884 142.032C334.115 141.123 334.648 140.32 335.397 139.755C336.754 139.063 338.751 140.709 339.628 142.136C340.048 142.908 340.262 143.775 340.25 144.654C340.237 145.533 339.999 146.394 339.558 147.154C339.171 147.92 338.616 148.589 337.935 149.11C337.674 149.31 337.37 149.445 337.048 149.504C336.956 149.523 336.861 149.521 336.77 149.499C336.679 149.478 336.594 149.437 336.52 149.38L336.413 149.305C336.151 149.122 335.826 149.051 335.512 149.107C335.197 149.163 334.917 149.342 334.734 149.605C334.673 149.695 334.623 149.792 334.586 149.894C333.968 151.648 333.202 153.422 332.434 155.153C331.643 156.883 330.784 158.579 329.834 160.215C328.904 161.85 327.805 163.383 326.556 164.789C325.369 166.248 323.727 167.264 321.893 167.674C321.875 167.677 321.857 167.683 321.842 167.693C321.827 167.702 321.813 167.714 321.802 167.729C321.792 167.744 321.784 167.76 321.78 167.778C321.776 167.796 321.775 167.814 321.778 167.832C321.783 167.863 321.799 167.892 321.822 167.913C321.846 167.934 321.875 167.946 321.907 167.948Z" fill="#2B2B2B"/>
<path d="M328.677 163.217C328.559 164.183 328.46 165.149 328.371 166.115C328.251 167.119 328.259 168.135 328.393 169.137C328.703 171.215 329.591 173.163 330.955 174.759C331.646 175.565 332.446 176.271 333.332 176.855C333.77 177.144 334.225 177.408 334.693 177.645L335.991 178.293C337.729 179.144 339.46 180.008 341.23 180.791C344.754 182.388 348.413 183.684 352.04 185.037C353.861 185.695 355.669 186.382 357.458 187.113C359.258 187.739 360.979 188.575 362.586 189.602C365.604 191.882 368.064 194.82 369.779 198.194C371.602 201.512 373.149 204.975 374.406 208.547C376.84 215.775 378.779 223.16 380.21 230.651L381.052 229.456C378.946 229.999 376.807 230.407 374.649 230.677C373.57 230.815 372.484 230.884 371.397 230.883C370.313 230.899 369.233 230.734 368.202 230.394C368.185 230.388 368.167 230.384 368.149 230.385C368.131 230.385 368.113 230.389 368.097 230.396C368.08 230.403 368.065 230.413 368.052 230.427C368.04 230.44 368.03 230.455 368.023 230.472C368.012 230.501 368.011 230.534 368.021 230.564C368.031 230.595 368.05 230.621 368.076 230.639C369.07 231.223 370.169 231.607 371.31 231.769C372.434 231.973 373.574 232.079 374.716 232.087C375.852 232.11 376.989 232.075 378.121 231.98C379.257 231.888 380.369 231.775 381.52 231.577C381.774 231.533 382.003 231.395 382.16 231.19C382.318 230.986 382.393 230.729 382.371 230.472L382.362 230.382C381.995 226.482 381.361 222.612 380.465 218.799C379.592 214.974 378.416 211.225 376.95 207.587C375.537 203.899 373.715 200.381 371.516 197.101C369.292 193.803 366.427 190.987 363.092 188.822C361.392 187.853 359.622 187.014 357.796 186.31C356.027 185.543 354.29 184.7 352.572 183.815C349.123 182.078 345.739 180.208 342.253 178.569C340.517 177.733 338.751 176.963 336.999 176.162L335.682 175.568C335.276 175.395 334.881 175.199 334.498 174.98C333.744 174.542 333.048 174.01 332.427 173.397C331.152 172.139 330.218 170.575 329.715 168.855C329.46 167.962 329.306 167.042 329.259 166.115C329.17 165.149 329.07 164.183 328.952 163.217C328.948 163.183 328.932 163.152 328.906 163.13C328.881 163.107 328.848 163.095 328.815 163.095C328.781 163.095 328.748 163.107 328.723 163.13C328.698 163.152 328.682 163.183 328.677 163.217L328.677 163.217Z" fill="#2B2B2B"/>
<path d="M367.863 238.253C367.089 240.956 366.677 243.749 366.637 246.561C366.489 249.364 366.467 252.17 366.572 254.979C366.656 257.787 366.838 260.592 367.165 263.395C367.437 266.245 367.963 269.065 368.737 271.821L369.948 270.216L352.787 269.258L335.619 268.445L318.45 267.705C312.727 267.432 307.003 267.275 301.283 266.771C304.084 267.408 306.93 267.865 309.773 268.269C312.617 268.7 315.468 269.048 318.323 269.364C324.031 269.995 329.749 270.5 335.472 270.922C341.193 271.375 346.921 271.673 352.649 271.996C358.379 272.256 364.107 272.523 369.845 272.66L369.864 272.661C370.025 272.664 370.185 272.636 370.335 272.578C370.485 272.52 370.622 272.433 370.738 272.322C370.854 272.211 370.948 272.078 371.013 271.931C371.078 271.784 371.113 271.625 371.117 271.464C371.12 271.325 371.1 271.187 371.057 271.054C370.267 268.452 369.665 265.796 369.255 263.107C368.808 260.384 368.483 257.629 368.189 254.871C367.924 252.11 367.681 249.341 367.55 246.565C367.353 243.791 367.458 241.004 367.863 238.253Z" fill="#2B2B2B"/>
<path d="M298.328 272C303.221 272.83 324.924 272.383 336.151 272.09C336.151 272.09 312.137 251.963 312.062 244.413C312.062 244.413 303.692 265.976 301.283 266.771L298.328 272Z" fill="#2B2B2B"/>
<path d="M380.037 230.759C380.287 232.909 380.662 235.023 381.079 237.124C381.487 239.229 381.965 241.313 382.467 243.39C382.971 245.466 383.516 247.53 384.099 249.583C384.645 251.647 385.316 253.675 385.922 255.722L385.934 255.763C385.963 255.857 386.004 255.948 386.057 256.031C387.504 258.285 388.979 260.522 390.526 262.716C392.089 264.9 393.683 267.066 395.442 269.132C394.448 266.606 393.29 264.179 392.1 261.77C390.895 259.372 389.617 257.016 388.311 254.678L388.446 254.987C387.861 252.934 387.341 250.863 386.695 248.827C386.092 246.78 385.445 244.745 384.754 242.723C384.065 240.701 383.351 238.686 382.568 236.691C381.794 234.693 380.978 232.708 380.037 230.759Z" fill="#2B2B2B"/>
<path d="M368.87 265.246C368.496 266.003 368.287 266.831 368.257 267.676C368.227 268.52 368.376 269.361 368.696 270.142C368.794 270.431 368.951 270.695 369.158 270.918C369.365 271.142 369.617 271.319 369.897 271.438C369.783 270.93 369.729 270.411 369.737 269.891C369.73 269.385 369.692 268.882 369.65 268.372C369.571 267.293 369.308 266.236 368.87 265.246Z" fill="#2B2B2B"/>
<path d="M341.415 272C338.287 270.754 335.311 269.156 332.544 267.236C329.819 265.352 327.255 263.245 324.879 260.935C323.705 259.766 322.519 258.606 321.451 257.327C320.279 256.138 319.309 254.778 318.215 253.504C317.652 252.877 317.197 252.172 316.684 251.503L315.148 249.482C314.158 248.107 313.222 246.687 312.138 245.324C312.676 246.959 313.305 248.571 313.986 250.165C314.789 251.689 315.508 253.284 316.462 254.735C318.297 257.71 320.483 260.454 322.971 262.908C325.498 265.348 328.353 267.423 331.453 269.072C334.519 270.768 337.92 271.767 341.415 272Z" fill="#2B2B2B"/>
<path d="M355.183 184.929C353.868 177.221 352.259 169.598 350.621 161.993L348.154 150.611C347.734 148.721 347.302 146.836 346.993 144.957C346.85 144.029 346.789 143.155 346.674 142.077C346.54 141.084 346.351 140.099 346.108 139.127C345.145 135.306 343.836 131.58 342.198 127.996C341.376 126.202 340.431 124.468 339.368 122.806C338.316 121.108 337.086 119.529 335.696 118.096C332.869 115.032 329.012 113.119 324.864 112.723C323.823 112.643 322.777 112.648 321.736 112.738C320.708 112.856 319.69 113.047 318.689 113.31C316.711 113.834 314.794 114.568 312.971 115.497L313.915 115.372C311.765 114.933 309.552 114.898 307.389 115.27C305.182 115.634 303.098 116.537 301.322 117.897C300.439 118.588 299.637 119.378 298.934 120.252C298.617 120.706 298.333 121.182 298.036 121.647C297.721 122.096 297.46 122.581 297.258 123.092C296.792 124.064 296.432 125.084 296.183 126.134C295.899 127.152 295.701 128.193 295.593 129.245C295.516 130.285 295.343 131.325 295.354 132.36L295.441 135.456C295.541 137.483 295.757 139.409 295.801 141.403C295.871 143.376 295.838 145.351 295.703 147.321C295.714 149.272 295.175 151.187 294.149 152.847L294.136 152.864C294.116 152.89 294.106 152.924 294.108 152.957C294.111 152.991 294.125 153.022 294.15 153.046C294.174 153.069 294.206 153.082 294.239 153.084C294.273 153.085 294.306 153.073 294.332 153.052C295.088 152.328 295.654 151.429 295.98 150.434C296.312 149.465 296.577 148.476 296.776 147.471C297.149 145.474 297.384 143.454 297.479 141.425C297.613 139.418 297.61 137.346 297.621 135.377L297.731 132.473C297.792 131.511 297.987 130.573 298.103 129.625C298.242 128.692 298.461 127.773 298.76 126.879C299.016 125.994 299.353 125.134 299.767 124.311C299.937 123.893 300.163 123.5 300.437 123.141C300.69 122.773 300.924 122.39 301.183 122.03C301.755 121.365 302.399 120.766 303.102 120.241C304.508 119.152 306.163 118.431 307.917 118.143C309.695 117.797 311.52 117.765 313.309 118.049L313.394 118.063C313.688 118.114 313.99 118.064 314.253 117.923C317.429 116.055 321.043 115.064 324.727 115.052C328.431 115.198 331.963 116.652 334.696 119.158C337.541 121.736 339.832 124.867 341.431 128.359C343.105 131.842 344.252 135.555 344.834 139.376C344.98 140.313 345.075 141.258 345.116 142.206C345.132 143.071 345.114 144.149 345.182 145.158C345.348 147.146 345.572 149.106 345.895 151.041C346.507 154.92 347.399 158.728 348.321 162.522C350.189 170.107 352.328 177.615 354.917 184.998C354.929 185.031 354.952 185.058 354.983 185.074C355.013 185.09 355.049 185.095 355.082 185.086C355.116 185.077 355.145 185.056 355.163 185.027C355.182 184.998 355.189 184.963 355.183 184.929L355.183 184.929Z" fill="#2B2B2B"/>
<path d="M403.962 273.96C403.567 273.061 403.027 272.233 402.366 271.508C401.69 270.758 400.908 270.112 400.045 269.591C398.279 268.561 396.295 267.966 394.254 267.856L394.355 267.864C392.96 267.712 391.55 267.732 390.16 267.924C388.784 268.111 387.438 268.468 386.15 268.988C384.862 269.513 383.666 270.241 382.607 271.143C381.562 272.024 380.71 273.111 380.103 274.336C381.152 273.595 382.263 272.947 383.424 272.399C384.535 271.886 385.695 271.488 386.887 271.212C389.23 270.652 391.639 270.421 394.046 270.526L394.147 270.534C395.869 270.534 397.58 270.804 399.219 271.334C400.056 271.615 400.865 271.974 401.635 272.407C402.445 272.872 403.222 273.391 403.962 273.96Z" fill="#2B2B2B"/>
<path d="M380.037 283.645C388.245 303.385 400.962 295.598 400.962 295.598C400.962 295.598 395.254 292.154 394.273 275.637C394.273 275.637 391.794 272.006 388.594 275.637C385.92 278.492 383.062 281.167 380.037 283.645Z" fill="white"/>
<path d="M379.919 283.616C380.202 284.63 380.554 285.804 380.98 287.01C381.453 288.139 381.992 289.15 382.537 290.218C382.842 290.728 383.195 291.212 383.537 291.703C383.862 292.21 384.227 292.69 384.628 293.138L385.888 294.456C386.342 294.871 386.82 295.258 387.319 295.617C389.336 297.091 391.785 297.852 394.281 297.778C396.686 297.699 399.039 297.06 401.155 295.914C401.208 295.886 401.253 295.846 401.286 295.796C401.319 295.746 401.338 295.688 401.343 295.629C401.348 295.569 401.338 295.51 401.313 295.455C401.289 295.401 401.251 295.353 401.203 295.318L401.153 295.281C399.848 294.149 398.862 292.693 398.294 291.061C397.655 289.43 397.17 287.742 396.846 286.02C396.64 285.173 396.526 284.296 396.347 283.441C396.223 282.571 396.086 281.704 395.982 280.832C395.904 279.953 395.804 279.08 395.743 278.201C395.709 277.318 395.628 276.44 395.563 275.561L395.558 275.486C395.543 275.276 395.467 275.075 395.34 274.907C394.749 274.053 393.914 273.399 392.944 273.032C392.425 272.838 391.871 272.755 391.318 272.786C390.764 272.818 390.224 272.965 389.73 273.216C388.913 273.666 388.198 274.281 387.633 275.023C387.158 275.597 386.674 276.173 386.175 276.745C385.173 277.882 384.138 279.011 383.095 280.139L381.531 281.841C380.991 282.439 380.518 282.907 379.919 283.616ZM380.154 283.675C380.819 283.315 381.459 282.912 382.071 282.468C382.717 282.035 383.353 281.586 383.972 281.116C385.219 280.186 386.433 279.208 387.598 278.157C388.187 277.639 388.758 277.093 389.311 276.52C389.722 276.065 390.216 275.693 390.767 275.425C390.963 275.33 391.178 275.279 391.397 275.277C391.615 275.275 391.831 275.321 392.029 275.413C392.489 275.637 392.891 275.964 393.205 276.368L392.982 275.715C393.06 276.627 393.124 277.541 393.234 278.45C393.35 279.359 393.507 280.266 393.642 281.172C393.803 282.076 393.999 282.977 394.182 283.877C394.426 284.769 394.623 285.668 394.932 286.542C395.51 288.305 396.273 290.001 397.208 291.602C398.102 293.26 399.312 294.725 400.771 295.915L400.769 295.282C399.796 295.814 398.741 296.181 397.648 296.368C397.102 296.457 396.548 296.496 395.995 296.485C395.449 296.496 394.903 296.453 394.365 296.357C392.27 295.97 390.291 295.11 388.579 293.842C386.824 292.547 385.265 291.007 383.949 289.268C383.338 288.35 382.624 287.427 382.021 286.527L380.154 283.675Z" fill="#2B2B2B"/>
<path d="M387.184 255.354C386.504 254.943 385.757 254.656 384.978 254.506C384.215 254.343 383.437 254.261 382.657 254.262C381.082 254.241 379.526 254.616 378.134 255.354C378.894 255.491 379.664 255.57 380.437 255.592C381.186 255.628 381.925 255.633 382.663 255.636C384.175 255.642 385.685 255.548 387.184 255.354Z" fill="#2B2B2B"/>
<path d="M447.778 326.506C448.988 326.81 450.127 327.346 451.132 328.085C452.156 328.803 453.117 329.608 454.003 330.492C455.783 332.266 457.424 334.176 458.91 336.204C461.868 340.289 464.605 344.532 467.107 348.912C472.183 357.646 476.61 366.749 480.977 375.869C485.311 385.009 489.404 394.266 493.346 403.588C497.299 412.901 501.229 422.241 504.911 431.655L505.12 430.51C501.709 434.374 498.081 438.119 494.349 441.713C490.626 445.32 486.707 448.72 482.61 451.895C478.599 455.141 474.122 457.765 469.331 459.679C466.987 460.618 464.434 460.909 461.938 460.522C460.727 460.258 459.591 459.722 458.617 458.954C457.644 458.186 456.858 457.205 456.319 456.087L456.315 456.079C456.285 456.02 456.241 455.97 456.187 455.931C456.134 455.893 456.072 455.868 456.007 455.858C453.627 455.538 451.212 455.569 448.841 455.949C446.464 456.302 444.166 457.062 442.047 458.195C440.985 458.763 439.979 459.428 439.039 460.18C438.116 460.955 437.268 461.814 436.506 462.748C435.731 463.668 435.042 464.658 434.448 465.704C433.832 466.735 433.411 467.865 432.886 468.943L433.263 468.631C428.117 469.106 422.928 468.607 417.967 467.16C412.986 465.765 408.208 463.723 403.756 461.088L400.482 459.012C399.379 458.339 398.396 457.485 397.349 456.731C395.28 455.181 393.298 453.519 391.409 451.754C390.411 450.933 389.553 449.956 388.64 449.04L385.935 446.26C384.241 444.303 382.606 442.293 380.939 440.315L381.177 441.173L386.637 400.281L389.324 379.83L391.902 359.364C391.929 359.151 391.907 358.934 391.838 358.73C391.768 358.527 391.654 358.341 391.502 358.189C391.351 358.036 391.167 357.92 390.964 357.849C390.761 357.778 390.544 357.754 390.331 357.779L390.312 357.781C380.57 358.921 370.774 359.529 360.966 359.603C351.157 359.766 341.35 359.176 331.631 357.837C321.977 356.39 312.301 354.165 303.629 349.657C299.271 347.463 295.347 344.495 292.049 340.897C288.78 337.228 286.483 332.796 285.369 328.007C285.36 327.972 285.339 327.942 285.309 327.922C285.278 327.903 285.242 327.896 285.206 327.904C285.171 327.911 285.14 327.932 285.121 327.962C285.101 327.992 285.093 328.029 285.1 328.064C286.046 332.985 288.209 337.59 291.393 341.456C294.621 345.302 298.549 348.499 302.969 350.876C307.352 353.271 311.976 355.194 316.765 356.613C321.529 358.058 326.387 359.175 331.303 359.956C341.119 361.477 351.037 362.242 360.97 362.243C365.93 362.288 370.889 362.147 375.839 361.865C380.796 361.58 385.718 361.194 390.686 360.588L389.097 359.005L386.444 379.461L383.9 399.931L378.897 440.881L378.89 440.94C378.873 441.083 378.886 441.228 378.928 441.366C378.97 441.504 379.041 441.631 379.135 441.74C380.872 443.739 382.577 445.764 384.341 447.735L387.158 450.537C388.072 451.496 389.035 452.406 390.043 453.265C392.024 455.026 394.098 456.679 396.258 458.215C397.352 458.962 398.378 459.807 399.527 460.472L402.936 462.515C407.567 465.103 412.51 467.083 417.645 468.407C422.793 469.766 428.144 470.175 433.438 469.614C433.512 469.605 433.582 469.578 433.643 469.535C433.703 469.492 433.752 469.434 433.785 469.368L433.816 469.302C434.316 468.267 434.709 467.172 435.291 466.183C435.85 465.18 436.5 464.231 437.232 463.348C437.949 462.454 438.749 461.63 439.62 460.886C440.509 460.163 441.463 459.523 442.469 458.974C444.493 457.872 446.692 457.126 448.97 456.77C451.247 456.415 453.564 456.403 455.844 456.735L455.533 456.506L456.621 458.223C457.095 458.714 457.527 459.254 458.046 459.699C459.114 460.579 460.377 461.188 461.73 461.474C464.401 461.93 467.145 461.656 469.673 460.68C474.605 458.798 479.245 456.224 483.454 453.036C487.686 449.938 491.741 446.605 495.601 443.054C499.471 439.515 503.202 435.861 506.793 432.001C506.93 431.853 507.024 431.669 507.063 431.471C507.101 431.272 507.084 431.067 507.012 430.878L507.003 430.855C503.374 421.363 499.599 411.951 495.578 402.629C491.53 393.322 487.33 384.079 482.886 374.949C478.447 365.817 473.647 356.849 468.356 348.164C465.727 343.801 462.821 339.612 459.656 335.622C458.066 333.622 456.324 331.748 454.444 330.017C453.501 329.146 452.478 328.367 451.387 327.69C450.306 326.979 449.098 326.486 447.829 326.236C447.793 326.231 447.757 326.239 447.728 326.26C447.698 326.28 447.678 326.311 447.672 326.347C447.665 326.382 447.672 326.418 447.692 326.448C447.712 326.478 447.743 326.499 447.778 326.506L447.778 326.506Z" fill="#2B2B2B"/>
<path d="M255.523 191.835C253.51 191.162 251.399 190.831 249.277 190.855C247.108 190.847 244.957 191.25 242.938 192.044C240.893 192.909 239.071 194.227 237.608 195.9C236.169 197.582 235.041 199.508 234.277 201.587C232.838 205.683 232.151 210.006 232.247 214.348C232.333 218.593 232.682 222.829 233.291 227.031C234.384 235.367 235.703 243.681 237.481 251.908C239.141 260.163 241.497 268.263 244.523 276.12C243.461 272.057 242.553 267.968 241.799 263.854C240.993 259.749 240.28 255.629 239.585 251.507C238.246 243.255 237.055 234.98 236.012 226.682C235.385 222.589 234.993 218.463 234.838 214.325C234.646 210.266 235.136 206.204 236.285 202.307C236.826 200.395 237.743 198.61 238.982 197.056C240.22 195.502 241.756 194.212 243.499 193.26C247.247 191.493 251.467 190.992 255.523 191.835Z" fill="#2B2B2B"/>
<path d="M389.367 367.602C380.65 369.385 371.946 371.034 363.217 372.481L350.108 374.533C345.739 375.235 341.348 375.816 336.937 376.275C332.522 376.674 328.087 376.8 323.657 376.651C319.237 376.471 314.835 375.992 310.48 375.217C306.157 374.466 301.897 373.391 297.736 372.001C293.61 370.67 289.665 368.83 285.992 366.525L285.941 366.496L285.763 366.409C284.077 365.538 282.495 364.477 281.05 363.245C279.541 361.976 278.108 360.617 276.76 359.178C274.071 356.218 271.676 353.004 269.608 349.581C267.496 346.135 265.598 342.562 263.922 338.884L261.549 333.261C260.837 331.353 260.143 329.433 259.393 327.523L259.39 327.516C259.377 327.484 259.353 327.458 259.322 327.443C259.291 327.428 259.255 327.425 259.222 327.435C259.189 327.445 259.161 327.468 259.143 327.498C259.126 327.528 259.121 327.563 259.128 327.597C259.578 329.597 260.083 331.588 260.572 333.59C261.149 335.563 261.785 337.524 262.437 339.481C263.811 343.393 265.5 347.186 267.488 350.824C269.473 354.512 271.869 357.964 274.629 361.113C275.348 361.883 276.062 362.66 276.809 363.407C277.604 364.11 278.344 364.866 279.194 365.514C280.857 366.947 282.712 368.14 284.705 369.058L284.477 368.942C292.376 373.461 301.179 376.169 310.25 376.869C319.149 377.574 328.082 377.757 337.003 377.419C341.462 377.332 345.92 377.106 350.377 376.739C354.827 376.335 359.245 375.66 363.63 374.826C372.414 373.229 381.049 370.9 389.446 367.865C389.48 367.852 389.508 367.827 389.523 367.793C389.539 367.76 389.54 367.722 389.527 367.688C389.515 367.657 389.492 367.632 389.463 367.616C389.434 367.6 389.4 367.595 389.367 367.602Z" fill="#2B2B2B"/>
<path d="M382.659 272C375.578 271.431 368.497 271.134 361.416 270.932C354.335 270.712 347.254 270.654 340.173 270.627C333.092 270.651 326.011 270.709 318.93 270.927C311.849 271.129 304.768 271.428 297.687 272C304.768 272.571 311.849 272.87 318.93 273.072C326.011 273.29 333.092 273.349 340.173 273.373C347.254 273.345 354.335 273.287 361.416 273.068C368.497 272.866 375.578 272.568 382.659 272Z" fill="#2B2B2B"/>
<path d="M267.883 276.118L271.444 276.057C274.232 278.471 277.687 279.98 281.35 280.385C283.75 280.591 286.167 280.279 288.436 279.47C290.705 278.66 292.774 277.372 294.503 275.693L380.103 274.336C378.131 276.815 376.949 279.831 376.712 282.992C376.712 282.992 378.129 288.544 389.114 275.002C389.114 275.002 393.486 273.269 394.406 275.912C395.315 278.567 394.503 299.528 407.934 296.788C407.934 296.788 410.187 281.852 403.962 273.96L415.047 273.783V275.448C415.047 276.45 415.244 277.443 415.627 278.369C416.011 279.296 416.572 280.137 417.281 280.846C417.989 281.555 418.83 282.118 419.755 282.501C420.68 282.885 421.672 283.082 422.674 283.082H475.676L475.211 291.212C475.211 290.678 475.187 290.375 475.187 290.375H453.483L470.572 307.578H497.168C499.509 307.576 501.756 306.652 503.422 305.005C505.088 303.358 506.039 301.12 506.07 298.777L506.264 283.082H558.733C559.735 283.082 560.726 282.885 561.652 282.501C562.577 282.118 563.418 281.555 564.126 280.846C564.834 280.137 565.396 279.296 565.779 278.369C566.162 277.443 566.36 276.45 566.36 275.448V271.438H587.128L664.614 317.653C627.324 317.326 590.035 317.148 552.745 317.12C515.443 316.986 478.154 317.12 440.864 317.168C403.574 317.18 366.284 317.435 328.983 317.629L273.054 317.98L217.32 318.502L199.444 307.942L181.35 297.322L145.126 276.118L267.883 276.118ZM309.29 302.183L395.593 301.565L390.495 296.206L380.394 284.471H295.666L309.29 302.183Z" fill="#2B2B2B"/>
<path d="M475.671 282.895C470.325 282.71 464.979 282.583 459.633 282.459C454.287 282.332 448.941 282.185 443.595 282.123L427.557 281.876L423.547 281.815C423.223 281.807 422.858 281.811 422.566 281.793C422.288 281.783 422.01 281.754 421.736 281.706C421.189 281.617 420.657 281.456 420.153 281.227C419.152 280.767 418.288 280.054 417.646 279.159C417.003 278.264 416.605 277.216 416.489 276.12L416.652 244.162C416.703 233.459 416.671 222.755 416.556 212.052L416.055 179.943L415.79 163.888C415.724 162.97 415.841 162.047 416.133 161.175C416.426 160.302 416.888 159.496 417.494 158.803C418.1 158.11 418.837 157.545 419.663 157.14C420.489 156.734 421.387 156.497 422.305 156.442C423.576 156.389 424.96 156.403 426.282 156.393C447.666 156.287 469.05 156.487 490.434 156.799C511.819 157.149 533.203 157.387 554.587 157.514L558.596 157.537C559.642 157.529 560.673 157.794 561.586 158.305C562.481 158.815 563.226 159.552 563.747 160.441C564.267 161.331 564.546 162.341 564.553 163.372L564.465 179.409L564.42 211.519L564.607 243.628L564.924 275.685C564.893 276.786 564.574 277.859 563.999 278.798C563.423 279.737 562.612 280.509 561.646 281.036C560.646 281.575 559.523 281.845 558.387 281.82L554.378 281.887L538.34 282.157C527.647 282.347 516.955 282.593 506.263 282.895C506.216 282.896 506.171 282.916 506.138 282.95C506.105 282.984 506.087 283.029 506.087 283.077C506.087 283.124 506.105 283.17 506.138 283.203C506.171 283.237 506.216 283.257 506.263 283.258C516.956 283.561 527.648 283.807 538.34 283.997L554.378 284.266L558.387 284.333C559.937 284.401 561.479 284.074 562.869 283.384C564.284 282.667 565.484 281.586 566.344 280.251C567.204 278.917 567.694 277.377 567.763 275.79L568.109 243.628L568.296 211.519L568.251 179.409L568.155 163.337C568.126 161.679 567.662 160.057 566.809 158.635C565.956 157.213 564.745 156.041 563.296 155.237C561.855 154.451 560.237 154.049 558.596 154.07L554.587 154.093C533.203 154.199 511.819 154.438 490.434 154.808C469.05 155.12 447.666 155.321 426.282 155.214C424.931 155.222 423.64 155.178 422.241 155.206C420.785 155.264 419.372 155.709 418.145 156.496C416.914 157.286 415.912 158.388 415.241 159.689C414.906 160.34 414.655 161.031 414.496 161.746C414.362 162.452 414.295 163.169 414.297 163.888L414.032 179.943L413.532 212.052C413.423 222.755 413.391 233.458 413.435 244.162L413.5 260.217L413.565 268.244L413.601 272.258L413.618 274.264L413.627 275.268C413.629 275.596 413.659 276.04 413.689 276.419C413.872 277.996 414.469 279.496 415.419 280.767C416.369 282.038 417.638 283.034 419.097 283.655C419.821 283.957 420.581 284.162 421.359 284.264C421.745 284.318 422.134 284.346 422.524 284.348C422.9 284.356 423.204 284.341 423.547 284.339L427.557 284.277L443.595 284.031C448.941 283.968 454.287 283.822 459.633 283.695C464.979 283.571 470.325 283.444 475.671 283.259C475.718 283.257 475.763 283.237 475.795 283.203C475.828 283.169 475.847 283.124 475.847 283.077C475.847 283.03 475.828 282.984 475.795 282.95C475.763 282.916 475.718 282.897 475.671 282.895V282.895Z" fill="#2B2B2B"/>
<path d="M477.595 216.921C477.558 220.871 478.887 224.712 481.357 227.793C482.685 229.364 484.353 230.61 486.235 231.437C488.118 232.264 490.164 232.65 492.217 232.565C496.259 232.301 500.042 230.482 502.775 227.489C505.527 224.627 507.184 220.885 507.454 216.921C507.594 214.878 507.302 212.827 506.599 210.904C505.896 208.98 504.797 207.226 503.373 205.755C501.933 204.25 500.212 203.044 498.308 202.203C496.391 201.364 494.319 200.939 492.227 200.956C490.135 200.973 488.07 201.433 486.168 202.304C484.296 203.163 482.644 204.436 481.336 206.029C478.86 209.113 477.537 212.965 477.595 216.921ZM477.87 216.921C477.885 215.042 478.334 213.193 479.182 211.516C480.022 209.891 481.191 208.457 482.614 207.308C485.325 205.093 488.718 203.885 492.217 203.887C495.681 203.9 499.012 205.22 501.547 207.582C504.111 210.048 505.678 213.373 505.951 216.921C506.071 218.747 505.805 220.577 505.168 222.291C504.513 224.02 503.48 225.581 502.145 226.859C500.808 228.072 499.238 229 497.532 229.588C495.825 230.176 494.017 230.41 492.217 230.278C488.694 230.1 485.321 228.796 482.593 226.556C481.169 225.402 480 223.965 479.161 222.335C478.314 220.656 477.872 218.802 477.87 216.921Z" fill="#FDB914"/>
<path d="M426.028 271.996C430.222 272.479 434.414 272.724 438.606 272.884C442.799 273.059 446.99 273.092 451.182 273.098C455.373 273.059 459.564 272.989 463.755 272.778C467.945 272.582 472.136 272.3 476.325 271.778C472.131 271.291 467.939 271.045 463.747 270.886C459.554 270.711 455.363 270.678 451.171 270.675C446.98 270.717 442.789 270.787 438.598 270.999C434.408 271.195 430.217 271.476 426.028 271.996Z" fill="#FDB914"/>
<path d="M506.409 271.644C510.491 272.129 514.573 272.374 518.654 272.535C522.735 272.711 526.816 272.746 530.896 272.753C534.976 272.714 539.056 272.646 543.136 272.436C547.216 272.241 551.295 271.96 555.373 271.438C551.291 270.951 547.209 270.704 543.128 270.544C539.047 270.368 534.966 270.333 530.886 270.329C526.806 270.371 522.725 270.44 518.646 270.65C514.566 270.846 510.487 271.125 506.409 271.644Z" fill="#FDB914"/>
<path d="M455.926 456.297C454.375 449.334 452.502 442.464 450.498 435.635C448.506 428.801 446.316 422.029 444.018 415.29C441.665 408.57 439.225 401.876 436.441 395.305C435.062 392.016 433.596 388.759 431.996 385.56C431.166 383.974 430.342 382.385 429.396 380.858C428.539 379.273 427.398 377.861 426.029 376.691C426.638 377.331 427.151 378.057 427.551 378.845C427.979 379.617 428.368 380.407 428.725 381.217C429.456 382.823 430.125 384.463 430.766 386.111C432.062 389.405 433.246 392.747 434.444 396.082L437.951 406.126L441.425 416.187C443.767 422.888 446.064 429.608 448.469 436.296C450.854 442.991 453.29 449.671 455.926 456.297Z" fill="#2B2B2B"/>
<path d="M433.351 469.123C434.163 463.209 434.704 457.284 435.15 451.355C435.613 445.426 435.916 439.491 436.188 433.555C436.408 427.617 436.594 421.677 436.621 415.731C436.664 409.785 436.61 403.835 436.284 397.875C435.469 403.788 434.926 409.713 434.481 415.642C434.018 421.571 433.715 427.506 433.447 433.442C433.23 439.38 433.044 445.32 433.018 451.267C432.975 457.212 433.028 463.162 433.351 469.123Z" fill="#2B2B2B"/>
<path d="M317.819 146.44C317.286 146.421 316.78 146.196 316.409 145.812C316.037 145.427 315.83 144.914 315.83 144.379C315.83 143.844 316.037 143.33 316.409 142.946C316.78 142.561 317.286 142.336 317.819 142.318C318.353 142.336 318.859 142.561 319.23 142.946C319.601 143.33 319.809 143.844 319.809 144.379C319.809 144.914 319.601 145.427 319.23 145.812C318.859 146.196 318.353 146.421 317.819 146.44Z" fill="#2B2B2B"/>
<path d="M305.591 146.44C305.057 146.421 304.551 146.196 304.18 145.812C303.809 145.427 303.602 144.914 303.602 144.379C303.602 143.844 303.809 143.33 304.18 142.946C304.551 142.561 305.057 142.336 305.591 142.318C306.125 142.336 306.631 142.561 307.002 142.946C307.373 143.33 307.581 143.844 307.581 144.379C307.581 144.914 307.373 145.427 307.002 145.812C306.631 146.196 306.125 146.421 305.591 146.44Z" fill="#2B2B2B"/>
<path d="M302.009 139.68C302.642 139.782 303.28 139.85 303.92 139.884C304.5 139.932 305.041 139.933 305.585 139.945C306.128 139.953 306.67 139.934 307.25 139.903C307.896 139.882 308.539 139.807 309.173 139.68C308.79 139.084 308.238 138.614 307.588 138.331C306.963 138.04 306.282 137.888 305.592 137.885C304.902 137.882 304.22 138.029 303.592 138.316C302.932 138.589 302.377 139.068 302.009 139.68Z" fill="#2B2B2B"/>
<path d="M316.214 139.68C316.749 139.84 317.296 139.953 317.851 140.017C318.313 140.079 318.778 140.11 319.244 140.11C319.706 140.109 320.168 140.078 320.626 140.018C321.183 139.958 321.732 139.845 322.266 139.68C321.97 139.134 321.504 138.699 320.94 138.441C320.412 138.173 319.828 138.039 319.237 138.05C318.649 138.045 318.069 138.181 317.544 138.444C316.977 138.699 316.51 139.133 316.214 139.68Z" fill="#2B2B2B"/>
<path d="M307.568 148.83C307.567 149.158 307.635 149.483 307.766 149.784C307.897 150.084 308.089 150.355 308.329 150.578C308.807 151.044 309.406 151.367 310.059 151.509C310.684 151.642 311.332 151.637 311.956 151.496C312.565 151.356 313.135 151.079 313.62 150.685C313.049 150.561 312.47 150.474 311.887 150.426C311.352 150.329 310.835 150.305 310.36 150.17C309.33 149.968 308.369 149.507 307.568 148.83Z" fill="#2B2B2B"/>
<path d="M315.406 157.179C315.278 156.877 315.089 156.605 314.851 156.38C314.613 156.154 314.331 155.98 314.022 155.869C313.4 155.627 312.723 155.564 312.067 155.689C311.439 155.812 310.845 156.07 310.326 156.444C309.82 156.811 309.404 157.289 309.111 157.842C309.685 157.732 310.252 157.585 310.807 157.402C311.337 157.281 311.822 157.102 312.313 157.039C313.339 156.822 314.404 156.87 315.406 157.179Z" fill="#2B2B2B"/>
<path d="M345.63 376.154V475.956C345.63 475.956 324.88 484.18 312.138 475.956V376.154" fill="#2B2B2B"/>
<path d="M281.457 476.462C281.506 476.973 281.659 477.468 281.906 477.918C282.153 478.368 282.489 478.762 282.894 479.077C283.677 479.739 284.539 480.301 285.46 480.751C287.299 481.653 289.216 482.384 291.189 482.935C295.126 484.062 299.134 484.924 303.186 485.514C311.294 486.739 319.475 487.415 327.673 487.54C335.893 487.726 344.115 487.338 352.281 486.378C356.395 485.879 360.468 485.088 364.469 484.01C366.514 483.454 368.504 482.711 370.413 481.79C371.426 481.302 372.375 480.69 373.238 479.968C373.811 479.58 374.28 479.057 374.604 478.446C374.928 477.835 375.098 477.153 375.098 476.461C375.098 475.769 374.929 475.088 374.605 474.476C374.281 473.865 373.812 473.342 373.24 472.954C372.377 472.232 371.428 471.62 370.414 471.132C368.505 470.211 366.515 469.467 364.47 468.911C360.469 467.83 356.396 467.037 352.282 466.541C344.116 465.578 335.893 465.189 327.673 465.378C319.474 465.503 311.294 466.181 303.186 467.408C299.134 467.998 295.126 468.86 291.189 469.988C289.216 470.539 287.299 471.271 285.46 472.173C284.539 472.623 283.677 473.185 282.894 473.846C282.489 474.161 282.153 474.556 281.906 475.006C281.659 475.455 281.506 475.951 281.457 476.462ZM281.457 476.462C281.51 475.953 281.665 475.459 281.915 475.013C282.165 474.566 282.503 474.175 282.909 473.863C283.695 473.21 284.559 472.656 285.481 472.214C287.323 471.328 289.242 470.612 291.214 470.077C295.16 469.014 299.177 468.234 303.234 467.744C311.343 466.792 319.51 466.409 327.673 466.596C335.814 466.722 343.938 467.395 351.989 468.611C355.984 469.195 359.936 470.044 363.818 471.153C365.718 471.684 367.565 472.387 369.336 473.255C370.165 473.659 370.942 474.163 371.649 474.755C371.959 474.919 372.219 475.165 372.401 475.465C372.582 475.766 372.678 476.111 372.678 476.462C372.679 476.814 372.583 477.158 372.402 477.459C372.22 477.76 371.961 478.006 371.65 478.17C370.943 478.763 370.167 479.267 369.337 479.671C367.566 480.539 365.719 481.242 363.819 481.773C359.937 482.886 355.985 483.736 351.99 484.317C343.939 485.537 335.814 486.21 327.673 486.333C319.509 486.52 311.343 486.135 303.233 485.181C299.177 484.691 295.16 483.911 291.214 482.847C289.242 482.312 287.322 481.596 285.481 480.71C284.559 480.268 283.695 479.714 282.909 479.06C282.503 478.749 282.165 478.358 281.915 477.911C281.665 477.464 281.51 476.971 281.457 476.462Z" fill="#2B2B2B"/>
<path d="M268.61 175.953L285.238 172.498V180.124C285.235 189.965 286.876 199.739 290.095 209.038L293.943 220.147L281.055 243.719C281.055 243.719 254.174 245.785 251.739 245.579C251.739 245.579 246.859 179.008 268.61 175.953ZM283.918 229.115C284.088 227.199 284.221 225.284 284.233 223.356C284.287 221.428 284.153 219.499 283.833 217.597C283.712 219.513 283.47 221.404 283.288 223.308L282.707 228.994C282.368 232.8 282.029 236.607 281.98 240.462C282.926 236.737 283.574 232.943 283.918 229.115ZM277.923 240.281C278.395 240.265 278.841 240.066 279.169 239.727C279.497 239.388 279.681 238.934 279.681 238.462C279.681 237.99 279.497 237.536 279.169 237.197C278.841 236.858 278.395 236.659 277.923 236.644C277.452 236.659 277.005 236.857 276.677 237.197C276.348 237.536 276.165 237.99 276.165 238.462C276.165 238.934 276.348 239.388 276.677 239.727C277.005 240.067 277.452 240.265 277.923 240.281V240.281ZM270.378 241.287C270.849 241.27 271.294 241.071 271.621 240.732C271.949 240.393 272.131 239.94 272.131 239.468C272.131 238.997 271.949 238.544 271.621 238.205C271.294 237.865 270.849 237.667 270.378 237.65C269.907 237.666 269.462 237.865 269.134 238.205C268.807 238.544 268.625 238.997 268.625 239.468C268.625 239.94 268.807 240.393 269.134 240.732C269.462 241.071 269.907 241.27 270.378 241.287V241.287ZM263.305 241.675C263.777 241.659 264.224 241.461 264.551 241.121C264.879 240.782 265.063 240.328 265.063 239.856C265.063 239.384 264.879 238.93 264.551 238.591C264.224 238.252 263.777 238.053 263.305 238.038C262.834 238.053 262.387 238.252 262.059 238.591C261.731 238.93 261.548 239.384 261.548 239.856C261.548 240.328 261.731 240.782 262.059 241.121C262.387 241.461 262.834 241.659 263.305 241.675V241.675ZM256.208 242.281C256.68 242.265 257.127 242.067 257.454 241.728C257.782 241.388 257.966 240.935 257.966 240.462C257.966 239.99 257.782 239.537 257.454 239.197C257.127 238.858 256.68 238.66 256.208 238.644C255.737 238.659 255.29 238.858 254.962 239.197C254.634 239.537 254.451 239.99 254.451 240.462C254.451 240.935 254.634 241.388 254.962 241.728C255.29 242.067 255.737 242.265 256.208 242.281Z" fill="#2B2B2B"/>
<path d="M296.11 168.309C294.218 168.786 292.365 169.403 290.564 170.156C288.773 170.886 287.027 171.622 285.234 172.503C287.223 172.485 289.188 172.069 291.014 171.28C292.859 170.564 294.578 169.561 296.11 168.309Z" fill="#2B2B2B"/>
<path d="M330.313 200.123C328.925 197.64 327.339 195.273 325.571 193.044C323.847 190.781 321.941 188.663 319.874 186.709C321.26 189.194 322.846 191.561 324.616 193.789C326.343 196.049 328.248 198.168 330.313 200.123Z" fill="#2B2B2B"/>
<path d="M500.303 431.743C499.832 431.727 499.386 431.528 499.059 431.189C498.731 430.85 498.548 430.396 498.548 429.925C498.548 429.453 498.731 429 499.059 428.66C499.386 428.321 499.832 428.122 500.303 428.106C500.774 428.122 501.22 428.321 501.548 428.66C501.875 429 502.058 429.453 502.058 429.925C502.058 430.396 501.875 430.85 501.548 431.189C501.22 431.528 500.774 431.727 500.303 431.743Z" fill="#FDB914"/>
<path d="M494.417 438.072C493.946 438.056 493.5 437.857 493.173 437.518C492.845 437.178 492.662 436.725 492.662 436.253C492.662 435.782 492.845 435.328 493.173 434.989C493.5 434.65 493.946 434.451 494.417 434.435C494.888 434.451 495.334 434.65 495.662 434.989C495.989 435.328 496.172 435.782 496.172 436.253C496.172 436.725 495.989 437.178 495.662 437.518C495.334 437.857 494.888 438.056 494.417 438.072Z" fill="#FDB914"/>
<path d="M487.659 444.4C487.188 444.384 486.742 444.185 486.415 443.846C486.087 443.507 485.904 443.054 485.904 442.582C485.904 442.11 486.087 441.657 486.415 441.318C486.742 440.978 487.188 440.78 487.659 440.763C488.13 440.78 488.577 440.978 488.904 441.318C489.231 441.657 489.414 442.11 489.414 442.582C489.414 443.054 489.231 443.507 488.904 443.846C488.577 444.185 488.13 444.384 487.659 444.4Z" fill="#FDB914"/>
<path d="M480.248 450.511C479.777 450.494 479.33 450.295 479.003 449.956C478.676 449.617 478.493 449.164 478.493 448.692C478.493 448.22 478.676 447.767 479.003 447.428C479.33 447.089 479.777 446.89 480.248 446.874C480.719 446.89 481.165 447.089 481.492 447.428C481.819 447.767 482.002 448.22 482.002 448.692C482.002 449.164 481.819 449.617 481.492 449.956C481.165 450.295 480.719 450.494 480.248 450.511Z" fill="#FDB914"/>
<path d="M471.745 455.966C471.274 455.95 470.828 455.751 470.501 455.412C470.173 455.073 469.99 454.619 469.99 454.148C469.99 453.676 470.173 453.223 470.501 452.883C470.828 452.544 471.274 452.345 471.745 452.329C472.216 452.345 472.663 452.544 472.99 452.883C473.317 453.223 473.5 453.676 473.5 454.148C473.5 454.619 473.317 455.073 472.99 455.412C472.663 455.751 472.216 455.95 471.745 455.966Z" fill="#FDB914"/>
<path d="M462.372 457.494C461.901 457.477 461.454 457.279 461.127 456.94C460.8 456.6 460.617 456.147 460.617 455.675C460.617 455.203 460.8 454.75 461.127 454.411C461.454 454.072 461.901 453.873 462.372 453.857C462.843 453.873 463.289 454.072 463.616 454.411C463.944 454.75 464.127 455.203 464.127 455.675C464.127 456.147 463.944 456.6 463.616 456.94C463.289 457.279 462.843 457.477 462.372 457.494Z" fill="#FDB914"/>
<path d="M452.78 453.347C452.309 453.331 451.863 453.132 451.535 452.793C451.208 452.454 451.025 452.001 451.025 451.529C451.025 451.057 451.208 450.604 451.535 450.265C451.863 449.925 452.309 449.727 452.78 449.71C453.251 449.727 453.697 449.925 454.024 450.265C454.352 450.604 454.535 451.057 454.535 451.529C454.535 452.001 454.352 452.454 454.024 452.793C453.697 453.132 453.251 453.331 452.78 453.347Z" fill="#FDB914"/>
<path d="M444.496 455.311C444.025 455.295 443.579 455.096 443.251 454.757C442.924 454.418 442.741 453.965 442.741 453.493C442.741 453.021 442.924 452.568 443.251 452.229C443.579 451.889 444.025 451.691 444.496 451.674C444.967 451.691 445.413 451.889 445.741 452.229C446.068 452.568 446.251 453.021 446.251 453.493C446.251 453.965 446.068 454.418 445.741 454.757C445.413 455.096 444.967 455.295 444.496 455.311Z" fill="#FDB914"/>
<path d="M437.084 459.458C436.613 459.441 436.167 459.243 435.839 458.903C435.512 458.564 435.329 458.111 435.329 457.639C435.329 457.168 435.512 456.714 435.839 456.375C436.167 456.036 436.613 455.837 437.084 455.821C437.555 455.837 438.001 456.036 438.329 456.375C438.656 456.714 438.839 457.168 438.839 457.639C438.839 458.111 438.656 458.564 438.329 458.903C438.001 459.243 437.555 459.441 437.084 459.458Z" fill="#FDB914"/>
<path d="M430.108 467.096C429.637 467.079 429.191 466.881 428.863 466.541C428.536 466.202 428.353 465.749 428.353 465.277C428.353 464.805 428.536 464.352 428.863 464.013C429.191 463.673 429.637 463.475 430.108 463.458C430.579 463.475 431.025 463.673 431.352 464.013C431.68 464.352 431.863 464.805 431.863 465.277C431.863 465.749 431.68 466.202 431.352 466.541C431.025 466.881 430.579 467.079 430.108 467.096Z" fill="#FDB914"/>
<path d="M421.17 465.786C420.699 465.77 420.253 465.571 419.925 465.232C419.598 464.893 419.415 464.439 419.415 463.968C419.415 463.496 419.598 463.043 419.925 462.703C420.253 462.364 420.699 462.165 421.17 462.149C421.641 462.165 422.087 462.364 422.415 462.703C422.742 463.043 422.925 463.496 422.925 463.968C422.925 464.439 422.742 464.893 422.415 465.232C422.087 465.571 421.641 465.77 421.17 465.786Z" fill="#FDB914"/>
<path d="M412.232 463.386C411.761 463.369 411.315 463.171 410.988 462.831C410.66 462.492 410.477 462.039 410.477 461.567C410.477 461.096 410.66 460.642 410.988 460.303C411.315 459.964 411.761 459.765 412.232 459.749C412.703 459.765 413.149 459.964 413.477 460.303C413.804 460.642 413.987 461.096 413.987 461.567C413.987 462.039 413.804 462.492 413.477 462.831C413.149 463.171 412.703 463.369 412.232 463.386Z" fill="#FDB914"/>
<path d="M405.038 460.112C404.567 460.096 404.121 459.897 403.794 459.558C403.466 459.219 403.283 458.766 403.283 458.294C403.283 457.822 403.466 457.369 403.794 457.03C404.121 456.69 404.567 456.492 405.038 456.475C405.509 456.492 405.955 456.69 406.283 457.03C406.61 457.369 406.793 457.822 406.793 458.294C406.793 458.766 406.61 459.219 406.283 459.558C405.955 459.897 405.509 460.096 405.038 460.112Z" fill="#FDB914"/>
<path d="M397.19 454.657C396.719 454.641 396.273 454.442 395.946 454.102C395.618 453.763 395.435 453.31 395.435 452.838C395.435 452.367 395.618 451.913 395.946 451.574C396.273 451.235 396.719 451.036 397.19 451.02C397.661 451.036 398.107 451.235 398.435 451.574C398.762 451.913 398.945 452.367 398.945 452.838C398.945 453.31 398.762 453.763 398.435 454.102C398.107 454.442 397.661 454.641 397.19 454.657Z" fill="#FDB914"/>
<path d="M390.433 448.11C389.962 448.094 389.515 447.895 389.188 447.556C388.861 447.217 388.678 446.763 388.678 446.292C388.678 445.82 388.861 445.367 389.188 445.027C389.515 444.688 389.962 444.489 390.433 444.473C390.904 444.489 391.35 444.688 391.677 445.027C392.005 445.367 392.188 445.82 392.188 446.292C392.188 446.763 392.005 447.217 391.677 447.556C391.35 447.895 390.904 448.094 390.433 448.11Z" fill="#FDB914"/>
<path d="M384.982 441.563C384.512 441.547 384.065 441.348 383.738 441.009C383.41 440.67 383.227 440.217 383.227 439.745C383.227 439.273 383.41 438.82 383.738 438.481C384.065 438.141 384.512 437.943 384.982 437.926C385.453 437.943 385.9 438.141 386.227 438.481C386.554 438.82 386.737 439.273 386.737 439.745C386.737 440.217 386.554 440.67 386.227 441.009C385.9 441.348 385.453 441.547 384.982 441.563Z" fill="#FDB914"/>
<path d="M255.663 245.358C256.366 248.716 257.236 252.037 258.271 255.308C259.285 258.606 260.556 261.82 262.072 264.92C263.581 268.07 265.469 271.023 267.696 273.713C269.963 276.495 272.849 278.71 276.122 280.178C279.501 281.65 283.261 281.999 286.852 281.174C290.425 280.323 293.666 278.43 296.165 275.735L297.102 274.738L297.905 273.705C298.435 273.014 298.992 272.34 299.476 271.619L300.97 269.484L302.366 267.291C304.177 264.346 305.821 261.302 307.29 258.173C310.234 251.949 312.685 245.503 314.62 238.895C316.572 232.314 318.103 225.616 319.204 218.84C320.286 212.062 320.916 205.22 321.091 198.359C321.2 194.913 321.096 191.464 320.782 188.032C320.587 186.312 320.386 184.589 320.021 182.879C319.702 181.105 319.169 179.377 318.434 177.732L318.508 177.896C318.09 176.719 317.572 175.581 316.962 174.492C316.359 173.404 315.662 172.371 314.88 171.404C314.087 170.421 313.19 169.526 312.205 168.736C311.195 167.936 310.088 167.269 308.909 166.752L309.201 166.926C308.211 166.051 307.295 165.096 306.462 164.07C305.644 163.08 304.955 161.989 304.415 160.823C304.171 160.286 303.998 159.719 303.901 159.138C303.847 158.405 303.754 157.676 303.624 156.953L303.407 156.282C303.298 156.034 303.168 155.795 303.018 155.569C302.821 155.281 302.567 155.036 302.271 154.851C301.976 154.665 301.645 154.542 301.3 154.49C300.649 154.412 299.99 154.567 299.442 154.928C299.182 155.091 298.95 155.294 298.752 155.528C298.433 155.885 298.248 156.343 298.229 156.822L300.827 156.749C300.791 156.231 300.69 155.72 300.525 155.227C300.347 154.662 300.048 154.142 299.649 153.704C299.142 153.172 298.451 152.853 297.718 152.812C297.111 152.788 296.507 152.903 295.95 153.146L297.789 154.129C297.715 153.748 297.609 153.374 297.471 153.012C297.312 152.572 297.077 152.165 296.776 151.809C296.538 151.531 296.236 151.316 295.896 151.182C295.484 151.02 295.029 151 294.604 151.124C294.065 151.297 293.585 151.618 293.219 152.05L294.995 151.824C294.546 151.525 294.046 151.309 293.521 151.186C293.172 151.108 292.811 151.098 292.458 151.156C292.004 151.231 291.583 151.443 291.253 151.765C290.782 152.266 290.499 152.913 290.45 153.599C290.427 153.845 290.417 154.092 290.419 154.339L290.442 154.914C290.519 156.423 290.676 157.926 290.913 159.417C291.275 162.563 292.376 165.577 294.127 168.214C294.684 168.95 295.122 169.382 295.616 169.959L297.062 171.596L299.953 174.869L305.771 181.384L305.437 180.188C303.49 191.882 300.181 203.308 295.579 214.231C293.27 219.684 290.615 225.025 287.874 230.317L283.726 238.246L279.457 246.197C279.443 246.223 279.44 246.253 279.447 246.281C279.455 246.31 279.473 246.334 279.498 246.349C279.524 246.364 279.553 246.369 279.582 246.363C279.611 246.357 279.636 246.34 279.652 246.315L279.731 246.197C281.315 243.828 282.917 241.187 284.459 238.664C286.006 236.108 287.558 233.552 289.038 230.954C292.006 225.763 294.906 220.522 297.47 215.073C299.984 209.602 302.142 203.973 303.931 198.223C304.828 195.349 305.641 192.45 306.373 189.526C307.075 186.597 307.701 183.652 308.251 180.69C308.29 180.482 308.282 180.268 308.226 180.063C308.171 179.859 308.07 179.67 307.932 179.511L307.917 179.494L302.147 172.913L299.245 169.639L297.793 168.002C297.338 167.474 296.753 166.863 296.441 166.427C294.997 164.163 294.069 161.609 293.721 158.946C293.48 157.561 293.313 156.164 293.222 154.761L293.193 154.244C293.182 154.102 293.206 154.011 293.202 153.892C293.214 153.7 293.304 153.569 293.179 153.732C293.11 153.796 293.025 153.841 292.933 153.862C292.867 153.862 292.905 153.862 292.954 153.866C293.138 153.914 293.315 153.988 293.478 154.085L293.52 154.112C293.792 154.284 294.116 154.353 294.433 154.306C294.751 154.26 295.042 154.101 295.254 153.859C295.35 153.748 295.514 153.648 295.331 153.735C295.195 153.761 295.056 153.751 294.925 153.706C294.869 153.684 294.816 153.652 294.771 153.611C294.856 153.725 294.923 153.852 294.972 153.985C295.052 154.191 295.117 154.402 295.165 154.617C295.207 154.807 295.289 154.986 295.405 155.142C295.521 155.298 295.669 155.427 295.839 155.522C296.009 155.616 296.197 155.673 296.391 155.689C296.585 155.705 296.78 155.68 296.963 155.615L297.004 155.6C297.178 155.519 297.367 155.472 297.56 155.461C297.663 155.47 297.658 155.456 297.751 155.533C297.887 155.691 297.988 155.877 298.049 156.076C298.141 156.341 298.202 156.616 298.231 156.895L300.828 156.822C300.816 157.203 300.708 157.194 300.744 157.187C300.772 157.155 300.803 157.127 300.839 157.104C300.932 157.039 301.01 157.041 300.96 157.039C300.906 157.042 300.865 156.964 300.941 157.058C300.973 157.101 301.01 157.188 301.054 157.259L301.163 157.582C301.297 158.11 301.289 158.607 301.425 159.542C301.566 160.335 301.811 161.107 302.152 161.837C302.808 163.194 303.642 164.457 304.631 165.593C305.585 166.71 306.63 167.745 307.757 168.686C307.833 168.75 307.918 168.803 308.009 168.843L308.05 168.861C309.052 169.274 309.998 169.813 310.865 170.465C311.747 171.137 312.553 171.903 313.27 172.749C313.998 173.611 314.658 174.527 315.246 175.489C315.832 176.448 316.339 177.454 316.761 178.496C316.782 178.551 316.809 178.609 316.835 178.66C317.532 180.123 318.06 181.659 318.41 183.241C318.801 184.877 319.108 186.533 319.329 188.2C319.75 191.567 319.964 194.956 319.969 198.349C319.953 205.166 319.423 211.972 318.382 218.708C317.276 225.435 315.604 232.055 313.386 238.5C311.207 244.938 308.533 251.198 305.387 257.222C303.827 260.229 302.14 263.157 300.327 266.005L298.947 268.122L297.492 270.179C297.02 270.876 296.484 271.518 295.972 272.18L295.197 273.168L294.376 274.035C292.225 276.414 289.417 278.099 286.307 278.875C283.192 279.622 279.922 279.373 276.955 278.165C273.951 276.866 271.269 274.921 269.101 272.467C266.868 269.967 264.95 267.203 263.389 264.236C261.799 261.242 260.395 258.153 259.183 254.987C257.964 251.811 256.919 248.562 255.929 245.29C255.924 245.273 255.916 245.257 255.904 245.243C255.893 245.229 255.879 245.217 255.863 245.208C255.847 245.2 255.83 245.194 255.812 245.193C255.794 245.191 255.776 245.192 255.759 245.197C255.726 245.208 255.698 245.229 255.68 245.259C255.663 245.289 255.657 245.324 255.663 245.358Z" fill="#2B2B2B"/>
<path d="M495.412 441.872C496.97 448.18 499.866 454.079 503.903 459.167C505.981 461.748 508.508 463.933 511.362 465.615C512.809 466.494 514.164 467.115 515.548 467.942L519.664 470.331C525.125 473.58 530.627 476.813 536.07 480.145C541.537 483.439 546.877 486.944 552.099 490.61L551.94 490.368C552.204 492.159 551.954 493.989 551.218 495.644C550.458 497.25 549.159 498.539 547.547 499.286C547.154 499.49 546.744 499.659 546.322 499.794L545.028 500.142C544.14 500.299 543.244 500.407 542.345 500.466C541.43 500.443 540.524 500.49 539.612 500.414L536.877 500.124L537.176 500.215C531.743 497.347 526.265 494.577 520.74 491.904C515.215 489.218 509.677 486.569 503.925 484.282C502.492 483.705 501.023 483.178 499.531 482.675L498.367 482.341C497.959 482.206 497.539 482.11 497.113 482.055L496.411 481.961L496.063 481.921L495.813 481.91C495.474 481.913 495.134 481.891 494.797 481.847C491.911 481.428 489.141 480.421 486.66 478.887C484.117 477.366 481.852 475.421 479.963 473.137C478.091 470.795 476.651 468.138 475.71 465.29L475.695 465.247L475.683 465.219C475.129 464.157 474.595 463.072 474.095 461.979C473.569 460.904 473.141 459.784 472.817 458.632L472.815 458.622C472.808 458.592 472.789 458.566 472.763 458.549C472.738 458.532 472.706 458.525 472.676 458.53C472.645 458.536 472.618 458.553 472.6 458.578C472.581 458.603 472.573 458.634 472.577 458.664C472.77 459.876 473.09 461.063 473.532 462.207C473.941 463.355 474.379 464.485 474.848 465.614L474.822 465.544C476.342 471.764 480.201 477.157 485.594 480.601C486.929 481.479 488.343 482.229 489.818 482.842C491.313 483.489 492.882 483.947 494.49 484.205C494.911 484.276 495.336 484.319 495.762 484.333L496.086 484.35L496.307 484.394L496.741 484.471C497.074 484.521 497.401 484.604 497.717 484.719L498.757 485.037C500.16 485.54 501.568 486.072 502.968 486.665C505.771 487.824 508.576 489.034 511.358 490.292C514.148 491.537 516.942 492.781 519.719 494.067L536.349 501.863L536.421 501.897C536.493 501.931 536.57 501.95 536.649 501.955L539.545 502.111C540.511 502.134 541.491 502.032 542.458 501.996C543.432 501.876 544.398 501.702 545.351 501.472L546.763 501.009C547.229 500.833 547.681 500.619 548.112 500.368C549.898 499.424 551.3 497.886 552.075 496.018C552.816 494.18 553.031 492.172 552.696 490.218C552.689 490.17 552.672 490.125 552.646 490.084C552.62 490.043 552.586 490.009 552.546 489.982L552.537 489.975C547.236 486.406 541.98 482.774 536.767 479.078C531.52 475.428 526.283 471.744 520.768 468.467C518.068 466.786 515.11 465.303 512.37 463.809C509.677 462.303 507.26 460.348 505.223 458.029C503.138 455.679 501.304 453.117 499.752 450.385C498.149 447.643 496.776 444.774 495.645 441.805L495.642 441.798C495.631 441.769 495.609 441.745 495.581 441.732C495.553 441.719 495.522 441.716 495.492 441.726C495.463 441.735 495.438 441.756 495.423 441.783C495.408 441.81 495.404 441.842 495.412 441.872L495.412 441.872Z" fill="#2B2B2B"/>
<path d="M552.318 490.293C552.318 490.293 561.576 504.764 542.036 510.898C542.036 510.898 530.534 513.95 512.024 495.38C512.024 495.38 503.571 487.3 501.298 487.596L504.059 495.098L494.124 498.524L482.068 492.956L476.058 467.76C477.867 471.779 480.643 475.287 484.137 477.97C487.632 480.653 491.735 482.428 496.082 483.136C511.411 485.947 523.368 495.292 536.763 501.039C536.763 501.039 554.058 504.079 552.318 490.293Z" fill="#2B2B2B"/>
<path d="M540.01 481.979C540.01 481.979 528.351 482.83 526.395 495.936L515.273 490.663C515.273 490.663 517.324 474.595 531.539 476.441C531.539 476.441 536.286 475.626 540.01 481.979Z" fill="#2B2B2B"/>
<path d="M419.436 457.026C417.7 463.286 417.324 469.847 418.334 476.265C418.88 479.534 420.008 482.678 421.666 485.546C422.536 486.999 423.373 488.232 424.177 489.63L426.579 493.74C429.74 499.257 432.945 504.78 436.048 510.36C439.184 515.924 442.139 521.592 444.848 527.373L444.828 527.068C444.183 528.758 443.077 530.234 441.636 531.327C440.188 532.365 438.419 532.853 436.644 532.705C434.853 532.539 433.114 532.01 431.533 531.15C429.915 530.292 428.378 529.289 426.94 528.155L427.157 528.383C422.718 521.471 418.105 514.686 413.376 507.962C410.994 504.611 408.565 501.293 405.969 498.07C404.665 496.416 403.265 494.84 401.776 493.351C401.335 492.92 400.848 492.54 400.324 492.216C399.93 491.999 399.552 491.755 399.192 491.487C398.436 490.904 397.733 490.256 397.092 489.549C394.466 486.588 392.56 483.06 391.522 479.24C390.435 475.367 390.203 471.304 390.844 467.332C392.11 459.206 393.112 451.074 394.108 442.928C394.112 442.897 394.103 442.865 394.084 442.839C394.064 442.814 394.036 442.798 394.004 442.793C393.972 442.789 393.94 442.797 393.915 442.816C393.889 442.836 393.872 442.864 393.868 442.896C392.596 450.994 391.414 459.123 389.944 467.17C388.98 471.274 388.946 475.543 389.843 479.662C390.769 483.841 392.677 487.74 395.407 491.035C396.112 491.875 396.89 492.65 397.733 493.351C398.18 493.714 398.652 494.044 399.147 494.338C399.483 494.571 399.796 494.835 400.083 495.127C401.464 496.565 402.761 498.082 403.967 499.67C406.476 502.862 408.899 506.156 411.327 509.444C416.183 516.025 420.891 522.733 425.623 529.414L425.65 529.451C425.702 529.525 425.767 529.589 425.841 529.642C427.42 530.771 429.107 531.743 430.876 532.543C432.674 533.38 434.619 533.851 436.6 533.93C438.627 533.994 440.611 533.338 442.202 532.078C443.749 530.835 444.925 529.19 445.6 527.323C445.617 527.273 445.624 527.22 445.621 527.168C445.617 527.115 445.603 527.064 445.58 527.017C442.678 521.319 439.902 515.566 437.176 509.777C434.399 504.015 431.649 498.23 428.456 492.661C426.925 489.871 425.088 487.118 423.381 484.503C421.792 481.852 420.661 478.953 420.034 475.926C419.353 472.856 419.016 469.72 419.028 466.575C418.98 463.399 419.196 460.223 419.672 457.082L419.673 457.075C419.677 457.044 419.67 457.013 419.652 456.988C419.635 456.962 419.608 456.945 419.578 456.938C419.548 456.932 419.516 456.938 419.49 456.954C419.463 456.97 419.444 456.996 419.436 457.026L419.436 457.026Z" fill="#2B2B2B"/>
<path d="M445.214 527.195C445.214 527.195 446.169 544.352 426.141 540.079C426.141 540.079 414.626 537.077 407.626 511.796C407.626 511.796 404.233 500.6 402.107 499.74L400.828 507.632L390.494 505.726L382.73 494.944L389.869 470.046C389.471 474.436 390.165 478.857 391.891 482.913C393.616 486.969 396.318 490.534 399.756 493.289C411.724 503.28 417.548 517.302 426.39 528.898C426.39 528.898 439.959 540.056 445.214 527.195Z" fill="#2B2B2B"/>
<path d="M438.579 513.898C438.579 513.898 428.008 508.902 419.868 519.353L412.772 509.287C412.772 509.287 422.448 496.304 433.921 504.907C433.921 504.907 438.455 506.533 438.579 513.898Z" fill="#2B2B2B"/>
<path d="M471.886 305.612C471.854 305.647 471.824 305.685 471.797 305.725L471.79 305.735L471.779 305.747L470.34 307.384C470.303 307.426 470.278 307.477 470.269 307.533C470.26 307.588 470.267 307.645 470.288 307.697C470.31 307.748 470.346 307.793 470.391 307.826C470.437 307.858 470.491 307.877 470.547 307.88L470.572 307.882C477.403 308.286 484.233 308.533 491.063 308.663L496.186 308.752C497.109 308.793 498.034 308.746 498.949 308.609C500.389 308.365 501.759 307.806 502.959 306.973C504.16 306.139 505.163 305.051 505.896 303.786C506.857 302.113 507.318 300.2 507.225 298.273C507.125 291.434 506.869 284.593 506.804 277.754C506.774 270.916 506.919 264.08 507.239 257.246C507.31 256.352 507.294 255.454 507.191 254.563C507.073 253.64 506.82 252.74 506.441 251.89C505.682 250.156 504.438 248.677 502.86 247.633C501.259 246.574 499.388 245.995 497.47 245.967L492.347 245.871L487.224 245.805C484.277 245.771 481.431 246.883 479.286 248.907C477.141 250.932 475.865 253.71 475.727 256.658C474.927 270.309 474.43 283.977 474.236 297.663L474.235 297.709L474.236 297.74C474.276 298.403 474.239 299.068 474.127 299.722C474.016 300.407 473.855 301.082 473.645 301.743C473.201 303.082 472.616 304.37 471.9 305.586C471.891 305.601 471.884 305.618 471.882 305.636C471.879 305.654 471.88 305.672 471.884 305.69C471.888 305.707 471.896 305.724 471.906 305.738C471.917 305.753 471.93 305.765 471.946 305.775C471.975 305.792 472.009 305.798 472.043 305.792C472.076 305.785 472.106 305.767 472.127 305.74C472.568 305.167 472.979 304.571 473.358 303.956C473.734 303.33 474.069 302.681 474.362 302.013C474.654 301.336 474.898 300.638 475.089 299.926C475.296 299.186 475.412 298.424 475.435 297.656L475.435 297.732C476.815 284.115 477.886 270.479 478.647 256.825C478.714 255.35 479.138 253.914 479.882 252.639C480.638 251.368 481.707 250.312 482.987 249.574C484.277 248.83 485.736 248.428 487.224 248.407L492.347 248.341L497.47 248.245C499.001 248.191 500.517 248.571 501.842 249.342C503.168 250.112 504.249 251.242 504.961 252.6C505.33 253.289 505.592 254.031 505.738 254.799C505.877 255.602 505.938 256.416 505.918 257.23C506.078 264.07 506.057 270.907 505.855 277.743C505.622 284.578 505.196 291.41 504.927 298.244C504.946 299.755 504.552 301.243 503.789 302.546C503.026 303.818 501.926 304.852 500.61 305.534C499.956 305.876 499.254 306.119 498.528 306.254C497.754 306.38 496.97 306.431 496.186 306.405L491.063 306.494C484.233 306.624 477.403 306.87 470.572 307.275L470.805 307.773L472.03 305.918L472.012 305.94C472.059 305.866 472.103 305.789 472.141 305.714C472.156 305.686 472.159 305.653 472.152 305.622C472.144 305.591 472.125 305.564 472.099 305.546C472.073 305.528 472.041 305.52 472.009 305.524C471.978 305.528 471.948 305.543 471.927 305.566L471.886 305.612Z" fill="#2B2B2B"/>
<path d="M438.625 338.621C438.073 339.503 437.65 340.459 437.369 341.46C437.092 342.412 436.9 343.386 436.796 344.372C436.688 345.357 436.67 346.35 436.741 347.338C436.804 348.377 437.018 349.401 437.375 350.379C437.93 349.498 438.354 348.542 438.634 347.54C438.912 346.589 439.102 345.614 439.204 344.628C439.309 343.643 439.327 342.65 439.256 341.661C439.192 340.623 438.98 339.599 438.625 338.621Z" fill="white"/>
</svg>
