<svg width="662" height="533" viewBox="0 0 662 533" fill="none" xmlns="http://www.w3.org/2000/svg">
<path d="M662 328.148H7.45703V334.116H662V328.148Z" fill="#2B2B2B"/>
<path d="M467.643 255.322C468.929 255.655 470.257 255.798 471.584 255.744C471.584 255.744 470.986 253.984 470.933 253.808C470.317 252.54 468.382 250.428 466.816 250.639C466.554 250.679 466.303 250.774 466.081 250.918C465.858 251.063 465.669 251.253 465.526 251.476C465.383 251.699 465.289 251.95 465.25 252.213C465.212 252.475 465.23 252.743 465.303 252.998C465.501 253.532 465.813 254.016 466.217 254.418C466.621 254.819 467.108 255.127 467.643 255.322Z" fill="#2B2B2B"/>
<path d="M504.154 245.763C502.57 245.587 500.635 247.752 500.124 249.037C500.124 249.16 499.491 250.991 499.526 250.991L498.558 252.118C497.942 252.875 497.256 253.737 496.57 254.723C495.817 255.787 495.123 256.891 494.494 258.033C493.792 259.305 493.204 260.636 492.734 262.011C492.734 261.536 492.734 260.251 492.734 260.145C492.541 258.737 491.362 256.114 489.813 255.832C489.553 255.793 489.287 255.808 489.032 255.876C488.778 255.945 488.541 256.066 488.335 256.232C488.13 256.397 487.962 256.604 487.84 256.838C487.719 257.072 487.648 257.329 487.632 257.593C487.655 258.163 487.802 258.722 488.064 259.23C488.325 259.737 488.694 260.182 489.145 260.532C490.231 261.249 491.416 261.801 492.664 262.17C492.223 263.583 491.876 265.023 491.626 266.482C491.467 267.327 491.344 268.243 491.239 269.053C491.239 268.648 491.239 268.296 491.239 268.243C491.045 266.834 489.866 264.229 488.318 263.947C488.057 263.905 487.79 263.918 487.534 263.986C487.279 264.054 487.04 264.174 486.834 264.34C486.628 264.507 486.46 264.714 486.34 264.95C486.219 265.185 486.15 265.444 486.136 265.708C486.161 266.278 486.309 266.837 486.57 267.344C486.831 267.852 487.199 268.296 487.649 268.648C488.736 269.353 489.922 269.893 491.168 270.25C491.168 270.566 491.08 270.901 491.045 271.235C490.852 272.837 490.676 274.422 490.447 275.971C490.359 276.534 490.271 277.062 490.165 277.608C490.18 277.374 490.18 277.138 490.165 276.904C489.989 275.496 488.811 272.873 487.245 272.591C486.984 272.548 486.718 272.561 486.464 272.629C486.209 272.697 485.972 272.818 485.767 272.985C485.563 273.151 485.396 273.359 485.277 273.594C485.159 273.83 485.092 274.088 485.08 274.351C485.104 274.922 485.251 275.481 485.512 275.988C485.774 276.496 486.143 276.941 486.594 277.291C487.619 277.985 488.747 278.514 489.937 278.858C489.831 279.404 489.708 279.949 489.567 280.477C489.426 281.006 489.391 281.182 489.286 281.534C489.18 281.886 489.057 282.238 488.934 282.59C488.705 283.241 488.459 283.928 488.212 284.561L487.702 285.829C487.79 285.283 487.931 284.227 487.931 284.069C487.923 282.83 487.589 281.616 486.963 280.548C486.972 280.407 486.972 280.266 486.963 280.125C486.931 279.865 486.844 279.614 486.708 279.389C486.572 279.164 486.39 278.971 486.174 278.821C485.958 278.671 485.713 278.569 485.455 278.521C485.196 278.473 484.931 278.479 484.676 278.541C483.145 278.946 482.159 281.639 482.089 283.048C482.089 283.136 482.089 284.051 482.177 284.614C482.177 284.297 482.036 283.963 481.948 283.628C481.79 282.942 481.614 282.273 481.421 281.551L481.104 280.495C480.998 280.143 480.857 279.791 480.734 279.421C480.435 278.594 480.083 277.766 479.714 276.939C480.948 276.685 482.136 276.239 483.233 275.619C483.712 275.305 484.118 274.89 484.422 274.404C484.726 273.918 484.92 273.371 484.992 272.802C485.001 272.538 484.953 272.275 484.853 272.031C484.753 271.786 484.603 271.565 484.412 271.383C484.221 271.2 483.994 271.06 483.745 270.971C483.497 270.882 483.232 270.846 482.969 270.866C481.385 271.042 480.013 273.559 479.731 274.95C479.731 275.038 479.608 276.059 479.573 276.605C479.344 276.112 479.133 275.619 478.887 275.126C478.183 273.718 477.426 272.292 476.67 270.883L475.984 269.581C477.269 269.311 478.508 268.855 479.661 268.225C480.143 267.909 480.55 267.492 480.854 267.002C481.158 266.513 481.351 265.963 481.421 265.391C481.426 265.127 481.377 264.864 481.274 264.621C481.172 264.377 481.02 264.157 480.828 263.976C480.635 263.795 480.407 263.657 480.157 263.57C479.908 263.483 479.643 263.45 479.379 263.472C477.814 263.648 476.441 266.166 476.16 267.556C476.16 267.662 476.001 269.123 475.984 269.493C475.491 268.542 474.998 267.574 474.558 266.623C473.951 265.322 473.434 263.981 473.01 262.61C474.303 262.347 475.549 261.89 476.705 261.254C477.183 260.935 477.588 260.517 477.892 260.028C478.195 259.539 478.39 258.991 478.465 258.42C478.47 258.156 478.421 257.893 478.318 257.649C478.216 257.406 478.064 257.186 477.872 257.005C477.679 256.824 477.451 256.686 477.201 256.599C476.952 256.512 476.687 256.479 476.423 256.501C474.858 256.677 473.485 259.194 473.186 260.585C473.186 260.691 473.028 262.345 473.028 262.557L472.94 262.31C472.547 260.929 472.281 259.515 472.148 258.085C472.06 257.293 472.007 256.536 471.989 255.797C473.274 255.685 474.533 255.37 475.72 254.864C476.224 254.6 476.665 254.23 477.014 253.781C477.363 253.332 477.612 252.812 477.743 252.259C477.777 252 477.758 251.738 477.687 251.488C477.616 251.237 477.494 251.004 477.329 250.803C477.164 250.601 476.96 250.436 476.728 250.317C476.497 250.198 476.243 250.128 475.984 250.111C474.4 250.111 472.764 252.47 472.324 253.808L472.025 255.216C472.025 254.882 472.025 254.547 472.025 254.23C472.025 253.016 472.025 251.924 472.165 250.956C472.165 250.393 472.271 249.9 472.324 249.424C473.405 248.733 474.372 247.878 475.192 246.889C475.521 246.422 475.743 245.888 475.844 245.326C475.944 244.763 475.92 244.185 475.772 243.633C475.685 243.383 475.546 243.155 475.364 242.964C475.182 242.772 474.961 242.622 474.717 242.522C474.472 242.422 474.21 242.375 473.946 242.385C473.682 242.394 473.423 242.459 473.186 242.576C471.778 243.298 471.426 246.097 471.638 247.541C471.638 247.664 472.201 249.512 472.218 249.512C472.218 249.97 472.095 250.445 472.025 250.973C472.025 251.942 471.831 253.051 471.813 254.248C471.766 255.551 471.795 256.856 471.902 258.156C472.012 259.606 472.253 261.044 472.623 262.451C472.377 262.046 471.638 260.972 471.567 260.902C470.635 259.828 468.224 258.297 466.764 258.93C466.523 259.038 466.308 259.194 466.132 259.391C465.957 259.587 465.825 259.819 465.745 260.07C465.665 260.321 465.639 260.586 465.669 260.848C465.699 261.11 465.785 261.362 465.919 261.589C466.253 262.052 466.684 262.438 467.183 262.718C467.681 262.997 468.235 263.165 468.805 263.208C470.118 263.202 471.422 263 472.676 262.61C473.08 264.032 473.58 265.426 474.171 266.782C474.523 267.574 474.893 268.366 475.28 269.141C475.051 268.806 474.84 268.524 474.805 268.489C473.872 267.415 471.462 265.884 470.001 266.5C469.76 266.609 469.545 266.768 469.369 266.966C469.193 267.164 469.061 267.397 468.981 267.649C468.902 267.902 468.876 268.168 468.906 268.431C468.937 268.694 469.022 268.948 469.157 269.176C469.492 269.639 469.923 270.024 470.421 270.303C470.92 270.583 471.473 270.751 472.042 270.795C473.32 270.796 474.59 270.6 475.808 270.214C475.948 270.514 476.089 270.813 476.248 271.112C476.969 272.556 477.69 273.982 478.359 275.408C478.588 275.9 478.799 276.411 479.028 276.904L478.623 276.323C477.69 275.267 475.262 273.735 473.802 274.351C473.562 274.462 473.348 274.622 473.175 274.821C473.001 275.019 472.871 275.253 472.793 275.505C472.715 275.757 472.69 276.023 472.722 276.285C472.753 276.548 472.839 276.8 472.975 277.027C473.31 277.49 473.741 277.875 474.24 278.154C474.738 278.434 475.291 278.602 475.86 278.647C477.095 278.646 478.322 278.462 479.503 278.101C479.714 278.611 479.925 279.14 480.101 279.65C480.277 280.161 480.347 280.337 480.435 280.689C480.523 281.041 480.629 281.41 480.734 281.762C480.893 282.431 481.069 283.136 481.209 283.804C481.35 284.473 481.403 284.702 481.491 285.142L480.752 283.593C479.995 282.396 477.831 280.513 476.283 280.918C476.029 280.987 475.793 281.11 475.591 281.278C475.389 281.446 475.225 281.656 475.11 281.892C474.995 282.129 474.932 282.387 474.925 282.65C474.917 282.913 474.967 283.175 475.069 283.417C475.322 283.928 475.685 284.376 476.133 284.729C476.58 285.082 477.1 285.331 477.655 285.459C478.944 285.658 480.255 285.658 481.544 285.459C481.702 286.199 481.843 286.903 481.948 287.589C482.371 289.948 482.635 291.92 482.793 293.311C482.793 293.557 482.793 293.786 482.793 293.979H478.007L479.767 328.043H487.896L489.655 293.979H485.204L485.309 293.786C485.925 292.518 486.769 290.688 487.684 288.505L488.564 286.269C489.839 286.554 491.149 286.655 492.453 286.568C493.008 286.482 493.538 286.281 494.011 285.978C494.484 285.675 494.888 285.276 495.198 284.808C495.312 284.572 495.376 284.314 495.385 284.052C495.394 283.789 495.349 283.528 495.251 283.284C495.153 283.041 495.006 282.82 494.818 282.637C494.63 282.454 494.405 282.312 494.159 282.22C492.646 281.71 490.359 283.417 489.514 284.561C489.514 284.561 489.004 285.424 488.723 285.917L489.092 284.949C489.321 284.297 489.55 283.646 489.778 282.924L490.095 281.886C490.207 281.521 490.301 281.151 490.377 280.777C490.588 279.914 490.746 279.016 490.904 278.154C492.08 278.623 493.32 278.908 494.582 278.999C495.153 278.998 495.717 278.872 496.234 278.628C496.751 278.385 497.208 278.031 497.573 277.59C497.724 277.374 497.828 277.128 497.879 276.869C497.929 276.609 497.924 276.342 497.864 276.085C497.804 275.828 497.691 275.586 497.532 275.375C497.372 275.164 497.171 274.989 496.94 274.862C495.532 274.14 492.998 275.478 491.995 276.481C491.995 276.481 491.291 277.344 490.957 277.784C490.957 277.256 491.116 276.71 491.186 276.164C491.379 274.598 491.538 272.996 491.696 271.411C491.696 270.919 491.784 270.426 491.837 269.933C493.055 270.43 494.343 270.733 495.655 270.831C496.225 270.83 496.787 270.705 497.304 270.465C497.82 270.225 498.278 269.875 498.646 269.44C498.798 269.223 498.902 268.977 498.952 268.718C499.002 268.459 498.997 268.192 498.937 267.934C498.878 267.677 498.764 267.435 498.605 267.224C498.446 267.014 498.244 266.839 498.013 266.711C496.605 265.972 494.072 267.327 493.069 268.313C493.069 268.313 492.066 269.545 491.855 269.845C491.96 268.771 492.083 267.715 492.259 266.658C492.46 265.241 492.766 263.841 493.174 262.469C494.395 262.958 495.682 263.261 496.992 263.367C497.562 263.366 498.125 263.241 498.641 263.001C499.158 262.761 499.616 262.411 499.984 261.976C500.135 261.759 500.239 261.513 500.289 261.254C500.339 260.995 500.334 260.728 500.274 260.47C500.215 260.213 500.102 259.971 499.942 259.76C499.783 259.55 499.581 259.375 499.35 259.247C497.942 258.508 495.409 259.863 494.406 260.849C494.406 260.937 493.35 262.169 493.174 262.416C493.18 262.334 493.18 262.252 493.174 262.17C493.612 260.799 494.165 259.468 494.828 258.191C495.198 257.487 495.585 256.836 495.972 256.202C497.107 256.813 498.33 257.247 499.596 257.487C500.165 257.546 500.74 257.48 501.281 257.295C501.821 257.11 502.315 256.809 502.728 256.413C502.9 256.213 503.028 255.98 503.104 255.728C503.18 255.476 503.204 255.21 503.172 254.949C503.141 254.687 503.055 254.435 502.921 254.208C502.787 253.982 502.608 253.785 502.394 253.632C501.074 252.769 498.418 253.825 497.309 254.705C497.309 254.705 496.676 255.304 496.288 255.709L496.816 254.882C497.485 253.878 498.154 252.998 498.752 252.223L499.72 251.044C501 251.066 502.277 250.888 503.503 250.516C504.035 250.307 504.515 249.984 504.91 249.571C505.305 249.157 505.605 248.663 505.79 248.122C505.86 247.858 505.872 247.582 505.825 247.313C505.778 247.044 505.673 246.788 505.517 246.563C505.362 246.339 505.159 246.151 504.923 246.013C504.688 245.875 504.425 245.789 504.154 245.763ZM486.682 288.188C485.714 290.371 484.922 292.166 484.218 293.469C484.077 293.715 483.972 293.944 483.866 294.138H483.761C483.761 293.915 483.726 293.651 483.655 293.346C483.462 291.937 483.162 289.948 482.687 287.572C482.547 286.832 482.371 286.023 482.177 285.213C482.923 284.914 483.652 284.573 484.359 284.192C485.313 285.01 486.372 285.697 487.508 286.234L486.682 288.188Z" fill="#2B2B2B"/>
<path d="M495.831 255.867C495.831 255.867 496.341 254.001 496.359 253.878C496.552 252.487 496.112 249.653 494.599 248.967C494.36 248.857 494.099 248.799 493.836 248.798C493.572 248.796 493.312 248.85 493.071 248.957C492.83 249.063 492.614 249.219 492.438 249.415C492.261 249.611 492.128 249.842 492.048 250.093C491.918 250.65 491.913 251.229 492.031 251.789C492.15 252.349 492.39 252.876 492.734 253.332C493.64 254.321 494.683 255.174 495.831 255.867Z" fill="#2B2B2B"/>
<path d="M89.9602 258.842C91.1821 259.166 92.4448 259.308 93.708 259.265C93.708 259.265 93.1273 257.505 93.0745 257.417C92.4939 256.202 90.664 254.195 89.1684 254.406C88.9186 254.442 88.6793 254.53 88.4668 254.666C88.2543 254.802 88.0734 254.982 87.9366 255.194C87.7998 255.406 87.7101 255.645 87.6737 255.895C87.6373 256.145 87.655 256.4 87.7256 256.642C87.9192 257.147 88.2188 257.605 88.6043 257.985C88.9898 258.364 89.4521 258.657 89.9602 258.842Z" fill="#2B2B2B"/>
<path d="M124.711 249.812C123.215 249.653 121.421 251.695 120.875 252.928C120.875 253.051 120.277 254.794 120.312 254.794C120.013 255.11 119.714 255.462 119.397 255.85C118.817 256.572 118.148 257.399 117.497 258.332C116.846 259.265 116.16 260.321 115.526 261.465C114.827 262.678 114.238 263.95 113.767 265.268C113.767 264.828 113.767 263.595 113.767 263.507C113.591 262.17 112.465 259.687 110.987 259.423C110.732 259.379 110.471 259.392 110.221 259.461C109.972 259.529 109.741 259.652 109.544 259.82C109.348 259.988 109.191 260.197 109.084 260.433C108.978 260.669 108.924 260.925 108.928 261.184C108.944 261.727 109.081 262.259 109.327 262.743C109.573 263.227 109.924 263.65 110.353 263.983C111.395 264.667 112.534 265.189 113.732 265.532C113.319 266.877 112.989 268.247 112.746 269.634C112.605 270.443 112.482 271.271 112.377 272.08C112.377 271.693 112.377 271.359 112.377 271.306C112.201 269.968 111.075 267.486 109.597 267.222C109.349 267.179 109.095 267.19 108.852 267.253C108.609 267.317 108.382 267.431 108.187 267.59C107.992 267.748 107.833 267.947 107.721 268.172C107.609 268.397 107.547 268.643 107.538 268.894C107.559 269.436 107.697 269.967 107.944 270.45C108.19 270.933 108.538 271.357 108.963 271.693C109.972 272.37 111.083 272.882 112.254 273.207C112.254 273.524 112.254 273.841 112.13 274.158C111.954 275.672 111.778 277.186 111.567 278.664L111.303 280.213C111.303 279.861 111.303 279.58 111.303 279.544C111.127 278.207 110.001 275.724 108.523 275.443C108.269 275.399 108.007 275.411 107.758 275.48C107.509 275.549 107.277 275.671 107.081 275.839C106.884 276.007 106.727 276.217 106.621 276.452C106.514 276.688 106.461 276.944 106.465 277.203C106.484 277.743 106.621 278.272 106.867 278.753C107.114 279.234 107.463 279.654 107.89 279.985C108.87 280.641 109.944 281.146 111.075 281.481C110.969 281.991 110.864 282.519 110.723 283.012C110.648 283.352 110.554 283.687 110.441 284.016L110.125 285.019C109.896 285.635 109.667 286.287 109.438 286.885C109.21 287.484 109.104 287.713 108.946 288.1C109.034 287.589 109.174 286.568 109.174 286.48C109.156 285.298 108.835 284.141 108.242 283.118C108.251 282.983 108.251 282.848 108.242 282.713C108.215 282.461 108.134 282.218 108.004 282C107.874 281.782 107.699 281.595 107.49 281.451C107.281 281.307 107.043 281.21 106.794 281.167C106.544 281.123 106.288 281.134 106.042 281.199C104.6 281.586 103.667 284.157 103.597 285.495C103.597 285.583 103.597 286.445 103.597 286.991L103.386 286.04C103.227 285.389 103.051 284.755 102.875 284.069C102.77 283.734 102.664 283.4 102.576 283.065C102.488 282.731 102.33 282.379 102.224 282.044C101.925 281.252 101.591 280.46 101.257 279.685C102.434 279.434 103.567 279.007 104.617 278.418C105.065 278.115 105.443 277.719 105.726 277.257C106.008 276.796 106.188 276.279 106.254 275.742C106.255 275.495 106.204 275.251 106.105 275.025C106.006 274.799 105.86 274.597 105.678 274.431C105.495 274.265 105.28 274.139 105.046 274.062C104.811 273.984 104.564 273.957 104.318 273.982C102.823 274.14 101.52 276.534 101.239 277.854C101.239 277.942 101.133 278.911 101.098 279.439C100.887 278.981 100.676 278.506 100.447 278.031C99.7785 276.675 99.0571 275.337 98.3357 273.982L97.6847 272.749C98.9151 272.499 100.101 272.066 101.204 271.464C101.654 271.159 102.033 270.761 102.315 270.296C102.598 269.831 102.777 269.311 102.84 268.771C102.841 268.524 102.791 268.28 102.691 268.054C102.592 267.828 102.447 267.626 102.264 267.46C102.082 267.294 101.866 267.168 101.632 267.09C101.398 267.013 101.15 266.986 100.905 267.011C99.409 267.187 98.107 269.581 97.8255 270.901C97.8255 270.989 97.6847 272.397 97.6671 272.749C97.192 271.834 96.7345 270.989 96.3123 270.003C95.7436 268.767 95.2501 267.497 94.8343 266.201C96.0661 265.946 97.2525 265.507 98.3533 264.898C98.8038 264.598 99.1836 264.203 99.4661 263.741C99.7487 263.279 99.9273 262.76 99.9897 262.222C99.9909 261.976 99.9403 261.731 99.8411 261.505C99.7418 261.279 99.5963 261.077 99.4138 260.911C99.2312 260.745 99.0159 260.619 98.7817 260.542C98.5475 260.465 98.2996 260.437 98.0542 260.462C96.5586 260.62 95.2565 263.014 94.9926 264.335C94.9926 264.44 94.8343 265.937 94.8167 266.218V265.99C94.4439 264.677 94.1907 263.334 94.0601 261.976C94.0601 261.219 93.9369 260.497 93.9017 259.793C95.1131 259.683 96.3001 259.386 97.4208 258.913C97.9033 258.661 98.325 258.307 98.6564 257.875C98.9877 257.444 99.2205 256.944 99.3386 256.413C99.3769 256.161 99.3599 255.903 99.2888 255.658C99.2177 255.413 99.0942 255.186 98.9268 254.994C98.7594 254.801 98.5522 254.647 98.3195 254.543C98.0868 254.438 97.8342 254.386 97.5791 254.389C96.0659 254.389 94.4999 256.624 94.0601 257.909C94.0601 257.909 93.8841 258.702 93.7785 259.247C93.7785 258.93 93.7785 258.596 93.7785 258.297C93.7785 257.152 93.7785 256.114 93.9193 255.181C93.9193 254.653 94.0249 254.177 94.0777 253.737C95.1012 253.08 96.0155 252.266 96.7873 251.326C97.1045 250.883 97.3195 250.376 97.4169 249.84C97.5143 249.304 97.4916 248.753 97.3504 248.227C97.2689 247.991 97.1379 247.774 96.9662 247.592C96.7944 247.41 96.5859 247.267 96.3544 247.172C96.123 247.077 95.8739 247.033 95.6239 247.042C95.3739 247.05 95.1287 247.113 94.9046 247.224C93.5498 247.91 93.1451 250.621 93.4266 251.942C93.4266 252.065 93.9545 253.825 93.9721 253.808C93.9721 254.23 93.8489 254.688 93.7961 255.198C93.7961 256.114 93.6026 257.17 93.585 258.314C93.5077 259.545 93.5077 260.78 93.585 262.011C93.682 263.391 93.9118 264.759 94.2712 266.095L93.2683 264.634C92.3885 263.613 90.0835 262.152 88.6935 262.75C88.4631 262.852 88.2571 263.001 88.0892 263.188C87.9214 263.376 87.7958 263.597 87.7207 263.838C87.6457 264.078 87.623 264.331 87.6542 264.581C87.6855 264.831 87.7699 265.071 87.9017 265.285C88.2176 265.724 88.6253 266.088 89.0963 266.352C89.5673 266.617 90.0904 266.776 90.629 266.817C91.8765 266.82 93.1169 266.63 94.3064 266.254C94.7014 267.604 95.1833 268.927 95.7492 270.214C96.0659 270.971 96.4178 271.728 96.7873 272.468L96.3474 271.834C95.4677 270.813 93.1627 269.369 91.7727 269.95C91.5423 270.051 91.3362 270.201 91.1684 270.388C91.0006 270.576 90.8749 270.797 90.7999 271.038C90.7248 271.278 90.7022 271.531 90.7334 271.781C90.7646 272.031 90.849 272.271 90.9809 272.485C91.2958 272.926 91.7029 273.293 92.1739 273.561C92.6449 273.828 93.1684 273.99 93.7082 274.034C94.9014 274.024 96.0868 273.84 97.2272 273.489L97.6495 274.334C98.3357 275.707 99.0395 277.062 99.6729 278.418L100.306 279.844L99.9193 279.298C99.0395 278.277 96.7345 276.816 95.3445 277.414C95.1141 277.515 94.9081 277.665 94.7402 277.852C94.5724 278.04 94.4468 278.261 94.3717 278.501C94.2967 278.742 94.274 278.995 94.3052 279.245C94.3365 279.495 94.4209 279.735 94.5527 279.949C94.8677 280.39 95.2748 280.757 95.7457 281.025C96.2167 281.292 96.7403 281.454 97.28 281.498C98.4734 281.507 99.6608 281.329 100.799 280.97C100.993 281.463 101.186 281.956 101.362 282.449C101.538 282.942 101.591 283.1 101.679 283.452C101.767 283.805 101.872 284.121 101.96 284.456C102.119 285.09 102.277 285.759 102.418 286.392L102.682 287.677L101.978 286.199C101.257 285.072 99.1979 283.276 97.7375 283.646C97.4923 283.709 97.2636 283.825 97.0671 283.985C96.8707 284.145 96.711 284.345 96.5991 284.573C96.4872 284.8 96.4256 285.049 96.4186 285.302C96.4116 285.555 96.4594 285.807 96.5586 286.04C96.8071 286.524 97.1577 286.947 97.5861 287.282C98.0145 287.616 98.5104 287.853 99.0395 287.977C100.264 288.166 101.51 288.166 102.735 287.977C102.875 288.663 103.016 289.35 103.122 290.001C103.509 292.237 103.755 294.12 103.913 295.441C103.913 295.687 103.913 295.881 103.913 296.092H99.3738L101.028 328.465H108.77L110.424 296.092H106.201V295.898C106.781 294.684 107.591 292.941 108.453 290.811C108.735 290.142 109.016 289.42 109.298 288.663C110.506 288.957 111.753 289.058 112.993 288.962C113.529 288.877 114.04 288.676 114.49 288.372C114.94 288.067 115.318 287.668 115.597 287.202C115.711 286.978 115.777 286.732 115.788 286.481C115.8 286.23 115.758 285.979 115.664 285.746C115.571 285.512 115.429 285.301 115.247 285.127C115.065 284.953 114.849 284.821 114.611 284.738C113.186 284.262 111.092 285.882 110.195 286.973L109.456 288.258C109.561 287.959 109.685 287.66 109.79 287.343C110.019 286.727 110.23 286.093 110.459 285.424C110.564 285.09 110.652 284.755 110.758 284.421C110.864 284.086 110.934 283.734 111.022 283.382C111.215 282.555 111.374 281.727 111.515 280.882C112.641 281.323 113.827 281.59 115.034 281.674C115.576 281.672 116.11 281.552 116.602 281.324C117.094 281.097 117.531 280.766 117.884 280.354C118.035 280.15 118.14 279.916 118.192 279.667C118.243 279.418 118.241 279.161 118.184 278.914C118.127 278.666 118.017 278.434 117.862 278.233C117.707 278.032 117.511 277.867 117.286 277.749C115.949 277.062 113.538 278.347 112.588 279.298C112.588 279.298 111.919 280.108 111.585 280.53C111.585 280.02 111.743 279.509 111.814 278.999C111.99 277.502 112.148 275.971 112.289 274.457C112.289 273.999 112.289 273.542 112.43 273.066C113.588 273.53 114.81 273.815 116.054 273.911C116.596 273.908 117.131 273.789 117.623 273.561C118.115 273.333 118.552 273.002 118.905 272.591C119.052 272.386 119.153 272.152 119.202 271.904C119.25 271.657 119.245 271.402 119.187 271.156C119.129 270.911 119.018 270.681 118.863 270.482C118.708 270.283 118.512 270.12 118.289 270.003C116.951 269.299 114.559 270.584 113.591 271.535C113.591 271.535 112.641 272.697 112.447 272.978C112.553 271.957 112.658 270.954 112.817 269.95C113.023 268.606 113.317 267.277 113.696 265.972C114.86 266.437 116.089 266.722 117.339 266.817C117.878 266.814 118.41 266.694 118.899 266.466C119.388 266.238 119.822 265.908 120.171 265.497C120.322 265.292 120.427 265.058 120.479 264.809C120.531 264.561 120.528 264.304 120.471 264.056C120.414 263.809 120.305 263.577 120.15 263.375C119.995 263.174 119.798 263.009 119.573 262.891C118.236 262.205 115.825 263.49 114.875 264.44C114.875 264.44 113.855 265.69 113.696 265.919C113.704 265.837 113.704 265.755 113.696 265.673C114.106 264.37 114.636 263.109 115.28 261.905C115.614 261.237 115.984 260.603 116.353 260.004C117.451 260.601 118.64 261.012 119.872 261.219C120.411 261.283 120.958 261.226 121.472 261.052C121.986 260.879 122.456 260.593 122.846 260.216C123.015 260.029 123.143 259.808 123.219 259.568C123.296 259.327 123.32 259.073 123.29 258.823C123.26 258.573 123.176 258.332 123.045 258.116C122.914 257.901 122.738 257.716 122.529 257.575C121.28 256.73 118.746 257.733 117.69 258.578L116.723 259.547C116.899 259.282 117.057 259.001 117.233 258.754C117.866 257.804 118.5 256.994 118.993 256.237C119.327 255.815 119.626 255.445 119.925 255.11C121.117 255.115 122.303 254.943 123.444 254.6C123.949 254.399 124.405 254.093 124.781 253.701C125.157 253.309 125.446 252.842 125.626 252.329C125.751 252.107 125.827 251.861 125.849 251.608C125.87 251.354 125.836 251.098 125.749 250.859C125.662 250.62 125.524 250.402 125.345 250.221C125.166 250.041 124.949 249.901 124.711 249.812ZM108.101 290.142C107.186 292.237 106.342 293.944 105.743 295.124C105.638 295.37 105.515 295.581 105.427 295.775H105.321C105.321 295.529 105.321 295.282 105.215 295.001C105.039 293.663 104.74 291.779 104.301 289.526C104.16 288.804 104.001 288.047 103.825 287.272C104.53 286.99 105.217 286.667 105.884 286.304C106.794 287.084 107.807 287.735 108.893 288.241C108.629 288.91 108.347 289.543 108.101 290.142Z" fill="#2B2B2B"/>
<path d="M116.794 259.406C116.794 259.406 117.287 257.645 117.304 257.54C117.48 256.202 117.058 253.508 115.703 252.857C115.475 252.75 115.227 252.693 114.975 252.691C114.724 252.688 114.475 252.739 114.244 252.841C114.014 252.943 113.809 253.093 113.641 253.281C113.474 253.469 113.349 253.69 113.275 253.931C113.15 254.46 113.142 255.009 113.251 255.541C113.361 256.073 113.585 256.575 113.908 257.012C114.75 257.944 115.722 258.751 116.794 259.406Z" fill="#2B2B2B"/>
<path d="M509.502 331.669V1" stroke="#2B2B2B" stroke-linecap="round" stroke-linejoin="round"/>
<path d="M213.904 331.669V3.05969" stroke="#2B2B2B" stroke-linecap="round" stroke-linejoin="round"/>
<path d="M25.1924 169.345H638.369" stroke="#2B2B2B" stroke-linecap="round" stroke-linejoin="round"/>
<path d="M300.19 108.612L292.554 113.312" stroke="#2B2B2B" stroke-width="0.5" stroke-linecap="round" stroke-linejoin="round"/>
<path d="M429.093 29.1309L310.466 102.275" stroke="#2B2B2B" stroke-width="0.5" stroke-linecap="round" stroke-linejoin="round"/>
<path d="M444.752 34.0775L349.702 92.6629" stroke="#2B2B2B" stroke-width="0.5" stroke-linecap="round" stroke-linejoin="round"/>
<path d="M486.26 8.48157L457.545 26.1734" stroke="#2B2B2B" stroke-width="0.5" stroke-linecap="round" stroke-linejoin="round"/>
<path d="M212.193 123.293C238.43 123.293 259.7 102.013 259.7 75.7632C259.7 49.513 238.43 28.233 212.193 28.233C185.955 28.233 164.686 49.513 164.686 75.7632C164.686 102.013 185.955 123.293 212.193 123.293Z" fill="#2B2B2B"/>
<path d="M212.143 116.991C234.901 116.991 253.351 98.5329 253.351 75.7633C253.351 52.9937 234.901 34.5353 212.143 34.5353C189.384 34.5353 170.935 52.9937 170.935 75.7633C170.935 98.5329 189.384 116.991 212.143 116.991Z" fill="white"/>
<path d="M220.775 102.257L213.192 75.5166L175.802 75.5166" stroke="#2B2B2B" stroke-width="2" stroke-miterlimit="10"/>
<path d="M640.324 462.606H652.025" stroke="#2B2B2B" stroke-linecap="round" stroke-linejoin="round"/>
<path d="M1 462.606H624.453" stroke="#2B2B2B" stroke-linecap="round" stroke-linejoin="round"/>
<path d="M136.098 446.199H78.0332C78.0332 446.199 78.0332 461.796 86.2326 482.199C86.2326 486.107 95.6109 489.24 107.189 489.24C118.766 489.24 128.127 486.089 128.127 482.199C128.152 482.006 128.152 481.811 128.127 481.618C136.01 461.497 136.098 446.199 136.098 446.199Z" fill="white" stroke="#2B2B2B" stroke-linecap="round" stroke-linejoin="round"/>
<path d="M107.26 454.667C123.362 454.667 136.415 450.876 136.415 446.199C136.415 441.523 123.362 437.732 107.26 437.732C91.1578 437.732 78.1045 441.523 78.1045 446.199C78.1045 450.876 91.1578 454.667 107.26 454.667Z" fill="white" stroke="#2B2B2B" stroke-linecap="round" stroke-linejoin="round"/>
<path d="M107.259 453.276C121.709 453.276 133.423 450.108 133.423 446.199C133.423 442.291 121.709 439.123 107.259 439.123C92.8088 439.123 81.0947 442.291 81.0947 446.199C81.0947 450.108 92.8088 453.276 107.259 453.276Z" fill="white" stroke="#2B2B2B" stroke-linecap="round" stroke-linejoin="round"/>
<path d="M83.5566 449.192C87.7443 451.604 96.7707 453.258 107.257 453.258C117.744 453.258 126.771 451.604 130.941 449.192C126.771 446.798 117.727 445.125 107.257 445.125C96.7883 445.125 87.7443 446.798 83.5566 449.192Z" fill="#2B2B2B" stroke="#2B2B2B" stroke-linecap="round" stroke-linejoin="round"/>
<path d="M95.0646 449.861C95.0646 449.861 87.4811 430.919 89.6981 425.867C91.9151 420.815 99.1643 421.448 101.698 426.501C104.232 431.553 105.481 450.494 105.481 450.494C105.481 450.494 97.8975 453.029 95.0646 449.861Z" fill="#75CEA9" stroke="#2B2B2B" stroke-linecap="round" stroke-linejoin="round"/>
<path d="M101.698 451.762C101.698 451.762 95.6977 418.315 97.2636 411.977C98.8296 405.64 106.747 403.44 112.413 408.175C118.079 412.91 115.932 436.922 115.932 440.39C115.932 443.858 115.615 451.128 115.615 451.128C111.117 452.583 106.31 452.802 101.698 451.762Z" fill="#75CEA9" stroke="#2B2B2B" stroke-linecap="round" stroke-linejoin="round"/>
<path d="M113.999 451.128C113.999 451.128 109.319 438.172 112.116 433.12C114.914 428.067 120.632 429.969 120.632 434.07C120.632 438.172 120.949 447.977 120.316 450.178C119.682 452.378 116.216 453.03 113.999 451.128Z" fill="#75CEA9" stroke="#2B2B2B" stroke-linecap="round" stroke-linejoin="round"/>
<path d="M107.065 450.811C99.1648 420.885 105.798 405.975 105.798 405.975C105.798 405.975 115.264 422.399 110.215 450.811" stroke="#2B2B2B" stroke-linecap="round" stroke-linejoin="round"/>
<path d="M94.1158 425.233C94.1158 425.233 86.8489 425.55 98.8489 450.495" stroke="#2B2B2B" stroke-linecap="round" stroke-linejoin="round"/>
<path d="M343.967 337.584C343.967 337.584 230.601 333.729 219.041 359.501C207.481 385.273 219.041 462.606 219.041 462.606H395.521C395.521 462.606 420.753 366.806 406.677 353.903C392.601 340.999 343.967 337.584 343.967 337.584Z" fill="#2B2B2B" stroke="#2B2B2B" stroke-miterlimit="10"/>
<path d="M357.762 151.882C357.762 151.882 351.604 149.03 348.014 152.656C344.425 156.283 341.451 158.166 338.671 158.325C335.891 158.483 329.187 156.476 327.269 161.599C325.351 166.722 321.727 166.335 319.351 166.986C316.976 167.637 309.375 169.943 309.058 173.006C308.742 176.069 309.252 180.048 306.419 180.699C303.586 181.351 296.706 181.034 295.756 185.804C295.364 187.852 294.486 189.776 293.197 191.415C291.909 193.053 290.246 194.359 288.349 195.222C285.481 196.261 279.551 195.222 279.058 200.503C278.566 205.785 278.442 211.066 278.442 211.066L275.17 216.03C275.17 216.03 269.786 219.023 271.088 224.462C272.39 229.902 277.545 233.528 271.528 238.228C265.51 242.929 261.604 245.27 264.384 249.442C267.164 253.614 271.791 253.737 270.841 258.508C269.891 263.279 263.293 269.246 270.419 271.728C277.545 274.21 279.498 273.101 278.601 277.432C277.703 281.762 282.771 286.234 285.058 286.498C287.346 286.762 286.325 287.519 288.085 292.994C288.674 294.861 289.789 296.519 291.296 297.768C292.804 299.017 294.64 299.804 296.583 300.035C298.343 300.229 300.771 299.577 303.621 302.975C306.472 306.373 334.519 330.014 365.205 332.69C384.112 334.65 403.201 331.558 420.524 323.73C426.77 321.265 433.228 316.688 433.175 312.639C433.122 308.591 441.427 308.608 444.524 305.387C447.621 302.165 448.201 300.898 448.201 296.479C448.201 292.061 448.624 287.677 450.313 284.737C452.002 281.798 453.99 280.249 453.533 275.777C453.075 271.306 456.418 265.461 458.512 263.014C460.606 260.568 462.788 257.258 458.847 250.692C454.905 244.126 453.216 242.594 454.676 237.436C456.137 232.278 458.477 227.208 455.222 222.895C452.548 219.379 451.349 214.959 451.879 210.573C452.231 207.052 454.782 204.676 449.574 201.489C444.366 198.303 444.401 193.444 443.697 191.156C442.993 188.867 444.243 185.875 438.119 182.618C433.851 180.397 430.605 176.613 429.058 172.056C427.967 169.292 424.8 164.099 419.416 162.673C414.031 161.247 411.251 161.388 407.592 156.6C403.932 151.811 400.553 147.921 395.609 147.411C390.665 146.9 390.999 147.411 383.574 147.956C379.385 148.464 375.137 147.856 371.257 146.196C369.48 145.545 363.991 140.563 357.762 151.882Z" fill="#2B2B2B" stroke="#2B2B2B" stroke-linecap="round" stroke-linejoin="round"/>
<path d="M277.703 239.725C281.433 237.067 276.102 226.927 279.304 220.537C282.507 214.146 283.035 214.675 285.691 208.214C288.348 201.753 287.293 200.204 292.624 199.148C297.955 198.092 301.685 193.286 307.545 186.35C313.404 179.414 317.662 184.22 322.465 176.756C327.269 169.292 324.594 167.69 330.982 166.634C337.369 165.578 345.374 163.958 349.633 160.754C353.333 158.006 357.815 156.513 362.424 156.494C364.598 156.511 366.759 156.154 368.811 155.438C371.732 153.754 375.03 152.834 378.401 152.762C383.679 152.762 383.679 154.892 392.794 152.762M368.811 162.356C368.811 162.356 354.436 169.82 352.835 174.679C351.234 179.537 343.245 174.679 337.386 181.069C331.527 187.459 333.656 194.395 327.251 197.071C320.847 199.747 307.545 199.729 307.017 208.267C306.489 216.805 305.944 222.121 301.738 226.381C297.533 230.641 292.149 231.662 295.879 237.577C299.609 243.492 301.738 246.643 296.407 253.579C291.076 260.515 282.014 262.627 290.02 270.091C298.026 277.555 303.339 278.101 300.137 283.417C296.935 288.734 304.923 291.427 307.07 292.483" stroke="white" stroke-miterlimit="10"/>
<path d="M315.005 240.27C315.005 240.27 326.723 240.27 330.454 237.066C334.184 233.863 337.914 229.074 342.77 231.785C347.626 234.496 352.36 233.387 355.087 226.979C357.814 220.572 350.829 217.931 360.365 217.931C369.902 217.931 370.483 215.801 374.741 208.337C378.999 200.873 373.685 200.873 386.477 200.327C399.269 199.782 400.324 191.279 405.128 191.807C409.931 192.335 412.043 193.409 407.257 203.531C402.471 213.653 398.195 214.727 404.582 220.061C410.969 225.395 417.374 223.793 413.644 236.045C409.914 248.298 413.116 249.372 414.717 254.177C416.318 258.983 418.447 260.567 411.515 266.975C404.582 273.383 402.453 272.837 404.054 280.301C405.656 287.765 407.257 290.864 401.398 293.627C395.538 296.391 390.735 300.018 393.392 302.693C396.049 305.369 397.122 305.88 395.538 307.974" stroke="white" stroke-miterlimit="10"/>
<path d="M335.31 290.969C335.31 290.969 303.638 295.37 279.885 298.891C256.131 302.412 239.416 306.372 238.976 314.294C238.536 322.216 204.225 405.834 200.266 408.474C197.674 410.188 195.499 412.462 193.9 415.127C192.302 417.793 191.321 420.783 191.029 423.878C190.272 429.331 188.792 434.659 186.63 439.721C186.63 439.721 202.026 437.961 208.624 443.242C215.222 448.523 219.181 451.604 219.181 451.604C219.181 451.604 237.656 439.721 240.295 433.56C242.935 427.398 234.577 414.196 237.216 409.795C239.856 405.394 250.413 390.871 250.413 390.871C250.413 390.871 264.489 434.88 266.248 444.122C267.204 450.304 266.753 456.622 264.929 462.606H388.535V426.078C388.535 419.477 393.374 398.792 393.374 398.792C393.374 398.792 405.251 433.12 408.33 442.362C410.445 449.012 412.207 455.769 413.609 462.606H455.837C455.837 462.606 441.321 419.037 436.043 405.394C430.764 391.751 424.606 337.179 421.966 330.578C419.327 323.976 381.937 303.292 363.462 298.891C353.948 296.736 344.551 294.092 335.31 290.969Z" fill="#75CEA9"/>
<path opacity="0.3" d="M208.624 443.242C215.222 448.523 219.181 451.604 219.181 451.604C219.181 451.604 237.656 439.721 240.295 433.56C242.935 427.398 234.577 414.195 237.216 409.795C239.856 405.394 250.413 390.871 250.413 390.871L250.712 391.803L259.65 381.241C259.65 381.241 263.169 382.121 268.448 400.605C273.726 419.089 296.6 430.532 291.322 440.214C287.908 446.481 284.864 456.409 283.14 462.659H388.535V426.078C388.535 419.477 393.374 398.792 393.374 398.792C393.374 398.792 405.251 433.12 408.33 442.362C410.445 449.012 412.207 455.769 413.609 462.606H455.837C455.837 462.606 441.321 419.037 436.043 405.394C431.556 393.81 426.436 352.688 423.374 336.528C421.779 334.512 419.98 332.666 418.007 331.018C405.691 321.336 375.779 310.773 368.741 309.893C361.703 309.013 344.107 297.571 324.753 305.492C324.753 305.492 311.556 316.935 301.879 319.575C292.201 322.216 272.847 302.852 271.087 312.534C270.064 318.948 270.064 325.484 271.087 331.898C271.087 331.898 260.53 307.253 261.41 316.935C262.289 326.617 262.289 335.419 262.289 335.419C262.289 335.419 252.612 314.294 252.612 323.096C252.612 331.898 257.011 343.34 256.131 350.382C255.251 357.423 230.618 401.433 227.979 405.834C225.339 410.235 226.219 418.332 223.14 424.406C221.174 428.101 217.869 430.904 213.903 432.239C213.903 432.239 216.542 420.797 206.864 421.677C197.187 422.557 186.63 439.721 186.63 439.721C186.63 439.721 202.026 437.961 208.624 443.242Z" fill="#2B2B2B"/>
<path d="M335.31 290.969C335.31 290.969 303.638 295.37 279.885 298.891C256.131 302.412 239.416 306.372 238.976 314.294C238.536 322.216 204.225 405.834 200.266 408.474C197.674 410.188 195.499 412.462 193.9 415.127C192.302 417.793 191.321 420.783 191.029 423.878C190.272 429.331 188.792 434.659 186.63 439.721C186.63 439.721 202.026 437.961 208.624 443.242C215.222 448.523 219.181 451.604 219.181 451.604C219.181 451.604 237.656 439.721 240.295 433.56C242.935 427.398 234.577 414.196 237.216 409.795C239.856 405.394 250.413 390.871 250.413 390.871C250.413 390.871 264.489 434.88 266.248 444.122C267.204 450.304 266.753 456.622 264.929 462.606H388.535V426.078C388.535 419.477 393.374 398.792 393.374 398.792C393.374 398.792 405.251 433.12 408.33 442.362C410.445 449.012 412.207 455.769 413.609 462.606H455.837C455.837 462.606 441.321 419.037 436.043 405.394C430.764 391.751 424.606 337.179 421.966 330.578C419.327 323.976 381.937 303.292 363.462 298.891C353.948 296.736 344.552 294.092 335.31 290.969V290.969Z" stroke="#2B2B2B" stroke-linecap="round" stroke-linejoin="round"/>
<path d="M344.109 365.785C344.109 365.785 347.98 405.094 346.343 421.413C344.707 437.732 339.006 449.984 341.452 461.409" stroke="#2B2B2B" stroke-linecap="round" stroke-linejoin="round"/>
<path d="M396.893 371.506L403.931 356.543" stroke="#2B2B2B" stroke-linecap="round" stroke-linejoin="round"/>
<path d="M331.351 287.448C331.351 287.448 326.512 290.529 325.632 293.61C324.753 296.69 317.714 305.052 314.635 317.375C311.556 329.697 313.316 352.142 315.515 346.861C317.714 341.58 323.433 330.138 325.632 327.497C327.832 324.856 328.272 328.377 330.031 335.859C331.791 343.34 344.107 365.785 344.107 365.785C344.107 365.785 353.345 345.101 358.623 342.02C363.902 338.939 366.101 328.817 366.101 328.817C366.101 328.817 371.38 355.223 374.459 355.223C377.538 355.223 378.858 334.979 377.538 322.656C376.219 310.333 370.5 295.37 366.981 290.529C363.462 285.688 348.506 269.405 331.351 287.448Z" fill="white" stroke="#2B2B2B" stroke-linecap="round" stroke-linejoin="round"/>
<path d="M331.79 284.808C331.79 284.808 330.031 319.135 332.67 334.098C335.309 349.062 341.908 371.066 344.107 365.785C346.306 360.504 360.383 334.538 362.582 322.656C364.381 314.194 367.034 305.936 370.5 298.011C370.5 298.011 344.107 301.091 331.79 284.808Z" fill="white" stroke="#2B2B2B" stroke-linecap="round" stroke-linejoin="round"/>
<path d="M395.804 207.087C395.804 207.087 388.132 209.288 386.214 213.565C384.296 217.843 382.695 218.178 377.839 222.649C372.983 227.12 371.487 226.469 367.651 230.06C363.815 233.651 360.859 233.334 356.337 233.863C351.815 234.391 347.874 234.003 345.78 235.271C343.759 236.361 341.666 237.314 339.516 238.123C339.516 238.123 336.719 236.362 334.554 243.069C332.39 249.776 329.786 265.444 331.387 274.052C332.989 282.66 339.358 303.186 349.282 308.186C359.205 313.185 383.17 297.218 389.329 290.406C395.487 283.593 408.191 251.572 408.683 246.168C409.176 240.763 400.836 230.465 399.27 226.328C397.704 222.191 399.921 219.938 396.842 216.136C393.763 212.333 395.804 207.087 395.804 207.087Z" fill="white" stroke="#2B2B2B" stroke-linecap="round" stroke-linejoin="round"/>
<path d="M371.117 275.143C371.117 275.143 369.709 277.59 364.836 277.097C359.962 276.605 358.044 272.925 358.607 270.056" stroke="#2B2B2B" stroke-linecap="round" stroke-linejoin="round"/>
<path d="M352.237 278.717C356.811 282.675 362.625 284.905 368.671 285.019" stroke="#2B2B2B" stroke-linecap="round" stroke-linejoin="round"/>
<path d="M361.546 249.847L359.681 254.001C359.681 254.001 353.311 256.818 347.522 248.421" stroke="#2B2B2B" stroke-linecap="round" stroke-linejoin="round"/>
<path d="M390.841 261.219L389.293 265.109C389.293 265.109 381.304 266.87 378.735 260.286" stroke="#2B2B2B" stroke-linecap="round" stroke-linejoin="round"/>
<path d="M382.043 247.593C382.043 247.593 395.275 242.576 398.952 254.829" stroke="#2B2B2B" stroke-linecap="round" stroke-linejoin="round"/>
<path d="M367.509 242.365C367.509 242.365 362.847 231.468 349.914 236.222" stroke="#2B2B2B" stroke-linecap="round" stroke-linejoin="round"/>
<path d="M359.679 254.001C359.679 254.001 357.268 254.917 352.236 253.244C350.758 252.748 349.403 251.939 348.265 250.873C347.126 249.807 346.23 248.508 345.638 247.065C345.638 247.065 345.602 258.649 359.679 254.001Z" fill="#2B2B2B"/>
<path d="M390.842 265.884C390.842 265.884 388.431 266.799 383.399 265.127C381.921 264.631 380.566 263.822 379.428 262.756C378.289 261.69 377.393 260.391 376.801 258.948C376.801 258.948 376.766 270.514 390.842 265.884Z" fill="#2B2B2B"/>
<path d="M250.413 390.871C250.413 390.871 265.369 366.665 273.287 349.942L250.413 390.871Z" fill="white"/>
<path d="M250.413 390.871C250.413 390.871 265.369 366.665 273.287 349.942" stroke="#2B2B2B" stroke-linecap="round" stroke-linejoin="round"/>
<path d="M261.851 373.267C268.618 368.847 274.326 362.986 278.566 356.103" stroke="#2B2B2B" stroke-linecap="round" stroke-linejoin="round"/>
<path d="M168.156 477.129H259.071L308.619 510.876H204.227L168.156 477.129Z" fill="white" stroke="#2B2B2B" stroke-linecap="round" stroke-linejoin="round"/>
<path d="M285.164 503.535H212.144" stroke="#2B2B2B" stroke-linecap="round" stroke-linejoin="round"/>
<path d="M278.125 496.493H205.104" stroke="#2B2B2B" stroke-linecap="round" stroke-linejoin="round"/>
<path d="M271.088 489.452H198.067" stroke="#2B2B2B" stroke-linecap="round" stroke-linejoin="round"/>
<path d="M104.812 498.253H195.727L245.275 532H140.883L104.812 498.253Z" fill="white" stroke="#2B2B2B" stroke-linecap="round" stroke-linejoin="round"/>
<path d="M221.821 524.659H148.801" stroke="#2B2B2B" stroke-linecap="round" stroke-linejoin="round"/>
<path d="M214.783 517.618H141.763" stroke="#2B2B2B" stroke-linecap="round" stroke-linejoin="round"/>
<path d="M207.744 510.576H134.724" stroke="#2B2B2B" stroke-linecap="round" stroke-linejoin="round"/>
<path d="M232.678 460.106C232.678 460.106 224.461 447.784 219.481 440.161C214.502 432.539 203.645 427.258 193.968 429.599C184.291 431.94 179.593 440.742 179.593 450.143C179.593 459.543 180.473 467.148 190.731 472.728C200.989 478.309 223.88 481.231 223.88 481.231C223.88 481.231 241.176 487.691 232.678 460.106Z" fill="white" stroke="#2B2B2B" stroke-linecap="round" stroke-linejoin="round"/>
<path d="M224.128 457.342C224.128 457.342 212.884 460.863 212.11 465.088C211.336 469.313 210.174 478.678 210.949 482.938C211.723 487.198 221.805 486.829 228.79 486.829C235.776 486.829 239.259 479.787 237.711 477.516C236.163 475.245 229.952 473.996 227.629 468.591C226.131 464.953 224.959 461.189 224.128 457.342Z" fill="white" stroke="#2B2B2B" stroke-linecap="round" stroke-linejoin="round"/>
<path d="M233.504 461.022C231.85 457.307 229.756 453.822 228.824 451.797C226.308 446.375 220.818 446.147 220.519 453.012C220.343 456.902 227.557 479.629 233.821 474.401C237.217 471.584 235.756 466.074 233.504 461.022Z" fill="white" stroke="#2B2B2B" stroke-linecap="round" stroke-linejoin="round"/>
<path d="M212.496 466.655C212.496 466.655 212.883 471.302 222.191 476.742C231.499 482.181 234.209 480.263 237.323 480.263" fill="white"/>
<path d="M212.496 466.655C212.496 466.655 212.883 471.302 222.191 476.742C231.499 482.181 234.209 480.263 237.323 480.263" stroke="#2B2B2B" stroke-linecap="round" stroke-linejoin="round"/>
<path d="M210.946 475.967C210.946 475.967 212.09 483.607 233.415 485.156L210.946 475.967Z" fill="white"/>
<path d="M210.946 475.967C210.946 475.967 212.09 483.607 233.415 485.156" stroke="#2B2B2B" stroke-linecap="round" stroke-linejoin="round"/>
<path d="M239.874 480.65L221.505 427.838C221.391 427.51 221.343 427.163 221.364 426.816C221.385 426.469 221.474 426.13 221.626 425.818C221.778 425.505 221.99 425.226 222.25 424.996C222.51 424.766 222.813 424.589 223.141 424.476C223.469 424.362 223.817 424.314 224.163 424.335C224.51 424.356 224.849 424.445 225.161 424.597C225.473 424.749 225.753 424.961 225.983 425.221C226.213 425.482 226.389 425.785 226.502 426.113L244.801 478.977L239.874 480.65Z" fill="#2B2B2B"/>
<path d="M239.873 480.703L244.835 487.058L244.853 478.977L239.873 480.703Z" fill="white"/>
<path d="M243.041 484.751L244.801 487.058V484.171C244.194 484.293 243.603 484.488 243.041 484.751Z" fill="#2B2B2B"/>
<path d="M226.501 426.078C226.268 425.415 225.781 424.872 225.147 424.568C224.513 424.265 223.785 424.225 223.123 424.459C222.46 424.692 221.917 425.179 221.614 425.813C221.31 426.447 221.271 427.176 221.504 427.838L223.263 433.12L228.19 431.236L226.501 426.078Z" fill="white"/>
<path d="M233.257 446.903C233.257 446.903 238.535 444.861 241.175 446.903C243.814 448.945 245.274 454.244 245.274 460.405C245.274 466.567 248.213 474.488 242.934 474.189C237.656 473.89 233.257 446.903 233.257 446.903Z" fill="white" stroke="#2B2B2B" stroke-linecap="round" stroke-linejoin="round"/>
<path d="M349.562 494.152L309.498 468.908H462.577L519.638 494.152H349.562Z" fill="white" stroke="#2B2B2B" stroke-linecap="round" stroke-linejoin="round"/>
<path d="M519.638 494.152H349.562L369.146 372.686H539.239L519.638 494.152Z" fill="white" stroke="#2B2B2B" stroke-linecap="round" stroke-linejoin="round"/>
<path d="M529.245 434.633C500.442 441.182 475.597 434.633 426.295 442.643C377.996 450.424 358.466 472.446 350.636 487.427L349.562 494.152H519.638L529.245 434.633Z" fill="#2B2B2B" stroke="#2B2B2B" stroke-miterlimit="10"/>
<path d="M529.422 449.597C529.422 449.597 519.78 450.829 516.313 454.79C512.847 458.751 515.574 460.247 518.548 460.247C521.522 460.247 531.41 460.247 535.862 454.966C539.469 450.811 537.093 449.104 529.422 449.597Z" fill="white" stroke="#2B2B2B" stroke-linecap="round" stroke-linejoin="round"/>
<path d="M526.2 477.816C526.2 477.816 516.558 479.048 513.092 483.009C509.625 486.97 512.353 488.448 515.326 488.448C518.3 488.448 528.188 488.448 532.64 483.255C536.265 479.03 533.872 477.323 526.2 477.816Z" fill="white" stroke="#2B2B2B" stroke-linecap="round" stroke-linejoin="round"/>
<path d="M527.204 470.387C527.204 470.387 517.544 471.619 514.078 475.58C510.612 479.541 513.339 481.037 516.313 481.037C519.286 481.037 529.175 481.037 533.626 475.756C537.251 471.619 534.858 469.894 527.204 470.387Z" fill="white" stroke="#2B2B2B" stroke-linecap="round" stroke-linejoin="round"/>
<path d="M527.45 461.972C527.45 461.972 517.79 463.204 514.341 467.165C510.893 471.126 513.585 472.622 516.558 472.622C519.532 472.622 529.421 472.622 533.872 467.341C537.497 463.187 535.121 461.479 527.45 461.972Z" fill="white" stroke="#2B2B2B" stroke-linecap="round" stroke-linejoin="round"/>
</svg>
