<svg width="697" height="533" viewBox="0 0 697 533" fill="none" xmlns="http://www.w3.org/2000/svg">
<path d="M55.5614 319.222L32.0532 301.824C26.0559 297.388 20.4392 292.461 15.2617 287.092C11.1729 282.964 7.32323 278.605 3.73146 274.038L0 268.686L34.404 253.955C34.404 253.955 35.9153 298.337 55.5614 319.222Z" fill="#2B2B2B"/>
<path d="M5.18652 250.915C5.18652 250.915 12.6494 289.591 65.9906 327.371C119.332 365.152 386.523 525.3 401.262 529.906C416.001 534.512 423.352 529.906 429.807 525.3C436.263 520.694 681.252 317.208 681.252 317.208C681.252 317.208 570.726 261.041 486.917 212.258C403.109 163.475 342.305 129.405 324.804 113.722C307.304 98.0392 287.042 82.4309 287.042 82.4309C287.042 82.4309 146.124 176.323 95.4504 203.027C44.7773 229.731 5.18652 250.915 5.18652 250.915Z" fill="#75CEA9" stroke="#2B2B2B" stroke-linecap="round" stroke-linejoin="round"/>
<path d="M198.309 200.659L297.528 133.414" stroke="white" stroke-linecap="round" stroke-linejoin="round"/>
<path d="M101.905 266.001L187.113 208.248" stroke="white" stroke-linecap="round" stroke-linejoin="round"/>
<path d="M178.383 251.027L323.704 152.547" stroke="white" stroke-linecap="round" stroke-linejoin="round"/>
<path d="M128.063 285.134L163.475 261.134" stroke="white" stroke-linecap="round" stroke-linejoin="round"/>
<path d="M154.24 304.248L349.862 171.661" stroke="white" stroke-linecap="round" stroke-linejoin="round"/>
<path d="M205.004 306.691L376.035 190.794" stroke="white" stroke-linecap="round" stroke-linejoin="round"/>
<path d="M180.396 323.381L196.013 312.789" stroke="white" stroke-linecap="round" stroke-linejoin="round"/>
<path d="M206.572 342.495L402.194 209.908" stroke="white" stroke-linecap="round" stroke-linejoin="round"/>
<path d="M232.731 361.628L428.353 229.041" stroke="white" stroke-linecap="round" stroke-linejoin="round"/>
<path d="M357.118 314.169L454.528 248.155" stroke="white" stroke-linecap="round" stroke-linejoin="round"/>
<path d="M258.906 380.742L342.659 323.977" stroke="white" stroke-linecap="round" stroke-linejoin="round"/>
<path d="M412.009 313.833L480.686 267.269" stroke="white" stroke-linecap="round" stroke-linejoin="round"/>
<path d="M335.681 365.562L400.813 321.423" stroke="white" stroke-linecap="round" stroke-linejoin="round"/>
<path d="M285.064 399.856L324.487 373.152" stroke="white" stroke-linecap="round" stroke-linejoin="round"/>
<path d="M492.757 295.968L506.862 286.402" stroke="white" stroke-linecap="round" stroke-linejoin="round"/>
<path d="M311.24 418.989L480.686 304.136" stroke="white" stroke-linecap="round" stroke-linejoin="round"/>
<path d="M361.839 421.543L533.019 305.516" stroke="white" stroke-linecap="round" stroke-linejoin="round"/>
<path d="M337.398 438.103L351.541 428.536" stroke="white" stroke-linecap="round" stroke-linejoin="round"/>
<path d="M399.415 467.268C396.706 469.709 394.561 472.71 393.127 476.062C391.694 479.414 391.006 483.037 391.112 486.681C391.112 499.585 405.851 506.951 412.307 505.105C418.762 503.259 439.024 480.247 439.024 480.247C439.024 480.247 433.427 462.755 422.438 461.842C411.449 460.928 399.415 467.268 399.415 467.268Z" fill="#2B2B2B" stroke="#2B2B2B" stroke-linecap="round" stroke-linejoin="round"/>
<path d="M413.316 531.902C413.316 531.902 428.895 526.177 430.723 513.254C432.551 500.331 422.439 481.963 414.155 475.511C409.765 471.91 404.776 469.107 399.416 467.231C399.416 467.231 527.442 380.686 560.596 351.222C593.75 321.758 655.469 275.735 655.469 275.735C655.469 275.735 668.361 269.302 678.492 275.735C688.622 282.169 695.283 288.658 695.992 303.353C696.421 311.689 679.424 323.605 679.424 323.605L449.156 514.224C449.156 514.224 421.711 533.17 413.316 531.902Z" fill="white"/>
<path d="M695.993 303.39C695.897 301.234 695.629 299.089 695.19 296.975C687.877 303.316 674.667 314.486 650.562 334.085C600.822 374.588 561.212 404.052 561.212 404.052C561.212 404.052 604.497 371.828 588.844 379.194C573.19 386.56 539.104 416.024 508.767 440.881C489.512 456.62 455.5 488.228 430.779 513.291C428.914 526.177 413.372 531.939 413.372 531.939C421.768 533.207 449.213 514.261 449.213 514.261L679.481 323.679C679.481 323.679 696.422 311.726 695.993 303.39Z" fill="#75CEA9"/>
<path opacity="0.5" d="M695.993 303.39C695.897 301.234 695.629 299.089 695.19 296.975C687.877 303.316 674.667 314.486 650.562 334.085C600.822 374.588 561.212 404.052 561.212 404.052C561.212 404.052 604.497 371.828 588.844 379.194C573.19 386.56 539.104 416.024 508.767 440.881C489.512 456.62 455.5 488.228 430.779 513.291C428.914 526.177 413.372 531.939 413.372 531.939C421.768 533.207 449.213 514.261 449.213 514.261L679.481 323.679C679.481 323.679 696.422 311.726 695.993 303.39Z" fill="white"/>
<path d="M413.316 531.902C413.316 531.902 428.895 526.177 430.723 513.254C432.551 500.331 422.439 481.963 414.155 475.511C409.765 471.91 404.776 469.107 399.416 467.231C399.416 467.231 527.442 380.686 560.596 351.222C593.75 321.758 655.469 275.735 655.469 275.735C655.469 275.735 668.361 269.302 678.492 275.735C688.622 282.169 695.283 288.658 695.992 303.353C696.421 311.689 679.424 323.605 679.424 323.605L449.156 514.224C449.156 514.224 421.711 533.17 413.316 531.902Z" stroke="#2B2B2B" stroke-linecap="round" stroke-linejoin="round"/>
<path d="M513.558 44.8929C513.558 44.8929 522.532 38.0118 524.883 33.5363C526.879 29.8068 528.353 24.3429 526.413 20.2217C525.987 19.24 525.359 18.3589 524.57 17.6357C523.781 16.9124 522.848 16.3632 521.833 16.0238C520.817 15.6843 519.742 15.5622 518.676 15.6654C517.611 15.7686 516.579 16.0947 515.647 16.6227C510.144 19.942 509.397 31.541 510.703 37.1354C510.815 37.6016 513.465 44.9675 513.558 44.8929Z" fill="#75CEA9"/>
<path d="M430.59 102.161C430.963 102.496 437.232 107.177 437.269 107.065C437.307 106.953 441.001 96.3612 440.441 91.3635C440.012 87.0745 438.258 81.7599 434.377 79.4103C433.482 78.8217 432.473 78.4285 431.416 78.2565C430.358 78.0845 429.277 78.1375 428.241 78.4121C427.206 78.6867 426.24 79.1767 425.407 79.85C424.574 80.5232 423.892 81.3647 423.407 82.3193C420.646 88.1375 426.411 98.2074 430.59 102.161Z" fill="#2B2B2B"/>
<path d="M617.424 56.9955C617.424 56.9955 584.419 90.0769 584.009 131.307C583.598 172.538 615.95 206.253 615.95 206.253C615.95 206.253 648.955 173.153 649.347 131.941C649.738 90.7296 617.424 56.9955 617.424 56.9955Z" fill="#75CEA9"/>
<path d="M569.641 155.792C570.079 155.335 570.479 154.842 570.836 154.319C573.261 150.776 575.351 145.573 573.895 141.266C573.585 140.241 573.062 139.294 572.362 138.485C571.661 137.676 570.798 137.023 569.828 136.57C568.859 136.116 567.804 135.871 566.734 135.851C565.664 135.831 564.601 136.037 563.615 136.454C559.175 138.468 556.917 145.517 556.358 151.373C554.604 150.944 553.018 150.608 551.656 150.366L549.958 146.375C549.324 144.995 548.913 143.615 548.354 142.217C547.607 140.147 546.936 137.965 546.264 135.802C548.857 134.701 556.395 131.289 559.231 128.249C562.067 125.21 565.014 120.287 564.231 115.811C564.08 114.752 563.708 113.737 563.14 112.831C562.571 111.925 561.818 111.148 560.929 110.552C560.041 109.956 559.036 109.553 557.982 109.37C556.928 109.187 555.847 109.228 554.809 109.489C548.615 111.242 544.827 122.207 544.622 127.97C544.622 128.156 544.622 129.368 544.79 130.804C544.212 128.678 543.615 126.552 543.074 124.371C541.581 118.179 540.238 111.82 538.876 105.443C538.596 104.119 538.297 102.814 537.999 101.49C540.182 100.557 548.391 96.9581 551.357 93.7506C554.324 90.5432 557.141 85.8066 556.339 81.3124C556.189 80.2622 555.821 79.2549 555.259 78.3552C554.697 77.4554 553.953 76.6831 553.075 76.0878C552.196 75.4925 551.203 75.0874 550.158 74.8985C549.114 74.7096 548.042 74.741 547.01 74.9908C540.816 76.7437 537.029 87.7273 536.805 93.4709C536.805 93.676 536.898 95.1306 537.029 96.7529C536.245 93.3031 535.405 89.8905 534.473 86.5152C532.915 80.7163 530.97 75.0284 528.651 69.4897C529.416 69.1727 539.118 65.126 542.421 61.5829C545.35 58.4314 548.204 53.6203 547.421 49.1448C547.27 48.0858 546.898 47.0703 546.329 46.1643C545.761 45.2583 545.007 44.482 544.119 43.8858C543.23 43.2896 542.226 42.887 541.172 42.7039C540.118 42.5208 539.036 42.5614 537.999 42.8231C531.805 44.576 528.017 55.541 527.793 61.3032C527.793 61.6948 528.185 66.8976 528.39 68.7624C528.395 68.6941 528.395 68.6256 528.39 68.5573C525.974 63.1803 523.09 58.0261 519.771 53.1541C516.812 48.7894 513.604 44.599 510.162 40.604C507.009 36.8744 503.893 33.6483 501.113 30.8139C499.602 29.2847 498.184 27.9235 496.859 26.674H496.99C497.102 26.674 494.079 19.4573 493.837 19.0097C491.02 13.9935 482.643 5.95618 476.318 7.24288C475.276 7.48427 474.298 7.94217 473.445 8.58676C472.593 9.23135 471.885 10.0482 471.37 10.9841C470.854 11.92 470.541 12.9539 470.452 14.0186C470.363 15.0833 470.499 16.1549 470.851 17.1636C472.194 21.5086 476.933 24.4922 480.963 25.9467C484.993 27.4013 494.21 26.8792 496.468 26.7113C497.83 28.054 499.266 29.4899 500.815 31.1122C503.539 34.0027 506.561 37.2847 509.621 41.0702C510.442 42.0772 511.282 43.1961 512.102 44.2777C510.33 42.7672 507.867 40.7346 507.606 40.5481C502.792 37.3966 491.654 34.1332 486.635 38.1798C485.821 38.8739 485.162 39.7313 484.701 40.6965C484.24 41.6617 483.987 42.7131 483.959 43.7823C483.931 44.8515 484.128 45.9147 484.537 46.9028C484.947 47.8909 485.56 48.7818 486.337 49.5178C489.546 52.7438 495.124 53.2473 499.397 52.632C503.669 52.0166 511.841 47.2054 513.576 46.1238C515.442 48.5294 517.177 51.0282 518.912 53.7508C522.093 58.6332 524.833 63.7878 527.103 69.154C527.233 69.4524 527.327 69.788 527.439 70.1051C526.692 69.21 522.233 64.5107 521.842 64.2869C517.401 60.5573 506.673 56.1564 501.319 59.6249C500.444 60.2285 499.704 61.0077 499.147 61.9129C498.591 62.818 498.229 63.8293 498.085 64.882C497.941 65.9348 498.018 67.006 498.311 68.0273C498.605 69.0486 499.108 69.9976 499.789 70.8137C502.625 74.3754 508.11 75.4384 512.401 75.3451C517.364 75.2332 527.178 70.4594 527.551 70.2729C529.652 75.6889 531.41 81.2322 532.812 86.8695C533.857 91.028 534.678 95.2984 535.611 99.5874C534.622 98.4499 530.48 94.1422 530.144 93.8625C525.704 90.1329 514.976 85.732 509.621 89.2005C508.744 89.8022 508.002 90.5807 507.444 91.4858C506.885 92.3909 506.522 93.4028 506.378 94.4564C506.234 95.51 506.312 96.5821 506.607 97.6039C506.902 98.6256 507.408 99.5744 508.091 100.389C510.927 103.951 516.412 105.033 520.703 104.939C525.536 104.827 534.976 100.296 535.76 99.9044C536.152 101.862 536.543 103.802 536.917 105.76C538.148 112.137 539.342 118.534 540.648 124.818C541.133 127 541.674 129.126 542.215 131.27C540.667 129.592 537.775 126.608 537.495 126.384C533.073 122.655 522.345 118.235 516.972 121.704C516.097 122.307 515.358 123.087 514.801 123.992C514.244 124.897 513.882 125.908 513.738 126.961C513.594 128.014 513.671 129.085 513.965 130.106C514.258 131.128 514.761 132.077 515.442 132.893C518.259 136.454 523.763 137.517 528.054 137.424C532.346 137.331 540.387 133.694 542.626 132.632C543.559 136.175 544.491 139.662 545.704 143.056C546.227 144.51 546.674 146.039 547.253 147.401C547.551 148.128 547.831 148.855 548.13 149.564L546.88 149.433C546.88 149.433 546.768 151.447 546.88 154.729C542.197 151.279 535.405 148.277 530.946 150.254C529.98 150.713 529.122 151.371 528.426 152.183C527.731 152.996 527.214 153.946 526.91 154.971C526.605 155.996 526.52 157.074 526.659 158.134C526.799 159.195 527.16 160.214 527.719 161.126C527.999 161.619 528.33 162.082 528.707 162.506C529.462 167.508 531.499 172.23 534.622 176.212C534.864 176.51 538.036 179.512 539.697 181.023C538.092 180.109 536.488 179.158 534.827 178.263C532.42 176.883 529.939 175.354 527.513 173.899L523.689 171.531C522.42 170.729 521.282 169.816 520.069 168.939C518.297 167.634 516.543 166.198 514.789 164.762C516.319 162.394 520.741 155.438 521.431 151.298C522.121 147.158 521.86 141.471 518.726 138.245C518.01 137.45 517.136 136.815 516.158 136.38C515.181 135.945 514.124 135.72 513.054 135.72C511.984 135.72 510.927 135.945 509.95 136.38C508.972 136.815 508.098 137.45 507.382 138.245C503.166 143.112 506.076 154.356 509.08 159.279C509.173 159.429 509.901 160.398 510.796 161.554C509.136 160.1 507.457 158.645 505.815 157.116C501.132 152.771 496.486 148.221 491.859 143.652L488.949 140.837C490.255 138.86 495.106 131.326 495.815 127.037C496.524 122.748 496.244 117.21 493.109 113.984C492.395 113.186 491.521 112.549 490.544 112.112C489.566 111.675 488.508 111.45 487.438 111.45C486.367 111.45 485.309 111.675 484.331 112.112C483.354 112.549 482.48 113.186 481.766 113.984C477.568 118.869 480.46 130.114 483.464 135.018C483.575 135.186 484.452 136.342 485.46 137.629C482.904 135.205 480.31 132.799 477.68 130.506C473.173 126.525 468.404 122.849 463.407 119.503C463.892 118.813 469.75 110.179 470.553 105.331C471.243 101.098 470.963 95.5035 467.847 92.2774C467.138 91.4769 466.269 90.8343 465.295 90.3913C464.322 89.9483 463.266 89.7148 462.196 89.706C461.127 89.6972 460.067 89.9133 459.086 90.3403C458.106 90.7672 457.226 91.3954 456.504 92.1842C452.287 97.0699 455.198 108.315 458.183 113.219C458.407 113.573 461.653 117.732 462.847 119.186L462.679 119.056C457.691 115.903 452.434 113.194 446.97 110.963C442.1 108.951 437.116 107.226 432.044 105.797C427.342 104.417 422.977 103.448 419.096 102.608C416.988 102.179 415.047 101.825 413.237 101.508H413.349C413.443 101.508 406.931 97.0886 406.502 96.8648C401.39 94.2355 389.953 92.1655 385.382 96.697C384.647 97.4755 384.084 98.3997 383.729 99.4096C383.373 100.42 383.235 101.493 383.321 102.56C383.407 103.627 383.716 104.664 384.229 105.604C384.741 106.544 385.446 107.366 386.296 108.016C389.823 110.888 395.42 110.758 399.599 109.751C403.778 108.744 411.148 103.224 412.939 101.844C414.805 102.198 416.801 102.608 419.003 103.112C422.846 104.026 427.193 105.089 431.839 106.562C433.07 106.953 434.395 107.42 435.682 107.848C433.369 107.569 430.178 107.233 429.861 107.233C424.115 107.233 413.07 110.683 411.055 116.818C410.762 117.847 410.688 118.926 410.838 119.986C410.989 121.045 411.36 122.061 411.928 122.968C412.496 123.875 413.248 124.653 414.136 125.251C415.023 125.849 416.027 126.254 417.081 126.44C421.521 127.373 426.41 124.576 429.675 121.853C432.94 119.13 437.137 110.459 437.902 108.613C440.738 109.62 443.612 110.702 446.559 112.026C451.907 114.341 457.039 117.124 461.896 120.343C462.176 120.548 462.437 120.771 462.717 120.958C461.597 120.622 455.254 119.224 454.862 119.093C449.153 118.496 437.735 120.678 435.122 126.552C434.716 127.542 434.522 128.606 434.554 129.675C434.586 130.744 434.843 131.795 435.307 132.759C435.772 133.723 436.434 134.578 437.251 135.269C438.067 135.96 439.02 136.472 440.048 136.771C444.377 138.189 449.545 136.044 453.108 133.601C457.175 130.785 462.735 121.387 462.941 121.033C467.689 124.376 472.214 128.026 476.486 131.96C479.676 134.851 482.773 137.928 485.814 141.023C484.34 140.613 478.519 139.326 478.09 139.27C472.362 138.655 460.963 140.837 458.332 146.729C457.926 147.719 457.732 148.783 457.764 149.852C457.796 150.922 458.052 151.972 458.517 152.936C458.981 153.9 459.643 154.755 460.46 155.446C461.277 156.137 462.23 156.649 463.258 156.948C467.586 158.366 472.754 156.221 476.318 153.778C480.273 151.018 485.646 142.049 486.094 141.284C487.493 142.701 488.893 144.1 490.273 145.517C494.826 150.161 499.36 154.841 503.987 159.335C505.572 160.883 507.214 162.356 508.837 163.83C506.617 163.289 502.569 162.394 502.214 162.356C496.486 161.741 485.087 163.923 482.475 169.816C482.068 170.804 481.874 171.867 481.904 172.935C481.935 174.003 482.19 175.053 482.652 176.017C483.115 176.98 483.775 177.836 484.59 178.528C485.404 179.22 486.356 179.733 487.382 180.035C491.71 181.452 496.897 179.307 500.442 176.864C503.987 174.422 508.651 166.944 509.938 164.837C512.662 167.279 515.423 169.648 518.259 171.829C519.491 172.762 520.703 173.694 521.991 174.589L525.722 177.126C528.278 178.748 530.666 180.277 533.185 181.75C534.398 182.496 535.573 183.167 536.767 183.876C534.584 183 531.17 181.657 530.816 181.582C525.219 180.109 513.632 180.538 510.162 185.946C509.609 186.863 509.256 187.886 509.125 188.948C508.994 190.011 509.088 191.089 509.401 192.113C509.714 193.136 510.24 194.083 510.943 194.89C511.646 195.698 512.512 196.348 513.483 196.799C517.532 198.85 522.98 197.526 526.842 195.643C531.096 193.554 537.57 185.778 538.353 184.827C541.282 186.543 544.156 188.202 546.861 189.694C554.119 193.704 560.443 196.911 565.35 199.298C581.209 213.414 603.803 215.26 603.803 215.26C603.803 215.26 605.37 188.202 589.679 170.17C584.157 163.943 577.31 159.031 569.641 155.792ZM540.592 181.769C541.115 180.669 545.07 172.128 545.406 167.279C546.301 167.13 547.271 166.944 548.074 166.757C549.584 175.335 552.87 183.503 557.719 190.738C554.809 189.296 551.699 187.705 548.391 185.965C545.853 184.678 543.26 183.261 540.592 181.769Z" fill="#75CEA9"/>
<path d="M688.17 152.286C688.17 152.286 661.08 152.734 644.251 169.722C627.422 186.71 627.254 213.787 627.254 213.787C627.254 213.787 654.344 213.34 671.173 196.351C688.002 179.363 688.17 152.286 688.17 152.286Z" fill="#75CEA9"/>
<path d="M617.181 168.734L644.122 145.2L643.003 143.913L617.2 166.44L617.498 135.111L617.648 135.205L640.615 102.627L639.216 101.657L617.536 132.408L618.263 56.9953L616.566 56.9767L616.062 108.165L599.326 93.2655L598.188 94.5336L616.043 110.422L615.67 147.009L590.315 123.941L589.177 125.209L615.651 149.303L615.334 182.626L596.248 167.223L595.166 168.547L615.316 184.79L615.092 206.253H616.808L617.181 168.715V168.734Z" fill="white"/>
<path d="M592.533 177.61L590.835 177.387L588.429 196.296L577.178 183.373H577.197L574.622 160.417L572.943 160.603L575.238 181.135L547.289 149.004L546.002 150.123L564.958 171.923L552.756 171.904V173.601L566.45 173.638L579.753 188.911L560.667 188.669L560.648 190.384L581.246 190.645L593.335 204.538L579.865 205.172L579.94 206.869L594.772 206.179L602.813 215.447L604.101 214.328L589.921 198.03L592.533 177.61Z" fill="white"/>
<path d="M656.735 185.274L679.441 180.985L679.124 179.307L658.806 183.13L688.788 152.883L687.575 151.69L667.239 172.221L666.343 160.044L664.645 160.174L665.634 173.825L651.38 188.221L650.205 169.181L648.507 169.293L649.776 189.843L636.809 202.934L635.186 189.545L633.488 189.75L635.279 204.463L626.641 213.19L627.853 214.384L643.059 199.037L663.619 200.118L663.713 198.403L644.664 197.414L656.716 185.237L656.735 185.274Z" fill="white"/>
<path d="M133.024 50.0213C133.024 50.0213 126.083 46.2917 123.975 43.5505C122.109 41.1635 120.542 37.6391 121.4 34.5995C121.576 33.8778 121.902 33.2013 122.357 32.6137C122.811 32.0261 123.385 31.5408 124.039 31.189C124.694 30.8373 125.415 30.6271 126.156 30.5721C126.897 30.5172 127.642 30.6186 128.341 30.8699C132.501 32.5109 134.348 40.3617 134.087 44.3523C134.069 44.7253 133.098 50.0586 133.024 50.0213Z" fill="#75CEA9"/>
<path d="M196.385 79.6902C196.18 79.9699 192.43 83.8859 192.392 83.83C192.355 83.7741 188.661 76.9303 188.418 73.4245C188.213 70.4594 188.81 66.618 191.198 64.5481C191.744 64.044 192.39 63.6606 193.094 63.4231C193.797 63.1855 194.544 63.0991 195.283 63.1695C196.023 63.2399 196.739 63.4655 197.386 63.8316C198.032 64.1977 198.594 64.696 199.034 65.294C201.59 68.9676 198.81 76.52 196.385 79.6902Z" fill="#75CEA9"/>
<path d="M63.3209 70.1984C63.3209 70.1984 89.7023 89.0701 94.7211 117.247C99.7399 145.424 81.5117 172.221 81.5117 172.221C81.5117 172.221 55.1303 153.349 50.1115 125.172C45.0927 96.9954 63.3209 70.1984 63.3209 70.1984Z" fill="#75CEA9"/>
<path d="M107.37 132.37C107.013 132.111 106.682 131.818 106.382 131.494C104.311 129.349 102.277 126.03 102.781 122.916C102.873 122.179 103.12 121.47 103.505 120.835C103.89 120.2 104.405 119.653 105.016 119.231C105.627 118.808 106.321 118.52 107.051 118.383C107.782 118.247 108.532 118.267 109.255 118.44C112.538 119.317 114.852 123.867 115.934 127.764C117.091 127.279 118.136 126.869 119.031 126.533L119.759 123.606C120.02 122.599 120.151 121.592 120.356 120.585C120.636 119.074 120.841 117.508 121.065 115.96C119.199 115.494 113.602 114.095 111.326 112.23C109.05 110.366 106.456 107.438 106.475 104.286C106.454 103.545 106.59 102.807 106.873 102.122C107.157 101.436 107.582 100.818 108.121 100.308C108.659 99.7975 109.3 99.4065 110 99.1602C110.7 98.9139 111.444 98.818 112.184 98.8785C116.643 99.3634 120.486 106.45 121.289 110.347C121.289 110.478 121.401 111.317 121.494 112.324C121.662 110.795 121.811 109.265 121.923 107.718C122.24 103.298 122.427 98.804 122.632 94.2912C122.632 93.3401 122.725 92.4264 122.781 91.4753C121.177 91.0837 115.15 89.6105 112.744 87.7458C110.337 85.881 107.874 82.9719 107.911 79.8017C107.891 79.0602 108.026 78.3226 108.31 77.637C108.594 76.9515 109.019 76.3334 109.557 75.8231C110.096 75.3128 110.736 74.9218 111.437 74.6755C112.137 74.4292 112.881 74.3333 113.621 74.3938C118.061 74.8787 121.923 81.9649 122.725 85.881C122.725 86.0115 122.856 87.0185 122.949 88.156C123.098 85.6945 123.266 83.2516 123.528 80.846C123.928 76.6963 124.607 72.5782 125.561 68.5197C125.002 68.3892 117.893 66.7482 115.225 64.7901C112.856 62.9253 110.356 59.9976 110.374 56.8461C110.353 56.1029 110.489 55.3636 110.774 54.6766C111.059 53.9897 111.486 53.3706 112.026 52.86C112.567 52.3494 113.21 51.9589 113.912 51.7138C114.615 51.4688 115.361 51.3749 116.102 51.4382C120.542 51.9231 124.386 58.8974 125.188 62.9067C125.188 63.1864 125.58 66.8414 125.655 68.1468C125.655 68.1468 125.655 68.1468 125.655 67.9976C126.684 64.0329 128.07 60.1695 129.796 56.4545C131.316 53.1248 133.029 49.8869 134.927 46.7576C136.644 43.8485 138.416 41.2751 139.983 39.0187C140.842 37.8066 141.662 36.7064 142.427 35.6994C142.427 35.6994 143.584 30.422 143.715 30.105C145.058 26.3754 149.872 19.8859 154.349 20.0351C155.091 20.0821 155.814 20.2843 156.471 20.6286C157.129 20.9729 157.708 21.4516 158.168 22.0336C158.629 22.6156 158.963 23.2879 159.147 24.007C159.331 24.7261 159.362 25.4758 159.238 26.2076C158.809 29.3218 155.917 31.9139 153.305 33.3684C150.693 34.8229 144.349 35.5315 142.782 35.6807C142.017 36.7437 141.196 37.8998 140.319 39.1865C138.789 41.4802 137.091 44.0723 135.431 47.0187C134.983 47.8019 134.554 48.6597 134.106 49.4802C135.151 48.2494 136.588 46.5711 136.756 46.4219C139.685 43.718 146.942 40.1935 150.842 42.394C151.479 42.7751 152.028 43.2862 152.454 43.8939C152.88 44.5016 153.173 45.1923 153.314 45.9208C153.455 46.6493 153.44 47.3993 153.272 48.1219C153.103 48.8445 152.784 49.5234 152.334 50.1142C150.469 52.6876 146.737 53.6573 143.771 53.7506C140.804 53.8438 134.629 51.4569 133.323 50.9161C132.352 52.7809 131.457 54.6457 130.543 56.7529C128.928 60.4622 127.642 64.306 126.699 68.24L126.587 68.93C126.998 68.2214 129.517 64.5477 129.722 64.3053C132.334 61.303 139.162 56.9953 143.267 58.7109C143.935 59.021 144.53 59.4667 145.016 60.0197C145.502 60.5726 145.867 61.2207 146.088 61.9225C146.309 62.6243 146.381 63.3644 146.3 64.0958C146.22 64.8271 145.987 65.5336 145.618 66.1701C144.088 68.9486 140.45 70.3099 137.502 70.7388C134.088 71.2237 126.83 69.0792 126.55 69.0046C125.729 72.9486 125.162 76.9412 124.852 80.9579C124.61 83.9415 124.479 86.9625 124.386 89.9835C124.946 89.0884 127.296 85.6758 127.483 85.452C130.095 82.4311 136.924 78.1421 141.047 79.8577C141.715 80.1673 142.311 80.6131 142.796 81.1665C143.281 81.72 143.646 82.3687 143.865 83.0712C144.085 83.7736 144.155 84.5142 144.071 85.2454C143.987 85.9766 143.752 86.6822 143.379 87.3168C141.849 90.0767 138.211 91.438 135.263 91.8669C131.942 92.3518 124.964 90.3192 124.386 90.1513C124.386 91.5313 124.386 92.9112 124.255 94.2912C124.255 98.804 124.069 103.317 123.845 107.774C123.845 109.321 123.64 110.832 123.509 112.361C124.386 111.037 126.009 108.631 126.177 108.482C128.789 105.461 135.618 101.172 139.741 102.888C140.409 103.197 141.005 103.643 141.49 104.197C141.975 104.75 142.34 105.399 142.559 106.101C142.779 106.804 142.849 107.544 142.765 108.276C142.681 109.007 142.446 109.712 142.073 110.347C140.543 113.107 136.905 114.468 133.957 114.897C131.009 115.326 125.095 113.76 123.434 113.293C123.21 115.811 122.931 118.328 122.539 120.753C122.334 121.797 122.203 122.878 121.96 123.885C121.848 124.426 121.737 124.948 121.606 125.47L122.445 125.247C122.445 125.247 122.763 126.608 123.042 128.864C125.841 125.974 130.151 123.139 133.435 123.979C134.15 124.183 134.814 124.536 135.384 125.014C135.953 125.491 136.416 126.084 136.742 126.752C137.067 127.421 137.248 128.15 137.273 128.893C137.298 129.636 137.166 130.376 136.886 131.065C136.745 131.425 136.577 131.774 136.382 132.109C136.423 135.622 135.569 139.087 133.901 142.179C133.77 142.403 131.942 144.827 130.972 146.039C131.979 145.237 132.968 144.454 133.994 143.596C135.468 142.384 136.998 141.042 138.491 139.867L140.748 137.759C141.532 137.069 142.204 136.305 142.931 135.559C143.995 134.459 145.039 133.284 146.066 132.091C144.741 130.655 140.916 126.384 139.983 123.643C139.05 120.902 138.565 116.967 140.319 114.319C140.713 113.689 141.235 113.149 141.851 112.734C142.468 112.319 143.164 112.038 143.896 111.91C144.628 111.782 145.379 111.808 146.1 111.989C146.821 112.17 147.496 112.5 148.081 112.958C151.514 115.811 150.823 123.848 149.331 127.54C149.331 127.671 148.883 128.417 148.416 129.293C149.387 128.119 150.282 126.925 151.327 125.694C154.014 122.188 156.663 118.533 159.331 114.878C159.872 114.114 160.45 113.368 160.991 112.603C159.872 111.41 155.693 106.804 154.704 103.951C153.715 101.098 153.286 97.2748 155.04 94.6268C155.432 93.9947 155.953 93.4525 156.569 93.0357C157.185 92.619 157.883 92.3371 158.615 92.2085C159.348 92.08 160.1 92.1077 160.821 92.2899C161.543 92.472 162.217 92.8045 162.801 93.2655C166.253 96.1187 165.544 104.137 164.07 107.848C164.07 107.979 163.529 108.874 162.988 109.881C164.462 107.904 165.954 105.965 167.503 104.1C170.125 100.856 172.968 97.7969 176.011 94.9438C175.6 94.5149 170.6 89.2189 169.499 86.0488C168.529 83.2329 168.081 79.3728 169.835 76.7248C170.231 76.0973 170.754 75.5595 171.37 75.1461C171.987 74.7328 172.683 74.453 173.414 74.3247C174.145 74.1965 174.895 74.2227 175.615 74.4016C176.335 74.5805 177.01 74.9082 177.596 75.3635C181.029 78.2353 180.339 86.2539 178.846 89.9648C178.846 90.2259 176.981 93.452 176.346 94.5709H176.458C179.504 91.8339 182.788 89.375 186.272 87.2236C189.377 85.286 192.591 83.5302 195.899 81.9649C198.959 80.4917 201.832 79.3169 204.407 78.2353C205.788 77.6945 207.075 77.2283 208.269 76.7994C208.269 76.7994 212.15 73.0698 212.43 72.8274C215.62 70.4405 223.213 67.6992 226.852 70.2913C227.446 70.7376 227.94 71.3041 228.302 71.9539C228.663 72.6037 228.883 73.3223 228.949 74.0628C229.014 74.8033 228.922 75.5493 228.68 76.2521C228.437 76.9549 228.05 77.5989 227.542 78.1421C225.452 80.5103 221.609 81.0698 218.624 80.846C215.639 80.6222 209.967 77.7131 208.586 76.9672C207.355 77.4334 206.03 77.9369 204.575 78.5337C202.056 79.5966 199.202 80.8274 196.198 82.3751L193.716 83.6991C195.265 83.2329 197.448 82.6362 197.616 82.6176C201.552 81.9649 209.556 83.0278 211.59 86.9998C211.913 87.6686 212.091 88.398 212.113 89.1403C212.134 89.8827 211.999 90.6212 211.715 91.3076C211.432 91.9941 211.007 92.613 210.467 93.1239C209.928 93.6348 209.287 94.0262 208.586 94.2725C205.638 95.4287 201.963 94.142 199.425 92.5942C196.888 91.0464 193.063 85.6385 192.261 84.4637C190.395 85.4893 188.53 86.5523 186.664 87.8017C183.267 89.9947 180.076 92.4914 177.13 95.2609L176.626 95.7643C177.354 95.41 181.496 93.7317 181.794 93.6385C185.638 92.5755 193.698 92.762 196.179 96.4916C196.572 97.1216 196.828 97.8274 196.929 98.5629C197.03 99.2984 196.975 100.047 196.768 100.76C196.56 101.473 196.204 102.134 195.723 102.699C195.242 103.265 194.648 103.724 193.977 104.044C191.179 105.517 187.391 104.641 184.649 103.373C181.552 101.9 176.664 96.1 176.477 95.9135C173.618 98.7475 170.945 101.762 168.473 104.939C166.607 107.289 164.853 109.75 163.1 112.23C164.051 111.783 167.895 110.216 168.193 110.142C172.037 109.06 180.096 109.247 182.559 112.976C182.936 113.603 183.179 114.301 183.272 115.026C183.365 115.752 183.306 116.488 183.099 117.19C182.892 117.891 182.541 118.542 182.069 119.1C181.598 119.659 181.015 120.114 180.358 120.436C177.559 121.909 173.772 121.032 171.029 119.764C167.988 118.347 163.286 112.809 162.894 112.305C162.092 113.424 161.29 114.543 160.506 115.68C157.932 119.41 155.357 123.14 152.726 126.701C151.793 127.951 150.861 129.144 149.909 130.431C151.364 129.797 154.032 128.715 154.275 128.659C158.118 127.578 166.178 127.764 168.641 131.494C169.034 132.123 169.291 132.827 169.394 133.562C169.497 134.297 169.443 135.045 169.237 135.757C169.031 136.47 168.677 137.131 168.198 137.698C167.719 138.265 167.126 138.724 166.458 139.046C163.659 140.519 159.872 139.643 157.129 138.375C154.387 137.107 150.375 132.538 149.237 131.233C147.651 133.209 146.047 135.149 144.349 136.976C143.603 137.759 142.894 138.599 142.148 139.289L140.002 141.694C138.435 143.111 136.979 144.435 135.487 145.703L133.285 147.568C134.666 146.71 136.886 145.405 137.017 145.312C140.748 143.652 148.659 142.627 151.663 145.927C152.147 146.492 152.506 147.152 152.718 147.864C152.93 148.577 152.99 149.326 152.893 150.063C152.796 150.8 152.545 151.508 152.157 152.142C151.768 152.775 151.25 153.32 150.637 153.741C148.081 155.606 144.219 155.326 141.308 154.468C138.155 153.536 132.838 148.874 132.185 148.389C130.319 149.918 128.602 151.372 126.923 152.715C122.427 156.277 118.453 159.205 115.374 161.405C106.046 172.874 90.8774 176.734 90.8774 176.734C90.8774 176.734 86.6981 158.403 95.3738 144.249C98.4426 139.45 102.54 135.392 107.37 132.37ZM130.244 146.822C128.17 143.954 126.494 140.817 125.263 137.498C124.647 137.498 124.013 137.498 123.397 137.498C123.357 143.54 122.048 149.505 119.554 155.009C121.419 153.703 123.285 152.249 125.431 150.682C126.961 149.414 128.584 148.146 130.244 146.822Z" fill="#75CEA9"/>
<path d="M25.8184 143.559C25.8184 143.559 44.4756 140.762 57.8902 150.459C71.3048 160.156 74.6818 178.673 74.6818 178.673C74.6818 178.673 56.0245 181.489 42.6099 171.792C29.1953 162.095 25.8184 143.559 25.8184 143.559Z" fill="#75CEA9"/>
<path d="M76.3057 146.673L55.167 133.657L55.7826 132.65L76.0258 145.107L72.2197 123.699L72.1451 123.774L52.6855 104.119L53.5251 103.279L71.9025 121.853L62.7232 70.31L63.8986 70.1049L70.1114 105.088L79.8505 92.9672L80.7834 93.7131L70.3913 106.636L74.8317 131.643L89.5523 112.939L90.4852 113.666L75.1116 133.191L79.1602 155.979L90.4665 143.242L91.3434 144.025L79.4401 157.452L82.0334 172.109L80.8767 172.333L76.3057 146.673Z" fill="white"/>
<path d="M94.2001 149.918L95.3382 149.583L99.1629 162.244L105.376 152.119H105.357L104.48 136.1L105.656 136.044L106.439 150.366L121.888 125.154L122.895 125.769L112.428 142.869L120.768 141.452L120.973 142.627L111.607 144.212L104.256 156.203L117.279 153.853L117.484 155.009L103.417 157.564L96.7375 168.454L106.029 167.335L106.178 168.51L95.9539 169.741L91.4948 177.014L90.4873 176.38L98.3234 163.606L94.2001 149.918Z" fill="white"/>
<path d="M51.1373 162.543L35.092 162.207L35.1107 161.032L49.4581 161.312L25.4648 144.044L26.1552 143.074L42.443 154.804L41.6594 146.375L42.8348 146.263L43.7117 155.718L55.1299 163.941L53.7493 150.776L54.9247 150.645L56.4173 164.874L66.7907 172.333L66.3803 162.99L67.5557 162.934L68.0221 173.228L74.9253 178.188L74.235 179.158L62.0704 170.393L48.1148 173.489L47.8536 172.333L60.7831 169.461L51.1373 162.524V162.543Z" fill="white"/>
<path d="M368.447 154.039C368.447 154.039 362.159 158.347 361.357 158.925C360.554 159.503 358.987 173.843 358.987 174.533C358.987 175.223 370.182 174.328 372.234 172.165C374.286 170.002 374.398 163.27 374.398 163.27C374.137 161.391 373.469 159.593 372.441 157.998C371.413 156.404 370.05 155.053 368.447 154.039Z" fill="white" stroke="#2B2B2B" stroke-linecap="round" stroke-linejoin="round"/>
<path d="M385.628 86.0301L384.583 133.116L368.37 154.039C368.37 154.039 374.639 158.738 374.117 163.96L391.916 152.976C391.916 152.976 391.916 105.909 390.871 93.8809C389.826 81.853 386.748 81.853 385.628 86.0301Z" fill="white" stroke="#2B2B2B" stroke-linecap="round" stroke-linejoin="round"/>
<path d="M357.98 174.943C357.98 174.943 361.115 165.023 361.712 163.438C362.309 161.853 378.503 161.871 378.503 161.871C378.838 163.246 379.02 164.653 379.044 166.067C379.044 168.156 375.313 170.244 375.313 170.244C375.378 171.547 375.127 172.847 374.581 174.032C374.036 175.217 373.211 176.253 372.179 177.051C369.246 179.305 366.059 181.208 362.682 182.72L356.395 180.631L357.98 174.943Z" fill="white" stroke="#2B2B2B" stroke-linecap="round" stroke-linejoin="round"/>
<path d="M367.083 155.568C367.083 155.568 363.538 155.568 362.941 156.557C362.344 157.545 363.333 166.44 364.527 166.44C365.721 166.44 368.072 167.223 368.463 164.855C368.855 162.487 369.657 155.177 367.083 155.568Z" fill="white" stroke="#2B2B2B" stroke-linecap="round" stroke-linejoin="round"/>
<path d="M277.528 409.87C277.528 409.87 273.069 420.164 274.3 423.837C275.531 427.511 277.416 429.861 285.812 427.063C294.207 424.266 313.797 409.273 313.797 405.581C313.797 401.889 290.457 406.812 290.457 406.812C290.457 406.812 289.188 410.485 277.528 409.87Z" fill="white" stroke="#2B2B2B" stroke-linecap="round" stroke-linejoin="round"/>
<path d="M225.718 375.353C225.718 375.353 224.524 384.397 225.326 385.796C226.057 386.814 227.025 387.64 228.146 388.202C229.268 388.764 230.509 389.045 231.763 389.022C234.58 388.817 236.39 388.817 236.987 386.597C237.584 384.378 237.994 382.178 238.591 380.369C239.13 378.965 239.338 377.456 239.199 375.958C239.06 374.461 238.577 373.016 237.789 371.735C235.569 367.912 227.714 369.068 225.214 376.136" fill="white"/>
<path d="M225.718 375.353C225.718 375.353 224.524 384.397 225.326 385.796C226.057 386.814 227.025 387.64 228.146 388.202C229.268 388.764 230.509 389.045 231.763 389.022C234.58 388.817 236.39 388.817 236.987 386.597C237.584 384.378 237.994 382.178 238.591 380.369C239.13 378.965 239.338 377.456 239.199 375.958C239.06 374.461 238.577 373.016 237.789 371.735C235.569 367.912 227.714 369.068 225.214 376.136" stroke="#2B2B2B" stroke-linecap="round" stroke-linejoin="round"/>
<path d="M244.356 257.05C244.356 257.05 244.972 284.052 244.972 287.129C244.972 290.206 233.927 311.689 233.927 317.208C233.927 322.728 225.214 376.136 225.214 376.136C225.902 377.168 226.808 378.037 227.869 378.682C228.929 379.326 230.118 379.73 231.352 379.865C233.539 379.87 235.676 379.221 237.49 378.001C237.49 378.001 254.282 323.381 259.095 317.861C263.909 312.341 272.603 290.244 272.603 290.244C272.603 290.244 278.201 323.381 277.529 327.67C276.857 331.959 271.391 350.383 271.932 359.595C272.473 368.807 276.839 412.369 276.839 412.369C277.833 413.644 279.169 414.611 280.692 415.156C282.215 415.701 283.862 415.801 285.44 415.446C289.051 414.36 292.117 411.948 294.022 408.695C294.022 408.695 301.392 349.768 302.007 343.633C302.623 337.497 309.377 300.052 309.993 287.167C310.608 274.281 310.608 256.472 310.608 256.472C298.36 258.899 285.701 258.258 273.76 254.607C263.96 251.554 254.515 247.459 245.588 242.393L244.356 257.05Z" fill="#2B2B2B" stroke="#2B2B2B" stroke-linecap="round" stroke-linejoin="round"/>
<path d="M294.021 78.049C294.933 81.1793 295.655 84.3614 296.186 87.5781C296.127 89.1696 295.983 90.7569 295.757 92.3334C295.757 92.3334 299.227 94.0676 299.227 96.2308C299.227 98.3939 296.186 102.291 296.186 102.291L294.898 112.678C294.451 116.128 291.857 120.026 289.301 120.883C286.89 121.417 284.409 121.568 281.95 121.331L280.644 135.597L255.961 126.515L257.696 113.461C257.696 113.461 252.099 98.3193 254.673 89.6667C257.248 81.0141 268.088 78.8509 274.581 76.6132C281.073 74.3754 294.021 78.049 294.021 78.049Z" fill="white" stroke="#2B2B2B" stroke-linecap="round" stroke-linejoin="round"/>
<path d="M256.37 117.452C256.37 117.452 243.31 102.31 242.508 88.0253C241.706 73.741 246.836 64.6594 255.568 61.6385C264.3 58.6175 268.983 59.4566 268.983 59.4566C268.983 59.4566 262.49 58.1699 269.43 55.1303C276.371 52.0907 284.151 57.2935 284.151 57.2935C284.151 57.2935 279.822 53.8436 285.009 54.2725C290.196 54.7014 292.36 57.2935 297.136 68.1279C301.913 78.9624 288.909 82.8225 286.744 83.6989C284.58 84.5754 290.644 87.1675 289.767 89.2933C288.89 91.4192 284.17 94.8877 284.17 94.8877L285.457 104.417C285.457 104.417 283.293 107.867 282.005 105.704C280.718 103.54 280.27 99.214 276.408 101.806C272.546 104.398 277.266 112.995 278.572 112.995C279.878 112.995 275.531 117.75 269.915 119.484C267.003 120.56 263.83 120.71 260.829 119.913C259.955 119.84 259.105 119.583 258.337 119.159C257.568 118.734 256.898 118.153 256.37 117.452Z" fill="#2B2B2B" stroke="#2B2B2B" stroke-linecap="round" stroke-linejoin="round"/>
<path d="M250.736 126.515C251.485 125.049 252.698 123.872 254.187 123.167C255.675 122.462 257.355 122.269 258.964 122.617C264.561 123.923 276.278 128.678 278.871 132.146C281.465 135.615 284.469 145.983 284.469 145.983L252.434 131.699C252.434 131.699 247.695 129.536 250.736 126.515Z" fill="white" stroke="#2B2B2B" stroke-linecap="round" stroke-linejoin="round"/>
<path d="M226.35 243.102L227.265 247.67V257.311L225.884 261.041L223.608 261.955V259.661L224.97 268.369L222.227 270.645C222.227 270.645 216.276 261.041 214.895 258.3C213.514 255.558 214.895 243.027 214.895 243.027C214.895 243.027 217.19 245.395 226.35 243.102Z" fill="white" stroke="#2B2B2B" stroke-linecap="round" stroke-linejoin="round"/>
<path d="M308.22 158.253C308.22 158.253 295.943 152.1 283.051 144.137C270.159 136.174 251.726 127.559 246.819 124.482C241.912 121.405 237.826 117.284 229.02 123.27C212.004 134.794 221.65 168.025 221.65 172.351C221.65 176.678 212.433 204.892 213.049 210.412C213.665 215.932 214.915 242.934 214.915 242.934C214.915 242.934 217.359 247.857 226.576 245.395C226.576 245.395 232.714 217.162 233.33 209.181C234.25 201.928 235.684 194.749 237.621 187.699L243.778 222.682L237.621 251.53C237.621 251.53 241.931 265.647 256.054 270.551C270.178 275.456 284.88 279.689 302.082 273.628C308.836 271.223 319.899 261.973 319.899 261.973C319.899 261.973 314.302 199.372 314.302 196.295C314.302 193.218 313.145 171.755 308.22 158.253Z" fill="white"/>
<path d="M302.082 273.628C308.836 271.223 319.9 261.973 319.9 261.973C319.9 261.973 317.512 234.934 315.87 215.54C315.468 215.371 315.027 215.32 314.598 215.393C314.168 215.465 313.768 215.659 313.444 215.95C309.209 219.475 310.627 250.561 307.847 249.162C305.067 247.764 291.597 209.573 280.981 194.039C270.365 178.505 284.526 203.214 281.69 211.698C278.854 220.183 249.972 162.934 234.319 155.867C218.665 148.799 231.483 168.584 231.483 168.584L234.338 202.263C235.644 195.158 237.659 187.699 237.659 187.699L243.815 222.682L237.659 251.53C237.659 251.53 241.968 265.647 256.092 270.551C270.216 275.456 284.88 279.689 302.082 273.628Z" fill="#75CEA9"/>
<path opacity="0.5" d="M302.082 273.628C308.836 271.223 319.9 261.973 319.9 261.973C319.9 261.973 317.512 234.934 315.87 215.54C315.468 215.371 315.027 215.32 314.598 215.393C314.168 215.465 313.768 215.659 313.444 215.95C309.209 219.475 310.627 250.561 307.847 249.162C305.067 247.764 291.597 209.573 280.981 194.039C270.365 178.505 284.526 203.214 281.69 211.698C278.854 220.183 249.972 162.934 234.319 155.867C218.665 148.799 231.483 168.584 231.483 168.584L234.338 202.263C235.644 195.158 237.659 187.699 237.659 187.699L243.815 222.682L237.659 251.53C237.659 251.53 241.968 265.647 256.092 270.551C270.216 275.456 284.88 279.689 302.082 273.628Z" fill="white"/>
<path d="M308.22 158.253C308.22 158.253 295.943 152.1 283.051 144.137C270.159 136.174 251.726 127.559 246.819 124.482C241.912 121.405 237.826 117.284 229.02 123.27C212.004 134.794 221.65 168.025 221.65 172.351C221.65 176.678 212.433 204.892 213.049 210.412C213.665 215.932 214.915 242.934 214.915 242.934C214.915 242.934 217.359 247.857 226.576 245.395C226.576 245.395 232.714 217.162 233.33 209.181C234.25 201.928 235.684 194.749 237.621 187.699L243.778 222.682L237.621 251.53C237.621 251.53 241.931 265.647 256.054 270.551C270.178 275.456 284.88 279.689 302.082 273.628C308.836 271.223 319.899 261.973 319.899 261.973C319.899 261.973 314.302 199.372 314.302 196.295C314.302 193.218 313.145 171.755 308.22 158.253Z" stroke="#2B2B2B" stroke-linecap="round" stroke-linejoin="round"/>
<path d="M237.603 187.699C237.603 187.699 232.006 172.426 227.584 160.212" stroke="#2B2B2B" stroke-linecap="round" stroke-linejoin="round"/>
<path d="M295.327 159.466C295.327 159.466 304.543 157.023 308.219 158.253C311.894 159.484 330.328 208.603 330.328 208.603L354.899 178.542C354.899 178.542 358.631 173.619 365.944 184.137L334.638 243.046C334.638 243.046 330.906 248.64 324.805 243.661C318.704 238.682 287.957 190.179 287.957 190.179" fill="white"/>
<path d="M295.327 159.466C295.327 159.466 304.543 157.023 308.219 158.253C311.894 159.484 330.328 208.603 330.328 208.603L354.899 178.542C354.899 178.542 358.631 173.619 365.944 184.137L334.638 243.046C334.638 243.046 330.906 248.64 324.805 243.661C318.704 238.682 287.957 190.179 287.957 190.179" stroke="#2B2B2B" stroke-linecap="round" stroke-linejoin="round"/>
<path d="M457.925 327.558C457.925 327.558 457.403 348.686 462.123 355.045C466.844 361.404 472.59 359.632 472.59 352.77C472.59 345.908 469.978 331.567 466.302 325.283C462.627 318.999 457.925 327.558 457.925 327.558Z" fill="white" stroke="#2B2B2B" stroke-linecap="round" stroke-linejoin="round"/>
<path d="M397.216 290.02C397.216 290.02 381.002 300.481 379.958 305.703C378.913 310.924 398.783 305.18 404.548 297.852C410.313 290.523 404.548 287.931 397.216 290.02Z" fill="white" stroke="#2B2B2B" stroke-linecap="round" stroke-linejoin="round"/>
<path d="M390.946 182.72C390.946 182.72 388.838 219.848 391.468 232.938C394.099 246.029 393.558 293.078 393.558 293.078C393.558 293.078 397.289 294.122 400.349 295.167C403.409 296.211 408.204 290.989 408.204 290.989L416.059 232.416L421.283 209.927L433.839 259.605L457.926 330.206C457.926 330.206 459.493 331.791 464.717 332.313C465.373 332.438 466.049 332.427 466.701 332.281C467.353 332.135 467.968 331.857 468.509 331.463C469.049 331.07 469.503 330.57 469.842 329.995C470.182 329.419 470.399 328.78 470.482 328.117L463.15 251.232L457.926 185.852C457.926 185.852 436.992 185.852 423.913 184.286C414.652 182.827 405.655 180.012 397.215 175.932L390.424 173.396L390.946 182.72Z" fill="#2B2B2B" stroke="#2B2B2B" stroke-linecap="round" stroke-linejoin="round"/>
<path d="M417.628 57.7786L390.948 66.6736C386.227 68.2401 385.705 74.5057 385.705 81.8344C385.705 89.163 389.884 150.347 388.839 157.676C387.795 165.004 386.75 186.449 386.75 186.449C390.886 190.361 395.247 194.029 399.81 197.433C403.354 199.531 407.258 200.954 411.321 201.629L415.053 190.645L419.755 204.239C419.755 204.239 433.356 208.417 444.345 206.85C455.334 205.284 464.234 188.034 464.234 188.034L458.394 152.976C458.394 152.976 475.185 88.1374 470.95 80.2493C466.715 72.3612 450.539 62.9813 439.55 59.3263C432.454 57.1566 424.958 56.6273 417.628 57.7786Z" fill="white"/>
<path d="M460.519 108.52C460.519 108.52 455.556 122.655 451.32 138.916C447.085 155.177 432.943 184.137 431.525 186.263C430.107 188.389 401.823 150.216 403.95 155.867C405.688 161.197 407.103 166.627 408.185 172.128L387.662 118.254C388.613 135.876 389.528 153.927 388.912 157.694C387.867 165.023 386.822 186.449 386.822 186.449C390.958 190.361 395.319 194.029 399.882 197.433C403.427 199.531 407.33 200.954 411.394 201.629L415.125 190.645L419.827 204.239C419.827 204.239 433.428 208.417 444.417 206.85C455.406 205.284 464.306 188.034 464.306 188.034L458.392 152.976C458.392 152.976 463.093 134.757 466.881 116.464L460.519 108.52Z" fill="#75CEA9"/>
<path opacity="0.5" d="M460.519 108.52C460.519 108.52 455.556 122.655 451.32 138.916C447.085 155.177 432.943 184.137 431.525 186.263C430.107 188.389 401.823 150.216 403.95 155.867C405.688 161.197 407.103 166.627 408.185 172.128L387.662 118.254C388.613 135.876 389.528 153.927 388.912 157.694C387.867 165.023 386.822 186.449 386.822 186.449C390.958 190.361 395.319 194.029 399.882 197.433C403.427 199.531 407.33 200.954 411.394 201.629L415.125 190.645L419.827 204.239C419.827 204.239 433.428 208.417 444.417 206.85C455.406 205.284 464.306 188.034 464.306 188.034L458.392 152.976C458.392 152.976 463.093 134.757 466.881 116.464L460.519 108.52Z" fill="white"/>
<path d="M417.628 57.7786L390.948 66.6736C386.227 68.2401 385.705 74.5057 385.705 81.8344C385.705 89.163 389.884 150.347 388.839 157.676C387.795 165.004 386.75 186.449 386.75 186.449C390.886 190.361 395.247 194.029 399.81 197.433C403.354 199.531 407.258 200.954 411.321 201.629L415.053 190.645L419.755 204.239C419.755 204.239 433.356 208.417 444.345 206.85C455.334 205.284 464.234 188.034 464.234 188.034L458.394 152.976C458.394 152.976 475.185 88.1374 470.95 80.2493C466.715 72.3612 450.539 62.9813 439.55 59.3263C432.454 57.1566 424.958 56.6273 417.628 57.7786V57.7786Z" stroke="#2B2B2B" stroke-linecap="round" stroke-linejoin="round"/>
<path d="M408.204 60.9302L400.349 77.676L408.727 89.1818L398.782 97.0139L412.402 116.37" fill="white"/>
<path d="M408.204 60.9302L400.349 77.676L408.727 89.1818L398.782 97.0139L412.402 116.37" stroke="#2B2B2B" stroke-linecap="round" stroke-linejoin="round"/>
<path d="M445.891 61.9742L451.115 85.5079L438.559 88.6594L444.305 97.0137C444.305 97.0137 436.469 105.909 429.137 110.067C421.804 114.226 408.726 122.095 408.726 122.095L412.457 179.624" fill="white"/>
<path d="M445.891 61.9742L451.115 85.5079L438.559 88.6594L444.305 97.0137C444.305 97.0137 436.469 105.909 429.137 110.067C421.804 114.226 408.726 122.095 408.726 122.095L412.457 179.624" stroke="#2B2B2B" stroke-linecap="round" stroke-linejoin="round"/>
<path d="M414.493 57.7786C414.493 57.7786 412.926 76.0909 412.926 86.5524C413.223 94.6507 414.272 102.704 416.06 110.608C416.06 110.608 431.229 89.1631 435.949 80.268C440.669 71.373 442.74 63.4849 439.68 59.3451C436.621 55.2052 433.915 55.6155 433.915 55.6155C433.915 55.6155 419.213 51.5129 414.493 57.7786Z" fill="white" stroke="#2B2B2B" stroke-linecap="round" stroke-linejoin="round"/>
<path d="M416.582 83.4196L417.627 87.6153L413.97 99.1211L416.059 110.627L422.851 100.688L421.806 88.6596L425.481 84.4638L422.851 76.6317L416.582 83.4196Z" fill="#2B2B2B"/>
<path d="M413.448 84.4636L421.807 79.7643L430.184 88.1372" stroke="#2B2B2B" stroke-linecap="round" stroke-linejoin="round"/>
<path d="M464.194 195.344L461.06 206.328L462.104 214.701H464.194L465.239 210.002L465.761 222.029L471.004 222.552L476.75 208.416V196.389L464.194 195.344Z" fill="white" stroke="#2B2B2B" stroke-linecap="round" stroke-linejoin="round"/>
<path d="M465.855 85.508C465.855 85.508 456.956 98.5616 456.433 104.865C455.911 111.168 458.019 118.459 459.064 123.699C460.109 128.939 459.587 154.039 461.676 162.86C463.766 171.68 464.288 195.288 464.288 195.288C464.288 195.288 468.02 200.528 476.844 196.333C476.844 196.333 480.576 156.072 479.475 135.149C478.805 122.402 476.696 109.772 473.188 97.4986C473.188 97.4986 475.8 83.3635 470.576 78.1421" fill="white"/>
<path d="M465.855 85.508C465.855 85.508 456.956 98.5616 456.433 104.865C455.911 111.168 458.019 118.459 459.064 123.699C460.109 128.939 459.587 154.039 461.676 162.86C463.766 171.68 464.288 195.288 464.288 195.288C464.288 195.288 468.02 200.528 476.844 196.333C476.844 196.333 480.576 156.072 479.475 135.149C478.805 122.402 476.696 109.772 473.188 97.4986C473.188 97.4986 475.8 83.3635 470.576 78.1421" stroke="#2B2B2B" stroke-linecap="round" stroke-linejoin="round"/>
<path d="M419.213 60.9297C419.213 60.9297 418.691 79.7641 421.825 79.7641C424.96 79.7641 432.814 59.3633 433.859 55.7083C434.904 52.0533 419.213 60.9297 419.213 60.9297Z" fill="white" stroke="#2B2B2B" stroke-linecap="round" stroke-linejoin="round"/>
<path d="M408.464 24.2122C408.464 24.2122 407.046 42.4872 410.329 49.9836C413.613 57.4801 415.927 66.7668 421.113 67.3075C426.3 67.8483 437.513 53.2657 437.513 53.2657L438.912 49.5361C442.487 44.2779 444.434 38.0841 444.51 31.7273C444.547 21.3404 417.345 14.7764 408.464 24.2122Z" fill="white" stroke="#2B2B2B" stroke-linecap="round" stroke-linejoin="round"/>
<path d="M416.841 39.858L415.685 50.7484L420.274 51.8859" fill="white"/>
<path d="M416.841 39.858L415.685 50.7484L420.274 51.8859" stroke="#2B2B2B" stroke-width="0.75" stroke-linecap="round" stroke-linejoin="round"/>
<path d="M413.764 39.8951C413.764 41.1072 413.447 42.0956 413.055 42.0956C412.664 42.0956 412.365 41.1072 412.365 39.8951C412.365 38.683 412.682 37.676 413.055 37.676C413.428 37.676 413.764 38.6644 413.764 39.8951Z" fill="#2B2B2B"/>
<path d="M423.746 42.6737C423.746 43.9045 423.448 44.8928 423.056 44.8928C422.665 44.8928 422.366 43.9045 422.366 42.6737C422.366 41.4429 422.665 40.4733 423.056 40.4733C423.448 40.4733 423.746 41.4616 423.746 42.6737Z" fill="#2B2B2B"/>
<path d="M420.5 37.5641C420.5 37.5641 425.836 36.1655 428.168 40.1189L420.5 37.5641Z" fill="white"/>
<path d="M420.5 37.5641C420.5 37.5641 425.836 36.1655 428.168 40.1189" stroke="#2B2B2B" stroke-width="0.75" stroke-linecap="round" stroke-linejoin="round"/>
<path d="M410.743 35.2518C411.577 34.8685 412.527 34.8234 413.394 35.126C414.26 35.4286 414.975 36.0553 415.389 36.8742" fill="white"/>
<path d="M410.743 35.2518C411.577 34.8685 412.527 34.8234 413.394 35.126C414.26 35.4286 414.975 36.0553 415.389 36.8742" stroke="#2B2B2B" stroke-width="0.75" stroke-linecap="round" stroke-linejoin="round"/>
<path d="M415.854 55.4475C416.578 56.2271 417.543 56.7423 418.594 56.9113C419.646 57.0802 420.723 56.8932 421.656 56.3799" fill="white"/>
<path d="M415.854 55.4475C416.578 56.2271 417.543 56.7423 418.594 56.9113C419.646 57.0802 420.723 56.8932 421.656 56.3799" stroke="#2B2B2B" stroke-width="0.75" stroke-linecap="round" stroke-linejoin="round"/>
<path d="M416.431 4.94893C416.431 4.94893 400.498 8.21231 402.364 18.0025C404.23 27.7926 420.163 30.6458 424.865 30.6458C428.336 30.5323 431.787 30.0637 435.163 29.2472C435.163 29.2472 430.48 34.394 433.298 36.7063C436.115 39.0187 437.514 40.4359 437.514 40.4359C437.514 40.4359 440.798 42.7856 440.798 39.9697C440.97 37.5833 441.44 35.2278 442.197 32.9581L446.414 32.4733C446.414 32.4733 452.011 22.1796 450.145 15.1493C448.279 8.11908 434.697 -5.82957 416.431 4.94893Z" fill="#2B2B2B" stroke="#2B2B2B" stroke-linecap="round" stroke-linejoin="round"/>
<path d="M437.514 40.529C437.514 40.529 440.797 27.8857 446.413 32.5664C452.029 37.247 441.73 46.6269 439.379 46.1607" fill="white"/>
<path d="M437.514 40.529C437.514 40.529 440.797 27.8857 446.413 32.5664C452.029 37.247 441.73 46.6269 439.379 46.1607" stroke="#2B2B2B" stroke-linecap="round" stroke-linejoin="round"/>
</svg>
