<svg width="980" height="797" viewBox="0 0 980 797" fill="none" xmlns="http://www.w3.org/2000/svg">
<path d="M680.062 459.948C679.808 459.948 679.556 459.933 679.302 459.918C680.047 455.535 680.821 451.137 681.848 446.724C682.83 450.973 683.589 455.192 684.304 459.426C682.913 459.757 681.491 459.932 680.062 459.948Z" fill="#2B2B2B"/>
<path d="M684.855 462.661C684.825 465.196 684.825 467.731 684.825 470.265C684.825 473.038 684.84 475.826 684.825 478.6V558.259C683.917 563.581 683.039 568.889 681.848 574.196C680.657 568.889 679.779 563.581 678.871 558.259V470.638C678.871 467.984 678.871 465.315 678.841 462.662C678.946 462.065 679.035 461.484 679.139 460.887C680.932 461.099 682.745 461.063 684.528 460.783C684.646 461.409 684.751 462.035 684.855 462.661Z" fill="#2B2B2B"/>
<path d="M583.825 327.943C583.825 327.943 584.138 328.495 584.748 329.36L584.719 329.389L580.342 334.086C578.556 335.353 576.77 336.62 574.849 337.753C575.862 335.77 577.008 333.907 578.139 332.028L581.458 328.495C582.903 328.197 583.825 327.943 583.825 327.943Z" fill="#FDB914"/>
<path d="M609.98 300.212C608.953 302.18 607.807 304.059 606.675 305.922L602.284 310.619L601.48 311.469C600.409 311.11 599.315 310.826 598.205 310.619L600.11 308.576L604.502 303.88C606.288 302.627 608.074 301.375 609.98 300.212Z" fill="#FDB914"/>
<path d="M658.638 336.331C658.869 335.814 659.224 335.363 659.672 335.018C660.007 334.765 660.401 334.6 660.816 334.539C661.232 334.482 661.655 334.534 662.044 334.69C662.566 334.899 663.026 335.238 663.382 335.674H663.386L663.404 335.702L663.386 335.729L663.389 335.73C663.159 336.244 662.803 336.691 662.353 337.029C662.017 337.28 661.622 337.441 661.207 337.494C660.79 337.543 660.367 337.487 659.977 337.33C659.455 337.113 658.995 336.77 658.638 336.331Z" fill="#2B2B2B"/>
<path d="M598.001 344.399L565.43 348.431C554.572 349.766 543.71 351.065 532.844 352.328C511.11 354.829 489.391 357.478 467.641 359.835L402.41 367.081L337.142 373.984L337.134 373.985C336.954 374.003 336.772 373.984 336.599 373.929C327.294 370.909 317.978 367.919 308.698 364.818L280.835 355.593C271.54 352.537 262.262 349.433 252.998 346.281L225.206 336.831L253.311 345.302C262.679 348.126 272.033 350.996 281.372 353.912L309.405 362.608C318.758 365.48 328.075 368.465 337.401 371.419L336.859 371.363L402.091 364.129L467.361 357.238C489.111 354.882 510.892 352.818 532.658 350.607C543.541 349.498 554.429 348.44 565.323 347.436L598.001 344.399Z" fill="#2B2B2B"/>
<path d="M225.202 350.723C234.425 353.939 243.589 357.307 252.782 360.603L280.266 370.734L294.002 375.815L307.694 381.011L335.078 391.402L334.379 391.318C347.429 389.552 360.505 387.991 373.571 386.351L412.78 381.505L452.022 376.925C465.115 375.487 478.199 373.991 491.306 372.669C478.289 374.693 465.249 376.545 452.218 378.454L413.088 383.915L373.924 389.109C360.866 390.816 347.818 392.603 334.745 394.184L334.728 394.186C334.497 394.213 334.262 394.184 334.045 394.1L306.749 383.477L293.101 378.166L279.497 372.74L252.301 361.857C243.267 358.148 234.205 354.512 225.202 350.723Z" fill="#2B2B2B"/>
<path d="M333.453 526.27C333.173 513.456 333.083 500.648 333.183 487.843C333.241 475.037 333.473 462.236 333.739 449.435C334.06 436.635 334.419 423.837 334.952 411.042C335.442 398.247 336.124 385.455 337 372.669C337.283 385.482 337.374 398.291 337.275 411.096C337.215 423.902 336.983 436.703 336.713 449.504C336.388 462.303 336.029 475.102 335.496 487.897C335.005 500.692 334.324 513.483 333.453 526.27Z" fill="#2B2B2B"/>
<path d="M732.73 234.666C730.899 233.846 729.218 232.723 727.758 231.345C726.311 229.925 725.06 228.319 724.036 226.569C723.032 224.809 722.201 222.956 721.555 221.035C720.904 219.094 720.434 217.096 720.152 215.068C720.14 214.975 720.142 214.881 720.159 214.788L720.191 214.621C720.65 212.537 720.886 210.41 720.895 208.276C720.91 206.15 720.686 204.03 720.227 201.956C719.315 197.82 717.599 193.905 715.177 190.433L715.341 190.605C712.765 188.139 709.896 186 706.8 184.234C703.657 182.507 700.244 181.325 696.707 180.74C689.449 179.822 682.088 181.27 675.716 184.869C674.115 185.728 672.57 186.689 671.093 187.748C670.356 188.275 669.634 188.821 668.938 189.389C668.611 189.659 668.201 189.994 667.983 190.222C667.706 190.521 667.423 190.869 667.149 191.208C665.018 194.05 663.414 197.253 662.411 200.663C661.404 204.056 660.875 207.573 660.84 211.113C660.876 214.665 661.301 218.202 662.108 221.66C662.161 221.907 662.165 222.162 662.121 222.411C661.784 224.275 661.421 226.099 661.009 227.942C660.615 229.818 660.117 231.672 659.516 233.493C659.236 234.345 658.567 235.834 658.717 235.524C658.655 235.417 658.752 235.697 659.276 236.064C660.47 236.791 661.832 237.194 663.229 237.232L663.371 237.226C663.683 237.215 663.993 237.281 664.274 237.418C664.555 237.555 664.799 237.759 664.983 238.011C667.069 240.904 669.275 243.756 671.464 246.581C673.597 249.386 675.911 252.048 678.392 254.549C678.699 254.829 679.005 255.092 679.304 255.321C679.446 255.421 679.597 255.528 679.72 255.602L679.885 255.694C679.934 255.721 679.923 255.702 679.942 255.724C680.001 255.757 679.812 255.692 679.761 255.745C679.716 255.772 679.909 255.714 679.971 255.704C680.165 255.663 680.358 255.611 680.547 255.551C680.939 255.441 681.345 255.298 681.746 255.162C683.376 254.561 684.955 253.829 686.468 252.975C689.566 251.378 692.232 249.055 694.239 246.203L694.287 246.128C694.327 246.065 694.38 246.011 694.441 245.968C694.502 245.925 694.572 245.895 694.645 245.879C694.718 245.863 694.793 245.862 694.867 245.875C694.94 245.889 695.01 245.916 695.073 245.957L695.135 246.003C696.026 246.758 696.855 247.583 697.614 248.471C697.998 248.915 698.343 249.393 698.642 249.898C698.967 250.406 699.189 250.971 699.298 251.564C699.305 251.609 699.294 251.656 699.268 251.695C699.241 251.733 699.202 251.76 699.157 251.77C699.112 251.781 699.064 251.774 699.024 251.751C698.984 251.728 698.953 251.691 698.939 251.647L698.936 251.636C698.512 250.629 697.851 249.739 697.011 249.041C696.201 248.287 695.332 247.598 694.412 246.982L695.308 246.782C693.512 250.115 690.878 252.921 687.667 254.921C686.106 255.966 684.464 256.884 682.756 257.664C682.314 257.85 681.884 258.048 681.414 258.208C681.188 258.294 680.949 258.375 680.694 258.446C680.548 258.496 680.399 258.534 680.247 258.559C679.965 258.604 679.676 258.6 679.395 258.548C678.759 258.4 678.158 258.13 677.624 257.753C677.186 257.46 676.789 257.156 676.409 256.848C673.636 254.389 671.06 251.714 668.706 248.85C666.318 246.081 664.089 243.225 661.862 240.319L663.615 241.098C662.448 241.171 661.276 241.044 660.152 240.722C659.045 240.437 657.994 239.966 657.044 239.33C656.461 238.944 655.953 238.454 655.546 237.885C655.016 237.163 654.745 236.282 654.777 235.386C654.787 234.949 654.876 234.516 655.038 234.11L655.247 233.583L655.36 233.331C655.514 233.007 655.66 232.594 655.8 232.2C656.894 228.76 657.801 225.262 658.516 221.723L658.529 222.473C657.76 218.71 657.41 214.873 657.485 211.033C657.639 207.175 658.394 203.365 659.723 199.741C660.048 198.836 660.462 197.963 660.845 197.084C661.307 196.238 661.694 195.359 662.217 194.55C663.184 192.888 664.318 191.328 665.602 189.896C665.934 189.538 666.255 189.19 666.63 188.835C667.01 188.51 667.406 188.204 667.818 187.92C668.59 187.37 669.376 186.854 670.175 186.359C671.77 185.364 673.435 184.501 675.113 183.676C681.847 180.283 689.361 178.744 696.885 179.217C700.683 179.537 704.401 180.491 707.885 182.041C711.375 183.617 714.609 185.708 717.479 188.245C717.534 188.293 717.584 188.345 717.63 188.401L717.643 188.418C719.113 190.302 720.336 192.368 721.282 194.564C722.238 196.722 722.942 198.983 723.378 201.303C723.858 203.618 724.04 205.984 723.921 208.345C723.816 210.698 723.449 213.03 722.827 215.301L722.866 214.855C723.008 216.718 723.319 218.565 723.795 220.371C724.256 222.205 724.881 223.992 725.662 225.713C726.455 227.432 727.455 229.046 728.641 230.521C729.865 231.997 731.301 233.283 732.902 234.338L732.913 234.346C732.951 234.372 732.978 234.412 732.988 234.457C732.998 234.502 732.991 234.55 732.968 234.59C732.945 234.63 732.908 234.66 732.864 234.674C732.82 234.688 732.772 234.686 732.73 234.666L732.73 234.666Z" fill="#2B2B2B"/>
<path d="M665.42 232.578C665.098 232.578 664.782 232.495 664.503 232.335C664.223 232.175 663.99 231.945 663.827 231.668L658.728 223.008C658.604 222.798 658.522 222.567 658.487 222.326C658.453 222.085 658.466 221.839 658.527 221.604C658.587 221.368 658.693 221.146 658.839 220.952C658.985 220.757 659.168 220.593 659.377 220.47C659.586 220.346 659.818 220.265 660.059 220.231C660.299 220.197 660.544 220.211 660.78 220.272C661.015 220.333 661.236 220.44 661.43 220.586C661.624 220.733 661.787 220.917 661.91 221.127L667.009 229.787C667.175 230.068 667.264 230.387 667.266 230.714C667.268 231.04 667.185 231.361 667.023 231.644C666.862 231.928 666.629 232.163 666.347 232.327C666.065 232.491 665.745 232.578 665.42 232.578Z" fill="#2B2B2B"/>
<path d="M661.439 224.893C661.242 224.893 661.051 224.83 660.892 224.714C660.734 224.597 660.617 224.433 660.558 224.245C660.499 224.057 660.501 223.856 660.564 223.669C660.628 223.483 660.748 223.322 660.909 223.209C663.59 221.336 687.253 204.952 692.286 205.155C692.407 205.16 692.526 205.19 692.636 205.241C692.746 205.293 692.844 205.366 692.926 205.455C693.008 205.545 693.071 205.65 693.113 205.764C693.154 205.879 693.172 206 693.167 206.121C693.152 206.365 693.043 206.594 692.863 206.759C692.683 206.924 692.445 207.011 692.202 207.004C692.179 207.002 692.155 207.002 692.131 207.002C688.644 207.002 671.824 217.84 661.966 224.726C661.812 224.834 661.627 224.893 661.439 224.893Z" fill="#2B2B2B"/>
<path d="M689.583 210.52C689.55 209.139 689.994 207.788 690.839 206.695C691.094 206.398 691.406 206.156 691.757 205.982C692.107 205.807 692.489 205.705 692.879 205.681L693.473 205.672C693.664 205.694 693.841 205.749 694.027 205.788C694.39 205.858 694.74 205.981 695.068 206.153C695.709 206.448 696.316 206.813 696.876 207.244C697.387 207.696 697.926 208.107 698.416 208.601C699.394 209.6 700.201 210.754 700.806 212.015C701.963 214.554 702.291 217.393 701.743 220.13C701.495 221.491 700.968 222.785 700.195 223.933C699.8 224.528 699.255 225.01 698.616 225.329C698.297 225.49 697.933 225.541 697.583 225.473C697.232 225.405 696.913 225.223 696.678 224.954C696.932 225.119 697.231 225.201 697.534 225.188C697.837 225.175 698.128 225.067 698.367 224.881C698.827 224.501 699.188 224.015 699.418 223.464C699.918 222.341 700.223 221.141 700.318 219.915C700.555 217.48 700.146 215.025 699.134 212.798C698.63 211.704 697.961 210.693 697.15 209.803C696.756 209.346 696.283 208.935 695.851 208.493C695.402 208.106 694.924 207.753 694.421 207.438C694.007 207.098 693.492 206.905 692.957 206.889C692.422 206.872 691.897 207.034 691.463 207.348C690.555 208.211 689.904 209.309 689.583 210.52Z" fill="#2B2B2B"/>
<path d="M667.141 244.703C668.556 244.546 669.958 244.281 671.333 243.912C671.963 243.736 672.575 243.497 673.157 243.197C673.785 242.912 674.369 242.511 675.135 242.122C675.01 242.959 674.626 243.736 674.036 244.342C673.447 244.979 672.695 245.443 671.862 245.684C671.043 245.924 670.18 245.965 669.342 245.803C668.516 245.663 667.75 245.28 667.141 244.703Z" fill="#2B2B2B"/>
<path d="M661.439 218.461C661.372 217.193 661.786 215.946 662.597 214.971C663.404 213.965 664.466 213.197 665.673 212.747C666.842 212.317 668.084 212.118 669.328 212.162C669.931 212.207 670.532 212.284 671.126 212.394C671.711 212.544 672.285 212.734 672.844 212.963C672.271 213.11 671.689 213.223 671.103 213.302C670.536 213.406 669.983 213.529 669.435 213.602C668.38 213.809 667.344 214.1 666.336 214.473C664.293 215.196 662.563 216.605 661.439 218.461Z" fill="#2B2B2B"/>
<path d="M669.187 226.369C669.726 226.35 670.236 226.123 670.611 225.735C670.986 225.346 671.195 224.827 671.195 224.287C671.195 223.747 670.986 223.228 670.611 222.84C670.236 222.452 669.726 222.224 669.187 222.206C668.648 222.224 668.138 222.452 667.763 222.84C667.389 223.228 667.179 223.747 667.179 224.287C667.179 224.827 667.389 225.346 667.763 225.735C668.138 226.123 668.648 226.35 669.187 226.369Z" fill="#2B2B2B"/>
<path d="M711.088 279.134C708.975 277.371 706.577 275.981 703.997 275.024C701.452 274.068 698.811 273.392 696.121 273.006C693.414 272.599 690.684 272.374 687.947 272.333L683.799 272.352C682.413 272.415 681.022 272.484 679.606 272.473C680.954 272.079 682.326 271.767 683.703 271.448C685.093 271.237 686.492 271.024 687.9 270.889C690.737 270.662 693.591 270.759 696.406 271.179C699.245 271.595 702.003 272.449 704.581 273.71C707.18 274.927 709.421 276.796 711.088 279.134Z" fill="#2B2B2B"/>
<path d="M607.41 355.047C608.199 352.425 609.248 349.888 610.541 347.475C611.802 345.033 613.279 342.709 614.953 340.53C616.617 338.314 618.562 336.323 620.739 334.609C622.893 332.848 625.445 331.641 628.171 331.094C625.782 332.29 623.591 333.846 621.674 335.707C619.762 337.545 618.003 339.536 616.415 341.661C613.135 345.865 610.331 350.44 607.41 355.047Z" fill="#2B2B2B"/>
<path d="M672.844 383.499C673.675 383.71 674.541 383.754 675.39 383.628C676.232 383.534 677.062 383.345 677.863 383.066L679.042 382.599C679.43 382.433 679.792 382.203 680.166 382.009C680.911 381.609 681.623 381.15 682.296 380.637C685 378.58 687.406 376.159 689.448 373.443C690.438 372.055 691.443 370.678 692.389 369.261C693.276 367.8 694.229 366.384 695.061 364.89L697.538 360.394L699.795 355.774C702.777 349.565 705.694 343.288 708.778 337.112L713.394 327.84C714.993 324.78 716.535 321.692 718.183 318.659C716.91 321.88 715.53 325.046 714.207 328.24L710.058 337.73C707.276 344.053 704.419 350.317 701.461 356.57C698.578 362.924 694.912 368.891 690.549 374.333C688.308 377.036 685.699 379.41 682.797 381.386C682.057 381.861 681.28 382.278 680.475 382.631C680.069 382.802 679.68 383.006 679.263 383.147L678.002 383.533C676.319 384.044 674.52 384.032 672.844 383.499Z" fill="#2B2B2B"/>
<path d="M671.138 341.791C671.027 341.791 670.917 341.771 670.813 341.731L662.544 338.622C662.315 338.535 662.131 338.36 662.03 338.137C661.93 337.914 661.921 337.66 662.007 337.431C662.093 337.202 662.266 337.016 662.489 336.915C662.711 336.813 662.964 336.804 663.194 336.889L671.463 339.999C671.665 340.075 671.835 340.22 671.941 340.409C672.048 340.597 672.085 340.818 672.047 341.031C672.008 341.244 671.896 341.437 671.73 341.576C671.564 341.715 671.354 341.791 671.138 341.791V341.791Z" fill="#2B2B2B"/>
<path d="M603.223 339.486C601.235 340.108 599.127 340.247 597.075 339.893C594.992 339.514 592.997 338.752 591.191 337.645C589.4 336.551 587.751 335.239 586.282 333.738C584.811 332.223 583.504 330.555 582.384 328.762L584.263 329.544C580.448 330.524 576.512 330.95 572.576 330.808C570.563 330.776 568.566 330.437 566.655 329.802C565.634 329.455 564.73 328.831 564.044 327.999C563.687 327.572 563.415 327.08 563.243 326.55C563.117 325.991 563.117 325.411 563.242 324.852C563.52 323.83 564.059 322.899 564.807 322.151C565.472 321.41 566.202 320.731 566.988 320.121C568.51 318.896 570.111 317.772 571.781 316.759C575.07 314.72 578.498 312.915 582.04 311.356C583.822 310.624 585.492 309.77 587.541 309.14C589.537 308.531 591.608 308.207 593.694 308.178C595.756 308.169 597.809 308.445 599.795 308.998C601.759 309.489 603.668 310.179 605.493 311.057C609.047 312.797 612.341 315.026 615.28 317.679C618.206 320.242 620.803 323.159 623.012 326.362C623.037 326.399 623.048 326.445 623.043 326.489C623.038 326.534 623.017 326.575 622.983 326.606C622.95 326.636 622.907 326.653 622.862 326.653C622.817 326.654 622.773 326.638 622.739 326.609L622.73 326.602C617.18 321.566 610.858 317.457 604.007 314.43C602.356 313.725 600.638 313.189 598.881 312.827C597.182 312.368 595.433 312.128 593.674 312.111C591.938 312.057 590.204 312.24 588.518 312.655C586.885 313.05 585.085 313.826 583.306 314.456C579.773 315.807 576.214 317.09 572.762 318.602C571.054 319.366 569.4 320.248 567.814 321.241C567.051 321.748 566.337 322.324 565.681 322.963C565.052 323.545 564.588 324.283 564.335 325.102C564.234 325.482 564.239 325.883 564.348 326.261C564.458 326.639 564.668 326.98 564.956 327.248C565.515 327.88 566.262 328.314 567.087 328.485C568.869 328.848 570.699 328.896 572.497 328.628C576.164 328.055 579.799 327.292 583.387 326.342C583.743 326.26 584.115 326.291 584.452 326.431C584.789 326.571 585.074 326.814 585.266 327.124C586.238 328.711 587.346 330.211 588.578 331.604C589.799 333.03 591.163 334.326 592.647 335.473C594.122 336.62 595.763 337.533 597.513 338.182C599.323 338.834 601.237 339.153 603.161 339.121C603.21 339.12 603.258 339.139 603.294 339.173C603.33 339.207 603.35 339.254 603.352 339.304C603.352 339.344 603.34 339.383 603.316 339.416C603.293 339.448 603.261 339.473 603.223 339.486Z" fill="#2B2B2B"/>
<path d="M634.464 469.621L638.613 479.773C638.632 479.82 638.638 479.871 638.628 479.921C638.619 479.97 638.596 480.016 638.561 480.053C638.526 480.089 638.481 480.115 638.432 480.126C638.383 480.138 638.332 480.135 638.285 480.118L638.269 480.112C636.186 479.298 634.005 478.766 631.782 478.528C629.572 478.342 627.346 478.508 625.187 479.021C620.895 480.232 616.997 482.551 613.883 485.747C610.73 488.926 608.008 492.507 605.786 496.396C603.507 500.256 601.589 504.319 600.058 508.534L600.055 508.543C600.003 508.687 599.908 508.812 599.784 508.901C599.659 508.99 599.511 509.038 599.358 509.04C599.205 509.042 599.055 508.997 598.929 508.911C598.802 508.825 598.705 508.703 598.65 508.56L590.594 487.716L582.674 466.82L584.145 466.464L586.98 495.36C587.896 504.995 588.893 514.621 589.895 524.247C589.902 524.311 589.889 524.375 589.857 524.43C587.68 527.861 584.386 530.432 580.534 531.71C576.76 533.012 572.815 533.75 568.827 533.902C564.858 534.092 560.881 533.999 556.925 533.626C552.966 533.268 549.032 532.678 545.142 531.857C545.049 531.837 544.965 531.79 544.9 531.721C544.834 531.652 544.792 531.565 544.777 531.471L544.775 531.458C542.512 516.844 540.612 502.182 539.075 487.474C537.581 472.762 536.441 458.003 536.059 443.194C536.029 439.489 535.994 435.784 536.047 432.078L536.233 426.516L536.335 423.735L536.563 420.956L537.031 415.399L537.871 409.863C538.164 408.014 538.569 406.184 539.084 404.384C539.32 403.477 539.527 402.562 539.788 401.663L540.775 399.019L541.775 396.383C542.189 395.537 542.646 394.71 543.079 393.873C543.529 393.045 543.934 392.192 544.422 391.387L546.047 389.066C547.14 387.524 548.361 386.077 549.697 384.741C550.367 384.074 551.074 383.446 551.816 382.861C552.514 382.223 553.264 381.646 554.059 381.135L556.436 379.593L558.97 378.332C559.821 377.927 560.696 377.575 561.589 377.277C562.466 376.934 563.366 376.654 564.282 376.437C567.924 375.438 571.711 375.076 575.475 375.367L574.87 375.712C575.658 374.012 576.634 372.405 577.779 370.922C578.953 369.469 580.28 368.147 581.737 366.98C584.692 364.731 588.017 363.018 591.563 361.92C595.076 360.836 598.699 360.143 602.364 359.854C606.012 359.534 609.681 359.545 613.326 359.888C613.351 359.89 613.373 359.902 613.389 359.921C613.404 359.94 613.412 359.964 613.409 359.988C613.406 360.013 613.394 360.035 613.374 360.05C613.355 360.066 613.331 360.073 613.307 360.071C609.675 359.837 606.029 359.932 602.414 360.355C598.808 360.745 595.256 361.532 591.822 362.702C588.399 363.826 585.198 365.538 582.361 367.762C580.985 368.9 579.736 370.183 578.635 371.59C577.569 373.017 576.665 374.558 575.94 376.185C575.891 376.294 575.81 376.385 575.707 376.447C575.605 376.509 575.487 376.539 575.368 376.533L575.335 376.53C568.07 376.121 560.879 378.181 554.929 382.377C549.124 386.737 544.789 392.772 542.506 399.671L541.56 402.219C541.31 403.091 541.113 403.981 540.886 404.861C540.389 406.612 540 408.393 539.721 410.193L538.913 415.614L538.466 421.099L538.248 423.842L538.154 426.597L537.984 432.111C537.935 435.789 537.999 439.473 538.012 443.155C538.283 457.89 539.341 472.62 540.699 487.315C542.03 502.013 543.708 516.679 545.732 531.312L545.365 530.914C549.203 531.787 553.088 532.433 557.002 532.848C560.915 533.292 564.857 533.426 568.792 533.248C572.72 533.122 576.608 532.419 580.331 531.161C584.07 529.962 587.26 527.469 589.331 524.129L589.293 524.312C588.229 514.693 587.158 505.074 586.008 495.465L582.628 466.628C582.607 466.444 582.653 466.258 582.759 466.105C582.864 465.952 583.022 465.843 583.201 465.799C583.381 465.754 583.571 465.777 583.736 465.862C583.901 465.948 584.028 466.09 584.095 466.263L584.099 466.273L592.145 487.121L600.049 508.024L598.64 508.05C600.235 503.75 602.226 499.609 604.587 495.679C606.919 491.72 609.774 488.094 613.075 484.901C616.38 481.636 620.483 479.3 624.974 478.126C627.235 477.632 629.563 477.52 631.861 477.795C634.135 478.109 636.358 478.725 638.469 479.626L638.125 479.965L634.293 469.689C634.284 469.666 634.285 469.641 634.295 469.619C634.305 469.596 634.323 469.579 634.345 469.57C634.368 469.561 634.393 469.561 634.415 469.571C634.438 469.581 634.455 469.599 634.465 469.621H634.464Z" fill="#2B2B2B"/>
<path d="M583.388 466.546L585.033 481.793L574.853 423.967L585.974 473.3L583.388 466.546Z" fill="#2B2B2B"/>
<path d="M658.798 385.108C638.257 385.108 578.15 377.244 575.286 376.867C575.166 376.851 575.049 376.812 574.944 376.752C574.839 376.691 574.746 376.61 574.672 376.514C574.598 376.418 574.543 376.307 574.512 376.19C574.48 376.072 574.472 375.95 574.488 375.829C574.504 375.708 574.543 375.592 574.604 375.487C574.664 375.381 574.745 375.289 574.842 375.215C574.938 375.141 575.048 375.087 575.166 375.055C575.283 375.024 575.406 375.016 575.526 375.032C576.313 375.134 654.35 385.339 664.066 382.9C664.184 382.87 664.307 382.864 664.427 382.881C664.547 382.898 664.663 382.94 664.767 383.002C664.872 383.064 664.963 383.146 665.036 383.244C665.108 383.342 665.161 383.453 665.19 383.571C665.22 383.689 665.226 383.812 665.208 383.932C665.191 384.052 665.149 384.168 665.087 384.272C665.024 384.377 664.942 384.468 664.844 384.54C664.746 384.613 664.635 384.665 664.517 384.694C662.631 385.035 660.714 385.173 658.798 385.108Z" fill="#2B2B2B"/>
<path d="M798.879 283.574C798.879 283.574 732.37 268.038 715.966 347.533C699.562 427.014 695.379 421.244 695.379 421.244C665.444 464.704 607.062 438.046 593.813 431.203C592.309 430.387 590.592 430.048 588.89 430.232C587.189 430.415 585.583 431.113 584.287 432.232C580.729 435.497 581.28 440.775 581.28 440.775L581.533 446.753C581.578 447.717 581.83 448.659 582.272 449.516C582.714 450.372 583.335 451.124 584.093 451.718C605.677 468.893 644.097 472.457 678.871 470.638C680.865 470.533 682.86 470.414 684.825 470.265C714.879 468.163 741.242 462.259 750.113 458.114C770.061 448.781 775.821 452.777 806.858 370.613C837.909 288.463 798.879 283.574 798.879 283.574ZM812.113 305.475L812.098 305.46C803.376 300.7 793.335 298.94 783.517 300.45C773.871 302.076 765.431 307.726 758.97 314.987C755.713 318.658 752.813 322.632 750.307 326.854C747.744 331.091 745.467 335.494 743.489 340.034C739.589 349.204 736.331 358.634 733.739 368.257C732.474 373.088 731.149 377.933 730.018 382.823C729.423 385.268 728.723 387.683 728.098 390.114C727.472 392.544 726.803 394.959 726.118 397.374C723.59 407.129 720.453 416.714 716.725 426.074C715.787 428.415 714.656 430.681 713.569 432.963C712.349 435.199 711.232 437.465 709.848 439.597C707.235 443.996 704.112 448.07 700.544 451.733C696.966 455.479 692.554 458.325 687.668 460.037C686.643 460.37 685.593 460.619 684.527 460.783C682.744 461.063 680.931 461.098 679.139 460.887C676.883 460.61 674.712 459.858 672.767 458.681C672.75 458.67 672.736 458.657 672.724 458.641C672.712 458.624 672.704 458.606 672.7 458.586C672.696 458.567 672.696 458.546 672.7 458.527C672.704 458.507 672.711 458.489 672.723 458.472C672.74 458.442 672.768 458.42 672.801 458.409C672.834 458.398 672.87 458.399 672.902 458.413L672.917 458.427C674.923 459.351 677.095 459.858 679.302 459.918C679.555 459.933 679.808 459.948 680.062 459.948C681.491 459.932 682.913 459.757 684.304 459.426C685.273 459.197 686.228 458.908 687.162 458.561C691.655 456.665 695.663 453.781 698.892 450.123C702.199 446.48 705.113 442.497 707.585 438.241C708.895 436.138 710.012 433.917 711.203 431.755C712.259 429.504 713.48 427.342 714.462 425.061C718.711 416.017 722.293 406.674 725.18 397.106C726.669 392.32 727.815 387.445 728.991 382.585C730.122 377.695 731.06 372.789 732.162 367.87C734.21 357.981 737.139 348.296 740.914 338.931C744.641 329.413 749.951 320.596 756.619 312.855C760.075 309.006 764.113 305.726 768.587 303.134C773.088 300.554 778.039 298.859 783.175 298.14C793.4 296.98 803.704 299.483 812.261 305.206C812.278 305.217 812.293 305.231 812.304 305.247C812.316 305.263 812.324 305.282 812.328 305.301C812.332 305.321 812.332 305.341 812.328 305.36C812.325 305.38 812.317 305.399 812.306 305.415C812.285 305.446 812.255 305.468 812.22 305.479C812.185 305.49 812.147 305.488 812.113 305.475H812.113Z" fill="#2B2B2B"/>
<path d="M746.746 573.209C746.715 574.74 746.232 576.227 745.357 577.483C744.497 578.72 743.459 579.822 742.276 580.753C739.923 582.604 737.356 584.165 734.631 585.402C729.192 587.886 723.519 589.821 717.697 591.18C706.066 593.943 694.126 595.186 682.176 594.878C670.268 594.567 658.414 593.145 646.769 590.63C640.927 589.447 635.202 587.741 629.664 585.535C626.855 584.41 624.194 582.947 621.739 581.178C620.468 580.254 619.349 579.138 618.422 577.869C617.425 576.513 616.853 574.891 616.78 573.209C616.78 571.504 617.285 569.837 618.229 568.418C619.113 567.078 620.199 565.883 621.449 564.875C623.846 562.933 626.498 561.331 629.33 560.112C634.858 557.692 640.627 555.868 646.54 554.67C658.26 552.223 670.205 551.029 682.176 551.106C694.14 551.05 706.067 552.419 717.708 555.182C723.529 556.559 729.201 558.503 734.643 560.988C737.37 562.228 739.937 563.792 742.289 565.648C743.472 566.582 744.509 567.687 745.366 568.928C746.239 570.187 746.719 571.676 746.746 573.209ZM746.377 573.209C746.324 570.256 744.231 567.804 741.947 566.077C739.581 564.342 736.985 562.947 734.235 561.931C728.728 559.893 723.026 558.431 717.219 557.568C705.621 555.819 693.905 554.978 682.176 555.053C670.463 554.999 658.768 556.013 647.238 558.08C641.522 559.124 635.916 560.706 630.497 562.806C627.851 563.846 625.341 565.204 623.021 566.849C620.804 568.477 618.895 570.679 618.803 573.209C618.725 575.746 620.556 578.154 622.73 579.933C624.991 581.753 627.492 583.25 630.163 584.382C635.572 586.696 641.223 588.398 647.009 589.455C652.8 590.544 658.657 591.238 664.541 591.533C670.417 591.893 676.304 591.928 682.176 591.798C693.913 591.62 705.624 590.654 717.231 588.905C723.037 588.023 728.738 586.552 734.247 584.514C736.999 583.496 739.595 582.097 741.96 580.358C744.243 578.625 746.332 576.161 746.377 573.209Z" fill="#2B2B2B"/>
<path d="M586.238 528.211C587.21 529.99 587.928 531.897 588.372 533.875C588.886 535.829 589.279 537.807 589.617 539.793C590.277 543.767 590.813 547.759 591.187 551.764C591.362 553.788 591.558 555.728 591.654 557.82C591.704 559.934 591.345 562.037 590.598 564.015C590.221 565.011 589.726 565.959 589.126 566.839C588.518 567.689 587.853 568.497 587.136 569.257C585.706 570.772 584.055 572.062 582.24 573.083C578.63 575.061 574.639 576.24 570.535 576.541C568.504 576.718 566.461 576.67 564.441 576.397C563.426 576.273 562.423 576.065 561.443 575.773C560.47 575.472 559.534 575.131 558.586 574.787C551.001 572.027 544.102 567.827 536.641 564.959C529.23 562.002 521.582 559.509 514.237 556.157C510.488 554.548 506.926 552.531 503.616 550.143C501.945 548.891 500.438 547.434 499.13 545.806C498.381 544.889 497.896 543.784 497.73 542.611C497.645 542.008 497.659 541.395 497.772 540.796C497.904 540.217 498.108 539.658 498.382 539.132C499.522 537.23 501.205 535.713 503.213 534.778C505.101 533.837 507.131 533.218 509.221 532.945C510.256 532.807 511.3 532.739 512.344 532.742C513.38 532.785 514.451 532.864 515.399 532.941C517.35 533.106 519.342 533.105 521.328 533.077C529.29 532.917 537.277 532.145 545.24 531.294C545.264 531.291 545.289 531.298 545.308 531.313C545.327 531.328 545.34 531.35 545.343 531.374C545.346 531.398 545.339 531.421 545.325 531.44C545.312 531.459 545.291 531.472 545.268 531.477C537.375 532.992 529.395 534.01 521.374 534.523C519.358 534.608 517.337 534.667 515.291 534.552C514.241 534.495 513.311 534.458 512.347 534.441C511.387 534.466 510.431 534.555 509.484 534.708C507.604 535.011 505.782 535.603 504.083 536.463C502.444 537.241 501.069 538.485 500.131 540.04C499.747 540.764 499.595 541.589 499.693 542.402C499.792 543.216 500.137 543.98 500.682 544.591C501.895 546.087 503.275 547.438 504.795 548.618C507.959 550.97 511.37 552.969 514.967 554.577C522.168 557.983 529.701 560.717 537.04 564.028C540.716 565.655 544.287 567.509 547.859 569.326C551.376 571.226 555.034 572.85 558.802 574.184C560.641 574.913 562.566 575.403 564.53 575.642C566.495 575.818 568.474 575.776 570.43 575.516C574.329 575.053 578.088 573.772 581.46 571.756C583.114 570.761 584.621 569.539 585.938 568.127C587.276 566.769 588.345 565.171 589.09 563.416C589.794 561.64 590.149 559.746 590.135 557.836C590.079 555.918 589.913 553.86 589.774 551.884C589.465 547.895 589.172 543.901 588.659 539.936C588.337 535.959 587.469 532.045 586.079 528.306L586.075 528.296C586.065 528.275 586.064 528.251 586.072 528.228C586.08 528.206 586.096 528.188 586.117 528.177C586.137 528.166 586.161 528.164 586.184 528.17C586.207 528.176 586.226 528.191 586.238 528.211L586.238 528.211Z" fill="#2B2B2B"/>
<path d="M552.527 532.699C552.709 534.837 553.022 536.962 553.462 539.062C553.863 541.132 554.47 543.157 555.274 545.106C555.984 546.978 557.21 548.61 558.81 549.81C559.585 550.33 560.475 550.653 561.402 550.751C562.363 550.823 563.33 550.723 564.255 550.453C566.218 549.869 568.07 548.964 569.738 547.775C571.468 546.641 573.013 545.246 574.32 543.641C576.992 540.34 578.522 536.26 578.681 532.014C579.233 536.438 578.084 540.906 575.468 544.514C572.796 548.164 569.035 550.87 564.728 552.24C563.582 552.554 562.388 552.658 561.205 552.546C559.987 552.409 558.824 551.964 557.826 551.253C555.993 549.818 554.637 547.86 553.939 545.637C552.594 541.466 552.113 537.063 552.527 532.699Z" fill="#2B2B2B"/>
<path d="M520.645 544.375C520.141 543.204 519.97 541.916 520.151 540.653C520.304 539.353 520.77 538.11 521.508 537.029C522.242 535.949 523.223 535.061 524.369 534.438C524.922 534.129 525.508 533.882 526.115 533.702C526.721 533.548 527.34 533.45 527.963 533.409C527.484 533.838 526.98 534.149 526.519 534.516C526.077 534.909 525.591 535.21 525.198 535.619C524.997 535.817 524.791 536.002 524.581 536.181L524.03 536.792C523.661 537.187 523.328 537.613 523.035 538.068C521.802 539.977 520.987 542.127 520.645 544.375Z" fill="#2B2B2B"/>
<path d="M530.622 544.375C530.108 543.225 529.948 541.947 530.161 540.706C530.347 539.457 530.768 538.255 531.404 537.164C532.045 536.097 532.856 535.141 533.805 534.336C534.278 533.946 534.775 533.589 535.295 533.265C535.832 532.969 536.389 532.713 536.963 532.498C536.632 533 536.275 533.484 535.893 533.948L534.852 535.329C534.186 536.22 533.567 537.145 532.996 538.101C531.834 540.032 531.03 542.158 530.622 544.375Z" fill="#2B2B2B"/>
<path d="M548.007 579.201C544.547 578.073 541.211 576.597 538.048 574.796C532.654 571.706 523.231 566.395 520.571 565.359C512.183 562.065 502.227 558.661 498.64 553.146C492.527 543.747 498.638 538.892 498.638 538.892C500.572 549.233 512.664 555.034 529.956 561.696C547.249 568.357 549.393 571.503 561.217 575.352C567.498 577.405 581.742 576.184 588.449 566.358C588.927 565.66 589.336 564.916 589.668 564.138L590.897 554.482C599.972 590.532 561.309 583.512 548.007 579.201Z" fill="#2B2B2B"/>
<path d="M602.411 551.516C600.564 550.912 598.953 549.741 597.806 548.17C596.66 546.599 596.035 544.706 596.021 542.76C595.855 539.971 596.584 537.201 598.1 534.856C599.616 532.51 601.84 530.711 604.449 529.72C613.812 525.771 618.246 514.302 619.915 508.626C621.312 503.8 623.473 499.23 626.315 495.089C630.976 488.36 638.292 481.628 647.217 486.436C650.311 488.202 652.66 491.034 653.826 494.404C656.061 500.409 659.644 506.339 649.945 519.55C648.372 521.663 646.673 523.678 644.856 525.585C642.045 528.625 639.843 532.177 638.37 536.049C637.022 539.823 623.832 558.341 602.411 551.516Z" fill="#2B2B2B"/>
<path d="M604.18 497.781C605.116 502.57 605.109 507.497 604.16 512.284C603.266 517.104 601.605 521.749 599.241 526.041C598.061 528.154 596.764 530.198 595.355 532.165C594.731 533.122 594.237 534.158 593.885 535.246C593.577 536.353 593.451 537.502 593.51 538.649C593.506 541.011 593.927 543.355 594.753 545.567C595.116 546.697 595.767 547.712 596.642 548.512C597.516 549.313 598.584 549.871 599.74 550.132C598.516 550.032 597.355 549.547 596.423 548.747C595.504 547.922 594.762 546.919 594.241 545.798C593.211 543.561 592.619 541.148 592.496 538.688C592.386 537.431 592.457 536.165 592.709 534.93C592.998 533.696 593.458 532.51 594.078 531.406C595.344 529.246 596.598 527.347 597.664 525.201C599.857 521.009 601.52 516.56 602.616 511.956C603.769 507.322 604.295 502.555 604.18 497.781Z" fill="#2B2B2B"/>
<path d="M634.416 478.595C635.295 478.652 636.157 478.866 636.961 479.226C637.755 479.561 638.505 479.992 639.196 480.508C639.899 481.033 640.521 481.658 641.043 482.365C641.608 483.079 641.956 483.941 642.045 484.848C641.318 484.294 640.667 483.854 640.02 483.383L638.084 481.985C636.728 481.009 635.497 479.87 634.416 478.595Z" fill="#2B2B2B"/>
<path d="M610.56 357.552C610.563 357.581 610.561 357.609 610.552 357.637C610.544 357.664 610.531 357.69 610.513 357.712C610.495 357.734 610.473 357.752 610.448 357.766C610.423 357.779 610.395 357.788 610.367 357.791L550.958 366.14L492.904 374.042L493.29 438.002L493.469 470.668L493.559 503.333C493.561 503.875 493.368 504.4 493.015 504.811C492.663 505.221 492.174 505.491 491.638 505.57H491.624L412.714 517.139L333.76 528.426h233.746C333.317 528.487 332.88 528.414 332.495 528.217L278.207 501.097L223.993 473.828H223.978C223.725 473.701 223.513 473.505 223.365 473.262C223.218 473.02 223.141 472.741 223.145 472.457L223.978 404.65C224.291 382.033 224.321 359.431 224.514 336.829C224.515 336.657 224.58 336.492 224.696 336.366C224.811 336.239 224.969 336.16 225.139 336.143L269.305 331.461L271.136 331.268L271.538 331.223C271.3 331.789 271.062 332.356 270.838 332.937L269.543 333.072L225.899 337.455C225.913 359.863 225.764 382.257 225.899 404.65L226.196 471.518L279.919 497.638L333.79 524.027L412.045 512.473L489.048 501.38L489.138 470.668L489.331 438.002L489.733 372.67V372.656C489.734 372.274 489.873 371.906 490.125 371.621C490.377 371.335 490.725 371.152 491.103 371.105L550.69 364.113L610.322 357.359C610.351 357.356 610.379 357.359 610.406 357.367C610.434 357.375 610.459 357.388 610.481 357.406C610.503 357.424 610.522 357.446 610.535 357.471C610.549 357.497 610.557 357.524 610.56 357.552Z" fill="#2B2B2B"/>
<path d="M273.19 331.044C273.399 331.581 273.622 332.118 273.83 332.639C273.026 332.714 272.223 332.803 271.419 332.878C271.732 332.296 272.044 331.715 272.342 331.133L273.19 331.044Z" fill="#2B2B2B"/>
<path d="M274.322 330.925C275.646 330.791 276.971 330.656 278.296 330.508C278.058 331.089 277.82 331.685 277.582 332.267C276.748 332.341 275.915 332.431 275.081 332.52C274.828 331.984 274.575 331.462 274.322 330.925Z" fill="#2B2B2B"/>
<path d="M279.666 331.074L280.052 332.013C279.784 332.043 279.517 332.073 279.264 332.102C279.397 331.76 279.531 331.417 279.666 331.074Z" fill="#2B2B2B"/>
<path d="M284.772 329.806H284.92L284.25 331.611C283.328 331.7 282.405 331.789 281.497 331.879L280.886 330.224C282.182 330.09 283.476 329.941 284.772 329.806Z" fill="#2B2B2B"/>
<path d="M285.724 330.552L286.037 331.432C285.829 331.461 285.605 331.476 285.397 331.491L285.724 330.552Z" fill="#2B2B2B"/>
<path d="M291.351 329.553L290.741 330.984L286.989 331.342L286.468 329.777C288.091 329.732 289.728 329.658 291.351 329.553Z" fill="#2B2B2B"/>
<path d="M291.797 329.702L292.259 330.835C291.946 330.865 291.634 330.895 291.321 330.925L291.797 329.702Z" fill="#2B2B2B"/>
<path d="M668.674 315.941C668.661 315.996 668.627 316.043 668.58 316.074C668.533 316.104 668.476 316.116 668.421 316.105L630.7 308.129C618.197 305.475 605.708 302.787 593.233 300.063L547.43 305.206L501.448 310.141L455.451 315.061L409.439 319.728C394.092 321.293 378.745 322.724 363.398 324.171L317.341 328.48C310.256 329.136 303.175 329.802 296.099 330.478C294.953 330.582 293.807 330.686 292.661 330.806L292.185 329.493C293.554 329.389 294.924 329.27 296.308 329.091C295.489 328.987 294.655 328.897 293.837 328.808C294.7 328.718 295.549 328.614 296.397 328.525C303.304 327.749 310.206 326.969 317.103 326.184L363.07 321.01C378.388 319.266 393.705 317.536 409.037 315.956L455.049 311.111L501.076 306.534L547.102 301.971L593.144 297.633H593.174C593.294 297.627 593.414 297.637 593.531 297.663C606.05 300.585 618.554 303.562 631.043 306.593L668.51 315.673C668.539 315.679 668.566 315.69 668.59 315.707C668.614 315.724 668.635 315.746 668.65 315.771C668.665 315.797 668.675 315.825 668.68 315.854C668.684 315.883 668.682 315.913 668.674 315.941Z" fill="#2B2B2B"/>
<path d="M355.851 459.426V511.697L472.912 496.595V445.963L355.851 459.426ZM422.36 481.76C413.726 481.76 413.741 468.342 422.36 468.342C430.994 468.342 430.979 481.76 422.36 481.76V481.76Z" fill="#2B2B2B"/>
<path d="M355.851 397.777V450.048L472.912 434.945V384.314L355.851 397.777ZM422.36 420.111C413.726 420.111 413.741 406.693 422.36 406.693C430.994 406.693 430.979 420.111 422.36 420.111V420.111Z" fill="#2B2B2B"/>
<path d="M614.906 319.011L614.924 319.01C617.381 318.38 619.857 317.864 622.322 317.289C624.796 316.753 627.27 316.228 629.75 315.739C629.882 315.713 630.018 315.728 630.141 315.782L630.175 315.797C635.375 318.092 640.526 320.491 645.655 322.937C650.776 325.397 655.876 327.902 660.927 330.511L660.968 330.532C661.118 330.61 661.231 330.744 661.282 330.905C661.334 331.066 661.319 331.241 661.242 331.391C661.192 331.486 661.12 331.568 661.031 331.627C660.942 331.687 660.84 331.724 660.733 331.734C658.614 331.927 656.497 332.145 654.371 332.294C652.247 332.449 650.126 332.636 647.995 332.741C650.082 332.297 652.18 331.935 654.274 331.541C656.367 331.141 658.469 330.811 660.567 330.454L660.374 331.677C655.165 329.401 650.005 327.022 644.867 324.597C639.736 322.157 634.626 319.671 629.566 317.081L629.991 317.139C627.489 317.507 624.982 317.839 622.472 318.161C619.956 318.443 617.45 318.784 614.925 319.012H614.924L614.906 319.011Z" fill="#FDB914"/>
<path d="M604.135 338.478L604.117 338.478L591.707 340.47C587.572 341.145 583.423 341.71 579.282 342.334C575.137 342.931 570.999 343.583 566.848 344.136L554.4 345.829C554.268 345.845 554.133 345.831 554.006 345.788C549.003 344.063 543.98 342.397 539.001 340.605L524.037 335.304C523.936 335.269 523.843 335.215 523.764 335.144C523.684 335.073 523.619 334.987 523.572 334.891C523.526 334.795 523.499 334.69 523.493 334.584C523.486 334.477 523.501 334.37 523.536 334.269C523.585 334.132 523.669 334.011 523.779 333.917C523.89 333.823 524.024 333.76 524.167 333.735C530.867 332.589 537.597 331.614 544.314 330.561C551.031 329.514 557.766 328.567 564.506 327.653C557.845 329.032 551.179 330.38 544.495 331.627C537.811 332.869 531.14 334.189 524.44 335.338L524.57 333.768L539.591 338.904C544.607 340.59 549.579 342.403 554.572 344.157L554.178 344.116L566.643 342.559C570.797 342.028 574.964 341.596 579.123 341.11C583.286 340.651 587.441 340.132 591.611 339.724C595.778 339.298 599.942 338.845 604.116 338.477H604.117L604.135 338.478Z" fill="#FDB914"/>
<path d="M555.785 312.02C551.305 313.324 546.801 314.513 542.307 315.751C541.182 316.049 540.064 316.387 538.929 316.642L535.513 317.357L528.69 318.834L525.279 319.573C524.04 319.91 522.746 319.988 521.475 319.802C520.128 319.595 518.875 318.985 517.88 318.051C517.377 317.543 516.99 316.931 516.747 316.258C516.503 315.585 516.409 314.867 516.47 314.154C516.753 311.591 517.92 309.207 519.769 307.412C520.655 306.529 521.658 305.772 522.75 305.162C523.287 304.863 523.84 304.594 524.408 304.357C524.927 304.135 525.44 303.898 525.945 303.645C530.031 301.75 533.472 298.694 535.842 294.859C536.955 292.935 537.692 290.817 538.015 288.618C538.306 286.458 538.309 284.058 538.426 281.745L539.564 253.805L539.585 254.04C539.473 253.732 539.316 253.442 539.12 253.18C538.892 252.867 538.632 252.579 538.345 252.32C537.716 251.802 537.039 251.344 536.324 250.954C534.794 250.145 533.156 249.56 531.461 249.214C529.712 248.874 527.94 248.659 526.16 248.572C524.368 248.472 522.566 248.483 520.756 248.513C522.545 248.268 524.341 247.997 526.16 247.915C527.99 247.811 529.825 247.839 531.65 247.998C533.529 248.179 535.373 248.63 537.124 249.336C538.039 249.722 538.878 250.268 539.601 250.948C540.428 251.67 541.046 252.601 541.39 253.645C541.408 253.702 541.415 253.762 541.413 253.822L541.411 253.88L540.272 281.822C540.15 284.162 540.166 286.437 539.841 288.899C539.483 291.325 538.669 293.662 537.442 295.784C534.891 299.937 531.178 303.247 526.765 305.304C526.229 305.572 525.685 305.823 525.134 306.058C524.627 306.269 524.133 306.509 523.653 306.776C522.71 307.302 521.843 307.956 521.077 308.719C519.552 310.196 518.577 312.152 518.314 314.261C518.266 314.712 518.319 315.168 518.468 315.596C518.618 316.024 518.861 316.413 519.18 316.735C519.904 317.397 520.807 317.829 521.777 317.976C522.817 318.125 523.878 318.053 524.889 317.765L528.3 317.026L535.123 315.548L538.529 314.786C539.668 314.548 540.824 314.394 541.973 314.2C546.576 313.468 551.168 312.687 555.785 312.02Z" fill="#FDB914"/>
<path d="M527.527 228.544C529.507 230.795 531.338 233.181 533.765 235.492L507.819 267.68C507.372 237.042 486.101 235.492 486.101 235.492L521.067 222.163C522.282 223.13 523.44 224.165 524.536 225.264C525.577 226.322 526.545 227.426 527.527 228.544Z" fill="#2B2B2B"/>
<path d="M544.854 235.492H533.764C533.609 233.84 533.16 232.23 532.439 230.736C531.748 229.236 530.852 227.841 529.775 226.591C528.685 225.312 527.387 224.228 525.935 223.385C524.462 222.52 522.773 222.096 521.067 222.163L526.009 212.83L544.854 235.492Z" fill="#2B2B2B"/>
<path d="M507.823 267.684C504.51 266.661 501.42 265.02 498.715 262.848C495.947 260.704 493.533 258.136 491.563 255.239C491.052 254.527 490.589 253.78 490.179 253.004C489.767 252.23 489.289 251.491 488.936 250.688C488.202 249.098 487.601 247.45 487.138 245.76C486.179 242.426 485.826 238.946 486.096 235.486C486.975 238.719 488.056 241.893 489.331 244.99C490.581 248.005 492.153 250.877 494.018 253.555C495.847 256.268 497.932 258.798 500.246 261.11C502.609 263.483 505.141 265.68 507.823 267.684Z" fill="#2B2B2B"/>
<path d="M498.733 257.358C509.432 257.358 509.45 240.704 498.733 240.704C488.034 240.704 488.016 257.358 498.733 257.358Z" fill="#2B2B2B"/>
<path d="M421.083 325.32L448.437 320.574C457.755 318.986 467.19 317.355 476.603 316.135L476.633 316.131C476.772 316.113 476.914 316.139 477.037 316.206L487.982 322.116C491.62 324.106 495.295 326.024 498.967 327.948C502.625 329.898 506.341 331.736 510.033 333.619C513.723 335.508 517.459 337.306 521.17 339.154C521.264 339.201 521.341 339.276 521.39 339.369C521.439 339.462 521.458 339.568 521.443 339.672C521.429 339.776 521.382 339.873 521.309 339.949C521.237 340.025 521.142 340.076 521.039 340.095L521.02 340.099C511.683 341.79 502.339 343.44 492.979 344.992C483.624 346.572 474.27 348.157 464.892 349.593L464.882 349.595C464.677 349.626 464.467 349.59 464.284 349.491C456.893 345.519 449.573 341.368 442.328 337.296C435.135 333.187 428.055 329.169 421.083 325.32ZM421.265 325.351C428.814 329.27 436.256 333.02 443.584 336.68C450.861 340.376 458.062 343.993 465.193 347.788L464.586 347.686C473.942 346.11 483.321 344.683 492.7 343.249C502.074 341.789 511.464 340.427 520.861 339.105L520.711 340.049C517.05 338.104 513.414 336.11 509.733 334.205C506.054 332.295 502.398 330.34 498.685 328.497C494.985 326.628 491.288 324.753 487.554 322.949L476.384 317.479L476.818 317.55C467.719 319.161 458.642 320.362 449.447 321.604L435.508 323.429L421.265 325.351Z" fill="#2B2B2B"/>
<path d="M453.764 331.165C455.772 330.718 457.8 330.373 459.843 330.131C461.778 330.44 463.721 330.686 465.66 330.966L477.3 332.6L488.939 334.235L494.759 335.051C496.621 335.881 498.485 336.694 500.322 337.701C498.279 338.164 496.264 338.432 494.246 338.717L488.426 337.9L476.787 336.266L465.147 334.631C463.206 334.368 461.27 334.069 459.325 333.833C457.427 333.038 455.571 332.148 453.764 331.165Z" fill="#FDB914"/>
<path d="M302.545 335.667L329.9 330.921C339.217 329.333 348.652 327.702 358.065 326.482L358.095 326.478C358.235 326.46 358.376 326.486 358.5 326.553L369.444 332.463C373.082 334.453 376.757 336.371 380.429 338.295C384.087 340.245 387.803 342.083 391.495 343.966C395.186 345.855 398.922 347.654 402.632 349.502C402.726 349.548 402.803 349.623 402.852 349.716C402.901 349.809 402.92 349.915 402.905 350.019C402.891 350.123 402.844 350.22 402.771 350.296C402.699 350.372 402.604 350.423 402.501 350.443L402.482 350.446C393.145 352.137 383.801 353.787 374.442 355.339C365.086 356.919 355.732 358.504 346.354 359.94L346.345 359.942C346.139 359.973 345.929 359.937 345.747 359.839C338.356 355.866 331.035 351.715 323.791 347.643C316.597 343.534 309.517 339.516 302.545 335.667ZM302.727 335.698C310.277 339.617 317.718 343.367 325.046 347.027C332.323 350.723 339.524 354.34 346.655 358.135L346.048 358.034C355.404 356.457 364.784 355.03 374.162 353.596C383.537 352.136 392.927 350.774 402.323 349.452L402.173 350.397C398.512 348.451 394.877 346.457 391.195 344.552C387.516 342.643 383.86 340.687 380.147 338.844C376.447 336.975 372.751 335.1 369.017 333.296L357.847 327.827L358.281 327.898C349.181 329.508 340.104 330.709 330.91 331.951L316.97 333.776L302.727 335.698Z" fill="#2B2B2B"/>
<path d="M370.205 333.297C373.558 332.611 376.918 331.964 380.283 331.356C383.652 330.768 387.012 330.123 390.388 329.584C397.138 328.491 403.876 327.325 410.657 326.438L410.693 326.434C410.84 326.415 410.989 326.442 411.119 326.514L422.028 332.493C425.663 334.49 429.339 336.406 433.018 338.314C436.717 340.186 440.415 342.058 444.152 343.856L455.336 349.298C455.474 349.365 455.588 349.474 455.66 349.61C455.732 349.745 455.76 349.9 455.739 350.052C455.717 350.204 455.649 350.346 455.543 350.457C455.437 350.568 455.298 350.642 455.147 350.669L455.118 350.674L441.095 353.105C436.42 353.907 431.743 354.699 427.058 355.443C422.371 356.173 417.684 356.906 412.986 357.566C408.289 358.234 403.598 358.938 398.89 359.542L398.858 359.546C398.746 359.56 398.632 359.538 398.533 359.482C394.535 357.216 390.557 354.911 386.6 352.567C386.58 352.555 386.565 352.535 386.558 352.512C386.552 352.489 386.555 352.465 386.566 352.444C386.577 352.423 386.596 352.407 386.618 352.399C386.641 352.392 386.665 352.393 386.687 352.404C390.838 354.383 394.965 356.408 399.067 358.479L398.71 358.42C403.37 357.518 408.046 356.717 412.716 355.88C417.384 355.034 422.065 354.263 426.745 353.488C431.427 352.726 436.117 352.014 440.808 351.311L454.886 349.226L454.667 350.602L443.737 344.665C440.102 342.669 436.429 340.748 432.756 338.826C429.064 336.941 425.368 335.064 421.631 333.267L410.426 327.866L410.886 327.941C404.15 329.121 397.371 330.021 390.603 330.994C387.22 331.489 383.821 331.877 380.431 332.323C377.038 332.751 373.639 333.137 370.233 333.481C370.209 333.483 370.185 333.476 370.167 333.462C370.148 333.447 370.136 333.426 370.132 333.402C370.128 333.379 370.134 333.355 370.147 333.335C370.161 333.316 370.181 333.302 370.205 333.297L370.205 333.297Z" fill="#2B2B2B"/>
<path d="M598.533 243.766C597.759 245.958 596.88 248.105 596.002 250.252L592.504 256.156L585.79 267.517H583.2L583.602 266.845L590.583 255.023L594.081 249.104C595.54 247.315 596.984 245.511 598.533 243.766Z" fill="#FDB914"/>
<path d="M582.188 251.191L581.355 258.497L580.328 267.517H578.08L579.137 258.243L579.955 250.937C580.566 248.537 581.161 246.137 581.905 243.766C582.084 246.256 582.143 248.716 582.188 251.191Z" fill="#2B2B2B"/>
<path d="M572.973 267.517H574.387L573.598 261.985L572.958 257.542L571.976 250.565C571.306 248.299 570.651 246.018 569.862 243.766C569.758 245.719 569.728 247.658 569.743 249.596V250.893L570.026 252.816L570.755 257.855L572.14 267.517H572.973Z" fill="#2B2B2B"/>
<path d="M568.255 267.517H566.008L564.608 257.855L563.611 250.893C563.596 248.522 563.596 246.152 563.73 243.766C564.519 246.018 565.174 248.298 565.844 250.565L566.826 257.543L567.779 264.192L568.255 267.517Z" fill="#FDB914"/>
<path d="M570.027 251.504V252.816L570.012 258.362V267.517H567.779V251.504C568.106 249.223 568.434 246.942 568.895 244.646C569.223 246.301 569.506 247.956 569.744 249.596C569.848 250.237 569.938 250.863 570.027 251.504Z" fill="#2B2B2B"/>
<path d="M576.903 252.652L576.129 259.465L575.221 267.517H572.973L573.599 261.985L573.911 259.212L574.67 252.399C575.251 250.162 575.831 247.926 576.546 245.719C576.754 248.03 576.829 250.341 576.903 252.652Z" fill="#FDB914"/>
<path d="M561.362 276.641V284.692C561.75 284.647 562.136 284.617 562.523 284.572L565.873 277.043C564.369 276.939 562.866 276.82 561.362 276.641ZM566.289 277.177L562.702 284.558C564.861 284.334 567.034 284.185 569.193 284.095L566.289 277.177ZM566.766 277.103L569.832 283.723L572.274 277.327C570.443 277.297 568.597 277.207 566.766 277.103L566.766 277.103ZM573.048 277.968L570.532 284.05C572.125 283.991 573.703 283.961 575.296 283.946L573.048 277.968ZM576.218 277.386C575.444 277.371 574.655 277.356 573.881 277.356L576.159 282.977L578.094 277.356C577.469 277.371 576.844 277.371 576.218 277.386L576.218 277.386ZM579.091 278.803L577.141 283.946C578.392 283.961 579.642 283.976 580.892 284.021C580.267 282.276 579.672 280.547 579.091 278.802V278.803ZM580.133 277.327C580.773 279.101 581.384 280.875 581.979 282.649C582.783 280.815 583.572 278.996 584.391 277.178C582.976 277.252 581.562 277.297 580.133 277.327L580.133 277.327ZM585.224 278.013C584.48 280.04 583.706 282.053 582.932 284.08C584.644 284.14 586.355 284.245 588.053 284.394C587.07 282.276 586.147 280.159 585.224 278.013L585.224 278.013ZM561.362 267.517V276.641C566.296 276.102 571.256 275.853 576.218 275.895C577.127 275.895 578.035 275.91 578.942 275.925C579.074 275.888 579.213 275.888 579.344 275.925C581.25 275.955 583.14 276.03 585.031 276.134C585.079 276.117 585.129 276.107 585.18 276.104C585.256 276.105 585.332 276.12 585.403 276.149C587.293 276.268 589.184 276.417 591.074 276.641V267.517L561.362 267.517ZM564.831 274.181C564.251 274.162 563.702 273.918 563.299 273.501C562.896 273.083 562.671 272.525 562.671 271.945C562.671 271.364 562.896 270.806 563.299 270.389C563.702 269.972 564.251 269.728 564.831 269.708C565.409 269.729 565.958 269.973 566.36 270.39C566.762 270.807 566.987 271.365 566.987 271.945C566.987 272.524 566.762 273.082 566.36 273.499C565.958 273.916 565.409 274.16 564.831 274.181L564.831 274.181ZM572.869 274.181C572.29 274.162 571.74 273.918 571.337 273.501C570.934 273.083 570.709 272.525 570.709 271.945C570.709 271.364 570.934 270.806 571.337 270.389C571.74 269.972 572.29 269.728 572.869 269.708C573.448 269.729 573.996 269.973 574.398 270.39C574.8 270.807 575.025 271.365 575.025 271.945C575.025 272.524 574.8 273.082 574.398 273.499C573.996 273.916 573.448 274.16 572.869 274.181L572.869 274.181ZM580.64 273.913C580.06 273.894 579.511 273.65 579.108 273.232C578.705 272.815 578.479 272.257 578.479 271.676C578.479 271.096 578.705 270.538 579.108 270.121C579.511 269.703 580.06 269.459 580.64 269.44C581.218 269.46 581.766 269.705 582.169 270.122C582.571 270.539 582.795 271.096 582.795 271.676C582.795 272.256 582.571 272.813 582.168 273.231C581.766 273.648 581.218 273.892 580.64 273.913L580.64 273.913ZM588.276 274.181C587.696 274.162 587.147 273.918 586.744 273.501C586.341 273.083 586.116 272.525 586.116 271.945C586.116 271.364 586.341 270.806 586.744 270.389C587.147 269.972 587.696 269.728 588.276 269.708C588.854 269.729 589.403 269.973 589.805 270.39C590.207 270.807 590.432 271.365 590.432 271.945C590.432 272.524 590.207 273.082 589.805 273.499C589.402 273.916 588.854 274.16 588.276 274.181L588.276 274.181ZM585.879 277.088C586.713 279.518 587.517 281.949 588.261 284.409C589.199 284.498 590.137 284.573 591.074 284.692V276.641C589.347 276.835 587.621 276.983 585.879 277.088L585.879 277.088ZM566.29 277.178L562.702 284.558C564.861 284.334 567.034 284.185 569.193 284.096L566.29 277.178ZM566.766 277.103L569.833 283.723L572.274 277.327C570.443 277.297 568.597 277.207 566.766 277.103L566.766 277.103ZM573.048 277.968L570.532 284.051C572.125 283.991 573.703 283.961 575.296 283.947L573.048 277.968ZM576.218 277.387C575.444 277.372 574.656 277.357 573.882 277.357L576.159 282.977L578.094 277.357C577.469 277.371 576.844 277.371 576.218 277.386L576.218 277.387ZM579.092 278.803L577.141 283.947C578.392 283.961 579.642 283.977 580.893 284.021C580.267 282.276 579.672 280.547 579.091 278.802L579.092 278.803ZM580.134 277.327C580.773 279.101 581.384 280.875 581.979 282.65C582.783 280.816 583.572 278.997 584.391 277.178C582.976 277.252 581.562 277.297 580.133 277.327L580.134 277.327ZM585.224 278.013C584.48 280.04 583.706 282.053 582.932 284.081C584.644 284.14 586.356 284.245 588.053 284.394C587.07 282.276 586.147 280.159 585.224 278.013L585.224 278.013ZM566.29 277.178L562.702 284.558C564.861 284.334 567.034 284.185 569.193 284.096L566.29 277.178ZM566.766 277.104L569.833 283.723L572.274 277.327C570.443 277.297 568.597 277.207 566.766 277.103L566.766 277.104ZM573.048 277.968L570.532 284.051C572.125 283.991 573.703 283.961 575.296 283.947L573.048 277.968ZM576.218 277.387C575.444 277.372 574.656 277.357 573.882 277.357L576.159 282.978L578.094 277.357C577.469 277.371 576.844 277.371 576.218 277.386L576.218 277.387ZM579.092 278.803L577.141 283.947C578.392 283.962 579.642 283.977 580.893 284.021C580.267 282.276 579.672 280.547 579.091 278.802L579.092 278.803ZM580.134 277.327C580.774 279.102 581.384 280.876 581.979 282.65C582.783 280.816 583.572 278.997 584.391 277.178C582.976 277.252 581.562 277.297 580.133 277.327L580.134 277.327ZM585.224 278.013C584.48 280.041 583.706 282.054 582.932 284.081C584.644 284.141 586.356 284.245 588.053 284.394C587.07 282.276 586.147 280.159 585.224 278.013L585.224 278.013ZM561.363 293.414V295.263C561.363 299.209 562.928 302.994 565.714 305.784C568.5 308.574 572.279 310.142 576.219 310.142C580.159 310.142 583.937 308.574 586.723 305.784C589.509 302.994 591.074 299.209 591.074 295.263V293.414C581.195 294.408 571.242 294.408 561.363 293.414ZM582.292 285.319C582.197 285.383 582.087 285.423 581.974 285.436C581.86 285.449 581.744 285.434 581.637 285.393C581.606 285.375 581.576 285.355 581.548 285.333C579.776 285.393 577.99 285.423 576.218 285.438C571.256 285.465 566.297 285.216 561.363 284.692V293.414C571.242 292.42 581.195 292.42 591.074 293.414V284.692C588.142 285.035 585.224 285.213 582.292 285.318L582.292 285.319ZM565.501 291.357C564.921 291.338 564.372 291.094 563.969 290.676C563.566 290.259 563.341 289.701 563.341 289.12C563.341 288.54 563.566 287.982 563.969 287.565C564.372 287.147 564.921 286.903 565.501 286.884C566.078 286.906 566.625 287.151 567.026 287.568C567.427 287.985 567.651 288.541 567.651 289.12C567.651 289.699 567.427 290.256 567.026 290.672C566.625 291.089 566.078 291.334 565.501 291.356L565.501 291.357ZM572.334 291.222C571.754 291.203 571.205 290.959 570.802 290.542C570.399 290.125 570.173 289.567 570.173 288.986C570.173 288.405 570.399 287.848 570.802 287.43C571.205 287.013 571.754 286.769 572.334 286.75C572.911 286.771 573.458 287.016 573.859 287.433C574.26 287.85 574.484 288.407 574.484 288.986C574.484 289.565 574.26 290.121 573.859 290.538C573.458 290.955 572.911 291.2 572.333 291.222L572.334 291.222ZM579.836 291.222C579.257 291.203 578.707 290.959 578.304 290.542C577.901 290.125 577.676 289.567 577.676 288.986C577.676 288.405 577.901 287.848 578.304 287.43C578.707 287.013 579.257 286.769 579.836 286.75C580.414 286.771 580.96 287.016 581.361 287.433C581.762 287.85 581.986 288.407 581.986 288.986C581.986 289.565 581.762 290.121 581.361 290.538C580.96 290.955 580.413 291.2 579.836 291.222L579.836 291.222ZM587.338 290.954C586.759 290.935 586.21 290.691 585.807 290.274C585.403 289.856 585.178 289.298 585.178 288.718C585.178 288.137 585.403 287.579 585.807 287.162C586.21 286.745 586.759 286.501 587.338 286.481C587.916 286.503 588.463 286.748 588.864 287.165C589.265 287.582 589.489 288.139 589.489 288.718C589.489 289.297 589.265 289.853 588.864 290.27C588.463 290.687 587.916 290.932 587.338 290.953L587.338 290.954ZM588.053 284.394C587.07 282.277 586.147 280.16 585.224 278.013C584.48 280.041 583.706 282.054 582.932 284.081C584.644 284.14 586.355 284.244 588.053 284.393L588.053 284.394ZM584.391 277.178C582.976 277.252 581.562 277.298 580.133 277.327C580.773 279.102 581.384 280.876 581.979 282.65C582.783 280.815 583.572 278.996 584.391 277.177L584.391 277.178ZM580.893 284.021C580.268 282.277 579.672 280.548 579.091 278.803L577.141 283.947C578.392 283.961 579.642 283.976 580.892 284.021L580.893 284.021ZM578.094 277.357C577.469 277.372 576.844 277.372 576.218 277.387C575.444 277.372 574.656 277.357 573.882 277.357L576.159 282.978L578.094 277.357ZM575.296 283.947L573.048 277.968L570.532 284.051C572.125 283.991 573.703 283.961 575.295 283.946L575.296 283.947ZM572.274 277.327C570.443 277.297 568.597 277.208 566.766 277.103L569.833 283.723L572.274 277.327ZM566.29 277.178L562.702 284.558C564.861 284.334 567.034 284.185 569.193 284.096L566.29 277.178ZM585.224 278.013C584.48 280.04 583.706 282.053 582.932 284.081C584.644 284.14 586.356 284.245 588.053 284.394C587.07 282.276 586.147 280.159 585.224 278.013L585.224 278.013ZM580.134 277.327C580.774 279.101 581.384 280.875 581.979 282.65C582.783 280.816 583.572 278.997 584.391 277.178C582.976 277.252 581.562 277.297 580.133 277.327L580.134 277.327ZM579.092 278.803L577.141 283.947C578.392 283.961 579.642 283.977 580.893 284.021C580.267 282.276 579.672 280.547 579.091 278.802L579.092 278.803ZM576.218 277.387C575.444 277.372 574.656 277.357 573.882 277.357L576.159 282.977L578.094 277.357C577.469 277.371 576.844 277.371 576.218 277.386L576.218 277.387ZM573.048 277.968L570.532 284.051C572.125 283.991 573.703 283.961 575.296 283.947L573.048 277.968ZM566.766 277.103L569.833 283.723L572.274 277.327C570.443 277.297 568.597 277.207 566.766 277.103L566.766 277.103ZM566.29 277.178L562.702 284.558C564.861 284.334 567.034 284.185 569.193 284.096L566.29 277.178ZM585.224 278.013C584.48 280.04 583.706 282.053 582.932 284.081C584.644 284.14 586.356 284.245 588.053 284.394C587.07 282.276 586.147 280.159 585.224 278.013L585.224 278.013ZM580.134 277.327C580.773 279.101 581.384 280.875 581.979 282.649C582.783 280.816 583.572 278.997 584.391 277.178C582.976 277.252 581.562 277.297 580.133 277.327L580.134 277.327ZM579.091 278.803L577.141 283.947C578.392 283.961 579.642 283.976 580.893 284.021C580.267 282.276 579.672 280.547 579.091 278.802L579.091 278.803ZM576.218 277.386C575.444 277.371 574.656 277.357 573.881 277.357L576.159 282.977L578.094 277.357C577.469 277.371 576.844 277.371 576.218 277.386L576.218 277.386ZM573.048 277.968L570.532 284.051C572.125 283.991 573.703 283.961 575.296 283.947L573.048 277.968ZM566.766 277.103L569.833 283.723L572.274 277.327C570.443 277.297 568.597 277.207 566.766 277.103L566.766 277.103ZM566.29 277.178L562.702 284.558C564.861 284.334 567.034 284.185 569.193 284.095L566.29 277.178Z" fill="#2B2B2B"/>
<path d="M319.557 521.773C319.834 525.454 319.975 529.136 320.169 532.818C320.372 536.499 320.464 540.18 320.596 543.862C320.68 547.544 320.816 551.225 320.856 554.907C320.903 558.588 320.997 562.27 320.998 565.952L319.938 564.56L330.297 567.36L329.557 567.349L339.879 564.898L338.79 566.285C338.88 559.452 339.004 552.619 339.22 545.786C339.35 542.37 339.446 538.953 339.64 535.537C339.818 532.12 339.958 528.704 340.215 525.288C340.472 528.704 340.612 532.12 340.79 535.537C340.984 538.953 341.08 542.37 341.21 545.786C341.426 552.619 341.55 559.452 341.64 566.285C341.644 566.601 341.542 566.91 341.349 567.16C341.156 567.411 340.884 567.589 340.577 567.666L340.551 567.672L330.255 570.232C330.011 570.291 329.756 570.287 329.514 570.221L319.177 567.343C318.873 567.258 318.606 567.077 318.414 566.825C318.223 566.574 318.119 566.268 318.117 565.952C318.118 562.27 318.212 558.589 318.259 554.907C318.3 551.225 318.435 547.544 318.519 543.862C318.651 540.181 318.743 536.499 318.946 532.818C319.14 529.136 319.282 525.454 319.557 521.773Z" fill="#2B2B2B"/>
<path d="M329.886 525.116C330.616 532.394 330.786 539.673 330.819 546.952C330.796 554.231 330.633 561.511 329.906 568.79C329.171 561.511 329.002 554.232 328.973 546.953C328.999 539.674 329.163 532.395 329.886 525.116Z" fill="#2B2B2B"/>
<path d="M224.968 472.604C225.26 476.285 225.402 479.967 225.611 483.648C225.798 487.33 225.927 491.011 226.039 494.693C226.252 502.056 226.398 509.419 226.421 516.782L225.352 515.379C228.808 516.304 232.264 517.225 235.703 518.206L234.971 518.195C238.414 517.385 241.848 516.543 245.303 515.783L244.257 517.115C244.316 514.161 244.333 511.207 244.427 508.254C244.519 505.3 244.568 502.346 244.697 499.392C244.8 496.439 244.923 493.485 245.096 490.531C245.254 487.577 245.393 484.623 245.626 481.67C245.859 484.623 245.998 487.577 246.156 490.531C246.329 493.485 246.451 496.439 246.555 499.392C246.684 502.346 246.733 505.3 246.824 508.254C246.919 511.207 246.935 514.161 246.995 517.115C247.001 517.414 246.907 517.706 246.727 517.945C246.548 518.184 246.294 518.356 246.005 518.433L245.949 518.448C242.531 519.358 239.093 520.186 235.662 521.046C235.432 521.105 235.19 521.104 234.96 521.044L234.93 521.036C231.471 520.124 228.029 519.153 224.585 518.186L224.572 518.182C224.267 518.096 223.999 517.913 223.809 517.66C223.618 517.407 223.515 517.099 223.516 516.782C223.539 509.419 223.685 502.056 223.898 494.693C224.01 491.011 224.139 487.33 224.326 483.648C224.534 479.967 224.677 476.285 224.968 472.604Z" fill="#2B2B2B"/>
<path d="M235.297 475.946C236.027 483.225 236.197 490.504 236.23 497.783C236.207 505.062 236.044 512.341 235.316 519.621C234.582 512.342 234.413 505.063 234.383 497.784C234.41 490.505 234.574 483.226 235.297 475.946Z" fill="#2B2B2B"/>
<path d="M471.057 506.007C471.306 509.28 471.446 512.552 471.617 515.825C471.804 519.098 471.909 522.371 472.03 525.644C472.248 532.19 472.378 538.735 472.464 545.281L471.688 544.022L481.03 548.644L479.979 548.539C483.628 547.5 487.302 546.556 490.962 545.56L489.901 546.953C489.902 543.341 489.991 539.729 490.041 536.118C490.081 532.506 490.215 528.894 490.3 525.282C490.43 521.671 490.526 518.059 490.727 514.447C490.924 510.835 491.065 507.224 491.343 503.612C491.621 507.224 491.762 510.836 491.959 514.447C492.16 518.059 492.256 521.671 492.386 525.282C492.471 528.894 492.606 532.506 492.645 536.118C492.695 539.729 492.784 543.341 492.785 546.953C492.784 547.269 492.68 547.577 492.488 547.828C492.297 548.08 492.028 548.261 491.724 548.346C488.068 549.357 484.426 550.42 480.758 551.388L480.735 551.394C480.39 551.485 480.024 551.445 479.707 551.283L470.426 546.541L470.401 546.528C470.173 546.411 469.981 546.232 469.848 546.012C469.716 545.792 469.647 545.539 469.65 545.281C469.736 538.735 469.866 532.19 470.084 525.644C470.206 522.371 470.31 519.098 470.497 515.825C470.668 512.552 470.808 509.28 471.057 506.007Z" fill="#2B2B2B"/>
<path d="M481.2 504.801C481.788 512.341 481.816 519.872 481.707 527.399C481.543 534.926 481.238 542.45 480.369 549.964C479.776 542.423 479.749 534.893 479.861 527.365C480.03 519.839 480.335 512.315 481.2 504.801Z" fill="#2B2B2B"/>
<path d="M591.092 429.743C589.616 429.658 588.167 429.313 586.811 428.725C582.752 427.08 579.126 424.522 576.214 421.248C577.568 421.768 578.883 422.383 580.15 423.088C581.419 423.75 582.633 424.484 583.857 425.197C585.059 425.948 586.272 426.668 587.459 427.442C588.663 428.194 589.831 428.985 591.092 429.743Z" fill="#2B2B2B"/>
<path d="M286.781 254.65C287.985 256.63 289.425 258.458 291.068 260.092C289.404 260.149 287.751 259.79 286.26 259.048C285.183 258.492 284.273 257.658 283.625 256.633C282.993 255.593 282.644 254.405 282.613 253.189C282.583 251.524 282.972 249.878 283.744 248.403C284.495 250.603 285.515 252.701 286.781 254.65Z" fill="#2B2B2B"/>
<path d="M292.214 255.306C292.244 256.973 291.85 258.62 291.068 260.092C290.317 257.892 289.297 255.794 288.031 253.845C286.823 251.867 285.384 250.04 283.744 248.403C285.406 248.344 287.055 248.708 288.538 249.462C289.615 250.016 290.528 250.844 291.187 251.862C291.832 252.897 292.187 254.086 292.214 255.306Z" fill="#2B2B2B"/>
<path d="M282.806 268.873C284.012 270.857 285.456 272.685 287.109 274.315C285.444 274.375 283.791 274.016 282.3 273.271C281.219 272.715 280.305 271.882 279.651 270.856C279.019 269.816 278.67 268.629 278.638 267.412C278.608 265.747 278.997 264.101 279.77 262.626C280.527 264.823 281.547 266.921 282.806 268.873Z" fill="#2B2B2B"/>
<path d="M288.239 269.529C288.268 271.194 287.879 272.84 287.108 274.315C286.345 272.121 285.325 270.024 284.072 268.068C282.858 266.09 281.414 264.263 279.77 262.626C281.431 262.565 283.081 262.93 284.563 263.685C285.651 264.229 286.569 265.062 287.217 266.092C287.865 267.123 288.219 268.312 288.239 269.529L288.239 269.529Z" fill="#2B2B2B"/>
<path d="M278.326 284.528C279.535 286.509 280.979 288.337 282.627 289.97C280.961 290.032 279.306 289.668 277.819 288.911C276.736 288.365 275.82 287.536 275.17 286.511C274.538 285.471 274.189 284.283 274.158 283.067C274.126 281.401 274.515 279.755 275.289 278.281C276.046 280.478 277.066 282.575 278.326 284.528Z" fill="#2B2B2B"/>
<path d="M283.759 285.169C283.789 286.839 283.4 288.49 282.627 289.97C281.865 287.772 280.84 285.674 279.576 283.723C278.367 281.745 276.928 279.918 275.289 278.281C276.95 278.22 278.6 278.584 280.082 279.34C281.159 279.894 282.073 280.722 282.731 281.74C283.375 282.77 283.73 283.954 283.759 285.169Z" fill="#2B2B2B"/>
<path d="M276.138 301.196C277.347 303.182 278.792 305.014 280.439 306.653C278.773 306.716 277.118 306.351 275.631 305.594C274.551 305.042 273.64 304.207 272.996 303.178C272.351 302.149 271.996 300.964 271.969 299.75C271.945 298.085 272.334 296.441 273.101 294.964C273.864 297.154 274.884 299.246 276.138 301.196Z" fill="#2B2B2B"/>
<path d="M281.57 301.852C281.609 303.523 281.219 305.176 280.439 306.653C278.868 302.27 276.364 298.281 273.101 294.964C274.762 294.903 276.412 295.267 277.894 296.023C278.977 296.568 279.893 297.398 280.543 298.423C281.195 299.449 281.551 300.636 281.57 301.852Z" fill="#2B2B2B"/>
<path d="M275.484 311.383C277.146 311.327 278.796 311.69 280.281 312.44C281.362 312.993 282.276 313.824 282.932 314.847C283.575 315.877 283.93 317.062 283.958 318.277C283.989 319.946 283.597 321.595 282.818 323.07C281.153 323.133 279.499 322.772 278.011 322.02C276.93 321.468 276.018 320.634 275.371 319.606C274.734 318.571 274.384 317.385 274.355 316.17C274.325 314.505 274.713 312.859 275.484 311.383Z" fill="#2B2B2B"/>
<path d="M296.739 259.033C294.748 259.975 292.827 261.061 290.994 262.283C291.249 260.699 291.832 259.186 292.705 257.84C293.307 256.931 294.132 256.191 295.102 255.693C296.044 255.231 297.094 255.036 298.139 255.127C299.676 255.281 301.187 255.631 302.634 256.171L296.739 259.033Z" fill="#2B2B2B"/>
<path d="M301.801 261.12C301.175 262.226 300.235 263.12 299.1 263.688C297.966 264.256 296.688 264.473 295.43 264.311C293.786 264.081 292.244 263.376 290.994 262.283C292.116 262.182 293.225 261.957 294.298 261.612C295.363 261.272 296.402 260.859 297.409 260.375C298.418 259.877 299.38 259.288 300.282 258.615C301.207 257.949 302.004 257.121 302.634 256.17C302.99 257.867 302.692 259.635 301.801 261.12Z" fill="#2B2B2B"/>
<path d="M294.417 272.452C291.961 273.346 289.46 274.136 286.945 275.195C287.666 273.594 288.687 272.147 289.952 270.931C290.877 270.057 291.972 269.383 293.167 268.948C294.3 268.537 295.508 268.374 296.71 268.471C298.367 268.637 300.01 268.931 301.622 269.35C299.318 270.599 296.907 271.636 294.417 272.452Z" fill="#2B2B2B"/>
<path d="M299.94 274.718C298.965 275.907 297.69 276.812 296.248 277.339C294.805 277.866 293.247 277.996 291.738 277.714C289.924 277.373 288.255 276.495 286.944 275.195C288.302 275.248 289.66 275.143 290.993 274.882C292.325 274.649 293.634 274.305 294.908 273.853C296.199 273.409 297.437 272.824 298.6 272.109C299.787 271.41 300.817 270.47 301.622 269.35C301.726 270.313 301.63 271.287 301.341 272.21C301.051 273.134 300.574 273.988 299.94 274.718Z" fill="#2B2B2B"/>
<path d="M291.619 284.051C289.163 284.945 286.662 285.735 284.146 286.794C284.867 285.189 285.893 283.741 287.168 282.53C288.086 281.654 289.176 280.979 290.368 280.547C291.502 280.136 292.71 279.974 293.911 280.07C295.569 280.237 297.211 280.531 298.823 280.95C296.52 282.198 294.108 283.236 291.619 284.051Z" fill="#2B2B2B"/>
<path d="M297.141 286.317C296.167 287.506 294.892 288.411 293.45 288.939C292.007 289.466 290.449 289.595 288.94 289.314C287.126 288.972 285.457 288.095 284.146 286.794C285.503 286.847 286.862 286.742 288.195 286.481C289.527 286.249 290.836 285.905 292.11 285.452C293.401 285.008 294.639 284.423 295.802 283.708C296.989 283.009 298.019 282.069 298.823 280.95C298.928 281.912 298.832 282.886 298.543 283.809C298.253 284.733 297.776 285.587 297.141 286.317Z" fill="#2B2B2B"/>
<path d="M289.267 298.259C286.781 299.392 284.176 300.317 281.571 301.479C282.299 299.835 283.324 298.339 284.593 297.066C285.507 296.14 286.582 295.388 287.763 294.845C288.85 294.364 290.016 294.091 291.202 294.04C292.482 293.921 293.792 294.174 296.099 293.861C295.181 294.887 294.1 295.754 292.899 296.425C291.73 297.116 290.517 297.729 289.267 298.259Z" fill="#2B2B2B"/>
<path d="M296.531 295.486C296.548 296.015 296.513 296.544 296.427 297.066C296.217 298.03 295.828 298.945 295.28 299.765C294.32 301.205 292.966 302.339 291.381 303.03C289.909 303.682 288.291 303.934 286.691 303.761C284.792 303.541 283.006 302.745 281.571 301.479C283.001 301.479 284.426 301.303 285.813 300.958C287.208 300.641 288.568 300.192 289.877 299.616C291.213 299.045 292.461 298.287 293.584 297.365C294.755 296.477 295.632 295.256 296.099 293.861C296.211 294.123 296.306 294.392 296.382 294.666C296.447 294.936 296.497 295.21 296.531 295.486Z" fill="#2B2B2B"/>
<path d="M281.511 318.461C281.592 316.82 281.951 315.205 282.572 313.684C282.979 312.682 283.591 311.775 284.367 311.022C285.065 310.384 285.906 309.923 286.819 309.678C288.26 309.407 289.653 308.926 290.953 308.248C291.169 308.409 291.375 308.583 291.569 308.77C291.744 308.968 291.906 309.176 292.056 309.393C292.309 309.826 292.505 310.29 292.642 310.772C292.862 311.676 292.88 312.617 292.695 313.529C292.397 315.099 291.596 316.529 290.415 317.603C289.349 318.589 288.01 319.228 286.574 319.435C284.826 319.675 283.047 319.333 281.511 318.461Z" fill="#2B2B2B"/>
<path d="M295.906 245.481C295.04 247.865 294.451 250.342 294.15 252.861C293.069 251.492 292.352 249.871 292.065 248.15C291.856 246.846 291.963 245.511 292.378 244.258C292.81 243.008 293.547 241.886 294.522 240.993C295.81 239.822 297.371 238.991 299.062 238.578C297.752 240.752 296.693 243.068 295.906 245.481Z" fill="#2B2B2B"/>
<path d="M300.833 247.18C300.393 248.426 299.651 249.543 298.674 250.431C297.395 251.61 295.838 252.446 294.149 252.861C295.447 250.681 296.505 248.367 297.305 245.958C298.169 243.573 298.759 241.097 299.061 238.578C300.145 239.947 300.867 241.567 301.161 243.289C301.373 244.594 301.26 245.93 300.833 247.18Z" fill="#2B2B2B"/>
<path d="M275.484 311.383C277.13 313.019 278.573 314.848 279.781 316.83C281.043 318.779 282.063 320.874 282.817 323.07C281.169 321.437 279.726 319.608 278.521 317.623C277.261 315.674 276.242 313.578 275.484 311.383Z" fill="#F2F2F2"/>
<path d="M281.511 318.461C283.324 316.789 285.188 315.353 286.887 313.765C287.748 313.005 288.545 312.175 289.271 311.285C290.026 310.393 290.597 309.361 290.953 308.248C291.161 309.519 290.91 310.821 290.243 311.922C289.632 313.028 288.838 314.021 287.895 314.861C286.981 315.694 285.978 316.423 284.904 317.035C283.843 317.662 282.702 318.142 281.511 318.461Z" fill="#F2F2F2"/>
<path d="M273.637 329.523C273.875 329.986 274.098 330.463 274.322 330.925C274.575 331.462 274.828 331.984 275.081 332.52C275.527 333.46 275.974 334.384 276.406 335.323C276.793 334.295 277.195 333.281 277.582 332.267C277.82 331.686 278.058 331.089 278.296 330.508C278.386 330.254 278.49 330.016 278.594 329.762C276.942 329.717 275.289 329.643 273.637 329.523ZM280.053 332.013L279.666 331.074C279.532 331.417 279.398 331.76 279.264 332.103C278.683 333.579 278.103 335.055 277.492 336.516C278.951 336.456 280.41 336.412 281.869 336.397L280.053 332.013ZM284.772 329.807C284.057 329.807 283.342 329.822 282.613 329.836C281.988 329.822 281.363 329.822 280.723 329.807L280.886 330.224L281.497 331.879L282.822 335.413L284.251 331.611L284.92 329.807L284.772 329.807ZM286.037 331.432L285.724 330.552L285.397 331.491L283.714 336.412C285.099 336.426 286.483 336.456 287.882 336.516L286.037 331.432ZM286.468 329.777L286.99 331.343L288.552 336.069L290.741 330.984L291.351 329.553C289.728 329.658 288.091 329.732 286.469 329.777H286.468ZM292.259 330.836L291.798 329.703L291.321 330.925L289.133 336.575C291.009 336.68 292.899 336.844 294.79 337.112L292.259 330.836ZM273.637 329.523C273.875 329.986 274.098 330.463 274.322 330.925C274.575 331.462 274.828 331.984 275.081 332.52C275.527 333.46 275.974 334.384 276.406 335.323C276.793 334.295 277.195 333.281 277.582 332.267C277.82 331.686 278.058 331.089 278.296 330.508C278.386 330.254 278.49 330.016 278.594 329.762C276.942 329.717 275.289 329.643 273.637 329.523L273.637 329.523ZM280.053 332.014L279.666 331.074C279.532 331.417 279.398 331.76 279.264 332.103C278.683 333.579 278.102 335.055 277.492 336.516C278.951 336.456 280.41 336.412 281.869 336.397L280.053 332.014ZM284.772 329.807C284.057 329.807 283.342 329.822 282.613 329.836C281.988 329.822 281.363 329.822 280.723 329.807L280.886 330.225L281.497 331.879L282.821 335.413L284.25 331.611L284.92 329.807L284.772 329.807ZM286.037 331.432L285.724 330.552L285.397 331.492L283.714 336.412C285.099 336.426 286.483 336.456 287.882 336.516L286.037 331.432ZM286.468 329.777L286.989 331.343L288.552 336.069L290.741 330.984L291.351 329.553C289.728 329.658 288.091 329.732 286.469 329.777L286.468 329.777ZM292.259 330.836L291.798 329.703L291.321 330.925L289.133 336.575C291.008 336.68 292.899 336.844 294.789 337.112L292.259 330.836ZM272.848 330.179C272.684 330.493 272.506 330.821 272.342 331.134L273.19 331.044C273.071 330.761 272.968 330.463 272.848 330.179L272.848 330.179ZM273.637 329.524C273.875 329.986 274.098 330.463 274.322 330.925C274.575 331.462 274.828 331.984 275.081 332.52C275.915 332.431 276.748 332.342 277.582 332.267C277.82 331.686 278.058 331.089 278.296 330.508C278.386 330.254 278.49 330.016 278.594 329.762C276.942 329.717 275.289 329.643 273.637 329.523L273.637 329.524ZM279.666 331.074C279.532 331.417 279.398 331.76 279.264 332.103C279.517 332.073 279.785 332.043 280.053 332.014L279.666 331.074ZM282.613 329.836C281.988 329.822 281.363 329.822 280.723 329.807L280.886 330.225C282.182 330.09 283.476 329.941 284.772 329.807C284.057 329.807 283.343 329.822 282.613 329.836L282.613 329.836ZM265.628 307.861L268.933 329.091C270.184 328.927 271.434 328.808 272.669 328.704C272.727 328.662 272.793 328.635 272.863 328.625C272.933 328.614 273.004 328.621 273.071 328.644L273.101 328.674C275.215 328.525 277.314 328.42 279.413 328.375C279.568 328.331 279.733 328.331 279.889 328.375C280.797 328.361 281.705 328.346 282.613 328.346C286.364 328.361 290.1 328.45 293.837 328.808C294.655 328.897 295.489 328.987 296.308 329.091L296.397 328.525L299.598 307.861L265.628 307.861ZM270.883 327.854C270.305 327.833 269.758 327.588 269.356 327.171C268.955 326.754 268.73 326.197 268.73 325.617C268.73 325.038 268.955 324.481 269.356 324.064C269.758 323.647 270.305 323.402 270.883 323.381C271.461 323.402 272.008 323.647 272.41 324.064C272.811 324.481 273.035 325.038 273.035 325.617C273.035 326.197 272.811 326.753 272.41 327.17C272.008 327.587 271.461 327.832 270.883 327.854L270.883 327.854ZM278.922 327.854C278.343 327.833 277.796 327.588 277.395 327.171C276.993 326.754 276.769 326.197 276.769 325.617C276.769 325.038 276.993 324.481 277.395 324.064C277.796 323.647 278.343 323.402 278.922 323.381C279.5 323.402 280.048 323.647 280.449 324.064C280.851 324.481 281.076 325.038 281.076 325.617C281.076 326.197 280.851 326.754 280.449 327.171C280.048 327.588 279.5 327.833 278.922 327.854L278.922 327.854ZM286.692 327.586C286.113 327.564 285.566 327.32 285.165 326.902C284.763 326.485 284.539 325.929 284.539 325.349C284.539 324.77 284.763 324.213 285.165 323.796C285.566 323.379 286.113 323.134 286.692 323.113C287.269 323.134 287.817 323.379 288.218 323.796C288.619 324.213 288.844 324.77 288.844 325.349C288.844 325.928 288.619 326.485 288.218 326.902C287.817 327.319 287.27 327.564 286.692 327.586L286.692 327.586ZM294.328 327.854C293.75 327.833 293.203 327.588 292.801 327.171C292.4 326.754 292.175 326.197 292.175 325.617C292.175 325.038 292.4 324.481 292.801 324.064C293.203 323.647 293.75 323.402 294.328 323.381C294.906 323.402 295.453 323.647 295.855 324.064C296.256 324.481 296.48 325.038 296.48 325.617C296.48 326.197 296.256 326.753 295.855 327.17C295.453 327.587 294.906 327.832 294.328 327.854L294.328 327.854ZM292.259 330.836L291.798 329.703L291.321 330.925L289.133 336.575C291.009 336.68 292.899 336.844 294.789 337.112L292.259 330.836ZM286.468 329.777L286.99 331.343L288.552 336.069L290.741 330.984L291.351 329.553C289.728 329.658 288.091 329.732 286.469 329.777H286.468ZM286.037 331.432L285.724 330.552L285.397 331.491L283.714 336.412C285.099 336.426 286.483 336.456 287.882 336.516L286.037 331.432ZM284.772 329.807C284.057 329.807 283.342 329.822 282.613 329.836C281.988 329.822 281.363 329.822 280.723 329.807L280.886 330.224L281.497 331.879L282.821 335.413L284.25 331.611L284.92 329.807L284.772 329.807ZM280.053 332.013L279.666 331.074C279.532 331.417 279.398 331.76 279.264 332.103C278.683 333.579 278.103 335.055 277.492 336.516C278.951 336.456 280.41 336.412 281.869 336.397L280.053 332.013ZM273.637 329.523C273.875 329.986 274.098 330.463 274.322 330.925C274.575 331.462 274.828 331.984 275.081 332.52C275.527 333.46 275.974 334.384 276.406 335.323C276.793 334.295 277.195 333.281 277.582 332.267C277.82 331.686 278.058 331.089 278.296 330.508C278.386 330.254 278.49 330.016 278.594 329.762C276.942 329.717 275.289 329.643 273.637 329.523H273.637ZM292.259 330.836L291.798 329.702L291.321 330.925L289.133 336.575C291.009 336.68 292.899 336.844 294.79 337.112L292.259 330.836ZM286.469 329.777L286.99 331.343L288.552 336.069L290.741 330.984L291.351 329.553C289.728 329.658 288.091 329.732 286.469 329.777L286.469 329.777ZM286.037 331.432L285.724 330.552L285.397 331.491L283.714 336.411C285.099 336.426 286.483 336.456 287.882 336.516L286.037 331.432ZM284.772 329.807C284.057 329.807 283.342 329.822 282.613 329.836C281.988 329.822 281.363 329.822 280.723 329.807L280.886 330.224L281.497 331.879L282.822 335.413L284.251 331.611L284.92 329.807L284.772 329.807ZM280.053 332.013L279.666 331.074C279.532 331.417 279.398 331.76 279.264 332.103C278.683 333.579 278.103 335.055 277.492 336.516C278.951 336.456 280.41 336.412 281.869 336.397L280.053 332.013ZM273.637 329.523C273.875 329.986 274.098 330.463 274.322 330.925C274.575 331.462 274.828 331.984 275.081 332.52C275.527 333.46 275.974 334.384 276.406 335.323C276.793 334.295 277.195 333.28 277.582 332.267C277.82 331.686 278.058 331.089 278.296 330.508C278.386 330.254 278.49 330.016 278.594 329.762C276.942 329.717 275.289 329.643 273.637 329.523L273.637 329.523ZM284.772 329.807C283.477 329.941 282.182 330.09 280.886 330.224L281.497 331.879C282.405 331.79 283.328 331.7 284.251 331.611L284.921 329.807H284.772ZM285.724 330.552L285.397 331.491C285.605 331.477 285.829 331.462 286.037 331.432L285.724 330.552ZM286.469 329.777L286.99 331.343L290.741 330.984L291.351 329.553C289.728 329.658 288.091 329.732 286.469 329.777L286.469 329.777ZM291.798 329.702L291.321 330.925C291.634 330.895 291.947 330.866 292.259 330.836L291.798 329.702ZM292.185 329.494L292.661 330.806L294.938 337.112V337.127C294.979 337.125 295.019 337.13 295.058 337.142L296.1 330.478L296.308 329.091C294.924 329.27 293.554 329.389 292.185 329.494L292.185 329.494ZM294.924 337.157C294.924 337.172 294.924 337.202 294.894 337.202C294.878 337.208 294.86 337.209 294.844 337.204C294.827 337.198 294.814 337.187 294.805 337.172C290.76 337.67 286.688 337.909 282.613 337.888C280.693 337.873 278.773 337.828 276.853 337.738C276.757 337.809 276.645 337.853 276.528 337.866C276.41 337.879 276.291 337.861 276.183 337.813C276.12 337.778 276.06 337.738 276.004 337.694C274.069 337.574 272.119 337.41 270.184 337.142L271.181 343.553H294.06L295.058 337.142C295.013 337.14 294.967 337.145 294.924 337.157L294.924 337.157ZM275.959 342.986C275.38 342.967 274.831 342.723 274.427 342.306C274.024 341.889 273.799 341.331 273.799 340.75C273.799 340.169 274.024 339.611 274.427 339.194C274.831 338.777 275.38 338.533 275.959 338.514C276.539 338.533 277.088 338.777 277.491 339.194C277.894 339.611 278.119 340.169 278.119 340.75C278.119 341.331 277.894 341.889 277.491 342.306C277.088 342.723 276.539 342.967 275.959 342.986ZM283.462 342.986C282.882 342.967 282.333 342.723 281.93 342.306C281.527 341.889 281.301 341.331 281.301 340.75C281.301 340.169 281.527 339.611 281.93 339.194C282.333 338.777 282.882 338.533 283.462 338.514C284.041 338.533 284.59 338.777 284.993 339.194C285.396 339.611 285.622 340.169 285.622 340.75C285.622 341.331 285.396 341.889 284.993 342.306C284.59 342.723 284.041 342.967 283.462 342.986ZM290.964 342.718C290.385 342.699 289.835 342.455 289.432 342.038C289.029 341.62 288.804 341.062 288.804 340.482C288.804 339.901 289.029 339.343 289.432 338.926C289.835 338.509 290.385 338.265 290.964 338.245C291.543 338.265 292.093 338.509 292.496 338.926C292.899 339.343 293.124 339.901 293.124 340.482C293.124 341.062 292.899 341.62 292.496 342.038C292.093 342.455 291.544 342.699 290.964 342.718H290.964ZM292.259 330.836L291.798 329.702L291.321 330.925L289.133 336.575C291.009 336.68 292.899 336.844 294.79 337.112L292.259 330.836ZM286.468 329.777L286.99 331.342L288.552 336.069L290.741 330.984L291.351 329.553C289.728 329.658 288.091 329.732 286.469 329.777L286.468 329.777ZM286.037 331.432L285.724 330.552L285.397 331.491L283.714 336.411C285.099 336.426 286.483 336.456 287.882 336.515L286.037 331.432ZM284.772 329.806C284.057 329.806 283.342 329.822 282.613 329.836C281.988 329.822 281.363 329.822 280.723 329.806L280.886 330.224L281.497 331.879L282.822 335.413L284.251 331.611L284.92 329.807L284.772 329.806ZM280.053 332.013L279.666 331.074C279.532 331.417 279.398 331.76 279.264 332.103C278.683 333.579 278.103 335.055 277.492 336.516C278.951 336.456 280.41 336.412 281.869 336.397L280.053 332.013ZM273.637 329.523C273.875 329.986 274.098 330.463 274.322 330.925C274.575 331.462 274.828 331.984 275.081 332.52C275.527 333.46 275.974 334.384 276.406 335.323C276.793 334.295 277.195 333.28 277.582 332.267C277.82 331.685 278.058 331.089 278.296 330.508C278.386 330.254 278.49 330.015 278.594 329.762C276.942 329.717 275.289 329.643 273.637 329.523L273.637 329.523ZM273.831 332.639C273.622 332.118 273.399 331.581 273.191 331.044C273.071 330.761 272.968 330.463 272.848 330.179C272.684 330.493 272.506 330.821 272.342 331.134C272.044 331.715 271.732 332.297 271.419 332.878C270.958 333.758 270.481 334.637 269.99 335.517C269.984 335.522 269.977 335.527 269.969 335.529C269.962 335.532 269.953 335.533 269.945 335.532L270.184 337.142C271.94 336.888 273.712 336.739 275.468 336.62C274.932 335.293 274.381 333.966 273.831 332.64L273.831 332.639ZM275.081 332.52C275.527 333.46 275.974 334.384 276.406 335.323C276.793 334.295 277.195 333.28 277.582 332.267C276.748 332.341 275.915 332.431 275.081 332.52L275.081 332.52ZM280.053 332.013C279.785 332.043 279.517 332.073 279.264 332.103C278.683 333.579 278.103 335.055 277.492 336.516C278.951 336.456 280.41 336.412 281.869 336.397L280.053 332.013ZM281.497 331.879L282.822 335.413L284.251 331.611C283.328 331.7 282.405 331.79 281.497 331.879L281.497 331.879ZM286.037 331.432C285.829 331.462 285.605 331.476 285.397 331.491L283.715 336.411C285.099 336.426 286.484 336.456 287.883 336.516L286.037 331.432ZM286.99 331.343L288.552 336.069L290.741 330.984L286.99 331.343ZM292.259 330.836C291.947 330.865 291.634 330.895 291.321 330.925L289.133 336.575C291.009 336.68 292.899 336.844 294.79 337.112L292.259 330.836ZM268.933 329.091L269.305 331.462L269.543 333.072L269.901 335.323C270.214 334.518 270.526 333.728 270.839 332.938C271.062 332.356 271.3 331.79 271.538 331.223C271.776 330.627 272.015 330.03 272.268 329.434C271.151 329.345 270.05 329.225 268.933 329.091Z" fill="#2B2B2B"/>
<path d="M284.679 325.701C283.436 324.582 282.516 323.149 282.014 321.553C281.78 320.757 281.477 319.968 281.298 319.155L280.795 316.702C280.384 313.398 280.258 310.065 280.42 306.74C280.478 303.409 280.975 300.128 281.361 296.832C281.963 293.579 282.428 290.289 283.217 287.077C283.956 283.852 284.696 280.629 285.632 277.46C286.532 274.281 287.398 271.093 288.508 267.982C289.582 264.86 290.545 261.704 291.739 258.628C292.947 255.556 294.093 252.467 295.352 249.42C293.601 255.785 291.573 262.042 289.869 268.393L288.542 273.139L287.322 277.911C286.927 279.503 286.451 281.076 286.097 282.677L285.02 287.475C284.201 290.655 283.741 293.897 283.083 297.107C282.601 300.339 282.093 303.573 281.832 306.827C281.511 310.073 281.463 313.34 281.689 316.595L281.978 319.017C282.085 319.823 282.315 320.602 282.478 321.403C282.849 322.994 283.605 324.47 284.679 325.701Z" fill="#2B2B2B"/>
<path d="M269.931 335.488L269.901 335.323L269.856 335.458C269.841 335.488 269.856 335.518 269.886 335.548C269.916 335.563 269.931 335.548 269.946 335.533L269.931 335.488Z" fill="#FCFCFC"/>
<path d="M322.607 338.359C327.489 337.014 332.441 335.939 337.441 335.142C342.431 334.278 347.465 333.695 352.519 333.395C347.639 334.744 342.686 335.818 337.685 336.612C332.695 337.473 327.661 338.056 322.607 338.359Z" fill="#FDB914"/>
<path d="M381.691 337.706C386.573 336.36 391.525 335.286 396.525 334.489C401.515 333.624 406.548 333.041 411.603 332.741C406.722 334.091 401.769 335.165 396.768 335.959C391.779 336.819 386.745 337.403 381.691 337.706Z" fill="#FDB914"/>
<path d="M442.276 327.19C447.158 325.844 452.11 324.77 457.111 323.973C462.1 323.108 467.134 322.525 472.188 322.225C467.307 323.574 462.355 324.649 457.354 325.442C452.364 326.303 447.331 326.887 442.276 327.19Z" fill="#FDB914"/>
<path d="M695.28 421.4C692.171 419.288 689.433 416.675 687.177 413.668C684.862 410.718 682.776 407.596 680.937 404.329C679.087 401.073 677.415 397.722 675.873 394.314C674.33 390.899 672.891 387.469 671.607 383.907L673.021 384.792C665.56 385.759 657.977 385.102 650.792 382.865C647.223 381.818 643.734 380.515 640.352 378.967C636.968 377.461 633.674 375.762 630.485 373.877C624.129 370.133 618.085 365.88 612.414 361.16C606.744 356.467 601.381 351.413 596.359 346.029L596.334 346.003C596.157 345.81 596.06 345.557 596.063 345.295C596.065 345.032 596.168 344.781 596.35 344.592C598.518 342.346 600.762 340.26 603.088 338.229C605.402 336.193 607.845 334.305 610.339 332.49C612.833 330.653 615.488 329.046 618.271 327.69C621.056 326.205 624.134 325.354 627.285 325.2C627.346 325.2 627.407 325.21 627.465 325.23C630.422 326.255 633.403 327.205 636.371 328.196L645.285 331.141C651.219 333.131 657.191 335.003 663.153 336.91L662.006 337.534L669.824 304.751C672.461 293.83 675.146 282.923 677.88 272.028L677.845 272.201C678.035 271.265 678.329 270.353 678.72 269.482C679.06 268.668 679.463 267.909 679.864 267.148C680.702 265.679 681.64 264.27 682.672 262.931C684.698 260.302 686.956 257.861 689.42 255.637C694.28 251.255 699.567 247.372 705.199 244.044C708.016 242.349 710.936 240.831 713.94 239.497C716.957 238.191 720.051 237.071 723.205 236.143C729.516 234.271 736.058 233.297 742.64 233.248C749.212 233.18 755.76 234.058 762.083 235.856C765.249 236.762 768.331 237.943 771.292 239.386C772.024 239.77 772.737 240.194 773.458 240.597L774.536 241.209L775.561 241.912C776.241 242.387 776.935 242.838 777.598 243.333L779.505 244.932C784.493 249.334 788.036 255.144 789.667 261.6C791.085 267.949 791.266 274.514 790.199 280.932C790.196 280.956 790.188 280.979 790.175 281C790.163 281.021 790.146 281.039 790.127 281.054C790.107 281.068 790.085 281.078 790.061 281.084C790.038 281.09 790.013 281.091 789.989 281.088C789.943 281.08 789.901 281.056 789.872 281.019C789.843 280.982 789.829 280.936 789.832 280.889C790.452 274.549 789.899 268.15 788.202 262.011C786.387 256.014 782.831 250.694 777.986 246.728L776.149 245.311C775.511 244.874 774.84 244.48 774.19 244.062L773.208 243.444L772.171 242.913C771.477 242.564 770.797 242.192 770.096 241.861C767.255 240.578 764.31 239.537 761.293 238.752C755.228 237.19 748.97 236.51 742.712 236.733C739.59 236.829 736.48 237.145 733.403 237.681C730.322 238.184 727.279 238.895 724.293 239.808C721.309 240.724 718.383 241.822 715.531 243.095C712.69 244.391 709.921 245.839 707.234 247.432C701.83 250.642 696.73 254.34 691.998 258.482C689.67 260.523 687.529 262.77 685.602 265.196C684.659 266.384 683.799 267.635 683.027 268.941C682.673 269.595 682.312 270.247 682.025 270.911C681.753 271.501 681.533 272.115 681.37 272.744L681.334 272.917C678.486 283.782 675.592 294.636 672.652 305.478L663.732 337.978L663.724 338.006C663.693 338.117 663.641 338.221 663.57 338.312C663.5 338.404 663.411 338.48 663.311 338.537C663.211 338.594 663.1 338.631 662.986 338.645C662.872 338.659 662.755 338.651 662.644 338.62L662.584 338.602C656.684 336.512 650.796 334.387 644.869 332.38L635.991 329.329C633.028 328.322 630.08 327.274 627.106 326.3L627.285 326.329C624.312 326.511 621.415 327.346 618.8 328.773C616.114 330.152 613.562 331.78 611.178 333.634C608.765 335.469 606.455 337.437 604.26 339.529C602.061 341.609 599.909 343.782 597.917 346.019L597.908 344.582C603.055 349.674 608.52 354.434 614.27 358.831C619.962 363.274 625.935 367.342 632.153 371.009C635.263 372.818 638.431 374.519 641.692 376.007C644.928 377.529 648.27 378.816 651.691 379.857C658.445 382.088 665.588 382.888 672.667 382.206L672.719 382.2C673.014 382.169 673.31 382.24 673.558 382.402C673.807 382.565 673.991 382.808 674.082 383.09C675.188 386.56 676.493 390.037 677.881 393.444C679.274 396.857 680.797 400.218 682.494 403.484C684.116 406.789 685.982 409.968 688.078 412.993C690.129 416.05 692.627 418.78 695.488 421.094C695.528 421.123 695.554 421.167 695.562 421.215C695.57 421.264 695.558 421.313 695.529 421.353C695.501 421.39 695.46 421.416 695.414 421.424C695.368 421.433 695.32 421.425 695.28 421.4Z" fill="#2B2B2B"/>
</svg>
