<svg width="500" height="393" viewBox="0 0 500 393" fill="none" xmlns="http://www.w3.org/2000/svg">
<path d="M272.089 151.526C272.089 151.526 270.254 150.425 268.543 152.382C268.543 152.382 265.486 148.038 252.525 151.8C252.525 151.8 254.236 155.072 255.459 155.072C256.682 155.072 253.136 160.696 249.835 160.452C249.835 160.452 244.21 168.644 248.49 176.592C252.708 184.426 255.738 186.914 259.922 181.833C260.05 181.675 260.193 181.53 260.349 181.4C261.552 180.408 266.879 176.282 268.767 179.358C269.169 180.042 269.284 180.857 269.087 181.625C268.225 185.234 264.196 198.526 252.525 193.221C252.525 193.221 238.923 188.121 242.131 176.038C242.474 174.809 242.972 173.628 243.612 172.525C244.229 171.397 244.609 170.155 244.73 168.875C244.85 167.596 244.707 166.305 244.311 165.082C243.819 163.339 242.71 161.834 241.191 160.849C239.717 159.93 237.775 159.519 236.304 162.089C235.695 163.158 235.374 164.366 235.372 165.597C235.37 166.723 235.579 168.104 236.507 168.767L235.372 170.967C234.755 169.712 233.966 168.549 233.028 167.511C231.457 165.92 230.448 163.86 230.153 161.643C229.738 158.127 230.238 152.876 234.428 146.757C234.428 146.757 240.053 135.508 250.568 135.753C261.084 135.997 270.132 138.809 272.089 151.526Z" fill="#2B2B2B"/>
<path d="M254.481 166.199C256.308 165.781 258.185 165.626 260.055 165.74C260.997 165.786 261.932 165.928 262.846 166.163C263.778 166.363 264.644 166.796 265.364 167.421C264.533 167.036 263.646 166.786 262.736 166.681C261.837 166.552 260.93 166.458 260.015 166.417C258.187 166.304 256.349 166.295 254.481 166.199Z" fill="#2B2B2B"/>
<path d="M272.088 166.024C271.42 166.228 270.801 166.569 270.272 167.025C270.021 167.232 269.816 167.49 269.672 167.781C269.527 168.072 269.446 168.391 269.433 168.716C269.482 169.382 269.657 170.034 269.948 170.635L270.747 172.601C271.344 173.931 271.69 175.36 271.77 176.815C271.768 177.199 271.698 177.579 271.562 177.937C271.416 178.3 271.176 178.618 270.868 178.859C270.242 179.253 269.503 179.429 268.767 179.358C269.457 179.3 270.115 179.037 270.655 178.603C270.877 178.367 271.044 178.084 271.145 177.776C271.246 177.468 271.278 177.141 271.24 176.819C271.187 176.139 271.049 175.467 270.828 174.821C270.623 174.159 270.377 173.503 270.115 172.849C269.864 172.191 269.592 171.536 269.348 170.862C269.231 170.522 269.112 170.182 269.02 169.824C268.906 169.453 268.867 169.062 268.906 168.676C268.947 168.292 269.072 167.922 269.273 167.591C269.473 167.261 269.744 166.979 270.066 166.766C270.671 166.361 271.365 166.107 272.088 166.024Z" fill="#2B2B2B"/>
<path d="M272.089 151.526C272.318 152.896 272.488 154.274 272.6 155.66C272.727 157.043 272.806 158.43 272.836 159.821C272.858 161.212 272.837 162.606 272.728 164.001C272.664 165.422 272.347 166.821 271.791 168.131C271.783 168.147 271.772 168.162 271.76 168.176C271.331 168.638 270.928 169.124 270.553 169.631C270.367 169.885 270.202 170.153 270.059 170.434C269.899 170.707 269.836 171.025 269.877 171.338C269.779 171.023 269.797 170.683 269.928 170.38C270.04 170.074 270.177 169.778 270.337 169.494C270.656 168.927 271.025 168.391 271.44 167.89L271.409 167.935C271.646 167.309 271.804 166.656 271.879 165.992C271.985 165.321 272.028 164.636 272.078 163.954C272.159 162.584 272.173 161.206 272.181 159.827C272.181 157.068 272.12 154.303 272.089 151.526Z" fill="#2B2B2B"/>
<path d="M264.752 175.492C264.623 175.757 264.519 176.034 264.441 176.318C264.361 176.581 264.344 176.859 264.39 177.13C264.428 177.398 264.545 177.649 264.726 177.85C264.919 178.072 265.132 178.275 265.364 178.456C265.215 178.412 265.07 178.36 264.928 178.299C264.789 178.223 264.659 178.133 264.538 178.031C264.286 177.812 264.115 177.514 264.055 177.186C264.012 176.861 264.061 176.53 264.196 176.231C264.321 175.945 264.512 175.692 264.752 175.492Z" fill="#2B2B2B"/>
<path d="M236.507 168.767C236.93 169.298 237.268 169.892 237.508 170.527C237.636 170.851 237.729 171.189 237.785 171.533C237.815 171.714 237.827 171.897 237.821 172.08L237.817 172.22L237.825 172.297C237.822 172.347 237.833 172.396 237.857 172.44C237.962 172.664 238.147 172.84 238.376 172.933C238.647 173.072 238.933 173.18 239.229 173.256C239.857 173.425 240.503 173.519 241.153 173.535C240.511 173.787 239.815 173.87 239.131 173.777C238.774 173.741 238.425 173.651 238.095 173.512C237.9 173.436 237.723 173.323 237.573 173.179C237.422 173.035 237.302 172.862 237.218 172.671C237.175 172.563 237.153 172.448 237.155 172.332L237.153 172.16L237.158 172.053C237.166 171.905 237.162 171.757 237.148 171.609C237.121 171.296 237.072 170.985 237.002 170.679C236.863 170.05 236.681 169.419 236.507 168.767Z" fill="#2B2B2B"/>
<path d="M235.373 170.967C235.1 171.956 234.715 172.911 234.226 173.813C233.747 174.728 233.169 175.588 232.502 176.376C231.835 177.18 231.044 177.872 230.158 178.426C229.27 178.976 228.254 179.285 227.21 179.322C228.166 179.035 229.063 178.583 229.863 177.986C230.644 177.384 231.356 176.697 231.985 175.936C232.631 175.177 233.228 174.377 233.772 173.543C234.32 172.704 234.865 171.853 235.373 170.967Z" fill="#2B2B2B"/>
<path d="M244.333 199.58C245.105 199.241 245.836 198.813 246.51 198.306C247.178 197.806 247.812 197.263 248.408 196.678C249.022 196.111 249.573 195.477 250.145 194.856L250.977 193.895C251.248 193.567 251.519 193.237 251.817 192.92C251.647 193.317 251.449 193.7 251.251 194.085C251.028 194.453 250.808 194.827 250.562 195.183C250.066 195.897 249.502 196.562 248.879 197.168C248.252 197.778 247.553 198.309 246.796 198.749C246.046 199.204 245.205 199.488 244.333 199.58Z" fill="#2B2B2B"/>
<path d="M232.1 176.156C231.491 175.254 230.739 174.459 229.872 173.801C229.691 173.642 229.473 173.532 229.237 173.482C229.002 173.432 228.758 173.444 228.528 173.516C228.122 173.792 227.831 174.206 227.709 174.681C227.542 175.187 227.422 175.708 227.35 176.236C227.313 176.499 227.281 176.772 227.257 177.025C227.259 177.266 227.28 177.548 227.304 177.811C227.409 178.89 227.609 179.957 227.901 181C228.44 183.123 229.276 185.158 230.385 187.047C231.508 188.934 232.852 190.681 234.389 192.251C235.159 193.031 235.96 193.781 236.772 194.512C237.616 195.208 238.423 195.956 239.301 196.595C239.725 196.938 240.192 197.215 240.635 197.529C241.103 197.798 241.553 198.104 242.041 198.333C242.984 198.845 243.987 199.238 245.027 199.503C247.104 200.054 249.311 199.822 251.229 198.852C253.156 197.823 254.774 196.301 255.918 194.44C255.922 194.432 255.929 194.426 255.938 194.423C255.947 194.421 255.956 194.421 255.964 194.426C255.971 194.43 255.977 194.437 255.98 194.446C255.982 194.454 255.982 194.463 255.979 194.471C254.984 196.491 253.42 198.177 251.479 199.32C250.486 199.884 249.393 200.25 248.26 200.4C247.124 200.534 245.972 200.461 244.862 200.184C243.76 199.922 242.699 199.51 241.71 198.958C241.204 198.707 240.746 198.383 240.266 198.092C239.816 197.761 239.34 197.462 238.913 197.103C238.019 196.431 237.235 195.646 236.407 194.908C235.985 194.549 235.627 194.12 235.239 193.725C234.866 193.316 234.462 192.936 234.115 192.503C232.667 190.83 231.352 189.046 230.183 187.167C228.992 185.29 228.043 183.268 227.36 181.152C227.026 180.082 226.808 178.979 226.71 177.861C226.691 177.575 226.674 177.308 226.681 176.998C226.713 176.704 226.753 176.43 226.798 176.149C226.888 175.587 227.029 175.035 227.221 174.499C227.307 174.203 227.451 173.928 227.645 173.689C227.839 173.449 228.078 173.251 228.349 173.105C228.654 172.985 228.992 172.979 229.301 173.086C229.583 173.182 229.846 173.326 230.078 173.511C230.933 174.239 231.639 175.125 232.158 176.121C232.16 176.125 232.161 176.129 232.162 176.133C232.162 176.138 232.162 176.142 232.161 176.146C232.16 176.151 232.158 176.155 232.155 176.158C232.152 176.162 232.149 176.165 232.145 176.167C232.137 176.171 232.129 176.172 232.12 176.17C232.112 176.168 232.105 176.163 232.1 176.156Z" fill="#2B2B2B"/>
<path d="M200.622 185.396C201.512 185.648 202.32 186.132 202.964 186.796C203.628 187.451 204.159 188.227 204.527 189.083C204.897 189.934 205.104 190.847 205.14 191.774C205.158 192.23 205.134 192.687 205.07 193.139C204.992 193.588 204.874 194.029 204.716 194.456C204.557 194.014 204.486 193.587 204.369 193.171C204.244 192.756 204.169 192.344 204.03 191.95C203.809 191.167 203.537 190.4 203.217 189.652C202.896 188.908 202.521 188.189 202.094 187.501C201.647 186.769 201.156 186.066 200.622 185.396Z" fill="#2B2B2B"/>
<path d="M203.737 202.514C204.012 205.685 204.147 208.855 204.231 212.025C204.325 215.194 204.335 218.363 204.329 221.532C204.296 224.701 204.245 227.87 204.111 231.038C203.986 234.206 203.81 237.374 203.493 240.541C203.216 237.371 203.081 234.201 202.996 231.031C202.903 227.861 202.893 224.692 202.901 221.523C202.936 218.354 202.986 215.186 203.121 212.017C203.246 208.849 203.421 205.681 203.737 202.514Z" fill="#2B2B2B"/>
<path d="M269.129 181.567C271.745 183.204 274.313 184.908 276.833 186.681C278.094 187.566 279.345 188.468 280.586 189.385L282.432 190.795C282.756 191.038 283.061 191.305 283.344 191.594L283.783 192.052L284.153 192.52C285.11 193.754 285.983 195.051 286.765 196.402C287.555 197.733 288.322 199.073 289.069 200.422C290.545 203.132 292.065 205.811 293.628 208.461C294.41 209.786 295.207 211.103 296.02 212.412L297.234 214.373C297.594 215.014 298.022 215.615 298.51 216.165C299.028 216.673 299.644 217.176 300.18 217.807C300.815 218.469 301.198 219.333 301.261 220.248C301.213 221.186 300.804 222.069 300.12 222.713C299.828 223.008 299.521 223.288 299.199 223.552C298.912 223.784 298.633 224.027 298.359 224.278C297.81 224.783 297.304 225.313 296.79 225.884C296.266 226.462 295.724 227.024 295.174 227.578C294.063 228.688 292.884 229.726 291.642 230.687C290.377 231.666 289 232.492 287.539 233.146C286.773 233.47 285.968 233.693 285.145 233.809C284.28 233.937 283.397 233.86 282.567 233.585C282.435 233.545 282.322 233.457 282.251 233.339L282.246 233.331C281.71 232.443 281.123 231.557 280.529 230.691C279.936 229.82 279.315 228.97 278.665 228.141C278.014 227.318 277.317 226.532 276.579 225.786C275.868 225.019 274.998 224.417 274.029 224.023L274.023 224.021C274.006 224.015 273.992 224.002 273.984 223.986C273.976 223.97 273.974 223.952 273.978 223.934C273.983 223.917 273.994 223.902 274.01 223.893C274.025 223.883 274.043 223.88 274.061 223.883C275.12 224.157 276.098 224.677 276.917 225.401C277.757 226.08 278.544 226.822 279.271 227.621C280.732 229.203 282.075 230.891 283.288 232.671L282.967 232.418C284.327 232.695 285.742 232.49 286.967 231.836C288.304 231.199 289.561 230.405 290.711 229.472C291.903 228.546 293.043 227.556 294.125 226.504C294.673 225.981 295.215 225.449 295.738 224.9C296.269 224.342 296.842 223.772 297.441 223.252C297.741 222.99 298.049 222.736 298.368 222.493C298.656 222.252 298.93 222.047 299.171 221.802C299.639 221.399 299.945 220.839 300.031 220.228C299.994 219.594 299.741 218.991 299.314 218.52C298.877 217.957 298.324 217.447 297.788 216.835C297.646 216.675 297.514 216.507 297.392 216.332L297.082 215.808L296.525 214.786L295.436 212.746C294.717 211.384 293.983 210.031 293.234 208.688C291.731 206.003 290.147 203.363 288.43 200.81C286.729 198.26 285.004 195.678 283.161 193.323L282.812 192.887L282.449 192.516C282.2 192.249 281.929 192.003 281.641 191.78L279.845 190.353L276.219 187.507C273.797 185.611 271.405 183.669 269.045 181.682C269.031 181.671 269.022 181.654 269.02 181.636C269.018 181.618 269.023 181.6 269.033 181.585C269.044 181.571 269.06 181.561 269.078 181.557C269.095 181.554 269.114 181.557 269.129 181.567V181.567Z" fill="#2B2B2B"/>
<path d="M278.691 204.634C277.441 209.333 276.26 214.043 275.274 218.772C274.767 221.116 274.413 223.491 274.214 225.881C274.146 227.03 274.139 228.299 274.038 229.529C273.94 230.783 273.73 232.026 273.411 233.243C272.661 235.648 271.458 237.888 269.867 239.843C269.133 240.823 268.354 241.771 267.625 242.723C267.274 243.195 266.918 243.665 266.604 244.171C266.266 244.659 265.961 245.172 265.657 245.687C264.461 247.777 263.391 249.938 262.454 252.157C261.465 254.367 260.613 256.638 259.78 258.923C260.841 254.146 262.487 249.519 264.682 245.146C265.249 244.04 265.898 242.979 266.624 241.971C267.344 240.975 268.082 240.024 268.778 239.042C270.24 237.203 271.346 235.106 272.036 232.86C272.342 231.729 272.548 230.573 272.649 229.406C272.763 228.216 272.759 227.053 272.869 225.78C273.124 223.333 273.566 220.908 274.191 218.528C275.39 213.804 276.893 209.163 278.691 204.634Z" fill="#2B2B2B"/>
<path d="M332.58 268.265C332.296 268.265 332.023 268.152 331.822 267.951C331.621 267.75 331.508 267.478 331.508 267.194C331.508 266.91 331.62 266.637 331.821 266.436C332.022 266.235 332.294 266.122 332.579 266.122L357.52 266.089H357.521C357.662 266.089 357.801 266.116 357.931 266.17C358.061 266.224 358.18 266.303 358.279 266.402C358.379 266.502 358.458 266.62 358.512 266.75C358.566 266.88 358.593 267.019 358.593 267.16C358.594 267.3 358.566 267.44 358.512 267.57C358.458 267.7 358.38 267.818 358.28 267.917C358.181 268.017 358.063 268.096 357.933 268.15C357.803 268.204 357.663 268.232 357.523 268.232L332.581 268.265H332.58Z" fill="#FDB914"/>
<path d="M173.916 267.554L142.468 267.85L142.488 269.993L173.936 269.696L173.916 267.554Z" fill="#FDB914"/>
<path d="M261.084 170.764C261.348 170.755 261.598 170.643 261.782 170.453C261.966 170.263 262.068 170.009 262.068 169.745C262.068 169.48 261.966 169.226 261.782 169.036C261.598 168.846 261.348 168.735 261.084 168.726C260.82 168.735 260.57 168.846 260.386 169.036C260.202 169.226 260.1 169.48 260.1 169.745C260.1 170.009 260.202 170.263 260.386 170.453C260.57 170.643 260.82 170.755 261.084 170.764Z" fill="#2B2B2B"/>
<path d="M288.052 276.394C291.653 278.849 295.705 280.565 299.974 281.443C302.093 281.852 304.254 282.007 306.41 281.904C308.561 281.788 310.692 281.426 312.761 280.826C316.894 279.568 320.793 277.642 324.303 275.124C325.184 274.53 326.017 273.866 326.794 273.14C327.569 272.405 328.3 271.624 328.981 270.801C330.343 269.154 331.522 267.364 332.497 265.462L332.428 265.751L332.428 265.744L332.429 265.729C332.43 265.634 332.453 265.541 332.496 265.456C333.338 263.803 334.026 262.076 334.551 260.296C335.073 258.509 335.41 256.673 335.557 254.816L335.56 254.777L335.565 254.752C335.575 254.716 335.563 254.733 335.574 254.799L335.568 254.687C335.862 250.929 335.334 247.153 334.02 243.62C332.679 240.093 330.602 236.892 327.927 234.23C325.284 231.614 322.143 229.554 318.69 228.172C315.237 226.789 311.542 226.113 307.824 226.184C304.105 226.254 300.438 227.068 297.04 228.579C293.641 230.09 290.58 232.267 288.037 234.982C285.487 237.706 283.502 240.908 282.198 244.404C280.897 247.946 280.293 251.705 280.418 255.475C280.419 255.485 280.417 255.495 280.414 255.504C280.41 255.513 280.405 255.521 280.398 255.528C280.392 255.535 280.384 255.541 280.375 255.545C280.366 255.549 280.357 255.551 280.347 255.551C280.329 255.551 280.311 255.544 280.297 255.532C280.283 255.519 280.274 255.502 280.272 255.484C279.817 251.66 280.182 247.783 281.344 244.111C282.514 240.401 284.457 236.98 287.045 234.075C289.639 231.147 292.82 228.797 296.381 227.177C299.949 225.56 303.821 224.723 307.738 224.722C311.63 224.684 315.486 225.465 319.056 227.015C322.626 228.565 325.829 230.848 328.459 233.718C331.063 236.55 333.093 239.859 334.438 243.464C335.781 247.075 336.43 250.906 336.35 254.758L336.344 254.646C336.36 254.732 336.359 254.821 336.34 254.907L336.347 254.843C336.295 256.774 336.042 258.693 335.592 260.571C335.148 262.457 334.497 264.288 333.651 266.031L333.719 265.744L333.719 265.751C333.72 265.847 333.699 265.942 333.657 266.028L333.651 266.04C332.661 268.05 331.425 269.929 329.97 271.633C329.246 272.485 328.471 273.293 327.65 274.052C326.813 274.803 325.923 275.49 324.985 276.109C321.348 278.663 317.301 280.576 313.018 281.764C308.716 282.933 304.194 283.044 299.84 282.087C295.543 281.062 291.502 279.166 287.968 276.516C287.953 276.504 287.942 276.487 287.939 276.468C287.936 276.45 287.94 276.43 287.951 276.414C287.962 276.399 287.978 276.388 287.997 276.384C288.016 276.38 288.035 276.384 288.052 276.394L288.052 276.394Z" fill="#2B2B2B"/>
<path d="M294.352 229.201C294.156 229.726 293.991 230.259 293.825 230.789C293.662 231.32 293.503 231.851 293.36 232.386C293.201 232.914 293.073 233.453 292.947 233.992L292.533 235.594L292.554 235.46C292.552 235.521 292.541 235.581 292.519 235.638C292.493 235.707 292.454 235.771 292.403 235.824C292.351 235.878 292.29 235.921 292.222 235.95C292.154 235.98 292.08 235.996 292.006 235.997L292.527 235.601C292.226 237.152 291.854 238.678 291.538 240.22C291.248 241.767 290.956 243.315 290.711 244.874C290.457 246.431 290.204 247.989 289.991 249.56C289.748 251.127 289.518 252.702 289.245 254.28C289.102 252.685 289.055 251.084 289.103 249.484C289.131 247.882 289.24 246.283 289.432 244.693C289.632 243.104 289.873 241.517 290.222 239.95C290.381 239.164 290.595 238.388 290.814 237.615C291.035 236.843 291.238 236.067 291.477 235.302L291.998 234.905C291.925 234.906 291.854 234.922 291.788 234.951C291.721 234.98 291.661 235.021 291.611 235.074C291.562 235.126 291.523 235.188 291.498 235.256C291.477 235.311 291.466 235.369 291.464 235.428L291.485 235.294C291.88 234.236 292.244 233.176 292.712 232.149C293.167 231.118 293.716 230.131 294.352 229.201Z" fill="#2B2B2B"/>
<path d="M322.077 229.201C323.05 230.877 323.854 232.645 324.477 234.48C324.823 235.389 325.068 236.326 325.367 237.25C325.632 238.183 325.852 239.127 326.095 240.068C326.942 243.854 327.486 247.702 327.723 251.574C327.967 255.439 327.97 259.315 327.732 263.18C327.613 265.109 327.397 267.032 327.212 268.952C326.916 270.863 326.659 272.775 326.319 274.673C326.35 272.739 326.473 270.821 326.541 268.9L326.662 263.142C326.652 262.183 326.647 261.225 326.654 260.267L326.659 258.831L326.608 257.396L326.532 254.527L326.354 251.664C326.127 247.849 325.692 244.048 325.05 240.28L324.498 237.467C324.277 236.539 324.099 235.595 323.838 234.676C323.394 232.808 322.806 230.977 322.077 229.201Z" fill="#2B2B2B"/>
<path d="M307.587 266.937C308.029 266.493 308.404 265.988 308.702 265.437C308.695 266.08 308.68 266.715 308.666 267.358C308.573 272.001 308.395 276.644 308.13 281.287C307.866 276.644 307.687 272.001 307.595 267.358C307.595 267.215 307.587 267.08 307.587 266.937Z" fill="#2B2B2B"/>
<path d="M307.781 262.344C307.781 262.344 308.252 261.78 308.766 261.037C308.759 261.758 308.752 262.487 308.738 263.208C308.491 262.849 308.163 262.553 307.781 262.344Z" fill="#2B2B2B"/>
<path d="M308.816 252.737V254.108L308.795 257.473C308.343 257.509 307.898 257.598 307.466 257.737C307.459 256.523 307.452 255.315 307.445 254.108V252.737C307.473 243.673 307.602 234.615 308.131 225.551C308.652 234.615 308.788 243.673 308.816 252.737Z" fill="#2B2B2B"/>
<path d="M282.797 241.812C286.766 240.048 290.919 238.735 295.18 237.896C299.447 237.024 303.787 236.563 308.142 236.519C310.321 236.454 312.496 236.629 314.67 236.75C315.753 236.871 316.832 237.028 317.911 237.166C318.45 237.242 318.992 237.297 319.528 237.39L321.126 237.733C325.386 238.588 329.527 239.958 333.458 241.812C332.414 241.514 331.379 241.206 330.353 240.885L328.811 240.412C328.296 240.262 327.762 240.171 327.239 240.049L324.106 239.319C323.053 239.118 321.991 238.966 320.937 238.787L319.353 238.527C318.824 238.457 318.289 238.415 317.758 238.358C316.693 238.255 315.631 238.132 314.567 238.045C312.429 237.966 310.297 237.804 308.157 237.89C303.874 237.927 299.6 238.28 295.369 238.945L292.198 239.495C291.149 239.716 290.092 239.914 289.045 240.156C286.939 240.604 284.864 241.175 282.797 241.812Z" fill="#2B2B2B"/>
<path d="M307.495 269.251L314.064 268.403C316.238 268.097 318.406 267.771 320.561 267.381C322.719 267.01 324.867 266.573 327.012 266.112C328.075 265.845 329.147 265.604 330.225 265.366L331.037 265.199L331.836 264.992C332.371 264.855 332.912 264.729 333.459 264.608C332.967 264.863 332.469 265.11 331.965 265.35C331.465 265.597 330.953 265.817 330.429 266.008C329.389 266.399 328.343 266.786 327.288 267.147C325.161 267.814 322.994 268.343 320.799 268.731C316.412 269.54 311.931 269.715 307.495 269.251Z" fill="#2B2B2B"/>
<path d="M280.266 253.423C281.673 253.337 283.08 253.265 284.488 253.208C284.104 253.311 283.727 253.437 283.359 253.587C282.323 253.537 281.295 253.48 280.266 253.423Z" fill="#2B2B2B"/>
<path d="M335.995 253.423C331.352 253.687 326.709 253.865 322.066 253.958C317.645 254.058 313.23 254.094 308.816 254.108H307.445C306.888 254.108 306.338 254.101 305.78 254.101C305.838 253.508 305.545 253.115 304.716 253.073C303.987 253.053 303.273 253.29 302.702 253.744C302.573 253.844 302.43 253.951 302.266 254.073C297.93 254.044 293.597 253.961 289.266 253.823C289.249 253.669 289.2 253.52 289.124 253.385C289.048 253.25 288.946 253.132 288.823 253.037C295.03 252.823 301.238 252.758 307.445 252.737H308.816C313.23 252.751 317.645 252.787 322.066 252.887C326.709 252.973 331.352 253.151 335.995 253.423Z" fill="#2B2B2B"/>
<path d="M292.009 235.444C292.009 235.445 292.009 235.446 292.008 235.447C292.008 235.448 292.008 235.448 292.007 235.449C292.006 235.45 292.005 235.45 292.005 235.451C292.004 235.451 292.003 235.451 292.002 235.451C291.341 236.7 290.826 238.02 290.466 239.387C290.459 239.401 290.459 239.423 290.452 239.437C289.916 241.501 290.18 241.88 289.473 243.915C289.073 245.065 288.716 245.73 288.916 246.68C289.106 247.278 289.348 247.859 289.638 248.415C289.723 248.594 289.809 248.787 289.909 249.001C290.402 250.087 290.523 250.344 290.416 250.673C290.28 251.073 289.966 251.123 289.388 251.473C289.184 251.592 288.99 251.728 288.809 251.88C288.466 252.138 288.15 252.429 287.866 252.751C285.725 252.729 283.617 253.279 281.759 254.344C281.316 254.594 280.838 254.844 280.323 255.108H280.316C280.295 254.801 280.288 254.494 280.273 254.187C280.266 253.93 280.266 253.68 280.266 253.423C280.261 249.414 281.124 245.452 282.795 241.808L282.802 241.801H282.809C283.481 240.325 284.284 238.912 285.209 237.58C288.316 234.551 291.666 232.98 292.78 232.987C292.901 232.976 293.021 233.012 293.116 233.087C293.366 233.337 292.766 234.023 292.009 235.444Z" fill="#FDB914"/>
<path d="M335.995 253.423C335.995 253.658 335.995 253.894 335.98 254.13C335.98 254.33 335.966 254.523 335.959 254.723C335.959 254.758 335.952 254.794 335.952 254.83C335.95 255.037 335.939 255.245 335.916 255.451C335.664 259.02 334.72 262.507 333.137 265.715C333.117 265.728 333.096 265.737 333.073 265.744V265.751C332.886 265.84 332.686 265.898 332.48 265.923C332.24 265.947 331.997 265.92 331.768 265.844C331.539 265.767 331.329 265.643 331.152 265.48C331.144 265.473 331.137 265.458 331.123 265.451C330.544 264.815 331.009 263.93 330.823 262.601C330.666 261.501 330.087 260.723 328.937 259.173C328.437 258.461 327.878 257.792 327.266 257.173C326.844 256.765 326.452 256.515 326.173 256.63C325.823 256.787 325.716 257.53 325.844 258.073C326.037 258.887 326.694 258.958 326.837 259.615C327.03 260.48 326.152 261.48 325.402 261.937C324.983 262.219 324.498 262.387 323.995 262.426C323.492 262.465 322.987 262.372 322.53 262.158C321.502 261.558 321.53 260.28 320.98 260.28C320.544 260.287 320.159 261.087 320.094 261.715C320.044 262.109 320.111 262.508 320.288 262.863C320.465 263.217 320.743 263.512 321.087 263.708C321.794 264.008 322.252 263.387 323.08 263.708C323.328 263.79 323.55 263.935 323.725 264.129C323.899 264.323 324.019 264.56 324.073 264.815C324.109 265.494 323.18 266.023 321.973 266.694C320.594 267.458 320.166 267.423 318.544 268.244C318.387 268.323 318.244 268.394 318.109 268.465C317.475 268.757 316.88 269.127 316.337 269.565C315.223 270.48 315.33 270.887 314.237 271.78C313.524 272.442 312.646 272.901 311.694 273.108C310.83 273.251 310.652 272.987 309.152 272.887C308.812 272.862 308.471 272.855 308.13 272.865C307.474 272.874 306.818 272.917 306.166 272.994C305.402 273.069 304.646 273.201 303.902 273.387C307.73 271.437 308.237 268.487 306.644 267.787C306.644 267.787 311.173 264.351 307.78 262.344C307.78 262.344 313.266 255.815 307.073 257.858C306.558 258.035 306.068 258.277 305.616 258.58C305.423 258.701 305.202 258.851 304.952 259.008L304.216 257.137V257.13C305.666 255.158 306.637 253.165 304.716 253.073C303.986 253.053 303.273 253.29 302.702 253.744C302.259 254.08 301.623 254.551 300.823 255.094L299.202 253.423C298.831 252.82 298.604 252.141 298.537 251.437C298.508 250.66 298.64 249.886 298.925 249.163C299.21 248.44 299.642 247.784 300.194 247.237C301.212 246.159 302.515 245.391 303.952 245.023C305.078 244.587 306.295 244.435 307.494 244.58C307.694 244.615 307.909 244.658 308.13 244.715C308.83 244.88 309.552 245.123 309.923 245.244C310.555 245.531 311.227 245.719 311.916 245.801C312.816 245.844 313.066 245.573 313.459 245.801C313.952 246.073 313.873 246.644 314.237 248.008C314.602 249.358 314.902 250.501 315.673 250.773C316.252 250.973 316.566 250.501 317.223 250.773C317.652 250.951 317.652 251.208 318.323 251.88C318.916 252.465 319.216 252.758 319.652 252.873C320.067 252.967 320.501 252.933 320.897 252.775C321.292 252.617 321.63 252.342 321.866 251.987C321.952 251.837 322.109 251.523 321.973 250.223C321.809 248.58 321.73 247.758 321.202 247.237C320.559 246.601 320.059 247.065 318.544 246.573C316.809 246.008 316.937 245.223 315.009 244.473C313.716 243.973 313.373 244.208 312.359 243.587C311.537 243.087 310.494 242.158 310.694 241.594C310.916 240.994 312.344 241.458 312.909 240.601C313.352 239.937 312.737 239.287 313.237 238.387C313.53 237.873 314.137 237.38 314.566 237.508C315.037 237.644 314.859 238.408 315.452 239.387C316 240.224 316.82 240.846 317.773 241.151C318.494 241.415 319.387 241.744 320.094 241.265C320.723 240.844 321.073 239.88 320.759 239.387C320.352 238.751 319.116 239.294 318.766 238.723C318.708 238.586 318.679 238.438 318.68 238.29C318.682 238.141 318.713 237.994 318.773 237.858C318.865 237.542 319.034 237.253 319.265 237.018C319.495 236.782 319.78 236.607 320.094 236.508C320.459 236.451 320.83 236.587 322.973 238.387C323.087 238.487 323.202 238.58 323.302 238.665L323.309 238.673C324.444 239.637 324.652 239.851 325.073 239.83C325.213 239.821 325.35 239.79 325.48 239.737C325.706 239.642 325.914 239.509 326.094 239.344C326.6 238.852 327.003 238.264 327.28 237.615C327.644 236.773 327.502 236.43 327.723 236.287C328.237 235.958 330.073 237.058 332.002 239.037C332.542 239.931 333.029 240.856 333.459 241.808C334.86 244.851 335.698 248.123 335.93 251.465C335.952 251.787 335.966 252.115 335.98 252.444C335.987 252.765 335.995 253.094 335.995 253.423Z" fill="#FDB914"/>
<path d="M254.481 106.38C254.881 108.005 255.188 109.651 255.402 111.311C255.638 112.959 255.79 114.614 255.927 116.27C256.037 117.928 256.129 119.588 256.138 121.253C256.17 122.926 256.107 124.6 255.949 126.266C255.547 124.641 255.239 122.995 255.026 121.335C254.79 119.687 254.638 118.032 254.503 116.375C254.395 114.717 254.303 113.058 254.294 111.392C254.262 109.719 254.324 108.046 254.481 106.38Z" fill="#2B2B2B"/>
<path d="M264.78 127.637C265.161 125.943 265.635 124.272 266.198 122.63C266.737 120.987 267.353 119.376 267.984 117.77C268.64 116.175 269.313 114.586 270.062 113.029C270.794 111.454 271.612 109.921 272.512 108.437C272.133 110.131 271.66 111.803 271.096 113.445C270.557 115.088 269.941 116.699 269.309 118.304C268.651 119.898 267.978 121.487 267.228 123.045C266.497 124.619 265.679 126.152 264.78 127.637Z" fill="#2B2B2B"/>
<path d="M238.83 110.151C239.714 111.486 240.519 112.872 241.239 114.302C241.977 115.713 242.638 117.158 243.284 118.61C243.906 120.072 244.511 121.541 245.04 123.044C245.594 124.546 246.058 126.08 246.429 127.637C245.543 126.303 244.738 124.918 244.018 123.488C243.281 122.076 242.619 120.631 241.975 119.179C241.355 117.716 240.749 116.247 240.221 114.744C239.667 113.242 239.203 111.708 238.83 110.151Z" fill="#2B2B2B"/>
<path d="M172.306 226.275C171.667 226.112 171.017 225.999 170.36 225.935C170.05 225.895 169.734 225.927 169.438 226.027C169.157 226.129 169.245 226.437 169.401 226.706C169.764 227.241 170.198 227.725 170.691 228.143C171.173 228.587 171.683 229.008 172.202 229.404C172.249 229.44 172.279 229.492 172.287 229.551C172.295 229.609 172.279 229.668 172.244 229.714C172.22 229.745 172.188 229.769 172.152 229.784C172.116 229.799 172.077 229.804 172.039 229.799C170.687 229.65 169.414 229.09 168.39 228.196C167.871 227.747 167.44 227.206 167.119 226.6C166.95 226.285 166.829 225.946 166.761 225.596C166.721 225.392 166.725 225.182 166.773 224.98C166.808 224.85 166.872 224.73 166.96 224.629C166.988 224.579 167.013 224.562 167.054 224.485C167.65 223.401 168.158 222.174 168.676 220.997L170.196 217.418C170.705 216.221 171.222 215.04 171.659 213.829C172.108 212.619 172.473 211.392 172.896 210.155L174.135 206.454C174.557 205.224 175.073 204.026 175.537 202.812C177.394 197.947 179.771 193.297 182.627 188.943C184.069 186.758 185.772 184.757 187.697 182.983C187.94 182.763 188.177 182.535 188.426 182.321L189.205 181.715C189.721 181.304 190.263 180.925 190.825 180.58C191.955 179.842 193.204 179.304 194.517 178.991L194.444 179.008C196.676 178.344 198.979 177.943 201.305 177.816C203.605 177.629 205.909 177.569 208.208 177.567C210.509 177.568 212.807 177.613 215.103 177.701C217.399 177.81 219.69 177.948 221.984 178.135L221.743 178.217C222.63 177.308 223.449 176.333 224.191 175.302L225.338 173.747C225.704 173.179 226.186 172.693 226.751 172.32C227.925 171.652 229.305 171.443 230.624 171.735C231.913 171.966 233.141 172.458 234.231 173.183C234.236 173.185 234.24 173.189 234.243 173.193C234.245 173.198 234.248 173.203 234.249 173.208C234.25 173.213 234.25 173.218 234.249 173.223C234.248 173.228 234.246 173.233 234.243 173.237C234.237 173.246 234.227 173.252 234.217 173.254C234.207 173.256 234.196 173.254 234.187 173.248C233.084 172.59 231.859 172.165 230.586 171.998C229.344 171.787 228.067 172.027 226.986 172.673C226.48 173.032 226.055 173.493 225.739 174.026L224.638 175.629C223.906 176.72 223.082 177.748 222.176 178.7C222.147 178.728 222.113 178.75 222.075 178.765C222.037 178.779 221.997 178.785 221.956 178.783L221.935 178.782C219.653 178.642 217.362 178.551 215.075 178.49C212.787 178.417 210.499 178.379 208.212 178.39C205.925 178.397 203.642 178.491 201.368 178.633C199.107 178.73 196.866 179.091 194.689 179.708L194.641 179.72L194.615 179.725C193.4 180.021 192.239 180.504 191.174 181.159C190.621 181.479 190.089 181.832 189.58 182.217L188.808 182.787C188.561 182.99 188.324 183.207 188.081 183.417C187.586 183.827 187.116 184.265 186.672 184.729C186.23 185.197 185.759 185.638 185.34 186.128C184.519 187.122 183.661 188.089 182.941 189.164C179.972 193.416 177.583 198.045 175.837 202.928C175.414 204.153 174.94 205.359 174.56 206.598L173.444 210.32C173.064 211.551 172.741 212.831 172.286 214.055C171.854 215.291 171.342 216.495 170.847 217.692C170.353 218.894 169.822 220.08 169.296 221.27C168.753 222.46 168.257 223.635 167.588 224.817C167.533 224.907 167.471 224.992 167.402 225.072C167.407 225.112 167.373 225.085 167.372 225.15C167.349 225.265 167.348 225.383 167.37 225.498C167.425 225.786 167.521 226.064 167.657 226.323C167.941 226.869 168.317 227.362 168.769 227.781C169.691 228.634 170.851 229.185 172.094 229.36L171.931 229.755C171.408 229.33 170.908 228.891 170.428 228.421C169.929 227.957 169.499 227.425 169.151 226.84C169.061 226.675 169.008 226.493 168.995 226.305C168.995 226.198 169.028 226.094 169.09 226.007C169.151 225.919 169.238 225.853 169.339 225.816C169.675 225.713 170.031 225.692 170.377 225.754C171.037 225.852 171.689 226.001 172.327 226.198C172.332 226.2 172.337 226.202 172.341 226.205C172.345 226.209 172.348 226.213 172.351 226.217C172.353 226.222 172.355 226.227 172.355 226.232C172.356 226.237 172.355 226.242 172.354 226.248C172.351 226.257 172.344 226.266 172.336 226.271C172.327 226.276 172.316 226.277 172.306 226.275Z" fill="#2B2B2B"/>
<path d="M308.707 260.996C309.022 260.531 309.303 260.043 309.548 259.537C309.668 259.288 309.764 259.029 309.834 258.761C309.917 258.515 309.921 258.249 309.847 258C309.797 257.892 309.717 257.801 309.616 257.736C309.516 257.671 309.399 257.636 309.28 257.635C309.014 257.605 308.745 257.613 308.481 257.661C307.936 257.76 307.402 257.911 306.886 258.113C306.375 258.329 305.89 258.602 305.44 258.927C304.97 259.243 304.488 259.547 304.001 259.843C303.513 260.137 303.019 260.423 302.506 260.683C301.988 260.968 301.433 261.182 300.858 261.322C300.805 261.332 300.75 261.326 300.7 261.303C300.651 261.281 300.61 261.243 300.583 261.195C300.557 261.148 300.546 261.093 300.553 261.039C300.559 260.985 300.583 260.935 300.62 260.895L300.632 260.882C301.823 259.642 302.933 258.327 303.956 256.944L303.892 257.137L303.892 257.13C303.891 257.064 303.911 256.999 303.95 256.945L303.955 256.938C304.272 256.492 304.574 256.037 304.84 255.571C305.11 255.136 305.304 254.658 305.414 254.157C305.481 253.67 305.324 253.522 304.83 253.453C304.346 253.411 303.86 253.51 303.431 253.738C303.206 253.856 302.994 253.997 302.798 254.159C302.575 254.333 302.349 254.498 302.121 254.66C301.664 254.983 301.22 255.322 300.752 255.632C299.822 256.259 298.872 256.854 297.893 257.406C295.935 258.536 293.849 259.427 291.678 260.06C290.573 260.365 289.439 260.557 288.295 260.633C287.128 260.694 285.959 260.578 284.827 260.289C284.742 260.266 284.663 260.223 284.599 260.162C284.535 260.102 284.487 260.027 284.46 259.943C284.432 259.86 284.425 259.771 284.44 259.684C284.456 259.597 284.492 259.516 284.547 259.447L284.555 259.436L287.267 256.039L288.599 254.367C288.657 254.286 288.695 254.192 288.711 254.093C288.727 253.994 288.72 253.893 288.691 253.797C288.666 253.707 288.62 253.624 288.557 253.554C288.519 253.515 288.477 253.478 288.432 253.446C288.395 253.419 288.356 253.396 288.313 253.378C288.208 253.335 288.096 253.316 287.983 253.322C287.842 253.315 287.641 253.318 287.477 253.321C287.132 253.33 286.788 253.355 286.446 253.394C285.759 253.472 285.083 253.621 284.427 253.839C284.099 253.954 283.777 254.053 283.444 254.178C283.126 254.304 282.814 254.448 282.508 254.605L280.595 255.636C280.516 255.678 280.428 255.701 280.339 255.701L280.323 255.701H280.316L280.584 255.637C276.983 257.436 273.348 259.025 269.921 261.006L268.631 261.757C267.277 262.548 265.799 263.106 264.259 263.406C263.238 263.612 262.199 263.712 261.158 263.707C260.101 263.699 259.116 263.574 258.124 263.501L246.195 262.503L234.27 261.456C226.32 260.769 218.369 260.068 210.415 259.459L207.433 259.263C206.934 259.23 206.443 259.213 205.953 259.199C205.657 259.205 205.365 259.137 205.102 259.001C204.853 258.858 204.638 258.661 204.473 258.426C203.925 257.54 203.569 256.551 203.425 255.52C203.248 254.528 203.128 253.527 203.065 252.522C202.862 248.523 202.933 244.515 203.276 240.525L203.433 240.754C200.686 239.91 197.943 239.043 195.275 237.965C192.597 236.915 189.973 235.73 187.416 234.413C184.859 233.096 182.368 231.653 179.896 230.205C177.424 228.772 174.929 227.336 172.219 226.597L172.689 226.241C172.695 234.144 172.862 242.046 173.19 249.948C173.362 253.895 173.581 257.84 173.904 261.772C173.974 262.756 174.073 263.737 174.165 264.718C174.251 265.701 174.353 266.68 174.472 267.657C174.585 268.637 174.672 269.622 174.853 270.546C175.028 271.482 175.288 272.399 175.629 273.288C177.043 276.859 179.606 279.858 182.914 281.811C184.554 282.798 186.326 283.548 188.177 284.036C189.103 284.283 190.043 284.468 190.993 284.591C191.949 284.709 192.947 284.788 193.922 284.888L196.862 285.17L199.809 285.36C201.773 285.513 203.742 285.556 205.709 285.636C207.676 285.726 209.646 285.689 211.615 285.723C213.583 285.674 215.553 285.681 217.52 285.576C225.394 285.255 233.235 284.371 240.982 282.932C244.85 282.214 248.74 281.395 252.653 280.745C256.566 280.082 260.488 279.526 264.411 278.994C272.257 277.92 280.117 277.008 287.964 276.028C291.884 275.526 295.812 275.034 299.688 274.339L301.13 274.047C301.612 273.952 302.06 273.795 302.528 273.674C302.975 273.498 303.418 273.304 303.857 273.103C304.287 272.885 304.702 272.638 305.098 272.363C305.892 271.834 306.545 271.118 306.998 270.279C307.216 269.875 307.313 269.417 307.279 268.96C307.259 268.745 307.184 268.538 307.06 268.361C306.937 268.184 306.769 268.042 306.574 267.949C306.547 267.937 306.524 267.918 306.506 267.895C306.488 267.872 306.477 267.845 306.472 267.816C306.467 267.787 306.47 267.757 306.479 267.73C306.488 267.702 306.504 267.677 306.525 267.657L306.537 267.646C306.965 267.293 307.373 266.917 307.76 266.519C308.136 266.114 308.448 265.655 308.685 265.156C308.808 264.918 308.883 264.658 308.905 264.392C308.926 264.125 308.895 263.856 308.813 263.601C308.596 263.099 308.216 262.684 307.734 262.423C307.724 262.417 307.714 262.409 307.707 262.399C307.7 262.389 307.695 262.378 307.692 262.366C307.689 262.354 307.688 262.342 307.69 262.33C307.692 262.318 307.696 262.306 307.702 262.296L307.71 262.285L308.708 260.996L308.711 260.992C308.723 260.977 308.739 260.967 308.758 260.965C308.777 260.962 308.795 260.967 308.81 260.978C308.825 260.99 308.835 261.006 308.838 261.025C308.841 261.043 308.836 261.062 308.825 261.077L307.851 262.403L307.827 262.265C308.356 262.536 308.778 262.978 309.024 263.519C309.125 263.802 309.168 264.101 309.152 264.401C309.136 264.7 309.062 264.993 308.932 265.263C308.696 265.795 308.38 266.288 307.995 266.724C307.604 267.148 307.189 267.55 306.753 267.927L306.716 267.625C306.972 267.738 307.194 267.917 307.361 268.142C307.527 268.367 307.633 268.631 307.667 268.909C307.724 269.442 307.627 269.981 307.387 270.46C306.922 271.382 306.238 272.175 305.394 272.771C304.985 273.07 304.556 273.34 304.11 273.581C303.656 273.803 303.196 274.019 302.73 274.215C302.245 274.357 301.759 274.537 301.273 274.646L299.814 274.977C295.914 275.747 291.996 276.305 288.079 276.876L264.578 280.174C260.667 280.746 256.76 281.342 252.879 282.042C250.935 282.369 249.004 282.788 247.07 283.164C245.138 283.563 243.195 283.977 241.244 284.339C233.432 285.809 225.524 286.718 217.582 287.06C209.64 287.418 201.682 287.178 193.775 286.341C192.783 286.233 191.808 286.151 190.802 286.021C189.791 285.884 188.79 285.681 187.805 285.412C185.828 284.877 183.937 284.064 182.189 282.997C178.636 280.868 175.893 277.615 174.395 273.753C174.033 272.792 173.758 271.8 173.574 270.789C173.383 269.769 173.301 268.78 173.197 267.795C173.089 266.807 172.998 265.818 172.925 264.829C172.845 263.84 172.759 262.851 172.702 261.862C172.427 257.905 172.259 253.946 172.138 249.987C171.899 242.068 171.834 234.15 171.943 226.233L171.943 226.226C171.944 226.177 171.954 226.13 171.973 226.085C171.992 226.041 172.02 226.001 172.055 225.967C172.089 225.933 172.13 225.906 172.175 225.889C172.22 225.871 172.268 225.862 172.316 225.862C172.349 225.863 172.382 225.868 172.413 225.877C175.251 226.695 177.758 228.197 180.215 229.664C182.675 231.142 185.119 232.628 187.658 233.947C190.194 235.269 192.796 236.46 195.453 237.517C198.1 238.602 200.827 239.479 203.557 240.333C203.605 240.348 203.647 240.379 203.675 240.421C203.704 240.463 203.717 240.513 203.714 240.563C203.372 244.528 203.321 248.513 203.559 252.485C203.628 253.471 203.752 254.452 203.931 255.424C204.069 256.373 204.399 257.284 204.9 258.102C205.021 258.276 205.178 258.421 205.362 258.527C205.544 258.619 205.747 258.662 205.951 258.653C206.459 258.664 206.965 258.678 207.461 258.708L210.454 258.876C218.425 259.351 226.386 259.912 234.348 260.471L246.289 261.328L258.225 262.264C259.222 262.333 260.221 262.451 261.161 262.45C262.117 262.45 263.07 262.353 264.005 262.159C264.938 261.966 265.849 261.676 266.722 261.295C267.158 261.105 267.584 260.89 267.997 260.654L269.297 259.907C272.799 257.914 276.501 256.324 280.048 254.579L280.057 254.575C280.138 254.536 280.226 254.515 280.316 254.515H280.323L280.053 254.581L281.974 253.562C282.314 253.39 282.662 253.233 283.019 253.094C283.364 252.966 283.736 252.851 284.093 252.73C284.816 252.497 285.561 252.339 286.316 252.258C286.694 252.216 287.074 252.191 287.453 252.185C287.652 252.183 287.814 252.18 288.035 252.19C288.286 252.192 288.533 252.243 288.764 252.341C288.888 252.396 289.005 252.465 289.113 252.546C289.214 252.622 289.308 252.707 289.393 252.8C289.573 253.001 289.704 253.241 289.775 253.502C289.845 253.756 289.858 254.023 289.813 254.283C289.768 254.543 289.666 254.789 289.515 255.005L288.128 256.727L285.392 260.109L285.121 259.256C286.141 259.523 287.195 259.64 288.249 259.606C289.322 259.55 290.387 259.386 291.428 259.117C293.534 258.536 295.563 257.706 297.472 256.644C298.436 256.121 299.378 255.551 300.298 254.952C300.761 254.656 301.205 254.328 301.659 254.017C301.887 253.861 302.112 253.703 302.328 253.539C302.565 253.352 302.82 253.189 303.089 253.053C303.653 252.768 304.287 252.652 304.915 252.719C305.289 252.745 305.639 252.913 305.893 253.188C306.006 253.341 306.084 253.516 306.123 253.702C306.162 253.888 306.16 254.08 306.118 254.265C305.989 254.851 305.757 255.41 305.434 255.915C305.141 256.401 304.822 256.87 304.478 257.321L304.541 257.13L304.54 257.137L304.54 257.146C304.54 257.213 304.517 257.277 304.477 257.33C303.403 258.709 302.242 260.018 301.001 261.248L300.774 260.809C301.835 260.506 302.847 260.054 303.781 259.468C304.269 259.188 304.753 258.899 305.229 258.596C305.707 258.27 306.22 257.998 306.758 257.786C307.303 257.588 307.865 257.443 308.437 257.355C308.733 257.312 309.033 257.313 309.328 257.358C309.493 257.372 309.65 257.43 309.784 257.528C309.917 257.625 310.021 257.757 310.084 257.91C310.169 258.209 310.158 258.527 310.053 258.819C309.97 259.097 309.86 259.367 309.726 259.624C309.461 260.129 309.16 260.615 308.825 261.077C308.814 261.093 308.798 261.103 308.779 261.106C308.761 261.109 308.742 261.105 308.726 261.095C308.711 261.084 308.7 261.068 308.697 261.049C308.693 261.031 308.697 261.012 308.707 260.996V260.996Z" fill="#2B2B2B"/>
<path d="M301.041 261.393C299.963 262.024 298.876 262.607 297.758 263.142C296.651 263.695 295.493 264.137 294.299 264.461C295.441 264.015 296.536 263.456 297.568 262.793C298.607 262.15 299.623 261.456 300.597 260.734L300.602 260.73C300.687 260.667 300.793 260.641 300.898 260.656C301.002 260.672 301.096 260.728 301.159 260.813C301.221 260.898 301.248 261.004 301.233 261.108C301.217 261.213 301.161 261.306 301.076 261.369C301.065 261.378 301.053 261.386 301.041 261.393Z" fill="#2B2B2B"/>
<path d="M308.016 262.667C306.17 263.923 304.301 265.127 302.384 266.264C301.424 266.828 300.457 267.382 299.457 267.876C298.961 268.13 298.452 268.359 297.933 268.561C297.676 268.67 297.411 268.758 297.14 268.826C296.873 268.904 296.596 268.947 296.318 268.953C296.594 268.931 296.866 268.872 297.126 268.779C297.39 268.695 297.647 268.592 297.895 268.47C298.397 268.238 298.887 267.982 299.364 267.7C300.325 267.152 301.252 266.545 302.172 265.928C304.006 264.688 305.797 263.375 307.547 262.027L307.55 262.024C307.634 261.959 307.739 261.931 307.844 261.944C307.948 261.958 308.043 262.012 308.108 262.096C308.172 262.179 308.201 262.285 308.187 262.389C308.174 262.494 308.119 262.589 308.036 262.653L308.016 262.667Z" fill="#2B2B2B"/>
<path d="M306.901 268.094C306.181 268.621 305.424 269.097 304.637 269.518C303.863 269.942 303.065 270.319 302.247 270.65C300.623 271.317 298.924 271.784 297.187 272.041C298.884 271.658 300.528 271.069 302.083 270.288C302.857 269.905 303.609 269.477 304.333 269.006C305.053 268.547 305.741 268.039 306.391 267.485L306.404 267.474C306.443 267.44 306.489 267.413 306.538 267.397C306.588 267.38 306.641 267.373 306.693 267.377C306.745 267.38 306.796 267.394 306.843 267.418C306.89 267.441 306.932 267.473 306.966 267.513C307 267.553 307.026 267.599 307.043 267.648C307.059 267.698 307.066 267.751 307.062 267.803C307.058 267.855 307.044 267.906 307.02 267.953C306.997 267.999 306.964 268.041 306.924 268.075C306.917 268.082 306.909 268.088 306.901 268.094Z" fill="#2B2B2B"/>
<path d="M287.58 238.237C287.521 238.237 287.463 238.222 287.411 238.194C287.359 238.166 287.315 238.126 287.282 238.077L284.199 233.419C284.173 233.38 284.155 233.336 284.146 233.29C284.137 233.244 284.137 233.196 284.146 233.15C284.156 233.104 284.174 233.061 284.2 233.022C284.226 232.983 284.26 232.949 284.299 232.923C284.338 232.897 284.382 232.88 284.428 232.871C284.474 232.862 284.522 232.862 284.568 232.871C284.614 232.88 284.657 232.899 284.696 232.925C284.735 232.951 284.768 232.985 284.794 233.024L287.878 237.682C287.93 237.761 287.949 237.858 287.93 237.95C287.911 238.043 287.857 238.125 287.778 238.177C287.719 238.216 287.651 238.237 287.58 238.237Z" fill="#2B2B2B"/>
<path d="M303.458 226.594C303.4 226.594 303.341 226.579 303.289 226.551C303.238 226.524 303.193 226.483 303.161 226.434L300.076 221.776C300.05 221.737 300.032 221.693 300.023 221.647C300.014 221.601 300.014 221.554 300.024 221.508C300.033 221.462 300.051 221.418 300.078 221.379C300.104 221.34 300.137 221.307 300.177 221.281C300.216 221.255 300.259 221.237 300.306 221.228C300.352 221.219 300.399 221.219 300.445 221.228C300.491 221.238 300.535 221.256 300.574 221.282C300.612 221.308 300.646 221.342 300.672 221.381L303.756 226.039C303.792 226.093 303.813 226.156 303.816 226.22C303.819 226.285 303.804 226.349 303.773 226.406C303.743 226.463 303.697 226.51 303.642 226.543C303.586 226.576 303.523 226.594 303.458 226.594Z" fill="#2B2B2B"/>
</svg>
