<svg width="768" height="655" viewBox="0 0 768 655" fill="none" xmlns="http://www.w3.org/2000/svg">
<path d="M406.457 245.194C406.457 245.194 387.8 227.837 380.674 232.747C380.674 232.747 371.346 253.822 367.053 255.451C365.277 260.619 362.714 265.54 359.151 265.371C358.759 267.107 358.798 268.912 359.264 270.629C360.028 273.774 352.745 287.547 347.89 286.2C343.034 284.851 336.1 272.55 338.123 265.618C338.25 265.149 338.351 264.672 338.426 264.192C338.168 263.686 329.615 247.497 328.749 239.049C327.861 230.466 324.152 234.184 324.152 234.184C324.152 234.184 329.075 238.521 321.399 241.936C313.711 245.363 294.638 248.036 302.236 240.937C302.236 240.937 301.123 237.611 297.403 240.644C297.403 240.644 294.717 244.183 301.191 256.215C301.191 256.215 311.216 307.769 309.429 320.678C309.429 320.678 306.608 353.493 309.789 356.616C311.306 358.11 330.84 363.672 350.16 363.11C362.442 362.818 374.627 360.864 386.384 357.302L385.226 312.106C384.976 302.484 386.745 292.917 390.419 284.02L406.457 245.194ZM343.978 342.641C340.051 341.832 336.384 340.069 333.301 337.507C330.24 334.919 327.843 331.637 326.31 327.935C324.771 324.328 324.034 320.43 324.152 316.51C324.896 320.228 326.156 323.824 327.895 327.194C329.585 330.483 331.911 333.404 334.74 335.788C336.129 336.987 337.662 338.009 339.303 338.832C340.101 339.304 340.966 339.63 341.798 340.023C342.675 340.315 343.529 340.708 344.428 340.945C348.077 342.003 351.831 342.662 355.622 342.911C351.759 343.556 347.808 343.465 343.978 342.641Z" fill="black"/>
<path d="M369.907 244.543L369.851 244.565C370.233 237.51 366.648 222.287 366.648 222.287C366.648 222.287 347.53 223.22 344.934 222.546C344.934 222.546 339.235 222.433 339.786 239.622C339.786 239.622 333.807 233.904 335.167 241.082C335.414 242.386 335.673 243.52 335.942 244.498C324.535 237.195 338.291 207.042 338.348 209.671C338.439 210.488 338.813 211.247 339.404 211.817C341.764 214.468 345.44 211.57 348.733 210.424C349.396 210.188 350.036 209.986 350.666 209.806C353.137 209.11 355.734 208.986 358.26 209.443C360.786 209.901 363.174 210.928 365.244 212.446C367.313 213.964 369.009 215.934 370.203 218.206C371.397 220.478 372.057 222.992 372.133 225.557C372.368 231.962 371.617 238.365 369.907 244.543Z" fill="black"/>
<path d="M347.35 261.818C345.57 260.845 343.997 259.536 342.717 257.963C342.073 257.171 341.526 256.305 341.087 255.383C340.659 254.456 340.417 253.454 340.377 252.434C340.686 253.369 341.093 254.27 341.589 255.122C342.098 255.954 342.662 256.751 343.279 257.507C344.552 259.021 345.911 260.46 347.35 261.818Z" fill="black"/>
<path d="M352.914 264.034C353.409 264.21 353.928 264.309 354.454 264.328C354.97 264.379 355.486 264.45 356.008 264.516C356.526 264.604 357.05 264.688 357.573 264.822C358.118 264.945 358.648 265.129 359.151 265.371C358.084 265.72 356.949 265.807 355.841 265.626C355.283 265.545 354.738 265.392 354.22 265.17C353.937 265.079 353.675 264.932 353.45 264.736C353.225 264.541 353.043 264.302 352.914 264.034Z" fill="black"/>
<path d="M369.924 244.57C369.916 245.089 369.876 245.608 369.803 246.122C369.717 246.648 369.592 247.135 369.484 247.642L368.792 250.657C368.32 252.673 367.745 254.663 367.069 256.62C366.413 258.612 365.536 260.525 364.454 262.322C363.89 263.254 363.174 264.086 362.337 264.784C361.441 265.545 360.3 265.958 359.124 265.948L359.705 265.539C359.444 266.804 359.422 268.106 359.641 269.379C359.695 269.703 359.756 270.026 359.833 270.345C359.879 270.545 359.912 270.749 359.931 270.953C359.942 271.154 359.938 271.355 359.922 271.555C359.848 272.287 359.696 273.008 359.47 273.708C358.574 276.378 357.299 278.907 355.684 281.215C354.897 282.391 353.993 283.484 352.986 284.477C351.973 285.569 350.668 286.346 349.225 286.717C348.829 286.794 348.421 286.791 348.025 286.708C347.653 286.615 347.291 286.482 346.947 286.31C346.303 285.976 345.705 285.558 345.169 285.068C344.122 284.128 343.195 283.06 342.412 281.891C340.823 279.605 339.565 277.108 338.673 274.472C338.225 273.155 337.901 271.8 337.705 270.423C337.473 269.038 337.487 267.623 337.746 266.243C338.314 263.558 338.738 260.844 339.015 258.113C339.337 255.384 339.635 252.652 339.909 249.917L340.434 250.416C339.952 250.508 339.454 250.479 338.986 250.333C338.525 250.173 338.107 249.91 337.764 249.563C337.153 248.913 336.669 248.156 336.336 247.329C335.697 245.77 335.208 244.154 334.875 242.502C334.648 241.682 334.479 240.847 334.369 240.003C334.313 239.545 334.309 239.081 334.356 238.622C334.373 238.324 334.453 238.033 334.59 237.768C334.728 237.503 334.921 237.27 335.156 237.086C335.419 236.928 335.715 236.833 336.022 236.806C336.328 236.78 336.636 236.823 336.923 236.933C337.366 237.083 337.79 237.284 338.187 237.531C338.93 237.993 339.626 238.525 340.267 239.12L339.092 239.644C339.066 238.049 339.01 236.455 339.09 234.853C339.134 233.242 339.284 231.636 339.538 230.045C339.774 228.41 340.24 226.817 340.921 225.312C341.107 224.932 341.326 224.561 341.542 224.191C341.787 223.822 342.063 223.475 342.367 223.154C342.68 222.811 343.043 222.517 343.444 222.281C343.653 222.152 343.875 222.046 344.106 221.964C344.376 221.863 344.661 221.807 344.949 221.797L344.987 221.799L345.123 221.821L345.684 221.911L346.333 221.96C346.761 222.001 347.218 221.999 347.659 222.021C348.553 222.045 349.451 222.055 350.353 222.052L355.77 221.987C359.385 221.935 363.005 221.836 366.62 221.712L366.637 221.711C366.769 221.706 366.899 221.748 367.004 221.83C367.108 221.911 367.181 222.026 367.21 222.155C368.02 225.847 368.659 229.558 369.203 233.29C369.479 235.155 369.689 237.029 369.831 238.913C370.003 240.793 370.034 242.684 369.924 244.569C369.923 244.578 369.92 244.588 369.916 244.596C369.912 244.605 369.906 244.612 369.899 244.618C369.891 244.625 369.883 244.629 369.874 244.632C369.865 244.635 369.855 244.636 369.846 244.636C369.827 244.634 369.81 244.625 369.798 244.612C369.785 244.598 369.779 244.58 369.779 244.561C369.781 242.687 369.643 240.815 369.365 238.961C369.116 237.104 368.798 235.256 368.463 233.411C367.794 229.723 366.951 226.058 366.087 222.42L366.676 222.863C363.054 223.076 359.431 223.257 355.807 223.404C353.994 223.483 352.178 223.506 350.358 223.522C349.448 223.53 348.535 223.525 347.619 223.505C347.155 223.485 346.706 223.49 346.231 223.448L345.525 223.397L344.746 223.271L344.919 223.295C344.666 223.342 344.424 223.438 344.208 223.578C343.928 223.745 343.675 223.954 343.459 224.199C343.222 224.453 343.007 224.726 342.816 225.016C342.639 225.329 342.456 225.64 342.296 225.968C341.693 227.354 341.269 228.811 341.034 230.304C340.769 231.829 340.605 233.371 340.542 234.918C340.443 236.471 340.477 238.036 340.481 239.6V239.614C340.481 239.75 340.442 239.884 340.367 239.997C340.292 240.111 340.186 240.201 340.061 240.255C339.936 240.309 339.798 240.326 339.664 240.302C339.53 240.279 339.405 240.217 339.306 240.124C338.743 239.588 338.131 239.107 337.478 238.686C337.177 238.492 336.855 238.332 336.518 238.21C336.21 238.11 335.953 238.116 335.901 238.178C335.814 238.203 335.692 238.469 335.65 238.796C335.606 239.157 335.6 239.522 335.634 239.884C335.716 240.68 335.853 241.468 336.045 242.244C336.316 243.838 336.737 245.403 337.304 246.917C337.868 248.362 338.833 249.813 340.285 249.522C340.354 249.508 340.425 249.511 340.493 249.53C340.56 249.549 340.622 249.584 340.673 249.632C340.725 249.68 340.764 249.739 340.788 249.805C340.812 249.871 340.82 249.942 340.811 250.011L340.81 250.021C340.452 252.752 340.071 255.478 339.665 258.2C339.235 260.917 338.863 263.656 338.225 266.342C337.806 269.033 338.121 271.787 339.136 274.314C340.03 276.891 341.319 279.313 342.957 281.495C343.748 282.583 344.672 283.569 345.707 284.43C346.202 284.851 346.75 285.205 347.337 285.484C347.614 285.609 347.902 285.705 348.198 285.771C348.479 285.82 348.768 285.811 349.045 285.743C350.263 285.357 351.348 284.637 352.177 283.665C353.095 282.691 353.928 281.641 354.668 280.526C356.168 278.29 357.372 275.87 358.25 273.325C358.457 272.719 358.601 272.093 358.678 271.457C358.693 271.314 358.698 271.171 358.694 271.028C358.682 270.891 358.661 270.754 358.632 270.62C358.553 270.269 358.491 269.915 358.437 269.559C358.208 268.111 358.263 266.631 358.598 265.204C358.629 265.082 358.701 264.974 358.802 264.899C358.903 264.824 359.027 264.787 359.152 264.793L359.179 264.794C360.082 264.806 360.96 264.492 361.651 263.911C362.401 263.291 363.054 262.563 363.588 261.75C364.692 260.053 365.603 258.238 366.305 256.339C367.041 254.432 367.674 252.482 368.276 250.517L369.135 247.554C369.268 247.061 369.428 246.558 369.548 246.074C369.656 245.575 369.733 245.069 369.779 244.561C369.781 244.542 369.79 244.525 369.804 244.512C369.818 244.5 369.837 244.494 369.856 244.495C369.874 244.496 369.892 244.505 369.905 244.519C369.917 244.532 369.924 244.551 369.924 244.57L369.924 244.57Z" fill="black"/>
<path d="M369.277 234.339C368.609 234.005 367.988 233.68 367.369 233.398C366.786 233.115 366.167 232.911 365.529 232.793C364.94 232.687 364.332 232.748 363.775 232.97C363.157 233.26 362.586 233.641 362.081 234.101C362.263 233.34 362.71 232.668 363.342 232.207C364.033 231.729 364.884 231.542 365.712 231.686C366.484 231.829 367.209 232.161 367.823 232.652C368.425 233.101 368.922 233.677 369.277 234.339Z" fill="black"/>
<path d="M352.241 232.987C350.823 232.262 349.235 231.936 347.645 232.043C346.887 232.127 346.151 232.348 345.472 232.696C345.102 232.838 344.786 233.09 344.417 233.276C344.068 233.494 343.74 233.748 343.351 233.963C343.555 233.578 343.788 233.211 344.05 232.863C344.335 232.524 344.657 232.218 345.01 231.951C345.737 231.385 346.606 231.031 347.522 230.927C348.437 230.827 349.362 230.975 350.2 231.357C351.012 231.71 351.717 232.273 352.241 232.987Z" fill="black"/>
<path d="M362.313 244.626C362.224 245.19 361.982 245.718 361.612 246.153C361.242 246.588 360.76 246.913 360.218 247.093C359.677 247.285 359.096 247.341 358.528 247.255C357.975 247.181 357.452 246.961 357.013 246.617C357.569 246.505 358.058 246.469 358.525 246.378C358.972 246.304 359.411 246.19 359.837 246.036C360.263 245.889 360.673 245.698 361.059 245.467C361.491 245.208 361.91 244.927 362.313 244.626Z" fill="black"/>
<path d="M364.422 240.321C364.859 240.306 365.273 240.122 365.577 239.807C365.88 239.493 366.05 239.073 366.05 238.636C366.05 238.199 365.88 237.779 365.577 237.464C365.273 237.15 364.859 236.966 364.422 236.951C363.985 236.966 363.571 237.15 363.267 237.464C362.964 237.779 362.794 238.199 362.794 238.636C362.794 239.073 362.964 239.493 363.267 239.807C363.571 240.122 363.985 240.306 364.422 240.321Z" fill="black"/>
<path d="M349.592 240.142C350.029 240.126 350.443 239.942 350.746 239.628C351.05 239.314 351.22 238.894 351.22 238.457C351.22 238.02 351.05 237.6 350.746 237.285C350.443 236.971 350.029 236.787 349.592 236.771C349.155 236.787 348.741 236.971 348.437 237.285C348.133 237.6 347.964 238.02 347.964 238.457C347.964 238.894 348.133 239.314 348.437 239.628C348.741 239.942 349.155 240.126 349.592 240.142Z" fill="black"/>
<path d="M354.973 250.584C354.755 251.224 354.788 251.922 355.064 252.539C355.314 253.109 355.699 253.61 356.187 253.996C356.664 254.392 357.232 254.662 357.84 254.781C358.167 254.846 358.503 254.845 358.83 254.779C359.157 254.713 359.467 254.583 359.744 254.397C359.577 254.773 359.305 255.092 358.961 255.316C358.616 255.539 358.214 255.658 357.803 255.657C356.958 255.686 356.132 255.405 355.48 254.868C354.823 254.341 354.377 253.597 354.221 252.77C354.13 252.372 354.151 251.956 354.284 251.57C354.417 251.183 354.656 250.842 354.973 250.584Z" fill="black"/>
<path d="M324.089 234.216L317.622 221.491L311.082 208.812C308.885 204.598 306.647 200.404 304.299 196.28C303.138 194.212 301.962 192.153 300.711 190.149C300.085 189.149 299.441 188.16 298.759 187.211C298.145 186.281 297.402 185.441 296.552 184.719L296.533 184.705C296.472 184.661 296.42 184.605 296.38 184.541C296.34 184.477 296.314 184.406 296.301 184.332C296.289 184.257 296.292 184.181 296.309 184.108C296.326 184.034 296.358 183.965 296.402 183.904C296.45 183.837 296.512 183.781 296.583 183.74C296.885 183.522 297.122 183.225 297.267 182.882C297.433 182.483 297.527 182.058 297.544 181.626C297.557 180.693 297.409 179.765 297.108 178.882C296.796 177.966 296.413 177.076 295.96 176.221C295.521 175.35 294.994 174.521 294.481 173.684L294.468 173.663C294.445 173.626 294.43 173.585 294.423 173.543L293.553 168.402L293.341 167.115L293.238 166.468L293.191 166.143C293.175 166.058 293.151 165.975 293.12 165.894C292.986 165.53 292.77 165.202 292.488 164.936C292.206 164.67 291.866 164.472 291.496 164.359C290.785 164.237 290.138 164.97 290.092 165.737C290.072 166.553 290.095 167.458 290.1 168.314C290.114 169.18 290.12 170.049 290.17 170.91C290.219 171.157 290.206 171.413 290.13 171.653C290.054 171.893 289.919 172.111 289.736 172.285C289.343 172.588 288.853 172.736 288.358 172.7C287.443 172.632 286.562 172.323 285.807 171.803C285.429 171.565 285.077 171.261 284.748 171.024C284.405 170.78 284.04 170.556 283.669 170.342C282.158 169.507 280.597 168.763 278.996 168.115L276.587 167.145C275.814 166.81 275.016 166.536 274.2 166.327C273.854 166.232 273.488 166.239 273.146 166.347C272.804 166.454 272.5 166.658 272.271 166.933C272.018 167.651 272.049 168.438 272.357 169.133C272.382 169.211 272.384 169.295 272.363 169.374C272.341 169.453 272.298 169.524 272.237 169.58C272.177 169.635 272.102 169.672 272.021 169.685C271.94 169.699 271.857 169.69 271.781 169.658L271.775 169.655L269.688 168.77C269.069 168.441 268.391 168.24 267.693 168.177C267.071 168.127 266.454 168.314 265.965 168.7C265.613 169.025 265.672 169.626 265.94 170.251C265.98 170.343 265.993 170.444 265.977 170.543C265.962 170.642 265.919 170.735 265.853 170.811C265.787 170.886 265.702 170.942 265.606 170.971C265.51 171 265.408 171.002 265.311 170.976L265.292 170.971C264.507 170.757 263.71 170.59 262.905 170.47C262.162 170.328 261.399 170.322 260.653 170.451C260.356 170.542 260.085 170.704 259.862 170.921C259.64 171.139 259.472 171.406 259.374 171.702C259.237 172.21 259.587 172.773 260.133 173.258C260.253 173.364 260.329 173.511 260.348 173.669C260.367 173.828 260.327 173.988 260.235 174.12L260.226 174.133C260.032 174.373 259.89 174.65 259.809 174.948C259.728 175.245 259.709 175.556 259.753 175.861C259.865 176.246 260.528 176.538 261.268 176.622C261.703 176.658 262.136 176.72 262.564 176.807C262.999 176.911 263.427 177.042 263.845 177.2C264.653 177.507 265.44 177.869 266.2 178.283C267.686 179.098 269.123 180 270.503 180.985C271.884 181.958 273.215 182.969 274.527 184.053L274.447 183.993C276.753 185.459 279.056 186.941 281.382 188.368C282.543 189.077 283.717 189.798 284.883 190.427L285.309 190.643L285.948 190.925C286.072 191.037 286.176 191.168 286.257 191.314L286.404 191.57L286.652 192.052C286.964 192.686 287.246 193.314 287.526 193.946C289.743 198.99 291.675 204.119 293.568 209.27C295.458 214.42 297.241 219.61 298.83 224.864C299.625 227.49 300.392 230.127 301.024 232.801C301.737 235.459 302.168 238.186 302.309 240.934C302.309 240.944 302.307 240.953 302.304 240.962C302.3 240.971 302.295 240.979 302.288 240.986C302.282 240.993 302.274 240.998 302.265 241.002C302.256 241.005 302.247 241.007 302.237 241.008C302.218 241.007 302.2 240.999 302.187 240.986C302.173 240.973 302.165 240.955 302.164 240.936C301.897 238.218 301.344 235.537 300.515 232.935C299.748 230.312 298.924 227.706 298.041 225.118C296.269 219.944 294.362 214.815 292.398 209.71C290.411 204.617 288.358 199.536 286.178 194.545C285.9 193.926 285.618 193.306 285.323 192.713L285.099 192.282L284.99 192.092C284.979 192.056 284.866 191.939 284.996 192.069C285.059 192.107 284.988 192.093 285.225 192.191C285.292 192.211 285.361 192.221 285.431 192.22L285.38 192.216C285.312 192.21 285.245 192.2 285.178 192.185C285.107 192.167 285.037 192.145 284.969 192.118C284.844 192.073 284.777 192.036 284.678 191.994L284.186 191.747C282.939 191.08 281.774 190.369 280.594 189.656C278.249 188.221 275.923 186.77 273.619 185.275L273.546 185.222L273.538 185.215C271.046 183.079 268.363 181.176 265.524 179.528C264.824 179.137 264.1 178.794 263.354 178.5C262.995 178.359 262.627 178.241 262.252 178.147C261.864 178.065 261.472 178.007 261.078 177.972C260.592 177.912 260.119 177.774 259.677 177.565C259.136 177.319 258.713 176.871 258.498 176.317C258.326 175.781 258.332 175.203 258.516 174.671C258.665 174.202 258.886 173.76 259.171 173.36L259.263 174.235C258.888 173.9 258.576 173.5 258.342 173.054C258.087 172.542 258.022 171.956 258.158 171.399C258.306 170.88 258.599 170.413 259.002 170.054C259.378 169.695 259.837 169.436 260.339 169.3C261.247 169.141 262.178 169.158 263.08 169.351C263.93 169.498 264.77 169.695 265.596 169.941L264.948 170.661C264.774 170.247 264.68 169.804 264.671 169.356C264.669 169.099 264.72 168.844 264.819 168.607C264.918 168.369 265.064 168.154 265.248 167.975C265.593 167.689 265.992 167.474 266.42 167.343C266.849 167.212 267.299 167.168 267.745 167.212C268.555 167.298 269.34 167.544 270.055 167.935L272.12 168.869L271.538 169.391C271.355 168.934 271.264 168.446 271.272 167.954C271.281 167.462 271.387 166.977 271.586 166.526C271.729 166.299 271.917 166.103 272.139 165.95C272.36 165.797 272.61 165.69 272.873 165.635C273.348 165.526 273.841 165.516 274.32 165.606C275.183 165.842 276.024 166.151 276.836 166.528L279.235 167.565C280.821 168.287 282.405 169.02 283.928 169.898C284.307 170.121 284.681 170.355 285.043 170.618C285.415 170.893 285.719 171.163 286.075 171.392C286.753 171.87 287.545 172.16 288.371 172.234C288.751 172.269 289.131 172.165 289.439 171.941C289.572 171.813 289.669 171.653 289.719 171.476C289.77 171.298 289.773 171.111 289.728 170.933L289.643 168.322C289.628 167.442 289.591 166.61 289.605 165.69C289.642 165.198 289.843 164.732 290.174 164.366C290.348 164.174 290.564 164.027 290.806 163.936C291.048 163.845 291.308 163.813 291.565 163.842C292.053 163.926 292.5 164.168 292.838 164.53C293.176 164.86 293.447 165.253 293.635 165.687C293.684 165.808 293.721 165.933 293.745 166.061L293.795 166.381L293.905 167.019L294.144 168.297L295.172 173.401L295.114 173.259C295.666 174.097 296.23 174.928 296.714 175.816C297.218 176.701 297.649 177.625 298.004 178.579C298.374 179.567 298.569 180.612 298.58 181.667C298.605 182.26 298.484 182.85 298.227 183.385C297.971 183.92 297.586 184.384 297.108 184.736L297.139 183.758C298.152 184.52 299.029 185.448 299.733 186.501C300.449 187.477 301.114 188.477 301.76 189.487C303.044 191.51 304.261 193.565 305.432 195.644C307.744 199.818 309.937 204.048 312.088 208.297C314.255 212.538 316.283 216.847 318.325 221.147C320.358 225.451 322.324 229.787 324.22 234.154C324.228 234.172 324.228 234.191 324.222 234.209C324.215 234.227 324.202 234.241 324.185 234.249C324.167 234.257 324.148 234.258 324.13 234.252C324.112 234.246 324.097 234.233 324.089 234.216L324.089 234.216Z" fill="black"/>
<path d="M289.89 189.698C288.647 190.833 287.116 191.602 285.464 191.922C285.384 191.937 285.302 191.936 285.222 191.92C285.142 191.903 285.067 191.871 284.999 191.825C284.932 191.779 284.875 191.721 284.83 191.653C284.785 191.585 284.755 191.508 284.74 191.428C284.725 191.348 284.725 191.266 284.742 191.187C284.759 191.107 284.791 191.032 284.837 190.964C284.883 190.897 284.942 190.84 285.01 190.795C285.078 190.751 285.154 190.72 285.234 190.705C285.287 190.696 285.341 190.693 285.395 190.696C286.957 190.782 288.511 190.437 289.89 189.698Z" fill="black"/>
<path d="M288.757 175.12C289.146 176.304 289.427 177.462 289.824 178.574C290.006 179.129 290.228 179.671 290.489 180.195C290.753 180.729 291.089 181.225 291.488 181.668C290.893 181.426 290.38 181.019 290.009 180.495C289.633 179.983 289.34 179.414 289.139 178.81C288.725 177.627 288.594 176.363 288.757 175.12Z" fill="black"/>
<path d="M280.86 173.238L271.513 169.598C271.423 169.563 271.351 169.494 271.312 169.406C271.274 169.318 271.272 169.218 271.306 169.129C271.341 169.039 271.41 168.967 271.499 168.928C271.587 168.89 271.686 168.887 271.776 168.922L271.8 168.933L280.86 173.238Z" fill="black"/>
<path d="M276.342 175.03L265.308 170.886C265.264 170.869 265.222 170.844 265.187 170.812C265.152 170.779 265.124 170.74 265.104 170.697C265.084 170.653 265.073 170.606 265.072 170.559C265.07 170.511 265.078 170.463 265.095 170.419C265.112 170.374 265.137 170.333 265.17 170.298C265.202 170.263 265.242 170.235 265.285 170.216C265.329 170.196 265.376 170.185 265.423 170.184C265.471 170.183 265.519 170.191 265.563 170.208L265.584 170.216L276.342 175.03Z" fill="black"/>
<path d="M271.467 176.768C269.538 176.116 267.589 175.523 265.626 175.001C264.643 174.747 263.657 174.508 262.666 174.321C261.712 174.107 260.731 174.034 259.756 174.104L259.716 174.109C259.668 174.116 259.62 174.113 259.574 174.101C259.528 174.089 259.485 174.068 259.447 174.039C259.409 174.01 259.378 173.974 259.354 173.933C259.33 173.892 259.314 173.846 259.308 173.799C259.301 173.752 259.304 173.704 259.316 173.658C259.328 173.612 259.349 173.569 259.378 173.531C259.407 173.493 259.443 173.461 259.484 173.437C259.525 173.413 259.571 173.398 259.618 173.391L259.641 173.389C260.702 173.361 261.761 173.497 262.781 173.79C263.779 174.04 264.757 174.34 265.729 174.654C267.668 175.294 269.581 175.999 271.467 176.768Z" fill="black"/>
<path d="M401.329 240.888L405.481 225.462L407.524 217.745C407.849 216.458 408.179 215.167 408.461 213.881C408.727 212.592 408.924 211.291 409.053 209.982C409.647 204.707 410.136 199.399 410.69 194.101C410.962 191.451 411.26 188.8 411.586 186.15C411.75 184.825 411.936 183.5 412.143 182.173C412.27 181.509 412.38 180.848 412.527 180.18L412.775 179.172C412.89 178.804 413.026 178.443 413.182 178.09C413.219 177.997 413.289 177.92 413.379 177.875L413.463 177.833C414.653 177.221 415.784 176.501 416.842 175.682C417.921 174.867 418.935 173.97 419.876 172.998C421.765 171.057 423.364 168.852 424.623 166.454L424.631 166.439C424.655 166.393 424.687 166.35 424.724 166.313L431.613 159.521C431.825 159.27 431.962 158.964 432.008 158.639C432.071 158.282 432.08 157.917 432.036 157.556C432.014 157.254 431.874 156.973 431.646 156.773C431.392 156.606 431.084 156.542 430.784 156.593C430.454 156.648 430.146 156.797 429.897 157.021L429.042 157.857C428.457 158.424 427.864 158.981 427.256 159.524C426.063 160.672 424.719 161.652 423.261 162.436C423.047 162.53 422.821 162.59 422.589 162.615C422.439 162.634 422.288 162.613 422.15 162.553C422.012 162.493 421.892 162.396 421.805 162.274C421.698 162.055 421.638 161.816 421.628 161.572C421.619 161.329 421.66 161.086 421.749 160.859C422.04 160.07 422.452 159.331 422.971 158.669C423.961 157.37 425.047 156.146 426.22 155.009C427.428 153.973 428.38 152.673 429.003 151.209C429.28 150.488 429.186 149.67 428.477 149.397C428.133 149.261 427.759 149.218 427.393 149.272C427.027 149.325 426.681 149.474 426.391 149.703C425.051 150.573 423.848 151.635 422.819 152.856C422.287 153.459 421.769 154.075 421.277 154.712C420.766 155.334 420.345 156.017 419.757 156.639C419.465 156.945 419.143 157.221 418.795 157.461C418.618 157.588 418.431 157.7 418.235 157.795C418.111 157.874 417.969 157.921 417.822 157.931C417.676 157.942 417.529 157.917 417.394 157.858C417.308 157.802 417.239 157.725 417.192 157.634C417.163 157.56 417.142 157.484 417.127 157.406C417.113 157.282 417.115 157.157 417.132 157.033C417.16 156.815 417.208 156.601 417.275 156.392C417.397 155.994 417.543 155.603 417.712 155.221C418.044 154.463 418.441 153.735 418.899 153.045L420.277 151.043C421.179 149.724 421.97 148.331 422.641 146.881C422.972 146.206 423.166 145.473 423.212 144.723C423.21 144.574 423.176 144.427 423.114 144.293C423.051 144.158 422.96 144.038 422.848 143.94C422.75 143.841 422.628 143.767 422.495 143.727C422.361 143.686 422.219 143.68 422.083 143.708C421.397 143.918 420.789 144.328 420.339 144.886C419.816 145.464 419.355 146.095 418.962 146.769C418.547 147.447 418.213 148.135 417.85 148.883C417.48 149.624 417.076 150.338 416.655 151.042C415.821 152.467 414.875 153.825 413.827 155.102C413.688 155.263 413.542 155.423 413.38 155.579C413.297 155.662 413.209 155.74 413.118 155.814C413.057 155.871 412.989 155.92 412.915 155.958C412.857 155.989 412.798 156.017 412.736 156.04C412.631 156.066 412.521 156.072 412.413 156.058C412.222 156.026 412.051 155.921 411.935 155.766C411.87 155.681 411.82 155.586 411.785 155.485C411.738 155.351 411.704 155.213 411.683 155.073C411.653 154.848 411.637 154.622 411.634 154.396C411.633 153.561 411.681 152.726 411.777 151.897C412.03 150.275 412.37 148.668 412.797 147.083C412.967 146.343 413.048 145.586 413.037 144.827C413.044 144.105 412.918 143.388 412.666 142.712C412.543 142.425 412.346 142.228 412.316 142.251C412.299 142.271 412.303 142.244 412.273 142.252C412.242 142.273 412.206 142.286 412.168 142.29C412.053 142.362 411.945 142.446 411.846 142.539C411.348 143.087 410.926 143.699 410.591 144.36C409.838 145.731 409.256 147.19 408.858 148.704C408.657 149.464 408.49 150.234 408.349 151.017C408.194 151.814 408.119 152.562 407.899 153.469C407.477 155.1 406.857 156.674 406.053 158.155C405.611 159.032 404.902 159.744 404.027 160.189C403.739 160.304 403.43 160.353 403.121 160.332C402.964 160.324 402.809 160.304 402.655 160.271L402.255 160.099C401.801 159.873 401.398 159.555 401.073 159.166C399.825 157.694 399.553 155.937 398.763 154.829C398.599 154.576 398.382 154.363 398.126 154.205C397.87 154.047 397.582 153.948 397.283 153.914C396.951 153.873 396.614 153.877 396.283 153.926L395.77 154.017C395.641 154.073 395.473 154.11 395.373 154.165C395.156 154.308 395.206 154.269 395.188 154.423C395.237 154.708 395.344 154.981 395.503 155.223C395.867 155.851 396.361 156.492 396.832 157.177C397.084 157.53 397.313 157.898 397.52 158.279C397.743 158.691 397.912 159.13 398.02 159.586C398.217 160.439 398.317 161.248 398.426 162.064L398.99 166.883C399.098 167.674 399.213 168.464 399.374 169.223C399.449 169.59 399.546 169.952 399.664 170.308C399.739 170.567 399.857 170.812 400.013 171.033L400.18 171.293C400.229 171.369 400.26 171.454 400.273 171.543C400.286 171.633 400.279 171.724 400.254 171.81C398.742 176.875 397.144 181.914 395.594 186.967L390.909 202.116L386.225 217.265L381.426 232.38C381.421 232.398 381.408 232.413 381.391 232.422C381.374 232.431 381.355 232.433 381.336 232.427C381.318 232.422 381.303 232.41 381.294 232.393C381.284 232.376 381.282 232.357 381.287 232.338L385.588 217.074L390.002 201.844L394.415 186.614C395.898 181.541 397.333 176.453 398.855 171.391L399.096 172.169C398.875 171.963 398.694 171.72 398.559 171.45C398.444 171.24 398.351 171.019 398.282 170.789C398.142 170.377 398.028 169.957 397.94 169.531C397.762 168.706 397.642 167.893 397.528 167.08L396.948 162.251C396.841 161.463 396.735 160.664 396.565 159.939C396.368 159.246 396.039 158.598 395.594 158.031C395.148 157.382 394.643 156.743 394.19 155.972C393.909 155.531 393.733 155.032 393.675 154.513C393.65 154.343 393.662 154.169 393.712 154.003C393.741 153.819 393.812 153.645 393.92 153.493C394.101 153.211 394.354 152.982 394.652 152.828C394.889 152.716 395.135 152.621 395.387 152.545L396.069 152.419C396.539 152.348 397.016 152.343 397.487 152.402C397.994 152.465 398.481 152.635 398.917 152.901C399.352 153.167 399.727 153.522 400.014 153.943C401.062 155.514 401.313 157.155 402.217 158.168C402.408 158.405 402.644 158.6 402.912 158.742C402.965 158.765 403.016 158.792 403.064 158.822C403.113 158.833 403.156 158.82 403.2 158.83C403.286 158.874 403.381 158.799 403.479 158.794C404.038 158.465 404.49 157.981 404.779 157.401C405.528 156.036 406.109 154.586 406.51 153.081C406.681 152.416 406.792 151.55 406.949 150.759C407.102 149.949 407.284 149.137 407.504 148.334C407.944 146.715 408.58 145.156 409.4 143.692C409.806 142.91 410.321 142.19 410.93 141.553C411.126 141.37 411.344 141.212 411.58 141.084C411.734 141.025 411.892 140.974 412.051 140.932C412.238 140.91 412.426 140.915 412.611 140.947C412.903 141.04 413.169 141.199 413.389 141.411C413.609 141.624 413.776 141.885 413.878 142.173C414.201 143.015 414.359 143.91 414.344 144.811C414.347 145.673 414.243 146.532 414.035 147.368C413.594 148.903 413.234 150.461 412.957 152.034C412.853 152.812 412.794 153.595 412.78 154.379C412.779 154.558 412.788 154.736 412.808 154.913C412.816 154.973 412.828 155.033 412.845 155.091C412.852 155.128 412.849 155.094 412.83 155.08C412.767 155.011 412.684 154.964 412.593 154.947C412.535 154.935 412.475 154.94 412.421 154.961C412.405 154.961 412.39 154.965 412.377 154.972C412.329 155.011 412.394 154.96 412.418 154.939C412.485 154.887 412.55 154.831 412.611 154.772C412.742 154.649 412.872 154.513 413 154.369C414.027 153.157 414.957 151.866 415.783 150.509C416.205 149.83 416.611 149.14 416.976 148.438C417.331 147.735 417.718 146.971 418.163 146.276C418.599 145.556 419.11 144.884 419.685 144.27C420.276 143.574 421.07 143.081 421.957 142.861C422.221 142.819 422.491 142.84 422.745 142.922C423 143.004 423.231 143.145 423.421 143.333C423.605 143.505 423.754 143.712 423.859 143.942C423.967 144.179 424.024 144.436 424.026 144.696C423.975 145.567 423.743 146.417 423.347 147.193C422.631 148.672 421.794 150.088 420.843 151.426C419.849 152.683 418.983 154.036 418.255 155.464C418.09 155.82 417.946 156.186 417.823 156.559C417.763 156.735 417.718 156.915 417.691 157.099C417.671 157.196 417.671 157.295 417.689 157.392C417.8 157.389 417.909 157.359 418.005 157.305C418.174 157.223 418.335 157.128 418.488 157.019C418.809 156.801 419.106 156.551 419.375 156.272C419.908 155.721 420.354 155.021 420.874 154.395C421.375 153.754 421.905 153.133 422.449 152.525C423.519 151.272 424.769 150.186 426.159 149.3C426.526 149.073 426.929 148.909 427.351 148.813C427.799 148.728 428.263 148.791 428.671 148.993C428.889 149.086 429.081 149.229 429.233 149.41C429.385 149.591 429.491 149.806 429.544 150.036C429.619 150.477 429.576 150.929 429.419 151.347C428.788 152.884 427.81 154.255 426.56 155.35C425.416 156.478 424.359 157.691 423.396 158.977C422.919 159.596 422.54 160.284 422.272 161.018C422.153 161.319 422.15 161.654 422.265 161.958C422.324 162.118 422.706 162.062 423.042 161.911C424.426 161.133 425.693 160.165 426.808 159.035C427.396 158.486 427.97 157.921 428.536 157.348L429.399 156.467C429.75 156.138 430.187 155.917 430.66 155.83C431.166 155.735 431.689 155.841 432.118 156.126C432.525 156.444 432.789 156.911 432.853 157.423C432.92 157.866 432.921 158.317 432.855 158.76C432.794 159.242 432.601 159.699 432.297 160.078L425.5 167.085L425.601 166.944C424.974 168.209 424.254 169.425 423.447 170.584C422.637 171.742 421.736 172.833 420.752 173.847C419.775 174.868 418.721 175.813 417.6 176.673C416.476 177.555 415.272 178.33 414.005 178.988L414.285 178.732C414.202 179.003 414.088 179.219 414.009 179.523L413.787 180.457C413.653 181.089 413.548 181.743 413.429 182.387C413.217 183.69 413.019 184.999 412.845 186.315C412.495 188.946 412.175 191.584 411.884 194.23C411.274 199.517 410.779 204.816 410.082 210.112C409.922 211.45 409.692 212.779 409.391 214.092C409.075 215.401 408.719 216.683 408.365 217.97L406.157 225.652C404.628 230.755 403.052 235.843 401.468 240.928C401.462 240.946 401.45 240.962 401.433 240.971C401.416 240.98 401.397 240.982 401.378 240.976C401.36 240.971 401.345 240.959 401.335 240.942C401.326 240.926 401.324 240.906 401.329 240.888L401.329 240.888Z" fill="black"/>
<path d="M418.858 164.535C417.901 163.429 416.878 162.381 415.795 161.397C415.267 160.922 414.687 160.507 414.067 160.16C413.432 159.814 412.739 159.584 412.023 159.482C412.781 159.305 413.574 159.362 414.299 159.645C415.023 159.924 415.69 160.332 416.269 160.849C417.419 161.849 418.307 163.114 418.858 164.535Z" fill="black"/>
<path d="M409.481 161.514C409.671 162.683 409.672 163.874 409.487 165.043C409.4 165.63 409.264 166.209 409.079 166.772C408.91 167.354 408.613 167.89 408.21 168.342C408.355 167.783 408.462 167.214 408.529 166.64L408.771 164.936C408.924 163.78 409.162 162.636 409.481 161.514Z" fill="black"/>
<path d="M403.957 173.261C403.104 173.36 402.24 173.33 401.395 173.171C400.442 173.014 399.566 172.55 398.901 171.85L398.872 171.818C398.807 171.747 398.757 171.663 398.724 171.572C398.692 171.48 398.677 171.384 398.682 171.287C398.687 171.19 398.711 171.095 398.752 171.008C398.794 170.92 398.852 170.842 398.924 170.777C398.996 170.712 399.08 170.662 399.171 170.629C399.263 170.597 399.36 170.583 399.456 170.588C399.553 170.593 399.648 170.617 399.735 170.658C399.823 170.7 399.901 170.758 399.966 170.83C400.019 170.889 400.062 170.955 400.094 171.027C400.434 171.668 400.975 172.181 401.633 172.487C402.365 172.86 403.148 173.121 403.957 173.261Z" fill="black"/>
<path d="M308.606 357.822C308.63 364.776 308.632 371.729 308.545 378.68C308.47 385.631 308.423 392.583 308.265 399.533L307.851 420.382C307.684 427.331 307.45 434.279 307.151 441.224L306.877 440.64C309.898 442.973 313.155 444.983 316.594 446.639C320.03 448.341 323.681 449.569 327.447 450.289C331.213 451.015 335.088 450.961 338.832 450.131C342.558 449.259 346.032 447.536 348.98 445.098C349.021 445.065 349.068 445.039 349.119 445.024C349.169 445.009 349.223 445.005 349.275 445.011L349.296 445.014C353.402 445.5 357.535 445.734 361.67 445.714C365.794 445.708 369.912 445.422 373.997 444.858C378.05 444.326 382.02 443.293 385.817 441.782C389.564 440.361 392.866 437.971 395.385 434.856L395.183 435.575L392.906 416.019L390.745 396.449L388.568 376.881C387.823 370.36 387.093 363.837 386.287 357.32C386.283 357.294 386.29 357.268 386.306 357.247C386.322 357.226 386.345 357.212 386.371 357.207C386.397 357.203 386.423 357.209 386.445 357.224C386.466 357.239 386.481 357.262 386.486 357.288C387.746 363.737 388.803 370.224 389.796 376.717C390.822 383.207 391.694 389.718 392.577 396.226C393.475 402.732 394.267 409.252 395.055 415.772C395.813 422.295 396.523 428.824 397.183 435.359L397.185 435.375C397.21 435.627 397.137 435.879 396.982 436.079C394.213 439.435 390.6 441.995 386.515 443.494C382.555 444.998 378.418 445.986 374.205 446.433C370.039 446.907 365.844 447.068 361.654 446.913C357.476 446.794 353.308 446.428 349.173 445.817L349.488 445.732C346.404 448.173 342.812 449.892 338.976 450.763C335.143 451.566 331.191 451.631 327.333 450.954C323.486 450.288 319.735 449.151 316.167 447.567C312.575 446.002 309.16 444.06 305.978 441.773C305.893 441.712 305.824 441.631 305.776 441.537C305.728 441.443 305.704 441.339 305.704 441.234L305.704 441.188C305.762 434.237 305.874 427.286 306.043 420.337L306.667 399.493C306.856 392.545 307.154 385.599 307.426 378.652C307.685 371.705 308.033 364.761 308.404 357.817C308.405 357.791 308.417 357.766 308.436 357.748C308.455 357.73 308.481 357.721 308.507 357.721C308.533 357.722 308.558 357.733 308.577 357.752C308.595 357.77 308.606 357.796 308.606 357.822L308.606 357.822Z" fill="black"/>
<path d="M357.519 379.222C359.131 378.681 360.713 378.098 362.289 377.522C363.86 376.93 365.42 376.322 366.928 375.613C368.449 374.942 369.916 374.157 371.319 373.265C372.737 372.379 374.019 371.293 375.125 370.039C374.308 371.56 373.164 372.881 371.775 373.907C370.408 374.952 368.922 375.833 367.348 376.53C365.792 377.239 364.181 377.82 362.532 378.268C360.892 378.734 359.215 379.053 357.519 379.222Z" fill="black"/>
<path d="M349.234 445.415C349.559 439.689 350.124 433.98 350.776 428.282C351.426 422.583 352.267 416.907 353.186 411.243C354.174 405.591 355.245 399.947 356.65 394.377C357.948 388.78 359.741 383.309 362.007 378.028L360.62 382.095L359.439 386.221C358.704 388.985 357.984 391.752 357.406 394.555C356.783 397.346 356.224 400.151 355.661 402.956C355.155 405.772 354.624 408.583 354.18 411.41C353.181 417.046 352.356 422.713 351.543 428.381C351.127 431.215 350.735 434.052 350.367 436.893L349.234 445.415Z" fill="black"/>
<path d="M359.243 446.253L360.046 431.135C360.294 426.097 360.572 421.062 360.7 416.024C360.909 410.988 360.984 405.952 360.927 400.915C360.9 398.398 360.82 395.88 360.609 393.375C360.495 390.86 360.036 388.372 359.243 385.982C360.225 388.322 360.852 390.797 361.102 393.323C361.414 395.838 361.581 398.365 361.703 400.892C361.927 405.949 361.838 411.007 361.708 416.058C361.496 421.107 361.232 426.152 360.818 431.186C360.403 436.219 359.917 441.247 359.243 446.253Z" fill="black"/>
<path d="M307.326 393.293C310.58 392.896 313.852 392.668 317.129 392.611C317.228 392.608 317.327 392.626 317.419 392.661C317.512 392.697 317.596 392.751 317.668 392.819C317.74 392.887 317.797 392.969 317.837 393.06C317.877 393.15 317.899 393.248 317.902 393.347L317.902 393.351L317.902 393.384C317.934 395.042 317.973 396.7 317.899 398.357C317.83 400.015 317.692 401.673 317.585 403.331C317.345 406.642 317.343 409.966 317.58 413.278C317.667 414.935 317.804 416.593 317.874 418.251C317.944 419.909 317.976 421.567 318.017 423.224C318.13 426.54 318.114 429.856 318.005 433.171L318.002 433.245C317.996 433.442 317.919 433.629 317.786 433.774C317.652 433.919 317.472 434.011 317.276 434.034C316.298 434.156 315.312 434.213 314.326 434.206C313.341 434.207 312.358 434.128 311.386 433.969C310.396 433.82 309.434 433.522 308.532 433.085C308.07 432.875 307.655 432.574 307.312 432.2C306.969 431.825 306.706 431.386 306.538 430.907C306.535 430.895 306.534 430.883 306.536 430.871C306.537 430.859 306.541 430.848 306.547 430.837C306.553 430.827 306.561 430.818 306.571 430.811C306.58 430.803 306.591 430.798 306.602 430.795C306.622 430.79 306.642 430.791 306.661 430.799C306.68 430.807 306.695 430.82 306.705 430.838C307.189 431.607 307.951 432.16 308.833 432.381C309.701 432.642 310.6 432.781 311.506 432.795C312.425 432.806 313.345 432.771 314.261 432.69C315.173 432.598 316.111 432.481 316.982 432.309L316.254 433.171C316.144 429.856 316.128 426.54 316.241 423.224C316.282 421.567 316.314 419.909 316.385 418.251C316.455 416.593 316.592 414.935 316.678 413.278C316.915 409.966 316.913 406.642 316.673 403.331C316.566 401.673 316.428 400.015 316.359 398.357C316.285 396.7 316.324 395.042 316.356 393.384L317.129 394.156C313.852 394.099 310.58 393.872 307.326 393.474C307.304 393.471 307.284 393.461 307.27 393.444C307.255 393.427 307.247 393.406 307.247 393.384C307.247 393.362 307.255 393.34 307.27 393.324C307.284 393.307 307.304 393.296 307.326 393.293L307.326 393.293Z" fill="#FDB914"/>
<path d="M307.192 400.529C308.883 400.448 310.577 400.558 312.243 400.856C313.917 401.111 315.556 401.554 317.129 402.179C315.438 402.262 313.744 402.152 312.078 401.851C310.405 401.595 308.766 401.151 307.192 400.529Z" fill="#FDB914"/>
<path d="M310.522 443.289C309.332 444.594 308.206 445.951 307.135 447.341C306.127 448.809 305.022 450.207 303.827 451.526C303.194 452.169 302.524 452.762 301.835 453.337C301.117 453.911 300.376 454.407 299.641 454.904L295.238 457.831C289.409 461.713 283.921 466.085 278.833 470.897C276.295 473.299 273.884 475.831 271.561 478.443C269.26 481.091 267.099 483.789 264.927 486.607C262.729 489.401 260.377 492.071 257.883 494.605C255.408 497.171 252.608 499.322 249.974 501.687C251.027 500.262 252.217 498.935 253.372 497.602C254.518 496.254 255.729 494.977 256.896 493.675C259.247 491.077 261.434 488.34 263.533 485.539C267.62 479.718 272.29 474.329 277.471 469.455C280.058 467.009 282.785 464.716 285.638 462.586C288.474 460.446 291.42 458.455 294.464 456.622C295.973 455.695 297.518 454.825 299.033 453.936C299.789 453.492 300.535 453.038 301.237 452.563C301.939 452.055 302.629 451.522 303.275 450.95C304.533 449.734 305.709 448.436 306.794 447.064C307.964 445.736 309.208 444.476 310.522 443.289Z" fill="black"/>
<path d="M259.538 522.492C261.256 520.775 263.024 519.109 264.812 517.466C266.603 515.826 268.384 514.171 270.228 512.589C273.909 509.417 277.644 506.303 281.488 503.311C285.342 500.309 289.362 497.526 293.529 494.975C295.64 493.685 297.839 492.543 300.11 491.559C300.678 491.305 301.288 491.114 301.881 490.898C302.457 490.691 302.996 490.521 303.55 490.307C304.648 489.878 305.737 489.412 306.805 488.885C315.346 484.458 323.184 478.793 330.066 472.072C333.546 468.742 336.696 465.085 339.473 461.15C342.358 457.263 344.345 452.785 345.291 448.038C344.888 452.911 342.748 457.488 340.209 461.632C337.57 465.754 334.507 469.589 331.071 473.074C327.676 476.599 324.012 479.852 320.11 482.806C316.223 485.814 312.058 488.444 307.67 490.659C306.565 491.212 305.427 491.708 304.267 492.168C303.692 492.395 303.074 492.595 302.511 492.802C301.966 493.007 301.416 493.181 300.879 493.425C298.69 494.356 296.569 495.439 294.531 496.665C290.411 499.116 286.411 501.831 282.508 504.678C278.569 507.48 274.716 510.416 270.913 513.417C267.086 516.391 263.31 519.433 259.538 522.492Z" fill="black"/>
<path d="M313.47 462.861C312.474 464.511 311.431 466.051 310.598 467.679C310.166 468.468 309.831 469.307 309.6 470.177C309.353 471.056 309.363 471.988 309.627 472.863C309.304 472.476 309.066 472.027 308.927 471.543C308.789 471.059 308.753 470.551 308.822 470.053C308.926 469.059 309.225 468.096 309.7 467.218C310.598 465.491 311.889 463.998 313.47 462.861Z" fill="black"/>
<path d="M260.471 523.502C259.53 522.751 258.347 522.368 257.144 522.424C254.604 522.491 249.041 521.907 247.063 515.964C246.639 514.538 246.509 513.042 246.681 511.564C246.853 510.087 247.323 508.66 248.063 507.37C249.513 504.707 251.053 500.741 248.973 498.427C245.624 494.742 238.723 501.708 238.723 501.708C238.723 501.708 234.014 505.022 230.08 504.685C228.471 504.529 226.847 504.752 225.34 505.338C223.833 505.923 222.485 506.854 221.404 508.055C218.515 511.279 216.986 516.346 223.618 523.232C223.618 523.232 228.63 527.738 231.328 544.488C234.025 561.238 240.769 581.876 252.491 575.775C252.944 575.436 253.316 575 253.578 574.498C253.841 573.997 253.988 573.443 254.008 572.877C253.918 572.341 253.695 571.836 253.359 571.408C253.023 570.981 252.586 570.644 252.087 570.428C251.6 570.195 251.074 570.054 250.536 570.012C249.976 569.98 249.416 570.003 248.861 570.08C247.634 570.129 246.41 569.927 245.264 569.484C243.015 568.499 241.116 566.858 239.813 564.777C238.534 562.764 237.543 560.582 236.869 558.295L236.846 558.25V558.216C235.958 554.048 235.014 549.881 233.935 545.769C233.396 543.713 232.823 541.657 232.171 539.646C231.604 537.653 230.772 535.745 229.698 533.973C228.566 532.086 227.661 530.072 227.001 527.974C226.304 525.929 225.719 523.85 225.225 521.75C224.736 519.646 224.398 517.51 224.213 515.357C223.926 513.211 224.117 511.028 224.775 508.965C224.348 511.055 224.348 513.211 224.775 515.301C225.134 517.394 225.6 519.468 226.169 521.514C226.753 523.558 227.417 525.569 228.192 527.535C228.923 529.49 229.845 531.368 230.946 533.141C231.204 533.523 231.553 534.096 231.834 534.568C232.081 535.073 232.339 535.568 232.553 536.073C232.991 537.084 233.362 538.107 233.711 539.14C234.396 541.196 234.992 543.263 235.554 545.342C236.621 549.51 237.577 553.678 238.363 557.913C238.965 560.061 239.834 562.125 240.948 564.058C242.029 565.993 243.671 567.556 245.658 568.541C246.659 568.987 247.742 569.221 248.838 569.226C249.438 569.184 250.041 569.203 250.637 569.282C251.252 569.38 251.843 569.593 252.379 569.911C252.928 570.199 253.396 570.621 253.74 571.137C254.084 571.654 254.292 572.248 254.346 572.866C254.282 573.461 254.082 574.034 253.76 574.538C253.439 575.043 253.004 575.467 252.491 575.775C252.491 575.775 256.987 575.686 256.976 564.642C256.964 558.126 257.11 548.263 257.223 541.286C256.2 540.848 255.267 540.342 254.346 539.848L251.626 538.376C250.754 537.911 249.853 537.502 248.928 537.152C248.001 536.76 246.971 536.681 245.995 536.927C246.389 536.489 246.891 536.16 247.45 535.973C248.009 535.786 248.608 535.747 249.187 535.86C250.318 535.991 251.413 536.338 252.412 536.882C253.384 537.399 254.287 538.037 255.099 538.781C255.938 539.495 256.656 540.341 257.223 541.286C257.313 536.444 257.38 532.984 257.38 532.984C256.526 532.231 255.818 531.479 255.031 530.816C254.28 530.152 253.475 529.551 252.626 529.018C250.876 527.932 248.969 527.121 246.973 526.614C248.052 526.241 249.211 526.155 250.333 526.367C251.469 526.553 252.556 526.97 253.525 527.592C254.5 528.198 255.344 528.992 256.009 529.928C256.677 530.838 257.144 531.88 257.38 532.984C257.38 532.984 264.832 527.154 260.471 523.502ZM237.948 526.547C235.958 527.007 232.238 524.098 233.362 520.087C234.666 515.425 233.98 512.436 235.969 511.976C237.959 511.515 240.016 514.414 240.555 518.435C241.106 522.457 239.937 526.086 237.948 526.547ZM249.063 544.331C250.229 544.395 251.368 544.709 252.401 545.252C253.418 545.77 254.344 546.449 255.144 547.263C255.959 548.037 256.618 548.96 257.088 549.981C255.155 548.847 253.458 547.667 251.637 546.757C250.746 546.301 249.817 545.921 248.861 545.623C247.845 545.372 246.805 545.236 245.759 545.218C246.736 544.574 247.895 544.263 249.063 544.331Z" fill="black"/>
<path d="M361.915 445.69C360.927 447.153 360.01 448.659 359.152 450.19C358.367 451.788 357.477 453.331 356.485 454.81C355.953 455.538 355.375 456.222 354.777 456.891C354.151 457.563 353.489 458.16 352.834 458.759L348.902 462.293C343.698 466.979 338.902 472.099 334.566 477.598C332.403 480.343 330.384 483.198 328.465 486.118C326.572 489.072 324.826 492.054 323.086 495.157C321.315 498.24 319.376 501.222 317.276 504.091C315.199 506.989 312.74 509.523 310.477 512.245C311.312 510.682 312.298 509.197 313.247 507.711C314.185 506.211 315.199 504.771 316.164 503.314C318.113 500.403 319.881 497.378 321.551 494.303C324.751 487.951 328.59 481.941 333.009 476.368C335.214 473.574 337.579 470.909 340.093 468.389C342.589 465.86 345.215 463.463 347.961 461.209C349.319 460.072 350.722 458.987 352.092 457.889C352.776 457.34 353.448 456.783 354.073 456.211C354.695 455.607 355.3 454.979 355.856 454.319C356.924 452.934 357.899 451.479 358.774 449.965C359.739 448.481 360.788 447.054 361.915 445.69Z" fill="black"/>
<path d="M322.958 531.444C329.203 523.219 335.95 515.389 343.163 507.997C346.775 504.261 350.646 500.785 354.748 497.595C355.795 496.81 356.866 496.048 357.987 495.341C359.08 494.63 360.374 494.009 361.416 493.448C363.604 492.199 365.682 490.767 367.628 489.168C371.576 485.942 375.247 482.392 378.603 478.555C381.988 474.73 385.055 470.635 387.775 466.312C390.511 462 392.656 457.34 394.153 452.458C395.746 447.563 395.876 442.31 394.525 437.342C396.406 442.19 396.177 447.647 394.968 452.673C393.662 457.718 391.637 462.549 388.954 467.017C383.678 476.011 376.879 484.021 368.86 490.69C366.833 492.373 364.666 493.881 362.383 495.197C361.157 495.855 360.133 496.368 359.055 497.048C357.992 497.706 356.957 498.431 355.939 499.183C351.895 502.307 348.038 505.665 344.388 509.24C340.683 512.788 337.059 516.429 333.514 520.164C329.959 523.883 326.441 527.643 322.958 531.444Z" fill="black"/>
<path d="M367.671 464.628C366.925 466.404 366.116 468.079 365.528 469.811C365.215 470.654 365.005 471.533 364.903 472.426C364.786 473.333 364.931 474.253 365.319 475.08C364.944 474.745 364.643 474.335 364.435 473.876C364.228 473.417 364.119 472.92 364.115 472.417C364.074 471.419 364.23 470.422 364.573 469.485C365.211 467.645 366.272 465.982 367.671 464.628Z" fill="black"/>
<path d="M326.535 573.518C325.939 569.485 325.209 564.137 324.523 559.003C322.444 558.149 320.59 557.228 318.668 556.599C317.719 556.278 316.746 556.037 315.757 555.88C314.713 555.772 313.661 555.787 312.621 555.925C313.496 555.152 314.594 554.676 315.757 554.565C316.92 554.474 318.09 554.619 319.196 554.992C320.277 555.356 321.291 555.895 322.197 556.588C323.117 557.239 323.906 558.059 324.523 559.003C324.119 555.947 323.725 552.959 323.399 550.375C322.363 550.094 321.342 549.756 320.342 549.364L317.443 548.308C316.509 547.975 315.555 547.701 314.588 547.488C313.611 547.231 312.576 547.302 311.643 547.69C311.976 547.203 312.426 546.808 312.953 546.543C313.48 546.277 314.066 546.15 314.655 546.173C315.793 546.143 316.926 546.33 317.993 546.724C319.034 547.09 320.024 547.589 320.938 548.206C321.865 548.799 322.695 549.53 323.399 550.375C322.77 545.578 322.343 542.14 322.343 542.14C321.399 541.522 320.578 540.871 319.702 540.331C318.862 539.787 317.983 539.306 317.072 538.893C315.179 538.08 313.175 537.557 311.126 537.343C312.135 536.81 313.268 536.558 314.408 536.613C315.559 536.638 316.693 536.89 317.747 537.354C318.8 537.819 319.75 538.487 320.545 539.32C321.337 540.122 321.95 541.083 322.343 542.14C322.343 542.14 328.873 535.287 324.029 532.31C322.989 531.699 321.761 531.492 320.578 531.726C318.072 532.153 312.497 532.389 309.665 526.794C309.041 525.444 308.697 523.981 308.654 522.494C308.612 521.007 308.871 519.527 309.418 518.144C310.463 515.301 311.407 511.145 309.013 509.167C305.169 505.999 299.347 513.897 299.347 513.897C299.347 513.897 295.166 517.863 291.221 518.099C289.608 518.177 288.035 518.633 286.63 519.429C285.225 520.225 284.026 521.339 283.129 522.682C280.746 526.3 279.971 531.524 287.524 537.388C287.524 537.388 293.132 541.118 298.235 557.295C303.337 573.484 313.003 592.919 323.714 585.179C324.114 584.78 324.419 584.296 324.605 583.763C324.792 583.23 324.856 582.662 324.793 582.101C324.628 581.584 324.335 581.116 323.943 580.741C323.55 580.367 323.069 580.096 322.545 579.955C322.03 579.791 321.488 579.726 320.949 579.764C320.39 579.815 319.836 579.92 319.297 580.078C318.087 580.303 316.845 580.28 315.644 580.011C313.279 579.36 311.165 578.014 309.575 576.146C308.015 574.337 306.718 572.318 305.72 570.147L305.698 570.113L305.686 570.08C304.203 566.092 302.663 562.104 301 558.183C300.168 556.228 299.302 554.284 298.37 552.386C297.514 550.498 296.415 548.73 295.099 547.128C293.705 545.427 292.517 543.568 291.559 541.59C290.576 539.665 289.691 537.693 288.906 535.68C288.112 533.675 287.466 531.613 286.973 529.513C286.38 527.428 286.253 525.237 286.602 523.098C286.482 525.227 286.791 527.359 287.512 529.367C288.177 531.385 288.942 533.368 289.805 535.31C290.671 537.242 291.626 539.141 292.683 540.983C293.687 542.806 294.869 544.526 296.212 546.117C296.526 546.465 296.953 546.982 297.302 547.409C297.605 547.87 297.942 548.33 298.235 548.802C298.808 549.735 299.325 550.69 299.819 551.656C300.797 553.588 301.685 555.554 302.539 557.531C304.203 561.497 305.754 565.496 307.147 569.563C308.052 571.601 309.208 573.518 310.587 575.27C311.943 577.024 313.795 578.331 315.903 579.022C316.96 579.312 318.065 579.385 319.151 579.236C319.738 579.107 320.337 579.039 320.938 579.034C321.558 579.04 322.172 579.162 322.747 579.393C323.334 579.6 323.859 579.951 324.274 580.414C324.689 580.878 324.979 581.439 325.119 582.044C325.146 582.64 325.034 583.234 324.79 583.779C324.546 584.323 324.177 584.803 323.714 585.179C323.714 585.179 328.142 584.437 326.535 573.518ZM302.18 538.59C300.28 539.32 296.178 536.995 296.706 532.86C297.324 528.052 296.212 525.199 298.111 524.457C300.011 523.716 302.472 526.277 303.596 530.176C304.709 534.085 304.079 537.849 302.18 538.59Z" fill="black"/>
<path d="M234.658 205.68C235.277 211.009 236.196 216.299 237.411 221.525C238.589 226.708 240.224 231.776 242.298 236.67C243.313 239.106 244.512 241.461 245.884 243.715C247.223 245.979 248.766 248.117 250.493 250.102C252.238 252.08 254.184 253.87 256.3 255.446C258.485 256.988 260.821 258.303 263.273 259.371C260.623 258.722 258.074 257.713 255.698 256.371C253.334 254.955 251.154 253.251 249.21 251.299C245.391 247.316 242.347 242.657 240.235 237.56C238.111 232.527 236.589 227.261 235.699 221.872C234.748 216.53 234.399 211.099 234.658 205.68Z" fill="#FDB914"/>
<path d="M228.383 241.732C230.09 246.598 232.116 251.345 234.448 255.944C235.635 258.215 236.858 260.46 238.231 262.608C239.562 264.774 241.035 266.849 242.641 268.819C245.755 272.807 249.54 276.223 253.827 278.912C256.004 280.207 258.313 281.269 260.713 282.079C263.166 282.859 265.687 283.403 268.243 283.703C265.623 283.862 262.995 283.674 260.425 283.144C257.835 282.562 255.329 281.654 252.969 280.441C250.622 279.185 248.417 277.681 246.391 275.955C244.396 274.207 242.556 272.291 240.891 270.226C237.626 266.091 234.928 261.538 232.868 256.688C230.761 251.907 229.255 246.883 228.383 241.732Z" fill="black"/>
<path d="M183.955 466.536C182.331 471.65 180.998 476.851 179.961 482.115C178.908 487.325 178.318 492.617 178.201 497.931C178.126 500.569 178.253 503.208 178.579 505.826C178.871 508.44 179.4 511.023 180.159 513.541C180.94 516.06 181.979 518.492 183.262 520.796C184.622 523.098 186.212 525.256 188.01 527.236C185.859 525.557 183.949 523.591 182.333 521.393C180.758 519.132 179.47 516.684 178.499 514.106C176.651 508.908 175.788 503.411 175.954 497.896C176.083 492.436 176.856 487.009 178.257 481.729C179.583 476.468 181.494 471.372 183.955 466.536Z" fill="black"/>
<path d="M163.433 496.84C162.992 501.977 162.891 507.138 163.13 512.288C163.28 514.846 163.473 517.395 163.845 519.917C164.169 522.438 164.66 524.934 165.317 527.389C166.518 532.304 168.568 536.971 171.374 541.181C172.828 543.256 174.497 545.171 176.354 546.894C178.27 548.611 180.346 550.141 182.553 551.463C180.1 550.534 177.78 549.284 175.654 547.747C173.531 546.154 171.618 544.298 169.963 542.224C168.339 540.116 166.945 537.84 165.807 535.435C164.705 533.023 163.814 530.52 163.142 527.955C161.863 522.844 161.271 517.586 161.383 512.319C161.425 507.094 162.114 501.895 163.433 496.84Z" fill="#FDB914"/>
<path d="M449.474 326.738C449.701 332.158 449.32 337.587 448.338 342.923C447.417 348.307 445.863 353.564 443.71 358.584C441.568 363.669 438.497 368.31 434.654 372.27C432.699 374.211 430.51 375.902 428.137 377.304C425.753 378.632 423.199 379.627 420.544 380.26C423.002 379.206 425.346 377.905 427.54 376.376C429.665 374.813 431.622 373.033 433.379 371.066C435.117 369.091 436.672 366.962 438.025 364.706C439.41 362.46 440.623 360.112 441.652 357.682C443.755 352.801 445.42 347.742 446.628 342.566C447.874 337.347 448.824 332.063 449.474 326.738Z" fill="black"/>
<path d="M455.537 362.826C454.635 367.972 453.099 372.987 450.965 377.756C448.877 382.593 446.152 387.13 442.862 391.246C441.185 393.301 439.334 395.206 437.328 396.943C435.293 398.657 433.079 400.148 430.725 401.39C428.357 402.589 425.846 403.482 423.253 404.049C420.68 404.564 418.05 404.737 415.432 404.562C417.99 404.277 420.514 403.748 422.971 402.982C425.376 402.186 427.691 401.138 429.876 399.856C434.178 397.192 437.984 393.799 441.12 389.828C442.738 387.868 444.224 385.802 445.566 383.643C446.953 381.504 448.189 379.266 449.389 377.002C451.748 372.417 453.802 367.681 455.537 362.826Z" fill="black"/>
<path d="M235.247 114.327C235.257 114.083 235.217 113.839 235.13 113.611C235.043 113.382 234.91 113.174 234.74 112.999L227.917 106.586C227.394 106.147 226.728 106.362 226.389 107.061C226.223 107.412 226.16 107.804 226.208 108.19C226.255 108.576 226.411 108.94 226.657 109.241L232.058 114.327L226.657 119.412C226.33 119.777 226.15 120.25 226.15 120.74C226.15 121.23 226.33 121.702 226.657 122.067L232.058 127.153L226.657 132.238C226.33 132.604 226.15 133.076 226.15 133.566C226.15 134.056 226.33 134.528 226.657 134.893L233.48 141.306C234.003 141.794 234.705 141.595 235.051 140.867C235.225 140.509 235.288 140.107 235.232 139.712C235.177 139.317 235.005 138.948 234.74 138.652L229.338 133.566L234.74 128.48C235.066 128.115 235.247 127.643 235.247 127.153C235.247 126.663 235.066 126.191 234.74 125.825L229.338 120.74L234.74 115.654C234.91 115.479 235.043 115.271 235.13 115.043C235.217 114.814 235.257 114.571 235.247 114.327L235.247 114.327Z" fill="black"/>
<path d="M194.592 392.199C194.574 392.663 194.718 393.119 194.999 393.488L199.341 398.427L194.999 403.365C194.792 403.675 194.663 404.031 194.624 404.402C194.584 404.773 194.634 405.148 194.771 405.495C195.041 406.186 195.592 406.394 196.012 405.943L201.496 399.716C201.762 399.338 201.904 398.888 201.904 398.427C201.904 397.965 201.762 397.515 201.496 397.138L197.155 392.199L201.496 387.261C201.762 386.884 201.904 386.434 201.904 385.972C201.904 385.511 201.762 385.061 201.496 384.683L197.155 379.745L201.496 374.807C201.703 374.496 201.832 374.141 201.872 373.77C201.912 373.399 201.861 373.024 201.725 372.677C201.454 371.986 200.904 371.777 200.484 372.229L194.999 378.456C194.734 378.833 194.592 379.284 194.592 379.745C194.592 380.206 194.734 380.656 194.999 381.034L199.341 385.972L194.999 390.91C194.715 391.278 194.57 391.735 194.592 392.199Z" fill="#FDB914"/>
<path d="M168.741 205.623C168.723 206.087 168.867 206.543 169.148 206.912L173.49 211.85L169.148 216.788C168.941 217.099 168.812 217.454 168.772 217.825C168.733 218.196 168.783 218.571 168.92 218.918C169.19 219.609 169.741 219.818 170.161 219.366L175.645 213.139C175.911 212.762 176.053 212.311 176.053 211.85C176.053 211.389 175.911 210.939 175.645 210.561L171.304 205.623L175.645 200.685C175.911 200.307 176.053 199.857 176.053 199.396C176.053 198.934 175.911 198.484 175.645 198.106L171.304 193.168L175.645 188.23C175.852 187.92 175.981 187.564 176.021 187.193C176.061 186.822 176.01 186.447 175.874 186.1C175.603 185.409 175.053 185.2 174.632 185.652L169.148 191.879C168.883 192.257 168.741 192.707 168.741 193.168C168.741 193.63 168.883 194.08 169.148 194.457L173.49 199.396L169.148 204.334C168.864 204.701 168.719 205.158 168.741 205.623Z" fill="#FDB914"/>
<path d="M480.811 451.244C480.794 451.733 480.967 452.209 481.295 452.572L486.449 457.657L481.295 462.743C481.052 463.048 480.898 463.414 480.85 463.801C480.802 464.188 480.862 464.581 481.023 464.936C481.345 465.648 481.998 465.863 482.497 465.398L489.008 458.985C489.321 458.613 489.492 458.143 489.492 457.657C489.492 457.172 489.321 456.702 489.008 456.33L483.854 451.244L489.008 446.159C489.321 445.787 489.492 445.317 489.492 444.831C489.492 444.346 489.321 443.875 489.008 443.504L483.854 438.418L489.008 433.333C489.251 433.027 489.405 432.661 489.453 432.274C489.501 431.887 489.441 431.494 489.28 431.139C488.958 430.427 488.305 430.213 487.806 430.677L481.295 437.091C480.982 437.462 480.811 437.932 480.811 438.418C480.811 438.904 480.982 439.374 481.295 439.746L486.449 444.831L481.295 449.917C481.131 450.095 481.004 450.305 480.921 450.532C480.838 450.76 480.8 451.002 480.811 451.244Z" fill="#FDB914"/>
<path d="M498.709 250.854L494.659 254.51C493.661 255.563 493.104 256.959 493.104 258.41C493.104 259.861 493.661 261.257 494.659 262.311L495.826 263.375C496.156 263.726 496.339 264.189 496.339 264.671C496.339 265.153 496.156 265.616 495.826 265.967L494.659 267.031C493.661 268.085 493.104 269.481 493.104 270.932C493.104 272.383 493.661 273.779 494.659 274.832L495.826 275.896C496.156 276.247 496.339 276.711 496.339 277.192C496.339 277.674 496.156 278.137 495.826 278.488L494.659 279.553C493.661 280.606 493.104 282.002 493.104 283.453C493.104 284.904 493.661 286.3 494.659 287.353L495.826 288.418C496.156 288.768 496.339 289.232 496.339 289.714C496.339 290.195 496.156 290.659 495.826 291.01L491.767 294.678C491.51 294.965 491.345 295.323 491.294 295.705C491.242 296.086 491.306 296.475 491.478 296.819C491.527 296.973 491.614 297.112 491.73 297.224C491.846 297.336 491.988 297.418 492.143 297.463C492.298 297.507 492.462 297.513 492.62 297.48C492.778 297.446 492.925 297.374 493.049 297.27L497.098 293.614C498.097 292.561 498.653 291.165 498.653 289.714C498.653 288.263 498.097 286.867 497.098 285.813L495.932 284.749C495.762 284.58 495.63 284.377 495.543 284.154C495.456 283.931 495.417 283.692 495.428 283.453C495.416 283.213 495.456 282.973 495.545 282.75C495.633 282.526 495.768 282.324 495.941 282.157L497.107 281.093C498.1 280.036 498.653 278.642 498.653 277.192C498.653 275.743 498.1 274.348 497.107 273.292L495.941 272.228C495.611 271.877 495.428 271.413 495.428 270.932C495.428 270.45 495.611 269.987 495.941 269.636L497.107 268.571C498.1 267.515 498.653 266.12 498.653 264.671C498.653 263.222 498.1 261.827 497.107 260.771L495.941 259.706C495.611 259.355 495.428 258.892 495.428 258.41C495.428 257.929 495.611 257.465 495.941 257.114L499.991 253.446C500.259 253.161 500.434 252.802 500.493 252.415C500.551 252.029 500.49 251.633 500.317 251.283C500.267 251.124 500.178 250.981 500.058 250.867C499.938 250.752 499.791 250.669 499.631 250.627C499.47 250.584 499.302 250.582 499.141 250.622C498.979 250.662 498.831 250.741 498.709 250.854V250.854Z" fill="#FDB914"/>
<path d="M450.983 113.205L446.705 109.447C446.358 109.092 446.164 108.616 446.164 108.12C446.164 107.623 446.358 107.147 446.705 106.792L447.935 105.702C448.985 104.637 449.574 103.202 449.574 101.706C449.574 100.211 448.985 98.776 447.935 97.7111L446.705 96.621C446.358 96.2662 446.164 95.7897 446.164 95.2935C446.164 94.7973 446.358 94.3208 446.705 93.966L447.935 92.8757C448.985 91.8109 449.574 90.3757 449.574 88.8804C449.574 87.3851 448.985 85.9499 447.935 84.8851L446.705 83.7949C446.358 83.4401 446.164 82.9635 446.164 82.4673C446.164 81.9711 446.358 81.4946 446.705 81.1397L447.935 80.0496C448.985 78.9848 449.574 77.5496 449.574 76.0543C449.574 74.559 448.985 73.1238 447.935 72.0589L443.666 68.3137C443.536 68.2069 443.381 68.1331 443.216 68.0985C443.051 68.0638 442.881 68.0694 442.718 68.1147C442.556 68.1599 442.407 68.2436 442.283 68.3586C442.16 68.4736 442.066 68.6165 442.01 68.7754C441.83 69.1281 441.762 69.5277 441.817 69.92C441.871 70.3124 442.045 70.6784 442.315 70.9686L446.593 74.7268C446.94 75.0815 447.135 75.558 447.135 76.0543C447.135 76.5505 446.94 77.027 446.593 77.3818L445.364 78.4719C444.314 79.5367 443.725 80.972 443.725 82.4673C443.725 83.9626 444.314 85.3979 445.364 86.4627L446.593 87.5529C446.94 87.9077 447.135 88.3842 447.135 88.8804C447.135 89.3766 446.94 89.8531 446.593 90.2079L445.364 91.2982C444.314 92.363 443.725 93.7982 443.725 95.2935C443.725 96.7888 444.314 98.2241 445.364 99.2889L446.593 100.379C446.94 100.734 447.135 101.21 447.135 101.707C447.135 102.203 446.94 102.679 446.593 103.034L445.364 104.124C444.314 105.189 443.725 106.624 443.725 108.12C443.725 109.615 444.314 111.05 445.364 112.115L449.632 115.86C449.762 115.973 449.917 116.053 450.084 116.092C450.251 116.131 450.425 116.129 450.591 116.086C450.757 116.042 450.91 115.959 451.037 115.843C451.163 115.728 451.26 115.583 451.318 115.421C451.503 115.064 451.571 114.657 451.511 114.259C451.451 113.861 451.266 113.492 450.983 113.205H450.983Z" fill="black"/>
<path d="M370.828 90.4083C370.915 91.6931 370.613 92.9742 369.961 94.0851C369.31 95.1961 368.339 96.0855 367.176 96.6377C366.012 97.1899 364.709 97.3795 363.436 97.1816C362.163 96.9838 360.979 96.4078 360.038 95.5285C359.097 94.6492 358.442 93.5072 358.159 92.251C357.876 90.9949 357.977 89.6826 358.45 88.4848C358.923 87.2871 359.745 86.2592 360.81 85.5348C361.875 84.8104 363.134 84.423 364.422 84.423C366.065 84.3709 367.661 84.9715 368.862 86.0933C370.062 87.2151 370.769 88.7667 370.828 90.4083Z" fill="#FDB914"/>
<path d="M445.337 494.422C445.424 495.711 445.121 496.996 444.468 498.11C443.814 499.225 442.841 500.117 441.673 500.671C440.506 501.225 439.198 501.415 437.921 501.217C436.644 501.018 435.457 500.44 434.513 499.558C433.569 498.676 432.912 497.531 432.628 496.27C432.344 495.01 432.445 493.694 432.92 492.492C433.394 491.291 434.219 490.259 435.288 489.533C436.356 488.806 437.619 488.417 438.911 488.417C440.559 488.365 442.16 488.968 443.364 490.093C444.569 491.218 445.278 492.775 445.337 494.422Z" fill="black"/>
<path d="M518.272 189.698C518.342 190.731 518.099 191.76 517.576 192.653C517.053 193.546 516.273 194.26 515.337 194.704C514.402 195.148 513.355 195.3 512.332 195.141C511.309 194.982 510.358 194.519 509.601 193.813C508.845 193.106 508.319 192.189 508.092 191.179C507.864 190.17 507.945 189.115 508.325 188.152C508.705 187.19 509.366 186.364 510.222 185.782C511.078 185.2 512.089 184.888 513.125 184.888C514.445 184.846 515.728 185.328 516.693 186.23C517.658 187.132 518.226 188.379 518.272 189.698Z" fill="#FDB914"/>
<path d="M284.859 404.206C284.929 405.238 284.687 406.268 284.163 407.161C283.64 408.053 282.86 408.768 281.925 409.212C280.989 409.656 279.942 409.808 278.919 409.649C277.896 409.49 276.945 409.027 276.189 408.321C275.432 407.614 274.906 406.696 274.679 405.687C274.451 404.677 274.533 403.623 274.913 402.66C275.293 401.698 275.954 400.872 276.809 400.29C277.665 399.707 278.677 399.396 279.712 399.396C281.032 399.354 282.315 399.836 283.28 400.738C284.245 401.639 284.813 402.886 284.859 404.206Z" fill="black"/>
<path d="M340.377 185.039C344.716 185.039 344.723 178.298 340.377 178.298C336.038 178.298 336.03 185.039 340.377 185.039Z" fill="#FDB914"/>
<path d="M218.936 300.881C223.275 300.881 223.283 294.14 218.936 294.14C214.597 294.14 214.59 300.881 218.936 300.881Z" fill="black"/>
<path d="M480.811 387.064C485.15 387.064 485.157 380.324 480.811 380.324C476.471 380.324 476.464 387.064 480.811 387.064Z" fill="black"/>
<path d="M427.621 277.437C431.96 277.437 431.967 270.696 427.621 270.696C423.282 270.696 423.275 277.437 427.621 277.437Z" fill="black"/>
</svg>
