<svg width="847" height="787" viewBox="0 0 847 787" fill="none" xmlns="http://www.w3.org/2000/svg">
<path d="M436.861 374.872L474.089 390.468C472.161 390.998 470.261 391.599 468.347 392.157L462.676 393.989C458.889 395.205 455.132 396.536 451.389 397.866C447.647 399.226 443.904 400.585 440.204 402.059C436.561 403.49 432.904 404.949 429.318 406.538C427.318 393.688 424.318 379.966 420.39 376.775L436.861 374.872Z" fill="#2B2B2B"/>
<path d="M474.09 390.468V416.969C467.204 420.174 451.775 425.239 432.304 431.049C432.304 431.049 431.29 419.23 429.318 406.566C433.104 405.507 436.861 404.319 440.575 403.089C444.361 401.873 448.119 400.542 451.861 399.211C455.604 397.852 459.347 396.492 463.047 395.019L468.589 392.815C470.418 392.028 472.275 391.298 474.09 390.468Z" fill="#2B2B2B"/>
<path d="M206.932 404.477C208.346 404.048 209.732 403.576 211.103 403.018L209.203 410.573C207.355 408.748 205.394 407.042 203.332 405.464C204.532 405.164 205.746 404.849 206.932 404.477Z" fill="#2B2B2B"/>
<path d="M333.375 433.41C313.504 430.205 259.147 412.49 249.361 405.035C242.161 399.54 233.918 390.54 232.847 369.076C231.276 378.849 229.662 388.623 228.004 398.396L227.947 398.739C229.163 398.052 230.471 397.546 231.832 397.237C233.362 396.846 234.947 396.72 236.519 396.865C235.179 397.699 233.704 398.295 232.161 398.625C230.771 398.975 229.335 399.11 227.904 399.025L224.004 421.705C227.561 424.123 231.09 426.556 234.575 429.06L240.061 432.981L245.504 436.973C249.133 439.635 252.775 442.267 256.347 445.015C259.918 447.748 263.532 450.409 267.075 453.2L267.09 453.214C267.168 453.286 267.223 453.381 267.247 453.486C269.989 452.699 272.762 451.969 275.518 451.211L284.332 448.95C290.218 447.462 296.118 446.088 302.004 444.657C307.932 443.326 313.833 441.938 319.761 440.679C325.69 439.406 331.618 438.161 337.59 437.073C331.761 438.733 325.875 440.25 320.004 441.738C314.133 443.24 308.218 444.6 302.333 446.045C296.418 447.361 290.518 448.749 284.59 450.023L275.69 451.897C272.875 452.441 270.075 453.014 267.261 453.529C267.261 453.543 267.29 453.557 267.29 453.572C267.804 459.338 268.289 465.105 268.633 470.886C267.732 465.248 266.975 459.596 266.247 453.929C262.632 451.368 259.104 448.706 255.533 446.102C251.889 443.469 248.318 440.722 244.733 438.018L239.347 433.939L234.032 429.79C230.647 427.171 227.304 424.481 223.99 421.762L222.847 428.43C222.818 428.592 222.727 428.735 222.593 428.829C222.459 428.922 222.293 428.959 222.132 428.931C222.097 428.928 222.064 428.919 222.033 428.903L206.547 423.508C206.391 423.449 206.262 423.335 206.183 423.188C206.104 423.041 206.081 422.87 206.118 422.707L209.147 410.773C206.501 409.324 203.961 407.689 201.547 405.879C199.647 407.253 197.775 408.641 195.861 410C193.776 411.446 191.718 412.934 189.604 414.365C191.547 412.719 193.518 411.116 195.49 409.5C197.319 407.997 199.175 406.538 201.032 405.064C201.046 404.958 201.08 404.856 201.133 404.763C200.033 400.528 199.061 396.264 198.047 392C196.975 387.592 195.99 383.157 195.033 378.721C194.032 374.285 193.075 369.849 192.189 365.385C191.261 360.935 190.404 356.484 189.604 352.006C190.833 356.384 192.004 360.777 193.089 365.184C194.233 369.577 195.289 373.999 196.318 378.42C197.375 382.842 198.404 387.263 199.347 391.699C200.275 395.906 201.218 400.113 202.075 404.334C203.604 403.976 205.132 403.647 206.675 403.375C208.161 403.118 209.647 402.917 211.161 402.789L212.833 396.221L219.632 369.735L219.647 369.692V369.677C220.5 367.363 221.174 364.985 221.661 362.566C222.219 360.212 222.204 357.758 221.618 355.411C221.26 354.296 220.608 353.298 219.733 352.521C219.272 352.134 218.786 351.78 218.276 351.462L217.475 350.933L217.061 350.589C217.004 350.575 216.961 350.532 216.804 350.475C214.407 349.928 211.971 349.569 209.518 349.401C199.575 348.5 189.59 347.971 179.618 347.427C184.604 347.498 189.604 347.641 194.604 347.827C199.604 348.013 204.59 348.214 209.59 348.6C210.833 348.7 212.09 348.815 213.333 348.958C214.617 349.058 215.889 349.278 217.132 349.616C217.339 349.682 217.533 349.784 217.704 349.917L218.018 350.174L218.79 350.661C219.346 350.992 219.876 351.365 220.375 351.777C221.4 352.654 222.169 353.79 222.604 355.068C223.287 357.58 223.361 360.22 222.818 362.766C222.355 365.25 221.686 367.691 220.818 370.064L214.161 396.55L207.561 422.449L221.761 427.486L227.204 398.253C229.047 388.494 230.928 378.74 232.847 368.991C232.53 359.599 233.19 350.199 234.819 340.945L208.661 338.198C206.026 337.955 203.53 336.901 201.518 335.178C199.378 334.865 197.255 334.435 195.161 333.89C194.618 333.762 194.076 333.619 193.532 333.447C193.261 333.361 192.99 333.275 192.704 333.175C192.672 333.161 192.639 333.151 192.604 333.146H192.561C192.464 333.157 192.369 333.176 192.275 333.204C191.267 333.52 190.291 333.932 189.361 334.434C187.39 335.393 185.447 336.452 183.476 337.453C181.519 338.498 179.518 339.485 177.49 340.43C180.973 337.616 184.741 335.174 188.733 333.146C189.774 332.617 190.865 332.19 191.99 331.873C192.173 331.837 192.36 331.817 192.547 331.816C192.772 331.828 192.994 331.877 193.204 331.959C193.433 332.073 193.69 332.159 193.933 332.259L195.49 332.832C197.476 333.533 199.462 334.277 201.433 335.092C199.361 333.118 197.875 329.927 198.747 324.718L200.075 289.389L194.718 288.287C194.718 288.287 190.776 289.174 198.561 266.652L211.004 230.808C211.004 230.808 162.132 236.846 160.361 238.62C158.59 240.395 170.633 359.961 187.29 417.083C187.29 417.083 263.089 471.372 267.69 473.146C269.932 473.991 311.947 463.903 357.847 451.783C357.847 451.783 353.232 436.615 333.375 433.41ZM173.175 265.464C172.018 258.424 170.904 251.384 169.932 244.315C171.475 251.284 172.875 258.281 174.247 265.278C175.619 272.275 176.876 279.301 178.19 286.312C179.39 293.338 180.661 300.364 181.804 307.404L183.504 317.964C184.018 321.499 184.575 325.019 185.047 328.553C184.261 325.076 183.561 321.584 182.804 318.093L180.718 307.59C179.347 300.593 178.104 293.567 176.79 286.556C175.589 279.53 174.318 272.519 173.175 265.464Z" fill="#2B2B2B"/>
<path d="M305.246 182.557C302.646 182.557 299.331 183.974 296.031 184.689C292.731 185.405 285.175 183.974 284.46 181.856C283.746 179.724 279.289 162.153 278.56 162.983C277.846 163.812 276.432 165.286 276.432 165.286C276.432 165.286 276.189 186.693 276.66 188.996C277.146 191.315 285.874 202.905 298.86 201.717C311.846 200.53 313.746 185.162 313.746 185.162C313.746 185.162 307.832 182.557 305.246 182.557ZM307.389 188.911C306.435 189.499 305.32 189.77 304.203 189.683C303.118 189.6 302.067 189.267 301.132 188.71C300.222 188.182 299.445 187.453 298.86 186.578C300.556 187.458 302.394 188.029 304.289 188.267C305.176 188.333 306.067 188.211 306.903 187.909C307.809 187.557 308.676 187.111 309.489 186.578C309.034 187.546 308.303 188.358 307.389 188.911Z" fill="#2B2B2B"/>
<path d="M276.431 165.293C276.431 165.293 288.238 154.176 287.293 140.457C287.293 140.457 290.363 137.619 295.322 142.349C295.322 142.349 299.573 143.532 304.532 138.328C309.491 133.124 312.089 140.693 312.089 140.693C312.089 140.693 314.686 148.736 315.395 146.607C316.103 144.478 317.284 134.307 306.657 130.996C298.394 128.53 289.756 127.569 281.154 128.157C278.32 128.63 272.416 133.361 272.416 139.984C272.416 146.607 269.583 154.885 269.819 157.487C270.055 160.089 276.431 165.293 276.431 165.293Z" fill="#2B2B2B"/>
<path d="M287.058 162.454C289.348 161.578 291.807 161.233 294.249 161.445C295.478 161.551 296.688 161.815 297.849 162.231C299.003 162.657 300.069 163.294 300.99 164.11C299.901 163.638 298.775 163.256 297.624 162.967C296.485 162.705 295.33 162.525 294.166 162.427C291.799 162.265 289.423 162.274 287.058 162.454Z" fill="#2B2B2B"/>
<path d="M307.13 162.984C308.077 161.945 309.243 161.13 310.544 160.598C311.834 159.987 313.287 159.808 314.687 160.089C313.409 160.497 312.153 160.97 310.924 161.506C309.693 162.013 308.48 162.564 307.13 162.984Z" fill="#2B2B2B"/>
<path d="M296.031 167.481C296.414 167.467 296.777 167.306 297.043 167.03C297.309 166.754 297.457 166.386 297.457 166.002C297.457 165.619 297.309 165.25 297.043 164.974C296.777 164.699 296.414 164.537 296.031 164.524C295.649 164.537 295.286 164.699 295.02 164.974C294.754 165.25 294.605 165.619 294.605 166.002C294.605 166.386 294.754 166.754 295.02 167.03C295.286 167.306 295.649 167.467 296.031 167.481Z" fill="#2B2B2B"/>
<path d="M311.145 166.534C311.527 166.521 311.89 166.36 312.156 166.084C312.422 165.808 312.57 165.439 312.57 165.056C312.57 164.672 312.422 164.304 312.156 164.028C311.89 163.752 311.527 163.591 311.145 163.578C310.762 163.591 310.399 163.752 310.133 164.028C309.867 164.304 309.719 164.672 309.719 165.056C309.719 165.439 309.867 165.808 310.133 166.084C310.399 166.36 310.762 166.521 311.145 166.534Z" fill="#2B2B2B"/>
<path d="M269.818 157.487C269.302 157.702 268.841 158.03 268.468 158.448C268.096 158.866 267.822 159.362 267.666 159.9C267.368 160.962 267.37 162.087 267.672 163.149C268.359 165.321 269.17 167.452 270.099 169.531C270.93 171.705 271.585 173.943 272.059 176.222C272.25 177.292 272.778 178.272 273.566 179.02C273.987 179.387 274.481 179.66 275.016 179.822C275.55 179.983 276.113 180.03 276.667 179.958C276.093 180.126 275.49 180.162 274.901 180.065C274.312 179.967 273.752 179.739 273.263 179.396C272.299 178.625 271.615 177.559 271.315 176.362C270.738 174.158 270.025 171.993 269.179 169.878C268.786 168.803 268.384 167.73 267.955 166.666C267.484 165.585 267.14 164.452 266.932 163.29C266.693 162.101 266.792 160.868 267.217 159.732C267.443 159.179 267.796 158.687 268.249 158.297C268.701 157.907 269.239 157.629 269.818 157.487Z" fill="#2B2B2B"/>
<path d="M308.311 173.571C308.875 175.068 308.858 176.722 308.262 178.206C307.935 179 307.326 179.645 306.552 180.017C305.791 180.322 304.944 180.329 304.179 180.037C304.889 179.946 305.572 179.709 306.186 179.341C306.711 178.947 307.118 178.417 307.363 177.808C307.855 176.441 308.174 175.018 308.311 173.571Z" fill="#2B2B2B"/>
<path d="M315.395 146.606C315.195 149.854 315.188 153.111 315.376 156.36C315.474 157.971 315.659 159.576 315.931 161.167C316.218 162.727 316.672 164.326 316.945 165.957C317.5 169.231 317.464 172.579 316.84 175.841C316.161 179.054 315.122 182.181 313.742 185.161C314.759 182.074 315.545 178.916 316.094 175.712C316.589 172.53 316.549 169.288 315.976 166.119C315.739 164.525 315.325 162.97 315.05 161.318C314.782 159.689 314.639 158.043 314.623 156.392C314.561 153.113 314.82 149.835 315.395 146.606Z" fill="#2B2B2B"/>
<path d="M276.667 188.999C276.471 190.891 275.767 192.695 274.629 194.218C274.05 194.992 273.339 195.659 272.529 196.187C271.71 196.695 270.768 196.971 269.805 196.988C270.623 196.617 271.387 196.138 272.078 195.564C272.729 194.978 273.32 194.328 273.844 193.626C274.377 192.912 274.869 192.167 275.315 191.396C275.764 190.615 276.226 189.826 276.667 188.999Z" fill="#2B2B2B"/>
<path d="M275.741 191.526C268.564 192.986 261.542 195.122 254.766 197.906C251.254 199.183 247.582 199.965 243.854 200.229C240.232 200.441 236.625 200.856 233.05 201.473C232.243 201.649 231.469 201.95 230.756 202.367C229.936 202.875 229.072 203.308 228.174 203.66C226.541 204.268 225.036 205.178 223.739 206.342C221.262 208.923 219.225 211.895 217.712 215.138C216.853 216.738 216.168 218.434 215.414 220.095C214.733 221.789 214.047 223.486 213.408 225.201C212.804 226.93 212.164 228.648 211.589 230.389L209.95 235.643L209.946 235.656L209.939 235.676C206.524 244.235 203.42 252.913 200.628 261.71C199.245 266.105 197.939 270.525 196.823 274.979C196.273 277.207 195.754 279.442 195.365 281.68C195.168 282.785 195.032 283.9 194.959 285.019C194.927 285.55 194.935 286.082 194.984 286.611C194.995 286.982 195.106 287.342 195.306 287.655L194.9 287.447C203.014 289.044 211.134 290.637 219.265 292.141L231.452 294.418L237.55 295.449C239.53 295.794 241.525 296.039 243.529 296.183L244.122 296.189C244.123 296.157 244.107 296.193 244.143 296.17C244.184 296.129 244.229 296.094 244.278 296.064C244.549 295.749 244.775 295.398 244.949 295.02C245.365 294.133 245.708 293.214 245.977 292.271C246.525 290.309 246.964 288.318 247.291 286.307C247.979 282.262 248.345 278.151 248.63 274.038C248.888 269.922 248.972 265.795 248.882 261.659C248.822 257.526 248.577 253.392 248.114 249.276C248.112 249.25 248.119 249.225 248.135 249.205C248.151 249.185 248.173 249.172 248.198 249.169C248.223 249.165 248.249 249.171 248.27 249.186C248.29 249.201 248.304 249.223 248.309 249.248C249.001 253.339 249.479 257.472 249.77 261.621C250.024 265.772 250.1 269.931 249.996 274.1C249.894 278.273 249.552 282.438 248.972 286.572C248.682 288.66 248.276 290.73 247.755 292.773C247.481 293.831 247.12 294.864 246.677 295.863C246.426 296.432 246.091 296.96 245.684 297.429C245.539 297.563 245.38 297.695 245.221 297.818C245.008 297.947 244.778 298.048 244.539 298.117C244.204 298.15 243.903 298.149 243.582 298.159C241.458 298.034 239.342 297.792 237.244 297.434L231.099 296.427C227.017 295.703 222.938 294.979 218.875 294.176C210.752 292.552 202.644 290.871 194.55 289.133L194.482 289.118C194.352 289.09 194.234 289.022 194.143 288.924C193.622 288.33 193.328 287.57 193.312 286.779C193.268 286.158 193.271 285.535 193.322 284.915C193.426 283.734 193.596 282.561 193.831 281.399C194.28 279.1 194.861 276.851 195.505 274.625C196.79 270.171 198.257 265.788 199.768 261.424C201.305 257.069 202.852 252.721 204.444 248.389L209.264 235.41L209.253 235.443C211.093 228.287 213.483 221.286 216.403 214.5C217.868 211.01 219.966 207.821 222.588 205.094C224.017 203.782 225.676 202.746 227.482 202.04C228.29 201.714 229.073 201.329 229.825 200.887C230.702 200.381 231.654 200.018 232.645 199.812C236.308 199.223 240.003 198.847 243.71 198.685C245.523 198.525 247.329 198.331 249.102 198.006C250.879 197.732 252.627 197.298 254.326 196.709C261.224 194.098 268.399 192.294 275.71 191.332C275.736 191.328 275.762 191.335 275.783 191.35C275.804 191.366 275.817 191.389 275.821 191.415C275.824 191.44 275.817 191.466 275.802 191.486C275.787 191.507 275.766 191.521 275.741 191.526Z" fill="#2B2B2B"/>
<path d="M298.908 212.031C298.747 212.892 298.706 213.771 298.787 214.643C298.839 215.526 298.896 216.407 298.98 217.288L299.519 222.568C299.907 226.086 300.368 229.597 300.798 233.111L301.481 238.377C301.912 240.229 301.629 242.176 300.689 243.828C300.38 244.221 299.997 244.548 299.561 244.792C299.125 245.036 298.645 245.192 298.149 245.25C297.653 245.308 297.151 245.267 296.67 245.13C296.19 244.993 295.742 244.762 295.35 244.451C294.959 244.144 294.634 243.76 294.396 243.322C294.158 242.884 294.012 242.402 293.968 241.906L293.683 239.267C293.287 235.749 292.867 232.234 292.331 228.737C292.076 226.991 291.728 225.26 291.29 223.551C291.182 223.134 291.034 222.729 290.848 222.342C290.811 222.256 290.755 222.18 290.683 222.119C290.612 222.058 290.527 222.015 290.436 221.993L289.829 221.73C289.019 221.379 288.198 221.05 287.374 220.731C284.082 219.446 280.765 218.217 277.418 217.091C275.758 216.565 274.034 215.813 272.439 216.339C271.698 216.696 271.082 217.27 270.674 217.985C270.266 218.7 270.084 219.522 270.153 220.343C270.152 220.436 270.113 220.525 270.047 220.589C269.98 220.654 269.89 220.689 269.798 220.688C269.737 220.687 269.678 220.669 269.625 220.638C269.573 220.607 269.529 220.564 269.499 220.511C268.572 218.896 267.528 217.35 266.378 215.886C265.265 214.417 263.963 213.103 262.506 211.976C261.793 211.439 260.997 211.024 260.149 210.746C259.218 210.452 258.323 210.054 257.481 209.561C255.762 208.577 254.31 207.187 253.25 205.513C253.235 205.49 253.224 205.465 253.216 205.439L253.207 205.408C252.942 204.423 253.071 203.374 253.565 202.482C254.021 201.659 254.619 200.923 255.33 200.308C256.696 199.138 258.202 198.141 259.812 197.341C262.969 195.738 266.275 194.446 269.682 193.483C269.768 193.458 269.86 193.46 269.946 193.489C270.031 193.517 270.106 193.571 270.161 193.643C270.215 193.715 270.247 193.801 270.251 193.891C270.255 193.982 270.232 194.071 270.184 194.148L270.172 194.169C269.626 195.09 269.273 196.113 269.133 197.176C269.053 197.717 269.009 198.262 269.001 198.809C269.049 199.355 269.045 199.908 269.142 200.451C269.509 202.654 270.333 204.756 271.559 206.622C272.159 207.572 272.807 208.489 273.503 209.371C274.263 210.201 274.977 211.077 275.77 211.88C276.59 212.655 277.368 213.48 278.225 214.219L280.83 216.403C280.835 216.407 280.839 216.412 280.843 216.417C280.846 216.423 280.848 216.429 280.849 216.435C280.85 216.442 280.85 216.448 280.848 216.455C280.847 216.461 280.844 216.467 280.84 216.472C280.832 216.482 280.82 216.489 280.807 216.491C280.795 216.493 280.781 216.489 280.771 216.482L278.066 214.408C277.173 213.703 276.355 212.908 275.493 212.161C274.651 211.393 273.914 210.514 273.122 209.69C272.391 208.807 271.707 207.886 271.073 206.931C269.754 205.018 268.85 202.851 268.417 200.567C268.301 199.995 268.289 199.404 268.228 198.822C268.221 198.234 268.255 197.645 268.328 197.061C268.457 195.861 268.836 194.702 269.439 193.658L269.929 194.343C266.61 195.37 263.383 196.673 260.28 198.238C258.75 199.004 257.32 199.956 256.023 201.073C255.377 201.516 254.866 202.129 254.544 202.843C254.222 203.558 254.102 204.347 254.197 205.125L254.155 205.021C255.114 206.543 256.424 207.812 257.975 208.723C258.752 209.188 259.578 209.565 260.438 209.847C261.378 210.165 262.259 210.635 263.046 211.238C264.564 212.423 265.905 213.819 267.028 215.383C268.171 216.905 269.201 218.508 270.111 220.18L269.458 220.348C269.482 219.405 269.716 218.48 270.141 217.639C270.351 217.204 270.647 216.815 271.011 216.497C271.375 216.18 271.8 215.939 272.259 215.79C274.169 215.237 275.941 216.104 277.575 216.633C280.915 217.816 284.215 219.098 287.492 220.436L289.949 221.443L290.563 221.701C290.685 221.739 290.798 221.801 290.896 221.883C290.994 221.966 291.074 222.067 291.131 222.181C291.335 222.589 291.498 223.016 291.617 223.456C292.109 225.175 292.415 226.924 292.743 228.667C293.385 232.157 293.909 235.665 294.403 239.176L294.764 241.811C294.802 242.199 294.919 242.575 295.107 242.916C295.296 243.257 295.552 243.556 295.861 243.794C296.473 244.275 297.249 244.493 298.021 244.402C298.793 244.31 299.498 243.917 299.981 243.306C300.409 242.616 300.67 241.835 300.744 241.026C300.832 240.178 300.801 239.322 300.654 238.483L300.029 233.203C299.612 229.683 299.28 226.153 298.982 222.62C298.829 220.854 298.706 219.084 298.637 217.31C298.594 216.424 298.577 215.536 298.565 214.649C298.522 213.753 298.609 212.855 298.822 211.984C298.826 211.972 298.835 211.962 298.846 211.956C298.857 211.951 298.87 211.949 298.882 211.953C298.894 211.957 298.904 211.965 298.91 211.976C298.916 211.988 298.917 212.001 298.914 212.013L298.908 212.031Z" fill="#2B2B2B"/>
<path d="M303.335 200.616C304.027 201.596 304.638 202.633 305.161 203.714C305.423 204.257 305.612 204.836 305.842 205.4C306.03 205.985 306.168 206.584 306.256 207.192C306.474 208.437 306.371 209.718 305.958 210.913C305.493 212.137 304.609 213.156 303.465 213.788C303.42 213.812 303.371 213.827 303.321 213.832C303.27 213.837 303.219 213.832 303.171 213.818C303.122 213.803 303.077 213.779 303.038 213.747C302.999 213.715 302.966 213.675 302.942 213.631C302.919 213.588 302.904 213.54 302.899 213.491L302.897 213.478C302.738 211.761 302.373 210.069 301.81 208.44C301.528 207.635 301.084 206.897 300.504 206.273C300.221 205.99 299.857 205.803 299.462 205.738C299.269 205.762 299.083 205.825 298.914 205.922C298.746 206.02 298.598 206.15 298.481 206.305C297.503 207.718 296.795 209.301 296.394 210.973C295.896 212.63 295.478 214.324 295.115 216.008L295.122 215.847L295.567 218.919C295.586 219.051 295.553 219.185 295.475 219.294C295.397 219.402 295.28 219.476 295.149 219.499C295.018 219.523 294.883 219.494 294.772 219.42C294.662 219.345 294.584 219.231 294.556 219.1L294.554 219.089C294.283 217.643 294.126 216.178 294.084 214.707C294.006 213.249 294.042 211.794 294.109 210.344C294.232 207.447 294.532 204.56 295.009 201.7C295.011 201.687 295.018 201.676 295.029 201.668C295.039 201.66 295.052 201.657 295.065 201.659C295.077 201.662 295.088 201.668 295.095 201.677C295.103 201.687 295.107 201.699 295.107 201.711C295.012 204.601 294.965 207.484 294.966 210.36C294.927 213.212 295.126 216.063 295.561 218.882L294.548 219.052L294.191 215.968L294.189 215.952C294.184 215.904 294.187 215.854 294.198 215.807C294.607 214.092 295.118 212.402 295.727 210.748C296.285 209.055 297.129 207.47 298.221 206.062C298.374 205.874 298.563 205.72 298.778 205.609C298.993 205.497 299.228 205.431 299.469 205.414C299.939 205.49 300.373 205.714 300.708 206.053C301.343 206.69 301.839 207.452 302.166 208.291C302.871 209.92 303.382 211.627 303.689 213.376L303.122 213.066C304.044 212.484 304.753 211.618 305.144 210.599C305.543 209.543 305.666 208.403 305.501 207.286C305.472 206.715 305.293 206.157 305.208 205.584C305.029 205.031 304.892 204.461 304.678 203.915C304.443 203.378 304.261 202.814 304.012 202.278L303.251 200.667C303.248 200.661 303.246 200.655 303.245 200.648C303.245 200.642 303.245 200.635 303.247 200.629C303.249 200.623 303.252 200.617 303.256 200.612C303.26 200.607 303.266 200.603 303.271 200.6C303.282 200.595 303.294 200.593 303.306 200.596C303.318 200.599 303.328 200.606 303.335 200.616Z" fill="#2B2B2B"/>
<path d="M296.208 224.13C296.59 224.117 296.953 223.955 297.219 223.679C297.485 223.404 297.634 223.035 297.634 222.652C297.634 222.268 297.485 221.9 297.219 221.624C296.953 221.348 296.59 221.187 296.208 221.173C295.825 221.187 295.463 221.348 295.197 221.624C294.931 221.9 294.782 222.268 294.782 222.652C294.782 223.035 294.931 223.404 295.197 223.679C295.463 223.955 295.825 224.117 296.208 224.13Z" fill="#FDB914"/>
<path d="M297.271 232.291C297.654 232.277 298.016 232.116 298.282 231.84C298.548 231.564 298.697 231.196 298.697 230.812C298.697 230.429 298.548 230.06 298.282 229.785C298.016 229.509 297.654 229.347 297.271 229.334C296.889 229.347 296.526 229.509 296.26 229.785C295.994 230.06 295.846 230.429 295.846 230.812C295.846 231.196 295.994 231.564 296.26 231.84C296.526 232.116 296.889 232.277 297.271 232.291Z" fill="#FDB914"/>
<path d="M298.157 240.096C298.54 240.083 298.902 239.921 299.168 239.645C299.434 239.369 299.583 239.001 299.583 238.617C299.583 238.234 299.434 237.866 299.168 237.59C298.902 237.314 298.54 237.152 298.157 237.139C297.775 237.152 297.412 237.314 297.146 237.59C296.88 237.866 296.731 238.234 296.731 238.617C296.731 239.001 296.88 239.369 297.146 239.645C297.412 239.921 297.775 240.083 298.157 240.096Z" fill="#FDB914"/>
<path d="M307.568 197.842C313.469 197.989 319.361 198.381 325.238 198.986C328.179 199.271 331.107 199.684 334.028 200.182C336.999 200.597 339.905 201.389 342.677 202.54C343.04 202.721 343.38 202.944 343.691 203.204C343.977 203.464 344.248 203.74 344.502 204.031C344.99 204.559 345.521 205.065 346.048 205.586C347.14 206.622 348.125 207.766 348.988 208.999C350.64 211.508 351.867 214.274 352.619 217.183C354.101 222.924 355.02 228.795 355.363 234.715C354.648 228.863 353.488 223.075 351.894 217.401C351.088 214.601 349.861 211.942 348.254 209.513C347.411 208.335 346.452 207.245 345.392 206.26C344.865 205.75 344.321 205.243 343.802 204.693C343.372 204.157 342.833 203.721 342.221 203.412C339.546 202.283 336.74 201.494 333.87 201.063C330.983 200.527 328.066 200.137 325.15 199.736C319.31 198.976 313.442 198.394 307.568 197.842Z" fill="#2B2B2B"/>
<path d="M226.604 210.345C229.324 209.769 232.157 210.097 234.673 211.279C237.196 212.492 239.351 214.357 240.916 216.68C241.698 217.823 242.38 219.032 242.952 220.293C243.495 221.557 243.969 222.849 244.374 224.163C244.67 225.503 245.036 226.825 245.27 228.169C245.424 229.528 245.61 230.878 245.732 232.231C245.389 230.909 245.11 229.584 244.798 228.269C244.471 226.959 244.029 225.681 243.653 224.392C243.15 223.149 242.705 221.881 242.141 220.673C241.564 219.475 240.885 218.329 240.112 217.247C238.663 215.026 236.679 213.207 234.342 211.957C231.964 210.706 229.284 210.148 226.604 210.345Z" fill="#2B2B2B"/>
<path d="M261.554 272.678C262.232 274.487 262.947 276.277 263.778 278.014C264.564 279.771 265.427 281.49 266.341 283.178C268.151 286.56 270.219 289.796 272.527 292.857C274.803 295.937 277.391 298.772 280.25 301.317L282.434 303.183C283.182 303.78 283.99 304.298 284.763 304.864L285.929 305.713C286.332 305.972 286.754 306.201 287.167 306.447L289.655 307.921C286.085 306.397 282.752 304.367 279.759 301.893C276.775 299.393 274.086 296.561 271.743 293.45C269.433 290.326 267.401 287.005 265.672 283.524C263.939 280.057 262.559 276.423 261.554 272.678Z" fill="#2B2B2B"/>
<path d="M200.077 289.389C200.034 295.284 199.904 301.175 199.808 307.067C199.729 312.961 199.529 318.849 199.395 324.74L199.391 324.79L199.383 324.845C199.024 327.199 199.324 329.607 200.25 331.8C201.233 333.92 202.996 335.576 205.172 336.422C205.731 336.603 206.278 336.813 206.843 336.978L208.596 337.318C209.809 337.497 211.062 337.629 212.299 337.764C214.783 338.029 217.272 338.264 219.765 338.471C229.735 339.31 239.737 339.741 249.733 339.965C259.725 340.195 269.723 339.864 279.678 338.973C289.57 338.017 299.618 336.498 308.605 332.187C308.693 332.145 308.793 332.137 308.886 332.164C308.98 332.191 309.06 332.252 309.112 332.334C309.82 333.44 310.801 334.343 311.96 334.957C313.143 335.582 314.449 335.937 315.785 335.997C317.14 336.049 318.495 335.906 319.809 335.572C320.461 335.38 321.114 335.18 321.763 334.965L323.66 334.177L321.805 335.071C321.167 335.323 320.52 335.561 319.87 335.792C318.543 336.208 317.16 336.418 315.77 336.415C314.343 336.434 312.932 336.107 311.658 335.461C310.384 334.816 309.285 333.871 308.454 332.708L308.961 332.855C304.47 335.199 299.69 336.94 294.744 338.032C289.83 339.163 284.855 340.01 279.844 340.569C269.832 341.594 259.769 342.024 249.707 341.859C239.652 341.795 229.616 341.156 219.608 340.261C217.106 340.035 214.605 339.777 212.107 339.489C210.855 339.341 209.614 339.201 208.35 339.004L206.415 338.611C205.779 338.423 205.154 338.181 204.525 337.964C201.989 336.922 199.961 334.927 198.875 332.406C197.886 329.925 197.616 327.215 198.095 324.587L198.083 324.69C198.394 318.806 198.641 312.919 199.008 307.037C199.357 301.154 199.674 295.27 200.077 289.389Z" fill="#2B2B2B"/>
<path d="M236.526 296.31C236.689 299.55 236.782 302.789 236.894 306.029L236.672 305.691C248.053 309.778 260 312.061 272.083 312.458C278.089 312.641 284.098 312.169 290.003 311.052L294.4 310.099C295.852 309.73 297.261 309.208 298.695 308.77L300.844 308.097C301.545 307.831 302.225 307.513 302.917 307.223L307.061 305.445L306.71 305.977C306.872 304.993 307.258 304.06 307.837 303.248C308.375 302.462 309.045 301.775 309.818 301.219C311.327 300.147 313.063 299.437 314.89 299.143C315.777 298.988 316.673 298.879 317.572 298.817C318.469 298.818 319.363 298.74 320.254 298.806C321.143 298.879 322.036 298.879 322.916 299.015L325.549 299.407L322.897 299.258C322.016 299.213 321.132 299.254 320.253 299.247C319.373 299.242 318.501 299.38 317.629 299.438C316.767 299.557 315.911 299.721 315.066 299.929C313.407 300.324 311.848 301.059 310.487 302.088C309.192 303.06 308.312 304.487 308.022 306.081L308.017 306.125C308.002 306.229 307.964 306.327 307.903 306.412C307.843 306.497 307.763 306.566 307.671 306.614C302.227 309.511 296.403 311.624 290.371 312.893C284.337 314.116 278.179 314.618 272.027 314.386C265.896 314.162 259.799 313.367 253.816 312.013C250.835 311.315 247.879 310.525 244.968 309.59C242.041 308.696 239.173 307.62 236.38 306.368L236.363 306.36C236.3 306.332 236.246 306.285 236.21 306.226C236.173 306.167 236.155 306.099 236.157 306.029C236.27 302.789 236.362 299.55 236.526 296.31Z" fill="#2B2B2B"/>
<path d="M207.949 313.493C209.491 311.365 211.458 309.581 213.725 308.254C215.993 306.908 218.449 305.909 221.012 305.287C222.301 305.026 223.604 304.843 224.916 304.741C226.221 304.613 227.535 304.592 228.844 304.678C230.153 304.707 231.443 304.972 232.735 305.111C234.01 305.386 235.276 305.696 236.526 306.029C235.228 305.914 233.955 305.701 232.672 305.59C231.384 305.55 230.107 305.372 228.825 305.436C226.271 305.424 223.724 305.696 221.231 306.247C218.746 306.813 216.348 307.708 214.099 308.909C211.818 310.099 209.742 311.647 207.949 313.493Z" fill="#2B2B2B"/>
<path d="M307.366 306.029C307.759 306.887 308.223 307.71 308.754 308.49C309.256 309.252 309.901 309.909 310.654 310.424C310.841 310.535 311.036 310.631 311.238 310.709C311.513 310.812 311.761 310.975 311.965 311.186C312.146 311.423 312.267 311.701 312.314 311.996C312.362 312.291 312.335 312.593 312.238 312.875C311.915 313.838 311.392 314.722 310.703 315.468L310.698 315.473L310.669 315.501C309.935 316.195 309.381 317.058 309.057 318.016C308.908 318.468 308.861 318.948 308.921 319.42C308.98 319.893 309.144 320.346 309.401 320.746C309.878 321.524 310.926 322.281 311.327 323.474C311.451 323.782 311.507 324.114 311.49 324.445C311.473 324.777 311.384 325.101 311.229 325.395C310.892 325.938 310.384 326.354 309.786 326.579L309.918 326.488C309.143 327.308 308.551 328.283 308.18 329.348C308 329.88 307.945 330.446 308.019 331.003C308.143 331.565 308.406 332.087 308.783 332.521C308.321 332.136 307.976 331.629 307.788 331.057C307.639 330.461 307.629 329.839 307.76 329.239C307.885 328.643 308.101 328.07 308.398 327.538C308.683 327 309.019 326.491 309.401 326.018C309.424 325.989 309.453 325.966 309.486 325.95L309.534 325.927C309.949 325.733 310.293 325.412 310.515 325.01C310.603 324.815 310.649 324.604 310.649 324.39C310.65 324.176 310.605 323.965 310.518 323.77C310.198 322.848 309.333 322.277 308.614 321.253C308.267 320.741 308.04 320.157 307.951 319.545C307.881 318.932 307.947 318.312 308.144 317.727C308.54 316.617 309.207 315.623 310.085 314.836L310.052 314.869C310.66 314.226 311.141 313.473 311.471 312.651C311.547 312.491 311.583 312.315 311.576 312.137C311.568 311.96 311.516 311.788 311.425 311.635C311.305 311.499 311.157 311.39 310.992 311.315C310.76 311.206 310.536 311.078 310.325 310.932C309.536 310.335 308.895 309.564 308.451 308.679C307.992 307.839 307.628 306.95 307.366 306.029Z" fill="#2B2B2B"/>
<path d="M324.959 307.025C324.929 307.626 324.9 308.217 324.87 308.809C323.68 308.799 322.479 308.75 321.289 308.621C319.887 308.508 318.498 308.273 317.137 307.922C318.498 307.57 319.887 307.336 321.289 307.222C322.509 307.094 323.739 307.045 324.959 307.025Z" fill="#2B2B2B"/>
<path d="M324.644 313.658C324.605 314.259 324.585 314.85 324.555 315.432C323.463 315.412 322.381 315.363 321.289 315.245C319.887 315.131 318.498 314.897 317.137 314.545C318.498 314.193 319.887 313.959 321.289 313.845C322.41 313.727 323.522 313.677 324.644 313.658Z" fill="#2B2B2B"/>
<path d="M324.349 320.044C324.329 320.645 324.3 321.236 324.28 321.818C323.286 321.788 322.283 321.739 321.289 321.631C319.887 321.517 318.498 321.283 317.137 320.931C318.498 320.579 319.887 320.345 321.289 320.231C322.312 320.123 323.335 320.074 324.349 320.044Z" fill="#2B2B2B"/>
<path d="M321.289 327.859C322.214 327.761 323.139 327.712 324.054 327.682C324.024 328.283 324.005 328.865 323.985 329.427C323.089 329.407 322.184 329.358 321.289 329.259C319.887 329.145 318.498 328.911 317.137 328.559C318.498 328.207 319.887 327.973 321.289 327.859Z" fill="#2B2B2B"/>
<path d="M290.96 342.529C290.96 342.529 273.233 324.979 266.614 336.36C259.996 347.74 264.546 356.089 269.463 361.722C275.454 368.584 275.755 370.64 277.532 372.672C279.31 374.705 299.375 399.276 324.384 397.896C338.973 397.091 338.725 389.303 335.985 382.954C333.993 378.457 330.793 374.603 326.742 371.821C318.753 366.229 300.9 353.277 290.96 342.529Z" fill="#2B2B2B"/>
<path d="M284.913 337.514C288.725 337.694 292.527 337.951 296.329 338.2L307.729 338.975C311.526 339.276 315.326 339.497 319.125 339.699C321.024 339.817 322.925 339.886 324.825 339.917C325.772 339.915 326.729 339.984 327.673 339.915L329.096 339.847L330.505 339.625C326.754 340.387 322.922 340.667 319.1 340.457C315.28 340.411 311.47 340.182 307.663 339.957C303.859 339.658 300.057 339.359 296.265 338.952C292.473 338.546 288.685 338.099 284.913 337.514Z" fill="#2B2B2B"/>
<path d="M322.852 369.556C322.744 369.556 322.639 369.52 322.553 369.454C322.467 369.389 322.405 369.297 322.377 369.192C322.348 369.088 322.355 368.977 322.395 368.877C322.436 368.777 322.508 368.693 322.601 368.638C323.371 368.184 341.54 357.498 348.338 359.72C348.462 359.761 348.564 359.849 348.622 359.966C348.681 360.082 348.691 360.217 348.65 360.341C348.61 360.464 348.522 360.567 348.406 360.626C348.29 360.685 348.155 360.696 348.032 360.656C341.657 358.564 323.286 369.377 323.101 369.487C323.026 369.532 322.939 369.556 322.852 369.556Z" fill="#2B2B2B"/>
<path d="M431.48 297.1L431.49 297.1L431.525 297.107L474.383 313.016L474.421 313.032C478.681 315.027 482.735 317.439 486.522 320.232C490.348 323.029 493.718 326.402 496.512 330.233C497.95 332.165 499.079 334.308 499.86 336.588C500.613 338.833 501.203 341.13 501.624 343.461C502.58 348.198 502.25 353.106 500.669 357.673C499.782 359.945 498.479 362.032 496.827 363.825C495.163 365.591 493.219 367.07 491.075 368.203C488.945 369.329 486.674 370.164 484.323 370.687C483.153 370.934 481.97 371.11 480.779 371.214L477.301 371.594C468.027 372.587 458.756 373.597 449.473 374.501C430.909 376.321 412.34 378.104 393.73 379.476C389.078 379.823 384.424 380.149 379.764 380.415C375.094 380.65 370.46 380.976 365.713 380.766C363.275 380.566 360.958 379.621 359.073 378.06C357.222 376.564 355.593 374.809 354.238 372.851C351.561 368.97 349.406 364.754 347.829 360.31C347.807 360.251 347.801 360.188 347.81 360.126C347.82 360.065 347.844 360.006 347.882 359.957C347.92 359.907 347.969 359.868 348.026 359.842C348.083 359.817 348.146 359.806 348.208 359.811L348.221 359.813C350.213 360.069 352.231 360.063 354.222 359.794C355.158 359.614 356.15 359.238 356.421 358.442C356.589 357.521 356.407 356.57 355.912 355.776C354.933 354.006 353.788 352.334 352.493 350.783C351.226 349.187 349.913 347.62 348.613 346.041C347.311 344.463 346.018 342.875 344.766 341.252C343.579 339.621 342.145 338.186 340.515 336.999C339.751 336.389 338.854 335.969 337.897 335.773C336.94 335.577 335.951 335.611 335.009 335.871C333.178 336.611 331.684 338.001 330.814 339.777L330.803 339.796C330.771 339.855 330.723 339.903 330.664 339.934C330.605 339.966 330.537 339.979 330.471 339.973C330.404 339.966 330.341 339.94 330.289 339.898C330.237 339.855 330.199 339.799 330.179 339.735C329.536 337.75 329.2 335.678 329.182 333.591C329.177 332.527 329.345 331.47 329.679 330.46C330.025 329.41 330.683 328.491 331.564 327.826L331.514 327.869C332.32 327.162 333.246 326.604 334.248 326.223C335.2 325.825 336.173 325.477 337.161 325.18C339.126 324.579 341.114 324.09 343.109 323.647C347.102 322.77 351.123 322.068 355.152 321.428C363.211 320.161 371.304 319.159 379.404 318.248C395.608 316.429 411.842 314.982 428.105 313.784L427.398 314.457C428.423 307.969 429.752 301.708 431.008 295.351L434.916 276.369L442.77 238.411L443.134 239.403C442.255 238.915 441.303 238.571 440.316 238.386C439.241 238.139 438.138 237.936 437.022 237.773C434.794 237.435 432.53 237.204 430.265 237.002C425.731 236.603 421.17 236.367 416.609 236.16C407.483 235.754 398.338 235.566 389.193 235.458C370.903 235.246 352.598 235.406 334.306 235.66L334.968 235.369C334.358 236.135 333.886 237.001 333.575 237.93C333.201 238.917 332.886 239.949 332.604 240.993C332.042 243.086 331.602 245.233 331.205 247.387C330.422 251.701 329.826 256.064 329.3 260.435C328.26 269.182 327.504 277.972 326.852 286.769C326.208 295.569 325.668 304.377 325.231 313.193C324.745 321.995 324.423 330.825 324.093 339.638L324.092 339.647C324.088 339.76 324.04 339.867 323.957 339.944C323.875 340.022 323.765 340.064 323.652 340.061L286.15 339.085C286.124 339.084 286.1 339.073 286.082 339.054C286.064 339.036 286.054 339.011 286.055 338.985C286.055 338.959 286.066 338.934 286.084 338.916C286.103 338.898 286.128 338.888 286.154 338.888L323.667 339.193L323.227 339.616C323.451 330.781 323.705 321.963 324.103 313.132C324.458 304.316 324.915 295.497 325.473 286.673C326.042 277.857 326.714 269.044 327.675 260.248C328.162 255.85 328.719 251.457 329.471 247.077C329.853 244.888 330.278 242.702 330.84 240.526C331.123 239.438 331.441 238.353 331.839 237.272C332.223 236.101 332.822 235.012 333.605 234.061C333.683 233.973 333.779 233.901 333.885 233.851C333.992 233.802 334.108 233.774 334.226 233.771L334.267 233.77C343.426 233.533 352.581 233.449 361.739 233.381C370.897 233.323 380.055 233.333 389.215 233.411C398.375 233.505 407.537 233.678 416.701 234.071C421.283 234.276 425.865 234.548 430.448 234.966C432.74 235.18 435.031 235.423 437.327 235.781C438.474 235.954 439.623 236.169 440.778 236.439C442.043 236.68 443.252 237.152 444.346 237.832C444.494 237.931 444.609 238.073 444.677 238.239C444.744 238.404 444.76 238.586 444.723 238.761L444.71 238.825L436.698 276.739L432.673 295.692C431.365 301.996 429.962 308.369 428.911 314.632L428.904 314.673C428.875 314.842 428.791 314.996 428.664 315.111C428.537 315.226 428.375 315.295 428.204 315.306C411.959 316.354 395.717 317.65 379.52 319.32C371.425 320.177 363.337 321.126 355.292 322.338C351.271 322.95 347.259 323.624 343.288 324.47C341.304 324.897 339.33 325.369 337.395 325.948C336.431 326.231 335.481 326.563 334.551 326.944C333.644 327.283 332.801 327.776 332.061 328.401L332.047 328.414L332.01 328.445C331.249 329.016 330.68 329.806 330.379 330.71C330.066 331.642 329.907 332.618 329.907 333.601C329.914 335.608 330.225 337.602 330.831 339.514L330.196 339.473C331.155 337.541 332.799 336.036 334.806 335.254C335.841 334.969 336.929 334.933 337.981 335.149C339.032 335.364 340.018 335.826 340.859 336.495C342.528 337.732 344.006 339.21 345.244 340.88C346.497 342.489 347.793 344.065 349.101 345.635C350.408 347.206 351.729 348.767 353.012 350.368C354.346 351.951 355.525 353.658 356.533 355.467C357.127 356.427 357.326 357.58 357.087 358.684C356.869 359.247 356.45 359.709 355.911 359.981C355.423 360.23 354.902 360.406 354.363 360.505C352.304 360.799 350.214 360.818 348.149 360.563L348.541 360.066C350.103 364.431 352.257 368.561 354.943 372.338C356.269 374.208 357.856 375.879 359.654 377.301C361.402 378.722 363.545 379.57 365.791 379.727C370.364 379.874 375.054 379.498 379.687 379.206C384.333 378.886 388.978 378.506 393.62 378.105C412.188 376.456 430.748 374.674 449.298 372.758L477.125 369.93C479.428 369.65 481.813 369.542 483.974 369.084C486.183 368.604 488.318 367.829 490.322 366.782C494.367 364.751 497.535 361.313 499.232 357.112C500.732 352.807 501.055 348.179 500.168 343.708C499.774 341.439 499.222 339.201 498.517 337.009C497.803 334.857 496.759 332.828 495.424 330.996C492.746 327.242 489.505 323.926 485.814 321.166C482.118 318.376 478.156 315.958 473.985 313.948L474.022 313.964L431.455 297.291L431.49 297.298L431.48 297.298C431.454 297.298 431.429 297.287 431.41 297.269C431.392 297.25 431.382 297.225 431.382 297.199C431.382 297.173 431.392 297.148 431.41 297.129C431.429 297.111 431.454 297.1 431.48 297.1L431.48 297.1Z" fill="#2B2B2B"/>
<path d="M334.287 234.715C327.084 242.875 323.66 339.627 323.66 339.627H330.508C330.508 339.627 327.645 331.132 331.788 328.136C339.315 320.369 428.155 314.545 428.155 314.545C428.351 312.84 429.68 306.059 431.49 297.199C436.075 274.64 443.74 238.618 443.74 238.618C435.948 232.586 334.287 234.715 334.287 234.715ZM384.586 279.065C375.976 279.065 369 276.995 369 274.453C369 271.91 375.976 269.84 384.586 269.84C393.195 269.84 400.171 271.91 400.171 274.453C400.171 276.995 393.195 279.065 384.586 279.065V279.065Z" fill="#FDB914"/>
<path d="M235.013 340.443C233.873 347.238 233.275 354.114 233.227 361.004C233.119 367.873 233.776 374.732 235.184 381.455C236.689 388.089 239.299 394.642 243.889 399.61C246.232 402.045 248.948 404.089 251.936 405.663L254.167 406.907C254.916 407.313 255.702 407.658 256.467 408.037C258.003 408.788 259.544 409.529 261.132 410.18C267.419 412.908 273.881 415.265 280.403 417.433C286.92 419.618 293.5 421.624 300.102 423.559C313.297 427.478 326.62 430.893 339.98 434.307C343.401 435.219 346.605 436.806 349.404 438.977C352.203 441.147 354.54 443.857 356.278 446.945C357.136 448.483 357.847 450.1 358.401 451.772C358.907 453.448 359.289 455.158 359.543 456.89L361.237 467.099C363.569 480.698 365.825 494.311 368.249 507.894L382.808 589.391L382.125 588.8C392.289 588.948 402.478 588.813 412.622 588.269C417.694 587.998 422.76 587.616 427.772 586.955C430.266 586.635 432.741 586.186 435.189 585.611C436.388 585.328 437.567 584.968 438.72 584.534C439.785 584.164 440.766 583.585 441.605 582.831L441.356 583.517C440.632 566.065 439.765 548.61 438.862 531.162C437.948 513.714 436.818 496.279 435.677 478.846C434.483 461.418 433.114 443.998 431.232 426.635C430.289 417.954 429.183 409.291 427.795 400.676C427.088 396.372 426.305 392.076 425.253 387.847C424.745 385.73 424.11 383.646 423.351 381.606C422.973 380.59 422.508 379.609 421.962 378.673C421.733 378.195 421.411 377.766 421.016 377.412C420.621 377.058 420.161 376.785 419.66 376.61L419.652 376.608C419.627 376.603 419.605 376.588 419.59 376.567C419.576 376.545 419.57 376.518 419.575 376.493C419.58 376.467 419.595 376.445 419.617 376.43C419.638 376.416 419.665 376.41 419.69 376.415C420.227 376.583 420.724 376.857 421.153 377.22C421.583 377.583 421.935 378.028 422.191 378.529C422.768 379.468 423.263 380.454 423.671 381.478C424.481 383.516 425.168 385.601 425.728 387.722C426.882 391.949 427.763 396.24 428.569 400.541C430.16 409.148 431.304 417.824 432.374 426.503C434.469 443.868 436.048 461.286 437.453 478.715C438.886 496.142 439.916 513.597 440.903 531.051C441.889 548.507 442.685 565.972 443.291 583.447L443.292 583.478C443.296 583.598 443.276 583.718 443.233 583.831C443.19 583.943 443.125 584.046 443.041 584.133C442.001 585.111 440.765 585.857 439.415 586.322C438.182 586.781 436.919 587.16 435.637 587.456C433.121 588.034 430.576 588.482 428.014 588.797C422.919 589.441 417.815 589.798 412.711 590.043C402.499 590.479 392.298 590.491 382.088 590.226C381.923 590.222 381.765 590.161 381.641 590.053C381.516 589.946 381.433 589.798 381.405 589.636L367.607 508.006C365.305 494.402 362.835 480.826 360.44 467.238L358.59 457.056C358.319 455.378 357.924 453.722 357.408 452.102C356.853 450.506 356.148 448.967 355.302 447.505C353.606 444.589 351.345 442.043 348.653 440.015C345.96 437.987 342.89 436.518 339.622 435.696C326.224 432.547 312.855 429.086 299.61 425.245C292.98 423.342 286.405 421.237 279.867 419.02C273.329 416.805 266.846 414.399 260.508 411.604C258.911 410.939 257.351 410.178 255.796 409.407C255.02 409.017 254.229 408.664 253.466 408.244L251.19 406.959C248.081 405.295 245.27 403.126 242.869 400.54C238.121 395.24 235.563 388.454 234.124 381.689C232.773 374.878 232.239 367.929 232.534 360.991C232.748 354.079 233.513 347.195 234.821 340.404C234.826 340.378 234.84 340.356 234.862 340.341C234.884 340.326 234.91 340.321 234.936 340.326C234.961 340.332 234.983 340.347 234.998 340.369C235.012 340.391 235.018 340.417 235.013 340.443Z" fill="#2B2B2B"/>
<path d="M398.046 602.109C398.046 602.109 389.545 601.222 389.545 605.302C389.545 609.382 390.253 639.185 393.796 640.072C397.338 640.959 501.124 676.794 528.753 647.701C528.753 647.701 547.881 637.057 511.751 624.639C475.62 612.221 452.95 599.803 452.95 599.803C452.95 599.803 418.591 600.867 417.882 604.415C417.174 607.963 422.487 620.736 422.487 620.736C422.487 620.736 399.817 626.058 398.046 602.109Z" fill="#2B2B2B"/>
<path d="M398.047 602.603C398.006 602.602 397.965 602.597 397.925 602.587C397.798 602.555 397.69 602.473 397.624 602.36C397.557 602.248 397.538 602.113 397.571 601.986C398.038 599.936 398.097 597.814 397.745 595.74C397.393 593.667 396.636 591.684 395.518 589.903C395.481 589.85 395.455 589.791 395.441 589.727C395.427 589.664 395.426 589.599 395.437 589.535C395.449 589.471 395.472 589.411 395.507 589.356C395.542 589.302 395.587 589.254 395.64 589.217C395.693 589.18 395.752 589.154 395.816 589.14C395.879 589.126 395.944 589.125 396.007 589.136C396.071 589.147 396.132 589.171 396.186 589.206C396.241 589.241 396.288 589.286 396.325 589.339C397.538 591.229 398.358 593.346 398.736 595.561C399.114 597.777 399.042 600.046 398.523 602.232C398.496 602.338 398.435 602.432 398.348 602.499C398.262 602.566 398.156 602.603 398.047 602.603Z" fill="#2B2B2B"/>
<path d="M448.699 600.296L448.682 600.294C437.974 599.936 427.505 588.748 427.065 588.273C427.021 588.225 426.987 588.17 426.964 588.109C426.942 588.048 426.932 587.984 426.934 587.919C426.936 587.854 426.951 587.791 426.978 587.732C427.005 587.673 427.044 587.62 427.091 587.576C427.138 587.532 427.194 587.498 427.254 587.475C427.315 587.453 427.379 587.442 427.444 587.445C427.509 587.447 427.572 587.462 427.631 587.489C427.689 587.516 427.742 587.554 427.786 587.602C427.892 587.716 438.42 598.965 448.715 599.31C448.844 599.315 448.966 599.37 449.055 599.464C449.144 599.557 449.193 599.682 449.19 599.811C449.188 599.94 449.136 600.064 449.044 600.154C448.952 600.245 448.828 600.296 448.699 600.296V600.296Z" fill="#2B2B2B"/>
<path d="M201.732 335.207C201.66 335.193 201.589 335.193 201.518 335.178L201.432 335.092C201.534 335.124 201.635 335.162 201.732 335.207Z" fill="white"/>
<path d="M232.846 368.991V369.077C232.889 368.819 232.932 368.576 232.975 368.318C232.932 368.547 232.889 368.762 232.846 368.991Z" fill="white"/>
<path d="M429.318 406.538V406.566C429.261 406.58 429.217 406.595 429.16 406.609C429.217 406.58 429.261 406.566 429.318 406.538Z" fill="white"/>
<path d="M187.434 417.076L189.116 446.709L190.65 476.348C191.174 486.227 191.867 496.1 192.038 505.992C192.114 510.939 192.189 515.885 192.137 520.837L192.055 528.264C191.969 530.741 191.938 533.217 191.802 535.697C191.8 535.734 191.785 535.769 191.758 535.795C191.732 535.821 191.697 535.836 191.66 535.837C191.623 535.838 191.587 535.826 191.559 535.802C191.53 535.778 191.512 535.744 191.507 535.708C191.19 533.245 190.977 530.778 190.709 528.313L190.081 520.913C189.665 515.979 189.376 511.04 189.088 506.101C188.531 496.224 188.495 486.326 188.291 476.435L187.641 446.764L187.139 417.087C187.138 417.048 187.153 417.011 187.179 416.983C187.206 416.955 187.242 416.938 187.281 416.937C187.319 416.935 187.357 416.949 187.386 416.975C187.414 417.001 187.431 417.037 187.434 417.076V417.076Z" fill="#2B2B2B"/>
<path d="M267.841 473.138L268.668 503.316L269.347 533.495C269.585 543.555 269.993 553.613 269.878 563.675C269.811 568.707 269.744 573.738 269.549 578.77L269.253 586.319C269.095 588.835 268.993 591.351 268.786 593.868C268.783 593.905 268.766 593.94 268.739 593.965C268.712 593.99 268.676 594.004 268.639 594.005C268.602 594.005 268.566 593.991 268.539 593.967C268.511 593.942 268.494 593.908 268.49 593.871C268.245 591.357 268.103 588.843 267.906 586.329L267.491 578.786C267.218 573.758 267.072 568.728 266.926 563.699C266.654 553.639 266.905 543.576 266.985 533.514L267.192 503.328L267.546 473.141C267.547 473.102 267.562 473.065 267.589 473.038C267.617 473.01 267.654 472.995 267.692 472.995C267.731 472.994 267.768 473.009 267.796 473.036C267.824 473.063 267.84 473.1 267.841 473.138L267.841 473.138Z" fill="#2B2B2B"/>
<path d="M191.655 535.87C198.568 535.87 204.171 534.811 204.171 533.504C204.171 532.198 198.568 531.139 191.655 531.139C184.743 531.139 179.14 532.198 179.14 533.504C179.14 534.811 184.743 535.87 191.655 535.87Z" fill="#2B2B2B"/>
<path d="M268.166 594.352C275.078 594.352 280.682 593.293 280.682 591.987C280.682 590.681 275.078 589.622 268.166 589.622C261.254 589.622 255.65 590.681 255.65 591.987C255.65 593.293 261.254 594.352 268.166 594.352Z" fill="#2B2B2B"/>
<path d="M351.402 453.62L352.502 467.465L353.455 481.315C353.754 485.933 354.307 490.541 354.261 495.171C354.295 499.823 354.022 504.471 353.444 509.087C353.44 509.122 353.423 509.154 353.396 509.178C353.37 509.201 353.337 509.215 353.301 509.216C353.266 509.218 353.232 509.207 353.204 509.185C353.176 509.163 353.157 509.132 353.149 509.098C352.234 504.537 351.62 499.922 351.311 495.28C350.924 490.666 351.138 486.03 351.095 481.403L351.027 467.52L351.107 453.631C351.107 453.593 351.122 453.556 351.148 453.529C351.175 453.501 351.211 453.485 351.249 453.484C351.287 453.483 351.324 453.496 351.352 453.521C351.381 453.547 351.399 453.582 351.402 453.62Z" fill="#2B2B2B"/>
<path d="M461.365 421.915L462.189 451.74L462.865 481.567C463.102 491.509 463.51 501.45 463.394 511.395C463.326 516.368 463.259 521.34 463.063 526.314L462.767 533.774C462.609 536.262 462.506 538.748 462.299 541.236C462.296 541.273 462.279 541.307 462.252 541.333C462.225 541.358 462.189 541.372 462.152 541.372C462.115 541.373 462.08 541.359 462.052 541.334C462.025 541.309 462.007 541.275 462.004 541.238C461.758 538.754 461.616 536.269 461.42 533.785L461.006 526.33C460.733 521.36 460.587 516.389 460.442 511.418C460.171 501.477 460.422 491.53 460.504 481.586L460.713 451.752L461.07 421.917C461.07 421.878 461.086 421.841 461.113 421.814C461.141 421.786 461.178 421.771 461.216 421.771C461.255 421.77 461.292 421.785 461.32 421.812C461.348 421.839 461.364 421.876 461.365 421.914V421.915Z" fill="#2B2B2B"/>
<path d="M353.297 509.26C360.209 509.26 365.813 508.201 365.813 506.895C365.813 505.588 360.209 504.529 353.297 504.529C346.385 504.529 340.781 505.588 340.781 506.895C340.781 508.201 346.385 509.26 353.297 509.26Z" fill="#2B2B2B"/>
<path d="M461.679 541.719C468.591 541.719 474.195 540.66 474.195 539.354C474.195 538.048 468.591 536.989 461.679 536.989C454.767 536.989 449.163 538.048 449.163 539.354C449.163 540.66 454.767 541.719 461.679 541.719Z" fill="#2B2B2B"/>
<path d="M330.506 340.117H323.661C323.531 340.117 323.406 340.064 323.314 339.972C323.222 339.88 323.171 339.754 323.171 339.624C323.171 339.494 323.222 339.369 323.314 339.276C323.406 339.184 323.531 339.132 323.661 339.131H330.506C330.636 339.132 330.76 339.184 330.852 339.276C330.944 339.369 330.995 339.494 330.995 339.624C330.995 339.754 330.944 339.88 330.852 339.972C330.76 340.064 330.636 340.117 330.506 340.117Z" fill="#2B2B2B"/>
</svg>
