<svg width="1285" height="1042" viewBox="0 0 1285 1042" fill="none" xmlns="http://www.w3.org/2000/svg">
<path d="M613.596 250.121L608.416 295.127C607.174 294.276 606.171 293.119 605.506 291.767C604.176 289.419 603.24 286.867 602.737 284.215C598.455 263.418 590.968 267.303 590.968 267.303C583.276 271.303 594.224 297.307 594.224 297.307C597.378 307.18 595.122 310.295 592.686 311.18C591.838 311.457 590.93 311.488 590.065 311.27C589.201 311.053 588.416 310.595 587.801 309.949C584.297 306.289 580.322 303.112 575.981 300.499C574.743 299.761 573.343 299.339 571.904 299.269C571.346 299.176 570.775 299.205 570.23 299.354C569.684 299.503 569.178 299.768 568.744 300.131C568.311 300.494 567.961 300.946 567.718 301.456C567.476 301.967 567.347 302.524 567.34 303.09C567.256 304.115 567.382 305.146 567.71 306.12C568.039 307.095 568.563 307.992 569.25 308.757L586.506 328.849C588.775 334.927 596.237 343.877 602.801 343.838L602.198 349.07L601.698 370.277L594.968 443.787C558.045 447.018 560.353 438.505 560.353 438.505L557.237 320.079C562.442 276.689 585.66 253.609 585.66 253.609C585.66 253.609 601.865 257.622 613.596 250.121Z" fill="#FDB914"/>
<path d="M596.292 231.857C598.534 231.259 600.615 230.174 602.388 228.678C603.282 227.952 604.118 227.159 604.89 226.306C605.645 225.438 606.341 224.521 606.973 223.561C609.428 219.648 611.067 215.28 611.793 210.719C612.03 209.589 612.193 208.444 612.282 207.293C612.392 206.143 612.578 205.001 612.625 203.846C612.628 201.531 612.816 199.219 612.669 196.905C612.516 194.594 612.513 192.271 612.241 189.966L611.42 183.05L611.798 183.452C607.992 182.339 604.37 180.674 601.048 178.51C592.727 173.13 586.36 165.212 582.89 155.929C582.18 154.096 581.728 152.173 581.135 150.296L581.569 150.535C578.659 151.877 576.047 153.788 573.887 156.156C571.7 158.509 569.835 161.142 568.341 163.987C566.853 166.837 565.642 169.824 564.724 172.906C564.262 174.446 563.93 176.025 563.526 177.582L562.698 182.345L562.64 181.969C563.557 184.805 563.825 187.811 563.425 190.765C563.274 192.209 563.052 193.64 562.758 195.057C562.473 196.43 562.263 197.817 562.131 199.213C561.567 204.826 561.852 210.492 562.975 216.02C563.563 218.765 564.509 221.421 565.79 223.92C567.089 226.402 568.894 228.583 571.089 230.323C575.777 233.564 581.528 234.885 587.16 234.017L587.176 234.144C584.34 234.584 581.453 234.595 578.613 234.176C575.736 233.741 573.006 232.617 570.656 230.9C568.33 229.141 566.399 226.912 564.989 224.359C563.608 221.81 562.569 219.091 561.898 216.271C560.593 210.64 560.228 204.833 560.82 199.083C560.952 197.642 561.163 196.208 561.452 194.789C561.731 193.413 561.941 192.029 562.082 190.636C562.43 187.922 562.219 185.165 561.46 182.536L561.376 182.302L561.402 182.159L562.293 177.316C562.72 175.728 563.076 174.122 563.563 172.553C564.523 169.401 565.808 166.358 567.4 163.473C568.996 160.585 570.969 157.922 573.268 155.555C575.561 153.154 578.308 151.233 581.35 149.904L581.673 149.772L581.785 150.143C582.343 152.001 582.76 153.91 583.435 155.731C584.084 157.564 584.853 159.352 585.739 161.083C587.451 164.585 589.684 167.807 592.361 170.639C597.686 176.336 604.491 180.44 612.014 182.492L612.349 182.577L612.392 182.895L613.329 189.857C613.622 192.181 613.651 194.534 613.822 196.873C613.944 199.216 613.731 201.569 613.7 203.915C613.639 205.088 613.438 206.253 613.314 207.422C613.21 208.594 613.03 209.758 612.777 210.908L611.998 214.356C611.655 215.484 611.225 216.588 610.843 217.703C609.995 219.909 608.889 222.007 607.546 223.953C606.872 224.924 606.131 225.845 605.328 226.712C604.498 227.551 603.605 228.325 602.656 229.028C600.785 230.469 598.619 231.478 596.312 231.984L596.292 231.857Z" fill="#2B2B2B"/>
<path d="M586.331 212.467C586.352 214.222 585.736 215.925 584.597 217.259C583.99 217.947 583.234 218.489 582.387 218.842C581.54 219.196 580.624 219.352 579.708 219.3C577.916 219.154 576.237 218.369 574.977 217.087C573.692 215.872 572.896 214.229 572.739 212.467C572.67 211.549 572.806 210.626 573.137 209.766C573.469 208.907 573.987 208.132 574.655 207.498C576.006 206.179 577.821 205.445 579.708 205.454C580.635 205.452 581.552 205.648 582.397 206.028C583.243 206.408 583.998 206.964 584.613 207.658C585.75 208.999 586.361 210.709 586.331 212.467ZM586.177 212.467C586.157 211.659 585.942 210.867 585.55 210.16C585.158 209.452 584.601 208.85 583.926 208.405C582.687 207.547 581.214 207.091 579.708 207.099C578.222 207.1 576.783 207.619 575.637 208.565C574.472 209.55 573.736 210.949 573.584 212.467C573.513 213.263 573.633 214.064 573.934 214.803C574.236 215.543 574.709 216.2 575.316 216.719C576.553 217.711 578.13 218.177 579.708 218.016C581.226 217.919 582.69 217.411 583.942 216.547C584.615 216.097 585.171 215.492 585.56 214.781C585.949 214.071 586.161 213.277 586.177 212.467Z" fill="#2B2B2B"/>
<path d="M571.946 189.27C571.285 190.359 570.675 191.428 570.127 192.486C569.58 193.473 569.226 194.555 569.084 195.675C569.032 196.178 569.102 196.687 569.29 197.157C569.478 197.628 569.778 198.045 570.163 198.374C570.582 198.77 571.041 199.122 571.533 199.424C572.048 199.745 572.614 199.979 573.162 200.338C572.519 200.305 571.879 200.233 571.245 200.123C570.594 199.956 569.974 199.682 569.411 199.313C568.793 198.926 568.289 198.38 567.951 197.734C567.638 197.053 567.499 196.306 567.547 195.558C567.71 194.199 568.252 192.913 569.112 191.848C569.886 190.819 570.848 189.944 571.946 189.27Z" fill="#2B2B2B"/>
<path d="M567.664 188.344C568.264 188.324 568.832 188.071 569.249 187.639C569.666 187.208 569.898 186.631 569.898 186.031C569.898 185.431 569.666 184.854 569.249 184.423C568.832 183.991 568.264 183.739 567.664 183.718C567.064 183.739 566.496 183.991 566.08 184.423C565.663 184.854 565.43 185.431 565.43 186.031C565.43 186.631 565.663 187.208 566.08 187.639C566.496 188.071 567.064 188.324 567.664 188.344Z" fill="#2B2B2B"/>
<path d="M594.21 188.884C594.809 188.864 595.377 188.611 595.794 188.179C596.211 187.748 596.444 187.171 596.444 186.571C596.444 185.971 596.211 185.395 595.794 184.963C595.377 184.531 594.809 184.279 594.21 184.258C593.61 184.279 593.042 184.531 592.625 184.963C592.209 185.395 591.976 185.971 591.976 186.571C591.976 187.171 592.209 187.748 592.625 188.179C593.042 188.611 593.61 188.864 594.21 188.884Z" fill="#2B2B2B"/>
<path d="M563.184 176.271C565.083 175.285 567.223 174.854 569.356 175.03C570.433 175.118 571.491 175.366 572.495 175.766C573.499 176.181 574.387 176.831 575.086 177.663C574.12 177.362 573.139 177.113 572.146 176.918C571.176 176.768 570.218 176.635 569.24 176.567C567.278 176.416 565.307 176.421 563.184 176.271Z" fill="#2B2B2B"/>
<path d="M584.79 177.663C586.9 176.407 589.281 175.679 591.732 175.54C594.183 175.304 596.653 175.705 598.903 176.705C596.452 176.852 594.17 176.87 591.847 177.077C589.525 177.229 587.231 177.502 584.79 177.663Z" fill="#2B2B2B"/>
<path d="M554.823 179.964C562.766 180.462 570.739 180.113 578.7 180.344C586.66 180.568 594.588 181.511 602.516 182.285L603.035 182.336L602.994 182.807C602.762 186.006 601.956 189.138 600.613 192.052C599.921 193.544 598.876 194.844 597.568 195.842C596.247 196.908 594.597 197.483 592.899 197.468C591.223 197.53 589.552 197.24 587.993 196.618C586.404 195.957 585.004 194.909 583.923 193.569C581.865 190.845 580.747 187.526 580.738 184.112L581.826 185.335L573.04 184.658L574.463 183.619C573.929 185.991 573.14 188.297 572.109 190.498C571.093 192.823 569.569 194.891 567.648 196.549C566.574 197.437 565.274 198.011 563.893 198.205C562.519 198.368 561.127 198.144 559.874 197.558C557.667 196.411 555.752 194.774 554.277 192.772L554.233 192.718C553.663 191.754 553.206 190.727 552.87 189.659C552.534 188.625 552.287 187.564 552.132 186.488C551.986 185.422 551.909 184.348 551.899 183.272C551.904 182.203 551.968 181.136 552.092 180.074L552.106 179.93L552.251 179.932L554.823 179.964ZM554.816 180.221L552.251 180.253L552.41 180.111C552.083 183.239 552.595 186.398 553.893 189.263C554.293 190.183 554.801 191.051 555.407 191.851L555.363 191.797C556.874 193.382 558.696 194.64 560.714 195.491C561.6 195.838 562.565 195.931 563.501 195.759C564.437 195.587 565.306 195.158 566.011 194.519C567.563 193.057 568.795 191.289 569.629 189.327C570.561 187.305 571.308 185.202 571.861 183.044L572.171 181.885L573.285 182.005L582.046 182.948L583.124 183.064L583.134 184.171C583.067 187.079 583.886 189.939 585.481 192.371C586.306 193.538 587.398 194.491 588.664 195.153C589.98 195.806 591.42 196.167 592.888 196.213C594.375 196.248 595.838 195.834 597.086 195.024C598.333 194.214 599.307 193.046 599.88 191.673C601.243 188.904 601.961 185.863 601.98 182.777L602.458 183.298C594.497 183.173 586.536 183.216 578.607 182.54C570.678 181.871 562.763 180.622 554.816 180.22V180.221Z" fill="#FDB914"/>
<path d="M602.486 182.792L611.906 182.972" stroke="#FDB914" stroke-width="0.81402" stroke-miterlimit="10"/>
<path d="M580.047 234.331C581.216 237.475 582.266 240.654 583.292 243.84L584.778 248.635C585.292 250.228 585.704 251.851 586.172 253.457L585.789 253.09C588.815 253.873 591.908 254.365 595.027 254.558C598.156 254.771 601.301 254.51 604.352 253.784C607.365 253.074 610.216 251.803 612.758 250.037C615.162 248.165 617.079 245.741 618.347 242.97L619.405 243.757C618.849 244.065 618.213 244.198 617.58 244.136C616.947 244.074 616.348 243.821 615.862 243.411C615.005 242.807 614.245 242.077 613.606 241.246C612.384 239.658 611.34 237.94 610.492 236.125C609.613 234.356 608.836 232.538 608.166 230.68C607.428 228.854 606.906 226.95 606.292 225.087C606.286 225.071 606.288 225.053 606.295 225.038C606.303 225.023 606.316 225.011 606.332 225.006C606.348 225.002 606.365 225.003 606.379 225.01C606.394 225.017 606.406 225.029 606.412 225.043C607.212 226.837 607.98 228.64 608.818 230.405C609.631 232.182 610.514 233.924 611.444 235.624C612.352 237.315 613.411 238.921 614.607 240.423C615.169 241.144 615.837 241.778 616.586 242.302C616.92 242.534 617.293 242.702 617.688 242.798C617.969 242.861 618.262 242.836 618.529 242.726L618.604 242.673C618.725 242.589 618.871 242.547 619.018 242.555C619.166 242.562 619.307 242.618 619.419 242.714C619.531 242.81 619.609 242.94 619.639 243.085C619.67 243.229 619.651 243.38 619.587 243.513C618.19 246.476 616.067 249.039 613.416 250.963C610.697 252.692 607.655 253.852 604.476 254.371C601.35 254.903 598.179 255.124 595.01 255.031C591.829 255.016 588.656 254.713 585.53 254.127C585.442 254.109 585.361 254.067 585.294 254.007C585.228 253.946 585.18 253.869 585.154 253.783L585.147 253.759C584.669 252.156 584.136 250.569 583.704 248.952L582.353 244.117C581.488 240.884 580.647 237.643 579.924 234.367C579.921 234.352 579.923 234.335 579.932 234.321C579.94 234.307 579.953 234.297 579.969 234.292C579.985 234.287 580.001 234.289 580.016 234.296C580.03 234.303 580.042 234.316 580.047 234.331H580.047Z" fill="#2B2B2B"/>
<path d="M583.659 246.821C577.137 251.15 570.847 255.819 564.815 260.808C561.806 263.283 558.968 265.959 556.321 268.817C555.015 270.218 553.865 271.756 552.891 273.405C552.427 274.186 552.083 275.033 551.871 275.917C551.776 276.675 551.761 277.786 551.717 278.755C551.205 286.619 550.434 294.39 549.829 302.203C549.198 310.007 548.633 317.814 548.135 325.624C547.094 341.237 546.395 356.875 546.38 372.505C546.216 388.111 547.15 403.709 549.174 419.185L549.202 419.374L549.184 419.483C548.09 425.023 545.513 430.162 541.729 434.354C539.923 436.44 537.935 438.361 535.788 440.094C534.683 440.909 533.609 441.771 532.468 442.53C531.317 443.26 530.167 444.055 529.013 444.727C519.804 450.269 510.511 455.673 501.263 461.15L500.967 459.548C505.6 460.532 510.133 461.943 514.506 463.76C518.908 465.525 523.059 467.858 526.855 470.7C530.703 473.539 533.794 477.281 535.855 481.596C536.804 483.779 537.407 486.097 537.643 488.467C537.823 490.826 537.689 493.198 537.245 495.522L537.236 495.574L537.209 495.605C536.908 495.964 536.535 496.255 536.114 496.459C535.693 496.664 535.234 496.777 534.766 496.793C533.855 496.783 532.967 496.51 532.207 496.007C530.757 494.99 529.503 493.719 528.506 492.255C529.549 493.666 530.839 494.877 532.312 495.831C533.045 496.278 533.891 496.506 534.75 496.486C535.163 496.456 535.565 496.341 535.931 496.148C536.298 495.956 536.62 495.69 536.879 495.367L536.844 495.449C537.213 493.162 537.277 490.835 537.036 488.531C536.741 486.247 536.094 484.022 535.116 481.937C533.005 477.83 529.916 474.306 526.122 471.675C522.356 468.992 518.264 466.798 513.946 465.144C509.646 463.445 505.199 462.146 500.661 461.261L498.438 460.836L500.365 459.659C509.535 454.053 518.662 448.374 527.87 442.833C529.035 442.145 530.089 441.399 531.205 440.686C532.295 439.951 533.315 439.119 534.369 438.337C536.395 436.68 538.271 434.846 539.974 432.858C541.662 430.879 543.123 428.718 544.33 426.415C545.527 424.175 546.358 421.759 546.793 419.258L546.802 419.555C544.605 403.969 543.644 388.234 543.927 372.497C544.033 356.792 544.826 341.113 545.96 325.471C547.099 309.837 548.918 294.223 550.332 278.678C550.401 277.692 550.4 276.841 550.561 275.655C550.817 274.635 551.228 273.659 551.779 272.763C552.849 271.066 554.101 269.492 555.513 268.069C558.278 265.262 561.231 262.645 564.351 260.238C570.548 255.431 576.993 250.952 583.659 246.821Z" fill="#2B2B2B"/>
<path d="M502.89 468.252C501.517 467.152 500.298 465.873 499.265 464.448C498.652 463.683 498.337 462.722 498.379 461.742C498.407 461.453 498.518 461.178 498.697 460.949L498.964 460.595L499.298 460.364C499.73 460.087 500.207 459.887 500.708 459.772L500.918 461.037C500.167 461.149 499.478 461.363 499.32 461.938C499.231 462.702 499.406 463.473 499.817 464.123C500.653 465.63 501.686 467.019 502.89 468.252Z" fill="#2B2B2B"/>
<path d="M537.045 495.486C539.411 493.768 541.874 492.189 544.423 490.758C546.939 489.296 549.52 487.969 552.114 486.668C554.73 485.411 557.359 484.182 560.055 483.087C562.747 481.948 565.504 480.967 568.312 480.152C565.948 481.872 563.485 483.453 560.936 484.884C558.42 486.345 555.838 487.672 553.243 488.969C550.626 490.224 547.996 491.453 545.3 492.547C542.608 493.686 539.851 494.667 537.045 495.486Z" fill="#2B2B2B"/>
<path d="M547.988 419.37C548.369 422.025 548.539 424.692 548.756 427.362C548.914 430.032 548.998 432.708 549.008 435.388C549.014 438.069 548.916 440.756 548.716 443.449C548.552 446.222 548.054 448.965 547.232 451.618L547.19 451.738L547.084 451.9C546.602 452.567 546.4 453.396 546.522 454.21C546.68 454.581 546.92 454.912 547.224 455.178C547.529 455.444 547.889 455.637 548.278 455.744C550.417 456.409 552.649 456.721 554.888 456.669C557.26 456.752 559.632 456.889 562.004 457.04C564.376 457.238 566.749 457.362 569.121 457.635C566.749 457.908 564.376 458.032 562.004 458.23C559.632 458.381 557.26 458.517 554.888 458.601C552.385 458.862 549.855 458.642 547.435 457.954C546.741 457.73 546.093 457.385 545.519 456.936C544.86 456.412 544.377 455.698 544.136 454.891C543.917 454.107 543.91 453.279 544.116 452.492C544.296 451.765 544.596 451.073 545.004 450.445L544.856 450.727C545.579 448.276 546.051 445.757 546.264 443.21C546.558 440.6 546.756 437.962 546.947 435.318L547.45 427.362L547.988 419.37Z" fill="#2B2B2B"/>
<path d="M569.313 444.523L568.819 490.243L568.175 535.96L567.45 581.675L566.542 627.385L566.539 627.239L570.142 676.466L573.513 725.71C575.767 758.538 577.708 791.389 579.805 824.228L579.674 823.8C579.849 823.991 580.045 824.162 580.258 824.311C580.544 824.516 580.846 824.697 581.161 824.853C581.828 825.189 582.523 825.466 583.238 825.68C584.722 826.125 586.24 826.445 587.777 826.637C590.915 827.016 594.076 827.157 597.235 827.06C603.609 826.85 609.963 826.219 616.253 825.169C628.875 823.053 641.382 820.301 653.726 816.923L653.684 816.936C656.364 815.682 658.601 813.647 660.102 811.097C661.654 808.517 662.681 805.656 663.127 802.679C663.577 799.679 663.68 796.636 663.434 793.612C663.312 792.095 663.131 790.585 662.899 789.076C662.61 787.576 662.381 786.009 662.222 784.49C660.753 772.261 659.401 760.02 658.166 747.767C656.944 735.512 655.745 723.251 654.889 710.953C654.463 704.803 654.104 698.646 653.943 692.468C653.872 689.378 653.834 686.284 653.943 683.174C653.995 681.618 654.08 680.06 654.252 678.487C654.375 676.829 654.739 675.197 655.334 673.643L655.938 672.205L657.122 673.305L708.783 721.325L760.369 769.424L760.609 769.647L760.796 770.034C763.444 775.913 768.148 780.621 774.025 783.273C779.842 785.653 786.646 784.463 792.298 781.46C798.031 778.094 803.144 773.768 807.413 768.67C811.846 763.57 815.845 758.108 819.37 752.343C821.15 749.467 822.84 746.533 824.381 743.537C825.937 740.638 827.229 737.603 828.239 734.471C828.331 734.149 828.401 733.821 828.45 733.49L828.467 733.317C828.484 733.262 828.464 733.115 828.499 733.468C828.573 733.754 828.52 733.548 828.461 733.461C828.072 732.808 827.645 732.179 827.181 731.577C826.189 730.258 825.116 728.941 824.032 727.636C821.856 725.024 819.607 722.444 817.344 719.877C808.267 709.62 798.942 699.539 789.601 689.483C770.864 669.414 752.051 649.407 733.161 629.463L676.383 569.745L675.814 569.146L676.131 568.397C679.6 560.195 682.796 551.827 685.766 543.406C688.736 534.979 691.429 526.454 693.784 517.841C696.216 509.252 697.968 500.484 699.022 491.619C699.533 487.197 699.576 482.732 699.15 478.3C698.629 473.953 697.414 469.392 694.172 466.305L694.43 466.02C697.86 469.144 699.202 473.807 699.833 478.213C700.367 482.693 700.427 487.217 700.011 491.709C699.152 500.663 697.588 509.535 695.333 518.243C693.184 526.967 690.551 535.558 687.718 544.075C684.862 552.591 681.797 561.014 678.418 569.364L678.166 568.017C697.449 587.589 716.604 607.285 735.63 627.103C754.715 646.868 773.726 666.705 792.468 686.809C801.843 696.86 811.194 706.928 820.344 717.224C822.628 719.804 824.898 722.397 827.123 725.057C828.235 726.391 829.336 727.733 830.411 729.157C830.997 729.914 831.533 730.709 832.014 731.537C832.225 731.904 832.379 732.301 832.47 732.714C832.525 732.973 832.537 733.24 832.505 733.504L832.465 733.973C832.395 734.491 832.29 735.005 832.15 735.509C831.077 738.925 829.688 742.233 828.001 745.392C826.404 748.506 824.684 751.54 822.839 754.496C819.163 760.436 814.998 766.059 810.387 771.306C805.783 776.734 800.275 781.325 794.107 784.876C790.854 786.595 787.318 787.714 783.668 788.179C779.932 788.636 776.141 788.15 772.641 786.766C769.209 785.346 766.122 783.205 763.591 780.487C761.067 777.835 758.991 774.79 757.444 771.471L757.87 772.081L706.688 723.553L655.581 674.945L657.368 674.607C656.869 675.934 656.555 677.325 656.436 678.739C656.256 680.224 656.154 681.74 656.086 683.26C655.946 686.3 655.944 689.365 655.978 692.429C656.063 698.56 656.345 704.7 656.696 710.837C657.422 723.111 658.38 735.375 659.57 747.629C660.747 759.878 662.043 772.116 663.459 784.343C663.614 785.887 663.824 787.365 664.109 788.89C664.338 790.425 664.516 791.972 664.634 793.524C664.874 796.643 664.753 799.778 664.273 802.869C663.8 805.996 662.73 809.004 661.122 811.727C659.494 814.531 657.04 816.763 654.096 818.12L654.086 818.124L654.053 818.133C641.683 821.597 629.146 824.435 616.489 826.635C610.135 827.72 603.723 828.428 597.286 828.756C594.037 828.905 590.781 828.808 587.547 828.465C585.9 828.283 584.271 827.965 582.676 827.512C581.853 827.277 581.051 826.97 580.281 826.596C579.876 826.4 579.486 826.173 579.117 825.917C578.66 825.622 578.265 825.242 577.954 824.796L577.843 824.639L577.822 824.367C575.304 791.557 572.629 758.759 570.268 725.938L566.716 676.707L563.396 627.46L563.391 627.382L563.392 627.313L564.562 581.609L565.913 535.908L567.347 490.21L568.929 444.515L569.313 444.523Z" fill="#2B2B2B"/>
<path d="M608.472 295.012C608.74 295.149 609.045 295.197 609.342 295.15C609.64 295.102 609.914 294.961 610.126 294.746C610.553 294.284 610.879 293.739 611.086 293.145C611.534 291.941 611.722 290.656 611.638 289.375L611.409 281.426L611.1 265.529C610.858 262.632 611.689 259.748 613.435 257.425C613.935 256.766 614.582 256.234 615.325 255.87C615.759 255.67 616.231 255.567 616.709 255.568C617.188 255.57 617.66 255.675 618.093 255.878C619.442 256.635 620.549 257.761 621.284 259.123C622.721 261.582 623.485 264.376 623.499 267.224L623.807 275.166L624.094 283.109C624.16 284.399 624.137 285.831 624.218 287.008C624.317 288.186 624.689 289.325 625.304 290.333C625.879 291.292 626.971 292.292 627.429 292.081C627.609 292.024 627.77 291.918 627.892 291.774C627.983 291.684 628.065 291.586 628.139 291.482C628.224 291.356 628.173 291.44 628.246 291.251C628.426 290.65 628.575 290.04 628.691 289.423C629.195 286.853 629.618 284.239 629.94 281.624C630.294 278.997 630.609 276.365 630.912 273.733L631.375 269.784C631.449 268.422 631.725 267.078 632.192 265.796C632.717 264.491 633.581 263.351 634.696 262.493C635.28 262.039 635.979 261.757 636.715 261.68C637.466 261.628 638.213 261.815 638.851 262.215C640.008 263.013 640.949 264.088 641.587 265.341C642.226 266.594 642.542 267.987 642.507 269.393V269.409L642.506 269.427C642.27 272.723 642.124 276.025 641.929 279.324L641.654 284.274L641.515 286.749C641.465 287.515 641.509 288.284 641.647 289.039C641.779 289.776 642.022 290.489 642.368 291.153C642.652 291.764 643.084 292.295 643.625 292.697C644.226 293.274 645.355 291.899 645.984 290.513C647.274 287.629 648.492 284.408 650.067 281.453C650.838 279.912 651.753 278.447 652.801 277.079C653.924 275.534 655.498 274.375 657.306 273.761C658.278 273.511 659.293 273.468 660.283 273.635C660.989 273.728 661.634 274.085 662.087 274.635C662.474 275.138 662.716 275.737 662.787 276.367C662.89 278.201 662.629 280.038 662.021 281.771C659.985 288.265 656.988 294.194 654.509 300.224C652.376 306.385 650.808 312.728 649.824 319.174C648.719 325.972 645.602 332.284 640.874 337.291C638.527 339.811 635.713 341.849 632.588 343.293C630.992 343.988 629.293 344.413 627.558 344.551C625.884 344.743 624.198 344.818 622.513 344.777C619.189 344.63 615.877 344.275 612.597 343.714C610.98 343.478 609.345 343.374 607.711 343.404C606.896 343.419 606.085 343.504 605.284 343.658C604.472 343.863 603.638 343.967 602.8 343.967V343.71C603.615 343.66 604.42 343.508 605.198 343.258C606.01 343.049 606.838 342.91 607.674 342.842C609.341 342.709 611.016 342.712 612.683 342.85C616.001 343.085 619.263 343.474 622.514 343.396C624.134 343.367 625.75 343.226 627.35 342.973C628.912 342.788 630.431 342.342 631.843 341.651C634.675 340.192 637.214 338.226 639.336 335.85C643.61 331.051 646.375 325.098 647.284 318.735C648.26 312.102 649.842 305.572 652.012 299.228C654.472 293.005 657.611 287.153 659.601 281.036C660.112 279.653 660.367 278.188 660.355 276.714C660.346 276.519 660.288 276.33 660.186 276.163C660.135 276.079 660.129 276.089 659.868 276.02C659.227 275.902 658.568 275.916 657.932 276.062C656.594 276.53 655.429 277.394 654.593 278.54C653.598 279.772 652.718 281.092 651.965 282.485C650.339 285.321 649.129 288.266 647.623 291.365C647.213 292.191 646.677 292.949 646.034 293.61C645.629 294.009 645.133 294.303 644.588 294.464C644.276 294.538 643.952 294.547 643.636 294.492C643.32 294.436 643.018 294.318 642.749 294.143C641.95 293.565 641.321 292.783 640.928 291.879C640.534 291.062 640.267 290.191 640.134 289.294C640.002 288.417 639.979 287.527 640.063 286.644L640.282 284.175L640.724 279.237C641.007 275.944 641.338 272.655 641.58 269.36L641.579 269.393C641.627 268.138 641.364 266.892 640.814 265.763C640.263 264.635 639.442 263.661 638.423 262.927C637.929 262.607 637.345 262.454 636.757 262.49C636.17 262.525 635.609 262.747 635.156 263.124C634.155 263.888 633.391 264.921 632.952 266.101C632.535 267.32 632.3 268.595 632.255 269.883L631.857 273.836C631.585 276.471 631.326 279.108 631.106 281.748C630.891 284.405 630.578 287.043 630.173 289.693C630.072 290.383 629.934 291.067 629.757 291.742C629.692 291.979 629.59 292.204 629.453 292.409C629.342 292.579 629.217 292.74 629.079 292.89C628.769 293.254 628.366 293.526 627.913 293.678C627.455 293.79 626.976 293.787 626.519 293.669C626.063 293.551 625.642 293.322 625.296 293.001C624.713 292.525 624.202 291.967 623.779 291.344C622.954 290.115 622.428 288.711 622.242 287.243C622.096 285.78 622.043 284.559 621.972 283.205L621.584 275.265L621.217 267.324C621.262 264.842 620.646 262.394 619.432 260.23C618.923 259.238 618.164 258.396 617.23 257.787C617.067 257.697 616.884 257.648 616.697 257.643C616.51 257.638 616.325 257.677 616.157 257.758C615.707 257.983 615.315 258.308 615.01 258.708C613.526 260.658 612.806 263.085 612.987 265.529L612.677 281.426L612.449 289.375C612.453 290.751 612.167 292.113 611.609 293.371C611.331 294.014 610.918 294.591 610.398 295.061C610.119 295.299 609.773 295.445 609.407 295.478C609.042 295.51 608.675 295.428 608.359 295.242L608.472 295.012Z" fill="#2B2B2B"/>
<path d="M606.352 313.617C608.778 314.851 610.973 316.497 612.838 318.48C614.808 320.402 616.233 322.812 616.967 325.464C615.455 323.293 613.763 321.252 611.91 319.364C610.099 317.445 608.194 315.617 606.352 313.617Z" fill="#2B2B2B"/>
<path d="M610.967 303.615C612.814 304.18 614.666 304.643 616.51 305.084C618.349 305.512 620.208 305.846 622.08 306.084C623.942 306.303 625.819 306.378 627.692 306.309C629.584 306.178 631.455 305.842 633.274 305.308C631.595 306.322 629.736 307 627.798 307.304C625.851 307.565 623.879 307.583 621.927 307.356C618.055 306.879 614.323 305.605 610.967 303.615Z" fill="#2B2B2B"/>
<path d="M600.852 345.055C600.852 345.055 667.428 411.014 713.582 393.473" stroke="#2B2B2B" stroke-width="0.67679" stroke-miterlimit="10"/>
<path d="M647.479 323.632C652.767 325.407 658.21 326.684 663.736 327.447C666.46 327.797 669.205 327.96 671.951 327.935C673.315 327.892 674.674 327.849 676.021 327.678C676.668 327.606 677.426 327.56 678.174 327.515C678.915 327.44 679.66 327.424 680.404 327.466C683.322 327.645 686.203 328.219 688.967 329.171C691.669 330.128 694.29 331.299 696.805 332.675C701.777 335.401 706.381 338.751 710.505 342.643C705.832 339.584 700.953 336.851 695.905 334.462C691.029 332.016 685.735 330.511 680.302 330.027C679.645 329.978 678.985 329.983 678.329 330.044C677.677 330.073 677.033 330.093 676.284 330.168C674.845 330.316 673.398 330.38 671.952 330.357C669.083 330.288 666.226 329.972 663.411 329.414C657.838 328.303 652.467 326.353 647.479 323.632Z" fill="#2B2B2B"/>
<path d="M647.479 392.088C650.082 395.37 652.969 398.417 656.108 401.192C662.334 406.758 669.353 411.367 676.935 414.867C680.747 416.607 684.662 418.111 688.659 419.37C686.611 418.911 684.535 418.495 682.514 417.89C680.51 417.231 678.481 416.62 676.542 415.772C668.668 412.575 661.497 407.864 655.435 401.908C652.38 398.983 649.706 395.684 647.479 392.088Z" fill="#2B2B2B"/>
<path d="M655.951 312.232C657.039 314.676 657.905 317.212 658.537 319.811C659.224 322.397 659.674 325.039 659.88 327.706C658.79 325.264 657.924 322.727 657.295 320.127C656.61 317.541 656.161 314.899 655.951 312.232Z" fill="#2B2B2B"/>
<path d="M652.197 261.456C654.304 259.609 656.551 257.927 658.918 256.427C661.289 254.916 663.762 253.571 666.319 252.4C668.906 251.238 671.63 250.41 674.427 249.938C675.841 249.73 677.275 249.699 678.696 249.845C680.114 250.008 681.472 250.507 682.659 251.301C680.081 250.32 677.259 250.183 674.598 250.909C671.922 251.512 669.319 252.405 666.835 253.572C664.303 254.68 661.828 255.914 659.42 257.271C656.987 258.602 654.596 260.018 652.197 261.456Z" fill="#2B2B2B"/>
<path d="M614.464 356.912C614.607 361.585 614.586 366.254 614.652 370.925L614.571 384.928C614.514 394.264 614.256 403.594 613.997 412.924C613.676 422.251 613.351 431.579 612.827 440.9L612.033 454.882C611.674 459.54 611.404 464.2 610.967 468.855C610.823 464.182 610.844 459.514 610.776 454.843L610.856 440.839C610.915 431.503 611.173 422.173 611.435 412.844C611.759 403.516 612.083 394.188 612.609 384.867L613.403 370.885C613.76 366.228 614.03 361.567 614.464 356.912Z" fill="#2B2B2B"/>
<path d="M600.007 453.821C605.392 453.146 610.788 452.634 616.178 452.035L632.369 450.517C643.163 449.508 653.971 448.699 664.78 447.892C675.593 447.146 686.406 446.404 697.233 445.861L713.475 445.055C718.895 444.88 724.31 444.617 729.736 444.519C724.351 445.197 718.955 445.709 713.565 446.309L697.374 447.828C686.58 448.835 675.772 449.644 664.963 450.448C654.15 451.191 643.337 451.934 632.509 452.475L616.268 453.282C610.847 453.459 605.433 453.722 600.007 453.821Z" fill="#2B2B2B"/>
<path d="M607.89 393.088C608.388 393.071 608.861 392.861 609.207 392.502C609.554 392.143 609.747 391.664 609.747 391.165C609.747 390.666 609.554 390.187 609.207 389.828C608.861 389.469 608.388 389.259 607.89 389.242C607.391 389.259 606.919 389.469 606.572 389.828C606.226 390.187 606.032 390.666 606.032 391.165C606.032 391.664 606.226 392.143 606.572 392.502C606.919 392.861 607.391 393.071 607.89 393.088Z" fill="#FDB914"/>
<path d="M604.198 427.708C604.696 427.691 605.168 427.481 605.515 427.122C605.862 426.763 606.055 426.284 606.055 425.785C606.055 425.286 605.862 424.806 605.515 424.448C605.168 424.089 604.696 423.879 604.198 423.861C603.699 423.879 603.227 424.089 602.88 424.448C602.534 424.806 602.34 425.286 602.34 425.785C602.34 426.284 602.534 426.763 602.88 427.122C603.227 427.481 603.699 427.691 604.198 427.708Z" fill="#FDB914"/>
<path d="M600.967 454.942C601.466 454.925 601.938 454.715 602.285 454.356C602.631 453.997 602.825 453.518 602.825 453.019C602.825 452.52 602.631 452.041 602.285 451.682C601.938 451.323 601.466 451.113 600.967 451.096C600.469 451.113 599.996 451.323 599.65 451.682C599.303 452.041 599.109 452.52 599.109 453.019C599.109 453.518 599.303 453.997 599.65 454.356C599.996 454.715 600.469 454.925 600.967 454.942Z" fill="#FDB914"/>
<path d="M609.736 362.161C610.235 362.144 610.707 361.934 611.054 361.575C611.4 361.216 611.594 360.737 611.594 360.238C611.594 359.739 611.4 359.26 611.054 358.901C610.707 358.542 610.235 358.332 609.736 358.314C609.238 358.332 608.766 358.542 608.419 358.901C608.073 359.26 607.879 359.739 607.879 360.238C607.879 360.737 608.073 361.216 608.419 361.575C608.766 361.934 609.238 362.144 609.736 362.161Z" fill="#FDB914"/>
<path d="M606.045 469.351C607.297 472.149 608.636 474.83 610.093 477.411C611.512 479.971 613.183 482.383 615.081 484.611C616.955 486.785 619.172 488.636 621.644 490.093C624.273 491.442 627.115 492.33 630.045 492.716C626.946 493.334 623.734 493.051 620.79 491.903C617.853 490.63 615.241 488.712 613.146 486.291C609.144 481.479 606.671 475.579 606.045 469.351L606.045 469.351Z" fill="#2B2B2B"/>
<path d="M635.428 468.855C632.842 482.652 630.867 496.549 629.032 510.454C627.238 524.365 625.588 538.295 624.297 552.259C621.646 580.176 619.618 608.163 618.891 636.197C618.773 639.699 618.573 643.2 618.508 646.705L618.331 657.218C618.257 664.227 617.998 671.237 618.075 678.247L618.253 699.278C618.262 702.784 618.314 706.289 618.464 709.792L618.779 720.303C619.412 748.351 621.677 776.321 624.043 804.295L621.63 783.378C620.843 776.401 619.991 769.428 619.514 762.423L617.914 741.416C617.608 737.917 617.455 734.409 617.299 730.901L616.808 720.378C615.407 692.314 615.542 664.193 616.332 636.111C617.274 608.029 619.279 580.011 622.345 552.056C623.877 538.094 625.739 524.169 627.797 510.277C630.046 496.414 632.434 482.571 635.428 468.855Z" fill="#2B2B2B"/>
<path d="M656.352 674.125C656.706 669.654 657.262 665.21 657.738 660.753L659.509 647.434C660.725 638.557 662.234 629.725 663.828 620.908C665.471 612.1 667.272 603.314 669.429 594.607C670.497 590.251 671.674 585.92 672.879 581.601L674.937 575.189C675.659 573.064 676.475 570.97 677.274 568.88L675.59 575.379L674.096 581.915C673.142 586.282 672.185 590.643 671.354 595.035C669.658 603.808 667.931 612.575 666.348 621.375L661.446 647.752L658.973 660.946L656.352 674.125Z" fill="#2B2B2B"/>
<path d="M666.979 636.234C673.097 641.589 679.103 647.063 685.168 652.474L703.174 668.909C715.159 679.885 726.987 691.029 738.902 702.081C750.674 713.284 762.522 724.406 774.223 735.685L791.74 752.641C797.514 758.361 803.349 764.017 809.071 769.794C802.951 764.441 796.945 758.966 790.879 753.557L772.872 737.123C760.891 726.142 749.057 715.004 737.148 703.947C725.38 692.739 713.526 681.623 701.829 670.34L684.312 653.385C678.536 647.666 672.701 642.01 666.979 636.234Z" fill="#2B2B2B"/>
<path d="M513.171 464.137C507.998 466.424 502.954 468.991 498.06 471.827C493.165 474.648 488.399 477.677 483.69 480.787C479.034 483.979 474.477 487.306 470.019 490.769C465.535 494.197 461.134 497.738 456.816 501.392L456.887 501.318C456.239 502.043 455.647 502.816 455.117 503.631C454.879 503.989 454.69 504.379 454.558 504.789C454.498 504.957 454.55 505.059 454.495 504.969C454.475 504.961 454.474 504.933 454.475 504.963C454.538 504.964 454.601 504.975 454.661 504.995L456.313 505.535L454.949 506.219C453.43 506.959 452.073 507.995 450.959 509.267C450.404 509.864 450.003 510.588 449.791 511.376C449.58 512.163 449.565 512.991 449.747 513.786C449.83 514.168 449.982 514.533 450.194 514.862C450.425 515.171 450.714 515.432 451.045 515.632C451.762 516.004 452.574 516.154 453.377 516.064C455.077 515.827 456.705 515.22 458.145 514.285L459.658 513.412L458.691 514.881C457.437 516.709 456.435 518.697 455.711 520.793C455.35 521.776 455.244 522.835 455.403 523.871C455.512 524.321 455.755 524.727 456.099 525.038C456.443 525.349 456.872 525.549 457.33 525.612L457.678 525.847C457.878 525.938 458.095 525.985 458.314 525.982C458.651 525.977 458.984 525.925 459.306 525.829C460.013 525.594 460.692 525.285 461.334 524.907C462.661 524.099 463.912 523.174 465.074 522.144C467.502 520.018 470.081 518.072 472.79 516.32C478.162 512.775 483.716 509.602 489.406 506.61L494.413 503.977L490.931 508.505C489.125 510.762 487.607 513.235 486.414 515.868C485.871 516.942 485.655 518.151 485.794 519.347C485.839 519.523 485.927 519.685 486.049 519.82C486.171 519.955 486.323 520.06 486.494 520.123C487.026 520.321 487.588 520.424 488.155 520.43L489.212 520.971C489.111 520.839 488.987 520.726 488.846 520.638L488.738 520.578C488.668 520.544 488.595 520.518 488.521 520.499C488.477 520.485 488.431 520.476 488.385 520.472L488.298 520.465C488.256 520.474 488.342 520.454 488.358 520.454C488.473 520.43 488.586 520.4 488.697 520.364C488.953 520.288 489.24 520.175 489.521 520.067C490.093 519.831 490.674 519.57 491.254 519.288C492.414 518.727 493.575 518.115 494.732 517.499C497.029 516.271 499.351 514.887 501.624 513.594C506.162 510.936 510.522 507.984 514.676 504.758C518.838 501.538 522.723 497.973 526.288 494.101C529.889 490.235 532.84 485.811 535.028 481.002L535.268 481.092C533.485 486.167 530.8 490.878 527.342 494.997C523.946 499.161 520.148 502.981 516.002 506.4C511.879 509.843 507.518 512.992 502.952 515.822C500.628 517.192 498.405 518.564 496.036 519.878C494.86 520.53 493.679 521.176 492.442 521.761C491.827 522.059 491.196 522.343 490.539 522.611C490.2 522.741 489.868 522.871 489.488 522.985C489.283 523.049 489.074 523.102 488.863 523.144C488.72 523.172 488.575 523.19 488.43 523.198C488.318 523.206 488.206 523.204 488.094 523.192C488.007 523.182 487.921 523.167 487.836 523.148C487.741 523.122 487.649 523.089 487.56 523.047L487.423 522.975C487.273 522.882 487.141 522.763 487.032 522.624L488.089 523.165C487.149 523.152 486.22 522.962 485.351 522.604C484.828 522.372 484.362 522.028 483.986 521.596C483.611 521.165 483.334 520.656 483.176 520.106C482.855 518.309 483.136 516.456 483.973 514.835C484.622 513.395 485.387 512.01 486.261 510.696C487.111 509.395 488.027 508.139 489.005 506.932L490.53 508.828C484.887 511.694 479.276 514.723 473.873 518.014C471.167 519.641 468.565 521.434 466.082 523.383C464.802 524.408 463.436 525.319 461.998 526.107C461.246 526.508 460.454 526.827 459.634 527.057C459.185 527.17 458.723 527.219 458.261 527.201C457.971 527.204 457.683 527.144 457.417 527.026C457.151 526.909 456.914 526.735 456.72 526.518L457.068 526.753C456.427 526.58 455.835 526.265 455.333 525.831C454.842 525.364 454.515 524.752 454.398 524.085C454.255 522.876 454.401 521.651 454.823 520.509C455.607 518.339 456.68 516.286 458.015 514.405L458.561 515.001C456.998 515.959 455.256 516.588 453.442 516.847C452.477 516.961 451.501 516.784 450.638 516.338C450.206 516.085 449.828 515.75 449.525 515.351C449.25 514.941 449.048 514.486 448.926 514.008C448.682 513.079 448.667 512.106 448.882 511.17C449.097 510.235 449.535 509.365 450.159 508.637C451.31 507.175 452.742 505.96 454.372 505.064L454.661 506.288C454.472 506.274 454.279 506.25 454.091 506.218C453.844 506.138 453.623 505.993 453.452 505.798C453.32 505.616 453.23 505.406 453.189 505.185C453.147 504.964 453.156 504.736 453.213 504.519C453.348 503.948 453.568 503.401 453.866 502.895C454.396 501.975 454.997 501.098 455.665 500.271L455.689 500.242L455.737 500.198C457.839 498.281 459.909 496.321 462.044 494.435C464.221 492.599 466.346 490.693 468.619 488.972C473.063 485.397 477.799 482.205 482.547 479.056C487.329 475.951 492.274 473.104 497.36 470.528C502.413 467.891 507.674 465.673 513.089 463.895L513.171 464.137Z" fill="#2B2B2B"/>
<path d="M482.583 495.308C478.412 498.373 474.301 501.515 470.252 504.734C468.236 506.353 466.236 507.99 464.287 509.678C462.333 511.312 460.516 513.104 458.857 515.037L457.848 514.247C459.636 512.317 461.584 510.542 463.671 508.94C465.704 507.321 467.776 505.763 469.862 504.225C474.046 501.167 478.286 498.195 482.583 495.308Z" fill="#2B2B2B"/>
<path d="M454.313 505.101L474.738 492.743L455.007 506.181L454.313 505.101Z" fill="#2B2B2B"/>
<path d="M592.659 827.949C592.659 827.949 602.813 829.221 562.198 850.916C521.583 872.611 508.66 874.919 508.66 887.383C508.66 887.383 522.968 907.693 623.121 880.459H626.146V884.151L654.044 882.305C654.044 882.305 655.89 845.839 648.044 835.222C648.044 835.222 644.816 822.31 648.045 819.072" fill="#2B2B2B"/>
<path d="M798.758 779.583C798.758 779.583 806.466 779.445 803.01 825.366C799.554 871.287 794.576 883.436 805.096 890.116C805.096 890.116 829.909 888.921 860.6 789.761L862.222 787.206L865.339 789.185L876.863 768.068C876.863 768.068 839.371 743.507 826.204 744.441" fill="#2B2B2B"/>
<path d="M611.981 212.467C611.981 212.467 632.971 184.411 612.354 186.031" stroke="#2B2B2B" stroke-width="0.81402" stroke-miterlimit="10"/>
<path d="M610.033 218.658C622.892 212.467 627.841 201.258 628.581 188.787C629.284 178.437 626.125 168.193 619.716 160.037C615.441 154.25 609.302 150.114 602.333 148.325C595.365 146.537 587.993 147.206 581.46 150.219C583.132 157.908 586.841 165.005 592.197 170.767C597.554 176.529 604.361 180.745 611.906 182.972L612.353 186.031C612.353 186.031 626.421 182.776 618.967 200.338C616.88 204.515 614.547 208.566 611.981 212.467L610.033 218.658Z" fill="#2B2B2B"/>
<path d="M618.958 243.15C628.654 242.024 638.376 241.145 648.125 240.51C657.889 239.806 667.688 239.756 677.459 240.361C679.931 240.541 682.384 240.93 684.791 241.524C685.396 241.705 686.002 241.889 686.601 242.114C687.193 242.375 687.81 242.639 688.325 242.913C689.395 243.465 690.488 243.99 691.59 244.503C693.928 245.438 696.1 246.74 698.027 248.361C699.845 250.126 701.321 252.213 702.378 254.516C704.474 258.969 706.248 263.566 707.686 268.272C709.184 272.931 710.592 277.612 711.91 282.315C717.331 301.093 721.785 320.137 725.255 339.372C726.092 344.186 726.825 349.021 727.367 353.883C728.003 358.747 728.229 363.655 728.045 368.557C727.953 369.798 727.745 371.027 727.422 372.228C727.076 373.413 726.63 374.565 726.088 375.674C725.098 377.911 724.037 380.119 722.87 382.273C721.719 384.441 720.413 386.523 718.962 388.502C717.544 390.538 715.776 392.307 713.741 393.728L713.854 393.346C721.991 410.688 730.166 428.003 737.575 445.699C738.469 447.938 739.375 450.127 740.071 452.525L740.269 453.504C740.347 453.905 740.27 454.322 740.054 454.669C739.881 454.982 739.656 455.263 739.389 455.501C739.16 455.734 738.911 455.945 738.644 456.133C737.639 456.857 736.564 457.479 735.435 457.99C731.011 459.937 726.414 461.466 721.705 462.557C712.358 464.797 702.878 466.435 693.323 467.462C674.243 469.509 655.061 470.458 635.873 470.304C626.286 470.266 616.697 470.021 607.126 469.657L603.596 469.609C602.3 469.682 601 469.556 599.742 469.235C598.469 468.804 597.315 468.079 596.375 467.118C595.435 466.158 594.734 464.989 594.33 463.707C593.546 461.319 593.211 458.807 593.342 456.298C593.42 453.858 593.678 451.427 594.113 449.024L595.031 450.038C594.862 450.001 594.702 449.931 594.559 449.834C594.353 449.687 594.205 449.472 594.14 449.227C594.098 449.065 594.087 448.896 594.107 448.73L594.129 448.309L594.177 447.477L594.282 445.825L594.506 442.529L594.975 435.941L595.947 422.771L597.965 396.437L600.097 370.113C600.911 361.345 601.585 352.569 602.711 343.824C602.714 343.8 602.727 343.778 602.746 343.763C602.765 343.748 602.789 343.742 602.813 343.745C602.838 343.75 602.859 343.764 602.874 343.784C602.888 343.804 602.895 343.829 602.892 343.853C601.963 352.594 601.481 361.395 600.863 370.172L599.071 396.517L597.365 422.868L596.55 436.046L596.159 442.634L595.975 445.927L595.889 447.57L595.852 448.387L595.836 448.79C595.817 448.813 595.869 449.073 595.792 448.705C595.755 448.613 595.698 448.53 595.626 448.461C595.555 448.392 595.469 448.339 595.375 448.305C595.224 448.248 595.057 448.249 594.905 448.307L595.823 449.321C595.431 451.636 595.21 453.977 595.162 456.324C595.054 458.61 595.359 460.896 596.063 463.073C596.37 464.085 596.912 465.01 597.645 465.772C598.378 466.534 599.282 467.111 600.282 467.455C601.347 467.719 602.448 467.816 603.543 467.742L607.193 467.784C616.759 468.128 626.315 468.352 635.879 468.372C654.997 468.563 674.111 467.699 693.134 465.784C702.63 464.823 712.059 463.289 721.37 461.19C726.007 460.172 730.538 458.724 734.906 456.864C735.964 456.4 736.974 455.833 737.922 455.17C738.354 454.89 738.726 454.527 739.016 454.101C739.249 453.883 739.02 453.304 738.937 452.782C738.322 450.577 737.431 448.315 736.572 446.102C733.029 437.226 729.122 428.478 725.224 419.736C721.31 411 717.339 402.288 713.311 393.601C713.28 393.535 713.275 393.459 713.296 393.389C713.316 393.319 713.362 393.258 713.423 393.219C715.411 391.857 717.136 390.147 718.516 388.172C719.939 386.206 721.218 384.139 722.343 381.989C723.487 379.846 724.528 377.646 725.5 375.416C726.024 374.329 726.454 373.2 726.785 372.04C727.087 370.883 727.279 369.701 727.361 368.509C727.527 363.651 727.251 358.789 726.536 353.982C725.925 349.153 725.122 344.346 724.216 339.559C722.406 329.984 720.24 320.475 717.879 311.018C715.543 301.554 713.029 292.136 710.338 282.763C708.992 278.078 707.654 273.392 706.178 268.757C704.79 264.12 703.073 259.588 701.04 255.195C700.073 253.044 698.716 251.091 697.038 249.434C695.227 247.905 693.185 246.673 690.986 245.786C689.88 245.263 688.776 244.726 687.682 244.153C687.121 243.851 686.612 243.642 686.091 243.403C685.552 243.198 684.988 243.023 684.427 242.851C682.1 242.254 679.728 241.848 677.335 241.637C667.63 240.903 657.886 240.818 648.17 241.383C638.429 241.776 628.698 242.426 618.977 243.332C618.953 243.335 618.929 243.328 618.911 243.312C618.892 243.297 618.88 243.275 618.877 243.251C618.875 243.227 618.882 243.203 618.897 243.184C618.912 243.165 618.934 243.153 618.958 243.15L618.958 243.15Z" fill="#2B2B2B"/>
</svg>
