<svg width="1134" height="891" viewBox="0 0 1134 891" fill="none" xmlns="http://www.w3.org/2000/svg">
<path d="M437.776 661.788L433.169 573.172C431.738 565.33 430.456 557.489 429.099 549.647L425.268 526.091C422.719 510.378 420.363 494.65 417.993 478.906C415.682 463.163 413.386 447.42 411.254 431.662L408.064 408.002C407.139 400.474 406.14 392.96 405.276 385.431C404.515 385.207 403.77 384.984 403.025 384.73L402.995 384.969L402.801 387.175C402.667 388.636 402.622 390.112 402.562 391.588C402.398 394.525 402.354 397.477 402.264 400.429C402.16 406.318 402.115 412.221 402.1 418.125C402.026 429.918 402.041 441.72 402.145 453.532C402.279 477.133 402.398 500.733 402.667 524.332L403.159 595.162L403.338 630.57V665.977C431.485 663.458 437.776 661.788 437.776 661.788ZM486.601 413.429C484.712 410.828 483.201 407.972 482.113 404.946C480.951 401.965 479.952 398.923 479.042 395.852C477.223 389.724 475.777 383.508 474.465 377.276C473.183 371.014 472.035 364.753 471.111 358.447C470.142 352.14 469.392 345.809 468.86 339.453C468.86 339.453 457.798 332.939 454.727 329.867C452.565 327.706 448.614 327.467 446.453 327.527C445.809 327.562 445.166 327.457 444.566 327.22C443.967 326.984 443.425 326.62 442.979 326.155C442.716 325.934 442.512 325.651 442.386 325.331C442.261 325.01 442.218 324.664 442.261 324.323C442.304 323.982 442.432 323.657 442.633 323.378C442.834 323.099 443.101 322.875 443.411 322.726C444.24 322.141 445.247 321.862 446.259 321.936C448.898 322.085 454.742 322.592 457.5 324.396C456.562 323.639 455.57 322.952 454.533 322.339C422.778 314.482 370.584 320.341 370.584 320.341C370.584 320.341 369.645 327.214 368.228 339.781C369.66 337.14 371.248 334.586 372.984 332.134C373.834 330.926 374.684 329.718 375.563 328.525C376.455 327.289 377.411 326.1 378.426 324.963C378.222 326.509 377.79 328.016 377.144 329.435C376.534 330.848 375.785 332.196 374.907 333.46C374.034 334.726 373.04 335.904 371.941 336.979C370.846 338.089 369.596 339.033 368.228 339.781C362.876 386.832 350.562 513.703 354.214 657.584C369.581 664.604 386.512 667.497 403.338 665.977C402.876 654.185 402.577 642.377 402.205 630.584L401.385 595.177C400.878 571.577 400.624 547.962 400.341 524.362C400.237 500.747 400.117 477.133 400.341 453.518C400.475 441.71 400.654 429.918 400.967 418.11C401.146 412.206 401.375 406.303 401.653 400.399C401.832 397.462 401.951 394.51 402.205 391.558C402.324 390.082 402.428 388.621 402.637 387.145L402.905 384.954L402.95 384.7C402.279 384.477 401.608 384.253 400.937 384.015C398.94 383.254 396.957 382.464 395.019 381.54C393.053 380.644 391.155 379.608 389.339 378.439C391.474 378.765 393.586 379.233 395.66 379.84C397.717 380.422 399.73 381.123 401.743 381.823C403.725 382.584 405.708 383.359 407.661 384.238C409.614 385.103 411.522 386.057 413.43 387.115C411.269 386.949 409.131 386.559 407.05 385.953C406.468 385.804 405.902 385.625 405.335 385.461C406.677 392.9 407.9 400.369 409.197 407.823L413.028 431.379C415.577 447.092 417.933 462.82 420.303 478.564C422.599 494.307 424.91 510.05 427.042 525.823L430.217 549.483C431.201 557.369 432.26 565.256 433.169 573.172L447.869 660.938C447.869 660.938 495.322 671.448 526.824 661.355C526.824 661.355 499.78 511.139 486.601 413.429ZM401.563 347.415C401.385 350.829 401.176 354.228 400.818 357.627C400.49 361.026 400.073 364.425 399.432 367.794C399.104 364.365 399.014 360.951 398.999 357.537C398.984 354.123 399.104 350.709 399.238 347.31C399.432 343.896 399.64 340.497 399.983 337.098C400.326 333.699 400.744 330.315 401.385 326.93C401.698 330.359 401.787 333.773 401.802 337.187C401.817 340.601 401.713 344.015 401.563 347.415ZM401.385 325.037C400.931 325.02 400.502 324.828 400.187 324.502C399.872 324.175 399.696 323.739 399.696 323.285C399.696 322.832 399.872 322.395 400.187 322.069C400.502 321.742 400.931 321.55 401.385 321.533C401.838 321.55 402.267 321.742 402.582 322.069C402.897 322.395 403.073 322.832 403.073 323.285C403.073 323.739 402.897 324.175 402.582 324.502C402.267 324.828 401.838 325.02 401.385 325.037ZM463.09 352.841C461.458 352.529 459.845 352.12 458.26 351.619C455.052 350.551 452.055 348.932 449.405 346.833C446.793 344.642 444.675 341.924 443.188 338.857C441.678 335.859 440.974 332.519 441.145 329.167C441.865 332.293 443.094 335.28 444.783 338.007C446.437 340.66 448.5 343.035 450.895 345.044C452.11 346.028 453.395 346.92 454.742 347.713C456.081 348.542 457.476 349.279 458.916 349.919C459.633 350.27 460.369 350.579 461.122 350.844L463.373 351.723C464.909 352.215 466.46 352.662 468.025 353.244C466.385 353.169 464.745 353.035 463.09 352.841ZM479.564 342.972C479.534 340.691 479.579 338.723 479.713 337.083L477.388 338.589C474.72 339.817 471.72 340.121 468.86 339.453C470.276 345.67 471.618 351.892 472.885 358.119L476.746 376.799C478.014 383.016 479.365 389.213 480.801 395.39C481.547 398.461 482.307 401.547 483.187 404.588C483.973 407.659 485.119 410.626 486.601 413.429C482.441 382.584 479.668 356.971 479.564 342.972H479.564Z" fill="#2B2B2B"/>
<path d="M475.255 317.732C475.08 313.002 473.088 308.522 469.694 305.224C464.118 302.093 467.935 311.008 468.143 311.515C468.069 311.441 467.756 311.113 467.234 310.651C466.906 309.026 466.608 307.311 466.325 305.552L466.28 305.284C465.475 300.215 464.789 294.669 464.237 288.869C464.24 288.814 464.235 288.759 464.222 288.705C463.724 277.698 465.008 266.683 468.024 256.086C470.231 247.558 475.165 247.275 475.165 247.275L504.982 280.446L476.417 314.049C475.663 315.13 475.258 316.415 475.255 317.732Z" fill="#FDB914"/>
<path d="M824.156 493.353C824.156 493.353 800.646 555.103 756.964 546.71C752.524 545.875 747.997 545.589 743.487 545.86C734.616 540.94 725.85 535.886 717.069 530.862C708.303 525.793 699.611 520.65 691.054 515.268C682.452 509.961 674.029 504.385 665.889 498.451C663.846 496.96 661.774 495.515 659.836 493.904C657.883 492.324 655.841 490.833 653.947 489.179L648.252 484.169C646.523 482.35 644.754 480.542 642.945 478.743C648.849 487.061 656.556 493.934 664.473 500.3C666.455 501.895 668.438 503.505 670.525 504.966L676.712 509.439C680.931 512.287 685.15 515.119 689.474 517.803C698.121 523.155 706.932 528.224 715.951 532.89C724.956 537.601 734.11 541.969 743.487 545.86C703.204 548.111 660.701 589.736 656.168 598.785C651.129 608.863 551.169 501.359 528.269 433.585C521.486 413.518 503.73 378.603 479.862 343.479C479.748 343.319 479.649 343.149 479.564 342.972C479.057 342.077 478.267 340.452 477.387 338.589L479.713 337.083C481.141 335.922 482.296 334.461 483.097 332.804C483.872 333.684 484.394 334.206 484.394 334.206C484.394 334.206 525.556 303.972 534.799 293.044C544.043 282.131 534.799 271.203 534.799 271.203C534.799 271.203 507.502 228.788 493.637 214.938C489.18 210.754 483.69 207.831 477.73 206.471C509.455 212.642 584.116 238.539 662.892 347.37C767.042 491.281 824.156 493.353 824.156 493.353Z" fill="#FDB914"/>
<path d="M343.271 750.895C344.345 750.851 345.418 750.821 346.477 750.731C332.731 752.133 315.914 750.269 310.875 734.511C312.043 732.484 313.586 730.697 315.422 729.248C315.779 728.916 316.201 728.663 316.662 728.505C317.123 728.347 317.612 728.288 318.097 728.332C318.582 728.376 319.053 728.521 319.478 728.758C319.904 728.996 320.274 729.32 320.566 729.71C321.97 731.482 323.132 733.433 324.024 735.51C325.083 737.627 326.157 739.788 327.394 741.935C328.678 744.175 330.372 746.152 332.388 747.764C334.5 749.298 336.968 750.268 339.559 750.582C340.788 750.767 342.028 750.872 343.271 750.895Z" fill="#2B2B2B"/>
<path d="M420.258 708.735C418.916 706.975 417.708 703.814 417.425 698.12C416.709 683.912 406.363 691.873 406.363 691.873C388.756 701.191 383.926 686.759 382.614 684.479C381.302 682.212 370.314 680.93 365.946 687.728C364.359 689.908 362.395 691.786 360.147 693.274C362.128 693.515 364.062 694.048 365.887 694.855C367.724 695.621 369.469 696.591 371.09 697.747C372.762 698.905 374.233 700.33 375.443 701.966C376.802 703.571 377.496 705.635 377.381 707.735C376.433 706.116 375.195 704.686 373.729 703.517C372.342 702.339 370.866 701.235 369.345 700.162L364.754 696.882C363.203 695.764 361.668 694.616 360.147 693.289C356.764 695.647 353.211 697.749 349.517 699.581C351.469 699.571 353.402 699.962 355.197 700.729C357.009 701.467 358.694 702.483 360.192 703.74C361.717 704.994 362.997 706.521 363.963 708.242C364.962 709.936 365.55 711.841 365.678 713.803C364.366 712.327 363.352 710.881 362.07 709.614C360.88 708.337 359.61 707.137 358.268 706.021C355.6 703.74 352.678 701.802 349.517 699.581C346.714 700.997 344.702 701.877 344.702 701.877C342.421 702.592 340.289 703.338 338.306 704.083C340.268 704.546 342.145 705.316 343.867 706.364C345.616 707.378 347.229 708.61 348.667 710.031C350.157 711.464 351.388 713.144 352.305 714.996C353.278 716.849 353.648 718.96 353.364 721.034C352.535 719.324 351.514 717.713 350.322 716.233C349.157 714.794 347.903 713.43 346.565 712.149C343.956 709.48 341.064 707.049 338.291 704.083C306.373 716.084 309.965 730.948 309.965 730.948C310.189 732.153 310.488 733.343 310.86 734.511C311.533 732.122 312.776 729.933 314.483 728.13C315.467 727.1 316.803 726.477 318.225 726.386C319.695 726.422 321.099 727.007 322.16 728.026C323.136 728.9 323.975 729.915 324.65 731.038C325.336 732.111 325.902 733.139 326.513 734.198C327.677 736.315 328.75 738.432 329.957 740.4C331.018 742.35 332.428 744.088 334.117 745.528C334.549 745.827 334.952 746.184 335.414 746.468L336.845 747.242C337.875 747.676 338.937 748.03 340.02 748.302C344.64 749.2 349.346 749.575 354.049 749.42C361.007 747.584 367.57 744.492 373.415 740.296C388.577 729.666 405.513 730.232 416.873 724.165C417.112 724.03 417.35 723.896 417.589 723.777C418.841 723.041 419.918 722.043 420.747 720.851C421.576 719.658 422.136 718.301 422.39 716.871C422.644 715.441 422.584 713.973 422.216 712.569C421.848 711.164 421.18 709.856 420.258 708.735ZM398.968 710.598C397.135 711.999 395.241 713.326 393.288 714.549C391.335 715.771 389.323 716.904 387.265 717.933C385.188 719.009 383.024 719.906 380.795 720.616C382.409 718.925 384.159 717.369 386.028 715.965C387.862 714.563 389.755 713.237 391.708 712.014C393.646 710.792 395.659 709.674 397.731 708.63C399.807 707.551 401.972 706.654 404.201 705.946C402.591 707.642 400.841 709.198 398.968 710.598Z" fill="#2B2B2B"/>
<path d="M346.477 750.731C346.835 750.701 347.192 750.656 347.55 750.627C347.342 750.642 347.148 750.672 346.939 750.701C346.79 750.716 346.626 750.731 346.477 750.731Z" fill="white"/>
<path d="M351.112 750.075C350.933 750.12 350.739 750.15 350.546 750.195C350.158 750.269 349.77 750.329 349.383 750.373C349.964 750.284 350.546 750.195 351.112 750.075Z" fill="white"/>
<path d="M382.617 684.485C382.744 681.41 382.974 678.404 383.049 675.391C383.174 672.374 383.03 669.351 382.617 666.36C383.852 669.214 384.399 672.318 384.214 675.422C384.144 678.507 383.605 681.563 382.617 684.485Z" fill="#2B2B2B"/>
<path d="M414.087 690.109C413.541 687.996 413.151 685.857 412.795 683.713C412.43 681.57 412.169 679.413 411.942 677.251C411.744 675.087 411.563 672.919 411.524 670.742C411.448 668.564 411.508 666.383 411.704 664.212L412.42 670.681L413.102 677.136C413.299 679.291 413.529 681.443 413.682 683.606C413.851 685.767 414.017 687.929 414.087 690.109Z" fill="#2B2B2B"/>
<path d="M398.567 151.681C398.481 155.136 398.068 158.575 397.333 161.952C396.913 163.584 396.645 165.25 396.53 166.931C396.426 168.635 396.435 170.343 396.558 172.045C395.985 170.394 395.668 168.665 395.62 166.918C395.569 165.162 395.762 163.407 396.194 161.705C396.927 158.369 397.603 155.009 398.567 151.681Z" fill="#2B2B2B"/>
<path d="M395.441 162.538C395.441 162.538 404.059 159.991 407.444 165.389C407.444 165.389 411.237 164.632 413.016 166.461C414.878 165.145 417.112 164.458 419.393 164.5C421.673 164.542 423.88 165.311 425.693 166.695C425.693 166.695 426.236 175.732 419.08 176.05C419.08 176.05 411.79 174.605 412.873 167.895C412.873 167.895 411.574 165.388 407.301 166.82C407.301 166.82 404.215 174.978 399.011 172.29C393.807 169.602 395.441 162.538 395.441 162.538Z" fill="#FDB914"/>
<path d="M406.691 210.616C409.447 210.887 412.185 211.318 414.891 211.904C417.694 212.443 420.458 213.168 423.164 214.074L424.644 214.603L423.577 215.549C421.72 217.196 419.77 218.751 418.024 220.506C416.277 222.264 414.62 224.109 413.06 226.035L412.764 226.39L412.251 226.147C410.81 225.466 409.364 224.792 407.954 224.057L403.745 221.816C402.34 221.071 400.943 220.314 399.571 219.512C398.195 218.718 396.845 217.879 395.496 217.038L393.653 215.888L395.555 215.034C399.189 213.371 402.906 211.896 406.691 210.616ZM406.716 210.848C403.248 213.203 399.929 215.201 396.573 217.069L396.632 215.066C398.037 215.811 399.44 216.558 400.817 217.351C402.198 218.136 403.554 218.965 404.902 219.807L408.952 222.325C410.295 223.176 411.603 224.09 412.915 224.994L412.107 225.107C413.99 223.495 415.79 221.79 417.501 219.997C419.209 218.205 420.712 216.214 422.308 214.314L422.721 215.789C420.021 215.298 417.36 214.62 414.754 213.759C412.111 212.928 409.463 212.018 406.716 210.848Z" fill="#2B2B2B"/>
<path d="M422.944 214.932L412.584 225.57L420.347 234.25L437.174 221.545L422.944 214.932Z" fill="#2B2B2B"/>
<path d="M402.052 185.763C403.154 187.65 404.071 189.639 404.79 191.702C405.536 193.76 406.123 195.872 406.546 198.02C406.986 200.167 407.241 202.348 407.309 204.538C407.399 206.723 407.264 208.912 406.905 211.069C406.798 209.977 406.845 208.899 406.707 207.821C406.648 206.744 406.56 205.672 406.414 204.605C406.153 202.472 405.846 200.348 405.403 198.248C404.998 196.141 404.488 194.053 403.938 191.971C403.378 189.89 402.74 187.83 402.052 185.763Z" fill="#2B2B2B"/>
<path d="M430.759 186.171C430.876 187.974 431.087 189.748 431.328 191.504C431.562 193.249 431.93 194.974 432.429 196.663C432.886 198.341 433.584 199.943 434.501 201.42C435.457 202.898 436.722 204.152 438.21 205.094C436.445 204.514 434.895 203.419 433.76 201.949C432.635 200.468 431.804 198.787 431.311 196.994C430.796 195.236 430.499 193.422 430.425 191.591C430.323 189.778 430.434 187.958 430.759 186.171Z" fill="#2B2B2B"/>
<path d="M396.099 216.163C393.354 217.207 390.629 218.271 387.991 219.528C385.333 220.721 382.738 222.051 380.217 223.511C375.154 226.338 370.427 229.729 366.126 233.62C357.406 241.411 349.708 250.277 343.219 260.005C341.618 262.445 340.165 264.98 338.868 267.594C338.56 268.225 338.307 268.881 338.111 269.554C337.942 270.244 337.82 270.943 337.745 271.649C337.591 273.054 337.63 274.472 337.86 275.866C337.975 276.558 338.135 277.242 338.339 277.913C338.441 278.255 338.55 278.565 338.67 278.884L339.132 279.884L340.929 283.907C342.139 286.583 343.267 289.291 344.437 291.982C349.136 302.739 353.341 313.683 357.221 324.777L356.766 324.473C357.885 324.556 358.997 324.717 360.093 324.955L363.316 325.634L366.526 326.314C367.587 326.551 368.664 326.716 369.748 326.808V327.041C368.643 327.022 367.542 326.927 366.451 326.758L363.198 326.255L359.958 325.75C358.902 325.58 357.836 325.482 356.766 325.456L356.457 325.457L356.312 325.151C351.255 314.534 346.523 303.767 342.285 292.813C341.221 290.077 340.115 287.356 339.091 284.605L337.536 280.486L337.161 279.451C337.044 279.075 336.932 278.685 336.846 278.318C336.306 276.083 336.216 273.762 336.582 271.492C336.7 270.743 336.869 270.002 337.087 269.275C337.335 268.549 337.646 267.847 338.017 267.175C339.42 264.552 340.973 262.056 342.603 259.603C345.874 254.712 349.238 249.886 352.829 245.204C356.385 240.47 360.368 236.071 364.726 232.063C366.941 230.069 369.288 228.226 371.75 226.546C374.222 224.902 376.791 223.409 379.443 222.074C382.088 220.745 384.799 219.552 387.566 218.501C390.336 217.485 393.163 216.629 396.032 215.94L396.099 216.163Z" fill="#2B2B2B"/>
<path d="M386.66 229.654C385.581 237.272 384.3 244.846 382.95 252.407C381.576 259.962 380.181 267.511 378.449 274.997C376.78 282.494 375.087 289.993 373.934 297.586C373.303 301.371 372.776 305.175 372.326 308.983C372.102 310.887 371.897 312.793 371.735 314.694C371.538 316.541 371.464 318.399 371.515 320.256L370.561 319.412C377.581 319.089 384.599 318.924 391.621 318.754C398.642 318.573 405.667 318.54 412.692 318.616C419.718 318.692 426.744 318.909 433.769 319.266C437.28 319.481 440.791 319.729 444.296 320.085C446.048 320.271 447.797 320.499 449.539 320.792C451.313 320.99 453.041 321.491 454.646 322.273L454.516 322.466C453.731 322.115 452.897 321.887 452.043 321.791C451.185 321.655 450.32 321.551 449.45 321.478C447.712 321.318 445.963 321.246 444.216 321.172C440.721 321.018 437.218 320.972 433.715 320.957C426.71 320.868 419.699 320.954 412.689 321.004L370.612 321.278L369.678 321.284L369.657 320.433C369.653 318.448 369.825 316.467 370.171 314.512C370.45 312.598 370.785 310.702 371.112 308.805L373.17 297.455C374.602 289.905 375.689 282.296 376.857 274.697C377.967 267.088 379.492 259.556 381.084 252.039C382.706 244.529 384.435 237.04 386.431 229.607L386.66 229.654Z" fill="#2B2B2B"/>
<path d="M364.374 378.381C362.499 376.941 360.953 375.117 359.841 373.031C359.27 371.996 358.754 370.932 358.296 369.843L357.625 368.199L357.087 366.516C355.735 362.009 354.957 357.349 354.772 352.648C354.673 350.31 354.722 347.975 354.758 345.644C354.967 343.324 355.031 340.993 355.37 338.692C355.705 336.393 356.026 334.094 356.493 331.823C357.019 329.56 357.534 327.302 358.182 325.075C358.188 327.407 358.063 329.707 357.947 332.001L357.69 338.87L357.581 345.705C357.631 347.974 357.604 350.249 357.748 352.506L357.932 355.892C357.994 357.022 358.188 358.131 358.278 359.257C358.356 360.386 358.535 361.495 358.723 362.604C358.892 363.718 359.071 364.829 359.328 365.921C360.07 370.396 361.793 374.651 364.374 378.381Z" fill="#2B2B2B"/>
<path d="M365.365 363.681C363.923 363.644 362.548 363.065 361.515 362.058C360.55 361.101 359.872 359.891 359.56 358.568C359.08 356.077 359.003 353.526 359.33 351.011L360.254 336.174L360.122 351.034C359.937 353.45 360.121 355.881 360.666 358.242C360.969 359.334 361.574 360.32 362.41 361.085C363.204 361.79 364.227 362.183 365.288 362.192L365.365 363.681Z" fill="#2B2B2B"/>
<path d="M451.238 756.277C449.999 756.391 448.754 756.416 447.511 756.352C444.9 756.305 442.345 755.591 440.087 754.279C437.921 752.881 436.04 751.085 434.541 748.987C433.08 746.974 431.798 744.932 430.516 742.934C429.425 740.952 428.071 739.126 426.49 737.507C425.815 736.841 424.919 736.443 423.971 736.389C422.975 736.439 422.034 736.859 421.332 737.567C419.657 739.206 418.302 741.142 417.337 743.277C423.956 758.379 440.758 758.573 454.25 755.83C453.266 755.994 452.252 756.128 451.238 756.277ZM523.544 706.543C522.038 704.918 520.518 701.891 519.653 696.271C517.491 682.212 508.01 691.157 508.01 691.157C491.446 702.219 485.17 688.354 483.634 686.223C482.114 684.091 471.037 683.942 467.384 691.142C466.027 693.464 464.271 695.528 462.196 697.24C464.183 697.282 466.152 697.619 468.04 698.239C469.944 698.817 471.779 699.602 473.511 700.579C475.294 701.566 476.905 702.835 478.282 704.336C479.791 705.801 480.691 707.782 480.802 709.882C479.685 708.376 478.307 707.083 476.732 706.066C475.226 705.037 473.661 704.083 472.036 703.174L467.131 700.37C465.476 699.417 463.836 698.433 462.181 697.255C459.06 699.939 455.746 702.39 452.267 704.59C454.199 704.388 456.152 704.581 458.007 705.157C459.884 705.715 461.664 706.56 463.284 707.661C464.925 708.758 466.354 710.141 467.503 711.746C468.663 713.334 469.434 715.172 469.755 717.112C468.308 715.771 467.146 714.429 465.744 713.311C464.432 712.16 463.048 711.094 461.6 710.12C458.708 708.123 455.621 706.483 452.252 704.605C449.598 706.304 447.69 707.378 447.69 707.378C445.498 708.332 443.441 709.271 441.533 710.225C443.538 710.486 445.49 711.059 447.317 711.924C449.157 712.758 450.885 713.82 452.461 715.085C454.092 716.356 455.485 717.905 456.576 719.662C457.735 721.401 458.319 723.461 458.245 725.551C457.247 723.931 456.066 722.43 454.727 721.078C453.423 719.771 452.039 718.546 450.583 717.411C447.705 715.025 444.589 712.894 441.533 710.225C411.001 725.387 416.084 739.819 416.084 739.819C416.422 740.999 416.841 742.154 417.337 743.277C417.765 740.831 418.777 738.524 420.289 736.553C421.159 735.429 422.42 734.673 423.822 734.436C425.294 734.328 426.755 734.769 427.922 735.674C428.974 736.448 429.908 737.373 430.695 738.417C431.485 739.415 432.141 740.385 432.856 741.368C434.243 743.351 435.525 745.364 436.926 747.198C438.176 749.031 439.753 750.618 441.578 751.879C442.04 752.133 442.487 752.446 442.964 752.684L444.47 753.31C445.541 753.625 446.632 753.869 447.735 754.041C452.433 754.458 457.164 754.348 461.838 753.713C468.56 751.177 474.763 747.439 480.146 742.681C494.16 730.575 511.066 729.412 521.74 722.226C521.979 722.077 522.202 721.913 522.411 721.764C523.584 720.908 524.556 719.808 525.262 718.539C525.967 717.27 526.388 715.863 526.496 714.415C526.604 712.967 526.396 711.514 525.886 710.154C525.376 708.795 524.577 707.563 523.544 706.543ZM502.553 710.553C500.869 712.133 499.119 713.634 497.305 715.055C495.486 716.472 493.608 717.784 491.655 719.036C489.699 720.313 487.639 721.425 485.498 722.36C486.932 720.516 488.512 718.791 490.224 717.202C491.909 715.622 493.658 714.121 495.471 712.7C497.29 711.284 499.174 709.957 501.122 708.719C503.078 707.428 505.143 706.311 507.294 705.38C505.859 707.232 504.273 708.963 502.553 710.553Z" fill="#2B2B2B"/>
<path d="M455.547 755.561C455.323 755.606 455.084 755.666 454.861 755.726C454.697 755.755 454.548 755.785 454.384 755.8C454.771 755.726 455.159 755.651 455.547 755.561Z" fill="white"/>
<path d="M452.266 704.589L452.251 704.605C452.251 704.603 452.25 704.601 452.25 704.599C452.249 704.597 452.248 704.595 452.247 704.594C452.245 704.592 452.243 704.591 452.242 704.591C452.24 704.59 452.238 704.589 452.236 704.589H452.266Z" fill="white"/>
<path d="M462.195 697.24L462.18 697.255C462.18 697.253 462.18 697.251 462.179 697.249C462.178 697.247 462.177 697.245 462.176 697.244C462.174 697.243 462.173 697.242 462.171 697.241C462.169 697.24 462.167 697.24 462.165 697.24H462.195Z" fill="white"/>
<path d="M480.795 690.109L481.497 684.042C481.716 682.024 481.952 680.016 482.118 678.004C482.321 675.994 482.408 673.983 482.445 671.974C482.521 669.956 482.305 667.938 481.803 665.982C482.74 667.833 483.265 669.865 483.341 671.939C483.499 673.992 483.479 676.056 483.28 678.106C483.097 680.147 482.796 682.176 482.38 684.183C481.983 686.191 481.454 688.171 480.795 690.109Z" fill="#2B2B2B"/>
<path d="M515.518 693.27C514.81 690.952 514.246 688.604 513.709 686.25C513.161 683.898 512.714 681.527 512.286 679.151C511.886 676.771 511.5 674.387 511.239 671.983C510.938 669.582 510.762 667.168 510.712 664.749C511.215 667.118 511.67 669.481 512.126 671.847C512.594 674.21 513.01 676.581 513.435 678.951C513.832 681.326 514.249 683.698 514.587 686.086C514.94 688.471 515.282 690.859 515.518 693.27Z" fill="#2B2B2B"/>
<path d="M395.348 152.1C395.348 152.1 398.334 155.289 400.827 146.865C400.827 146.865 402.284 143.138 406.783 146.169C406.783 146.169 409.993 148.141 411.546 144.992C411.903 144.588 412.339 144.261 412.828 144.032C413.317 143.804 413.847 143.679 414.387 143.665C414.926 143.651 415.462 143.748 415.962 143.951C416.462 144.154 416.915 144.458 417.292 144.843C417.292 144.843 418.325 145.876 420.707 144.771C423.088 143.667 426.968 141.008 428.578 142.976C430.189 144.944 427.96 146.064 429.852 148.318C431.743 150.572 433.972 149.968 433.354 152.539C432.736 155.11 434.74 156.756 434.439 159.256C434.137 161.756 433.209 176.222 431.215 177.572C429.197 179.295 427.404 181.267 425.88 183.44C425.052 184.494 419.194 185.251 417.548 183.125C416.359 181.715 414.892 180.566 413.238 179.751C413.238 179.751 409.884 177.145 407.4 178.755C407.4 178.755 402.309 175.975 399.171 179.999C399.171 179.999 396.743 180.014 396.477 178.026C396.347 176.033 396.375 174.034 396.558 172.045C396.558 172.045 395.321 171.509 395.281 179.146C395.241 186.782 399.179 199.566 399.889 200.205C400.6 200.844 406.617 204.697 419.196 200.739C431.775 196.781 433.753 189.389 434.355 187.488C435.002 183.598 435.395 179.671 435.53 175.731C435.57 174.289 435.099 167.634 439.29 163.922C439.29 163.922 442.04 161.202 443.441 162.685C443.441 162.685 446.374 157.394 445.547 147.946C445.467 147.043 445.198 146.167 444.757 145.375C444.316 144.583 443.713 143.893 442.987 143.35C442.854 143.251 442.721 143.152 442.587 143.055C441.352 142.124 440.523 140.753 440.273 139.227C440.204 138.721 440.036 138.234 439.778 137.793C439.521 137.352 439.179 136.967 438.772 136.658C438.365 136.35 437.901 136.125 437.407 135.997C436.912 135.869 436.398 135.839 435.892 135.911C430.31 135.973 426.874 134.197 425.162 134.794C423.45 135.391 415.803 131.323 408.892 136.415C405.768 138.948 402.216 140.902 398.404 142.183C397.095 142.878 390.901 147.009 395.348 152.1Z" fill="#2B2B2B"/>
<path d="M443.44 162.685C444.188 163.212 444.699 164.011 444.864 164.911C445.007 165.838 444.878 166.786 444.493 167.641C443.877 169.233 443.35 170.858 442.912 172.509C442.367 174.219 441.49 175.805 440.331 177.176C439.713 177.88 438.904 178.391 438.001 178.645C437.107 178.836 436.173 178.675 435.395 178.195C436.192 178.444 437.051 178.411 437.826 178.1C438.549 177.758 439.171 177.238 439.636 176.588C440.577 175.216 441.31 173.712 441.811 172.125C442.112 171.325 442.313 170.544 442.593 169.678C442.88 168.838 443.242 168.026 443.674 167.251C444.118 166.561 444.335 165.75 444.293 164.93C444.251 164.111 443.953 163.325 443.44 162.685Z" fill="#2B2B2B"/>
<path d="M402.792 166.724C403.125 166.713 403.441 166.573 403.672 166.333C403.904 166.093 404.033 165.773 404.033 165.44C404.033 165.107 403.904 164.787 403.672 164.547C403.441 164.308 403.125 164.167 402.792 164.156C402.459 164.167 402.144 164.308 401.913 164.547C401.681 164.787 401.552 165.107 401.552 165.44C401.552 165.773 401.681 166.093 401.913 166.333C402.144 166.573 402.459 166.713 402.792 166.724Z" fill="#FDB914"/>
<path d="M418.691 168.828C419.024 168.817 419.339 168.676 419.571 168.437C419.802 168.197 419.932 167.877 419.932 167.544C419.932 167.211 419.802 166.891 419.571 166.651C419.339 166.412 419.024 166.271 418.691 166.26C418.358 166.271 418.043 166.412 417.811 166.651C417.58 166.891 417.45 167.211 417.45 167.544C417.45 167.877 417.58 168.197 417.811 168.437C418.043 168.676 418.358 168.817 418.691 168.828Z" fill="#FDB914"/>
<path d="M397.308 159.141C399.145 158.69 401.06 158.671 402.905 159.086C403.834 159.291 404.734 159.609 405.586 160.033C406.44 160.466 407.194 161.071 407.802 161.811C406.143 161.114 404.42 160.583 402.657 160.225C400.913 159.84 399.146 159.565 397.308 159.141Z" fill="#2B2B2B"/>
<path d="M413.426 162.372C415.408 161.708 417.505 161.456 419.588 161.63C421.697 161.722 423.739 162.396 425.489 163.576C423.51 163.194 421.51 162.932 419.5 162.792C417.503 162.636 415.504 162.573 413.426 162.372Z" fill="#2B2B2B"/>
<path d="M405.057 173.789C405.334 174.18 405.658 174.535 406.022 174.847C406.349 175.125 406.702 175.373 407.076 175.585C407.819 176.04 408.662 176.369 409.597 176.927C409.089 177.099 408.55 177.157 408.018 177.098C407.475 177.035 406.952 176.861 406.48 176.588C405.992 176.301 405.587 175.893 405.305 175.402C405.012 174.918 404.924 174.338 405.057 173.789Z" fill="#2B2B2B"/>
<path d="M440.916 162.706C438.504 163.765 436.007 164.62 433.452 165.264C430.911 165.958 428.315 166.437 425.693 166.695C428.105 165.633 430.601 164.778 433.157 164.137C435.699 163.445 438.294 162.966 440.916 162.706Z" fill="#FDB914"/>
<path d="M420.346 234.25C420.346 234.25 397.559 280.447 397.302 291.787L404.984 302.628L419.626 293.467C419.626 293.467 423.489 243.91 420.346 234.25Z" fill="#FDB914"/>
<path d="M468.09 311.537C467.121 310.148 466.477 308.557 466.207 306.884C466.141 306.429 466.156 305.967 466.252 305.517C466.298 305.246 466.415 304.992 466.592 304.781C466.769 304.57 466.999 304.41 467.258 304.318C467.729 304.228 468.216 304.297 468.644 304.514C469.045 304.676 469.41 304.876 469.782 305.067L469.796 305.075L469.808 305.085C470.724 305.857 471.569 306.708 472.335 307.628C473.071 308.581 473.697 309.614 474.201 310.708C475.15 312.918 475.539 315.329 475.331 317.726L475.324 317.698L475.329 317.821H475.212L475.187 317.766L475.18 317.738C475.004 317.168 474.871 316.602 474.723 316.044C474.539 315.492 474.417 314.932 474.232 314.391C473.902 313.296 473.465 312.251 473.061 311.197C472.642 310.143 472.148 309.12 471.583 308.136C471.07 307.109 470.394 306.173 469.581 305.363L469.607 305.38C468.951 304.998 468.029 304.659 467.495 304.948C467.056 305.191 467.178 306.028 467.246 306.755C467.441 308.286 467.903 309.854 468.198 311.493L468.09 311.537Z" fill="#2B2B2B"/>
<path d="M459.842 318.83C457.971 317.147 456.137 315.422 454.214 313.873C453.75 313.49 453.257 313.145 452.739 312.841C452.513 312.705 452.266 312.609 452.008 312.555L451.102 312.381C449.894 312.157 448.674 312.008 447.448 311.934C446.215 311.86 444.947 311.904 443.671 311.773C443.323 311.777 442.98 311.698 442.67 311.543C442.359 311.387 442.09 311.161 441.884 310.881C441.687 310.594 441.57 310.261 441.544 309.914C441.517 309.567 441.583 309.22 441.733 308.906C442.335 307.721 443.379 306.82 444.64 306.398C445.844 305.936 447.102 305.629 448.384 305.485L447.998 306.053C447.823 305.483 447.785 304.88 447.888 304.292C447.94 303.974 448.055 303.67 448.226 303.397C448.397 303.124 448.622 302.888 448.885 302.703C449.906 302.124 451.095 301.917 452.25 302.119C454.352 302.425 456.394 303.053 458.304 303.983C460.192 304.887 461.985 305.978 463.656 307.24C465.315 308.493 466.838 309.917 468.201 311.489L468.118 311.571C466.548 310.255 464.892 309.046 463.16 307.952C461.457 306.851 459.666 305.891 457.807 305.081C455.981 304.266 454.068 303.661 452.106 303.278C451.226 303.086 450.307 303.189 449.492 303.573C449.169 303.832 448.933 304.185 448.817 304.582C448.701 304.98 448.71 305.403 448.843 305.796L448.968 306.341L448.457 306.365C447.229 306.39 446.011 306.576 444.832 306.919C444.247 307.058 443.698 307.32 443.223 307.688C442.747 308.056 442.355 308.521 442.073 309.052C441.951 309.307 441.9 309.591 441.925 309.874C441.951 310.156 442.052 310.426 442.218 310.655C442.385 310.885 442.61 311.065 442.87 311.177C443.131 311.29 443.416 311.329 443.697 311.293C444.932 311.298 446.175 311.129 447.454 311.085C448.739 311.024 450.027 311.114 451.291 311.352C451.609 311.4 451.919 311.482 452.232 311.553C452.586 311.641 452.925 311.786 453.234 311.981C453.787 312.333 454.311 312.728 454.801 313.164C456.684 314.858 458.401 316.729 459.928 318.751L459.842 318.83Z" fill="#2B2B2B"/>
<path d="M459.857 318.847L459.841 318.834L459.851 318.842C456.783 317.468 453.599 316.368 450.337 315.555C448.725 315.075 447.063 314.779 445.385 314.67C444.546 314.62 443.704 314.662 442.875 314.796C442.49 314.818 442.114 314.915 441.767 315.083C441.42 315.25 441.11 315.485 440.854 315.773C440.554 316.304 441.039 317.067 441.551 317.55C442.108 318.038 442.808 318.333 443.546 318.389C445.282 318.418 447.006 318.673 448.675 319.147C452.008 320.135 455.049 321.921 457.535 324.351L457.462 324.442C454.646 322.621 451.569 321.239 448.337 320.344C446.733 319.896 445.088 319.607 443.428 319.48C442.46 319.365 441.563 318.913 440.895 318.204C440.559 317.85 440.306 317.426 440.152 316.964C440.056 316.713 440.02 316.443 440.048 316.177C440.077 315.91 440.168 315.653 440.314 315.428C440.984 314.772 441.88 314.4 442.817 314.39C443.673 314.305 444.533 314.272 445.392 314.293C447.114 314.247 448.838 314.352 450.542 314.606C453.944 315.241 457.153 316.656 459.916 318.739L459.926 318.747L459.927 318.747L459.94 318.764L459.857 318.847Z" fill="#2B2B2B"/>
<path d="M483.15 332.827C482.052 335.551 479.997 337.78 477.371 339.094C476.036 339.728 474.6 340.12 473.128 340.252C471.666 340.368 470.194 340.252 468.768 339.909L468.674 339.887L468.623 339.854L458.523 333.123C457.687 332.553 456.842 331.991 456.021 331.389C455.193 330.808 454.422 330.026 453.67 329.532C451.969 328.597 450.059 328.106 448.118 328.105C447.628 328.082 447.137 328.083 446.646 328.099C446.092 328.131 445.537 328.088 444.995 327.971C443.843 327.741 442.824 327.073 442.153 326.108C441.758 325.573 441.576 324.912 441.64 324.251C441.759 323.61 442.097 323.03 442.598 322.612C443.454 321.829 444.569 321.389 445.729 321.376C447.783 321.476 449.826 321.74 451.838 322.163C453.863 322.503 455.799 323.245 457.532 324.346L457.559 324.396C457.563 324.378 457.53 324.346 457.514 324.353V324.469C457.482 324.477 457.434 324.431 457.439 324.397L457.466 324.446C455.646 323.617 453.701 323.098 451.71 322.909C449.743 322.653 447.762 322.514 445.779 322.491C444.082 322.563 442.066 324.131 443.181 325.407C443.682 326.115 444.425 326.614 445.27 326.809C445.713 326.919 446.169 326.965 446.626 326.949C447.143 326.947 447.663 326.961 448.18 327C450.298 327.061 452.359 327.701 454.138 328.852C455.019 329.545 455.603 330.287 456.393 330.92C457.166 331.555 457.943 332.196 458.765 332.777C462.057 335.108 465.509 337.205 469.095 339.053L468.95 338.998C471.645 339.539 474.439 339.287 476.993 338.272C478.249 337.715 479.405 336.955 480.415 336.023C481.448 335.08 482.334 333.987 483.043 332.781L483.15 332.827Z" fill="#2B2B2B"/>
<path d="M448.508 305.349C449.945 305.649 451.36 306.046 452.744 306.538C454.123 307.014 455.465 307.594 456.757 308.272C459.398 309.532 461.61 311.539 463.119 314.045C461.477 311.684 459.175 309.858 456.502 308.797C455.199 308.222 453.855 307.746 452.481 307.373C451.119 306.99 449.733 306.699 448.333 306.502L448.508 305.349Z" fill="#2B2B2B"/>
<path d="M466.285 305.953L466.201 305.583L466.198 305.573C465.596 302.809 465.057 300.016 464.651 297.207C464.442 295.802 464.26 294.393 464.102 292.98L463.887 290.858L463.723 288.83L463.708 288.73C463.215 281.192 463.608 273.622 464.881 266.176C465.516 262.441 466.366 258.8 467.352 255.122C467.866 253.201 468.714 251.385 469.857 249.756C470.462 248.863 471.237 248.098 472.138 247.504C473.039 246.911 474.049 246.501 475.108 246.298L475.537 246.231L475.893 246.621C480.898 252.117 485.9 257.616 490.823 263.186L498.24 271.513L505.578 279.909L506.047 280.446L505.593 280.966L491.07 297.564L476.685 314.277L476.704 314.252C476.208 315.027 475.872 315.892 475.715 316.798C475.557 317.704 475.582 318.632 475.788 319.529C476.174 321.38 476.853 323.158 477.799 324.795C479.694 328.116 482.024 331.168 484.728 333.871L484.113 333.824C495.905 324.862 507.611 315.759 518.931 306.238C521.749 303.846 524.546 301.43 527.272 298.956C528.648 297.729 529.977 296.464 531.27 295.174C531.945 294.546 532.527 293.865 533.14 293.203C533.437 292.867 533.764 292.545 534.036 292.198L534.813 291.142C535.835 289.746 536.624 288.194 537.151 286.546C537.611 284.896 537.791 283.182 537.684 281.473C537.322 278.019 535.995 274.736 533.854 272.001L533.784 271.912L533.758 271.872C529.784 265.73 525.734 259.627 521.61 253.563C517.5 247.499 513.262 241.525 509.003 235.574C504.709 229.655 500.335 223.771 495.543 218.299C494.3 216.992 493.116 215.578 491.801 214.411C490.476 213.217 489.04 212.153 487.511 211.235C484.405 209.398 481.061 207.997 477.573 207.072L477.729 207.091L477.699 207.091L477.612 207.09L477.543 207.071C473.445 205.99 469.251 205.309 465.021 205.038C460.772 204.742 456.506 204.806 452.267 205.229L452.234 204.999C456.48 204.391 460.77 204.144 465.057 204.26C469.369 204.333 473.659 204.873 477.855 205.87L477.699 205.85L477.729 205.85L477.8 205.849L477.885 205.87C481.525 206.724 485.031 208.075 488.303 209.885C489.949 210.809 491.501 211.89 492.939 213.113C494.403 214.347 495.595 215.745 496.905 217.069C501.881 222.549 506.375 228.38 510.8 234.253C515.229 240.125 519.417 246.165 523.588 252.21C527.741 258.272 531.824 264.38 535.838 270.534L535.742 270.404C538.189 273.549 539.68 277.331 540.038 281.3C540.148 283.297 539.917 285.298 539.355 287.217C538.738 289.099 537.821 290.869 536.638 292.457L535.754 293.629C535.45 294.006 535.111 294.333 534.791 294.688C534.14 295.379 533.506 296.1 532.816 296.729C531.473 298.042 530.101 299.314 528.702 300.544C525.927 303.038 523.046 305.386 520.166 307.732C508.588 317.041 496.694 325.896 484.674 334.587L484.334 334.833L484.058 334.54C482.722 333.121 481.462 331.63 480.285 330.076C479.099 328.527 478.033 326.889 477.095 325.177C476.123 323.458 475.432 321.595 475.047 319.658C474.833 318.666 474.819 317.641 475.004 316.643C475.19 315.646 475.573 314.695 476.13 313.847L476.14 313.833L476.149 313.822L490.328 296.932L504.37 279.926L504.385 280.982L496.815 272.793L489.323 264.535C484.308 259.048 479.37 253.49 474.437 247.929L475.221 248.252C474.476 248.391 473.771 248.696 473.16 249.144C472.481 249.637 471.879 250.227 471.372 250.895C470.348 252.333 469.583 253.938 469.111 255.639C468.104 259.182 467.26 262.847 466.515 266.476C465.077 273.785 464.48 281.235 464.736 288.68L464.721 288.581C464.745 288.791 464.758 289.003 464.76 289.215L464.778 289.736L464.824 290.792L464.948 292.904C465.045 294.311 465.168 295.717 465.317 297.122C465.617 299.932 466.009 302.728 466.449 305.53L466.447 305.521L466.512 305.896L466.285 305.953Z" fill="#2B2B2B"/>
<path d="M438.241 205.206C435.825 207.259 433.409 209.11 430.957 210.846C428.543 212.604 426.037 214.23 423.448 215.717L423.336 214.085C425.636 215.341 427.889 216.697 430.22 217.888C432.559 219.063 434.959 220.113 437.409 221.036L436.758 221.166L440.252 216.805C441.429 215.362 442.659 213.97 443.889 212.575C446.328 209.77 448.827 207.018 451.385 204.321L452.243 206.276L438.241 205.206ZM438.176 204.982L452.246 203.942L455.024 203.737L453.104 205.898C450.635 208.676 448.11 211.403 445.528 214.079C444.245 215.424 442.964 216.77 441.628 218.067L437.586 221.924L437.26 222.235L436.935 222.054C434.651 220.776 432.3 219.619 429.894 218.588C427.481 217.576 424.991 216.727 422.548 215.779L421.03 215.189L422.436 214.146C424.933 212.356 427.523 210.698 430.194 209.179C432.83 207.636 435.503 206.207 438.176 204.982L438.176 204.982Z" fill="#2B2B2B"/>
<path d="M378.466 270.823C377.191 271.937 375.857 272.981 374.469 273.95C373.132 274.851 371.922 275.928 370.874 277.153C369.744 278.342 368.881 279.759 368.341 281.308C367.84 282.889 367.75 284.571 368.079 286.196C368.884 289.35 369.922 292.647 370.64 295.911C371.37 299.209 371.905 302.548 372.242 305.909L372.097 305.943C370.907 302.781 369.903 299.553 369.092 296.274C368.688 294.64 368.365 292.987 368.031 291.336C367.648 289.673 367.392 287.983 367.267 286.281C367.226 284.559 367.431 282.839 367.876 281.175C368.254 279.47 368.938 277.849 369.896 276.389C370.929 274.957 372.283 273.787 373.851 272.974C375.32 272.133 376.834 271.373 378.386 270.697L378.466 270.823Z" fill="#2B2B2B"/>
</svg>
