<svg width="876" height="689" viewBox="0 0 876 689" fill="none" xmlns="http://www.w3.org/2000/svg">
<path d="M363.463 219.998C363.656 220.349 363.85 220.713 364.068 221.065C364.165 221.246 364.286 221.428 364.371 221.598C364.432 221.755 364.492 221.937 364.541 222.107C364.759 222.822 364.952 223.598 365.134 224.35L366.248 228.921C366.599 230.448 366.939 231.976 367.253 233.503C367.447 234.522 367.641 235.528 367.762 236.595L330.315 200.127C333.664 192.938 335.866 185.268 336.843 177.396C342.656 180.16 350.092 183.591 360.132 187.761C376.809 194.684 381.29 230.521 381.29 230.521C381.29 230.521 373.6 232.218 369.264 230.957C369.193 230.077 369.068 229.203 368.888 228.339C368.56 226.694 368.048 225.092 367.362 223.562C367.015 222.778 366.598 222.027 366.115 221.319C365.994 221.137 365.849 220.955 365.691 220.761L365.364 220.264C365.134 219.937 364.928 219.598 364.722 219.258C363.027 216.53 361.416 213.706 359.829 210.893L355.046 202.419C356.354 205.389 357.698 208.343 359.079 211.281C360.483 214.203 361.888 217.124 363.463 219.998ZM378.88 230.181C379.351 230.165 379.796 229.966 380.123 229.626C380.45 229.287 380.633 228.834 380.633 228.363C380.633 227.891 380.45 227.438 380.123 227.099C379.796 226.76 379.351 226.561 378.88 226.544C378.409 226.561 377.964 226.76 377.637 227.099C377.31 227.438 377.127 227.891 377.127 228.363C377.127 228.834 377.31 229.287 377.637 229.626C377.964 229.966 378.409 230.165 378.88 230.181ZM372.921 230.181C373.392 230.165 373.838 229.966 374.165 229.626C374.492 229.287 374.674 228.834 374.674 228.363C374.674 227.891 374.492 227.438 374.165 227.099C373.838 226.76 373.392 226.561 372.921 226.544C372.451 226.561 372.005 226.76 371.678 227.099C371.351 227.438 371.168 227.891 371.168 228.363C371.168 228.834 371.351 229.287 371.678 229.626C372.005 229.966 372.451 230.165 372.921 230.181Z" fill="#2B2B2B"/>
<path d="M367.863 238.253C365.846 239.134 363.704 239.696 361.514 239.917C360.464 240.007 359.407 239.967 358.367 239.799C357.29 239.667 356.241 239.331 355.051 239.067C355.838 240.002 356.848 240.723 357.987 241.166C359.146 241.645 360.404 241.839 361.653 241.729C362.895 241.635 364.101 241.273 365.189 240.669C366.267 240.099 367.187 239.269 367.863 238.253Z" fill="#2B2B2B"/>
<path d="M474.92 296.219C475.113 294.557 475.21 292.885 475.211 291.212L474.92 296.219Z" fill="#2B2B2B"/>
<path d="M474.835 297.698L474.92 296.219C474.614 299.534 473.625 302.75 472.013 305.663C475.077 301.165 474.835 297.698 474.835 297.698Z" fill="#2B2B2B"/>
<path d="M471.904 305.832C471.517 306.402 471.069 306.984 470.572 307.578C471.073 307.042 471.519 306.457 471.904 305.832Z" fill="#2B2B2B"/>
<path d="M216.508 328.031L664.614 324.988V317.653C627.325 318.247 590.035 318.696 552.745 318.999C515.456 319.411 478.166 319.545 440.876 319.763C403.587 320.029 366.285 320.042 328.995 320.114L273.054 320.175L217.55 320.054L216.508 328.031Z" fill="#2B2B2B"/>
<path d="M145.125 276.117V283.646L216.508 328.03L216.641 319.896L198.789 309.033L180.89 298.085L145.125 276.117Z" fill="#2B2B2B"/>
<path d="M384.401 296.444L381.979 296.488" stroke="#FDB914" stroke-width="1.93554" stroke-miterlimit="10"/>
<path d="M376.997 296.578L319.7 297.612" stroke="#FDB914" stroke-width="1.93554" stroke-miterlimit="10" stroke-dasharray="3.98 3.98"/>
<path d="M317.209 297.657L314.788 297.701" stroke="#FDB914" stroke-width="1.93554" stroke-miterlimit="10"/>
<path d="M381.752 292.106L379.33 292.15" stroke="#FDB914" stroke-width="1.93554" stroke-miterlimit="10"/>
<path d="M374.348 292.24L317.051 293.274" stroke="#FDB914" stroke-width="1.93554" stroke-miterlimit="10" stroke-dasharray="3.98 3.98"/>
<path d="M314.56 293.319L312.138 293.363" stroke="#FDB914" stroke-width="1.93554" stroke-miterlimit="10"/>
<path d="M378.554 287.822L376.132 287.866" stroke="#FDB914" stroke-width="1.93554" stroke-miterlimit="10"/>
<path d="M371.15 287.956L313.854 288.99" stroke="#FDB914" stroke-width="1.93554" stroke-miterlimit="10" stroke-dasharray="3.98 3.98"/>
<path d="M311.361 289.035L308.94 289.079" stroke="#FDB914" stroke-width="1.93554" stroke-miterlimit="10"/>
<path d="M584.874 283.082C584.251 300.668 583.839 318.254 583.314 335.84L582.144 388.597C581.93 397.39 581.684 406.183 581.404 414.976C581.155 423.769 581.142 432.562 581.365 441.354L581.823 454.544C582.054 458.94 582.209 463.337 582.521 467.733C583.063 476.526 583.756 485.319 584.874 494.112C584.886 494.207 584.932 494.294 585.004 494.357C585.075 494.421 585.168 494.456 585.263 494.456C585.359 494.456 585.451 494.421 585.523 494.357C585.595 494.294 585.641 494.207 585.653 494.112C586.771 485.319 587.463 476.526 588.005 467.733C588.318 463.337 588.473 458.94 588.704 454.544L589.162 441.354C589.388 432.562 589.375 423.769 589.123 414.976C588.834 406.183 588.587 397.39 588.382 388.597L587.213 335.84C586.688 318.254 586.276 300.668 585.653 283.082C585.65 282.981 585.607 282.886 585.534 282.815C585.461 282.745 585.364 282.706 585.263 282.706C585.162 282.706 585.065 282.745 584.993 282.815C584.92 282.886 584.877 282.981 584.874 283.082H584.874Z" fill="#2B2B2B"/>
<path d="M654.632 327.895C654.01 345.481 653.598 363.067 653.073 380.653L651.903 433.41C651.689 442.203 651.442 450.996 651.162 459.789C650.914 468.582 650.901 477.374 651.123 486.167L651.581 499.357C651.813 503.753 651.968 508.15 652.28 512.546C652.822 521.339 653.515 530.132 654.632 538.925C654.644 539.02 654.69 539.107 654.762 539.171C654.834 539.234 654.926 539.269 655.022 539.269C655.118 539.269 655.21 539.234 655.282 539.171C655.354 539.107 655.4 539.02 655.412 538.925C656.529 530.132 657.222 521.339 657.764 512.546C658.076 508.15 658.231 503.753 658.463 499.357L658.921 486.167C659.147 477.374 659.134 468.582 658.882 459.789C658.593 450.996 658.346 442.203 658.141 433.41L656.971 380.653C656.447 363.067 656.035 345.481 655.412 327.895C655.408 327.794 655.366 327.698 655.293 327.628C655.22 327.558 655.123 327.519 655.022 327.519C654.921 327.519 654.824 327.558 654.751 327.628C654.679 327.698 654.636 327.794 654.632 327.895H654.632Z" fill="#2B2B2B"/>
<path d="M154.206 283.082C153.584 300.668 153.172 318.254 152.647 335.84L151.477 388.597C151.263 397.39 151.016 406.183 150.737 414.976C150.488 423.769 150.475 432.562 150.697 441.354L151.156 454.544C151.387 458.94 151.542 463.337 151.854 467.733C152.396 476.526 153.089 485.319 154.207 494.112C154.219 494.207 154.265 494.294 154.337 494.357C154.408 494.421 154.501 494.456 154.596 494.456C154.692 494.456 154.784 494.421 154.856 494.357C154.928 494.294 154.974 494.207 154.986 494.112C156.104 485.319 156.796 476.526 157.339 467.733C157.651 463.337 157.805 458.94 158.037 454.544L158.495 441.354C158.721 432.562 158.708 423.769 158.456 414.976C158.167 406.183 157.92 397.39 157.715 388.597L156.546 335.84C156.021 318.254 155.609 300.668 154.986 283.082C154.983 282.981 154.94 282.886 154.867 282.815C154.794 282.745 154.697 282.706 154.596 282.706C154.495 282.706 154.398 282.745 154.326 282.815C154.253 282.886 154.21 282.981 154.207 283.082H154.206Z" fill="#2B2B2B"/>
<path d="M223.966 327.895C223.344 345.481 222.932 363.067 222.407 380.653L221.237 433.41C221.023 442.203 220.776 450.996 220.496 459.789C220.248 468.582 220.235 477.375 220.457 486.168L220.915 499.357C221.147 503.753 221.302 508.15 221.614 512.546C222.156 521.339 222.849 530.132 223.966 538.925C223.978 539.02 224.025 539.107 224.096 539.171C224.168 539.234 224.26 539.269 224.356 539.269C224.452 539.269 224.544 539.234 224.616 539.171C224.688 539.107 224.734 539.02 224.746 538.925C225.864 530.132 226.556 521.339 227.098 512.546C227.411 508.15 227.565 503.753 227.797 499.357L228.255 486.168C228.481 477.375 228.468 468.582 228.216 459.789C227.927 450.996 227.68 442.203 227.475 433.41L226.306 380.653C225.781 363.067 225.369 345.481 224.746 327.895C224.742 327.794 224.699 327.699 224.627 327.629C224.554 327.559 224.457 327.52 224.356 327.52C224.255 327.52 224.158 327.559 224.086 327.629C224.013 327.699 223.97 327.794 223.966 327.895H223.966Z" fill="#2B2B2B"/>
<path d="M321.907 167.948C323.95 167.882 325.899 167.075 327.392 165.678C328.91 164.371 330.251 162.871 331.379 161.215C332.517 159.594 333.539 157.895 334.438 156.13C335.354 154.372 336.166 152.563 336.873 150.711L334.94 151.225C335.271 151.508 335.658 151.72 336.075 151.845C336.493 151.971 336.932 152.008 337.365 151.954C338.089 151.843 338.775 151.552 339.36 151.11C340.377 150.356 341.18 149.349 341.689 148.189C342.222 147.067 342.465 145.828 342.397 144.587C342.326 143.333 341.892 142.128 341.149 141.116C340.429 140.168 339.506 139.394 338.449 138.849C337.899 138.554 337.3 138.365 336.681 138.292C336.005 138.215 335.324 138.38 334.758 138.757C333.85 139.531 333.223 140.583 332.974 141.751C332.691 142.81 332.518 143.896 332.458 144.99L332.79 144.594C331.412 144.879 329.977 144.68 328.728 144.031C327.452 143.372 326.301 142.494 325.328 141.437C323.378 139.264 321.717 136.848 320.388 134.248C319.009 131.664 317.762 129.004 316.604 126.304C315.445 123.613 314.375 120.84 313.471 118.092C313.378 117.812 313.2 117.568 312.962 117.395C312.724 117.222 312.437 117.128 312.143 117.127C311.848 117.126 311.561 117.218 311.322 117.389C311.082 117.561 310.903 117.803 310.809 118.083L310.79 118.141C309.518 121.989 308.114 125.854 306.574 129.601C305.769 131.46 304.929 133.296 303.984 135.047C303.15 136.729 301.986 138.225 300.562 139.446L300.432 139.54C300.32 139.621 300.228 139.724 300.159 139.844C300.091 139.964 300.05 140.096 300.037 140.234C299.802 142.852 299.739 145.447 299.758 148.062C299.772 149.371 299.857 150.679 300.013 151.98C300.121 153.301 300.447 154.595 300.978 155.809C300.993 155.84 301.019 155.864 301.051 155.876C301.083 155.889 301.118 155.889 301.15 155.877C301.182 155.865 301.208 155.842 301.224 155.811C301.239 155.781 301.243 155.746 301.234 155.713L301.231 155.702C300.944 154.468 300.83 153.199 300.894 151.934C300.927 150.659 301.036 149.387 301.141 148.114C301.371 145.572 301.757 143.022 302.172 140.521L301.648 141.309C303.523 140.032 305.078 138.338 306.192 136.36C307.302 134.552 308.296 132.675 309.166 130.741C310.895 126.921 312.339 122.978 313.486 118.944L310.805 118.993C311.865 121.862 313.042 124.605 314.333 127.335C315.616 130.07 317.095 132.708 318.759 135.229C320.405 137.788 322.35 140.14 324.555 142.235C325.685 143.287 326.968 144.16 328.361 144.825C329.795 145.514 331.412 145.724 332.974 145.424C333.062 145.406 333.142 145.359 333.202 145.292C333.261 145.224 333.298 145.14 333.305 145.05L333.307 145.027C333.372 144.008 333.566 143.002 333.884 142.032C334.115 141.122 334.649 140.319 335.397 139.755C336.754 139.063 338.751 140.708 339.628 142.135C340.048 142.907 340.262 143.775 340.25 144.654C340.238 145.533 340 146.394 339.559 147.154C339.171 147.92 338.616 148.589 337.935 149.11C337.674 149.309 337.371 149.444 337.048 149.504C336.956 149.522 336.862 149.52 336.77 149.499C336.679 149.478 336.594 149.437 336.52 149.379L336.413 149.305C336.151 149.122 335.827 149.051 335.512 149.107C335.197 149.163 334.917 149.342 334.734 149.605C334.673 149.694 334.623 149.791 334.586 149.894C333.968 151.647 333.202 153.421 332.434 155.153C331.643 156.882 330.784 158.579 329.835 160.215C328.904 161.85 327.805 163.383 326.556 164.788C325.369 166.247 323.727 167.264 321.893 167.674C321.875 167.676 321.858 167.683 321.842 167.692C321.827 167.702 321.813 167.714 321.803 167.729C321.792 167.743 321.784 167.76 321.78 167.778C321.776 167.795 321.775 167.814 321.778 167.832C321.783 167.863 321.799 167.891 321.822 167.912C321.846 167.934 321.876 167.946 321.907 167.948Z" fill="#2B2B2B"/>
<path d="M328.678 163.216C328.56 164.182 328.46 165.148 328.371 166.114C328.251 167.119 328.259 168.134 328.393 169.137C328.704 171.214 329.592 173.162 330.956 174.758C331.646 175.565 332.446 176.27 333.333 176.854C333.771 177.144 334.225 177.408 334.694 177.645L335.992 178.293C337.729 179.143 339.461 180.008 341.23 180.791C344.754 182.388 348.414 183.684 352.04 185.037C353.862 185.695 355.669 186.382 357.458 187.113C359.259 187.739 360.98 188.575 362.586 189.602C365.604 191.882 368.064 194.82 369.779 198.193C371.602 201.512 373.15 204.975 374.407 208.547C376.84 215.774 378.779 223.16 380.21 230.651L381.052 229.456C378.946 229.999 376.807 230.407 374.649 230.677C373.571 230.815 372.485 230.884 371.398 230.883C370.313 230.898 369.233 230.733 368.203 230.394C368.186 230.387 368.168 230.384 368.15 230.384C368.132 230.385 368.114 230.388 368.097 230.396C368.081 230.403 368.065 230.413 368.053 230.426C368.04 230.439 368.03 230.455 368.024 230.471C368.013 230.501 368.012 230.534 368.021 230.564C368.031 230.594 368.051 230.62 368.077 230.638C369.071 231.223 370.169 231.607 371.31 231.769C372.434 231.973 373.574 232.079 374.717 232.086C375.853 232.11 376.989 232.074 378.122 231.979C379.257 231.888 380.369 231.775 381.52 231.576C381.775 231.533 382.003 231.395 382.161 231.19C382.319 230.985 382.394 230.729 382.371 230.471L382.363 230.381C381.995 226.482 381.361 222.612 380.466 218.798C379.592 214.974 378.417 211.225 376.95 207.587C375.538 203.899 373.715 200.381 371.517 197.101C369.293 193.803 366.428 190.987 363.093 188.821C361.393 187.853 359.622 187.014 357.797 186.31C356.027 185.543 354.29 184.699 352.573 183.815C349.123 182.078 345.74 180.208 342.254 178.568C340.518 177.733 338.751 176.963 336.999 176.161L335.682 175.567C335.276 175.395 334.881 175.198 334.499 174.98C333.744 174.542 333.048 174.01 332.427 173.397C331.152 172.138 330.219 170.575 329.716 168.855C329.46 167.962 329.307 167.042 329.259 166.114C329.17 165.148 329.07 164.182 328.952 163.216C328.948 163.183 328.932 163.152 328.907 163.129C328.882 163.107 328.849 163.095 328.815 163.095C328.781 163.095 328.749 163.107 328.724 163.129C328.698 163.152 328.682 163.183 328.678 163.216L328.678 163.216Z" fill="#2B2B2B"/>
<path d="M367.863 238.253C367.089 240.956 366.677 243.749 366.636 246.561C366.489 249.364 366.467 252.17 366.571 254.979C366.655 257.787 366.838 260.592 367.165 263.395C367.437 266.245 367.963 269.065 368.736 271.821L369.948 270.216L352.787 269.258L335.619 268.445L318.449 267.705C312.727 267.432 307.002 267.275 301.283 266.771C304.084 267.408 306.93 267.865 309.773 268.269C312.617 268.7 315.468 269.048 318.323 269.364C324.031 269.995 329.749 270.5 335.472 270.922C341.192 271.375 346.921 271.673 352.648 271.996C358.379 272.256 364.106 272.523 369.845 272.66L369.864 272.661C370.024 272.664 370.184 272.636 370.334 272.578C370.484 272.52 370.621 272.433 370.738 272.322C370.854 272.211 370.948 272.078 371.013 271.931C371.078 271.784 371.113 271.625 371.117 271.464C371.12 271.325 371.099 271.187 371.057 271.054C370.267 268.452 369.665 265.796 369.255 263.107C368.808 260.384 368.483 257.629 368.188 254.871C367.924 252.11 367.68 249.341 367.549 246.565C367.353 243.791 367.458 241.004 367.863 238.253Z" fill="#2B2B2B"/>
<path d="M298.329 272C303.221 272.831 324.924 272.384 336.151 272.09C336.151 272.09 312.138 251.964 312.063 244.413C312.063 244.413 303.693 265.976 301.283 266.771L298.329 272Z" fill="#2B2B2B"/>
<path d="M380.037 230.759C380.287 232.909 380.663 235.023 381.079 237.124C381.487 239.229 381.965 241.313 382.467 243.39C382.971 245.466 383.516 247.53 384.099 249.583C384.645 251.648 385.316 253.675 385.922 255.722L385.934 255.763C385.963 255.858 386.004 255.948 386.057 256.031C387.504 258.286 388.979 260.522 390.526 262.716C392.089 264.901 393.683 267.066 395.442 269.132C394.449 266.606 393.29 264.179 392.101 261.771C390.895 259.372 389.617 257.016 388.311 254.678L388.446 254.987C387.861 252.934 387.341 250.863 386.695 248.828C386.092 246.78 385.445 244.745 384.755 242.723C384.065 240.701 383.352 238.686 382.568 236.691C381.794 234.693 380.978 232.708 380.037 230.759Z" fill="#2B2B2B"/>
<path d="M368.871 265.246C368.496 266.003 368.287 266.831 368.257 267.675C368.227 268.52 368.377 269.36 368.696 270.142C368.794 270.43 368.952 270.695 369.159 270.918C369.366 271.141 369.618 271.318 369.897 271.438C369.784 270.93 369.73 270.411 369.738 269.891C369.731 269.385 369.692 268.882 369.651 268.372C369.572 267.293 369.308 266.235 368.871 265.246Z" fill="#2B2B2B"/>
<path d="M341.415 272C338.287 270.754 335.311 269.156 332.544 267.236C329.819 265.352 327.255 263.245 324.879 260.935C323.705 259.766 322.519 258.606 321.451 257.327C320.279 256.138 319.309 254.778 318.215 253.504C317.652 252.877 317.197 252.172 316.684 251.503L315.148 249.482C314.158 248.107 313.222 246.687 312.138 245.324C312.676 246.959 313.305 248.571 313.986 250.165C314.789 251.689 315.508 253.284 316.462 254.735C318.297 257.71 320.483 260.454 322.971 262.908C325.498 265.348 328.353 267.423 331.453 269.072C334.519 270.768 337.92 271.767 341.415 272Z" fill="#2B2B2B"/>
<path d="M355.183 184.929C353.868 177.221 352.259 169.598 350.621 161.993L348.154 150.611C347.734 148.721 347.303 146.836 346.993 144.957C346.85 144.029 346.79 143.155 346.674 142.077C346.54 141.084 346.351 140.099 346.108 139.127C345.145 135.306 343.836 131.58 342.198 127.997C341.377 126.203 340.431 124.468 339.368 122.806C338.317 121.109 337.086 119.53 335.697 118.096C332.869 115.032 329.012 113.119 324.864 112.723C323.823 112.644 322.777 112.649 321.737 112.738C320.709 112.856 319.69 113.047 318.689 113.31C316.711 113.835 314.794 114.568 312.971 115.498L313.916 115.372C311.765 114.933 309.552 114.899 307.389 115.27C305.182 115.635 303.099 116.537 301.323 117.898C300.439 118.588 299.637 119.378 298.934 120.252C298.617 120.706 298.334 121.182 298.036 121.648C297.721 122.097 297.46 122.582 297.258 123.092C296.792 124.065 296.432 125.084 296.183 126.134C295.899 127.152 295.701 128.193 295.593 129.245C295.516 130.286 295.343 131.325 295.354 132.36L295.441 135.456C295.541 137.484 295.757 139.41 295.801 141.403C295.871 143.376 295.839 145.351 295.703 147.321C295.714 149.272 295.176 151.188 294.149 152.847L294.136 152.864C294.116 152.891 294.106 152.924 294.108 152.958C294.111 152.991 294.126 153.022 294.15 153.046C294.174 153.069 294.206 153.083 294.24 153.084C294.273 153.085 294.306 153.074 294.332 153.052C295.088 152.328 295.654 151.429 295.981 150.434C296.312 149.466 296.578 148.476 296.777 147.472C297.149 145.475 297.384 143.454 297.48 141.425C297.613 139.418 297.611 137.346 297.621 135.377L297.732 132.473C297.793 131.511 297.987 130.573 298.103 129.625C298.242 128.692 298.462 127.773 298.76 126.879C299.016 125.994 299.353 125.134 299.767 124.311C299.938 123.893 300.163 123.5 300.437 123.141C300.69 122.773 300.924 122.39 301.183 122.03C301.756 121.366 302.399 120.766 303.102 120.241C304.508 119.152 306.163 118.431 307.917 118.143C309.695 117.797 311.52 117.765 313.309 118.049L313.394 118.063C313.688 118.114 313.991 118.065 314.254 117.924C317.429 116.055 321.044 115.064 324.727 115.052C328.431 115.198 331.963 116.652 334.697 119.158C337.541 121.736 339.833 124.867 341.431 128.359C343.105 131.842 344.252 135.555 344.834 139.376C344.98 140.314 345.075 141.259 345.116 142.207C345.133 143.071 345.114 144.149 345.182 145.158C345.348 147.147 345.573 149.106 345.895 151.041C346.507 154.92 347.399 158.728 348.321 162.523C350.189 170.107 352.328 177.615 354.918 184.998C354.929 185.031 354.953 185.058 354.983 185.074C355.014 185.091 355.049 185.095 355.083 185.086C355.116 185.077 355.145 185.056 355.164 185.027C355.182 184.998 355.189 184.963 355.184 184.929L355.183 184.929Z" fill="#2B2B2B"/>
<path d="M403.962 273.959C403.567 273.061 403.028 272.232 402.366 271.507C401.69 270.758 400.908 270.112 400.045 269.591C398.279 268.561 396.295 267.966 394.254 267.856L394.355 267.864C392.96 267.711 391.551 267.731 390.16 267.923C388.784 268.11 387.438 268.468 386.15 268.988C384.862 269.513 383.666 270.241 382.607 271.143C381.562 272.024 380.71 273.11 380.103 274.335C381.152 273.594 382.263 272.946 383.425 272.399C384.535 271.886 385.695 271.488 386.887 271.211C389.23 270.651 391.639 270.421 394.046 270.526L394.147 270.534C395.869 270.534 397.58 270.804 399.219 271.333C400.056 271.614 400.865 271.974 401.636 272.406C402.445 272.871 403.222 273.39 403.962 273.959Z" fill="#2B2B2B"/>
<path d="M380.038 283.645C388.245 303.386 400.963 295.598 400.963 295.598C400.963 295.598 395.254 292.154 394.273 275.638C394.273 275.638 391.794 272.006 388.594 275.638C385.92 278.492 383.062 281.167 380.038 283.645Z" fill="white"/>
<path d="M379.919 283.616C380.201 284.63 380.553 285.804 380.979 287.01C381.452 288.139 381.991 289.15 382.536 290.219C382.842 290.728 383.195 291.212 383.536 291.704C383.861 292.21 384.226 292.69 384.628 293.139L385.888 294.457C386.342 294.871 386.82 295.259 387.319 295.617C389.335 297.091 391.784 297.852 394.28 297.779C396.685 297.699 399.039 297.061 401.155 295.914C401.208 295.887 401.252 295.846 401.285 295.796C401.318 295.746 401.338 295.689 401.343 295.629C401.347 295.57 401.337 295.51 401.313 295.456C401.288 295.401 401.25 295.354 401.202 295.318L401.153 295.281C399.847 294.149 398.861 292.694 398.293 291.061C397.654 289.43 397.169 287.743 396.846 286.021C396.639 285.173 396.526 284.296 396.346 283.442C396.223 282.571 396.086 281.705 395.982 280.832C395.904 279.954 395.804 279.08 395.743 278.201C395.709 277.318 395.628 276.441 395.563 275.561L395.557 275.486C395.542 275.276 395.467 275.075 395.339 274.907C394.749 274.054 393.913 273.4 392.944 273.032C392.424 272.839 391.87 272.755 391.317 272.787C390.764 272.819 390.223 272.965 389.729 273.217C388.912 273.666 388.198 274.282 387.633 275.024C387.157 275.597 386.673 276.174 386.174 276.745C385.172 277.883 384.138 279.011 383.095 280.139L381.53 281.842C380.99 282.439 380.517 282.907 379.919 283.616ZM380.154 283.675C380.819 283.316 381.459 282.913 382.071 282.469C382.717 282.035 383.353 281.587 383.972 281.117C385.219 280.186 386.432 279.208 387.597 278.157C388.187 277.639 388.758 277.094 389.31 276.52C389.721 276.065 390.216 275.694 390.767 275.426C390.963 275.33 391.178 275.279 391.396 275.277C391.614 275.275 391.83 275.321 392.028 275.413C392.488 275.637 392.891 275.964 393.204 276.368L392.981 275.715C393.06 276.627 393.123 277.541 393.233 278.45C393.35 279.359 393.506 280.266 393.641 281.172C393.803 282.077 393.998 282.978 394.182 283.878C394.426 284.77 394.622 285.668 394.932 286.543C395.51 288.305 396.272 290.001 397.207 291.603C398.101 293.26 399.312 294.726 400.77 295.916L400.769 295.282C399.795 295.814 398.74 296.181 397.647 296.368C397.101 296.457 396.548 296.497 395.994 296.486C395.448 296.497 394.902 296.453 394.365 296.357C392.27 295.97 390.291 295.11 388.578 293.842C386.824 292.548 385.264 291.007 383.949 289.268C383.337 288.35 382.623 287.427 382.021 286.527L380.154 283.675Z" fill="#2B2B2B"/>
<path d="M387.184 255.355C386.504 254.943 385.757 254.656 384.977 254.506C384.215 254.343 383.437 254.261 382.657 254.263C381.081 254.241 379.526 254.617 378.133 255.355C378.894 255.491 379.664 255.57 380.436 255.592C381.185 255.628 381.924 255.633 382.663 255.636C384.174 255.642 385.685 255.548 387.184 255.355Z" fill="#2B2B2B"/>
<path d="M447.778 326.506C448.988 326.81 450.127 327.346 451.132 328.085C452.157 328.803 453.117 329.608 454.003 330.492C455.784 332.266 457.425 334.175 458.91 336.204C461.869 340.289 464.605 344.531 467.107 348.912C472.183 357.646 476.61 366.749 480.977 375.869C485.311 385.008 489.404 394.266 493.347 403.587C497.299 412.901 501.229 422.241 504.911 431.655L505.121 430.509C501.709 434.374 498.082 438.119 494.35 441.713C490.626 445.32 486.707 448.719 482.61 451.895C478.599 455.141 474.123 457.765 469.332 459.678C466.987 460.618 464.434 460.909 461.939 460.521C460.727 460.258 459.591 459.722 458.618 458.954C457.644 458.185 456.858 457.205 456.319 456.087L456.315 456.079C456.285 456.02 456.241 455.969 456.188 455.931C456.134 455.893 456.072 455.868 456.007 455.858C453.627 455.538 451.213 455.569 448.841 455.949C446.465 456.302 444.166 457.062 442.047 458.195C440.986 458.763 439.979 459.427 439.039 460.18C438.117 460.954 437.269 461.814 436.507 462.747C435.732 463.668 435.043 464.657 434.449 465.704C433.832 466.734 433.412 467.865 432.886 468.943L433.263 468.631C428.118 469.106 422.929 468.607 417.968 467.16C412.986 465.765 408.208 463.723 403.756 461.087L400.482 459.012C399.38 458.339 398.397 457.485 397.349 456.731C395.281 455.181 393.298 453.519 391.41 451.754C390.411 450.932 389.553 449.956 388.641 449.04L385.935 446.26C384.241 444.303 382.606 442.292 380.939 440.314L381.177 441.173L386.637 400.281L389.324 379.83L391.903 359.364C391.93 359.151 391.907 358.934 391.838 358.73C391.769 358.526 391.654 358.341 391.503 358.188C391.351 358.036 391.167 357.919 390.964 357.848C390.761 357.777 390.545 357.753 390.331 357.778L390.313 357.781C380.571 358.92 370.774 359.528 360.966 359.602C351.157 359.766 341.35 359.175 331.631 357.837C321.977 356.39 312.301 354.165 303.629 349.657C299.271 347.463 295.348 344.495 292.05 340.897C288.78 337.228 286.483 332.796 285.369 328.007C285.361 327.972 285.339 327.941 285.309 327.922C285.279 327.903 285.242 327.896 285.207 327.904C285.172 327.911 285.141 327.932 285.121 327.962C285.101 327.992 285.094 328.028 285.1 328.064C286.046 332.985 288.21 337.589 291.394 341.456C294.621 345.302 298.549 348.498 302.969 350.876C307.352 353.271 311.977 355.194 316.765 356.613C321.529 358.058 326.387 359.175 331.304 359.955C341.12 361.477 351.038 362.241 360.97 362.243C365.93 362.288 370.889 362.147 375.839 361.864C380.797 361.58 385.718 361.194 390.687 360.588L389.097 359.005L386.445 379.461L383.9 399.931L378.897 440.881L378.89 440.939C378.873 441.082 378.886 441.228 378.928 441.365C378.97 441.503 379.041 441.631 379.135 441.74C380.873 443.738 382.577 445.764 384.342 447.734L387.159 450.537C388.072 451.496 389.035 452.406 390.044 453.265C392.024 455.026 394.099 456.678 396.258 458.215C397.352 458.962 398.378 459.806 399.527 460.472L402.937 462.515C407.567 465.102 412.51 467.082 417.645 468.406C422.793 469.766 428.145 470.175 433.439 469.614C433.512 469.605 433.583 469.578 433.643 469.534C433.704 469.491 433.752 469.434 433.785 469.367L433.817 469.301C434.316 468.267 434.71 467.172 435.292 466.183C435.85 465.18 436.5 464.231 437.233 463.348C437.95 462.454 438.749 461.63 439.62 460.885C440.51 460.163 441.463 459.523 442.469 458.974C444.494 457.871 446.693 457.126 448.97 456.769C451.247 456.415 453.564 456.403 455.845 456.735L455.533 456.506L456.621 458.222C457.096 458.713 457.527 459.253 458.047 459.698C459.114 460.579 460.378 461.188 461.731 461.474C464.401 461.93 467.145 461.655 469.673 460.68C474.605 458.798 479.245 456.224 483.455 453.036C487.686 449.937 491.741 446.605 495.601 443.054C499.471 439.515 503.202 435.861 506.793 432C506.931 431.852 507.024 431.669 507.063 431.471C507.102 431.272 507.084 431.067 507.012 430.878L507.003 430.855C503.374 421.363 499.599 411.95 495.579 402.629C491.53 393.322 487.331 384.079 482.886 374.949C478.447 365.817 473.648 356.849 468.356 348.163C465.727 343.801 462.821 339.612 459.656 335.622C458.066 333.622 456.324 331.747 454.445 330.017C453.502 329.146 452.478 328.367 451.387 327.69C450.307 326.979 449.098 326.485 447.829 326.236C447.794 326.23 447.757 326.239 447.728 326.259C447.699 326.28 447.679 326.311 447.672 326.346C447.665 326.382 447.673 326.418 447.693 326.448C447.713 326.478 447.743 326.499 447.778 326.506L447.778 326.506Z" fill="#2B2B2B"/>
<path d="M255.523 191.835C253.51 191.163 251.399 190.832 249.277 190.856C247.108 190.847 244.957 191.25 242.939 192.044C240.893 192.909 239.071 194.228 237.608 195.9C236.169 197.583 235.041 199.509 234.277 201.587C232.839 205.684 232.151 210.007 232.247 214.348C232.333 218.593 232.682 222.829 233.291 227.031C234.384 235.367 235.703 243.682 237.481 251.908C239.142 260.164 241.497 268.263 244.523 276.121C243.461 272.057 242.553 267.969 241.8 263.854C240.993 259.75 240.281 255.629 239.586 251.508C238.246 243.255 237.055 234.98 236.012 226.683C235.385 222.589 234.993 218.464 234.838 214.326C234.647 210.267 235.136 206.205 236.286 202.308C236.827 200.395 237.743 198.61 238.982 197.056C240.22 195.503 241.756 194.212 243.499 193.26C247.247 191.493 251.467 190.993 255.523 191.835Z" fill="#2B2B2B"/>
<path d="M389.368 367.602C380.65 369.386 371.947 371.034 363.217 372.481L350.108 374.533C345.739 375.236 341.349 375.816 336.937 376.276C332.522 376.674 328.087 376.8 323.657 376.652C319.238 376.471 314.835 375.992 310.48 375.218C306.158 374.467 301.898 373.392 297.736 372.002C293.61 370.67 289.665 368.831 285.992 366.526L285.941 366.497L285.763 366.41C284.077 365.539 282.496 364.477 281.051 363.246C279.541 361.976 278.108 360.618 276.76 359.178C274.072 356.218 271.677 353.004 269.608 349.581C267.497 346.135 265.598 342.563 263.922 338.884L261.549 333.262C260.838 331.353 260.143 329.434 259.393 327.523L259.39 327.517C259.378 327.485 259.353 327.458 259.322 327.443C259.291 327.428 259.255 327.426 259.222 327.436C259.189 327.446 259.161 327.468 259.144 327.498C259.126 327.528 259.121 327.564 259.129 327.597C259.578 329.597 260.083 331.589 260.572 333.59C261.149 335.564 261.786 337.524 262.438 339.482C263.811 343.393 265.501 347.187 267.488 350.824C269.474 354.512 271.869 357.964 274.629 361.114C275.348 361.883 276.062 362.661 276.81 363.408C277.604 364.11 278.345 364.866 279.195 365.515C280.857 366.948 282.712 368.14 284.706 369.058L284.477 368.942C292.376 373.462 301.179 376.169 310.25 376.869C319.149 377.574 328.082 377.758 337.003 377.419C341.463 377.333 345.921 377.106 350.378 376.74C354.827 376.336 359.246 375.66 363.63 374.827C372.414 373.229 381.049 370.901 389.446 367.866C389.481 367.853 389.508 367.827 389.524 367.794C389.539 367.761 389.54 367.723 389.528 367.689C389.515 367.658 389.493 367.632 389.463 367.616C389.434 367.601 389.4 367.596 389.368 367.602Z" fill="#2B2B2B"/>
<path d="M382.659 272C375.578 271.431 368.497 271.134 361.416 270.932C354.335 270.713 347.254 270.654 340.173 270.627C333.092 270.651 326.011 270.709 318.93 270.928C311.849 271.129 304.768 271.428 297.687 272C304.768 272.572 311.849 272.871 318.93 273.072C326.011 273.291 333.092 273.349 340.173 273.373C347.254 273.346 354.335 273.287 361.416 273.068C368.497 272.866 375.578 272.568 382.659 272Z" fill="#2B2B2B"/>
<path d="M267.883 276.118L271.444 276.057C274.232 278.471 277.687 279.98 281.351 280.386C283.751 280.592 286.167 280.279 288.436 279.47C290.705 278.66 292.774 277.373 294.503 275.694L380.103 274.336C378.131 276.815 376.95 279.832 376.712 282.992C376.712 282.992 378.129 288.545 389.114 275.003C389.114 275.003 393.486 273.269 394.407 275.912C395.315 278.567 394.504 299.529 407.934 296.789C407.934 296.789 410.187 281.852 403.962 273.96L415.047 273.783V275.448C415.047 276.451 415.244 277.443 415.627 278.37C416.011 279.296 416.573 280.138 417.281 280.847C417.989 281.556 418.83 282.118 419.755 282.502C420.68 282.885 421.672 283.083 422.674 283.083H475.676L475.211 291.212C475.211 290.678 475.187 290.375 475.187 290.375H453.484L470.572 307.579H497.168C499.509 307.577 501.756 306.652 503.422 305.005C505.088 303.358 506.039 301.121 506.07 298.777L506.264 283.083H558.733C559.735 283.083 560.726 282.885 561.652 282.502C562.577 282.118 563.418 281.556 564.126 280.847C564.834 280.138 565.396 279.296 565.779 278.37C566.163 277.444 566.36 276.451 566.36 275.448V271.438H587.128L664.614 317.653C627.325 317.326 590.035 317.148 552.745 317.12C515.443 316.987 478.154 317.12 440.864 317.168C403.574 317.181 366.285 317.435 328.983 317.629L273.054 317.981L217.32 318.502L199.444 307.942L181.35 297.322L145.126 276.118L267.883 276.118ZM309.291 302.184L395.593 301.565L390.495 296.207L380.394 284.471H295.666L309.291 302.184Z" fill="#2B2B2B"/>
<path d="M475.671 282.895C470.325 282.71 464.979 282.583 459.633 282.459C454.287 282.332 448.941 282.186 443.595 282.123L427.557 281.876L423.548 281.815C423.223 281.807 422.858 281.811 422.566 281.793C422.288 281.783 422.011 281.754 421.736 281.706C421.19 281.617 420.657 281.456 420.153 281.227C419.152 280.767 418.288 280.054 417.646 279.159C417.004 278.264 416.605 277.217 416.489 276.12L416.652 244.162C416.703 233.459 416.671 222.756 416.556 212.052L416.055 179.943L415.791 163.888C415.724 162.97 415.841 162.048 416.133 161.175C416.426 160.302 416.888 159.496 417.494 158.803C418.1 158.111 418.838 157.545 419.663 157.14C420.489 156.735 421.387 156.497 422.305 156.442C423.577 156.389 424.96 156.403 426.282 156.393C447.666 156.287 469.051 156.487 490.435 156.799C511.819 157.149 533.203 157.387 554.587 157.514L558.596 157.537C559.643 157.53 560.673 157.794 561.586 158.305C562.481 158.815 563.226 159.552 563.747 160.441C564.268 161.331 564.546 162.341 564.554 163.372L564.465 179.409L564.421 211.519L564.608 243.628L564.924 275.685C564.893 276.786 564.574 277.859 563.999 278.798C563.424 279.737 562.612 280.509 561.646 281.036C560.646 281.575 559.523 281.845 558.387 281.82L554.378 281.887L538.34 282.157C527.648 282.347 516.956 282.593 506.264 282.895C506.216 282.896 506.171 282.916 506.138 282.95C506.105 282.984 506.087 283.029 506.087 283.077C506.087 283.124 506.105 283.17 506.138 283.204C506.171 283.238 506.216 283.257 506.264 283.259C516.956 283.561 527.648 283.807 538.34 283.997L554.378 284.266L558.387 284.334C559.937 284.401 561.479 284.074 562.869 283.384C564.285 282.667 565.484 281.586 566.344 280.251C567.204 278.917 567.694 277.377 567.763 275.79L568.109 243.628L568.296 211.519L568.252 179.409L568.155 163.337C568.127 161.679 567.662 160.057 566.809 158.635C565.957 157.214 564.745 156.041 563.296 155.237C561.855 154.451 560.237 154.049 558.596 154.07L554.587 154.093C533.203 154.199 511.819 154.438 490.435 154.808C469.051 155.12 447.666 155.321 426.282 155.214C424.932 155.222 423.641 155.178 422.241 155.206C420.786 155.264 419.372 155.709 418.146 156.496C416.914 157.287 415.912 158.388 415.241 159.689C414.906 160.34 414.655 161.031 414.496 161.746C414.362 162.452 414.296 163.169 414.297 163.888L414.033 179.943L413.532 212.052C413.423 222.755 413.391 233.459 413.435 244.162L413.501 260.217L413.566 268.244L413.601 272.258L413.618 274.265L413.627 275.268C413.63 275.597 413.659 276.041 413.689 276.419C413.872 277.996 414.469 279.496 415.419 280.767C416.369 282.038 417.638 283.034 419.098 283.655C419.821 283.957 420.582 284.162 421.359 284.264C421.745 284.318 422.134 284.346 422.524 284.348C422.9 284.356 423.204 284.341 423.548 284.339L427.557 284.277L443.595 284.031C448.941 283.968 454.287 283.822 459.633 283.695C464.979 283.571 470.325 283.444 475.671 283.259C475.718 283.257 475.763 283.237 475.796 283.203C475.828 283.169 475.847 283.124 475.847 283.077C475.847 283.03 475.828 282.984 475.796 282.95C475.763 282.917 475.718 282.897 475.671 282.895V282.895Z" fill="#2B2B2B"/>
<path d="M477.595 216.921C477.558 220.871 478.887 224.712 481.356 227.793C482.684 229.363 484.353 230.61 486.235 231.437C488.117 232.264 490.163 232.649 492.217 232.564C496.259 232.3 500.041 230.481 502.774 227.489C505.527 224.627 507.183 220.885 507.453 216.921C507.593 214.877 507.302 212.827 506.599 210.903C505.896 208.979 504.797 207.225 503.372 205.754C501.933 204.25 500.212 203.043 498.308 202.203C496.391 201.363 494.319 200.938 492.227 200.956C490.135 200.973 488.07 201.432 486.168 202.303C484.295 203.162 482.643 204.436 481.336 206.029C478.86 209.113 477.537 212.965 477.595 216.921ZM477.869 216.921C477.884 215.042 478.333 213.192 479.181 211.516C480.022 209.89 481.19 208.457 482.613 207.307C485.325 205.093 488.718 203.884 492.217 203.886C495.68 203.9 499.011 205.219 501.546 207.582C504.11 210.048 505.678 213.372 505.951 216.921C506.071 218.746 505.804 220.576 505.168 222.291C504.512 224.02 503.479 225.58 502.145 226.859C500.807 228.072 499.238 229 497.531 229.587C495.825 230.175 494.017 230.41 492.217 230.277C488.694 230.1 485.32 228.795 482.593 226.555C481.169 225.402 480 223.964 479.16 222.335C478.314 220.656 477.871 218.802 477.869 216.921Z" fill="#FDB914"/>
<path d="M426.028 271.996C430.222 272.479 434.415 272.723 438.607 272.883C442.799 273.059 446.991 273.092 451.182 273.098C455.373 273.059 459.564 272.989 463.755 272.778C467.946 272.582 472.136 272.3 476.325 271.777C472.132 271.291 467.939 271.045 463.747 270.886C459.555 270.711 455.363 270.678 451.171 270.675C446.98 270.717 442.789 270.787 438.598 270.999C434.408 271.195 430.218 271.476 426.028 271.996Z" fill="#FDB914"/>
<path d="M506.409 271.644C510.491 272.128 514.572 272.374 518.654 272.535C522.735 272.711 526.815 272.745 530.896 272.752C534.976 272.714 539.056 272.645 543.136 272.435C547.216 272.24 551.295 271.96 555.373 271.438C551.29 270.95 547.209 270.704 543.128 270.543C539.047 270.368 534.966 270.333 530.886 270.329C526.805 270.37 522.725 270.439 518.646 270.65C514.566 270.845 510.487 271.125 506.409 271.644Z" fill="#FDB914"/>
<path d="M455.926 456.296C454.376 449.334 452.502 442.464 450.498 435.635C448.507 428.801 446.316 422.029 444.018 415.29C441.666 408.57 439.225 401.875 436.441 395.305C435.062 392.015 433.596 388.758 431.996 385.56C431.166 383.973 430.342 382.384 429.396 380.857C428.539 379.273 427.398 377.86 426.029 376.69C426.638 377.331 427.151 378.057 427.551 378.845C427.979 379.616 428.368 380.406 428.725 381.217C429.456 382.823 430.125 384.462 430.766 386.111C432.062 389.405 433.246 392.747 434.444 396.082L437.951 406.125L441.425 416.187C443.768 422.888 446.064 429.608 448.469 436.295C450.854 442.99 453.29 449.67 455.926 456.296Z" fill="#2B2B2B"/>
<path d="M433.351 469.123C434.163 463.209 434.704 457.284 435.15 451.355C435.613 445.427 435.916 439.492 436.188 433.556C436.408 427.617 436.594 421.677 436.621 415.731C436.664 409.786 436.61 403.836 436.284 397.875C435.469 403.789 434.926 409.714 434.481 415.643C434.018 421.571 433.715 427.506 433.447 433.442C433.23 439.381 433.044 445.321 433.018 451.267C432.975 457.213 433.028 463.162 433.351 469.123Z" fill="#2B2B2B"/>
<path d="M317.819 146.44C317.285 146.422 316.779 146.197 316.408 145.812C316.037 145.428 315.83 144.914 315.83 144.379C315.83 143.844 316.037 143.331 316.408 142.946C316.779 142.562 317.285 142.337 317.819 142.318C318.353 142.337 318.859 142.562 319.23 142.946C319.601 143.331 319.809 143.844 319.809 144.379C319.809 144.914 319.601 145.428 319.23 145.812C318.859 146.197 318.353 146.422 317.819 146.44Z" fill="#2B2B2B"/>
<path d="M305.592 146.44C305.058 146.422 304.552 146.197 304.181 145.812C303.809 145.428 303.602 144.914 303.602 144.379C303.602 143.844 303.809 143.331 304.181 142.946C304.552 142.562 305.058 142.337 305.592 142.318C306.125 142.337 306.631 142.562 307.002 142.946C307.374 143.331 307.581 143.844 307.581 144.379C307.581 144.914 307.374 145.428 307.002 145.812C306.631 146.197 306.125 146.422 305.592 146.44Z" fill="#2B2B2B"/>
<path d="M302.009 139.68C302.642 139.782 303.28 139.85 303.92 139.884C304.5 139.932 305.041 139.933 305.585 139.945C306.128 139.952 306.67 139.934 307.249 139.903C307.895 139.881 308.539 139.807 309.173 139.68C308.789 139.084 308.238 138.614 307.588 138.331C306.963 138.04 306.282 137.887 305.592 137.885C304.902 137.882 304.22 138.029 303.592 138.316C302.932 138.589 302.377 139.067 302.009 139.68Z" fill="#2B2B2B"/>
<path d="M316.214 139.68C316.749 139.84 317.296 139.953 317.851 140.016C318.313 140.078 318.778 140.109 319.244 140.11C319.706 140.109 320.168 140.078 320.627 140.018C321.183 139.958 321.732 139.845 322.267 139.68C321.97 139.134 321.504 138.699 320.94 138.44C320.412 138.173 319.828 138.039 319.237 138.049C318.649 138.045 318.069 138.18 317.544 138.444C316.977 138.699 316.51 139.133 316.214 139.68Z" fill="#2B2B2B"/>
<path d="M307.568 148.83C307.567 149.158 307.635 149.483 307.766 149.783C307.897 150.084 308.089 150.354 308.329 150.578C308.807 151.044 309.406 151.367 310.059 151.509C310.684 151.642 311.332 151.637 311.956 151.495C312.565 151.356 313.135 151.079 313.62 150.685C313.049 150.561 312.47 150.474 311.887 150.426C311.352 150.329 310.835 150.305 310.36 150.17C309.33 149.968 308.369 149.507 307.568 148.83Z" fill="#2B2B2B"/>
<path d="M315.406 157.179C315.278 156.877 315.089 156.605 314.851 156.379C314.613 156.154 314.331 155.98 314.023 155.869C313.4 155.626 312.723 155.564 312.067 155.688C311.439 155.811 310.845 156.069 310.326 156.444C309.82 156.811 309.404 157.289 309.111 157.842C309.686 157.732 310.252 157.585 310.807 157.402C311.337 157.281 311.822 157.101 312.313 157.039C313.339 156.822 314.404 156.87 315.406 157.179Z" fill="#2B2B2B"/>
<path d="M345.63 376.153V475.956C345.63 475.956 324.88 484.179 312.138 475.956V376.153" fill="#2B2B2B"/>
<path d="M281.458 476.462C281.507 476.973 281.659 477.469 281.906 477.918C282.153 478.368 282.49 478.763 282.894 479.078C283.678 479.739 284.54 480.301 285.46 480.751C287.299 481.653 289.217 482.385 291.189 482.936C295.126 484.063 299.135 484.924 303.187 485.515C311.294 486.739 319.475 487.416 327.673 487.54C335.893 487.727 344.116 487.338 352.282 486.378C356.395 485.88 360.468 485.088 364.47 484.011C366.515 483.455 368.504 482.711 370.413 481.79C371.427 481.302 372.376 480.69 373.239 479.968C373.811 479.58 374.28 479.058 374.605 478.447C374.929 477.835 375.098 477.154 375.099 476.462C375.099 475.77 374.929 475.088 374.605 474.477C374.281 473.865 373.813 473.343 373.24 472.955C372.377 472.232 371.428 471.62 370.414 471.132C368.505 470.211 366.516 469.468 364.47 468.912C360.47 467.83 356.397 467.038 352.283 466.541C344.117 465.578 335.894 465.189 327.673 465.378C319.475 465.503 311.294 466.181 303.187 467.408C299.134 467.998 295.126 468.86 291.189 469.988C289.217 470.54 287.299 471.271 285.461 472.173C284.54 472.623 283.678 473.185 282.894 473.847C282.489 474.162 282.153 474.556 281.906 475.006C281.659 475.456 281.507 475.951 281.458 476.462ZM281.458 476.462C281.51 475.953 281.666 475.46 281.915 475.013C282.165 474.566 282.503 474.175 282.909 473.864C283.696 473.21 284.559 472.656 285.481 472.214C287.323 471.328 289.242 470.612 291.215 470.077C295.161 469.014 299.177 468.235 303.234 467.745C311.344 466.793 319.51 466.409 327.673 466.597C335.814 466.722 343.938 467.396 351.989 468.612C355.984 469.195 359.936 470.044 363.819 471.154C365.718 471.684 367.565 472.387 369.337 473.255C370.166 473.659 370.942 474.163 371.649 474.756C371.96 474.919 372.22 475.165 372.401 475.466C372.583 475.767 372.679 476.111 372.679 476.463C372.679 476.814 372.583 477.159 372.402 477.46C372.221 477.761 371.961 478.007 371.651 478.171C370.944 478.763 370.167 479.267 369.338 479.671C367.566 480.539 365.719 481.243 363.819 481.773C359.938 482.886 355.986 483.737 351.99 484.318C343.939 485.537 335.815 486.21 327.673 486.334C319.51 486.521 311.344 486.136 303.234 485.181C299.177 484.691 295.16 483.912 291.215 482.848C289.242 482.312 287.323 481.597 285.481 480.71C284.559 480.268 283.696 479.714 282.909 479.061C282.503 478.749 282.165 478.358 281.915 477.912C281.666 477.465 281.51 476.971 281.458 476.462Z" fill="#2B2B2B"/>
<path d="M268.609 175.953L285.238 172.498V180.124C285.234 189.966 286.876 199.739 290.094 209.038L293.942 220.147L281.055 243.719C281.055 243.719 254.173 245.785 251.739 245.579C251.739 245.579 246.858 179.008 268.609 175.953ZM283.918 229.115C284.087 227.2 284.22 225.284 284.232 223.356C284.287 221.428 284.153 219.5 283.833 217.598C283.712 219.513 283.469 221.404 283.288 223.308L282.707 228.994C282.367 232.801 282.028 236.607 281.98 240.463C282.926 236.738 283.574 232.943 283.918 229.115ZM277.923 240.281C278.394 240.265 278.841 240.067 279.169 239.727C279.497 239.388 279.68 238.934 279.68 238.462C279.68 237.99 279.497 237.536 279.169 237.197C278.841 236.858 278.394 236.659 277.923 236.644C277.451 236.659 277.004 236.857 276.676 237.197C276.348 237.536 276.164 237.99 276.164 238.462C276.164 238.935 276.348 239.388 276.676 239.728C277.004 240.067 277.451 240.265 277.923 240.281V240.281ZM270.378 241.287C270.848 241.27 271.294 241.071 271.621 240.732C271.948 240.393 272.131 239.94 272.131 239.468C272.131 238.997 271.948 238.544 271.621 238.205C271.294 237.866 270.848 237.667 270.378 237.65C269.907 237.667 269.461 237.866 269.134 238.205C268.807 238.544 268.624 238.997 268.624 239.468C268.624 239.94 268.807 240.393 269.134 240.732C269.461 241.071 269.907 241.27 270.378 241.287V241.287ZM263.305 241.675C263.776 241.659 264.223 241.461 264.551 241.122C264.879 240.782 265.062 240.329 265.062 239.856C265.062 239.384 264.879 238.931 264.551 238.591C264.223 238.252 263.776 238.054 263.305 238.038C262.833 238.053 262.386 238.252 262.058 238.591C261.73 238.931 261.547 239.384 261.547 239.856C261.547 240.329 261.73 240.782 262.058 241.122C262.386 241.461 262.833 241.659 263.305 241.675V241.675ZM256.208 242.281C256.679 242.266 257.126 242.067 257.454 241.728C257.782 241.388 257.965 240.935 257.965 240.463C257.965 239.99 257.782 239.537 257.454 239.197C257.126 238.858 256.679 238.66 256.208 238.644C255.736 238.66 255.289 238.858 254.961 239.197C254.633 239.537 254.45 239.99 254.45 240.463C254.45 240.935 254.633 241.388 254.961 241.728C255.289 242.067 255.736 242.266 256.208 242.281Z" fill="#2B2B2B"/>
<path d="M296.11 168.309C294.218 168.785 292.365 169.403 290.564 170.155C288.773 170.886 287.027 171.622 285.234 172.503C287.223 172.485 289.188 172.069 291.014 171.28C292.859 170.564 294.578 169.561 296.11 168.309Z" fill="#2B2B2B"/>
<path d="M330.313 200.123C328.925 197.64 327.339 195.272 325.571 193.044C323.847 190.781 321.941 188.663 319.874 186.709C321.26 189.193 322.846 191.561 324.616 193.788C326.343 196.049 328.248 198.167 330.313 200.123Z" fill="#2B2B2B"/>
<path d="M500.304 431.744C499.833 431.727 499.386 431.529 499.059 431.189C498.732 430.85 498.549 430.397 498.549 429.925C498.549 429.453 498.732 429 499.059 428.661C499.386 428.321 499.833 428.123 500.304 428.106C500.775 428.123 501.221 428.321 501.548 428.661C501.876 429 502.059 429.453 502.059 429.925C502.059 430.397 501.876 430.85 501.548 431.189C501.221 431.529 500.775 431.727 500.304 431.744Z" fill="#FDB914"/>
<path d="M494.417 438.072C493.946 438.055 493.5 437.857 493.172 437.517C492.845 437.178 492.662 436.725 492.662 436.253C492.662 435.781 492.845 435.328 493.172 434.989C493.5 434.65 493.946 434.451 494.417 434.435C494.888 434.451 495.334 434.65 495.661 434.989C495.989 435.328 496.172 435.781 496.172 436.253C496.172 436.725 495.989 437.178 495.661 437.517C495.334 437.857 494.888 438.055 494.417 438.072Z" fill="#FDB914"/>
<path d="M487.659 444.401C487.188 444.385 486.742 444.186 486.414 443.847C486.087 443.507 485.904 443.054 485.904 442.582C485.904 442.111 486.087 441.657 486.414 441.318C486.742 440.979 487.188 440.78 487.659 440.764C488.13 440.78 488.576 440.979 488.904 441.318C489.231 441.657 489.414 442.111 489.414 442.582C489.414 443.054 489.231 443.507 488.904 443.847C488.576 444.186 488.13 444.385 487.659 444.401Z" fill="#FDB914"/>
<path d="M480.247 450.51C479.776 450.494 479.33 450.295 479.003 449.956C478.675 449.616 478.492 449.163 478.492 448.692C478.492 448.22 478.675 447.767 479.003 447.427C479.33 447.088 479.776 446.889 480.247 446.873C480.718 446.889 481.164 447.088 481.492 447.427C481.819 447.767 482.002 448.22 482.002 448.692C482.002 449.163 481.819 449.616 481.492 449.956C481.164 450.295 480.718 450.494 480.247 450.51Z" fill="#FDB914"/>
<path d="M471.745 455.966C471.274 455.95 470.828 455.751 470.5 455.412C470.173 455.073 469.99 454.619 469.99 454.148C469.99 453.676 470.173 453.223 470.5 452.883C470.828 452.544 471.274 452.345 471.745 452.329C472.216 452.345 472.662 452.544 472.99 452.883C473.317 453.223 473.5 453.676 473.5 454.148C473.5 454.619 473.317 455.073 472.99 455.412C472.662 455.751 472.216 455.95 471.745 455.966Z" fill="#FDB914"/>
<path d="M462.372 457.494C461.901 457.477 461.455 457.279 461.127 456.939C460.8 456.6 460.617 456.147 460.617 455.675C460.617 455.203 460.8 454.75 461.127 454.411C461.455 454.071 461.901 453.873 462.372 453.856C462.843 453.873 463.289 454.071 463.617 454.411C463.944 454.75 464.127 455.203 464.127 455.675C464.127 456.147 463.944 456.6 463.617 456.939C463.289 457.279 462.843 457.477 462.372 457.494Z" fill="#FDB914"/>
<path d="M452.78 453.347C452.309 453.331 451.863 453.132 451.536 452.793C451.208 452.454 451.025 452 451.025 451.529C451.025 451.057 451.208 450.603 451.536 450.264C451.863 449.925 452.309 449.726 452.78 449.71C453.251 449.726 453.697 449.925 454.025 450.264C454.352 450.603 454.535 451.057 454.535 451.529C454.535 452 454.352 452.454 454.025 452.793C453.697 453.132 453.251 453.331 452.78 453.347Z" fill="#FDB914"/>
<path d="M444.496 455.312C444.025 455.296 443.579 455.097 443.251 454.758C442.924 454.418 442.741 453.965 442.741 453.493C442.741 453.022 442.924 452.568 443.251 452.229C443.579 451.89 444.025 451.691 444.496 451.675C444.967 451.691 445.413 451.89 445.741 452.229C446.068 452.568 446.251 453.022 446.251 453.493C446.251 453.965 446.068 454.418 445.741 454.758C445.413 455.097 444.967 455.296 444.496 455.312Z" fill="#FDB914"/>
<path d="M437.084 459.457C436.613 459.441 436.167 459.242 435.839 458.903C435.512 458.564 435.329 458.111 435.329 457.639C435.329 457.167 435.512 456.714 435.839 456.375C436.167 456.035 436.613 455.837 437.084 455.82C437.555 455.837 438.001 456.035 438.328 456.375C438.656 456.714 438.839 457.167 438.839 457.639C438.839 458.111 438.656 458.564 438.328 458.903C438.001 459.242 437.555 459.441 437.084 459.457Z" fill="#FDB914"/>
<path d="M430.108 467.096C429.637 467.08 429.191 466.881 428.864 466.542C428.536 466.202 428.353 465.749 428.353 465.277C428.353 464.806 428.536 464.353 428.864 464.013C429.191 463.674 429.637 463.475 430.108 463.459C430.579 463.475 431.025 463.674 431.353 464.013C431.68 464.353 431.863 464.806 431.863 465.277C431.863 465.749 431.68 466.202 431.353 466.542C431.025 466.881 430.579 467.08 430.108 467.096Z" fill="#FDB914"/>
<path d="M421.17 465.786C420.699 465.77 420.253 465.571 419.925 465.232C419.598 464.893 419.415 464.44 419.415 463.968C419.415 463.496 419.598 463.043 419.925 462.704C420.253 462.364 420.699 462.166 421.17 462.149C421.641 462.166 422.087 462.364 422.414 462.704C422.742 463.043 422.925 463.496 422.925 463.968C422.925 464.44 422.742 464.893 422.414 465.232C422.087 465.571 421.641 465.77 421.17 465.786Z" fill="#FDB914"/>
<path d="M412.232 463.386C411.761 463.37 411.315 463.171 410.988 462.832C410.66 462.493 410.477 462.039 410.477 461.568C410.477 461.096 410.66 460.643 410.988 460.303C411.315 459.964 411.761 459.765 412.232 459.749C412.703 459.765 413.149 459.964 413.477 460.303C413.804 460.643 413.987 461.096 413.987 461.568C413.987 462.039 413.804 462.493 413.477 462.832C413.149 463.171 412.703 463.37 412.232 463.386Z" fill="#FDB914"/>
<path d="M405.038 460.113C404.567 460.096 404.121 459.898 403.793 459.558C403.466 459.219 403.283 458.766 403.283 458.294C403.283 457.822 403.466 457.369 403.793 457.03C404.121 456.691 404.567 456.492 405.038 456.476C405.509 456.492 405.955 456.691 406.283 457.03C406.61 457.369 406.793 457.822 406.793 458.294C406.793 458.766 406.61 459.219 406.283 459.558C405.955 459.898 405.509 460.096 405.038 460.113Z" fill="#FDB914"/>
<path d="M397.19 454.657C396.72 454.64 396.273 454.442 395.946 454.102C395.619 453.763 395.436 453.31 395.436 452.838C395.436 452.366 395.619 451.913 395.946 451.574C396.273 451.235 396.72 451.036 397.19 451.02C397.661 451.036 398.108 451.235 398.435 451.574C398.762 451.913 398.945 452.366 398.945 452.838C398.945 453.31 398.762 453.763 398.435 454.102C398.108 454.442 397.661 454.64 397.19 454.657Z" fill="#FDB914"/>
<path d="M390.432 448.11C389.962 448.093 389.515 447.895 389.188 447.555C388.86 447.216 388.678 446.763 388.678 446.291C388.678 445.819 388.86 445.366 389.188 445.027C389.515 444.688 389.962 444.489 390.432 444.473C390.903 444.489 391.35 444.688 391.677 445.027C392.004 445.366 392.188 445.819 392.188 446.291C392.188 446.763 392.004 447.216 391.677 447.555C391.35 447.895 390.903 448.093 390.432 448.11Z" fill="#FDB914"/>
<path d="M384.982 441.564C384.511 441.548 384.065 441.349 383.738 441.01C383.41 440.67 383.227 440.217 383.227 439.745C383.227 439.274 383.41 438.82 383.738 438.481C384.065 438.142 384.511 437.943 384.982 437.927C385.453 437.943 385.9 438.142 386.227 438.481C386.554 438.82 386.737 439.274 386.737 439.745C386.737 440.217 386.554 440.67 386.227 441.01C385.9 441.349 385.453 441.548 384.982 441.564Z" fill="#FDB914"/>
<path d="M255.663 245.358C256.366 248.716 257.236 252.037 258.271 255.308C259.286 258.606 260.556 261.82 262.072 264.92C263.581 268.07 265.469 271.023 267.696 273.712C269.963 276.495 272.849 278.709 276.123 280.178C279.501 281.65 283.261 281.999 286.852 281.174C290.425 280.323 293.666 278.43 296.165 275.734L297.102 274.738L297.905 273.705C298.435 273.014 298.992 272.34 299.476 271.619L300.97 269.484L302.367 267.291C304.177 264.346 305.821 261.302 307.29 258.173C310.235 251.949 312.685 245.503 314.62 238.895C316.572 232.314 318.103 225.616 319.204 218.84C320.286 212.062 320.916 205.22 321.091 198.359C321.2 194.913 321.097 191.464 320.782 188.032C320.587 186.312 320.386 184.589 320.022 182.879C319.702 181.105 319.169 179.377 318.434 177.732L318.509 177.896C318.09 176.719 317.572 175.581 316.962 174.492C316.359 173.404 315.662 172.371 314.88 171.404C314.087 170.421 313.19 169.526 312.205 168.736C311.195 167.936 310.088 167.269 308.909 166.752L309.201 166.926C308.211 166.051 307.295 165.096 306.462 164.07C305.644 163.08 304.956 161.988 304.415 160.823C304.171 160.286 303.999 159.719 303.901 159.138C303.847 158.405 303.754 157.676 303.624 156.953L303.407 156.282C303.298 156.033 303.168 155.795 303.018 155.569C302.821 155.281 302.567 155.036 302.272 154.851C301.976 154.665 301.646 154.542 301.301 154.49C300.649 154.411 299.99 154.567 299.442 154.928C299.183 155.091 298.95 155.294 298.752 155.528C298.433 155.885 298.248 156.343 298.229 156.822L300.827 156.749C300.791 156.231 300.69 155.72 300.525 155.227C300.347 154.662 300.048 154.142 299.649 153.704C299.142 153.172 298.451 152.853 297.718 152.812C297.111 152.788 296.507 152.903 295.95 153.146L297.789 154.129C297.715 153.748 297.609 153.374 297.471 153.011C297.312 152.572 297.077 152.165 296.776 151.809C296.538 151.531 296.236 151.316 295.896 151.182C295.484 151.02 295.029 151 294.604 151.124C294.065 151.297 293.585 151.618 293.22 152.05L294.995 151.824C294.546 151.525 294.047 151.309 293.521 151.186C293.172 151.108 292.811 151.098 292.458 151.156C292.004 151.231 291.583 151.443 291.253 151.765C290.782 152.266 290.499 152.913 290.45 153.599C290.427 153.845 290.417 154.092 290.419 154.339L290.442 154.914C290.519 156.423 290.676 157.926 290.914 159.417C291.275 162.563 292.376 165.577 294.127 168.214C294.684 168.95 295.122 169.382 295.616 169.959L297.062 171.596L299.953 174.869L305.771 181.384L305.437 180.188C303.49 191.882 300.181 203.307 295.579 214.231C293.27 219.684 290.615 225.025 287.874 230.317L283.727 238.246L279.457 246.197C279.443 246.223 279.44 246.253 279.447 246.281C279.455 246.31 279.473 246.334 279.499 246.349C279.524 246.364 279.554 246.369 279.582 246.363C279.611 246.357 279.636 246.339 279.652 246.315L279.732 246.197C281.315 243.828 282.917 241.187 284.459 238.664C286.006 236.108 287.558 233.552 289.038 230.954C292.006 225.763 294.906 220.522 297.471 215.073C299.984 209.602 302.142 203.973 303.931 198.223C304.828 195.349 305.642 192.45 306.373 189.526C307.075 186.597 307.701 183.652 308.251 180.69C308.29 180.482 308.282 180.268 308.227 180.063C308.171 179.859 308.07 179.67 307.932 179.511L307.917 179.494L302.148 172.913L299.245 169.639L297.794 168.002C297.338 167.474 296.753 166.863 296.441 166.427C294.997 164.163 294.069 161.609 293.721 158.946C293.48 157.561 293.314 156.164 293.222 154.761L293.193 154.244C293.183 154.102 293.206 154.011 293.202 153.892C293.214 153.7 293.304 153.569 293.179 153.732C293.11 153.796 293.025 153.841 292.933 153.862C292.868 153.862 292.905 153.862 292.954 153.866C293.138 153.914 293.315 153.988 293.478 154.085L293.52 154.112C293.792 154.284 294.116 154.353 294.434 154.306C294.751 154.26 295.042 154.101 295.254 153.859C295.351 153.748 295.515 153.648 295.331 153.735C295.195 153.761 295.056 153.751 294.926 153.706C294.869 153.684 294.816 153.652 294.771 153.611C294.856 153.725 294.924 153.851 294.972 153.985C295.053 154.191 295.117 154.402 295.165 154.617C295.207 154.807 295.289 154.986 295.405 155.142C295.521 155.298 295.669 155.427 295.839 155.522C296.009 155.616 296.197 155.673 296.391 155.689C296.585 155.705 296.78 155.68 296.963 155.615L297.004 155.6C297.179 155.519 297.367 155.472 297.56 155.461C297.663 155.47 297.658 155.455 297.751 155.532C297.887 155.691 297.988 155.876 298.05 156.076C298.141 156.341 298.202 156.616 298.231 156.895L300.829 156.822C300.816 157.203 300.708 157.194 300.745 157.187C300.772 157.155 300.804 157.127 300.839 157.104C300.932 157.039 301.01 157.041 300.96 157.039C300.906 157.042 300.865 156.963 300.942 157.058C300.973 157.101 301.01 157.188 301.054 157.259L301.163 157.582C301.297 158.11 301.289 158.607 301.425 159.542C301.566 160.335 301.811 161.107 302.152 161.837C302.808 163.194 303.642 164.457 304.631 165.593C305.585 166.71 306.63 167.745 307.757 168.686C307.833 168.75 307.918 168.803 308.009 168.843L308.05 168.86C309.052 169.274 309.998 169.813 310.865 170.465C311.747 171.137 312.553 171.902 313.27 172.748C313.998 173.61 314.658 174.527 315.246 175.489C315.833 176.448 316.339 177.454 316.761 178.496C316.782 178.551 316.809 178.609 316.836 178.66C317.532 180.123 318.06 181.659 318.41 183.241C318.801 184.877 319.108 186.532 319.329 188.2C319.751 191.567 319.964 194.956 319.969 198.349C319.953 205.166 319.423 211.972 318.382 218.708C317.276 225.435 315.605 232.055 313.386 238.5C311.207 244.938 308.533 251.198 305.388 257.222C303.827 260.229 302.14 263.157 300.327 266.005L298.947 268.122L297.493 270.179C297.021 270.876 296.484 271.518 295.972 272.18L295.197 273.168L294.377 274.035C292.226 276.414 289.417 278.098 286.307 278.875C283.192 279.622 279.922 279.373 276.955 278.165C273.951 276.866 271.269 274.921 269.101 272.467C266.869 269.967 264.95 267.203 263.389 264.236C261.799 261.242 260.395 258.153 259.183 254.987C257.964 251.811 256.919 248.562 255.929 245.29C255.924 245.273 255.916 245.257 255.904 245.243C255.893 245.229 255.879 245.217 255.863 245.208C255.848 245.2 255.83 245.194 255.812 245.192C255.794 245.191 255.776 245.192 255.759 245.197C255.726 245.207 255.698 245.229 255.68 245.259C255.663 245.289 255.657 245.324 255.663 245.358Z" fill="#2B2B2B"/>
<path d="M495.412 441.872C496.97 448.18 499.866 454.078 503.903 459.167C505.981 461.748 508.508 463.933 511.362 465.615C512.809 466.493 514.164 467.115 515.548 467.941L519.663 470.33C525.124 473.579 530.626 476.813 536.069 480.145C541.537 483.439 546.877 486.944 552.099 490.61L551.94 490.368C552.204 492.159 551.954 493.989 551.218 495.643C550.457 497.25 549.158 498.539 547.547 499.286C547.154 499.489 546.744 499.659 546.322 499.793L545.028 500.141C544.14 500.298 543.244 500.407 542.345 500.466C541.43 500.443 540.524 500.489 539.612 500.414L536.876 500.123L537.176 500.214C531.743 497.347 526.265 494.577 520.74 491.904C515.214 489.218 509.677 486.569 503.925 484.282C502.492 483.705 501.022 483.178 499.531 482.675L498.367 482.341C497.959 482.206 497.539 482.11 497.112 482.055L496.411 481.961L496.063 481.92L495.813 481.91C495.473 481.912 495.134 481.891 494.797 481.846C491.911 481.428 489.141 480.421 486.66 478.887C484.117 477.365 481.852 475.421 479.963 473.136C478.091 470.794 476.651 468.137 475.709 465.29L475.695 465.247L475.683 465.219C475.129 464.157 474.595 463.072 474.094 461.979C473.569 460.904 473.141 459.784 472.816 458.632L472.814 458.622C472.807 458.592 472.789 458.565 472.763 458.548C472.737 458.531 472.706 458.525 472.675 458.53C472.645 458.536 472.618 458.552 472.599 458.577C472.581 458.602 472.573 458.633 472.577 458.664C472.769 459.875 473.089 461.063 473.532 462.207C473.941 463.354 474.379 464.485 474.848 465.614L474.821 465.544C476.342 471.764 480.2 477.157 485.594 480.6C486.928 481.478 488.343 482.229 489.818 482.842C491.313 483.489 492.882 483.946 494.49 484.205C494.911 484.276 495.335 484.319 495.762 484.333L496.086 484.35L496.306 484.393L496.741 484.471C497.074 484.521 497.401 484.604 497.717 484.719L498.757 485.037C500.16 485.54 501.567 486.072 502.968 486.665C505.77 487.824 508.575 489.033 511.358 490.292C514.148 491.537 516.942 492.78 519.719 494.066L536.348 501.863L536.421 501.897C536.492 501.93 536.57 501.95 536.649 501.954L539.545 502.111C540.511 502.134 541.49 502.031 542.458 501.995C543.431 501.876 544.397 501.701 545.351 501.472L546.763 501.008C547.229 500.833 547.68 500.618 548.112 500.368C549.898 499.424 551.3 497.885 552.075 496.018C552.816 494.18 553.031 492.171 552.696 490.218C552.688 490.17 552.671 490.125 552.646 490.084C552.62 490.043 552.586 490.008 552.546 489.981L552.537 489.975C547.236 486.406 541.979 482.774 536.767 479.078C531.519 475.427 526.283 471.744 520.768 468.467C518.068 466.786 515.11 465.303 512.37 463.809C509.677 462.303 507.26 460.348 505.222 458.029C503.137 455.679 501.304 453.117 499.752 450.385C498.149 447.643 496.775 444.773 495.645 441.805L495.642 441.797C495.631 441.769 495.609 441.745 495.581 441.732C495.553 441.718 495.521 441.716 495.492 441.726C495.462 441.735 495.438 441.755 495.423 441.783C495.408 441.81 495.404 441.842 495.412 441.872L495.412 441.872Z" fill="#2B2B2B"/>
<path d="M552.318 490.293C552.318 490.293 561.576 504.763 542.036 510.898C542.036 510.898 530.534 513.95 512.024 495.379C512.024 495.379 503.571 487.299 501.297 487.596L504.059 495.098L494.124 498.524L482.068 492.955L476.058 467.76C477.867 471.779 480.643 475.287 484.137 477.97C487.632 480.653 491.735 482.428 496.082 483.135C511.411 485.947 523.368 495.292 536.763 501.039C536.763 501.039 554.058 504.079 552.318 490.293Z" fill="#2B2B2B"/>
<path d="M540.011 481.979C540.011 481.979 528.352 482.83 526.395 495.936L515.273 490.663C515.273 490.663 517.324 474.595 531.539 476.441C531.539 476.441 536.286 475.626 540.011 481.979Z" fill="#2B2B2B"/>
<path d="M419.436 457.025C417.7 463.286 417.325 469.846 418.334 476.265C418.88 479.534 420.009 482.677 421.666 485.546C422.537 486.998 423.373 488.232 424.177 489.63L426.579 493.74C429.741 499.257 432.945 504.78 436.049 510.36C439.185 515.924 442.139 521.592 444.848 527.373L444.828 527.067C444.183 528.758 443.077 530.234 441.636 531.327C440.188 532.365 438.419 532.853 436.644 532.704C434.853 532.539 433.114 532.01 431.533 531.15C429.916 530.292 428.379 529.289 426.94 528.155L427.157 528.383C422.718 521.471 418.105 514.686 413.376 507.962C410.994 504.611 408.565 501.293 405.969 498.07C404.665 496.415 403.265 494.84 401.776 493.351C401.335 492.92 400.848 492.539 400.324 492.216C399.931 491.999 399.552 491.755 399.192 491.486C398.436 490.904 397.733 490.255 397.092 489.549C394.466 486.588 392.56 483.06 391.523 479.239C390.435 475.367 390.203 471.303 390.844 467.332C392.11 459.206 393.112 451.074 394.108 442.928C394.112 442.896 394.103 442.865 394.084 442.839C394.064 442.814 394.036 442.797 394.004 442.793C393.973 442.789 393.941 442.797 393.915 442.816C393.89 442.835 393.873 442.864 393.868 442.895C392.597 450.994 391.414 459.123 389.944 467.17C388.98 471.274 388.946 475.542 389.843 479.662C390.769 483.841 392.677 487.74 395.407 491.035C396.112 491.874 396.891 492.65 397.733 493.351C398.18 493.714 398.653 494.044 399.147 494.337C399.483 494.571 399.796 494.835 400.083 495.126C401.464 496.565 402.761 498.082 403.967 499.67C406.476 502.862 408.899 506.156 411.327 509.444C416.183 516.024 420.892 522.733 425.624 529.414L425.65 529.451C425.702 529.524 425.767 529.589 425.841 529.641C427.421 530.771 429.107 531.743 430.876 532.543C432.674 533.38 434.619 533.851 436.6 533.93C438.627 533.993 440.611 533.337 442.202 532.078C443.749 530.835 444.925 529.19 445.6 527.323C445.618 527.273 445.625 527.22 445.621 527.168C445.618 527.115 445.604 527.064 445.58 527.017C442.678 521.318 439.902 515.566 437.176 509.776C434.399 504.015 431.649 498.23 428.456 492.661C426.925 489.871 425.088 487.118 423.382 484.503C421.792 481.852 420.661 478.953 420.034 475.926C419.354 472.856 419.016 469.72 419.028 466.575C418.981 463.398 419.196 460.223 419.672 457.082L419.673 457.075C419.678 457.044 419.67 457.013 419.653 456.988C419.635 456.962 419.608 456.944 419.578 456.938C419.548 456.932 419.516 456.937 419.49 456.954C419.464 456.97 419.444 456.995 419.436 457.025L419.436 457.025Z" fill="#2B2B2B"/>
<path d="M445.213 527.195C445.213 527.195 446.169 544.352 426.141 540.08C426.141 540.08 414.625 537.077 407.626 511.797C407.626 511.797 404.232 500.6 402.107 499.74L400.828 507.632L390.493 505.727L382.73 494.945L389.868 470.046C389.47 474.436 390.165 478.857 391.891 482.913C393.616 486.969 396.318 490.534 399.756 493.289C411.724 503.281 417.548 517.303 426.39 528.899C426.39 528.899 439.959 540.057 445.213 527.195Z" fill="#2B2B2B"/>
<path d="M438.579 513.898C438.579 513.898 428.008 508.902 419.868 519.353L412.773 509.287C412.773 509.287 422.449 496.304 433.922 504.907C433.922 504.907 438.456 506.533 438.579 513.898Z" fill="#2B2B2B"/>
<path d="M471.886 305.612C471.854 305.647 471.824 305.685 471.797 305.726L471.79 305.735L471.779 305.748L470.34 307.384C470.303 307.426 470.278 307.478 470.269 307.533C470.26 307.588 470.267 307.645 470.288 307.697C470.31 307.749 470.345 307.793 470.391 307.826C470.437 307.858 470.491 307.877 470.547 307.88L470.572 307.882C477.402 308.287 484.233 308.533 491.063 308.663L496.186 308.752C497.109 308.793 498.034 308.746 498.948 308.61C500.389 308.365 501.759 307.806 502.959 306.973C504.16 306.139 505.163 305.051 505.896 303.786C506.857 302.113 507.318 300.2 507.225 298.273C507.125 291.434 506.869 284.593 506.804 277.754C506.774 270.916 506.918 264.08 507.239 257.246C507.31 256.352 507.294 255.454 507.191 254.563C507.073 253.64 506.82 252.74 506.44 251.89C505.681 250.156 504.438 248.677 502.859 247.633C501.259 246.574 499.388 245.996 497.47 245.967L492.347 245.871L487.224 245.805C484.277 245.771 481.431 246.883 479.286 248.907C477.141 250.932 475.865 253.71 475.726 256.658C474.927 270.309 474.43 283.978 474.235 297.663L474.235 297.709L474.236 297.74C474.276 298.403 474.239 299.068 474.127 299.722C474.016 300.407 473.854 301.082 473.645 301.743C473.201 303.082 472.616 304.37 471.9 305.586C471.891 305.601 471.884 305.618 471.881 305.636C471.879 305.654 471.879 305.672 471.884 305.69C471.888 305.707 471.895 305.724 471.906 305.738C471.917 305.753 471.93 305.765 471.946 305.775C471.975 305.792 472.009 305.798 472.043 305.792C472.076 305.786 472.106 305.767 472.127 305.74C472.568 305.167 472.979 304.572 473.358 303.956C473.734 303.33 474.069 302.681 474.362 302.013C474.654 301.336 474.897 300.638 475.089 299.926C475.295 299.186 475.411 298.424 475.435 297.656L475.435 297.732C476.815 284.115 477.886 270.48 478.647 256.825C478.714 255.35 479.138 253.914 479.882 252.639C480.638 251.368 481.707 250.312 482.987 249.574C484.277 248.83 485.736 248.428 487.224 248.407L492.347 248.341L497.47 248.245C499.001 248.191 500.517 248.571 501.842 249.342C503.167 250.112 504.248 251.242 504.961 252.6C505.33 253.289 505.592 254.031 505.738 254.8C505.877 255.602 505.937 256.416 505.918 257.23C506.078 264.07 506.057 270.907 505.855 277.743C505.622 284.578 505.196 291.41 504.927 298.245C504.946 299.756 504.552 301.243 503.789 302.546C503.026 303.818 501.926 304.852 500.61 305.534C499.955 305.876 499.254 306.119 498.528 306.254C497.754 306.38 496.97 306.431 496.186 306.405L491.063 306.494C484.233 306.624 477.403 306.871 470.572 307.275L470.805 307.773L472.03 305.918L472.012 305.94C472.059 305.866 472.102 305.789 472.141 305.714C472.155 305.686 472.159 305.653 472.152 305.622C472.144 305.591 472.125 305.564 472.099 305.546C472.073 305.528 472.041 305.52 472.009 305.524C471.978 305.528 471.948 305.543 471.927 305.566L471.886 305.612Z" fill="#2B2B2B"/>
<path d="M438.625 338.621C438.073 339.502 437.65 340.458 437.369 341.46C437.092 342.412 436.901 343.386 436.796 344.371C436.688 345.357 436.67 346.35 436.741 347.338C436.804 348.377 437.018 349.401 437.375 350.378C437.93 349.498 438.354 348.542 438.635 347.54C438.912 346.588 439.102 345.614 439.204 344.628C439.309 343.642 439.327 342.65 439.257 341.661C439.192 340.623 438.98 339.599 438.625 338.621Z" fill="white"/>
</svg>
