<svg width="133" height="43" viewBox="0 0 133 43" fill="none" xmlns="http://www.w3.org/2000/svg">
<path d="M26.7705 0V23.4468L14.3655 43H0L26.7705 0Z" fill="#F2F2F2"/>
<path d="M60.0731 0H45.7031V42.9108H60.0731V0Z" fill="#F2F2F2"/>
<path d="M42.661 0H28.291V42.9108H42.661V0Z" fill="#F2F2F2"/>
<path d="M61.5938 0H79.0773L87.2875 8.27798V17.3454L83.1196 21.4888L87.2965 25.6368V34.6061L78.9607 42.893H61.5938V33.8122H72.9175V25.552H61.5938V17.3231H72.9175V8.2423H61.5938V0.200705V0Z" fill="#F2F2F2"/>
<path d="M104.709 0H90.3389V42.9108H104.709V0Z" fill="#F2F2F2"/>
<path d="M106.229 43V19.5532L118.634 0H133L106.229 43Z" fill="#F2F2F2"/>
</svg>
