<svg width="21" height="20" viewBox="0 0 21 20" fill="none" xmlns="http://www.w3.org/2000/svg">
<path d="M8.39373 11.2873C8.31852 11.2873 6.664 11.2873 5.91194 11.2873C5.51084 11.2873 5.3855 11.1385 5.3855 10.7665C5.3855 9.77454 5.3855 8.75774 5.3855 7.76574C5.3855 7.36894 5.53591 7.24494 5.91194 7.24494H8.39373C8.39373 7.17054 8.39373 5.73214 8.39373 5.06254C8.39373 4.07054 8.56921 3.12814 9.07058 2.26014C9.59702 1.36734 10.3491 0.772139 11.3017 0.424939C11.9284 0.201739 12.5551 0.102539 13.232 0.102539H15.6887C16.0396 0.102539 16.1901 0.251339 16.1901 0.598539V3.42574C16.1901 3.77294 16.0396 3.92174 15.6887 3.92174C15.0118 3.92174 14.335 3.92174 13.6581 3.94654C12.9813 3.94654 12.6303 4.26894 12.6303 4.96334C12.6053 5.70734 12.6303 6.42654 12.6303 7.19534H15.5383C15.9394 7.19534 16.0898 7.34414 16.0898 7.74094V10.7417C16.0898 11.1385 15.9644 11.2625 15.5383 11.2625C14.6358 11.2625 12.7055 11.2625 12.6303 11.2625V19.3473C12.6303 19.7689 12.505 19.9177 12.0537 19.9177C11.0009 19.9177 9.97305 19.9177 8.92017 19.9177C8.54414 19.9177 8.39373 19.7689 8.39373 19.3969C8.39373 16.7929 8.39373 11.3617 8.39373 11.2873V11.2873Z" fill="#2B2B2B"/>
</svg>
