<svg width="20" height="20" viewBox="0 0 20 20" fill="none" xmlns="http://www.w3.org/2000/svg">
<path d="M19.92 19.9201V12.6537C19.92 9.08249 19.1512 6.35449 14.9848 6.35449C12.976 6.35449 11.6368 7.44569 11.0912 8.48729H11.0416V6.67689H7.09839V19.9201H11.2152V13.3481C11.2152 11.6121 11.5376 9.95049 13.6704 9.95049C15.7784 9.95049 15.8032 11.9097 15.8032 13.4473V19.8953H19.92V19.9201Z" fill="#2B2B2B"/>
<path d="M0.402344 6.67676H4.51914V19.92H0.402344V6.67676Z" fill="#2B2B2B"/>
<path d="M2.46076 0.0800781C1.14636 0.0800781 0.0799561 1.14648 0.0799561 2.46088C0.0799561 3.77528 1.14636 4.86648 2.46076 4.86648C3.77516 4.86648 4.84156 3.77528 4.84156 2.46088C4.84156 1.14648 3.77516 0.0800781 2.46076 0.0800781Z" fill="#2B2B2B"/>
</svg>
