<svg width="30" height="22" viewBox="0 0 30 22" fill="none" xmlns="http://www.w3.org/2000/svg">
<path d="M29.2786 10.0572L19.9453 0.723892C19.6938 0.481015 19.357 0.346622 19.0074 0.34966C18.6578 0.352698 18.3234 0.492923 18.0762 0.740134C17.829 0.987345 17.6887 1.32176 17.6857 1.67136C17.6827 2.02095 17.8171 2.35776 18.0599 2.60923L25.1173 9.66656H1.66927C1.31565 9.66656 0.97651 9.80703 0.726462 10.0571C0.476413 10.3071 0.335938 10.6463 0.335938 10.9999C0.335938 11.3535 0.476413 11.6927 0.726462 11.9427C0.97651 12.1927 1.31565 12.3332 1.66927 12.3332H25.1173L18.0599 19.3906C17.9326 19.5136 17.831 19.6607 17.7611 19.8234C17.6913 19.986 17.6545 20.161 17.6529 20.338C17.6514 20.5151 17.6851 20.6906 17.7522 20.8545C17.8192 21.0184 17.9182 21.1672 18.0434 21.2924C18.1686 21.4176 18.3175 21.5166 18.4813 21.5837C18.6452 21.6507 18.8208 21.6844 18.9978 21.6829C19.1748 21.6814 19.3498 21.6446 19.5125 21.5747C19.6751 21.5048 19.8223 21.4032 19.9453 21.2759L29.2786 11.9426C29.5286 11.6925 29.669 11.3534 29.669 10.9999C29.669 10.6463 29.5286 10.3073 29.2786 10.0572Z" fill="#F4A81D"/>
</svg>
