<svg width="40" height="40" viewBox="0 0 40 40" fill="none" xmlns="http://www.w3.org/2000/svg">
<g clip-path="url(#clip0_2780_442)">
<path d="M20.0018 10.5098L5.73596 22.2704C5.73596 22.287 5.73179 22.3114 5.72345 22.3447C5.71528 22.3777 5.71094 22.4017 5.71094 22.4187V34.3276C5.71094 34.7576 5.86814 35.1303 6.18246 35.444C6.49669 35.758 6.8688 35.916 7.29887 35.916H16.8257V26.3886H23.1779V35.9163H32.7047C33.1346 35.9163 33.5073 35.7587 33.8211 35.444C34.1354 35.1306 34.2931 34.7577 34.2931 34.3276V22.4187C34.2931 22.3527 34.2841 22.3028 34.2681 22.2704L20.0018 10.5098Z" fill="#F4A81D"/>
<path d="M39.7241 19.5908L34.2909 15.0753V4.95255C34.2909 4.72114 34.2165 4.53083 34.0672 4.38188C33.9191 4.23311 33.7288 4.15872 33.4969 4.15872H28.7333C28.5017 4.15872 28.3114 4.23311 28.1624 4.38188C28.0137 4.53083 27.9394 4.72122 27.9394 4.95255V9.79055L21.8858 4.72904C21.3571 4.29898 20.7284 4.08398 20.0006 4.08398C19.2728 4.08398 18.6442 4.29898 18.115 4.72904L0.275696 19.5908C0.110325 19.7229 0.0196879 19.9007 0.00282925 20.124C-0.0139425 20.3472 0.0438462 20.5421 0.176369 20.7074L1.71459 22.5434C1.84711 22.6922 2.02057 22.7832 2.23564 22.8165C2.43421 22.8331 2.63278 22.7751 2.83135 22.6428L20.0001 8.32671L37.1689 22.6427C37.3015 22.7581 37.4749 22.8158 37.69 22.8158H37.7645C37.9793 22.7831 38.1524 22.6915 38.2856 22.5431L39.824 20.7073C39.9563 20.5417 40.0142 20.3471 39.997 20.1237C39.9801 19.901 39.8891 19.7232 39.7241 19.5908Z" fill="#F4A81D"/>
</g>
<defs>
<clipPath id="clip0_2780_442">
<rect width="40" height="40" fill="white"/>
</clipPath>
</defs>
</svg>
