<svg width="40" height="40" viewBox="0 0 40 40" fill="none" xmlns="http://www.w3.org/2000/svg">
<g clip-path="url(#clip0_2780_424)">
<path d="M19.9974 35.0002C22.6345 35.0002 25.2123 34.2182 27.405 32.7531C29.5977 31.288 31.3066 29.2056 32.3158 26.7693C33.325 24.3329 33.589 21.652 33.0745 19.0656C32.5601 16.4792 31.2902 14.1034 29.4255 12.2387C27.5608 10.374 25.185 9.10417 22.5986 8.5897C20.0122 8.07523 17.3313 8.33927 14.895 9.34844C12.4586 10.3576 10.3762 12.0666 8.91113 14.2592C7.44605 16.4519 6.66406 19.0298 6.66406 21.6668C6.66803 25.2018 8.07407 28.5909 10.5737 31.0905C13.0733 33.5902 16.4624 34.9962 19.9974 35.0002ZM26.6641 15.0002C26.9937 15.0002 27.3159 15.0979 27.59 15.2811C27.8641 15.4642 28.0777 15.7245 28.2039 16.029C28.33 16.3336 28.363 16.6687 28.2987 16.992C28.2344 17.3153 28.0757 17.6123 27.8426 17.8453C27.6095 18.0784 27.3125 18.2372 26.9892 18.3015C26.6659 18.3658 26.3308 18.3328 26.0263 18.2066C25.7217 18.0805 25.4614 17.8669 25.2783 17.5928C25.0951 17.3187 24.9974 16.9965 24.9974 16.6668C24.9974 16.2248 25.173 15.8009 25.4856 15.4883C25.7981 15.1758 26.222 15.0002 26.6641 15.0002ZM11.193 20.6931C11.9789 20.6868 12.7302 20.369 13.2821 19.8095C13.834 19.25 14.1414 18.4944 14.137 17.7085C14.137 17.598 14.1809 17.492 14.259 17.4139C14.3372 17.3357 14.4431 17.2918 14.5536 17.2918C14.6642 17.2918 14.7701 17.3357 14.8483 17.4139C14.9264 17.492 14.9703 17.598 14.9703 17.7085C14.9658 18.4944 15.2732 19.2499 15.8251 19.8095C16.3769 20.369 17.1282 20.6868 17.9141 20.6931C18.0246 20.6931 18.1306 20.737 18.2087 20.8151C18.2868 20.8933 18.3307 20.9992 18.3307 21.1098C18.3307 21.2203 18.2868 21.3262 18.2087 21.4044C18.1306 21.4825 18.0246 21.5264 17.9141 21.5264C17.1282 21.5328 16.3769 21.8505 15.8251 22.4101C15.2732 22.9696 14.9658 23.7251 14.9703 24.511C14.9703 24.6215 14.9264 24.7275 14.8483 24.8056C14.7701 24.8838 14.6642 24.9277 14.5536 24.9277C14.4431 24.9277 14.3372 24.8838 14.259 24.8056C14.1809 24.7275 14.137 24.6215 14.137 24.511C14.1414 23.7251 13.834 22.9695 13.2821 22.41C12.7302 21.8505 11.9789 21.5328 11.193 21.5264C11.0825 21.5264 10.9765 21.4825 10.8984 21.4044C10.8203 21.3262 10.7764 21.2203 10.7764 21.1098C10.7764 20.9992 10.8203 20.8933 10.8984 20.8151C10.9765 20.737 11.0825 20.6931 11.193 20.6931Z" fill="#2B2B2B"/>
<path d="M13.276 4.23458C14.0619 4.24092 14.8132 4.55869 15.3651 5.1182C15.917 5.67771 16.2244 6.43328 16.22 7.21917C16.22 7.32967 16.2639 7.43565 16.342 7.51379C16.4202 7.59193 16.5262 7.63583 16.6367 7.63583C16.7472 7.63583 16.8532 7.59193 16.9313 7.51379C17.0094 7.43565 17.0533 7.32967 17.0533 7.21917C17.0488 6.4333 17.3562 5.67773 17.9081 5.11821C18.46 4.55869 19.2112 4.24092 19.9971 4.23458C20.1076 4.23458 20.2136 4.19068 20.2917 4.11254C20.3699 4.0344 20.4138 3.92842 20.4138 3.81792C20.4138 3.70741 20.3699 3.60143 20.2917 3.52329C20.2136 3.44515 20.1076 3.40125 19.9971 3.40125C19.2112 3.39492 18.46 3.07714 17.9081 2.51762C17.3562 1.9581 17.0488 1.20254 17.0533 0.416667C17.0533 0.30616 17.0094 0.200179 16.9313 0.122039C16.8532 0.0438987 16.7472 0 16.6367 0C16.5262 0 16.4202 0.0438987 16.342 0.122039C16.2639 0.200179 16.22 0.30616 16.22 0.416667C16.2244 1.20256 15.917 1.95812 15.3651 2.51763C14.8132 3.07715 14.0619 3.39492 13.276 3.40125C13.1655 3.40125 13.0596 3.44515 12.9814 3.52329C12.9033 3.60143 12.8594 3.70741 12.8594 3.81792C12.8594 3.92842 12.9033 4.0344 12.9814 4.11254C13.0596 4.19068 13.1655 4.23458 13.276 4.23458Z" fill="#2B2B2B"/>
<path d="M7.49969 11.7344C7.49969 11.6239 7.45579 11.5179 7.37765 11.4398C7.29951 11.3617 7.19353 11.3178 7.08302 11.3178C6.29716 11.3114 5.5459 10.9936 4.99404 10.4341C4.44218 9.87461 4.13478 9.11904 4.13927 8.33317C4.13927 8.22266 4.09537 8.11668 4.01723 8.03854C3.93909 7.9604 3.83311 7.9165 3.7226 7.9165C3.6121 7.9165 3.50612 7.9604 3.42798 8.03854C3.34984 8.11668 3.30594 8.22266 3.30594 8.33317C3.31038 9.11906 3.00293 9.87463 2.45103 10.4341C1.89914 10.9936 1.14786 11.3114 0.361979 11.3178C0.251472 11.3178 0.145492 11.3617 0.0673513 11.4398C-0.0107888 11.5179 -0.0546875 11.6239 -0.0546875 11.7344C-0.0546875 11.8449 -0.0107888 11.9509 0.0673513 12.029C0.145492 12.1072 0.251472 12.1511 0.361979 12.1511C1.14786 12.1574 1.89914 12.4752 2.45103 13.0347C3.00293 13.5942 3.31038 14.3498 3.30594 15.1357C3.30594 15.1904 3.31672 15.2446 3.33765 15.2951C3.35859 15.3457 3.38929 15.3916 3.42798 15.4303C3.46667 15.469 3.5126 15.4997 3.56315 15.5206C3.61371 15.5416 3.66789 15.5523 3.7226 15.5523C3.77732 15.5523 3.8315 15.5416 3.88206 15.5206C3.93261 15.4997 3.97854 15.469 4.01723 15.4303C4.05592 15.3916 4.08661 15.3457 4.10755 15.2951C4.12849 15.2446 4.13927 15.1904 4.13927 15.1357C4.13478 14.3498 4.44218 13.5942 4.99404 13.0347C5.5459 12.4752 6.29716 12.1574 7.08302 12.1511C7.19353 12.1511 7.29951 12.1072 7.37765 12.029C7.45579 11.9509 7.49969 11.8449 7.49969 11.7344Z" fill="#2B2B2B"/>
<path d="M30.1043 32.75C27.3414 35.2699 23.7368 36.6668 19.9974 36.6668C16.258 36.6668 12.6534 35.2699 9.89052 32.75L7.15219 35.4881C6.99742 35.6429 6.87466 35.8266 6.79091 36.0289C6.70716 36.2311 6.66405 36.4478 6.66406 36.6667V38.3333C6.66406 38.7754 6.83966 39.1993 7.15222 39.5118C7.46478 39.8244 7.8887 40 8.33073 40H31.6641C32.1061 40 32.53 39.8244 32.8426 39.5118C33.1551 39.1993 33.3307 38.7754 33.3307 38.3333V36.6667C33.3307 36.4478 33.2876 36.2311 33.2039 36.0289C33.1201 35.8266 32.9974 35.6429 32.8426 35.4881L30.1043 32.75Z" fill="#2B2B2B"/>
</g>
<defs>
<clipPath id="clip0_2780_424">
<rect width="40" height="40" fill="white"/>
</clipPath>
</defs>
</svg>
